<svg width="96" height="96" xmlns="http://www.w3.org/2000/svg" xmlns:xlink="http://www.w3.org/1999/xlink" xml:space="preserve" overflow="hidden"><g transform="translate(-592 -312)"><g><path d="M682.6 392 643.5 324C642 321.3 638.1 321.3 636.6 324L597.4 392C595.9 394.7 597.8 398 600.9 398L640 398 679.1 398C682.2 398 684.1 394.7 682.6 392ZM637 340 643 340 643 375 637 375 637 340ZM640 389C637.2 389 635 386.8 635 384 635 381.2 637.2 379 640 379 642.8 379 645 381.2 645 384 645 386.8 642.8 389 640 389Z" fill="#000000" fill-rule="nonzero" fill-opacity="1"/></g></g></svg>