<?xml version="1.0" encoding="utf-8" standalone="no"?>
<!DOCTYPE svg PUBLIC "-//W3C//DTD SVG 1.1//EN"
  "http://www.w3.org/Graphics/SVG/1.1/DTD/svg11.dtd">
<svg xmlns:xlink="http://www.w3.org/1999/xlink" width="1000.318125pt" height="330.541644pt" viewBox="0 0 1000.318125 330.541644" xmlns="http://www.w3.org/2000/svg" version="1.1">
 <metadata>
  <rdf:RDF xmlns:dc="http://purl.org/dc/elements/1.1/" xmlns:cc="http://creativecommons.org/ns#" xmlns:rdf="http://www.w3.org/1999/02/22-rdf-syntax-ns#">
   <cc:Work>
    <dc:type rdf:resource="http://purl.org/dc/dcmitype/StillImage"/>
    <dc:date>2024-08-14T16:02:16.330635</dc:date>
    <dc:format>image/svg+xml</dc:format>
    <dc:creator>
     <cc:Agent>
      <dc:title>Matplotlib v3.5.3, https://matplotlib.org/</dc:title>
     </cc:Agent>
    </dc:creator>
   </cc:Work>
  </rdf:RDF>
 </metadata>
 <defs>
  <style type="text/css">*{stroke-linejoin: round; stroke-linecap: butt}</style>
 </defs>
 <g id="figure_1">
  <g id="axes_1">
   <g id="patch_1">
    <path d="M 38.058125 273.99006 
L 993.118125 273.99006 
L 993.118125 31.48286 
L 38.058125 31.48286 
z
" style="fill: #ffffff"/>
   </g>
   <g id="patch_2">
    <path d="M 38.058125 92.414154 
L 958.476371 92.414154 
L 958.476371 -374.49532 
L 38.058125 -374.49532 
z
" clip-path="url(#pc957b727e8)" style="fill: #c3e6c3"/>
   </g>
   <g id="patch_3">
    <path d="M 38.058125 144.292984 
L 958.476371 144.292984 
L 958.476371 92.414154 
L 38.058125 92.414154 
z
" clip-path="url(#pc957b727e8)" style="fill: #e6dcc3"/>
   </g>
   <g id="patch_4">
    <path d="M 38.058125 273.99006 
L 958.476371 273.99006 
L 958.476371 144.292984 
L 38.058125 144.292984 
z
" clip-path="url(#pc957b727e8)" style="fill: #e6c3c3"/>
   </g>
   <g id="matplotlib.axis_1">
    <g id="xtick_1">
     <g id="text_1">
      <!-- 0 -->
      <g transform="translate(70.154879 287.06881)scale(0.08 -0.08)">
       <defs>
        <path id="DejaVuSans-30" d="M 2034 4250 
Q 1547 4250 1301 3770 
Q 1056 3291 1056 2328 
Q 1056 1369 1301 889 
Q 1547 409 2034 409 
Q 2525 409 2770 889 
Q 3016 1369 3016 2328 
Q 3016 3291 2770 3770 
Q 2525 4250 2034 4250 
z
M 2034 4750 
Q 2819 4750 3233 4129 
Q 3647 3509 3647 2328 
Q 3647 1150 3233 529 
Q 2819 -91 2034 -91 
Q 1250 -91 836 529 
Q 422 1150 422 2328 
Q 422 3509 836 4129 
Q 1250 4750 2034 4750 
z
" transform="scale(0.015625)"/>
       </defs>
       <use xlink:href="#DejaVuSans-30"/>
      </g>
     </g>
    </g>
    <g id="xtick_2">
     <g id="text_2">
      <!-- 20 -->
      <g transform="translate(243.011164 287.06881)scale(0.08 -0.08)">
       <defs>
        <path id="DejaVuSans-32" d="M 1228 531 
L 3431 531 
L 3431 0 
L 469 0 
L 469 531 
Q 828 903 1448 1529 
Q 2069 2156 2228 2338 
Q 2531 2678 2651 2914 
Q 2772 3150 2772 3378 
Q 2772 3750 2511 3984 
Q 2250 4219 1831 4219 
Q 1534 4219 1204 4116 
Q 875 4013 500 3803 
L 500 4441 
Q 881 4594 1212 4672 
Q 1544 4750 1819 4750 
Q 2544 4750 2975 4387 
Q 3406 4025 3406 3419 
Q 3406 3131 3298 2873 
Q 3191 2616 2906 2266 
Q 2828 2175 2409 1742 
Q 1991 1309 1228 531 
z
" transform="scale(0.015625)"/>
       </defs>
       <use xlink:href="#DejaVuSans-32"/>
       <use xlink:href="#DejaVuSans-30" x="63.623047"/>
      </g>
     </g>
    </g>
    <g id="xtick_3">
     <g id="text_3">
      <!-- 40 -->
      <g transform="translate(418.41245 287.06881)scale(0.08 -0.08)">
       <defs>
        <path id="DejaVuSans-34" d="M 2419 4116 
L 825 1625 
L 2419 1625 
L 2419 4116 
z
M 2253 4666 
L 3047 4666 
L 3047 1625 
L 3713 1625 
L 3713 1100 
L 3047 1100 
L 3047 0 
L 2419 0 
L 2419 1100 
L 313 1100 
L 313 1709 
L 2253 4666 
z
" transform="scale(0.015625)"/>
       </defs>
       <use xlink:href="#DejaVuSans-34"/>
       <use xlink:href="#DejaVuSans-30" x="63.623047"/>
      </g>
     </g>
    </g>
    <g id="xtick_4">
     <g id="text_4">
      <!-- 60 -->
      <g transform="translate(593.813736 287.06881)scale(0.08 -0.08)">
       <defs>
        <path id="DejaVuSans-36" d="M 2113 2584 
Q 1688 2584 1439 2293 
Q 1191 2003 1191 1497 
Q 1191 994 1439 701 
Q 1688 409 2113 409 
Q 2538 409 2786 701 
Q 3034 994 3034 1497 
Q 3034 2003 2786 2293 
Q 2538 2584 2113 2584 
z
M 3366 4563 
L 3366 3988 
Q 3128 4100 2886 4159 
Q 2644 4219 2406 4219 
Q 1781 4219 1451 3797 
Q 1122 3375 1075 2522 
Q 1259 2794 1537 2939 
Q 1816 3084 2150 3084 
Q 2853 3084 3261 2657 
Q 3669 2231 3669 1497 
Q 3669 778 3244 343 
Q 2819 -91 2113 -91 
Q 1303 -91 875 529 
Q 447 1150 447 2328 
Q 447 3434 972 4092 
Q 1497 4750 2381 4750 
Q 2619 4750 2861 4703 
Q 3103 4656 3366 4563 
z
" transform="scale(0.015625)"/>
       </defs>
       <use xlink:href="#DejaVuSans-36"/>
       <use xlink:href="#DejaVuSans-30" x="63.623047"/>
      </g>
     </g>
    </g>
    <g id="xtick_5">
     <g id="text_5">
      <!-- 80 -->
      <g transform="translate(769.215021 287.06881)scale(0.08 -0.08)">
       <defs>
        <path id="DejaVuSans-38" d="M 2034 2216 
Q 1584 2216 1326 1975 
Q 1069 1734 1069 1313 
Q 1069 891 1326 650 
Q 1584 409 2034 409 
Q 2484 409 2743 651 
Q 3003 894 3003 1313 
Q 3003 1734 2745 1975 
Q 2488 2216 2034 2216 
z
M 1403 2484 
Q 997 2584 770 2862 
Q 544 3141 544 3541 
Q 544 4100 942 4425 
Q 1341 4750 2034 4750 
Q 2731 4750 3128 4425 
Q 3525 4100 3525 3541 
Q 3525 3141 3298 2862 
Q 3072 2584 2669 2484 
Q 3125 2378 3379 2068 
Q 3634 1759 3634 1313 
Q 3634 634 3220 271 
Q 2806 -91 2034 -91 
Q 1263 -91 848 271 
Q 434 634 434 1313 
Q 434 1759 690 2068 
Q 947 2378 1403 2484 
z
M 1172 3481 
Q 1172 3119 1398 2916 
Q 1625 2713 2034 2713 
Q 2441 2713 2670 2916 
Q 2900 3119 2900 3481 
Q 2900 3844 2670 4047 
Q 2441 4250 2034 4250 
Q 1625 4250 1398 4047 
Q 1172 3844 1172 3481 
z
" transform="scale(0.015625)"/>
       </defs>
       <use xlink:href="#DejaVuSans-38"/>
       <use xlink:href="#DejaVuSans-30" x="63.623047"/>
      </g>
     </g>
    </g>
    <g id="xtick_6">
     <g id="text_6">
      <!-- 100 -->
      <g transform="translate(942.071307 287.06881)scale(0.08 -0.08)">
       <defs>
        <path id="DejaVuSans-31" d="M 794 531 
L 1825 531 
L 1825 4091 
L 703 3866 
L 703 4441 
L 1819 4666 
L 2450 4666 
L 2450 531 
L 3481 531 
L 3481 0 
L 794 0 
L 794 531 
z
" transform="scale(0.015625)"/>
       </defs>
       <use xlink:href="#DejaVuSans-31"/>
       <use xlink:href="#DejaVuSans-30" x="63.623047"/>
       <use xlink:href="#DejaVuSans-30" x="127.246094"/>
      </g>
     </g>
    </g>
    <g id="text_7">
     <!-- Position (bp) -->
     <g transform="translate(484.285 300.330997)scale(0.1 -0.1)">
      <defs>
       <path id="DejaVuSans-50" d="M 1259 4147 
L 1259 2394 
L 2053 2394 
Q 2494 2394 2734 2622 
Q 2975 2850 2975 3272 
Q 2975 3691 2734 3919 
Q 2494 4147 2053 4147 
L 1259 4147 
z
M 628 4666 
L 2053 4666 
Q 2838 4666 3239 4311 
Q 3641 3956 3641 3272 
Q 3641 2581 3239 2228 
Q 2838 1875 2053 1875 
L 1259 1875 
L 1259 0 
L 628 0 
L 628 4666 
z
" transform="scale(0.015625)"/>
       <path id="DejaVuSans-6f" d="M 1959 3097 
Q 1497 3097 1228 2736 
Q 959 2375 959 1747 
Q 959 1119 1226 758 
Q 1494 397 1959 397 
Q 2419 397 2687 759 
Q 2956 1122 2956 1747 
Q 2956 2369 2687 2733 
Q 2419 3097 1959 3097 
z
M 1959 3584 
Q 2709 3584 3137 3096 
Q 3566 2609 3566 1747 
Q 3566 888 3137 398 
Q 2709 -91 1959 -91 
Q 1206 -91 779 398 
Q 353 888 353 1747 
Q 353 2609 779 3096 
Q 1206 3584 1959 3584 
z
" transform="scale(0.015625)"/>
       <path id="DejaVuSans-73" d="M 2834 3397 
L 2834 2853 
Q 2591 2978 2328 3040 
Q 2066 3103 1784 3103 
Q 1356 3103 1142 2972 
Q 928 2841 928 2578 
Q 928 2378 1081 2264 
Q 1234 2150 1697 2047 
L 1894 2003 
Q 2506 1872 2764 1633 
Q 3022 1394 3022 966 
Q 3022 478 2636 193 
Q 2250 -91 1575 -91 
Q 1294 -91 989 -36 
Q 684 19 347 128 
L 347 722 
Q 666 556 975 473 
Q 1284 391 1588 391 
Q 1994 391 2212 530 
Q 2431 669 2431 922 
Q 2431 1156 2273 1281 
Q 2116 1406 1581 1522 
L 1381 1569 
Q 847 1681 609 1914 
Q 372 2147 372 2553 
Q 372 3047 722 3315 
Q 1072 3584 1716 3584 
Q 2034 3584 2315 3537 
Q 2597 3491 2834 3397 
z
" transform="scale(0.015625)"/>
       <path id="DejaVuSans-69" d="M 603 3500 
L 1178 3500 
L 1178 0 
L 603 0 
L 603 3500 
z
M 603 4863 
L 1178 4863 
L 1178 4134 
L 603 4134 
L 603 4863 
z
" transform="scale(0.015625)"/>
       <path id="DejaVuSans-74" d="M 1172 4494 
L 1172 3500 
L 2356 3500 
L 2356 3053 
L 1172 3053 
L 1172 1153 
Q 1172 725 1289 603 
Q 1406 481 1766 481 
L 2356 481 
L 2356 0 
L 1766 0 
Q 1100 0 847 248 
Q 594 497 594 1153 
L 594 3053 
L 172 3053 
L 172 3500 
L 594 3500 
L 594 4494 
L 1172 4494 
z
" transform="scale(0.015625)"/>
       <path id="DejaVuSans-6e" d="M 3513 2113 
L 3513 0 
L 2938 0 
L 2938 2094 
Q 2938 2591 2744 2837 
Q 2550 3084 2163 3084 
Q 1697 3084 1428 2787 
Q 1159 2491 1159 1978 
L 1159 0 
L 581 0 
L 581 3500 
L 1159 3500 
L 1159 2956 
Q 1366 3272 1645 3428 
Q 1925 3584 2291 3584 
Q 2894 3584 3203 3211 
Q 3513 2838 3513 2113 
z
" transform="scale(0.015625)"/>
       <path id="DejaVuSans-20" transform="scale(0.015625)"/>
       <path id="DejaVuSans-28" d="M 1984 4856 
Q 1566 4138 1362 3434 
Q 1159 2731 1159 2009 
Q 1159 1288 1364 580 
Q 1569 -128 1984 -844 
L 1484 -844 
Q 1016 -109 783 600 
Q 550 1309 550 2009 
Q 550 2706 781 3412 
Q 1013 4119 1484 4856 
L 1984 4856 
z
" transform="scale(0.015625)"/>
       <path id="DejaVuSans-62" d="M 3116 1747 
Q 3116 2381 2855 2742 
Q 2594 3103 2138 3103 
Q 1681 3103 1420 2742 
Q 1159 2381 1159 1747 
Q 1159 1113 1420 752 
Q 1681 391 2138 391 
Q 2594 391 2855 752 
Q 3116 1113 3116 1747 
z
M 1159 2969 
Q 1341 3281 1617 3432 
Q 1894 3584 2278 3584 
Q 2916 3584 3314 3078 
Q 3713 2572 3713 1747 
Q 3713 922 3314 415 
Q 2916 -91 2278 -91 
Q 1894 -91 1617 61 
Q 1341 213 1159 525 
L 1159 0 
L 581 0 
L 581 4863 
L 1159 4863 
L 1159 2969 
z
" transform="scale(0.015625)"/>
       <path id="DejaVuSans-70" d="M 1159 525 
L 1159 -1331 
L 581 -1331 
L 581 3500 
L 1159 3500 
L 1159 2969 
Q 1341 3281 1617 3432 
Q 1894 3584 2278 3584 
Q 2916 3584 3314 3078 
Q 3713 2572 3713 1747 
Q 3713 922 3314 415 
Q 2916 -91 2278 -91 
Q 1894 -91 1617 61 
Q 1341 213 1159 525 
z
M 3116 1747 
Q 3116 2381 2855 2742 
Q 2594 3103 2138 3103 
Q 1681 3103 1420 2742 
Q 1159 2381 1159 1747 
Q 1159 1113 1420 752 
Q 1681 391 2138 391 
Q 2594 391 2855 752 
Q 3116 1113 3116 1747 
z
" transform="scale(0.015625)"/>
       <path id="DejaVuSans-29" d="M 513 4856 
L 1013 4856 
Q 1481 4119 1714 3412 
Q 1947 2706 1947 2009 
Q 1947 1309 1714 600 
Q 1481 -109 1013 -844 
L 513 -844 
Q 928 -128 1133 580 
Q 1338 1288 1338 2009 
Q 1338 2731 1133 3434 
Q 928 4138 513 4856 
z
" transform="scale(0.015625)"/>
      </defs>
      <use xlink:href="#DejaVuSans-50"/>
      <use xlink:href="#DejaVuSans-6f" x="56.677734"/>
      <use xlink:href="#DejaVuSans-73" x="117.859375"/>
      <use xlink:href="#DejaVuSans-69" x="169.958984"/>
      <use xlink:href="#DejaVuSans-74" x="197.742188"/>
      <use xlink:href="#DejaVuSans-69" x="236.951172"/>
      <use xlink:href="#DejaVuSans-6f" x="264.734375"/>
      <use xlink:href="#DejaVuSans-6e" x="325.916016"/>
      <use xlink:href="#DejaVuSans-20" x="389.294922"/>
      <use xlink:href="#DejaVuSans-28" x="421.082031"/>
      <use xlink:href="#DejaVuSans-62" x="460.095703"/>
      <use xlink:href="#DejaVuSans-70" x="523.572266"/>
      <use xlink:href="#DejaVuSans-29" x="587.048828"/>
     </g>
    </g>
   </g>
   <g id="matplotlib.axis_2">
    <g id="ytick_1">
     <g id="line2d_1">
      <path d="M 38.058125 273.99006 
L 993.118125 273.99006 
" clip-path="url(#pc957b727e8)" style="fill: none; stroke: #dedede; stroke-linecap: square"/>
     </g>
     <g id="text_8">
      <!-- 0 -->
      <g transform="translate(25.968125 277.029435)scale(0.08 -0.08)">
       <use xlink:href="#DejaVuSans-30"/>
      </g>
     </g>
    </g>
    <g id="ytick_2">
     <g id="line2d_2">
      <path d="M 38.058125 241.565791 
L 993.118125 241.565791 
" clip-path="url(#pc957b727e8)" style="fill: none; stroke: #dedede; stroke-linecap: square"/>
     </g>
     <g id="text_9">
      <!-- 5 -->
      <g transform="translate(25.968125 244.605166)scale(0.08 -0.08)">
       <defs>
        <path id="DejaVuSans-35" d="M 691 4666 
L 3169 4666 
L 3169 4134 
L 1269 4134 
L 1269 2991 
Q 1406 3038 1543 3061 
Q 1681 3084 1819 3084 
Q 2600 3084 3056 2656 
Q 3513 2228 3513 1497 
Q 3513 744 3044 326 
Q 2575 -91 1722 -91 
Q 1428 -91 1123 -41 
Q 819 9 494 109 
L 494 744 
Q 775 591 1075 516 
Q 1375 441 1709 441 
Q 2250 441 2565 725 
Q 2881 1009 2881 1497 
Q 2881 1984 2565 2268 
Q 2250 2553 1709 2553 
Q 1456 2553 1204 2497 
Q 953 2441 691 2322 
L 691 4666 
z
" transform="scale(0.015625)"/>
       </defs>
       <use xlink:href="#DejaVuSans-35"/>
      </g>
     </g>
    </g>
    <g id="ytick_3">
     <g id="line2d_3">
      <path d="M 38.058125 209.141522 
L 993.118125 209.141522 
" clip-path="url(#pc957b727e8)" style="fill: none; stroke: #dedede; stroke-linecap: square"/>
     </g>
     <g id="text_10">
      <!-- 10 -->
      <g transform="translate(20.878125 212.180897)scale(0.08 -0.08)">
       <use xlink:href="#DejaVuSans-31"/>
       <use xlink:href="#DejaVuSans-30" x="63.623047"/>
      </g>
     </g>
    </g>
    <g id="ytick_4">
     <g id="line2d_4">
      <path d="M 38.058125 176.717253 
L 993.118125 176.717253 
" clip-path="url(#pc957b727e8)" style="fill: none; stroke: #dedede; stroke-linecap: square"/>
     </g>
     <g id="text_11">
      <!-- 15 -->
      <g transform="translate(20.878125 179.756628)scale(0.08 -0.08)">
       <use xlink:href="#DejaVuSans-31"/>
       <use xlink:href="#DejaVuSans-35" x="63.623047"/>
      </g>
     </g>
    </g>
    <g id="ytick_5">
     <g id="line2d_5">
      <path d="M 38.058125 144.292984 
L 993.118125 144.292984 
" clip-path="url(#pc957b727e8)" style="fill: none; stroke: #dedede; stroke-linecap: square"/>
     </g>
     <g id="text_12">
      <!-- 20 -->
      <g transform="translate(20.878125 147.332359)scale(0.08 -0.08)">
       <use xlink:href="#DejaVuSans-32"/>
       <use xlink:href="#DejaVuSans-30" x="63.623047"/>
      </g>
     </g>
    </g>
    <g id="ytick_6">
     <g id="line2d_6">
      <path d="M 38.058125 111.868715 
L 993.118125 111.868715 
" clip-path="url(#pc957b727e8)" style="fill: none; stroke: #dedede; stroke-linecap: square"/>
     </g>
     <g id="text_13">
      <!-- 25 -->
      <g transform="translate(20.878125 114.90809)scale(0.08 -0.08)">
       <use xlink:href="#DejaVuSans-32"/>
       <use xlink:href="#DejaVuSans-35" x="63.623047"/>
      </g>
     </g>
    </g>
    <g id="ytick_7">
     <g id="line2d_7">
      <path d="M 38.058125 79.444446 
L 993.118125 79.444446 
" clip-path="url(#pc957b727e8)" style="fill: none; stroke: #dedede; stroke-linecap: square"/>
     </g>
     <g id="text_14">
      <!-- 30 -->
      <g transform="translate(20.878125 82.483821)scale(0.08 -0.08)">
       <defs>
        <path id="DejaVuSans-33" d="M 2597 2516 
Q 3050 2419 3304 2112 
Q 3559 1806 3559 1356 
Q 3559 666 3084 287 
Q 2609 -91 1734 -91 
Q 1441 -91 1130 -33 
Q 819 25 488 141 
L 488 750 
Q 750 597 1062 519 
Q 1375 441 1716 441 
Q 2309 441 2620 675 
Q 2931 909 2931 1356 
Q 2931 1769 2642 2001 
Q 2353 2234 1838 2234 
L 1294 2234 
L 1294 2753 
L 1863 2753 
Q 2328 2753 2575 2939 
Q 2822 3125 2822 3475 
Q 2822 3834 2567 4026 
Q 2313 4219 1838 4219 
Q 1578 4219 1281 4162 
Q 984 4106 628 3988 
L 628 4550 
Q 988 4650 1302 4700 
Q 1616 4750 1894 4750 
Q 2613 4750 3031 4423 
Q 3450 4097 3450 3541 
Q 3450 3153 3228 2886 
Q 3006 2619 2597 2516 
z
" transform="scale(0.015625)"/>
       </defs>
       <use xlink:href="#DejaVuSans-33"/>
       <use xlink:href="#DejaVuSans-30" x="63.623047"/>
      </g>
     </g>
    </g>
    <g id="ytick_8">
     <g id="line2d_8">
      <path d="M 38.058125 47.020177 
L 993.118125 47.020177 
" clip-path="url(#pc957b727e8)" style="fill: none; stroke: #dedede; stroke-linecap: square"/>
     </g>
     <g id="text_15">
      <!-- 35 -->
      <g transform="translate(20.878125 50.059552)scale(0.08 -0.08)">
       <use xlink:href="#DejaVuSans-33"/>
       <use xlink:href="#DejaVuSans-35" x="63.623047"/>
      </g>
     </g>
    </g>
    <g id="text_16">
     <!-- Phred Score -->
     <g transform="translate(14.798438 182.70521)rotate(-90)scale(0.1 -0.1)">
      <defs>
       <path id="DejaVuSans-68" d="M 3513 2113 
L 3513 0 
L 2938 0 
L 2938 2094 
Q 2938 2591 2744 2837 
Q 2550 3084 2163 3084 
Q 1697 3084 1428 2787 
Q 1159 2491 1159 1978 
L 1159 0 
L 581 0 
L 581 4863 
L 1159 4863 
L 1159 2956 
Q 1366 3272 1645 3428 
Q 1925 3584 2291 3584 
Q 2894 3584 3203 3211 
Q 3513 2838 3513 2113 
z
" transform="scale(0.015625)"/>
       <path id="DejaVuSans-72" d="M 2631 2963 
Q 2534 3019 2420 3045 
Q 2306 3072 2169 3072 
Q 1681 3072 1420 2755 
Q 1159 2438 1159 1844 
L 1159 0 
L 581 0 
L 581 3500 
L 1159 3500 
L 1159 2956 
Q 1341 3275 1631 3429 
Q 1922 3584 2338 3584 
Q 2397 3584 2469 3576 
Q 2541 3569 2628 3553 
L 2631 2963 
z
" transform="scale(0.015625)"/>
       <path id="DejaVuSans-65" d="M 3597 1894 
L 3597 1613 
L 953 1613 
Q 991 1019 1311 708 
Q 1631 397 2203 397 
Q 2534 397 2845 478 
Q 3156 559 3463 722 
L 3463 178 
Q 3153 47 2828 -22 
Q 2503 -91 2169 -91 
Q 1331 -91 842 396 
Q 353 884 353 1716 
Q 353 2575 817 3079 
Q 1281 3584 2069 3584 
Q 2775 3584 3186 3129 
Q 3597 2675 3597 1894 
z
M 3022 2063 
Q 3016 2534 2758 2815 
Q 2500 3097 2075 3097 
Q 1594 3097 1305 2825 
Q 1016 2553 972 2059 
L 3022 2063 
z
" transform="scale(0.015625)"/>
       <path id="DejaVuSans-64" d="M 2906 2969 
L 2906 4863 
L 3481 4863 
L 3481 0 
L 2906 0 
L 2906 525 
Q 2725 213 2448 61 
Q 2172 -91 1784 -91 
Q 1150 -91 751 415 
Q 353 922 353 1747 
Q 353 2572 751 3078 
Q 1150 3584 1784 3584 
Q 2172 3584 2448 3432 
Q 2725 3281 2906 2969 
z
M 947 1747 
Q 947 1113 1208 752 
Q 1469 391 1925 391 
Q 2381 391 2643 752 
Q 2906 1113 2906 1747 
Q 2906 2381 2643 2742 
Q 2381 3103 1925 3103 
Q 1469 3103 1208 2742 
Q 947 2381 947 1747 
z
" transform="scale(0.015625)"/>
       <path id="DejaVuSans-53" d="M 3425 4513 
L 3425 3897 
Q 3066 4069 2747 4153 
Q 2428 4238 2131 4238 
Q 1616 4238 1336 4038 
Q 1056 3838 1056 3469 
Q 1056 3159 1242 3001 
Q 1428 2844 1947 2747 
L 2328 2669 
Q 3034 2534 3370 2195 
Q 3706 1856 3706 1288 
Q 3706 609 3251 259 
Q 2797 -91 1919 -91 
Q 1588 -91 1214 -16 
Q 841 59 441 206 
L 441 856 
Q 825 641 1194 531 
Q 1563 422 1919 422 
Q 2459 422 2753 634 
Q 3047 847 3047 1241 
Q 3047 1584 2836 1778 
Q 2625 1972 2144 2069 
L 1759 2144 
Q 1053 2284 737 2584 
Q 422 2884 422 3419 
Q 422 4038 858 4394 
Q 1294 4750 2059 4750 
Q 2388 4750 2728 4690 
Q 3069 4631 3425 4513 
z
" transform="scale(0.015625)"/>
       <path id="DejaVuSans-63" d="M 3122 3366 
L 3122 2828 
Q 2878 2963 2633 3030 
Q 2388 3097 2138 3097 
Q 1578 3097 1268 2742 
Q 959 2388 959 1747 
Q 959 1106 1268 751 
Q 1578 397 2138 397 
Q 2388 397 2633 464 
Q 2878 531 3122 666 
L 3122 134 
Q 2881 22 2623 -34 
Q 2366 -91 2075 -91 
Q 1284 -91 818 406 
Q 353 903 353 1747 
Q 353 2603 823 3093 
Q 1294 3584 2113 3584 
Q 2378 3584 2631 3529 
Q 2884 3475 3122 3366 
z
" transform="scale(0.015625)"/>
      </defs>
      <use xlink:href="#DejaVuSans-50"/>
      <use xlink:href="#DejaVuSans-68" x="60.302734"/>
      <use xlink:href="#DejaVuSans-72" x="123.681641"/>
      <use xlink:href="#DejaVuSans-65" x="162.544922"/>
      <use xlink:href="#DejaVuSans-64" x="224.068359"/>
      <use xlink:href="#DejaVuSans-20" x="287.544922"/>
      <use xlink:href="#DejaVuSans-53" x="319.332031"/>
      <use xlink:href="#DejaVuSans-63" x="382.808594"/>
      <use xlink:href="#DejaVuSans-6f" x="437.789062"/>
      <use xlink:href="#DejaVuSans-72" x="498.970703"/>
      <use xlink:href="#DejaVuSans-65" x="537.833984"/>
     </g>
    </g>
   </g>
   <g id="line2d_9">
    <path d="M 81.469943 77.072274 
L 90.240007 76.829372 
L 99.010072 86.522327 
L 107.780136 57.050188 
L 116.5502 54.619432 
L 125.320265 53.800585 
L 134.090329 53.660936 
L 142.860393 53.353356 
L 151.630457 45.403983 
L 160.400522 45.140262 
L 177.94065 46.079152 
L 195.480779 40.469896 
L 213.020907 40.946074 
L 230.561036 40.944281 
L 248.101164 41.669938 
L 265.641293 42.12278 
L 283.181422 43.062941 
L 300.72155 46.237978 
L 318.261679 47.564471 
L 335.801807 49.056616 
L 353.341936 51.227765 
L 370.882064 54.432822 
L 388.422193 56.325413 
L 405.962322 57.963863 
L 423.50245 59.381911 
L 441.042579 60.167583 
L 458.582707 62.008896 
L 476.122836 64.234793 
L 493.662964 66.200862 
L 511.203093 68.106529 
L 528.743221 70.418075 
L 546.28335 72.602691 
L 563.823479 73.152687 
L 581.363607 74.396245 
L 598.903736 75.10358 
L 616.443864 75.853508 
L 633.983993 77.440007 
L 651.524121 79.635526 
L 669.06425 81.933633 
L 686.604378 83.818894 
L 704.144507 83.388742 
L 721.684636 85.502234 
L 739.224764 91.320652 
L 756.764893 88.640233 
L 774.305021 89.23725 
L 791.84515 91.432635 
L 809.385278 93.812814 
L 826.925407 95.44017 
L 844.465535 97.471217 
L 862.005664 100.895492 
L 879.545793 101.946676 
L 897.085921 104.137318 
L 914.62605 107.098502 
L 932.166178 110.787616 
L 949.706307 115.824018 
" clip-path="url(#pc957b727e8)" style="fill: none; stroke: #5cb85c; stroke-linecap: square"/>
   </g>
   <g id="line2d_10">
    <path d="M 81.469943 74.894874 
L 90.240007 77.102658 
L 99.010072 91.632797 
L 107.780136 58.058231 
L 116.5502 53.522135 
L 125.320265 51.532289 
L 134.090329 50.552477 
L 142.860393 50.321202 
L 151.630457 41.113386 
L 160.400522 40.986601 
L 177.94065 41.916406 
L 195.480779 35.652352 
L 213.020907 36.521052 
L 230.561036 36.66275 
L 248.101164 36.730557 
L 265.641293 37.507506 
L 283.181422 39.008226 
L 300.72155 62.186551 
L 318.261679 61.259148 
L 335.801807 47.958878 
L 353.341936 46.995198 
L 370.882064 48.51186 
L 388.422193 50.296245 
L 405.962322 52.449241 
L 423.50245 54.170354 
L 441.042579 55.717959 
L 458.582707 57.441991 
L 476.122836 59.950067 
L 493.662964 62.216405 
L 511.203093 64.517816 
L 528.743221 67.100004 
L 546.28335 69.484083 
L 563.823479 69.276229 
L 581.363607 70.267304 
L 598.903736 70.526324 
L 616.443864 71.432524 
L 633.983993 72.926474 
L 651.524121 74.790478 
L 669.06425 77.46216 
L 686.604378 79.317352 
L 704.144507 79.076522 
L 721.684636 80.784585 
L 739.224764 85.952304 
L 756.764893 84.208726 
L 774.305021 85.268324 
L 791.84515 87.580205 
L 809.385278 89.93505 
L 826.925407 91.461645 
L 844.465535 93.286051 
L 862.005664 96.094298 
L 879.545793 97.474133 
L 897.085921 99.56679 
L 914.62605 102.895664 
L 932.166178 105.770247 
L 949.706307 110.485669 
" clip-path="url(#pc957b727e8)" style="fill: none; stroke: #5cb85c; stroke-linecap: square"/>
   </g>
   <g id="line2d_11">
    <path d="M 81.469943 76.593479 
L 90.240007 79.457268 
L 99.010072 91.633521 
L 107.780136 63.091836 
L 116.5502 56.418245 
L 125.320265 54.144068 
L 134.090329 55.242667 
L 142.860393 54.180027 
L 151.630457 44.63385 
L 160.400522 44.284671 
L 177.94065 44.930872 
L 195.480779 39.448741 
L 213.020907 40.478097 
L 230.561036 40.316511 
L 248.101164 40.324756 
L 265.641293 41.438398 
L 283.181422 42.027531 
L 300.72155 44.475225 
L 318.261679 46.544907 
L 335.801807 47.905603 
L 353.341936 51.192022 
L 370.882064 53.279963 
L 388.422193 55.349965 
L 405.962322 57.591207 
L 423.50245 59.132001 
L 441.042579 60.562614 
L 458.582707 62.132795 
L 476.122836 65.122057 
L 493.662964 67.372755 
L 511.203093 69.990551 
L 528.743221 72.515647 
L 546.28335 74.908834 
L 563.823479 74.872335 
L 581.363607 76.133998 
L 598.903736 78.056722 
L 616.443864 77.652271 
L 633.983993 78.381006 
L 651.524121 80.16181 
L 669.06425 82.8471 
L 686.604378 84.703169 
L 704.144507 84.884707 
L 721.684636 86.257837 
L 739.224764 91.558426 
L 756.764893 89.762806 
L 774.305021 90.809991 
L 791.84515 92.981652 
L 809.385278 95.13693 
L 826.925407 97.15512 
L 844.465535 99.183147 
L 862.005664 101.715903 
L 879.545793 103.896712 
L 897.085921 106.425302 
L 914.62605 109.578786 
L 932.166178 113.236868 
L 949.706307 118.761451 
" clip-path="url(#pc957b727e8)" style="fill: none; stroke: #f0ad4e; stroke-linecap: square"/>
   </g>
   <g id="line2d_12">
    <path d="M 81.469943 77.482402 
L 90.240007 77.363038 
L 99.010072 87.027452 
L 107.780136 57.611473 
L 116.5502 55.241086 
L 125.320265 54.46887 
L 134.090329 54.323148 
L 142.860393 54.062166 
L 151.630457 46.23866 
L 160.400522 46.01062 
L 177.94065 46.94626 
L 195.480779 41.423529 
L 213.020907 41.828055 
L 230.561036 41.843648 
L 248.101164 42.538044 
L 265.641293 43.040736 
L 283.181422 43.972673 
L 300.72155 47.272204 
L 318.261679 48.681741 
L 335.801807 50.208347 
L 353.341936 52.401792 
L 370.882064 55.516113 
L 388.422193 57.44178 
L 405.962322 59.100714 
L 423.50245 60.55305 
L 441.042579 61.391448 
L 458.582707 63.225882 
L 476.122836 65.470397 
L 493.662964 67.451219 
L 511.203093 69.435616 
L 528.743221 71.829924 
L 546.28335 74.028742 
L 563.823479 74.537445 
L 581.363607 75.837861 
L 598.903736 76.559513 
L 616.443864 77.362213 
L 633.983993 78.975552 
L 651.524121 81.174076 
L 669.06425 83.430608 
L 686.604378 85.35083 
L 704.144507 85.018333 
L 721.684636 87.172562 
L 739.224764 92.955179 
L 756.764893 90.303638 
L 774.305021 90.916626 
L 791.84515 93.156208 
L 809.385278 95.52887 
L 826.925407 97.19037 
L 844.465535 99.246976 
L 862.005664 102.62098 
L 879.545793 103.749822 
L 897.085921 105.980906 
L 914.62605 108.988395 
L 932.166178 112.667783 
L 949.706307 117.677432 
" clip-path="url(#pc957b727e8)" style="fill: none; stroke: #5cb85c; stroke-linecap: square"/>
   </g>
   <g id="line2d_13">
    <path d="M 81.469943 75.380505 
L 90.240007 77.679012 
L 99.010072 92.16948 
L 107.780136 58.686025 
L 116.5502 54.179833 
L 125.320265 52.191911 
L 134.090329 51.181407 
L 142.860393 50.962887 
L 151.630457 41.867823 
L 160.400522 41.727434 
L 177.94065 42.683828 
L 195.480779 36.549584 
L 213.020907 37.406532 
L 230.561036 37.547134 
L 248.101164 37.630797 
L 265.641293 38.428833 
L 283.181422 39.950461 
L 300.72155 62.914841 
L 318.261679 62.06162 
L 335.801807 49.048823 
L 353.341936 48.186844 
L 370.882064 49.736848 
L 388.422193 51.549872 
L 405.962322 53.726672 
L 423.50245 55.462121 
L 441.042579 57.059673 
L 458.582707 58.834887 
L 476.122836 61.413634 
L 493.662964 63.711407 
L 511.203093 66.031374 
L 528.743221 68.62052 
L 546.28335 71.037631 
L 563.823479 70.870721 
L 581.363607 71.895342 
L 598.903736 72.166016 
L 616.443864 73.064731 
L 633.983993 74.540031 
L 651.524121 76.390673 
L 669.06425 79.062141 
L 686.604378 80.929332 
L 704.144507 80.742698 
L 721.684636 82.467326 
L 739.224764 87.618237 
L 756.764893 85.895978 
L 774.305021 86.95774 
L 791.84515 89.292895 
L 809.385278 91.684059 
L 826.925407 93.254402 
L 844.465535 95.138172 
L 862.005664 97.961507 
L 879.545793 99.404148 
L 897.085921 101.56852 
L 914.62605 104.977928 
L 932.166178 107.938398 
L 949.706307 112.675631 
" clip-path="url(#pc957b727e8)" style="fill: none; stroke: #5cb85c; stroke-linecap: square"/>
   </g>
   <g id="line2d_14">
    <path d="M 81.469943 76.374738 
L 90.240007 79.198095 
L 99.010072 91.366685 
L 107.780136 62.7379 
L 116.5502 56.084667 
L 125.320265 53.834175 
L 134.090329 54.97637 
L 142.860393 53.919656 
L 151.630457 44.302336 
L 160.400522 43.966827 
L 177.94065 44.605258 
L 195.480779 39.070657 
L 213.020907 40.108342 
L 230.561036 39.957266 
L 248.101164 39.943901 
L 265.641293 41.065723 
L 283.181422 41.625878 
L 300.72155 44.027615 
L 318.261679 46.051395 
L 335.801807 47.371331 
L 353.341936 50.653783 
L 370.882064 52.73293 
L 388.422193 54.777803 
L 405.962322 57.028765 
L 423.50245 58.537113 
L 441.042579 59.940508 
L 458.582707 61.45556 
L 476.122836 64.385334 
L 493.662964 66.590388 
L 511.203093 69.192495 
L 528.743221 71.70748 
L 546.28335 74.033279 
L 563.823479 73.967438 
L 581.363607 75.202003 
L 598.903736 77.115206 
L 616.443864 76.705274 
L 633.983993 77.40725 
L 651.524121 79.168376 
L 669.06425 81.832508 
L 686.604378 83.652572 
L 704.144507 83.812772 
L 721.684636 85.166977 
L 739.224764 90.466 
L 756.764893 88.657848 
L 774.305021 89.688841 
L 791.84515 91.832435 
L 809.385278 93.963344 
L 826.925407 95.937985 
L 844.465535 97.937036 
L 862.005664 100.435495 
L 879.545793 102.597885 
L 897.085921 105.077481 
L 914.62605 108.1814 
L 932.166178 111.809046 
L 949.706307 117.334159 
" clip-path="url(#pc957b727e8)" style="fill: none; stroke: #5cb85c; stroke-linecap: square"/>
   </g>
   <g id="line2d_15">
    <path d="M 81.469943 77.567481 
L 90.240007 77.413843 
L 99.010072 87.161766 
L 107.780136 57.707658 
L 116.5502 55.24799 
L 125.320265 54.447844 
L 134.090329 54.256312 
L 142.860393 53.941208 
L 151.630457 46.156474 
L 160.400522 45.868753 
L 177.94065 46.806722 
L 195.480779 41.324148 
L 213.020907 41.810191 
L 230.561036 41.836738 
L 248.101164 42.604493 
L 265.641293 43.030682 
L 283.181422 43.9669 
L 300.72155 47.219789 
L 318.261679 48.58582 
L 335.801807 50.107261 
L 353.341936 52.304485 
L 370.882064 55.604634 
L 388.422193 57.518125 
L 405.962322 59.178082 
L 423.50245 60.656863 
L 441.042579 61.410921 
L 458.582707 63.245827 
L 476.122836 65.428799 
L 493.662964 67.356979 
L 511.203093 69.243911 
L 528.743221 71.561843 
L 546.28335 73.766478 
L 563.823479 74.247856 
L 581.363607 75.512814 
L 598.903736 76.213675 
L 616.443864 76.99107 
L 633.983993 78.601329 
L 651.524121 80.762843 
L 669.06425 83.051951 
L 686.604378 84.993726 
L 704.144507 84.575723 
L 721.684636 86.738168 
L 739.224764 92.494169 
L 756.764893 89.779218 
L 774.305021 90.361531 
L 791.84515 92.583549 
L 809.385278 95.007489 
L 826.925407 96.60987 
L 844.465535 98.646967 
L 862.005664 102.141623 
L 879.545793 103.155069 
L 897.085921 105.377568 
L 914.62605 108.388462 
L 932.166178 112.107562 
L 949.706307 117.20655 
" clip-path="url(#pc957b727e8)" style="fill: none; stroke: #5cb85c; stroke-linecap: square"/>
   </g>
   <g id="line2d_16">
    <path d="M 81.469943 75.113001 
L 90.240007 77.378796 
L 99.010072 91.874139 
L 107.780136 58.332718 
L 116.5502 53.815145 
L 125.320265 51.833809 
L 134.090329 50.851693 
L 142.860393 50.628654 
L 151.630457 41.481412 
L 160.400522 41.334203 
L 177.94065 42.283898 
L 195.480779 36.081555 
L 213.020907 36.936619 
L 230.561036 37.078466 
L 248.101164 37.15828 
L 265.641293 37.944629 
L 283.181422 39.440937 
L 300.72155 62.469684 
L 318.261679 61.576326 
L 335.801807 48.435831 
L 353.341936 47.533312 
L 370.882064 49.081282 
L 388.422193 50.870388 
L 405.962322 53.043185 
L 423.50245 54.773317 
L 441.042579 56.325448 
L 458.582707 58.05337 
L 476.122836 60.576538 
L 493.662964 62.834978 
L 511.203093 65.125471 
L 528.743221 67.688701 
L 546.28335 70.075128 
L 563.823479 69.893145 
L 581.363607 70.913233 
L 598.903736 71.178723 
L 616.443864 72.089953 
L 633.983993 73.569691 
L 651.524121 75.434406 
L 669.06425 78.103232 
L 686.604378 79.960777 
L 704.144507 79.735562 
L 721.684636 81.445263 
L 739.224764 86.604669 
L 756.764893 84.83122 
L 774.305021 85.867096 
L 791.84515 88.158984 
L 809.385278 90.517758 
L 826.925407 92.057162 
L 844.465535 93.893666 
L 862.005664 96.696686 
L 879.545793 98.093439 
L 897.085921 100.20921 
L 914.62605 103.576137 
L 932.166178 106.490469 
L 949.706307 111.237962 
" clip-path="url(#pc957b727e8)" style="fill: none; stroke: #5cb85c; stroke-linecap: square"/>
   </g>
   <g id="line2d_17">
    <path d="M 81.469943 76.444372 
L 90.240007 79.138285 
L 99.010072 91.428557 
L 107.780136 62.46712 
L 116.5502 56.036938 
L 125.320265 53.854431 
L 134.090329 54.831955 
L 142.860393 53.849462 
L 151.630457 44.34794 
L 160.400522 44.033142 
L 177.94065 44.679561 
L 195.480779 39.214373 
L 213.020907 40.199793 
L 230.561036 40.027125 
L 248.101164 40.103638 
L 265.641293 41.247574 
L 283.181422 41.801497 
L 300.72155 44.231452 
L 318.261679 46.28226 
L 335.801807 47.636136 
L 353.341936 50.857355 
L 370.882064 53.099628 
L 388.422193 55.207863 
L 405.962322 57.500894 
L 423.50245 59.027347 
L 441.042579 60.43498 
L 458.582707 61.971046 
L 476.122836 64.882276 
L 493.662964 67.062828 
L 511.203093 69.630059 
L 528.743221 72.159008 
L 546.28335 74.531661 
L 563.823479 74.534136 
L 581.363607 75.833658 
L 598.903736 77.598789 
L 616.443864 77.320891 
L 633.983993 78.073429 
L 651.524121 79.890977 
L 669.06425 82.572196 
L 686.604378 84.387976 
L 704.144507 84.493104 
L 721.684636 85.795507 
L 739.224764 91.077329 
L 756.764893 89.233018 
L 774.305021 90.267391 
L 791.84515 92.404295 
L 809.385278 94.537177 
L 826.925407 96.522001 
L 844.465535 98.545572 
L 862.005664 101.077788 
L 879.545793 103.249341 
L 897.085921 105.784065 
L 914.62605 108.952302 
L 932.166178 112.663698 
L 949.706307 118.271254 
" clip-path="url(#pc957b727e8)" style="fill: none; stroke: #f0ad4e; stroke-linecap: square"/>
   </g>
   <g id="line2d_18">
    <path d="M 81.469943 77.550746 
L 90.240007 77.446749 
L 99.010072 87.080936 
L 107.780136 57.721058 
L 116.5502 55.352453 
L 125.320265 54.5948 
L 134.090329 54.473999 
L 142.860393 54.200937 
L 151.630457 46.38389 
L 160.400522 46.154057 
L 177.94065 47.090212 
L 195.480779 41.58029 
L 213.020907 41.989459 
L 230.561036 42.01672 
L 248.101164 42.729189 
L 265.641293 43.248867 
L 283.181422 44.222824 
L 300.72155 47.571192 
L 318.261679 49.01891 
L 335.801807 50.569778 
L 353.341936 52.772302 
L 370.882064 55.911161 
L 388.422193 57.869237 
L 405.962322 59.548229 
L 423.50245 61.053384 
L 441.042579 61.929701 
L 458.582707 63.831426 
L 476.122836 66.145848 
L 493.662964 68.175569 
L 511.203093 70.190458 
L 528.743221 72.650583 
L 546.28335 74.876793 
L 563.823479 75.446733 
L 581.363607 76.785841 
L 598.903736 77.54562 
L 616.443864 78.383609 
L 633.983993 80.018865 
L 651.524121 82.239266 
L 669.06425 84.538076 
L 686.604378 86.467468 
L 704.144507 86.128997 
L 721.684636 88.264008 
L 739.224764 94.031046 
L 756.764893 91.400213 
L 774.305021 92.011795 
L 791.84515 94.264673 
L 809.385278 96.649403 
L 826.925407 98.318458 
L 844.465535 100.391664 
L 862.005664 103.808058 
L 879.545793 104.974396 
L 897.085921 107.249091 
L 914.62605 110.287566 
L 932.166178 114.004916 
L 949.706307 119.042197 
" clip-path="url(#pc957b727e8)" style="fill: none; stroke: #f0ad4e; stroke-linecap: square"/>
   </g>
   <g id="line2d_19">
    <path d="M 81.469943 75.184133 
L 90.240007 77.467049 
L 99.010072 91.831517 
L 107.780136 58.421953 
L 116.5502 53.950674 
L 125.320265 51.962584 
L 134.090329 50.948403 
L 142.860393 50.738834 
L 151.630457 41.592811 
L 160.400522 41.450279 
L 177.94065 42.40781 
L 195.480779 36.236282 
L 213.020907 37.095059 
L 230.561036 37.23197 
L 248.101164 37.301128 
L 265.641293 38.101088 
L 283.181422 39.624288 
L 300.72155 62.567963 
L 318.261679 61.697881 
L 335.801807 48.665234 
L 353.341936 47.787215 
L 370.882064 49.34734 
L 388.422193 51.143295 
L 405.962322 53.309771 
L 423.50245 55.019887 
L 441.042579 56.583738 
L 458.582707 58.369429 
L 476.122836 60.979372 
L 493.662964 63.28154 
L 511.203093 65.600831 
L 528.743221 68.167296 
L 546.28335 70.575629 
L 563.823479 70.42284 
L 581.363607 71.439273 
L 598.903736 71.686986 
L 616.443864 72.539582 
L 633.983993 74.000338 
L 651.524121 75.872166 
L 669.06425 78.552221 
L 686.604378 80.406735 
L 704.144507 80.198182 
L 721.684636 81.920932 
L 739.224764 87.113359 
L 756.764893 85.410681 
L 774.305021 86.488479 
L 791.84515 88.821601 
L 809.385278 91.198262 
L 826.925407 92.778815 
L 844.465535 94.653187 
L 862.005664 97.48036 
L 879.545793 98.909629 
L 897.085921 101.043429 
L 914.62605 104.41069 
L 932.166178 107.350924 
L 949.706307 112.07705 
" clip-path="url(#pc957b727e8)" style="fill: none; stroke: #5cb85c; stroke-linecap: square"/>
   </g>
   <g id="line2d_20">
    <path d="M 81.469943 76.387159 
L 90.240007 79.26011 
L 99.010072 91.383692 
L 107.780136 62.785175 
L 116.5502 56.114072 
L 125.320265 53.871018 
L 134.090329 55.027531 
L 142.860393 53.961552 
L 151.630457 44.341426 
L 160.400522 44.00091 
L 177.94065 44.642353 
L 195.480779 39.121517 
L 213.020907 40.165407 
L 230.561036 40.011735 
L 248.101164 40.006433 
L 265.641293 41.139152 
L 283.181422 41.713316 
L 300.72155 44.121453 
L 318.261679 46.160683 
L 335.801807 47.478639 
L 353.341936 50.769098 
L 370.882064 52.854155 
L 388.422193 54.922777 
L 405.962322 57.180109 
L 423.50245 58.695607 
L 441.042579 60.115228 
L 458.582707 61.64498 
L 476.122836 64.577771 
L 493.662964 66.813298 
L 511.203093 69.422037 
L 528.743221 71.94986 
L 546.28335 74.295929 
L 563.823479 74.259602 
L 581.363607 75.51564 
L 598.903736 77.463102 
L 616.443864 77.0683 
L 633.983993 77.768399 
L 651.524121 79.555433 
L 669.06425 82.242726 
L 686.604378 84.068793 
L 704.144507 84.200347 
L 721.684636 85.551544 
L 739.224764 90.858813 
L 756.764893 89.030498 
L 774.305021 90.049424 
L 791.84515 92.190375 
L 809.385278 94.322522 
L 826.925407 96.306651 
L 844.465535 98.310981 
L 862.005664 100.830543 
L 879.545793 102.985466 
L 897.085921 105.497139 
L 914.62605 108.606637 
L 932.166178 112.24453 
L 949.706307 117.783233 
" clip-path="url(#pc957b727e8)" style="fill: none; stroke: #f0ad4e; stroke-linecap: square"/>
   </g>
   <g id="line2d_21">
    <path d="M 38.058125 273.99006 
L 993.118125 273.99006 
" clip-path="url(#pc957b727e8)" style="fill: none; stroke: #dedede; stroke-width: 2; stroke-linecap: square"/>
   </g>
   <g id="text_17">
    <!-- FastQC: Mean Quality Scores -->
    <g transform="translate(400.349375 19.3575)scale(0.16 -0.16)">
     <defs>
      <path id="DejaVuSans-46" d="M 628 4666 
L 3309 4666 
L 3309 4134 
L 1259 4134 
L 1259 2759 
L 3109 2759 
L 3109 2228 
L 1259 2228 
L 1259 0 
L 628 0 
L 628 4666 
z
" transform="scale(0.015625)"/>
      <path id="DejaVuSans-61" d="M 2194 1759 
Q 1497 1759 1228 1600 
Q 959 1441 959 1056 
Q 959 750 1161 570 
Q 1363 391 1709 391 
Q 2188 391 2477 730 
Q 2766 1069 2766 1631 
L 2766 1759 
L 2194 1759 
z
M 3341 1997 
L 3341 0 
L 2766 0 
L 2766 531 
Q 2569 213 2275 61 
Q 1981 -91 1556 -91 
Q 1019 -91 701 211 
Q 384 513 384 1019 
Q 384 1609 779 1909 
Q 1175 2209 1959 2209 
L 2766 2209 
L 2766 2266 
Q 2766 2663 2505 2880 
Q 2244 3097 1772 3097 
Q 1472 3097 1187 3025 
Q 903 2953 641 2809 
L 641 3341 
Q 956 3463 1253 3523 
Q 1550 3584 1831 3584 
Q 2591 3584 2966 3190 
Q 3341 2797 3341 1997 
z
" transform="scale(0.015625)"/>
      <path id="DejaVuSans-51" d="M 2522 4238 
Q 1834 4238 1429 3725 
Q 1025 3213 1025 2328 
Q 1025 1447 1429 934 
Q 1834 422 2522 422 
Q 3209 422 3611 934 
Q 4013 1447 4013 2328 
Q 4013 3213 3611 3725 
Q 3209 4238 2522 4238 
z
M 3406 84 
L 4238 -825 
L 3475 -825 
L 2784 -78 
Q 2681 -84 2626 -87 
Q 2572 -91 2522 -91 
Q 1538 -91 948 567 
Q 359 1225 359 2328 
Q 359 3434 948 4092 
Q 1538 4750 2522 4750 
Q 3503 4750 4090 4092 
Q 4678 3434 4678 2328 
Q 4678 1516 4351 937 
Q 4025 359 3406 84 
z
" transform="scale(0.015625)"/>
      <path id="DejaVuSans-43" d="M 4122 4306 
L 4122 3641 
Q 3803 3938 3442 4084 
Q 3081 4231 2675 4231 
Q 1875 4231 1450 3742 
Q 1025 3253 1025 2328 
Q 1025 1406 1450 917 
Q 1875 428 2675 428 
Q 3081 428 3442 575 
Q 3803 722 4122 1019 
L 4122 359 
Q 3791 134 3420 21 
Q 3050 -91 2638 -91 
Q 1578 -91 968 557 
Q 359 1206 359 2328 
Q 359 3453 968 4101 
Q 1578 4750 2638 4750 
Q 3056 4750 3426 4639 
Q 3797 4528 4122 4306 
z
" transform="scale(0.015625)"/>
      <path id="DejaVuSans-3a" d="M 750 794 
L 1409 794 
L 1409 0 
L 750 0 
L 750 794 
z
M 750 3309 
L 1409 3309 
L 1409 2516 
L 750 2516 
L 750 3309 
z
" transform="scale(0.015625)"/>
      <path id="DejaVuSans-4d" d="M 628 4666 
L 1569 4666 
L 2759 1491 
L 3956 4666 
L 4897 4666 
L 4897 0 
L 4281 0 
L 4281 4097 
L 3078 897 
L 2444 897 
L 1241 4097 
L 1241 0 
L 628 0 
L 628 4666 
z
" transform="scale(0.015625)"/>
      <path id="DejaVuSans-75" d="M 544 1381 
L 544 3500 
L 1119 3500 
L 1119 1403 
Q 1119 906 1312 657 
Q 1506 409 1894 409 
Q 2359 409 2629 706 
Q 2900 1003 2900 1516 
L 2900 3500 
L 3475 3500 
L 3475 0 
L 2900 0 
L 2900 538 
Q 2691 219 2414 64 
Q 2138 -91 1772 -91 
Q 1169 -91 856 284 
Q 544 659 544 1381 
z
M 1991 3584 
L 1991 3584 
z
" transform="scale(0.015625)"/>
      <path id="DejaVuSans-6c" d="M 603 4863 
L 1178 4863 
L 1178 0 
L 603 0 
L 603 4863 
z
" transform="scale(0.015625)"/>
      <path id="DejaVuSans-79" d="M 2059 -325 
Q 1816 -950 1584 -1140 
Q 1353 -1331 966 -1331 
L 506 -1331 
L 506 -850 
L 844 -850 
Q 1081 -850 1212 -737 
Q 1344 -625 1503 -206 
L 1606 56 
L 191 3500 
L 800 3500 
L 1894 763 
L 2988 3500 
L 3597 3500 
L 2059 -325 
z
" transform="scale(0.015625)"/>
     </defs>
     <use xlink:href="#DejaVuSans-46"/>
     <use xlink:href="#DejaVuSans-61" x="48.394531"/>
     <use xlink:href="#DejaVuSans-73" x="109.673828"/>
     <use xlink:href="#DejaVuSans-74" x="161.773438"/>
     <use xlink:href="#DejaVuSans-51" x="200.982422"/>
     <use xlink:href="#DejaVuSans-43" x="279.693359"/>
     <use xlink:href="#DejaVuSans-3a" x="349.517578"/>
     <use xlink:href="#DejaVuSans-20" x="383.208984"/>
     <use xlink:href="#DejaVuSans-4d" x="414.996094"/>
     <use xlink:href="#DejaVuSans-65" x="501.275391"/>
     <use xlink:href="#DejaVuSans-61" x="562.798828"/>
     <use xlink:href="#DejaVuSans-6e" x="624.078125"/>
     <use xlink:href="#DejaVuSans-20" x="687.457031"/>
     <use xlink:href="#DejaVuSans-51" x="719.244141"/>
     <use xlink:href="#DejaVuSans-75" x="797.955078"/>
     <use xlink:href="#DejaVuSans-61" x="861.333984"/>
     <use xlink:href="#DejaVuSans-6c" x="922.613281"/>
     <use xlink:href="#DejaVuSans-69" x="950.396484"/>
     <use xlink:href="#DejaVuSans-74" x="978.179688"/>
     <use xlink:href="#DejaVuSans-79" x="1017.388672"/>
     <use xlink:href="#DejaVuSans-20" x="1076.568359"/>
     <use xlink:href="#DejaVuSans-53" x="1108.355469"/>
     <use xlink:href="#DejaVuSans-63" x="1171.832031"/>
     <use xlink:href="#DejaVuSans-6f" x="1226.8125"/>
     <use xlink:href="#DejaVuSans-72" x="1287.994141"/>
     <use xlink:href="#DejaVuSans-65" x="1326.857422"/>
     <use xlink:href="#DejaVuSans-73" x="1388.380859"/>
    </g>
   </g>
   <g id="legend_1">
    <g id="line2d_22">
     <path d="M 45.258125 292.192894 
L 53.258125 292.192894 
L 61.258125 292.192894 
" style="fill: none; stroke: #5cb85c; stroke-linecap: square"/>
    </g>
    <g id="text_18">
     <!-- SRR2155413 -->
     <g transform="translate(67.658125 294.992894)scale(0.08 -0.08)">
      <defs>
       <path id="DejaVuSans-52" d="M 2841 2188 
Q 3044 2119 3236 1894 
Q 3428 1669 3622 1275 
L 4263 0 
L 3584 0 
L 2988 1197 
Q 2756 1666 2539 1819 
Q 2322 1972 1947 1972 
L 1259 1972 
L 1259 0 
L 628 0 
L 628 4666 
L 2053 4666 
Q 2853 4666 3247 4331 
Q 3641 3997 3641 3322 
Q 3641 2881 3436 2590 
Q 3231 2300 2841 2188 
z
M 1259 4147 
L 1259 2491 
L 2053 2491 
Q 2509 2491 2742 2702 
Q 2975 2913 2975 3322 
Q 2975 3731 2742 3939 
Q 2509 4147 2053 4147 
L 1259 4147 
z
" transform="scale(0.015625)"/>
      </defs>
      <use xlink:href="#DejaVuSans-53"/>
      <use xlink:href="#DejaVuSans-52" x="63.476562"/>
      <use xlink:href="#DejaVuSans-52" x="132.958984"/>
      <use xlink:href="#DejaVuSans-32" x="202.441406"/>
      <use xlink:href="#DejaVuSans-31" x="266.064453"/>
      <use xlink:href="#DejaVuSans-35" x="329.6875"/>
      <use xlink:href="#DejaVuSans-35" x="393.310547"/>
      <use xlink:href="#DejaVuSans-34" x="456.933594"/>
      <use xlink:href="#DejaVuSans-31" x="520.556641"/>
      <use xlink:href="#DejaVuSans-33" x="584.179688"/>
     </g>
    </g>
    <g id="line2d_23">
     <path d="M 45.258125 303.935394 
L 53.258125 303.935394 
L 61.258125 303.935394 
" style="fill: none; stroke: #5cb85c; stroke-linecap: square"/>
    </g>
    <g id="text_19">
     <!-- SRR2155414 -->
     <g transform="translate(67.658125 306.735394)scale(0.08 -0.08)">
      <use xlink:href="#DejaVuSans-53"/>
      <use xlink:href="#DejaVuSans-52" x="63.476562"/>
      <use xlink:href="#DejaVuSans-52" x="132.958984"/>
      <use xlink:href="#DejaVuSans-32" x="202.441406"/>
      <use xlink:href="#DejaVuSans-31" x="266.064453"/>
      <use xlink:href="#DejaVuSans-35" x="329.6875"/>
      <use xlink:href="#DejaVuSans-35" x="393.310547"/>
      <use xlink:href="#DejaVuSans-34" x="456.933594"/>
      <use xlink:href="#DejaVuSans-31" x="520.556641"/>
      <use xlink:href="#DejaVuSans-34" x="584.179688"/>
     </g>
    </g>
    <g id="line2d_24">
     <path d="M 45.258125 315.677894 
L 53.258125 315.677894 
L 61.258125 315.677894 
" style="fill: none; stroke: #f0ad4e; stroke-linecap: square"/>
    </g>
    <g id="text_20">
     <!-- SRR2155415 -->
     <g transform="translate(67.658125 318.477894)scale(0.08 -0.08)">
      <use xlink:href="#DejaVuSans-53"/>
      <use xlink:href="#DejaVuSans-52" x="63.476562"/>
      <use xlink:href="#DejaVuSans-52" x="132.958984"/>
      <use xlink:href="#DejaVuSans-32" x="202.441406"/>
      <use xlink:href="#DejaVuSans-31" x="266.064453"/>
      <use xlink:href="#DejaVuSans-35" x="329.6875"/>
      <use xlink:href="#DejaVuSans-35" x="393.310547"/>
      <use xlink:href="#DejaVuSans-34" x="456.933594"/>
      <use xlink:href="#DejaVuSans-31" x="520.556641"/>
      <use xlink:href="#DejaVuSans-35" x="584.179688"/>
     </g>
    </g>
    <g id="line2d_25">
     <path d="M 261.866563 292.192894 
L 269.866563 292.192894 
L 277.866563 292.192894 
" style="fill: none; stroke: #5cb85c; stroke-linecap: square"/>
    </g>
    <g id="text_21">
     <!-- SRR2155416 -->
     <g transform="translate(284.266563 294.992894)scale(0.08 -0.08)">
      <use xlink:href="#DejaVuSans-53"/>
      <use xlink:href="#DejaVuSans-52" x="63.476562"/>
      <use xlink:href="#DejaVuSans-52" x="132.958984"/>
      <use xlink:href="#DejaVuSans-32" x="202.441406"/>
      <use xlink:href="#DejaVuSans-31" x="266.064453"/>
      <use xlink:href="#DejaVuSans-35" x="329.6875"/>
      <use xlink:href="#DejaVuSans-35" x="393.310547"/>
      <use xlink:href="#DejaVuSans-34" x="456.933594"/>
      <use xlink:href="#DejaVuSans-31" x="520.556641"/>
      <use xlink:href="#DejaVuSans-36" x="584.179688"/>
     </g>
    </g>
    <g id="line2d_26">
     <path d="M 261.866563 303.935394 
L 269.866563 303.935394 
L 277.866563 303.935394 
" style="fill: none; stroke: #5cb85c; stroke-linecap: square"/>
    </g>
    <g id="text_22">
     <!-- SRR2155417 -->
     <g transform="translate(284.266563 306.735394)scale(0.08 -0.08)">
      <defs>
       <path id="DejaVuSans-37" d="M 525 4666 
L 3525 4666 
L 3525 4397 
L 1831 0 
L 1172 0 
L 2766 4134 
L 525 4134 
L 525 4666 
z
" transform="scale(0.015625)"/>
      </defs>
      <use xlink:href="#DejaVuSans-53"/>
      <use xlink:href="#DejaVuSans-52" x="63.476562"/>
      <use xlink:href="#DejaVuSans-52" x="132.958984"/>
      <use xlink:href="#DejaVuSans-32" x="202.441406"/>
      <use xlink:href="#DejaVuSans-31" x="266.064453"/>
      <use xlink:href="#DejaVuSans-35" x="329.6875"/>
      <use xlink:href="#DejaVuSans-35" x="393.310547"/>
      <use xlink:href="#DejaVuSans-34" x="456.933594"/>
      <use xlink:href="#DejaVuSans-31" x="520.556641"/>
      <use xlink:href="#DejaVuSans-37" x="584.179688"/>
     </g>
    </g>
    <g id="line2d_27">
     <path d="M 261.866563 315.677894 
L 269.866563 315.677894 
L 277.866563 315.677894 
" style="fill: none; stroke: #5cb85c; stroke-linecap: square"/>
    </g>
    <g id="text_23">
     <!-- SRR2155418 -->
     <g transform="translate(284.266563 318.477894)scale(0.08 -0.08)">
      <use xlink:href="#DejaVuSans-53"/>
      <use xlink:href="#DejaVuSans-52" x="63.476562"/>
      <use xlink:href="#DejaVuSans-52" x="132.958984"/>
      <use xlink:href="#DejaVuSans-32" x="202.441406"/>
      <use xlink:href="#DejaVuSans-31" x="266.064453"/>
      <use xlink:href="#DejaVuSans-35" x="329.6875"/>
      <use xlink:href="#DejaVuSans-35" x="393.310547"/>
      <use xlink:href="#DejaVuSans-34" x="456.933594"/>
      <use xlink:href="#DejaVuSans-31" x="520.556641"/>
      <use xlink:href="#DejaVuSans-38" x="584.179688"/>
     </g>
    </g>
    <g id="line2d_28">
     <path d="M 478.475 292.192894 
L 486.475 292.192894 
L 494.475 292.192894 
" style="fill: none; stroke: #5cb85c; stroke-linecap: square"/>
    </g>
    <g id="text_24">
     <!-- SRR2155419 -->
     <g transform="translate(500.875 294.992894)scale(0.08 -0.08)">
      <defs>
       <path id="DejaVuSans-39" d="M 703 97 
L 703 672 
Q 941 559 1184 500 
Q 1428 441 1663 441 
Q 2288 441 2617 861 
Q 2947 1281 2994 2138 
Q 2813 1869 2534 1725 
Q 2256 1581 1919 1581 
Q 1219 1581 811 2004 
Q 403 2428 403 3163 
Q 403 3881 828 4315 
Q 1253 4750 1959 4750 
Q 2769 4750 3195 4129 
Q 3622 3509 3622 2328 
Q 3622 1225 3098 567 
Q 2575 -91 1691 -91 
Q 1453 -91 1209 -44 
Q 966 3 703 97 
z
M 1959 2075 
Q 2384 2075 2632 2365 
Q 2881 2656 2881 3163 
Q 2881 3666 2632 3958 
Q 2384 4250 1959 4250 
Q 1534 4250 1286 3958 
Q 1038 3666 1038 3163 
Q 1038 2656 1286 2365 
Q 1534 2075 1959 2075 
z
" transform="scale(0.015625)"/>
      </defs>
      <use xlink:href="#DejaVuSans-53"/>
      <use xlink:href="#DejaVuSans-52" x="63.476562"/>
      <use xlink:href="#DejaVuSans-52" x="132.958984"/>
      <use xlink:href="#DejaVuSans-32" x="202.441406"/>
      <use xlink:href="#DejaVuSans-31" x="266.064453"/>
      <use xlink:href="#DejaVuSans-35" x="329.6875"/>
      <use xlink:href="#DejaVuSans-35" x="393.310547"/>
      <use xlink:href="#DejaVuSans-34" x="456.933594"/>
      <use xlink:href="#DejaVuSans-31" x="520.556641"/>
      <use xlink:href="#DejaVuSans-39" x="584.179688"/>
     </g>
    </g>
    <g id="line2d_29">
     <path d="M 478.475 303.935394 
L 486.475 303.935394 
L 494.475 303.935394 
" style="fill: none; stroke: #5cb85c; stroke-linecap: square"/>
    </g>
    <g id="text_25">
     <!-- SRR2155420 -->
     <g transform="translate(500.875 306.735394)scale(0.08 -0.08)">
      <use xlink:href="#DejaVuSans-53"/>
      <use xlink:href="#DejaVuSans-52" x="63.476562"/>
      <use xlink:href="#DejaVuSans-52" x="132.958984"/>
      <use xlink:href="#DejaVuSans-32" x="202.441406"/>
      <use xlink:href="#DejaVuSans-31" x="266.064453"/>
      <use xlink:href="#DejaVuSans-35" x="329.6875"/>
      <use xlink:href="#DejaVuSans-35" x="393.310547"/>
      <use xlink:href="#DejaVuSans-34" x="456.933594"/>
      <use xlink:href="#DejaVuSans-32" x="520.556641"/>
      <use xlink:href="#DejaVuSans-30" x="584.179688"/>
     </g>
    </g>
    <g id="line2d_30">
     <path d="M 695.083438 292.192894 
L 703.083438 292.192894 
L 711.083438 292.192894 
" style="fill: none; stroke: #f0ad4e; stroke-linecap: square"/>
    </g>
    <g id="text_26">
     <!-- SRR2155421 -->
     <g transform="translate(717.483438 294.992894)scale(0.08 -0.08)">
      <use xlink:href="#DejaVuSans-53"/>
      <use xlink:href="#DejaVuSans-52" x="63.476562"/>
      <use xlink:href="#DejaVuSans-52" x="132.958984"/>
      <use xlink:href="#DejaVuSans-32" x="202.441406"/>
      <use xlink:href="#DejaVuSans-31" x="266.064453"/>
      <use xlink:href="#DejaVuSans-35" x="329.6875"/>
      <use xlink:href="#DejaVuSans-35" x="393.310547"/>
      <use xlink:href="#DejaVuSans-34" x="456.933594"/>
      <use xlink:href="#DejaVuSans-32" x="520.556641"/>
      <use xlink:href="#DejaVuSans-31" x="584.179688"/>
     </g>
    </g>
    <g id="line2d_31">
     <path d="M 695.083438 303.935394 
L 703.083438 303.935394 
L 711.083438 303.935394 
" style="fill: none; stroke: #f0ad4e; stroke-linecap: square"/>
    </g>
    <g id="text_27">
     <!-- SRR2155422 -->
     <g transform="translate(717.483438 306.735394)scale(0.08 -0.08)">
      <use xlink:href="#DejaVuSans-53"/>
      <use xlink:href="#DejaVuSans-52" x="63.476562"/>
      <use xlink:href="#DejaVuSans-52" x="132.958984"/>
      <use xlink:href="#DejaVuSans-32" x="202.441406"/>
      <use xlink:href="#DejaVuSans-31" x="266.064453"/>
      <use xlink:href="#DejaVuSans-35" x="329.6875"/>
      <use xlink:href="#DejaVuSans-35" x="393.310547"/>
      <use xlink:href="#DejaVuSans-34" x="456.933594"/>
      <use xlink:href="#DejaVuSans-32" x="520.556641"/>
      <use xlink:href="#DejaVuSans-32" x="584.179688"/>
     </g>
    </g>
    <g id="line2d_32">
     <path d="M 911.691875 292.192894 
L 919.691875 292.192894 
L 927.691875 292.192894 
" style="fill: none; stroke: #5cb85c; stroke-linecap: square"/>
    </g>
    <g id="text_28">
     <!-- SRR2155423 -->
     <g transform="translate(934.091875 294.992894)scale(0.08 -0.08)">
      <use xlink:href="#DejaVuSans-53"/>
      <use xlink:href="#DejaVuSans-52" x="63.476562"/>
      <use xlink:href="#DejaVuSans-52" x="132.958984"/>
      <use xlink:href="#DejaVuSans-32" x="202.441406"/>
      <use xlink:href="#DejaVuSans-31" x="266.064453"/>
      <use xlink:href="#DejaVuSans-35" x="329.6875"/>
      <use xlink:href="#DejaVuSans-35" x="393.310547"/>
      <use xlink:href="#DejaVuSans-34" x="456.933594"/>
      <use xlink:href="#DejaVuSans-32" x="520.556641"/>
      <use xlink:href="#DejaVuSans-33" x="584.179688"/>
     </g>
    </g>
    <g id="line2d_33">
     <path d="M 911.691875 303.935394 
L 919.691875 303.935394 
L 927.691875 303.935394 
" style="fill: none; stroke: #f0ad4e; stroke-linecap: square"/>
    </g>
    <g id="text_29">
     <!-- SRR2155424 -->
     <g transform="translate(934.091875 306.735394)scale(0.08 -0.08)">
      <use xlink:href="#DejaVuSans-53"/>
      <use xlink:href="#DejaVuSans-52" x="63.476562"/>
      <use xlink:href="#DejaVuSans-52" x="132.958984"/>
      <use xlink:href="#DejaVuSans-32" x="202.441406"/>
      <use xlink:href="#DejaVuSans-31" x="266.064453"/>
      <use xlink:href="#DejaVuSans-35" x="329.6875"/>
      <use xlink:href="#DejaVuSans-35" x="393.310547"/>
      <use xlink:href="#DejaVuSans-34" x="456.933594"/>
      <use xlink:href="#DejaVuSans-32" x="520.556641"/>
      <use xlink:href="#DejaVuSans-34" x="584.179688"/>
     </g>
    </g>
   </g>
  </g>
 </g>
 <defs>
  <clipPath id="pc957b727e8">
   <rect x="38.058125" y="31.48286" width="955.06" height="242.5072"/>
  </clipPath>
 </defs>
</svg>
