<?xml version="1.0" encoding="utf-8" standalone="no"?>
<!DOCTYPE svg PUBLIC "-//W3C//DTD SVG 1.1//EN"
  "http://www.w3.org/Graphics/SVG/1.1/DTD/svg11.dtd">
<svg xmlns:xlink="http://www.w3.org/1999/xlink" width="1000.358125pt" height="330.541644pt" viewBox="0 0 1000.358125 330.541644" xmlns="http://www.w3.org/2000/svg" version="1.1">
 <metadata>
  <rdf:RDF xmlns:dc="http://purl.org/dc/elements/1.1/" xmlns:cc="http://creativecommons.org/ns#" xmlns:rdf="http://www.w3.org/1999/02/22-rdf-syntax-ns#">
   <cc:Work>
    <dc:type rdf:resource="http://purl.org/dc/dcmitype/StillImage"/>
    <dc:date>2024-08-14T16:02:22.066868</dc:date>
    <dc:format>image/svg+xml</dc:format>
    <dc:creator>
     <cc:Agent>
      <dc:title>Matplotlib v3.5.3, https://matplotlib.org/</dc:title>
     </cc:Agent>
    </dc:creator>
   </cc:Work>
  </rdf:RDF>
 </metadata>
 <defs>
  <style type="text/css">*{stroke-linejoin: round; stroke-linecap: butt}</style>
 </defs>
 <g id="figure_1">
  <g id="axes_1">
   <g id="patch_1">
    <path d="M 32.968125 273.99006 
L 993.158125 273.99006 
L 993.158125 31.48286 
L 32.968125 31.48286 
z
" style="fill: #ffffff"/>
   </g>
   <g id="matplotlib.axis_1">
    <g id="xtick_1">
     <g id="text_1">
      <!-- 0 -->
      <g transform="translate(65.339125 287.06881)scale(0.08 -0.08)">
       <defs>
        <path id="DejaVuSans-30" d="M 2034 4250 
Q 1547 4250 1301 3770 
Q 1056 3291 1056 2328 
Q 1056 1369 1301 889 
Q 1547 409 2034 409 
Q 2525 409 2770 889 
Q 3016 1369 3016 2328 
Q 3016 3291 2770 3770 
Q 2525 4250 2034 4250 
z
M 2034 4750 
Q 2819 4750 3233 4129 
Q 3647 3509 3647 2328 
Q 3647 1150 3233 529 
Q 2819 -91 2034 -91 
Q 1250 -91 836 529 
Q 422 1150 422 2328 
Q 422 3509 836 4129 
Q 1250 4750 2034 4750 
z
" transform="scale(0.015625)"/>
       </defs>
       <use xlink:href="#DejaVuSans-30"/>
      </g>
     </g>
    </g>
    <g id="xtick_2">
     <g id="text_2">
      <!-- 20 -->
      <g transform="translate(237.374125 287.06881)scale(0.08 -0.08)">
       <defs>
        <path id="DejaVuSans-32" d="M 1228 531 
L 3431 531 
L 3431 0 
L 469 0 
L 469 531 
Q 828 903 1448 1529 
Q 2069 2156 2228 2338 
Q 2531 2678 2651 2914 
Q 2772 3150 2772 3378 
Q 2772 3750 2511 3984 
Q 2250 4219 1831 4219 
Q 1534 4219 1204 4116 
Q 875 4013 500 3803 
L 500 4441 
Q 881 4594 1212 4672 
Q 1544 4750 1819 4750 
Q 2544 4750 2975 4387 
Q 3406 4025 3406 3419 
Q 3406 3131 3298 2873 
Q 3191 2616 2906 2266 
Q 2828 2175 2409 1742 
Q 1991 1309 1228 531 
z
" transform="scale(0.015625)"/>
       </defs>
       <use xlink:href="#DejaVuSans-32"/>
       <use xlink:href="#DejaVuSans-30" x="63.623047"/>
      </g>
     </g>
    </g>
    <g id="xtick_3">
     <g id="text_3">
      <!-- 40 -->
      <g transform="translate(411.954125 287.06881)scale(0.08 -0.08)">
       <defs>
        <path id="DejaVuSans-34" d="M 2419 4116 
L 825 1625 
L 2419 1625 
L 2419 4116 
z
M 2253 4666 
L 3047 4666 
L 3047 1625 
L 3713 1625 
L 3713 1100 
L 3047 1100 
L 3047 0 
L 2419 0 
L 2419 1100 
L 313 1100 
L 313 1709 
L 2253 4666 
z
" transform="scale(0.015625)"/>
       </defs>
       <use xlink:href="#DejaVuSans-34"/>
       <use xlink:href="#DejaVuSans-30" x="63.623047"/>
      </g>
     </g>
    </g>
    <g id="xtick_4">
     <g id="text_4">
      <!-- 60 -->
      <g transform="translate(586.534125 287.06881)scale(0.08 -0.08)">
       <defs>
        <path id="DejaVuSans-36" d="M 2113 2584 
Q 1688 2584 1439 2293 
Q 1191 2003 1191 1497 
Q 1191 994 1439 701 
Q 1688 409 2113 409 
Q 2538 409 2786 701 
Q 3034 994 3034 1497 
Q 3034 2003 2786 2293 
Q 2538 2584 2113 2584 
z
M 3366 4563 
L 3366 3988 
Q 3128 4100 2886 4159 
Q 2644 4219 2406 4219 
Q 1781 4219 1451 3797 
Q 1122 3375 1075 2522 
Q 1259 2794 1537 2939 
Q 1816 3084 2150 3084 
Q 2853 3084 3261 2657 
Q 3669 2231 3669 1497 
Q 3669 778 3244 343 
Q 2819 -91 2113 -91 
Q 1303 -91 875 529 
Q 447 1150 447 2328 
Q 447 3434 972 4092 
Q 1497 4750 2381 4750 
Q 2619 4750 2861 4703 
Q 3103 4656 3366 4563 
z
" transform="scale(0.015625)"/>
       </defs>
       <use xlink:href="#DejaVuSans-36"/>
       <use xlink:href="#DejaVuSans-30" x="63.623047"/>
      </g>
     </g>
    </g>
    <g id="xtick_5">
     <g id="text_5">
      <!-- 80 -->
      <g transform="translate(761.114125 287.06881)scale(0.08 -0.08)">
       <defs>
        <path id="DejaVuSans-38" d="M 2034 2216 
Q 1584 2216 1326 1975 
Q 1069 1734 1069 1313 
Q 1069 891 1326 650 
Q 1584 409 2034 409 
Q 2484 409 2743 651 
Q 3003 894 3003 1313 
Q 3003 1734 2745 1975 
Q 2488 2216 2034 2216 
z
M 1403 2484 
Q 997 2584 770 2862 
Q 544 3141 544 3541 
Q 544 4100 942 4425 
Q 1341 4750 2034 4750 
Q 2731 4750 3128 4425 
Q 3525 4100 3525 3541 
Q 3525 3141 3298 2862 
Q 3072 2584 2669 2484 
Q 3125 2378 3379 2068 
Q 3634 1759 3634 1313 
Q 3634 634 3220 271 
Q 2806 -91 2034 -91 
Q 1263 -91 848 271 
Q 434 634 434 1313 
Q 434 1759 690 2068 
Q 947 2378 1403 2484 
z
M 1172 3481 
Q 1172 3119 1398 2916 
Q 1625 2713 2034 2713 
Q 2441 2713 2670 2916 
Q 2900 3119 2900 3481 
Q 2900 3844 2670 4047 
Q 2441 4250 2034 4250 
Q 1625 4250 1398 4047 
Q 1172 3844 1172 3481 
z
" transform="scale(0.015625)"/>
       </defs>
       <use xlink:href="#DejaVuSans-38"/>
       <use xlink:href="#DejaVuSans-30" x="63.623047"/>
      </g>
     </g>
    </g>
    <g id="xtick_6">
     <g id="text_6">
      <!-- 100 -->
      <g transform="translate(933.149125 287.06881)scale(0.08 -0.08)">
       <defs>
        <path id="DejaVuSans-31" d="M 794 531 
L 1825 531 
L 1825 4091 
L 703 3866 
L 703 4441 
L 1819 4666 
L 2450 4666 
L 2450 531 
L 3481 531 
L 3481 0 
L 794 0 
L 794 531 
z
" transform="scale(0.015625)"/>
       </defs>
       <use xlink:href="#DejaVuSans-31"/>
       <use xlink:href="#DejaVuSans-30" x="63.623047"/>
       <use xlink:href="#DejaVuSans-30" x="127.246094"/>
      </g>
     </g>
    </g>
    <g id="text_7">
     <!-- Length Trimmed (bp) -->
     <g transform="translate(460.635781 300.330997)scale(0.1 -0.1)">
      <defs>
       <path id="DejaVuSans-4c" d="M 628 4666 
L 1259 4666 
L 1259 531 
L 3531 531 
L 3531 0 
L 628 0 
L 628 4666 
z
" transform="scale(0.015625)"/>
       <path id="DejaVuSans-65" d="M 3597 1894 
L 3597 1613 
L 953 1613 
Q 991 1019 1311 708 
Q 1631 397 2203 397 
Q 2534 397 2845 478 
Q 3156 559 3463 722 
L 3463 178 
Q 3153 47 2828 -22 
Q 2503 -91 2169 -91 
Q 1331 -91 842 396 
Q 353 884 353 1716 
Q 353 2575 817 3079 
Q 1281 3584 2069 3584 
Q 2775 3584 3186 3129 
Q 3597 2675 3597 1894 
z
M 3022 2063 
Q 3016 2534 2758 2815 
Q 2500 3097 2075 3097 
Q 1594 3097 1305 2825 
Q 1016 2553 972 2059 
L 3022 2063 
z
" transform="scale(0.015625)"/>
       <path id="DejaVuSans-6e" d="M 3513 2113 
L 3513 0 
L 2938 0 
L 2938 2094 
Q 2938 2591 2744 2837 
Q 2550 3084 2163 3084 
Q 1697 3084 1428 2787 
Q 1159 2491 1159 1978 
L 1159 0 
L 581 0 
L 581 3500 
L 1159 3500 
L 1159 2956 
Q 1366 3272 1645 3428 
Q 1925 3584 2291 3584 
Q 2894 3584 3203 3211 
Q 3513 2838 3513 2113 
z
" transform="scale(0.015625)"/>
       <path id="DejaVuSans-67" d="M 2906 1791 
Q 2906 2416 2648 2759 
Q 2391 3103 1925 3103 
Q 1463 3103 1205 2759 
Q 947 2416 947 1791 
Q 947 1169 1205 825 
Q 1463 481 1925 481 
Q 2391 481 2648 825 
Q 2906 1169 2906 1791 
z
M 3481 434 
Q 3481 -459 3084 -895 
Q 2688 -1331 1869 -1331 
Q 1566 -1331 1297 -1286 
Q 1028 -1241 775 -1147 
L 775 -588 
Q 1028 -725 1275 -790 
Q 1522 -856 1778 -856 
Q 2344 -856 2625 -561 
Q 2906 -266 2906 331 
L 2906 616 
Q 2728 306 2450 153 
Q 2172 0 1784 0 
Q 1141 0 747 490 
Q 353 981 353 1791 
Q 353 2603 747 3093 
Q 1141 3584 1784 3584 
Q 2172 3584 2450 3431 
Q 2728 3278 2906 2969 
L 2906 3500 
L 3481 3500 
L 3481 434 
z
" transform="scale(0.015625)"/>
       <path id="DejaVuSans-74" d="M 1172 4494 
L 1172 3500 
L 2356 3500 
L 2356 3053 
L 1172 3053 
L 1172 1153 
Q 1172 725 1289 603 
Q 1406 481 1766 481 
L 2356 481 
L 2356 0 
L 1766 0 
Q 1100 0 847 248 
Q 594 497 594 1153 
L 594 3053 
L 172 3053 
L 172 3500 
L 594 3500 
L 594 4494 
L 1172 4494 
z
" transform="scale(0.015625)"/>
       <path id="DejaVuSans-68" d="M 3513 2113 
L 3513 0 
L 2938 0 
L 2938 2094 
Q 2938 2591 2744 2837 
Q 2550 3084 2163 3084 
Q 1697 3084 1428 2787 
Q 1159 2491 1159 1978 
L 1159 0 
L 581 0 
L 581 4863 
L 1159 4863 
L 1159 2956 
Q 1366 3272 1645 3428 
Q 1925 3584 2291 3584 
Q 2894 3584 3203 3211 
Q 3513 2838 3513 2113 
z
" transform="scale(0.015625)"/>
       <path id="DejaVuSans-20" transform="scale(0.015625)"/>
       <path id="DejaVuSans-54" d="M -19 4666 
L 3928 4666 
L 3928 4134 
L 2272 4134 
L 2272 0 
L 1638 0 
L 1638 4134 
L -19 4134 
L -19 4666 
z
" transform="scale(0.015625)"/>
       <path id="DejaVuSans-72" d="M 2631 2963 
Q 2534 3019 2420 3045 
Q 2306 3072 2169 3072 
Q 1681 3072 1420 2755 
Q 1159 2438 1159 1844 
L 1159 0 
L 581 0 
L 581 3500 
L 1159 3500 
L 1159 2956 
Q 1341 3275 1631 3429 
Q 1922 3584 2338 3584 
Q 2397 3584 2469 3576 
Q 2541 3569 2628 3553 
L 2631 2963 
z
" transform="scale(0.015625)"/>
       <path id="DejaVuSans-69" d="M 603 3500 
L 1178 3500 
L 1178 0 
L 603 0 
L 603 3500 
z
M 603 4863 
L 1178 4863 
L 1178 4134 
L 603 4134 
L 603 4863 
z
" transform="scale(0.015625)"/>
       <path id="DejaVuSans-6d" d="M 3328 2828 
Q 3544 3216 3844 3400 
Q 4144 3584 4550 3584 
Q 5097 3584 5394 3201 
Q 5691 2819 5691 2113 
L 5691 0 
L 5113 0 
L 5113 2094 
Q 5113 2597 4934 2840 
Q 4756 3084 4391 3084 
Q 3944 3084 3684 2787 
Q 3425 2491 3425 1978 
L 3425 0 
L 2847 0 
L 2847 2094 
Q 2847 2600 2669 2842 
Q 2491 3084 2119 3084 
Q 1678 3084 1418 2786 
Q 1159 2488 1159 1978 
L 1159 0 
L 581 0 
L 581 3500 
L 1159 3500 
L 1159 2956 
Q 1356 3278 1631 3431 
Q 1906 3584 2284 3584 
Q 2666 3584 2933 3390 
Q 3200 3197 3328 2828 
z
" transform="scale(0.015625)"/>
       <path id="DejaVuSans-64" d="M 2906 2969 
L 2906 4863 
L 3481 4863 
L 3481 0 
L 2906 0 
L 2906 525 
Q 2725 213 2448 61 
Q 2172 -91 1784 -91 
Q 1150 -91 751 415 
Q 353 922 353 1747 
Q 353 2572 751 3078 
Q 1150 3584 1784 3584 
Q 2172 3584 2448 3432 
Q 2725 3281 2906 2969 
z
M 947 1747 
Q 947 1113 1208 752 
Q 1469 391 1925 391 
Q 2381 391 2643 752 
Q 2906 1113 2906 1747 
Q 2906 2381 2643 2742 
Q 2381 3103 1925 3103 
Q 1469 3103 1208 2742 
Q 947 2381 947 1747 
z
" transform="scale(0.015625)"/>
       <path id="DejaVuSans-28" d="M 1984 4856 
Q 1566 4138 1362 3434 
Q 1159 2731 1159 2009 
Q 1159 1288 1364 580 
Q 1569 -128 1984 -844 
L 1484 -844 
Q 1016 -109 783 600 
Q 550 1309 550 2009 
Q 550 2706 781 3412 
Q 1013 4119 1484 4856 
L 1984 4856 
z
" transform="scale(0.015625)"/>
       <path id="DejaVuSans-62" d="M 3116 1747 
Q 3116 2381 2855 2742 
Q 2594 3103 2138 3103 
Q 1681 3103 1420 2742 
Q 1159 2381 1159 1747 
Q 1159 1113 1420 752 
Q 1681 391 2138 391 
Q 2594 391 2855 752 
Q 3116 1113 3116 1747 
z
M 1159 2969 
Q 1341 3281 1617 3432 
Q 1894 3584 2278 3584 
Q 2916 3584 3314 3078 
Q 3713 2572 3713 1747 
Q 3713 922 3314 415 
Q 2916 -91 2278 -91 
Q 1894 -91 1617 61 
Q 1341 213 1159 525 
L 1159 0 
L 581 0 
L 581 4863 
L 1159 4863 
L 1159 2969 
z
" transform="scale(0.015625)"/>
       <path id="DejaVuSans-70" d="M 1159 525 
L 1159 -1331 
L 581 -1331 
L 581 3500 
L 1159 3500 
L 1159 2969 
Q 1341 3281 1617 3432 
Q 1894 3584 2278 3584 
Q 2916 3584 3314 3078 
Q 3713 2572 3713 1747 
Q 3713 922 3314 415 
Q 2916 -91 2278 -91 
Q 1894 -91 1617 61 
Q 1341 213 1159 525 
z
M 3116 1747 
Q 3116 2381 2855 2742 
Q 2594 3103 2138 3103 
Q 1681 3103 1420 2742 
Q 1159 2381 1159 1747 
Q 1159 1113 1420 752 
Q 1681 391 2138 391 
Q 2594 391 2855 752 
Q 3116 1113 3116 1747 
z
" transform="scale(0.015625)"/>
       <path id="DejaVuSans-29" d="M 513 4856 
L 1013 4856 
Q 1481 4119 1714 3412 
Q 1947 2706 1947 2009 
Q 1947 1309 1714 600 
Q 1481 -109 1013 -844 
L 513 -844 
Q 928 -128 1133 580 
Q 1338 1288 1338 2009 
Q 1338 2731 1133 3434 
Q 928 4138 513 4856 
z
" transform="scale(0.015625)"/>
      </defs>
      <use xlink:href="#DejaVuSans-4c"/>
      <use xlink:href="#DejaVuSans-65" x="53.962891"/>
      <use xlink:href="#DejaVuSans-6e" x="115.486328"/>
      <use xlink:href="#DejaVuSans-67" x="178.865234"/>
      <use xlink:href="#DejaVuSans-74" x="242.341797"/>
      <use xlink:href="#DejaVuSans-68" x="281.550781"/>
      <use xlink:href="#DejaVuSans-20" x="344.929688"/>
      <use xlink:href="#DejaVuSans-54" x="376.716797"/>
      <use xlink:href="#DejaVuSans-72" x="423.050781"/>
      <use xlink:href="#DejaVuSans-69" x="464.164062"/>
      <use xlink:href="#DejaVuSans-6d" x="491.947266"/>
      <use xlink:href="#DejaVuSans-6d" x="589.359375"/>
      <use xlink:href="#DejaVuSans-65" x="686.771484"/>
      <use xlink:href="#DejaVuSans-64" x="748.294922"/>
      <use xlink:href="#DejaVuSans-20" x="811.771484"/>
      <use xlink:href="#DejaVuSans-28" x="843.558594"/>
      <use xlink:href="#DejaVuSans-62" x="882.572266"/>
      <use xlink:href="#DejaVuSans-70" x="946.048828"/>
      <use xlink:href="#DejaVuSans-29" x="1009.525391"/>
     </g>
    </g>
   </g>
   <g id="matplotlib.axis_2">
    <g id="ytick_1">
     <g id="line2d_1">
      <path d="M 32.968125 273.99006 
L 993.158125 273.99006 
" clip-path="url(#pefa38454a3)" style="fill: none; stroke: #dedede; stroke-linecap: square"/>
     </g>
     <g id="text_8">
      <!-- 0 -->
      <g transform="translate(20.878125 277.029435)scale(0.08 -0.08)">
       <use xlink:href="#DejaVuSans-30"/>
      </g>
     </g>
    </g>
    <g id="ytick_2">
     <g id="line2d_2">
      <path d="M 32.968125 220.836963 
L 993.158125 220.836963 
" clip-path="url(#pefa38454a3)" style="fill: none; stroke: #dedede; stroke-linecap: square"/>
     </g>
     <g id="text_9">
      <!-- 2 -->
      <g transform="translate(20.878125 223.876338)scale(0.08 -0.08)">
       <use xlink:href="#DejaVuSans-32"/>
      </g>
     </g>
    </g>
    <g id="ytick_3">
     <g id="line2d_3">
      <path d="M 32.968125 167.683867 
L 993.158125 167.683867 
" clip-path="url(#pefa38454a3)" style="fill: none; stroke: #dedede; stroke-linecap: square"/>
     </g>
     <g id="text_10">
      <!-- 4 -->
      <g transform="translate(20.878125 170.723242)scale(0.08 -0.08)">
       <use xlink:href="#DejaVuSans-34"/>
      </g>
     </g>
    </g>
    <g id="ytick_4">
     <g id="line2d_4">
      <path d="M 32.968125 114.53077 
L 993.158125 114.53077 
" clip-path="url(#pefa38454a3)" style="fill: none; stroke: #dedede; stroke-linecap: square"/>
     </g>
     <g id="text_11">
      <!-- 6 -->
      <g transform="translate(20.878125 117.570145)scale(0.08 -0.08)">
       <use xlink:href="#DejaVuSans-36"/>
      </g>
     </g>
    </g>
    <g id="ytick_5">
     <g id="line2d_5">
      <path d="M 32.968125 61.377674 
L 993.158125 61.377674 
" clip-path="url(#pefa38454a3)" style="fill: none; stroke: #dedede; stroke-linecap: square"/>
     </g>
     <g id="text_12">
      <!-- 8 -->
      <g transform="translate(20.878125 64.417049)scale(0.08 -0.08)">
       <use xlink:href="#DejaVuSans-38"/>
      </g>
     </g>
    </g>
    <g id="text_13">
     <!-- Count -->
     <g transform="translate(14.798437 167.584897)rotate(-90)scale(0.1 -0.1)">
      <defs>
       <path id="DejaVuSans-43" d="M 4122 4306 
L 4122 3641 
Q 3803 3938 3442 4084 
Q 3081 4231 2675 4231 
Q 1875 4231 1450 3742 
Q 1025 3253 1025 2328 
Q 1025 1406 1450 917 
Q 1875 428 2675 428 
Q 3081 428 3442 575 
Q 3803 722 4122 1019 
L 4122 359 
Q 3791 134 3420 21 
Q 3050 -91 2638 -91 
Q 1578 -91 968 557 
Q 359 1206 359 2328 
Q 359 3453 968 4101 
Q 1578 4750 2638 4750 
Q 3056 4750 3426 4639 
Q 3797 4528 4122 4306 
z
" transform="scale(0.015625)"/>
       <path id="DejaVuSans-6f" d="M 1959 3097 
Q 1497 3097 1228 2736 
Q 959 2375 959 1747 
Q 959 1119 1226 758 
Q 1494 397 1959 397 
Q 2419 397 2687 759 
Q 2956 1122 2956 1747 
Q 2956 2369 2687 2733 
Q 2419 3097 1959 3097 
z
M 1959 3584 
Q 2709 3584 3137 3096 
Q 3566 2609 3566 1747 
Q 3566 888 3137 398 
Q 2709 -91 1959 -91 
Q 1206 -91 779 398 
Q 353 888 353 1747 
Q 353 2609 779 3096 
Q 1206 3584 1959 3584 
z
" transform="scale(0.015625)"/>
       <path id="DejaVuSans-75" d="M 544 1381 
L 544 3500 
L 1119 3500 
L 1119 1403 
Q 1119 906 1312 657 
Q 1506 409 1894 409 
Q 2359 409 2629 706 
Q 2900 1003 2900 1516 
L 2900 3500 
L 3475 3500 
L 3475 0 
L 2900 0 
L 2900 538 
Q 2691 219 2414 64 
Q 2138 -91 1772 -91 
Q 1169 -91 856 284 
Q 544 659 544 1381 
z
M 1991 3584 
L 1991 3584 
z
" transform="scale(0.015625)"/>
      </defs>
      <use xlink:href="#DejaVuSans-43"/>
      <use xlink:href="#DejaVuSans-6f" x="69.824219"/>
      <use xlink:href="#DejaVuSans-75" x="131.005859"/>
      <use xlink:href="#DejaVuSans-6e" x="194.384766"/>
      <use xlink:href="#DejaVuSans-74" x="257.763672"/>
     </g>
    </g>
    <g id="text_14">
     <!-- 1e6 -->
     <g transform="translate(32.968125 28.48286)scale(0.1 -0.1)">
      <use xlink:href="#DejaVuSans-31"/>
      <use xlink:href="#DejaVuSans-65" x="63.623047"/>
      <use xlink:href="#DejaVuSans-36" x="125.146484"/>
     </g>
    </g>
   </g>
   <g id="line2d_6">
    <path d="M 76.613125 218.875641 
L 85.342125 254.821406 
L 94.071125 268.82536 
L 102.800125 272.781571 
L 111.529125 273.550298 
L 120.258125 273.741569 
L 128.987125 273.79847 
L 137.716125 273.825897 
L 146.445125 273.833949 
L 155.174125 273.861802 
L 163.903125 273.883594 
L 172.632125 273.899939 
L 181.361125 273.924363 
L 190.090125 273.925824 
L 198.819125 273.933186 
L 207.548125 273.938209 
L 216.277125 273.934807 
L 225.006125 273.942727 
L 233.735125 273.964626 
L 242.464125 273.963669 
L 251.193125 273.967364 
L 259.922125 273.971589 
L 268.651125 273.973343 
L 277.380125 273.976426 
L 286.109125 273.975257 
L 294.838125 273.978765 
L 303.567125 273.979137 
L 312.296125 273.978606 
L 321.025125 273.980599 
L 329.754125 273.978924 
L 338.483125 273.985223 
L 347.212125 273.985409 
L 355.941125 273.985143 
L 364.670125 273.984771 
L 373.399125 273.983682 
L 382.128125 273.984984 
L 390.857125 273.985569 
L 399.586125 273.984585 
L 408.315125 273.98424 
L 417.044125 273.985569 
L 425.773125 273.985436 
L 434.502125 273.986765 
L 443.231125 273.986525 
L 451.960125 273.986366 
L 460.689125 273.984506 
L 469.418125 273.983708 
L 478.147125 273.987588 
L 486.876125 273.986951 
L 495.605125 273.986525 
L 504.334125 273.986897 
L 513.063125 273.986127 
L 521.792125 273.983177 
L 530.521125 273.983389 
L 539.250125 273.988173 
L 547.979125 273.987854 
L 556.708125 273.987748 
L 565.437125 273.986047 
L 574.166125 273.984904 
L 582.895125 273.985436 
L 591.624125 273.986977 
L 600.353125 273.985595 
L 609.082125 273.985117 
L 617.811125 273.980253 
L 626.540125 273.982353 
L 635.269125 273.987349 
L 643.998125 273.98618 
L 652.727125 273.983442 
L 661.456125 273.978924 
L 670.185125 273.972094 
L 678.914125 273.973104 
L 687.643125 273.986578 
L 696.372125 273.98905 
L 705.101125 273.989608 
L 713.830125 273.989715 
L 722.559125 273.989821 
L 731.288125 273.989901 
L 740.017125 273.989821 
L 748.746125 273.989794 
L 757.475125 273.989821 
L 766.204125 273.989874 
L 774.933125 273.989741 
L 783.662125 273.989847 
L 792.391125 273.989927 
L 801.120125 273.989847 
L 809.849125 273.989901 
L 818.578125 273.989715 
L 827.307125 273.989794 
L 836.036125 273.989768 
L 844.765125 273.989874 
L 853.494125 273.98998 
L 862.223125 273.989954 
L 870.952125 273.989768 
L 879.681125 273.989927 
L 888.410125 273.989741 
L 897.139125 273.98998 
L 905.868125 273.989847 
L 914.597125 273.989874 
L 923.326125 273.989741 
L 932.055125 273.990007 
L 940.784125 273.989927 
L 949.513125 273.989874 
" clip-path="url(#pefa38454a3)" style="fill: none; stroke: #7cb5ec; stroke-linecap: square"/>
   </g>
   <g id="line2d_7">
    <path d="M 76.613125 91.677756 
L 85.342125 210.643741 
L 94.071125 257.094232 
L 102.800125 269.999432 
L 111.529125 272.535526 
L 120.258125 273.208391 
L 128.987125 273.340954 
L 137.716125 273.423315 
L 146.445125 273.477133 
L 155.174125 273.550218 
L 163.903125 273.639755 
L 172.632125 273.657667 
L 181.361125 273.750605 
L 190.090125 273.756133 
L 198.819125 273.79645 
L 207.548125 273.803174 
L 216.277125 273.811891 
L 225.006125 273.839823 
L 233.735125 273.898238 
L 242.464125 273.899567 
L 251.193125 273.911925 
L 259.922125 273.916602 
L 268.651125 273.928376 
L 277.380125 273.935711 
L 286.109125 273.937465 
L 294.838125 273.950062 
L 303.567125 273.949052 
L 312.296125 273.946554 
L 321.025125 273.954607 
L 329.754125 273.954633 
L 338.483125 273.969596 
L 347.212125 273.968294 
L 355.941125 273.970553 
L 364.670125 273.96941 
L 373.399125 273.971403 
L 382.128125 273.970526 
L 390.857125 273.96452 
L 399.586125 273.961942 
L 408.315125 273.978233 
L 417.044125 273.976612 
L 425.773125 273.977755 
L 434.502125 273.978685 
L 443.231125 273.977861 
L 451.960125 273.977675 
L 460.689125 273.972626 
L 469.418125 273.971324 
L 478.147125 273.979403 
L 486.876125 273.979004 
L 495.605125 273.978632 
L 504.334125 273.979057 
L 513.063125 273.977675 
L 521.792125 273.970819 
L 530.521125 273.97228 
L 539.250125 273.982539 
L 547.979125 273.98222 
L 556.708125 273.980413 
L 565.437125 273.976931 
L 574.166125 273.974406 
L 582.895125 273.976054 
L 591.624125 273.977994 
L 600.353125 273.974752 
L 609.082125 273.972732 
L 617.811125 273.957849 
L 626.540125 273.962155 
L 635.269125 273.97616 
L 643.998125 273.973875 
L 652.727125 273.963616 
L 661.456125 273.945013 
L 670.185125 273.921811 
L 678.914125 273.921572 
L 687.643125 273.971802 
L 696.372125 273.984559 
L 705.101125 273.987269 
L 713.830125 273.988572 
L 722.559125 273.988837 
L 731.288125 273.989183 
L 740.017125 273.989396 
L 748.746125 273.989316 
L 757.475125 273.989396 
L 766.204125 273.989369 
L 774.933125 273.98913 
L 783.662125 273.98913 
L 792.391125 273.989661 
L 801.120125 273.989316 
L 809.849125 273.989422 
L 818.578125 273.989422 
L 827.307125 273.989502 
L 836.036125 273.989342 
L 844.765125 273.989289 
L 853.494125 273.989422 
L 862.223125 273.989502 
L 870.952125 273.988758 
L 879.681125 273.989316 
L 888.410125 273.989555 
L 897.139125 273.989688 
L 905.868125 273.989422 
L 914.597125 273.989422 
L 923.326125 273.988917 
L 932.055125 273.989502 
L 940.784125 273.989475 
L 949.513125 273.988067 
" clip-path="url(#pefa38454a3)" style="fill: none; stroke: #434348; stroke-linecap: square"/>
   </g>
   <g id="line2d_8">
    <path d="M 76.613125 99.542979 
L 85.342125 213.596555 
L 94.071125 257.952575 
L 102.800125 270.235883 
L 111.529125 272.652409 
L 120.258125 273.289343 
L 128.987125 273.443061 
L 137.716125 273.505596 
L 146.445125 273.532146 
L 155.174125 273.633217 
L 163.903125 273.693625 
L 172.632125 273.722381 
L 181.361125 273.776491 
L 190.090125 273.798417 
L 198.819125 273.813379 
L 207.548125 273.829166 
L 216.277125 273.832833 
L 225.006125 273.857656 
L 233.735125 273.90645 
L 242.464125 273.910384 
L 251.193125 273.920057 
L 259.922125 273.929705 
L 268.651125 273.938369 
L 277.380125 273.944029 
L 286.109125 273.941531 
L 294.838125 273.955803 
L 303.567125 273.950355 
L 312.296125 273.943259 
L 321.025125 273.952428 
L 329.754125 273.950062 
L 338.483125 273.969915 
L 347.212125 273.968055 
L 355.941125 273.969011 
L 364.670125 273.961517 
L 373.399125 273.966513 
L 382.128125 273.969118 
L 390.857125 273.969463 
L 399.586125 273.974008 
L 408.315125 273.972519 
L 417.044125 273.969357 
L 425.773125 273.971164 
L 434.502125 273.975523 
L 443.231125 273.972254 
L 451.960125 273.971961 
L 460.689125 273.961278 
L 469.418125 273.95955 
L 478.147125 273.973636 
L 486.876125 273.976293 
L 495.605125 273.97523 
L 504.334125 273.974672 
L 513.063125 273.97244 
L 521.792125 273.955936 
L 530.521125 273.958673 
L 539.250125 273.979642 
L 547.979125 273.978951 
L 556.708125 273.97523 
L 565.437125 273.968772 
L 574.166125 273.965902 
L 582.895125 273.964414 
L 591.624125 273.971935 
L 600.353125 273.967045 
L 609.082125 273.959842 
L 617.811125 273.925824 
L 626.540125 273.945916 
L 635.269125 273.972679 
L 643.998125 273.967842 
L 652.727125 273.944694 
L 661.456125 273.909506 
L 670.185125 273.862599 
L 678.914125 273.847131 
L 687.643125 273.964547 
L 696.372125 273.980891 
L 705.101125 273.987216 
L 713.830125 273.988279 
L 722.559125 273.989024 
L 731.288125 273.989263 
L 740.017125 273.989396 
L 748.746125 273.989396 
L 757.475125 273.98897 
L 766.204125 273.98921 
L 774.933125 273.988519 
L 783.662125 273.989024 
L 792.391125 273.989475 
L 801.120125 273.988917 
L 809.849125 273.989289 
L 818.578125 273.989236 
L 827.307125 273.989236 
L 836.036125 273.989289 
L 844.765125 273.989449 
L 853.494125 273.989263 
L 862.223125 273.989156 
L 870.952125 273.988492 
L 879.681125 273.989369 
L 888.410125 273.989342 
L 897.139125 273.989528 
L 905.868125 273.989236 
L 914.597125 273.989103 
L 923.326125 273.98897 
L 932.055125 273.989316 
L 940.784125 273.988837 
L 949.513125 273.983894 
" clip-path="url(#pefa38454a3)" style="fill: none; stroke: #90ed7d; stroke-linecap: square"/>
   </g>
   <g id="line2d_9">
    <path d="M 76.613125 151.887776 
L 85.342125 231.241337 
L 94.071125 262.650883 
L 102.800125 271.319569 
L 111.529125 273.016907 
L 120.258125 273.467166 
L 128.987125 273.583678 
L 137.716125 273.630851 
L 146.445125 273.656657 
L 155.174125 273.71478 
L 163.903125 273.770166 
L 172.632125 273.784809 
L 181.361125 273.835464 
L 190.090125 273.846812 
L 198.819125 273.860792 
L 207.548125 273.875462 
L 216.277125 273.866878 
L 225.006125 273.886518 
L 233.735125 273.933771 
L 242.464125 273.930741 
L 251.193125 273.941505 
L 259.922125 273.946102 
L 268.651125 273.951125 
L 277.380125 273.956069 
L 286.109125 273.958274 
L 294.838125 273.964679 
L 303.567125 273.963058 
L 312.296125 273.963537 
L 321.025125 273.966247 
L 329.754125 273.96646 
L 338.483125 273.978127 
L 347.212125 273.976692 
L 355.941125 273.97818 
L 364.670125 273.976984 
L 373.399125 273.970021 
L 382.128125 273.973689 
L 390.857125 273.977064 
L 399.586125 273.980306 
L 408.315125 273.979323 
L 417.044125 273.982751 
L 425.773125 273.98307 
L 434.502125 273.981662 
L 443.231125 273.98121 
L 451.960125 273.980918 
L 460.689125 273.973981 
L 469.418125 273.974406 
L 478.147125 273.984133 
L 486.876125 273.983682 
L 495.605125 273.982273 
L 504.334125 273.983841 
L 513.063125 273.981183 
L 521.792125 273.972573 
L 530.521125 273.977728 
L 539.250125 273.986339 
L 547.979125 273.98501 
L 556.708125 273.98424 
L 565.437125 273.98129 
L 574.166125 273.979908 
L 582.895125 273.980094 
L 591.624125 273.983283 
L 600.353125 273.981077 
L 609.082125 273.9802 
L 617.811125 273.970978 
L 626.540125 273.9764 
L 635.269125 273.983974 
L 643.998125 273.983283 
L 652.727125 273.976798 
L 661.456125 273.968613 
L 670.185125 273.959098 
L 678.914125 273.962181 
L 687.643125 273.983522 
L 696.372125 273.987137 
L 705.101125 273.98905 
L 713.830125 273.989528 
L 722.559125 273.989422 
L 731.288125 273.989635 
L 740.017125 273.989768 
L 748.746125 273.989635 
L 757.475125 273.989555 
L 766.204125 273.989369 
L 774.933125 273.989316 
L 783.662125 273.989608 
L 792.391125 273.989635 
L 801.120125 273.989528 
L 809.849125 273.989555 
L 818.578125 273.989475 
L 827.307125 273.989582 
L 836.036125 273.989741 
L 844.765125 273.989582 
L 853.494125 273.989661 
L 862.223125 273.989688 
L 870.952125 273.989422 
L 879.681125 273.989821 
L 888.410125 273.989741 
L 897.139125 273.989821 
L 905.868125 273.989794 
L 914.597125 273.989874 
L 923.326125 273.989475 
L 932.055125 273.989821 
L 940.784125 273.989794 
L 949.513125 273.989555 
" clip-path="url(#pefa38454a3)" style="fill: none; stroke: #f7a35c; stroke-linecap: square"/>
   </g>
   <g id="line2d_10">
    <path d="M 76.613125 43.030819 
L 85.342125 193.644025 
L 94.071125 252.321589 
L 102.800125 268.798677 
L 111.529125 272.017309 
L 120.258125 272.879027 
L 128.987125 273.102084 
L 137.716125 273.200683 
L 146.445125 273.237173 
L 155.174125 273.381909 
L 163.903125 273.496826 
L 172.632125 273.550723 
L 181.361125 273.638824 
L 190.090125 273.666225 
L 198.819125 273.713026 
L 207.548125 273.711378 
L 216.277125 273.726261 
L 225.006125 273.756426 
L 233.735125 273.861297 
L 242.464125 273.86422 
L 251.193125 273.876153 
L 259.922125 273.893879 
L 268.651125 273.904324 
L 277.380125 273.909852 
L 286.109125 273.913068 
L 294.838125 273.929891 
L 303.567125 273.934621 
L 312.296125 273.935658 
L 321.025125 273.940388 
L 329.754125 273.940335 
L 338.483125 273.961676 
L 347.212125 273.961836 
L 355.941125 273.966327 
L 364.670125 273.961756 
L 373.399125 273.968852 
L 382.128125 273.968001 
L 390.857125 273.968188 
L 399.586125 273.97135 
L 408.315125 273.969862 
L 417.044125 273.973104 
L 425.773125 273.97321 
L 434.502125 273.972201 
L 443.231125 273.970686 
L 451.960125 273.973051 
L 460.689125 273.963483 
L 469.418125 273.966115 
L 478.147125 273.978233 
L 486.876125 273.977303 
L 495.605125 273.977596 
L 504.334125 273.976612 
L 513.063125 273.975868 
L 521.792125 273.964068 
L 530.521125 273.96832 
L 539.250125 273.982539 
L 547.979125 273.981237 
L 556.708125 273.978871 
L 565.437125 273.975788 
L 574.166125 273.973131 
L 582.895125 273.972201 
L 591.624125 273.975974 
L 600.353125 273.973875 
L 609.082125 273.972785 
L 617.811125 273.955856 
L 626.540125 273.96242 
L 635.269125 273.978047 
L 643.998125 273.976081 
L 652.727125 273.966513 
L 661.456125 273.949504 
L 670.185125 273.929705 
L 678.914125 273.920881 
L 687.643125 273.969729 
L 696.372125 273.982805 
L 705.101125 273.986844 
L 713.830125 273.988253 
L 722.559125 273.988917 
L 731.288125 273.989236 
L 740.017125 273.98913 
L 748.746125 273.989449 
L 757.475125 273.989316 
L 766.204125 273.989103 
L 774.933125 273.98905 
L 783.662125 273.989183 
L 792.391125 273.989555 
L 801.120125 273.988891 
L 809.849125 273.98913 
L 818.578125 273.988997 
L 827.307125 273.989263 
L 836.036125 273.989289 
L 844.765125 273.989156 
L 853.494125 273.989263 
L 862.223125 273.989475 
L 870.952125 273.988519 
L 879.681125 273.989183 
L 888.410125 273.989608 
L 897.139125 273.989555 
L 905.868125 273.989449 
L 914.597125 273.989236 
L 923.326125 273.9882 
L 932.055125 273.989396 
L 940.784125 273.989582 
L 949.513125 273.989077 
" clip-path="url(#pefa38454a3)" style="fill: none; stroke: #8085e9; stroke-linecap: square"/>
   </g>
   <g id="line2d_11">
    <path d="M 76.613125 98.933845 
L 85.342125 213.574736 
L 94.071125 258.126678 
L 102.800125 270.339931 
L 111.529125 272.778515 
L 120.258125 273.39913 
L 128.987125 273.527043 
L 137.716125 273.604647 
L 146.445125 273.629044 
L 155.174125 273.688363 
L 163.903125 273.75018 
L 172.632125 273.77192 
L 181.361125 273.826295 
L 190.090125 273.834295 
L 198.819125 273.86531 
L 207.548125 273.873362 
L 216.277125 273.876153 
L 225.006125 273.89279 
L 233.735125 273.931857 
L 242.464125 273.93199 
L 251.193125 273.939139 
L 259.922125 273.944641 
L 268.651125 273.951019 
L 277.380125 273.954926 
L 286.109125 273.957185 
L 294.838125 273.961995 
L 303.567125 273.960587 
L 312.296125 273.958859 
L 321.025125 273.964706 
L 329.754125 273.963909 
L 338.483125 273.976586 
L 347.212125 273.973875 
L 355.941125 273.977356 
L 364.670125 273.973476 
L 373.399125 273.974778 
L 382.128125 273.976134 
L 390.857125 273.976134 
L 399.586125 273.979057 
L 408.315125 273.977755 
L 417.044125 273.976134 
L 425.773125 273.979695 
L 434.502125 273.977091 
L 443.231125 273.977596 
L 451.960125 273.976825 
L 460.689125 273.970526 
L 469.418125 273.973397 
L 478.147125 273.980253 
L 486.876125 273.981263 
L 495.605125 273.979323 
L 504.334125 273.981423 
L 513.063125 273.978552 
L 521.792125 273.969702 
L 530.521125 273.973583 
L 539.250125 273.984001 
L 547.979125 273.983894 
L 556.708125 273.982406 
L 565.437125 273.978154 
L 574.166125 273.97733 
L 582.895125 273.976107 
L 591.624125 273.980253 
L 600.353125 273.97717 
L 609.082125 273.977782 
L 617.811125 273.964307 
L 626.540125 273.972041 
L 635.269125 273.981369 
L 643.998125 273.980918 
L 652.727125 273.972041 
L 661.456125 273.961729 
L 670.185125 273.944588 
L 678.914125 273.942833 
L 687.643125 273.977622 
L 696.372125 273.985436 
L 705.101125 273.98812 
L 713.830125 273.989024 
L 722.559125 273.989156 
L 731.288125 273.989475 
L 740.017125 273.989156 
L 748.746125 273.989688 
L 757.475125 273.989582 
L 766.204125 273.989077 
L 774.933125 273.98897 
L 783.662125 273.989528 
L 792.391125 273.989661 
L 801.120125 273.989289 
L 809.849125 273.989475 
L 818.578125 273.989236 
L 827.307125 273.989502 
L 836.036125 273.989661 
L 844.765125 273.989289 
L 853.494125 273.989475 
L 862.223125 273.989502 
L 870.952125 273.988917 
L 879.681125 273.989316 
L 888.410125 273.989874 
L 897.139125 273.989688 
L 905.868125 273.989502 
L 914.597125 273.989741 
L 923.326125 273.989103 
L 932.055125 273.989635 
L 940.784125 273.989768 
L 949.513125 273.989183 
" clip-path="url(#pefa38454a3)" style="fill: none; stroke: #f15c80; stroke-linecap: square"/>
   </g>
   <g id="line2d_12">
    <path d="M 76.613125 183.654592 
L 85.342125 242.49398 
L 94.071125 265.483173 
L 102.800125 271.924982 
L 111.529125 273.176525 
L 120.258125 273.502566 
L 128.987125 273.593113 
L 137.716125 273.639223 
L 146.445125 273.666942 
L 155.174125 273.726235 
L 163.903125 273.772079 
L 172.632125 273.797194 
L 181.361125 273.837617 
L 190.090125 273.847477 
L 198.819125 273.865416 
L 207.548125 273.873761 
L 216.277125 273.872406 
L 225.006125 273.885162 
L 233.735125 273.934861 
L 242.464125 273.936296 
L 251.193125 273.942329 
L 259.922125 273.947431 
L 268.651125 273.950966 
L 277.380125 273.954766 
L 286.109125 273.957504 
L 294.838125 273.964626 
L 303.567125 273.964786 
L 312.296125 273.96553 
L 321.025125 273.968719 
L 329.754125 273.966008 
L 338.483125 273.978765 
L 347.212125 273.976905 
L 355.941125 273.979057 
L 364.670125 273.97624 
L 373.399125 273.97919 
L 382.128125 273.980546 
L 390.857125 273.98028 
L 399.586125 273.981981 
L 408.315125 273.981476 
L 417.044125 273.983044 
L 425.773125 273.983044 
L 434.502125 273.983469 
L 443.231125 273.982778 
L 451.960125 273.982911 
L 460.689125 273.979908 
L 469.418125 273.980811 
L 478.147125 273.984373 
L 486.876125 273.984293 
L 495.605125 273.983894 
L 504.334125 273.984638 
L 513.063125 273.98315 
L 521.792125 273.978978 
L 530.521125 273.980227 
L 539.250125 273.986206 
L 547.979125 273.985808 
L 556.708125 273.984824 
L 565.437125 273.983416 
L 574.166125 273.981662 
L 582.895125 273.981848 
L 591.624125 273.98323 
L 600.353125 273.982565 
L 609.082125 273.979217 
L 617.811125 273.971696 
L 626.540125 273.974911 
L 635.269125 273.98222 
L 643.998125 273.981502 
L 652.727125 273.974486 
L 661.456125 273.966992 
L 670.185125 273.959417 
L 678.914125 273.964095 
L 687.643125 273.985143 
L 696.372125 273.988093 
L 705.101125 273.98921 
L 713.830125 273.989635 
L 722.559125 273.989582 
L 731.288125 273.989874 
L 740.017125 273.989688 
L 748.746125 273.989847 
L 757.475125 273.989794 
L 766.204125 273.989927 
L 774.933125 273.989289 
L 783.662125 273.989661 
L 792.391125 273.989715 
L 801.120125 273.989449 
L 809.849125 273.989927 
L 818.578125 273.989715 
L 827.307125 273.989661 
L 836.036125 273.989715 
L 844.765125 273.989688 
L 853.494125 273.989794 
L 862.223125 273.989502 
L 870.952125 273.989661 
L 879.681125 273.989688 
L 888.410125 273.989715 
L 897.139125 273.989954 
L 905.868125 273.989847 
L 914.597125 273.989874 
L 923.326125 273.989528 
L 932.055125 273.989901 
L 940.784125 273.989821 
L 949.513125 273.989263 
" clip-path="url(#pefa38454a3)" style="fill: none; stroke: #e4d354; stroke-linecap: square"/>
   </g>
   <g id="line2d_13">
    <path d="M 76.613125 53.182582 
L 85.342125 196.984751 
L 94.071125 253.108707 
L 102.800125 268.866553 
L 111.529125 271.971863 
L 120.258125 272.793876 
L 128.987125 273.026421 
L 137.716125 273.137165 
L 146.445125 273.172725 
L 155.174125 273.332716 
L 163.903125 273.454064 
L 172.632125 273.498447 
L 181.361125 273.608314 
L 190.090125 273.633509 
L 198.819125 273.676988 
L 207.548125 273.694502 
L 216.277125 273.706568 
L 225.006125 273.749808 
L 233.735125 273.836873 
L 242.464125 273.848194 
L 251.193125 273.866851 
L 259.922125 273.881628 
L 268.651125 273.895049 
L 277.380125 273.903819 
L 286.109125 273.909134 
L 294.838125 273.927552 
L 303.567125 273.929333 
L 312.296125 273.925612 
L 321.025125 273.938767 
L 329.754125 273.935551 
L 338.483125 273.962474 
L 347.212125 273.960746 
L 355.941125 273.965503 
L 364.670125 273.961171 
L 373.399125 273.96452 
L 382.128125 273.962846 
L 390.857125 273.967629 
L 399.586125 273.962766 
L 408.315125 273.967124 
L 417.044125 273.972094 
L 425.773125 273.972732 
L 434.502125 273.972387 
L 443.231125 273.969756 
L 451.960125 273.970739 
L 460.689125 273.957982 
L 469.418125 273.963616 
L 478.147125 273.97725 
L 486.876125 273.977489 
L 495.605125 273.976798 
L 504.334125 273.976692 
L 513.063125 273.976347 
L 521.792125 273.961251 
L 530.521125 273.969357 
L 539.250125 273.982433 
L 547.979125 273.981556 
L 556.708125 273.97834 
L 565.437125 273.974353 
L 574.166125 273.972227 
L 582.895125 273.972971 
L 591.624125 273.977994 
L 600.353125 273.97422 
L 609.082125 273.972599 
L 617.811125 273.959205 
L 626.540125 273.96444 
L 635.269125 273.979642 
L 643.998125 273.97733 
L 652.727125 273.969516 
L 661.456125 273.950514 
L 670.185125 273.927871 
L 678.914125 273.918224 
L 687.643125 273.968108 
L 696.372125 273.982778 
L 705.101125 273.986844 
L 713.830125 273.987907 
L 722.559125 273.988917 
L 731.288125 273.989396 
L 740.017125 273.989502 
L 748.746125 273.989449 
L 757.475125 273.989449 
L 766.204125 273.989369 
L 774.933125 273.988651 
L 783.662125 273.989422 
L 792.391125 273.989396 
L 801.120125 273.989289 
L 809.849125 273.989236 
L 818.578125 273.988944 
L 827.307125 273.98921 
L 836.036125 273.98921 
L 844.765125 273.989528 
L 853.494125 273.989156 
L 862.223125 273.989449 
L 870.952125 273.988519 
L 879.681125 273.989396 
L 888.410125 273.989555 
L 897.139125 273.989661 
L 905.868125 273.989342 
L 914.597125 273.989369 
L 923.326125 273.988651 
L 932.055125 273.989236 
L 940.784125 273.989608 
L 949.513125 273.988625 
" clip-path="url(#pefa38454a3)" style="fill: none; stroke: #2b908f; stroke-linecap: square"/>
   </g>
   <g id="line2d_14">
    <path d="M 76.613125 141.650915 
L 85.342125 228.296655 
L 94.071125 261.849654 
L 102.800125 271.185862 
L 111.529125 273.007791 
L 120.258125 273.48864 
L 128.987125 273.616473 
L 137.716125 273.654159 
L 146.445125 273.665109 
L 155.174125 273.737849 
L 163.903125 273.779547 
L 172.632125 273.808489 
L 181.361125 273.848301 
L 190.090125 273.858852 
L 198.819125 273.877083 
L 207.548125 273.879076 
L 216.277125 273.875356 
L 225.006125 273.893135 
L 233.735125 273.941691 
L 242.464125 273.939697 
L 251.193125 273.944056 
L 259.922125 273.953305 
L 268.651125 273.955617 
L 277.380125 273.956919 
L 286.109125 273.95955 
L 294.838125 273.965796 
L 303.567125 273.967204 
L 312.296125 273.966593 
L 321.025125 273.965211 
L 329.754125 273.966433 
L 338.483125 273.976612 
L 347.212125 273.977675 
L 355.941125 273.978287 
L 364.670125 273.973051 
L 373.399125 273.978685 
L 382.128125 273.977117 
L 390.857125 273.979164 
L 399.586125 273.981104 
L 408.315125 273.975204 
L 417.044125 273.979908 
L 425.773125 273.979669 
L 434.502125 273.981688 
L 443.231125 273.980492 
L 451.960125 273.980865 
L 460.689125 273.973184 
L 469.418125 273.978233 
L 478.147125 273.985595 
L 486.876125 273.985675 
L 495.605125 273.98501 
L 504.334125 273.985143 
L 513.063125 273.984984 
L 521.792125 273.975204 
L 530.521125 273.981821 
L 539.250125 273.987562 
L 547.979125 273.986951 
L 556.708125 273.985489 
L 565.437125 273.982911 
L 574.166125 273.983549 
L 582.895125 273.983841 
L 591.624125 273.986366 
L 600.353125 273.984771 
L 609.082125 273.985329 
L 617.811125 273.97834 
L 626.540125 273.983788 
L 635.269125 273.98796 
L 643.998125 273.987296 
L 652.727125 273.985356 
L 661.456125 273.980865 
L 670.185125 273.97345 
L 678.914125 273.970925 
L 687.643125 273.983442 
L 696.372125 273.987455 
L 705.101125 273.988997 
L 713.830125 273.989183 
L 722.559125 273.989396 
L 731.288125 273.989741 
L 740.017125 273.989635 
L 748.746125 273.989635 
L 757.475125 273.989821 
L 766.204125 273.989635 
L 774.933125 273.98921 
L 783.662125 273.989475 
L 792.391125 273.989635 
L 801.120125 273.989555 
L 809.849125 273.989688 
L 818.578125 273.989449 
L 827.307125 273.989768 
L 836.036125 273.989608 
L 844.765125 273.989661 
L 853.494125 273.989715 
L 862.223125 273.989635 
L 870.952125 273.989236 
L 879.681125 273.989715 
L 888.410125 273.989741 
L 897.139125 273.989794 
L 905.868125 273.98998 
L 914.597125 273.989635 
L 923.326125 273.989342 
L 932.055125 273.989821 
L 940.784125 273.989874 
L 949.513125 273.989661 
" clip-path="url(#pefa38454a3)" style="fill: none; stroke: #f45b5b; stroke-linecap: square"/>
   </g>
   <g id="line2d_15">
    <path d="M 76.613125 149.716313 
L 85.342125 230.125361 
L 94.071125 262.473086 
L 102.800125 271.314014 
L 111.529125 273.014807 
L 120.258125 273.458024 
L 128.987125 273.570177 
L 137.716125 273.630851 
L 146.445125 273.657162 
L 155.174125 273.707897 
L 163.903125 273.764292 
L 172.632125 273.782896 
L 181.361125 273.831079 
L 190.090125 273.836846 
L 198.819125 273.858347 
L 207.548125 273.857257 
L 216.277125 273.878757 
L 225.006125 273.891567 
L 233.735125 273.935259 
L 242.464125 273.931724 
L 251.193125 273.93898 
L 259.922125 273.944853 
L 268.651125 273.952056 
L 277.380125 273.955112 
L 286.109125 273.955856 
L 294.838125 273.964174 
L 303.567125 273.962872 
L 312.296125 273.962633 
L 321.025125 273.965955 
L 329.754125 273.964759 
L 338.483125 273.977702 
L 347.212125 273.977064 
L 355.941125 273.978233 
L 364.670125 273.975257 
L 373.399125 273.976825 
L 382.128125 273.97624 
L 390.857125 273.975682 
L 399.586125 273.977303 
L 408.315125 273.978101 
L 417.044125 273.977064 
L 425.773125 273.976054 
L 434.502125 273.978473 
L 443.231125 273.977064 
L 451.960125 273.975842 
L 460.689125 273.966115 
L 469.418125 273.970473 
L 478.147125 273.982114 
L 486.876125 273.981928 
L 495.605125 273.980838 
L 504.334125 273.981662 
L 513.063125 273.977463 
L 521.792125 273.967815 
L 530.521125 273.974114 
L 539.250125 273.984745 
L 547.979125 273.983628 
L 556.708125 273.981874 
L 565.437125 273.978606 
L 574.166125 273.976267 
L 582.895125 273.977941 
L 591.624125 273.979801 
L 600.353125 273.97834 
L 609.082125 273.972573 
L 617.811125 273.962474 
L 626.540125 273.968958 
L 635.269125 273.978047 
L 643.998125 273.978366 
L 652.727125 273.967762 
L 661.456125 273.958381 
L 670.185125 273.946076 
L 678.914125 273.954049 
L 687.643125 273.980466 
L 696.372125 273.987376 
L 705.101125 273.988651 
L 713.830125 273.98913 
L 722.559125 273.98913 
L 731.288125 273.989661 
L 740.017125 273.989582 
L 748.746125 273.989555 
L 757.475125 273.989342 
L 766.204125 273.989741 
L 774.933125 273.98913 
L 783.662125 273.989555 
L 792.391125 273.989821 
L 801.120125 273.989396 
L 809.849125 273.989608 
L 818.578125 273.989236 
L 827.307125 273.989635 
L 836.036125 273.989661 
L 844.765125 273.989582 
L 853.494125 273.989741 
L 862.223125 273.989555 
L 870.952125 273.989342 
L 879.681125 273.989847 
L 888.410125 273.989821 
L 897.139125 273.989821 
L 905.868125 273.989661 
L 914.597125 273.989688 
L 923.326125 273.989369 
L 932.055125 273.989768 
L 940.784125 273.989582 
L 949.513125 273.98913 
" clip-path="url(#pefa38454a3)" style="fill: none; stroke: #91e8e1; stroke-linecap: square"/>
   </g>
   <g id="line2d_16">
    <path d="M 76.613125 91.658249 
L 85.342125 210.580329 
L 94.071125 256.683864 
L 102.800125 269.764681 
L 111.529125 272.308243 
L 120.258125 272.98039 
L 128.987125 273.154015 
L 137.716125 273.270234 
L 146.445125 273.333646 
L 155.174125 273.428046 
L 163.903125 273.539774 
L 172.632125 273.570815 
L 181.361125 273.671832 
L 190.090125 273.691579 
L 198.819125 273.732028 
L 207.548125 273.743376 
L 216.277125 273.757249 
L 225.006125 273.788291 
L 233.735125 273.867383 
L 242.464125 273.872406 
L 251.193125 273.892232 
L 259.922125 273.898823 
L 268.651125 273.911287 
L 277.380125 273.919552 
L 286.109125 273.926994 
L 294.838125 273.938315 
L 303.567125 273.940761 
L 312.296125 273.941319 
L 321.025125 273.945863 
L 329.754125 273.947059 
L 338.483125 273.96638 
L 347.212125 273.965424 
L 355.941125 273.969516 
L 364.670125 273.967151 
L 373.399125 273.969011 
L 382.128125 273.967124 
L 390.857125 273.969304 
L 399.586125 273.96941 
L 408.315125 273.971058 
L 417.044125 273.972652 
L 425.773125 273.971377 
L 434.502125 273.972759 
L 443.231125 273.972466 
L 451.960125 273.971616 
L 460.689125 273.961384 
L 469.418125 273.965822 
L 478.147125 273.977782 
L 486.876125 273.977808 
L 495.605125 273.977064 
L 504.334125 273.977888 
L 513.063125 273.97624 
L 521.792125 273.962819 
L 530.521125 273.968958 
L 539.250125 273.981954 
L 547.979125 273.981476 
L 556.708125 273.979536 
L 565.437125 273.974991 
L 574.166125 273.973689 
L 582.895125 273.972519 
L 591.624125 273.977489 
L 600.353125 273.973928 
L 609.082125 273.973689 
L 617.811125 273.955165 
L 626.540125 273.960108 
L 635.269125 273.979376 
L 643.998125 273.976851 
L 652.727125 273.969091 
L 661.456125 273.951843 
L 670.185125 273.931538 
L 678.914125 273.923379 
L 687.643125 273.968932 
L 696.372125 273.981582 
L 705.101125 273.986897 
L 713.830125 273.988412 
L 722.559125 273.98913 
L 731.288125 273.989236 
L 740.017125 273.989528 
L 748.746125 273.989555 
L 757.475125 273.989475 
L 766.204125 273.989369 
L 774.933125 273.98913 
L 783.662125 273.989715 
L 792.391125 273.989369 
L 801.120125 273.989289 
L 809.849125 273.989342 
L 818.578125 273.989024 
L 827.307125 273.989342 
L 836.036125 273.989422 
L 844.765125 273.989475 
L 853.494125 273.989369 
L 862.223125 273.989502 
L 870.952125 273.988864 
L 879.681125 273.989422 
L 888.410125 273.989661 
L 897.139125 273.989449 
L 905.868125 273.989502 
L 914.597125 273.989528 
L 923.326125 273.98921 
L 932.055125 273.989715 
L 940.784125 273.989555 
L 949.513125 273.989077 
" clip-path="url(#pefa38454a3)" style="fill: none; stroke: #7cb5ec; stroke-linecap: square"/>
   </g>
   <g id="line2d_17">
    <path d="M 76.613125 114.968672 
L 85.342125 218.508645 
L 94.071125 259.233166 
L 102.800125 270.523016 
L 111.529125 272.712313 
L 120.258125 273.303003 
L 128.987125 273.434291 
L 137.716125 273.514818 
L 146.445125 273.546551 
L 155.174125 273.619184 
L 163.903125 273.696283 
L 172.632125 273.712999 
L 181.361125 273.790816 
L 190.090125 273.801925 
L 198.819125 273.833657 
L 207.548125 273.849523 
L 216.277125 273.844474 
L 225.006125 273.869323 
L 233.735125 273.917665 
L 242.464125 273.91942 
L 251.193125 273.928509 
L 259.922125 273.936163 
L 268.651125 273.943524 
L 277.380125 273.946953 
L 286.109125 273.950355 
L 294.838125 273.957424 
L 303.567125 273.960773 
L 312.296125 273.956839 
L 321.025125 273.963032 
L 329.754125 273.96242 
L 338.483125 273.974805 
L 347.212125 273.975283 
L 355.941125 273.97725 
L 364.670125 273.974991 
L 373.399125 273.972865 
L 382.128125 273.975788 
L 390.857125 273.976214 
L 399.586125 273.976851 
L 408.315125 273.979323 
L 417.044125 273.979429 
L 425.773125 273.977782 
L 434.502125 273.979243 
L 443.231125 273.978951 
L 451.960125 273.977728 
L 460.689125 273.971908 
L 469.418125 273.973636 
L 478.147125 273.981848 
L 486.876125 273.981423 
L 495.605125 273.981742 
L 504.334125 273.981901 
L 513.063125 273.980492 
L 521.792125 273.971137 
L 530.521125 273.97446 
L 539.250125 273.984426 
L 547.979125 273.984054 
L 556.708125 273.982858 
L 565.437125 273.979855 
L 574.166125 273.976905 
L 582.895125 273.977037 
L 591.624125 273.981423 
L 600.353125 273.978499 
L 609.082125 273.977835 
L 617.811125 273.966566 
L 626.540125 273.969968 
L 635.269125 273.983496 
L 643.998125 273.980944 
L 652.727125 273.974619 
L 661.456125 273.962527 
L 670.185125 273.946501 
L 678.914125 273.941026 
L 687.643125 273.979217 
L 696.372125 273.985781 
L 705.101125 273.988492 
L 713.830125 273.988864 
L 722.559125 273.98905 
L 731.288125 273.98913 
L 740.017125 273.989342 
L 748.746125 273.989289 
L 757.475125 273.989342 
L 766.204125 273.989183 
L 774.933125 273.989342 
L 783.662125 273.989422 
L 792.391125 273.989555 
L 801.120125 273.989528 
L 809.849125 273.989263 
L 818.578125 273.989077 
L 827.307125 273.989741 
L 836.036125 273.989396 
L 844.765125 273.989555 
L 853.494125 273.989396 
L 862.223125 273.989688 
L 870.952125 273.989156 
L 879.681125 273.989449 
L 888.410125 273.989688 
L 897.139125 273.989821 
L 905.868125 273.989741 
L 914.597125 273.989396 
L 923.326125 273.989449 
L 932.055125 273.989608 
L 940.784125 273.989661 
L 949.513125 273.988997 
" clip-path="url(#pefa38454a3)" style="fill: none; stroke: #434348; stroke-linecap: square"/>
   </g>
   <g id="line2d_18">
    <path d="M 32.968125 273.99006 
L 993.158125 273.99006 
" clip-path="url(#pefa38454a3)" style="fill: none; stroke: #dedede; stroke-width: 2; stroke-linecap: square"/>
   </g>
   <g id="text_15">
    <!-- Cutadapt: Lengths of Trimmed Sequences (3' end) -->
    <g transform="translate(311.710625 19.3575)scale(0.16 -0.16)">
     <defs>
      <path id="DejaVuSans-61" d="M 2194 1759 
Q 1497 1759 1228 1600 
Q 959 1441 959 1056 
Q 959 750 1161 570 
Q 1363 391 1709 391 
Q 2188 391 2477 730 
Q 2766 1069 2766 1631 
L 2766 1759 
L 2194 1759 
z
M 3341 1997 
L 3341 0 
L 2766 0 
L 2766 531 
Q 2569 213 2275 61 
Q 1981 -91 1556 -91 
Q 1019 -91 701 211 
Q 384 513 384 1019 
Q 384 1609 779 1909 
Q 1175 2209 1959 2209 
L 2766 2209 
L 2766 2266 
Q 2766 2663 2505 2880 
Q 2244 3097 1772 3097 
Q 1472 3097 1187 3025 
Q 903 2953 641 2809 
L 641 3341 
Q 956 3463 1253 3523 
Q 1550 3584 1831 3584 
Q 2591 3584 2966 3190 
Q 3341 2797 3341 1997 
z
" transform="scale(0.015625)"/>
      <path id="DejaVuSans-3a" d="M 750 794 
L 1409 794 
L 1409 0 
L 750 0 
L 750 794 
z
M 750 3309 
L 1409 3309 
L 1409 2516 
L 750 2516 
L 750 3309 
z
" transform="scale(0.015625)"/>
      <path id="DejaVuSans-73" d="M 2834 3397 
L 2834 2853 
Q 2591 2978 2328 3040 
Q 2066 3103 1784 3103 
Q 1356 3103 1142 2972 
Q 928 2841 928 2578 
Q 928 2378 1081 2264 
Q 1234 2150 1697 2047 
L 1894 2003 
Q 2506 1872 2764 1633 
Q 3022 1394 3022 966 
Q 3022 478 2636 193 
Q 2250 -91 1575 -91 
Q 1294 -91 989 -36 
Q 684 19 347 128 
L 347 722 
Q 666 556 975 473 
Q 1284 391 1588 391 
Q 1994 391 2212 530 
Q 2431 669 2431 922 
Q 2431 1156 2273 1281 
Q 2116 1406 1581 1522 
L 1381 1569 
Q 847 1681 609 1914 
Q 372 2147 372 2553 
Q 372 3047 722 3315 
Q 1072 3584 1716 3584 
Q 2034 3584 2315 3537 
Q 2597 3491 2834 3397 
z
" transform="scale(0.015625)"/>
      <path id="DejaVuSans-66" d="M 2375 4863 
L 2375 4384 
L 1825 4384 
Q 1516 4384 1395 4259 
Q 1275 4134 1275 3809 
L 1275 3500 
L 2222 3500 
L 2222 3053 
L 1275 3053 
L 1275 0 
L 697 0 
L 697 3053 
L 147 3053 
L 147 3500 
L 697 3500 
L 697 3744 
Q 697 4328 969 4595 
Q 1241 4863 1831 4863 
L 2375 4863 
z
" transform="scale(0.015625)"/>
      <path id="DejaVuSans-53" d="M 3425 4513 
L 3425 3897 
Q 3066 4069 2747 4153 
Q 2428 4238 2131 4238 
Q 1616 4238 1336 4038 
Q 1056 3838 1056 3469 
Q 1056 3159 1242 3001 
Q 1428 2844 1947 2747 
L 2328 2669 
Q 3034 2534 3370 2195 
Q 3706 1856 3706 1288 
Q 3706 609 3251 259 
Q 2797 -91 1919 -91 
Q 1588 -91 1214 -16 
Q 841 59 441 206 
L 441 856 
Q 825 641 1194 531 
Q 1563 422 1919 422 
Q 2459 422 2753 634 
Q 3047 847 3047 1241 
Q 3047 1584 2836 1778 
Q 2625 1972 2144 2069 
L 1759 2144 
Q 1053 2284 737 2584 
Q 422 2884 422 3419 
Q 422 4038 858 4394 
Q 1294 4750 2059 4750 
Q 2388 4750 2728 4690 
Q 3069 4631 3425 4513 
z
" transform="scale(0.015625)"/>
      <path id="DejaVuSans-71" d="M 947 1747 
Q 947 1113 1208 752 
Q 1469 391 1925 391 
Q 2381 391 2643 752 
Q 2906 1113 2906 1747 
Q 2906 2381 2643 2742 
Q 2381 3103 1925 3103 
Q 1469 3103 1208 2742 
Q 947 2381 947 1747 
z
M 2906 525 
Q 2725 213 2448 61 
Q 2172 -91 1784 -91 
Q 1150 -91 751 415 
Q 353 922 353 1747 
Q 353 2572 751 3078 
Q 1150 3584 1784 3584 
Q 2172 3584 2448 3432 
Q 2725 3281 2906 2969 
L 2906 3500 
L 3481 3500 
L 3481 -1331 
L 2906 -1331 
L 2906 525 
z
" transform="scale(0.015625)"/>
      <path id="DejaVuSans-63" d="M 3122 3366 
L 3122 2828 
Q 2878 2963 2633 3030 
Q 2388 3097 2138 3097 
Q 1578 3097 1268 2742 
Q 959 2388 959 1747 
Q 959 1106 1268 751 
Q 1578 397 2138 397 
Q 2388 397 2633 464 
Q 2878 531 3122 666 
L 3122 134 
Q 2881 22 2623 -34 
Q 2366 -91 2075 -91 
Q 1284 -91 818 406 
Q 353 903 353 1747 
Q 353 2603 823 3093 
Q 1294 3584 2113 3584 
Q 2378 3584 2631 3529 
Q 2884 3475 3122 3366 
z
" transform="scale(0.015625)"/>
      <path id="DejaVuSans-33" d="M 2597 2516 
Q 3050 2419 3304 2112 
Q 3559 1806 3559 1356 
Q 3559 666 3084 287 
Q 2609 -91 1734 -91 
Q 1441 -91 1130 -33 
Q 819 25 488 141 
L 488 750 
Q 750 597 1062 519 
Q 1375 441 1716 441 
Q 2309 441 2620 675 
Q 2931 909 2931 1356 
Q 2931 1769 2642 2001 
Q 2353 2234 1838 2234 
L 1294 2234 
L 1294 2753 
L 1863 2753 
Q 2328 2753 2575 2939 
Q 2822 3125 2822 3475 
Q 2822 3834 2567 4026 
Q 2313 4219 1838 4219 
Q 1578 4219 1281 4162 
Q 984 4106 628 3988 
L 628 4550 
Q 988 4650 1302 4700 
Q 1616 4750 1894 4750 
Q 2613 4750 3031 4423 
Q 3450 4097 3450 3541 
Q 3450 3153 3228 2886 
Q 3006 2619 2597 2516 
z
" transform="scale(0.015625)"/>
      <path id="DejaVuSans-27" d="M 1147 4666 
L 1147 2931 
L 616 2931 
L 616 4666 
L 1147 4666 
z
" transform="scale(0.015625)"/>
     </defs>
     <use xlink:href="#DejaVuSans-43"/>
     <use xlink:href="#DejaVuSans-75" x="69.824219"/>
     <use xlink:href="#DejaVuSans-74" x="133.203125"/>
     <use xlink:href="#DejaVuSans-61" x="172.412109"/>
     <use xlink:href="#DejaVuSans-64" x="233.691406"/>
     <use xlink:href="#DejaVuSans-61" x="297.167969"/>
     <use xlink:href="#DejaVuSans-70" x="358.447266"/>
     <use xlink:href="#DejaVuSans-74" x="421.923828"/>
     <use xlink:href="#DejaVuSans-3a" x="461.132812"/>
     <use xlink:href="#DejaVuSans-20" x="494.824219"/>
     <use xlink:href="#DejaVuSans-4c" x="526.611328"/>
     <use xlink:href="#DejaVuSans-65" x="580.574219"/>
     <use xlink:href="#DejaVuSans-6e" x="642.097656"/>
     <use xlink:href="#DejaVuSans-67" x="705.476562"/>
     <use xlink:href="#DejaVuSans-74" x="768.953125"/>
     <use xlink:href="#DejaVuSans-68" x="808.162109"/>
     <use xlink:href="#DejaVuSans-73" x="871.541016"/>
     <use xlink:href="#DejaVuSans-20" x="923.640625"/>
     <use xlink:href="#DejaVuSans-6f" x="955.427734"/>
     <use xlink:href="#DejaVuSans-66" x="1016.609375"/>
     <use xlink:href="#DejaVuSans-20" x="1051.814453"/>
     <use xlink:href="#DejaVuSans-54" x="1083.601562"/>
     <use xlink:href="#DejaVuSans-72" x="1129.935547"/>
     <use xlink:href="#DejaVuSans-69" x="1171.048828"/>
     <use xlink:href="#DejaVuSans-6d" x="1198.832031"/>
     <use xlink:href="#DejaVuSans-6d" x="1296.244141"/>
     <use xlink:href="#DejaVuSans-65" x="1393.65625"/>
     <use xlink:href="#DejaVuSans-64" x="1455.179688"/>
     <use xlink:href="#DejaVuSans-20" x="1518.65625"/>
     <use xlink:href="#DejaVuSans-53" x="1550.443359"/>
     <use xlink:href="#DejaVuSans-65" x="1613.919922"/>
     <use xlink:href="#DejaVuSans-71" x="1675.443359"/>
     <use xlink:href="#DejaVuSans-75" x="1738.919922"/>
     <use xlink:href="#DejaVuSans-65" x="1802.298828"/>
     <use xlink:href="#DejaVuSans-6e" x="1863.822266"/>
     <use xlink:href="#DejaVuSans-63" x="1927.201172"/>
     <use xlink:href="#DejaVuSans-65" x="1982.181641"/>
     <use xlink:href="#DejaVuSans-73" x="2043.705078"/>
     <use xlink:href="#DejaVuSans-20" x="2095.804688"/>
     <use xlink:href="#DejaVuSans-28" x="2127.591797"/>
     <use xlink:href="#DejaVuSans-33" x="2166.605469"/>
     <use xlink:href="#DejaVuSans-27" x="2230.228516"/>
     <use xlink:href="#DejaVuSans-20" x="2257.71875"/>
     <use xlink:href="#DejaVuSans-65" x="2289.505859"/>
     <use xlink:href="#DejaVuSans-6e" x="2351.029297"/>
     <use xlink:href="#DejaVuSans-64" x="2414.408203"/>
     <use xlink:href="#DejaVuSans-29" x="2477.884766"/>
    </g>
   </g>
   <g id="legend_1">
    <g id="line2d_19">
     <path d="M 40.168125 292.192894 
L 48.168125 292.192894 
L 56.168125 292.192894 
" style="fill: none; stroke: #7cb5ec; stroke-linecap: square"/>
    </g>
    <g id="text_16">
     <!-- SRR2155413 - Adapter 1 -->
     <g transform="translate(62.568125 294.992894)scale(0.08 -0.08)">
      <defs>
       <path id="DejaVuSans-52" d="M 2841 2188 
Q 3044 2119 3236 1894 
Q 3428 1669 3622 1275 
L 4263 0 
L 3584 0 
L 2988 1197 
Q 2756 1666 2539 1819 
Q 2322 1972 1947 1972 
L 1259 1972 
L 1259 0 
L 628 0 
L 628 4666 
L 2053 4666 
Q 2853 4666 3247 4331 
Q 3641 3997 3641 3322 
Q 3641 2881 3436 2590 
Q 3231 2300 2841 2188 
z
M 1259 4147 
L 1259 2491 
L 2053 2491 
Q 2509 2491 2742 2702 
Q 2975 2913 2975 3322 
Q 2975 3731 2742 3939 
Q 2509 4147 2053 4147 
L 1259 4147 
z
" transform="scale(0.015625)"/>
       <path id="DejaVuSans-35" d="M 691 4666 
L 3169 4666 
L 3169 4134 
L 1269 4134 
L 1269 2991 
Q 1406 3038 1543 3061 
Q 1681 3084 1819 3084 
Q 2600 3084 3056 2656 
Q 3513 2228 3513 1497 
Q 3513 744 3044 326 
Q 2575 -91 1722 -91 
Q 1428 -91 1123 -41 
Q 819 9 494 109 
L 494 744 
Q 775 591 1075 516 
Q 1375 441 1709 441 
Q 2250 441 2565 725 
Q 2881 1009 2881 1497 
Q 2881 1984 2565 2268 
Q 2250 2553 1709 2553 
Q 1456 2553 1204 2497 
Q 953 2441 691 2322 
L 691 4666 
z
" transform="scale(0.015625)"/>
       <path id="DejaVuSans-2d" d="M 313 2009 
L 1997 2009 
L 1997 1497 
L 313 1497 
L 313 2009 
z
" transform="scale(0.015625)"/>
       <path id="DejaVuSans-41" d="M 2188 4044 
L 1331 1722 
L 3047 1722 
L 2188 4044 
z
M 1831 4666 
L 2547 4666 
L 4325 0 
L 3669 0 
L 3244 1197 
L 1141 1197 
L 716 0 
L 50 0 
L 1831 4666 
z
" transform="scale(0.015625)"/>
      </defs>
      <use xlink:href="#DejaVuSans-53"/>
      <use xlink:href="#DejaVuSans-52" x="63.476562"/>
      <use xlink:href="#DejaVuSans-52" x="132.958984"/>
      <use xlink:href="#DejaVuSans-32" x="202.441406"/>
      <use xlink:href="#DejaVuSans-31" x="266.064453"/>
      <use xlink:href="#DejaVuSans-35" x="329.6875"/>
      <use xlink:href="#DejaVuSans-35" x="393.310547"/>
      <use xlink:href="#DejaVuSans-34" x="456.933594"/>
      <use xlink:href="#DejaVuSans-31" x="520.556641"/>
      <use xlink:href="#DejaVuSans-33" x="584.179688"/>
      <use xlink:href="#DejaVuSans-20" x="647.802734"/>
      <use xlink:href="#DejaVuSans-2d" x="679.589844"/>
      <use xlink:href="#DejaVuSans-20" x="715.673828"/>
      <use xlink:href="#DejaVuSans-41" x="747.460938"/>
      <use xlink:href="#DejaVuSans-64" x="814.119141"/>
      <use xlink:href="#DejaVuSans-61" x="877.595703"/>
      <use xlink:href="#DejaVuSans-70" x="938.875"/>
      <use xlink:href="#DejaVuSans-74" x="1002.351562"/>
      <use xlink:href="#DejaVuSans-65" x="1041.560547"/>
      <use xlink:href="#DejaVuSans-72" x="1103.083984"/>
      <use xlink:href="#DejaVuSans-20" x="1144.197266"/>
      <use xlink:href="#DejaVuSans-31" x="1175.984375"/>
     </g>
    </g>
    <g id="line2d_20">
     <path d="M 40.168125 303.935394 
L 48.168125 303.935394 
L 56.168125 303.935394 
" style="fill: none; stroke: #434348; stroke-linecap: square"/>
    </g>
    <g id="text_17">
     <!-- SRR2155414 - Adapter 1 -->
     <g transform="translate(62.568125 306.735394)scale(0.08 -0.08)">
      <use xlink:href="#DejaVuSans-53"/>
      <use xlink:href="#DejaVuSans-52" x="63.476562"/>
      <use xlink:href="#DejaVuSans-52" x="132.958984"/>
      <use xlink:href="#DejaVuSans-32" x="202.441406"/>
      <use xlink:href="#DejaVuSans-31" x="266.064453"/>
      <use xlink:href="#DejaVuSans-35" x="329.6875"/>
      <use xlink:href="#DejaVuSans-35" x="393.310547"/>
      <use xlink:href="#DejaVuSans-34" x="456.933594"/>
      <use xlink:href="#DejaVuSans-31" x="520.556641"/>
      <use xlink:href="#DejaVuSans-34" x="584.179688"/>
      <use xlink:href="#DejaVuSans-20" x="647.802734"/>
      <use xlink:href="#DejaVuSans-2d" x="679.589844"/>
      <use xlink:href="#DejaVuSans-20" x="715.673828"/>
      <use xlink:href="#DejaVuSans-41" x="747.460938"/>
      <use xlink:href="#DejaVuSans-64" x="814.119141"/>
      <use xlink:href="#DejaVuSans-61" x="877.595703"/>
      <use xlink:href="#DejaVuSans-70" x="938.875"/>
      <use xlink:href="#DejaVuSans-74" x="1002.351562"/>
      <use xlink:href="#DejaVuSans-65" x="1041.560547"/>
      <use xlink:href="#DejaVuSans-72" x="1103.083984"/>
      <use xlink:href="#DejaVuSans-20" x="1144.197266"/>
      <use xlink:href="#DejaVuSans-31" x="1175.984375"/>
     </g>
    </g>
    <g id="line2d_21">
     <path d="M 40.168125 315.677894 
L 48.168125 315.677894 
L 56.168125 315.677894 
" style="fill: none; stroke: #90ed7d; stroke-linecap: square"/>
    </g>
    <g id="text_18">
     <!-- SRR2155415 - Adapter 1 -->
     <g transform="translate(62.568125 318.477894)scale(0.08 -0.08)">
      <use xlink:href="#DejaVuSans-53"/>
      <use xlink:href="#DejaVuSans-52" x="63.476562"/>
      <use xlink:href="#DejaVuSans-52" x="132.958984"/>
      <use xlink:href="#DejaVuSans-32" x="202.441406"/>
      <use xlink:href="#DejaVuSans-31" x="266.064453"/>
      <use xlink:href="#DejaVuSans-35" x="329.6875"/>
      <use xlink:href="#DejaVuSans-35" x="393.310547"/>
      <use xlink:href="#DejaVuSans-34" x="456.933594"/>
      <use xlink:href="#DejaVuSans-31" x="520.556641"/>
      <use xlink:href="#DejaVuSans-35" x="584.179688"/>
      <use xlink:href="#DejaVuSans-20" x="647.802734"/>
      <use xlink:href="#DejaVuSans-2d" x="679.589844"/>
      <use xlink:href="#DejaVuSans-20" x="715.673828"/>
      <use xlink:href="#DejaVuSans-41" x="747.460938"/>
      <use xlink:href="#DejaVuSans-64" x="814.119141"/>
      <use xlink:href="#DejaVuSans-61" x="877.595703"/>
      <use xlink:href="#DejaVuSans-70" x="938.875"/>
      <use xlink:href="#DejaVuSans-74" x="1002.351562"/>
      <use xlink:href="#DejaVuSans-65" x="1041.560547"/>
      <use xlink:href="#DejaVuSans-72" x="1103.083984"/>
      <use xlink:href="#DejaVuSans-20" x="1144.197266"/>
      <use xlink:href="#DejaVuSans-31" x="1175.984375"/>
     </g>
    </g>
    <g id="line2d_22">
     <path d="M 246.223125 292.192894 
L 254.223125 292.192894 
L 262.223125 292.192894 
" style="fill: none; stroke: #f7a35c; stroke-linecap: square"/>
    </g>
    <g id="text_19">
     <!-- SRR2155416 - Adapter 1 -->
     <g transform="translate(268.623125 294.992894)scale(0.08 -0.08)">
      <use xlink:href="#DejaVuSans-53"/>
      <use xlink:href="#DejaVuSans-52" x="63.476562"/>
      <use xlink:href="#DejaVuSans-52" x="132.958984"/>
      <use xlink:href="#DejaVuSans-32" x="202.441406"/>
      <use xlink:href="#DejaVuSans-31" x="266.064453"/>
      <use xlink:href="#DejaVuSans-35" x="329.6875"/>
      <use xlink:href="#DejaVuSans-35" x="393.310547"/>
      <use xlink:href="#DejaVuSans-34" x="456.933594"/>
      <use xlink:href="#DejaVuSans-31" x="520.556641"/>
      <use xlink:href="#DejaVuSans-36" x="584.179688"/>
      <use xlink:href="#DejaVuSans-20" x="647.802734"/>
      <use xlink:href="#DejaVuSans-2d" x="679.589844"/>
      <use xlink:href="#DejaVuSans-20" x="715.673828"/>
      <use xlink:href="#DejaVuSans-41" x="747.460938"/>
      <use xlink:href="#DejaVuSans-64" x="814.119141"/>
      <use xlink:href="#DejaVuSans-61" x="877.595703"/>
      <use xlink:href="#DejaVuSans-70" x="938.875"/>
      <use xlink:href="#DejaVuSans-74" x="1002.351562"/>
      <use xlink:href="#DejaVuSans-65" x="1041.560547"/>
      <use xlink:href="#DejaVuSans-72" x="1103.083984"/>
      <use xlink:href="#DejaVuSans-20" x="1144.197266"/>
      <use xlink:href="#DejaVuSans-31" x="1175.984375"/>
     </g>
    </g>
    <g id="line2d_23">
     <path d="M 246.223125 303.935394 
L 254.223125 303.935394 
L 262.223125 303.935394 
" style="fill: none; stroke: #8085e9; stroke-linecap: square"/>
    </g>
    <g id="text_20">
     <!-- SRR2155417 - Adapter 1 -->
     <g transform="translate(268.623125 306.735394)scale(0.08 -0.08)">
      <defs>
       <path id="DejaVuSans-37" d="M 525 4666 
L 3525 4666 
L 3525 4397 
L 1831 0 
L 1172 0 
L 2766 4134 
L 525 4134 
L 525 4666 
z
" transform="scale(0.015625)"/>
      </defs>
      <use xlink:href="#DejaVuSans-53"/>
      <use xlink:href="#DejaVuSans-52" x="63.476562"/>
      <use xlink:href="#DejaVuSans-52" x="132.958984"/>
      <use xlink:href="#DejaVuSans-32" x="202.441406"/>
      <use xlink:href="#DejaVuSans-31" x="266.064453"/>
      <use xlink:href="#DejaVuSans-35" x="329.6875"/>
      <use xlink:href="#DejaVuSans-35" x="393.310547"/>
      <use xlink:href="#DejaVuSans-34" x="456.933594"/>
      <use xlink:href="#DejaVuSans-31" x="520.556641"/>
      <use xlink:href="#DejaVuSans-37" x="584.179688"/>
      <use xlink:href="#DejaVuSans-20" x="647.802734"/>
      <use xlink:href="#DejaVuSans-2d" x="679.589844"/>
      <use xlink:href="#DejaVuSans-20" x="715.673828"/>
      <use xlink:href="#DejaVuSans-41" x="747.460938"/>
      <use xlink:href="#DejaVuSans-64" x="814.119141"/>
      <use xlink:href="#DejaVuSans-61" x="877.595703"/>
      <use xlink:href="#DejaVuSans-70" x="938.875"/>
      <use xlink:href="#DejaVuSans-74" x="1002.351562"/>
      <use xlink:href="#DejaVuSans-65" x="1041.560547"/>
      <use xlink:href="#DejaVuSans-72" x="1103.083984"/>
      <use xlink:href="#DejaVuSans-20" x="1144.197266"/>
      <use xlink:href="#DejaVuSans-31" x="1175.984375"/>
     </g>
    </g>
    <g id="line2d_24">
     <path d="M 246.223125 315.677894 
L 254.223125 315.677894 
L 262.223125 315.677894 
" style="fill: none; stroke: #f15c80; stroke-linecap: square"/>
    </g>
    <g id="text_21">
     <!-- SRR2155418 - Adapter 1 -->
     <g transform="translate(268.623125 318.477894)scale(0.08 -0.08)">
      <use xlink:href="#DejaVuSans-53"/>
      <use xlink:href="#DejaVuSans-52" x="63.476562"/>
      <use xlink:href="#DejaVuSans-52" x="132.958984"/>
      <use xlink:href="#DejaVuSans-32" x="202.441406"/>
      <use xlink:href="#DejaVuSans-31" x="266.064453"/>
      <use xlink:href="#DejaVuSans-35" x="329.6875"/>
      <use xlink:href="#DejaVuSans-35" x="393.310547"/>
      <use xlink:href="#DejaVuSans-34" x="456.933594"/>
      <use xlink:href="#DejaVuSans-31" x="520.556641"/>
      <use xlink:href="#DejaVuSans-38" x="584.179688"/>
      <use xlink:href="#DejaVuSans-20" x="647.802734"/>
      <use xlink:href="#DejaVuSans-2d" x="679.589844"/>
      <use xlink:href="#DejaVuSans-20" x="715.673828"/>
      <use xlink:href="#DejaVuSans-41" x="747.460938"/>
      <use xlink:href="#DejaVuSans-64" x="814.119141"/>
      <use xlink:href="#DejaVuSans-61" x="877.595703"/>
      <use xlink:href="#DejaVuSans-70" x="938.875"/>
      <use xlink:href="#DejaVuSans-74" x="1002.351562"/>
      <use xlink:href="#DejaVuSans-65" x="1041.560547"/>
      <use xlink:href="#DejaVuSans-72" x="1103.083984"/>
      <use xlink:href="#DejaVuSans-20" x="1144.197266"/>
      <use xlink:href="#DejaVuSans-31" x="1175.984375"/>
     </g>
    </g>
    <g id="line2d_25">
     <path d="M 452.278125 292.192894 
L 460.278125 292.192894 
L 468.278125 292.192894 
" style="fill: none; stroke: #e4d354; stroke-linecap: square"/>
    </g>
    <g id="text_22">
     <!-- SRR2155419 - Adapter 1 -->
     <g transform="translate(474.678125 294.992894)scale(0.08 -0.08)">
      <defs>
       <path id="DejaVuSans-39" d="M 703 97 
L 703 672 
Q 941 559 1184 500 
Q 1428 441 1663 441 
Q 2288 441 2617 861 
Q 2947 1281 2994 2138 
Q 2813 1869 2534 1725 
Q 2256 1581 1919 1581 
Q 1219 1581 811 2004 
Q 403 2428 403 3163 
Q 403 3881 828 4315 
Q 1253 4750 1959 4750 
Q 2769 4750 3195 4129 
Q 3622 3509 3622 2328 
Q 3622 1225 3098 567 
Q 2575 -91 1691 -91 
Q 1453 -91 1209 -44 
Q 966 3 703 97 
z
M 1959 2075 
Q 2384 2075 2632 2365 
Q 2881 2656 2881 3163 
Q 2881 3666 2632 3958 
Q 2384 4250 1959 4250 
Q 1534 4250 1286 3958 
Q 1038 3666 1038 3163 
Q 1038 2656 1286 2365 
Q 1534 2075 1959 2075 
z
" transform="scale(0.015625)"/>
      </defs>
      <use xlink:href="#DejaVuSans-53"/>
      <use xlink:href="#DejaVuSans-52" x="63.476562"/>
      <use xlink:href="#DejaVuSans-52" x="132.958984"/>
      <use xlink:href="#DejaVuSans-32" x="202.441406"/>
      <use xlink:href="#DejaVuSans-31" x="266.064453"/>
      <use xlink:href="#DejaVuSans-35" x="329.6875"/>
      <use xlink:href="#DejaVuSans-35" x="393.310547"/>
      <use xlink:href="#DejaVuSans-34" x="456.933594"/>
      <use xlink:href="#DejaVuSans-31" x="520.556641"/>
      <use xlink:href="#DejaVuSans-39" x="584.179688"/>
      <use xlink:href="#DejaVuSans-20" x="647.802734"/>
      <use xlink:href="#DejaVuSans-2d" x="679.589844"/>
      <use xlink:href="#DejaVuSans-20" x="715.673828"/>
      <use xlink:href="#DejaVuSans-41" x="747.460938"/>
      <use xlink:href="#DejaVuSans-64" x="814.119141"/>
      <use xlink:href="#DejaVuSans-61" x="877.595703"/>
      <use xlink:href="#DejaVuSans-70" x="938.875"/>
      <use xlink:href="#DejaVuSans-74" x="1002.351562"/>
      <use xlink:href="#DejaVuSans-65" x="1041.560547"/>
      <use xlink:href="#DejaVuSans-72" x="1103.083984"/>
      <use xlink:href="#DejaVuSans-20" x="1144.197266"/>
      <use xlink:href="#DejaVuSans-31" x="1175.984375"/>
     </g>
    </g>
    <g id="line2d_26">
     <path d="M 452.278125 303.935394 
L 460.278125 303.935394 
L 468.278125 303.935394 
" style="fill: none; stroke: #2b908f; stroke-linecap: square"/>
    </g>
    <g id="text_23">
     <!-- SRR2155420 - Adapter 1 -->
     <g transform="translate(474.678125 306.735394)scale(0.08 -0.08)">
      <use xlink:href="#DejaVuSans-53"/>
      <use xlink:href="#DejaVuSans-52" x="63.476562"/>
      <use xlink:href="#DejaVuSans-52" x="132.958984"/>
      <use xlink:href="#DejaVuSans-32" x="202.441406"/>
      <use xlink:href="#DejaVuSans-31" x="266.064453"/>
      <use xlink:href="#DejaVuSans-35" x="329.6875"/>
      <use xlink:href="#DejaVuSans-35" x="393.310547"/>
      <use xlink:href="#DejaVuSans-34" x="456.933594"/>
      <use xlink:href="#DejaVuSans-32" x="520.556641"/>
      <use xlink:href="#DejaVuSans-30" x="584.179688"/>
      <use xlink:href="#DejaVuSans-20" x="647.802734"/>
      <use xlink:href="#DejaVuSans-2d" x="679.589844"/>
      <use xlink:href="#DejaVuSans-20" x="715.673828"/>
      <use xlink:href="#DejaVuSans-41" x="747.460938"/>
      <use xlink:href="#DejaVuSans-64" x="814.119141"/>
      <use xlink:href="#DejaVuSans-61" x="877.595703"/>
      <use xlink:href="#DejaVuSans-70" x="938.875"/>
      <use xlink:href="#DejaVuSans-74" x="1002.351562"/>
      <use xlink:href="#DejaVuSans-65" x="1041.560547"/>
      <use xlink:href="#DejaVuSans-72" x="1103.083984"/>
      <use xlink:href="#DejaVuSans-20" x="1144.197266"/>
      <use xlink:href="#DejaVuSans-31" x="1175.984375"/>
     </g>
    </g>
    <g id="line2d_27">
     <path d="M 658.333125 292.192894 
L 666.333125 292.192894 
L 674.333125 292.192894 
" style="fill: none; stroke: #f45b5b; stroke-linecap: square"/>
    </g>
    <g id="text_24">
     <!-- SRR2155421 - Adapter 1 -->
     <g transform="translate(680.733125 294.992894)scale(0.08 -0.08)">
      <use xlink:href="#DejaVuSans-53"/>
      <use xlink:href="#DejaVuSans-52" x="63.476562"/>
      <use xlink:href="#DejaVuSans-52" x="132.958984"/>
      <use xlink:href="#DejaVuSans-32" x="202.441406"/>
      <use xlink:href="#DejaVuSans-31" x="266.064453"/>
      <use xlink:href="#DejaVuSans-35" x="329.6875"/>
      <use xlink:href="#DejaVuSans-35" x="393.310547"/>
      <use xlink:href="#DejaVuSans-34" x="456.933594"/>
      <use xlink:href="#DejaVuSans-32" x="520.556641"/>
      <use xlink:href="#DejaVuSans-31" x="584.179688"/>
      <use xlink:href="#DejaVuSans-20" x="647.802734"/>
      <use xlink:href="#DejaVuSans-2d" x="679.589844"/>
      <use xlink:href="#DejaVuSans-20" x="715.673828"/>
      <use xlink:href="#DejaVuSans-41" x="747.460938"/>
      <use xlink:href="#DejaVuSans-64" x="814.119141"/>
      <use xlink:href="#DejaVuSans-61" x="877.595703"/>
      <use xlink:href="#DejaVuSans-70" x="938.875"/>
      <use xlink:href="#DejaVuSans-74" x="1002.351562"/>
      <use xlink:href="#DejaVuSans-65" x="1041.560547"/>
      <use xlink:href="#DejaVuSans-72" x="1103.083984"/>
      <use xlink:href="#DejaVuSans-20" x="1144.197266"/>
      <use xlink:href="#DejaVuSans-31" x="1175.984375"/>
     </g>
    </g>
    <g id="line2d_28">
     <path d="M 658.333125 303.935394 
L 666.333125 303.935394 
L 674.333125 303.935394 
" style="fill: none; stroke: #91e8e1; stroke-linecap: square"/>
    </g>
    <g id="text_25">
     <!-- SRR2155422 - Adapter 1 -->
     <g transform="translate(680.733125 306.735394)scale(0.08 -0.08)">
      <use xlink:href="#DejaVuSans-53"/>
      <use xlink:href="#DejaVuSans-52" x="63.476562"/>
      <use xlink:href="#DejaVuSans-52" x="132.958984"/>
      <use xlink:href="#DejaVuSans-32" x="202.441406"/>
      <use xlink:href="#DejaVuSans-31" x="266.064453"/>
      <use xlink:href="#DejaVuSans-35" x="329.6875"/>
      <use xlink:href="#DejaVuSans-35" x="393.310547"/>
      <use xlink:href="#DejaVuSans-34" x="456.933594"/>
      <use xlink:href="#DejaVuSans-32" x="520.556641"/>
      <use xlink:href="#DejaVuSans-32" x="584.179688"/>
      <use xlink:href="#DejaVuSans-20" x="647.802734"/>
      <use xlink:href="#DejaVuSans-2d" x="679.589844"/>
      <use xlink:href="#DejaVuSans-20" x="715.673828"/>
      <use xlink:href="#DejaVuSans-41" x="747.460938"/>
      <use xlink:href="#DejaVuSans-64" x="814.119141"/>
      <use xlink:href="#DejaVuSans-61" x="877.595703"/>
      <use xlink:href="#DejaVuSans-70" x="938.875"/>
      <use xlink:href="#DejaVuSans-74" x="1002.351562"/>
      <use xlink:href="#DejaVuSans-65" x="1041.560547"/>
      <use xlink:href="#DejaVuSans-72" x="1103.083984"/>
      <use xlink:href="#DejaVuSans-20" x="1144.197266"/>
      <use xlink:href="#DejaVuSans-31" x="1175.984375"/>
     </g>
    </g>
    <g id="line2d_29">
     <path d="M 864.388125 292.192894 
L 872.388125 292.192894 
L 880.388125 292.192894 
" style="fill: none; stroke: #7cb5ec; stroke-linecap: square"/>
    </g>
    <g id="text_26">
     <!-- SRR2155423 - Adapter 1 -->
     <g transform="translate(886.788125 294.992894)scale(0.08 -0.08)">
      <use xlink:href="#DejaVuSans-53"/>
      <use xlink:href="#DejaVuSans-52" x="63.476562"/>
      <use xlink:href="#DejaVuSans-52" x="132.958984"/>
      <use xlink:href="#DejaVuSans-32" x="202.441406"/>
      <use xlink:href="#DejaVuSans-31" x="266.064453"/>
      <use xlink:href="#DejaVuSans-35" x="329.6875"/>
      <use xlink:href="#DejaVuSans-35" x="393.310547"/>
      <use xlink:href="#DejaVuSans-34" x="456.933594"/>
      <use xlink:href="#DejaVuSans-32" x="520.556641"/>
      <use xlink:href="#DejaVuSans-33" x="584.179688"/>
      <use xlink:href="#DejaVuSans-20" x="647.802734"/>
      <use xlink:href="#DejaVuSans-2d" x="679.589844"/>
      <use xlink:href="#DejaVuSans-20" x="715.673828"/>
      <use xlink:href="#DejaVuSans-41" x="747.460938"/>
      <use xlink:href="#DejaVuSans-64" x="814.119141"/>
      <use xlink:href="#DejaVuSans-61" x="877.595703"/>
      <use xlink:href="#DejaVuSans-70" x="938.875"/>
      <use xlink:href="#DejaVuSans-74" x="1002.351562"/>
      <use xlink:href="#DejaVuSans-65" x="1041.560547"/>
      <use xlink:href="#DejaVuSans-72" x="1103.083984"/>
      <use xlink:href="#DejaVuSans-20" x="1144.197266"/>
      <use xlink:href="#DejaVuSans-31" x="1175.984375"/>
     </g>
    </g>
    <g id="line2d_30">
     <path d="M 864.388125 303.935394 
L 872.388125 303.935394 
L 880.388125 303.935394 
" style="fill: none; stroke: #434348; stroke-linecap: square"/>
    </g>
    <g id="text_27">
     <!-- SRR2155424 - Adapter 1 -->
     <g transform="translate(886.788125 306.735394)scale(0.08 -0.08)">
      <use xlink:href="#DejaVuSans-53"/>
      <use xlink:href="#DejaVuSans-52" x="63.476562"/>
      <use xlink:href="#DejaVuSans-52" x="132.958984"/>
      <use xlink:href="#DejaVuSans-32" x="202.441406"/>
      <use xlink:href="#DejaVuSans-31" x="266.064453"/>
      <use xlink:href="#DejaVuSans-35" x="329.6875"/>
      <use xlink:href="#DejaVuSans-35" x="393.310547"/>
      <use xlink:href="#DejaVuSans-34" x="456.933594"/>
      <use xlink:href="#DejaVuSans-32" x="520.556641"/>
      <use xlink:href="#DejaVuSans-34" x="584.179688"/>
      <use xlink:href="#DejaVuSans-20" x="647.802734"/>
      <use xlink:href="#DejaVuSans-2d" x="679.589844"/>
      <use xlink:href="#DejaVuSans-20" x="715.673828"/>
      <use xlink:href="#DejaVuSans-41" x="747.460938"/>
      <use xlink:href="#DejaVuSans-64" x="814.119141"/>
      <use xlink:href="#DejaVuSans-61" x="877.595703"/>
      <use xlink:href="#DejaVuSans-70" x="938.875"/>
      <use xlink:href="#DejaVuSans-74" x="1002.351562"/>
      <use xlink:href="#DejaVuSans-65" x="1041.560547"/>
      <use xlink:href="#DejaVuSans-72" x="1103.083984"/>
      <use xlink:href="#DejaVuSans-20" x="1144.197266"/>
      <use xlink:href="#DejaVuSans-31" x="1175.984375"/>
     </g>
    </g>
   </g>
  </g>
 </g>
 <defs>
  <clipPath id="pefa38454a3">
   <rect x="32.968125" y="31.48286" width="960.19" height="242.5072"/>
  </clipPath>
 </defs>
</svg>
