<?xml version="1.0" encoding="utf-8" standalone="no"?>
<!DOCTYPE svg PUBLIC "-//W3C//DTD SVG 1.1//EN"
  "http://www.w3.org/Graphics/SVG/1.1/DTD/svg11.dtd">
<svg xmlns:xlink="http://www.w3.org/1999/xlink" width="1000.280625pt" height="330.541644pt" viewBox="0 0 1000.280625 330.541644" xmlns="http://www.w3.org/2000/svg" version="1.1">
 <metadata>
  <rdf:RDF xmlns:dc="http://purl.org/dc/elements/1.1/" xmlns:cc="http://creativecommons.org/ns#" xmlns:rdf="http://www.w3.org/1999/02/22-rdf-syntax-ns#">
   <cc:Work>
    <dc:type rdf:resource="http://purl.org/dc/dcmitype/StillImage"/>
    <dc:date>2024-08-14T16:02:26.190232</dc:date>
    <dc:format>image/svg+xml</dc:format>
    <dc:creator>
     <cc:Agent>
      <dc:title>Matplotlib v3.5.3, https://matplotlib.org/</dc:title>
     </cc:Agent>
    </dc:creator>
   </cc:Work>
  </rdf:RDF>
 </metadata>
 <defs>
  <style type="text/css">*{stroke-linejoin: round; stroke-linecap: butt}</style>
 </defs>
 <g id="figure_1">
  <g id="axes_1">
   <g id="patch_1">
    <path d="M 40.600625 273.99006 
L 985.445625 273.99006 
L 985.445625 31.48286 
L 40.600625 31.48286 
z
" style="fill: #ffffff"/>
   </g>
   <g id="matplotlib.axis_1">
    <g id="xtick_1">
     <g id="text_1">
      <!-- 0 -->
      <g transform="translate(38.055625 287.06881)scale(0.08 -0.08)">
       <defs>
        <path id="DejaVuSans-30" d="M 2034 4250 
Q 1547 4250 1301 3770 
Q 1056 3291 1056 2328 
Q 1056 1369 1301 889 
Q 1547 409 2034 409 
Q 2525 409 2770 889 
Q 3016 1369 3016 2328 
Q 3016 3291 2770 3770 
Q 2525 4250 2034 4250 
z
M 2034 4750 
Q 2819 4750 3233 4129 
Q 3647 3509 3647 2328 
Q 3647 1150 3233 529 
Q 2819 -91 2034 -91 
Q 1250 -91 836 529 
Q 422 1150 422 2328 
Q 422 3509 836 4129 
Q 1250 4750 2034 4750 
z
" transform="scale(0.015625)"/>
       </defs>
       <use xlink:href="#DejaVuSans-30"/>
      </g>
     </g>
    </g>
    <g id="xtick_2">
     <g id="text_2">
      <!-- 20 -->
      <g transform="translate(224.479625 287.06881)scale(0.08 -0.08)">
       <defs>
        <path id="DejaVuSans-32" d="M 1228 531 
L 3431 531 
L 3431 0 
L 469 0 
L 469 531 
Q 828 903 1448 1529 
Q 2069 2156 2228 2338 
Q 2531 2678 2651 2914 
Q 2772 3150 2772 3378 
Q 2772 3750 2511 3984 
Q 2250 4219 1831 4219 
Q 1534 4219 1204 4116 
Q 875 4013 500 3803 
L 500 4441 
Q 881 4594 1212 4672 
Q 1544 4750 1819 4750 
Q 2544 4750 2975 4387 
Q 3406 4025 3406 3419 
Q 3406 3131 3298 2873 
Q 3191 2616 2906 2266 
Q 2828 2175 2409 1742 
Q 1991 1309 1228 531 
z
" transform="scale(0.015625)"/>
       </defs>
       <use xlink:href="#DejaVuSans-32"/>
       <use xlink:href="#DejaVuSans-30" x="63.623047"/>
      </g>
     </g>
    </g>
    <g id="xtick_3">
     <g id="text_3">
      <!-- 40 -->
      <g transform="translate(413.448625 287.06881)scale(0.08 -0.08)">
       <defs>
        <path id="DejaVuSans-34" d="M 2419 4116 
L 825 1625 
L 2419 1625 
L 2419 4116 
z
M 2253 4666 
L 3047 4666 
L 3047 1625 
L 3713 1625 
L 3713 1100 
L 3047 1100 
L 3047 0 
L 2419 0 
L 2419 1100 
L 313 1100 
L 313 1709 
L 2253 4666 
z
" transform="scale(0.015625)"/>
       </defs>
       <use xlink:href="#DejaVuSans-34"/>
       <use xlink:href="#DejaVuSans-30" x="63.623047"/>
      </g>
     </g>
    </g>
    <g id="xtick_4">
     <g id="text_4">
      <!-- 60 -->
      <g transform="translate(602.417625 287.06881)scale(0.08 -0.08)">
       <defs>
        <path id="DejaVuSans-36" d="M 2113 2584 
Q 1688 2584 1439 2293 
Q 1191 2003 1191 1497 
Q 1191 994 1439 701 
Q 1688 409 2113 409 
Q 2538 409 2786 701 
Q 3034 994 3034 1497 
Q 3034 2003 2786 2293 
Q 2538 2584 2113 2584 
z
M 3366 4563 
L 3366 3988 
Q 3128 4100 2886 4159 
Q 2644 4219 2406 4219 
Q 1781 4219 1451 3797 
Q 1122 3375 1075 2522 
Q 1259 2794 1537 2939 
Q 1816 3084 2150 3084 
Q 2853 3084 3261 2657 
Q 3669 2231 3669 1497 
Q 3669 778 3244 343 
Q 2819 -91 2113 -91 
Q 1303 -91 875 529 
Q 447 1150 447 2328 
Q 447 3434 972 4092 
Q 1497 4750 2381 4750 
Q 2619 4750 2861 4703 
Q 3103 4656 3366 4563 
z
" transform="scale(0.015625)"/>
       </defs>
       <use xlink:href="#DejaVuSans-36"/>
       <use xlink:href="#DejaVuSans-30" x="63.623047"/>
      </g>
     </g>
    </g>
    <g id="xtick_5">
     <g id="text_5">
      <!-- 80 -->
      <g transform="translate(791.386625 287.06881)scale(0.08 -0.08)">
       <defs>
        <path id="DejaVuSans-38" d="M 2034 2216 
Q 1584 2216 1326 1975 
Q 1069 1734 1069 1313 
Q 1069 891 1326 650 
Q 1584 409 2034 409 
Q 2484 409 2743 651 
Q 3003 894 3003 1313 
Q 3003 1734 2745 1975 
Q 2488 2216 2034 2216 
z
M 1403 2484 
Q 997 2584 770 2862 
Q 544 3141 544 3541 
Q 544 4100 942 4425 
Q 1341 4750 2034 4750 
Q 2731 4750 3128 4425 
Q 3525 4100 3525 3541 
Q 3525 3141 3298 2862 
Q 3072 2584 2669 2484 
Q 3125 2378 3379 2068 
Q 3634 1759 3634 1313 
Q 3634 634 3220 271 
Q 2806 -91 2034 -91 
Q 1263 -91 848 271 
Q 434 634 434 1313 
Q 434 1759 690 2068 
Q 947 2378 1403 2484 
z
M 1172 3481 
Q 1172 3119 1398 2916 
Q 1625 2713 2034 2713 
Q 2441 2713 2670 2916 
Q 2900 3119 2900 3481 
Q 2900 3844 2670 4047 
Q 2441 4250 2034 4250 
Q 1625 4250 1398 4047 
Q 1172 3844 1172 3481 
z
" transform="scale(0.015625)"/>
       </defs>
       <use xlink:href="#DejaVuSans-38"/>
       <use xlink:href="#DejaVuSans-30" x="63.623047"/>
      </g>
     </g>
    </g>
    <g id="xtick_6">
     <g id="text_6">
      <!-- 100 -->
      <g transform="translate(977.810625 287.06881)scale(0.08 -0.08)">
       <defs>
        <path id="DejaVuSans-31" d="M 794 531 
L 1825 531 
L 1825 4091 
L 703 3866 
L 703 4441 
L 1819 4666 
L 2450 4666 
L 2450 531 
L 3481 531 
L 3481 0 
L 794 0 
L 794 531 
z
" transform="scale(0.015625)"/>
       </defs>
       <use xlink:href="#DejaVuSans-31"/>
       <use xlink:href="#DejaVuSans-30" x="63.623047"/>
       <use xlink:href="#DejaVuSans-30" x="127.246094"/>
      </g>
     </g>
    </g>
    <g id="text_7">
     <!-- % GC -->
     <g transform="translate(499.317656 300.330997)scale(0.1 -0.1)">
      <defs>
       <path id="DejaVuSans-25" d="M 4653 2053 
Q 4381 2053 4226 1822 
Q 4072 1591 4072 1178 
Q 4072 772 4226 539 
Q 4381 306 4653 306 
Q 4919 306 5073 539 
Q 5228 772 5228 1178 
Q 5228 1588 5073 1820 
Q 4919 2053 4653 2053 
z
M 4653 2450 
Q 5147 2450 5437 2106 
Q 5728 1763 5728 1178 
Q 5728 594 5436 251 
Q 5144 -91 4653 -91 
Q 4153 -91 3862 251 
Q 3572 594 3572 1178 
Q 3572 1766 3864 2108 
Q 4156 2450 4653 2450 
z
M 1428 4353 
Q 1159 4353 1004 4120 
Q 850 3888 850 3481 
Q 850 3069 1003 2837 
Q 1156 2606 1428 2606 
Q 1700 2606 1854 2837 
Q 2009 3069 2009 3481 
Q 2009 3884 1853 4118 
Q 1697 4353 1428 4353 
z
M 4250 4750 
L 4750 4750 
L 1831 -91 
L 1331 -91 
L 4250 4750 
z
M 1428 4750 
Q 1922 4750 2215 4408 
Q 2509 4066 2509 3481 
Q 2509 2891 2217 2550 
Q 1925 2209 1428 2209 
Q 931 2209 642 2551 
Q 353 2894 353 3481 
Q 353 4063 643 4406 
Q 934 4750 1428 4750 
z
" transform="scale(0.015625)"/>
       <path id="DejaVuSans-20" transform="scale(0.015625)"/>
       <path id="DejaVuSans-47" d="M 3809 666 
L 3809 1919 
L 2778 1919 
L 2778 2438 
L 4434 2438 
L 4434 434 
Q 4069 175 3628 42 
Q 3188 -91 2688 -91 
Q 1594 -91 976 548 
Q 359 1188 359 2328 
Q 359 3472 976 4111 
Q 1594 4750 2688 4750 
Q 3144 4750 3555 4637 
Q 3966 4525 4313 4306 
L 4313 3634 
Q 3963 3931 3569 4081 
Q 3175 4231 2741 4231 
Q 1884 4231 1454 3753 
Q 1025 3275 1025 2328 
Q 1025 1384 1454 906 
Q 1884 428 2741 428 
Q 3075 428 3337 486 
Q 3600 544 3809 666 
z
" transform="scale(0.015625)"/>
       <path id="DejaVuSans-43" d="M 4122 4306 
L 4122 3641 
Q 3803 3938 3442 4084 
Q 3081 4231 2675 4231 
Q 1875 4231 1450 3742 
Q 1025 3253 1025 2328 
Q 1025 1406 1450 917 
Q 1875 428 2675 428 
Q 3081 428 3442 575 
Q 3803 722 4122 1019 
L 4122 359 
Q 3791 134 3420 21 
Q 3050 -91 2638 -91 
Q 1578 -91 968 557 
Q 359 1206 359 2328 
Q 359 3453 968 4101 
Q 1578 4750 2638 4750 
Q 3056 4750 3426 4639 
Q 3797 4528 4122 4306 
z
" transform="scale(0.015625)"/>
      </defs>
      <use xlink:href="#DejaVuSans-25"/>
      <use xlink:href="#DejaVuSans-20" x="95.019531"/>
      <use xlink:href="#DejaVuSans-47" x="126.806641"/>
      <use xlink:href="#DejaVuSans-43" x="204.296875"/>
     </g>
    </g>
   </g>
   <g id="matplotlib.axis_2">
    <g id="ytick_1">
     <g id="line2d_1">
      <path d="M 40.600625 273.99006 
L 985.445625 273.99006 
" clip-path="url(#p7aec7b716b)" style="fill: none; stroke: #dedede; stroke-linecap: square"/>
     </g>
     <g id="text_8">
      <!-- 0.0 -->
      <g transform="translate(20.878125 277.029435)scale(0.08 -0.08)">
       <defs>
        <path id="DejaVuSans-2e" d="M 684 794 
L 1344 794 
L 1344 0 
L 684 0 
L 684 794 
z
" transform="scale(0.015625)"/>
       </defs>
       <use xlink:href="#DejaVuSans-30"/>
       <use xlink:href="#DejaVuSans-2e" x="63.623047"/>
       <use xlink:href="#DejaVuSans-30" x="95.410156"/>
      </g>
     </g>
    </g>
    <g id="ytick_2">
     <g id="line2d_2">
      <path d="M 40.600625 238.182703 
L 985.445625 238.182703 
" clip-path="url(#p7aec7b716b)" style="fill: none; stroke: #dedede; stroke-linecap: square"/>
     </g>
     <g id="text_9">
      <!-- 0.5 -->
      <g transform="translate(20.878125 241.222078)scale(0.08 -0.08)">
       <defs>
        <path id="DejaVuSans-35" d="M 691 4666 
L 3169 4666 
L 3169 4134 
L 1269 4134 
L 1269 2991 
Q 1406 3038 1543 3061 
Q 1681 3084 1819 3084 
Q 2600 3084 3056 2656 
Q 3513 2228 3513 1497 
Q 3513 744 3044 326 
Q 2575 -91 1722 -91 
Q 1428 -91 1123 -41 
Q 819 9 494 109 
L 494 744 
Q 775 591 1075 516 
Q 1375 441 1709 441 
Q 2250 441 2565 725 
Q 2881 1009 2881 1497 
Q 2881 1984 2565 2268 
Q 2250 2553 1709 2553 
Q 1456 2553 1204 2497 
Q 953 2441 691 2322 
L 691 4666 
z
" transform="scale(0.015625)"/>
       </defs>
       <use xlink:href="#DejaVuSans-30"/>
       <use xlink:href="#DejaVuSans-2e" x="63.623047"/>
       <use xlink:href="#DejaVuSans-35" x="95.410156"/>
      </g>
     </g>
    </g>
    <g id="ytick_3">
     <g id="line2d_3">
      <path d="M 40.600625 202.375347 
L 985.445625 202.375347 
" clip-path="url(#p7aec7b716b)" style="fill: none; stroke: #dedede; stroke-linecap: square"/>
     </g>
     <g id="text_10">
      <!-- 1.0 -->
      <g transform="translate(20.878125 205.414722)scale(0.08 -0.08)">
       <use xlink:href="#DejaVuSans-31"/>
       <use xlink:href="#DejaVuSans-2e" x="63.623047"/>
       <use xlink:href="#DejaVuSans-30" x="95.410156"/>
      </g>
     </g>
    </g>
    <g id="ytick_4">
     <g id="line2d_4">
      <path d="M 40.600625 166.56799 
L 985.445625 166.56799 
" clip-path="url(#p7aec7b716b)" style="fill: none; stroke: #dedede; stroke-linecap: square"/>
     </g>
     <g id="text_11">
      <!-- 1.5 -->
      <g transform="translate(20.878125 169.607365)scale(0.08 -0.08)">
       <use xlink:href="#DejaVuSans-31"/>
       <use xlink:href="#DejaVuSans-2e" x="63.623047"/>
       <use xlink:href="#DejaVuSans-35" x="95.410156"/>
      </g>
     </g>
    </g>
    <g id="ytick_5">
     <g id="line2d_5">
      <path d="M 40.600625 130.760634 
L 985.445625 130.760634 
" clip-path="url(#p7aec7b716b)" style="fill: none; stroke: #dedede; stroke-linecap: square"/>
     </g>
     <g id="text_12">
      <!-- 2.0 -->
      <g transform="translate(20.878125 133.800009)scale(0.08 -0.08)">
       <use xlink:href="#DejaVuSans-32"/>
       <use xlink:href="#DejaVuSans-2e" x="63.623047"/>
       <use xlink:href="#DejaVuSans-30" x="95.410156"/>
      </g>
     </g>
    </g>
    <g id="ytick_6">
     <g id="line2d_6">
      <path d="M 40.600625 94.953277 
L 985.445625 94.953277 
" clip-path="url(#p7aec7b716b)" style="fill: none; stroke: #dedede; stroke-linecap: square"/>
     </g>
     <g id="text_13">
      <!-- 2.5 -->
      <g transform="translate(20.878125 97.992652)scale(0.08 -0.08)">
       <use xlink:href="#DejaVuSans-32"/>
       <use xlink:href="#DejaVuSans-2e" x="63.623047"/>
       <use xlink:href="#DejaVuSans-35" x="95.410156"/>
      </g>
     </g>
    </g>
    <g id="ytick_7">
     <g id="line2d_7">
      <path d="M 40.600625 59.14592 
L 985.445625 59.14592 
" clip-path="url(#p7aec7b716b)" style="fill: none; stroke: #dedede; stroke-linecap: square"/>
     </g>
     <g id="text_14">
      <!-- 3.0 -->
      <g transform="translate(20.878125 62.185295)scale(0.08 -0.08)">
       <defs>
        <path id="DejaVuSans-33" d="M 2597 2516 
Q 3050 2419 3304 2112 
Q 3559 1806 3559 1356 
Q 3559 666 3084 287 
Q 2609 -91 1734 -91 
Q 1441 -91 1130 -33 
Q 819 25 488 141 
L 488 750 
Q 750 597 1062 519 
Q 1375 441 1716 441 
Q 2309 441 2620 675 
Q 2931 909 2931 1356 
Q 2931 1769 2642 2001 
Q 2353 2234 1838 2234 
L 1294 2234 
L 1294 2753 
L 1863 2753 
Q 2328 2753 2575 2939 
Q 2822 3125 2822 3475 
Q 2822 3834 2567 4026 
Q 2313 4219 1838 4219 
Q 1578 4219 1281 4162 
Q 984 4106 628 3988 
L 628 4550 
Q 988 4650 1302 4700 
Q 1616 4750 1894 4750 
Q 2613 4750 3031 4423 
Q 3450 4097 3450 3541 
Q 3450 3153 3228 2886 
Q 3006 2619 2597 2516 
z
" transform="scale(0.015625)"/>
       </defs>
       <use xlink:href="#DejaVuSans-33"/>
       <use xlink:href="#DejaVuSans-2e" x="63.623047"/>
       <use xlink:href="#DejaVuSans-30" x="95.410156"/>
      </g>
     </g>
    </g>
    <g id="text_15">
     <!-- Percentage -->
     <g transform="translate(14.798438 180.859116)rotate(-90)scale(0.1 -0.1)">
      <defs>
       <path id="DejaVuSans-50" d="M 1259 4147 
L 1259 2394 
L 2053 2394 
Q 2494 2394 2734 2622 
Q 2975 2850 2975 3272 
Q 2975 3691 2734 3919 
Q 2494 4147 2053 4147 
L 1259 4147 
z
M 628 4666 
L 2053 4666 
Q 2838 4666 3239 4311 
Q 3641 3956 3641 3272 
Q 3641 2581 3239 2228 
Q 2838 1875 2053 1875 
L 1259 1875 
L 1259 0 
L 628 0 
L 628 4666 
z
" transform="scale(0.015625)"/>
       <path id="DejaVuSans-65" d="M 3597 1894 
L 3597 1613 
L 953 1613 
Q 991 1019 1311 708 
Q 1631 397 2203 397 
Q 2534 397 2845 478 
Q 3156 559 3463 722 
L 3463 178 
Q 3153 47 2828 -22 
Q 2503 -91 2169 -91 
Q 1331 -91 842 396 
Q 353 884 353 1716 
Q 353 2575 817 3079 
Q 1281 3584 2069 3584 
Q 2775 3584 3186 3129 
Q 3597 2675 3597 1894 
z
M 3022 2063 
Q 3016 2534 2758 2815 
Q 2500 3097 2075 3097 
Q 1594 3097 1305 2825 
Q 1016 2553 972 2059 
L 3022 2063 
z
" transform="scale(0.015625)"/>
       <path id="DejaVuSans-72" d="M 2631 2963 
Q 2534 3019 2420 3045 
Q 2306 3072 2169 3072 
Q 1681 3072 1420 2755 
Q 1159 2438 1159 1844 
L 1159 0 
L 581 0 
L 581 3500 
L 1159 3500 
L 1159 2956 
Q 1341 3275 1631 3429 
Q 1922 3584 2338 3584 
Q 2397 3584 2469 3576 
Q 2541 3569 2628 3553 
L 2631 2963 
z
" transform="scale(0.015625)"/>
       <path id="DejaVuSans-63" d="M 3122 3366 
L 3122 2828 
Q 2878 2963 2633 3030 
Q 2388 3097 2138 3097 
Q 1578 3097 1268 2742 
Q 959 2388 959 1747 
Q 959 1106 1268 751 
Q 1578 397 2138 397 
Q 2388 397 2633 464 
Q 2878 531 3122 666 
L 3122 134 
Q 2881 22 2623 -34 
Q 2366 -91 2075 -91 
Q 1284 -91 818 406 
Q 353 903 353 1747 
Q 353 2603 823 3093 
Q 1294 3584 2113 3584 
Q 2378 3584 2631 3529 
Q 2884 3475 3122 3366 
z
" transform="scale(0.015625)"/>
       <path id="DejaVuSans-6e" d="M 3513 2113 
L 3513 0 
L 2938 0 
L 2938 2094 
Q 2938 2591 2744 2837 
Q 2550 3084 2163 3084 
Q 1697 3084 1428 2787 
Q 1159 2491 1159 1978 
L 1159 0 
L 581 0 
L 581 3500 
L 1159 3500 
L 1159 2956 
Q 1366 3272 1645 3428 
Q 1925 3584 2291 3584 
Q 2894 3584 3203 3211 
Q 3513 2838 3513 2113 
z
" transform="scale(0.015625)"/>
       <path id="DejaVuSans-74" d="M 1172 4494 
L 1172 3500 
L 2356 3500 
L 2356 3053 
L 1172 3053 
L 1172 1153 
Q 1172 725 1289 603 
Q 1406 481 1766 481 
L 2356 481 
L 2356 0 
L 1766 0 
Q 1100 0 847 248 
Q 594 497 594 1153 
L 594 3053 
L 172 3053 
L 172 3500 
L 594 3500 
L 594 4494 
L 1172 4494 
z
" transform="scale(0.015625)"/>
       <path id="DejaVuSans-61" d="M 2194 1759 
Q 1497 1759 1228 1600 
Q 959 1441 959 1056 
Q 959 750 1161 570 
Q 1363 391 1709 391 
Q 2188 391 2477 730 
Q 2766 1069 2766 1631 
L 2766 1759 
L 2194 1759 
z
M 3341 1997 
L 3341 0 
L 2766 0 
L 2766 531 
Q 2569 213 2275 61 
Q 1981 -91 1556 -91 
Q 1019 -91 701 211 
Q 384 513 384 1019 
Q 384 1609 779 1909 
Q 1175 2209 1959 2209 
L 2766 2209 
L 2766 2266 
Q 2766 2663 2505 2880 
Q 2244 3097 1772 3097 
Q 1472 3097 1187 3025 
Q 903 2953 641 2809 
L 641 3341 
Q 956 3463 1253 3523 
Q 1550 3584 1831 3584 
Q 2591 3584 2966 3190 
Q 3341 2797 3341 1997 
z
" transform="scale(0.015625)"/>
       <path id="DejaVuSans-67" d="M 2906 1791 
Q 2906 2416 2648 2759 
Q 2391 3103 1925 3103 
Q 1463 3103 1205 2759 
Q 947 2416 947 1791 
Q 947 1169 1205 825 
Q 1463 481 1925 481 
Q 2391 481 2648 825 
Q 2906 1169 2906 1791 
z
M 3481 434 
Q 3481 -459 3084 -895 
Q 2688 -1331 1869 -1331 
Q 1566 -1331 1297 -1286 
Q 1028 -1241 775 -1147 
L 775 -588 
Q 1028 -725 1275 -790 
Q 1522 -856 1778 -856 
Q 2344 -856 2625 -561 
Q 2906 -266 2906 331 
L 2906 616 
Q 2728 306 2450 153 
Q 2172 0 1784 0 
Q 1141 0 747 490 
Q 353 981 353 1791 
Q 353 2603 747 3093 
Q 1141 3584 1784 3584 
Q 2172 3584 2450 3431 
Q 2728 3278 2906 2969 
L 2906 3500 
L 3481 3500 
L 3481 434 
z
" transform="scale(0.015625)"/>
      </defs>
      <use xlink:href="#DejaVuSans-50"/>
      <use xlink:href="#DejaVuSans-65" x="56.677734"/>
      <use xlink:href="#DejaVuSans-72" x="118.201172"/>
      <use xlink:href="#DejaVuSans-63" x="157.064453"/>
      <use xlink:href="#DejaVuSans-65" x="212.044922"/>
      <use xlink:href="#DejaVuSans-6e" x="273.568359"/>
      <use xlink:href="#DejaVuSans-74" x="336.947266"/>
      <use xlink:href="#DejaVuSans-61" x="376.15625"/>
      <use xlink:href="#DejaVuSans-67" x="437.435547"/>
      <use xlink:href="#DejaVuSans-65" x="500.912109"/>
     </g>
    </g>
   </g>
   <g id="line2d_8">
    <path d="M 40.600625 273.878089 
L 50.049075 273.879498 
L 59.497525 273.808372 
L 68.945975 273.729147 
L 78.394425 273.716823 
L 87.842875 273.680204 
L 97.291325 273.591472 
L 106.739775 273.48584 
L 116.188225 273.397108 
L 125.636675 273.315067 
L 135.085125 273.206265 
L 144.533575 273.061196 
L 153.982025 272.897817 
L 163.430475 272.70803 
L 172.878925 272.580919 
L 182.327375 272.467892 
L 191.775825 272.230922 
L 201.224275 271.913672 
L 210.672725 271.458394 
L 220.121175 270.788682 
L 229.569625 269.825664 
L 239.018075 268.352438 
L 248.466525 266.310205 
L 257.914975 263.55002 
L 267.363425 259.832802 
L 276.811875 255.18672 
L 286.260325 249.329383 
L 295.708775 242.157269 
L 305.157225 234.20136 
L 314.605675 225.119405 
L 324.054125 215.272669 
L 333.502575 205.571707 
L 342.951025 195.323566 
L 352.399475 184.034591 
L 361.847925 171.421684 
L 371.296375 157.909843 
L 380.744825 143.540264 
L 390.193275 128.633013 
L 399.641725 114.365897 
L 409.090175 101.256869 
L 418.538625 89.757684 
L 427.987075 79.363067 
L 437.435525 69.790976 
L 446.883975 62.549144 
L 456.332425 57.859049 
L 465.780875 53.57071 
L 475.229325 49.882365 
L 484.677775 49.61441 
L 494.126225 50.608767 
L 503.574675 50.31722 
L 513.023125 49.670396 
L 522.471575 48.596814 
L 531.920025 49.920041 
L 541.368475 54.088663 
L 550.816925 58.494606 
L 560.265375 62.457596 
L 569.713825 68.902604 
L 579.162275 76.310631 
L 588.610725 82.726414 
L 598.059175 89.412265 
L 607.507625 96.660083 
L 616.956075 105.706122 
L 626.404525 117.056364 
L 635.852975 129.750256 
L 645.301425 142.290628 
L 654.749875 155.423952 
L 664.198325 168.952342 
L 673.646775 181.200463 
L 683.095225 192.853872 
L 692.543675 204.520661 
L 701.992125 215.367739 
L 711.440575 224.976449 
L 720.889025 232.805951 
L 730.337475 239.711166 
L 739.785925 245.59632 
L 749.234375 250.122685 
L 758.682825 254.068069 
L 768.131275 257.507473 
L 777.579725 260.298643 
L 787.028175 262.722211 
L 796.476625 264.861979 
L 805.925075 266.657736 
L 815.373525 268.037653 
L 824.821975 269.222853 
L 834.270425 270.214744 
L 843.718875 271.0003 
L 853.167325 271.587618 
L 862.615775 272.00029 
L 872.064225 272.410146 
L 881.512675 272.775987 
L 890.961125 273.042886 
L 900.409575 273.258025 
L 909.858025 273.379855 
L 919.306475 273.524572 
L 928.754925 273.702035 
L 938.203375 273.815414 
L 947.651825 273.863653 
L 957.100275 273.872103 
L 966.548725 273.912596 
L 975.997175 273.953793 
L 985.445625 273.954849 
" clip-path="url(#p7aec7b716b)" style="fill: none; stroke: #5cb85c; stroke-linecap: square"/>
   </g>
   <g id="line2d_9">
    <path d="M 40.600625 273.873101 
L 50.049075 273.872889 
L 59.497525 273.799076 
L 68.945975 273.720927 
L 78.394425 273.706545 
L 87.842875 273.665725 
L 97.291325 273.586942 
L 106.739775 273.50562 
L 116.188225 273.434768 
L 125.636675 273.356407 
L 135.085125 273.238813 
L 144.533575 273.101867 
L 153.982025 272.976554 
L 163.430475 272.823216 
L 172.878925 272.686905 
L 182.327375 272.537798 
L 191.775825 272.347765 
L 201.224275 272.107819 
L 210.672725 271.763286 
L 220.121175 271.230307 
L 229.569625 270.399007 
L 239.018075 269.146612 
L 248.466525 267.323062 
L 257.914975 264.712522 
L 267.363425 261.274595 
L 276.811875 257.000504 
L 286.260325 251.472961 
L 295.708775 244.803108 
L 305.157225 237.254791 
L 314.605675 228.516894 
L 324.054125 219.061697 
L 333.502575 209.564939 
L 342.951025 199.475242 
L 352.399475 188.256455 
L 361.847925 175.656997 
L 371.296375 161.892071 
L 380.744825 147.54679 
L 390.193275 132.035405 
L 399.641725 117.204309 
L 409.090175 103.509813 
L 418.538625 91.036198 
L 427.987075 80.298889 
L 437.435525 69.948307 
L 446.883975 61.532313 
L 456.332425 55.57109 
L 465.780875 50.127723 
L 475.229325 45.945635 
L 484.677775 45.038407 
L 494.126225 45.287977 
L 503.574675 44.590451 
L 513.023125 43.482087 
L 522.471575 43.029583 
L 531.920025 45.039782 
L 541.368475 49.11041 
L 550.816925 53.678697 
L 560.265375 58.279766 
L 569.713825 64.842071 
L 579.162275 72.843843 
L 588.610725 79.643557 
L 598.059175 86.516873 
L 607.507625 94.5215 
L 616.956075 104.260319 
L 626.404525 116.35112 
L 635.852975 129.454581 
L 645.301425 142.578029 
L 654.749875 156.038607 
L 664.198325 169.624604 
L 673.646775 182.139356 
L 683.095225 193.96409 
L 692.543675 205.756782 
L 701.992125 216.768829 
L 711.440575 226.408666 
L 720.889025 234.263551 
L 730.337475 241.011977 
L 739.785925 246.710623 
L 749.234375 251.240523 
L 758.682825 254.986076 
L 768.131275 258.144083 
L 777.579725 260.844616 
L 787.028175 263.147848 
L 796.476625 265.162276 
L 805.925075 266.836296 
L 815.373525 268.129828 
L 824.821975 269.318773 
L 834.270425 270.313879 
L 843.718875 271.047783 
L 853.167325 271.637444 
L 862.615775 272.067951 
L 872.064225 272.438287 
L 881.512675 272.77436 
L 890.961125 273.06422 
L 900.409575 273.278681 
L 909.858025 273.390881 
L 919.306475 273.527828 
L 928.754925 273.702738 
L 938.203375 273.812506 
L 947.651825 273.849836 
L 957.100275 273.857767 
L 966.548725 273.904191 
L 975.997175 273.951779 
L 985.445625 273.953894 
" clip-path="url(#p7aec7b716b)" style="fill: none; stroke: #5cb85c; stroke-linecap: square"/>
   </g>
   <g id="line2d_10">
    <path d="M 40.600625 273.868824 
L 50.049075 273.867297 
L 59.497525 273.787273 
L 68.945975 273.702778 
L 78.394425 273.684789 
L 87.842875 273.64554 
L 97.291325 273.572057 
L 106.739775 273.490069 
L 116.188225 273.407319 
L 125.636675 273.300365 
L 135.085125 273.174877 
L 144.533575 273.033471 
L 153.982025 272.881707 
L 163.430475 272.704868 
L 172.878925 272.536315 
L 182.327375 272.384224 
L 191.775825 272.187979 
L 201.224275 271.930134 
L 210.672725 271.559556 
L 220.121175 270.973108 
L 229.569625 270.030038 
L 239.018075 268.646179 
L 248.466525 266.654502 
L 257.914975 263.880568 
L 267.363425 260.248168 
L 276.811875 255.62658 
L 286.260325 249.904707 
L 295.708775 242.995439 
L 305.157225 235.08837 
L 314.605675 226.210538 
L 324.054125 216.657294 
L 333.502575 207.075158 
L 342.951025 197.000554 
L 352.399475 185.539038 
L 361.847925 172.765946 
L 371.296375 159.147907 
L 380.744825 144.714467 
L 390.193275 129.255533 
L 399.641725 114.892523 
L 409.090175 101.250825 
L 418.538625 89.142243 
L 427.987075 78.726717 
L 437.435525 68.594112 
L 446.883975 60.670362 
L 456.332425 55.314706 
L 465.780875 50.562723 
L 475.229325 46.957689 
L 484.677775 46.498146 
L 494.126225 46.85237 
L 503.574675 46.775943 
L 513.023125 46.429351 
L 522.471575 46.439818 
L 531.920025 48.657504 
L 541.368475 53.114682 
L 550.816925 58.033691 
L 560.265375 62.534151 
L 569.713825 69.261457 
L 579.162275 77.162093 
L 588.610725 84.022954 
L 598.059175 91.124544 
L 607.507625 98.826972 
L 616.956075 108.110705 
L 626.404525 119.650175 
L 635.852975 132.207942 
L 645.301425 144.7958 
L 654.749875 157.663853 
L 664.198325 170.684651 
L 673.646775 182.591645 
L 683.095225 193.671354 
L 692.543675 204.84319 
L 701.992125 215.465537 
L 711.440575 224.836382 
L 720.889025 232.508828 
L 730.337475 239.222178 
L 739.785925 244.981555 
L 749.234375 249.561059 
L 758.682825 253.439857 
L 768.131275 256.820081 
L 777.579725 259.699116 
L 787.028175 262.158511 
L 796.476625 264.254307 
L 805.925075 266.091604 
L 815.373525 267.569225 
L 824.821975 268.82945 
L 834.270425 269.887324 
L 843.718875 270.758873 
L 853.167325 271.406157 
L 862.615775 271.843567 
L 872.064225 272.267349 
L 881.512675 272.660059 
L 890.961125 272.97656 
L 900.409575 273.225574 
L 909.858025 273.369923 
L 919.306475 273.512093 
L 928.754925 273.676503 
L 938.203375 273.793269 
L 947.651825 273.845928 
L 957.100275 273.855523 
L 966.548725 273.903385 
L 975.997175 273.952228 
L 985.445625 273.9543 
" clip-path="url(#p7aec7b716b)" style="fill: none; stroke: #5cb85c; stroke-linecap: square"/>
   </g>
   <g id="line2d_11">
    <path d="M 40.600625 273.883376 
L 50.049075 273.881964 
L 59.497525 273.796616 
L 68.945975 273.706249 
L 78.394425 273.692599 
L 87.842875 273.654475 
L 97.291325 273.575874 
L 106.739775 273.489272 
L 116.188225 273.41271 
L 125.636675 273.323127 
L 135.085125 273.212991 
L 144.533575 273.085441 
L 153.982025 272.948006 
L 163.430475 272.777312 
L 172.878925 272.622463 
L 182.327375 272.473889 
L 191.775825 272.263816 
L 201.224275 271.99585 
L 210.672725 271.605825 
L 220.121175 271.021729 
L 229.569625 270.143153 
L 239.018075 268.86765 
L 248.466525 266.904817 
L 257.914975 264.146717 
L 267.363425 260.640258 
L 276.811875 256.32049 
L 286.260325 250.86422 
L 295.708775 244.056043 
L 305.157225 236.388743 
L 314.605675 227.663388 
L 324.054125 218.144333 
L 333.502575 208.774951 
L 342.951025 198.857085 
L 352.399475 187.417715 
L 361.847925 174.399733 
L 371.296375 160.473993 
L 380.744825 146.214866 
L 390.193275 130.766994 
L 399.641725 115.916867 
L 409.090175 102.060159 
L 418.538625 89.449459 
L 427.987075 78.680316 
L 437.435525 68.411648 
L 446.883975 60.32734 
L 456.332425 54.744775 
L 465.780875 49.364126 
L 475.229325 44.911943 
L 484.677775 44.045605 
L 494.126225 44.542785 
L 503.574675 44.415077 
L 513.023125 44.184608 
L 522.471575 44.178333 
L 531.920025 46.173798 
L 541.368475 50.359584 
L 550.816925 55.034548 
L 560.265375 59.562508 
L 569.713825 66.461367 
L 579.162275 74.634632 
L 588.610725 81.555612 
L 598.059175 89.135368 
L 607.507625 97.244465 
L 616.956075 106.155106 
L 626.404525 117.943082 
L 635.852975 131.114502 
L 645.301425 144.154919 
L 654.749875 157.369169 
L 664.198325 170.820164 
L 673.646775 183.315394 
L 683.095225 194.705501 
L 692.543675 205.900753 
L 701.992125 216.598825 
L 711.440575 226.218445 
L 720.889025 234.095818 
L 730.337475 240.854419 
L 739.785925 246.620699 
L 749.234375 251.157759 
L 758.682825 254.92779 
L 768.131275 258.244884 
L 777.579725 260.946348 
L 787.028175 263.194404 
L 796.476625 265.183123 
L 805.925075 266.84818 
L 815.373525 268.144707 
L 824.821975 269.301917 
L 834.270425 270.295649 
L 843.718875 271.084641 
L 853.167325 271.670463 
L 862.615775 272.077275 
L 872.064225 272.466672 
L 881.512675 272.823594 
L 890.961125 273.10113 
L 900.409575 273.303359 
L 909.858025 273.417731 
L 919.306475 273.547948 
L 928.754925 273.703111 
L 938.203375 273.809952 
L 947.651825 273.857332 
L 957.100275 273.866118 
L 966.548725 273.90989 
L 975.997175 273.954446 
L 985.445625 273.955858 
" clip-path="url(#p7aec7b716b)" style="fill: none; stroke: #5cb85c; stroke-linecap: square"/>
   </g>
   <g id="line2d_12">
    <path d="M 40.600625 273.87884 
L 50.049075 273.877012 
L 59.497525 273.801203 
L 68.945975 273.721072 
L 78.394425 273.705528 
L 87.842875 273.668371 
L 97.291325 273.592313 
L 106.739775 273.51268 
L 116.188225 273.444353 
L 125.636675 273.363141 
L 135.085125 273.24336 
L 144.533575 273.098226 
L 153.982025 272.957414 
L 163.430475 272.791 
L 172.878925 272.64063 
L 182.327375 272.507216 
L 191.775825 272.324759 
L 201.224275 272.078298 
L 210.672725 271.730924 
L 220.121175 271.163189 
L 229.569625 270.230624 
L 239.018075 268.904468 
L 248.466525 266.970012 
L 257.914975 264.246547 
L 267.363425 260.772557 
L 276.811875 256.379302 
L 286.260325 250.728801 
L 295.708775 244.05779 
L 305.157225 236.514978 
L 314.605675 227.784743 
L 324.054125 218.451778 
L 333.502575 209.079329 
L 342.951025 199.163334 
L 352.399475 187.877377 
L 361.847925 175.155292 
L 371.296375 161.72175 
L 380.744825 147.386816 
L 390.193275 132.041512 
L 399.641725 117.60899 
L 409.090175 103.749356 
L 418.538625 91.33034 
L 427.987075 80.607214 
L 437.435525 70.100043 
L 446.883975 61.706044 
L 456.332425 55.974746 
L 465.780875 50.524823 
L 475.229325 46.345528 
L 484.677775 45.57148 
L 494.126225 45.643133 
L 503.574675 45.053619 
L 513.023125 44.04217 
L 522.471575 43.62173 
L 531.920025 45.850443 
L 541.368475 49.831737 
L 550.816925 54.008953 
L 560.265375 58.588073 
L 569.713825 65.454092 
L 579.162275 73.315601 
L 588.610725 80.040892 
L 598.059175 86.934508 
L 607.507625 94.883463 
L 616.956075 104.634956 
L 626.404525 116.650074 
L 635.852975 129.931998 
L 645.301425 143.123982 
L 654.749875 156.553699 
L 664.198325 169.999543 
L 673.646775 182.271763 
L 683.095225 193.920305 
L 692.543675 205.521135 
L 701.992125 216.494214 
L 711.440575 225.975971 
L 720.889025 233.707308 
L 730.337475 240.477818 
L 739.785925 246.200637 
L 749.234375 250.809182 
L 758.682825 254.643513 
L 768.131275 257.935378 
L 777.579725 260.691844 
L 787.028175 263.026956 
L 796.476625 265.04121 
L 805.925075 266.733193 
L 815.373525 268.09584 
L 824.821975 269.271043 
L 834.270425 270.246916 
L 843.718875 271.011405 
L 853.167325 271.590029 
L 862.615775 272.021275 
L 872.064225 272.434732 
L 881.512675 272.790834 
L 890.961125 273.07786 
L 900.409575 273.283758 
L 909.858025 273.388494 
L 919.306475 273.531799 
L 928.754925 273.710847 
L 938.203375 273.821319 
L 947.651825 273.861384 
L 957.100275 273.871442 
L 966.548725 273.911924 
L 975.997175 273.952156 
L 985.445625 273.953486 
" clip-path="url(#p7aec7b716b)" style="fill: none; stroke: #5cb85c; stroke-linecap: square"/>
   </g>
   <g id="line2d_13">
    <path d="M 40.600625 273.866052 
L 50.049075 273.863752 
L 59.497525 273.778962 
L 68.945975 273.688147 
L 78.394425 273.6704 
L 87.842875 273.625376 
L 97.291325 273.537628 
L 106.739775 273.445061 
L 116.188225 273.366515 
L 125.636675 273.276686 
L 135.085125 273.161004 
L 144.533575 273.024398 
L 153.982025 272.873879 
L 163.430475 272.699699 
L 172.878925 272.540197 
L 182.327375 272.387926 
L 191.775825 272.194574 
L 201.224275 271.939109 
L 210.672725 271.555474 
L 220.121175 270.968079 
L 229.569625 270.026846 
L 239.018075 268.634496 
L 248.466525 266.707991 
L 257.914975 263.959003 
L 267.363425 260.31293 
L 276.811875 255.904295 
L 286.260325 250.198836 
L 295.708775 243.287586 
L 305.157225 235.630536 
L 314.605675 226.77843 
L 324.054125 217.046658 
L 333.502575 207.330441 
L 342.951025 197.133967 
L 352.399475 185.445893 
L 361.847925 172.529133 
L 371.296375 158.663471 
L 380.744825 143.922086 
L 390.193275 128.389 
L 399.641725 113.560195 
L 409.090175 99.686427 
L 418.538625 87.576923 
L 427.987075 76.940397 
L 437.435525 66.510696 
L 446.883975 58.228786 
L 456.332425 52.631998 
L 465.780875 47.789555 
L 475.229325 43.851976 
L 484.677775 43.387384 
L 494.126225 44.141948 
L 503.574675 44.588355 
L 513.023125 44.609716 
L 522.471575 44.297068 
L 531.920025 46.723876 
L 541.368475 51.486568 
L 550.816925 56.844105 
L 560.265375 62.394444 
L 569.713825 69.283018 
L 579.162275 77.358431 
L 588.610725 84.974839 
L 598.059175 92.522998 
L 607.507625 100.5019 
L 616.956075 109.934936 
L 626.404525 121.546217 
L 635.852975 134.451037 
L 645.301425 147.413259 
L 654.749875 160.014632 
L 664.198325 172.904772 
L 673.646775 184.728685 
L 683.095225 195.677422 
L 692.543675 206.927525 
L 701.992125 217.272764 
L 711.440575 226.323917 
L 720.889025 233.99017 
L 730.337475 240.573434 
L 739.785925 246.05202 
L 749.234375 250.525507 
L 758.682825 254.361646 
L 768.131275 257.625179 
L 777.579725 260.350395 
L 787.028175 262.658892 
L 796.476625 264.671611 
L 805.925075 266.346156 
L 815.373525 267.699069 
L 824.821975 268.943091 
L 834.270425 270.007894 
L 843.718875 270.841442 
L 853.167325 271.448665 
L 862.615775 271.881487 
L 872.064225 272.315625 
L 881.512675 272.69926 
L 890.961125 272.978826 
L 900.409575 273.197921 
L 909.858025 273.346249 
L 919.306475 273.508489 
L 928.754925 273.68738 
L 938.203375 273.806787 
L 947.651825 273.858712 
L 957.100275 273.870544 
L 966.548725 273.912938 
L 975.997175 273.95621 
L 985.445625 273.957853 
" clip-path="url(#p7aec7b716b)" style="fill: none; stroke: #5cb85c; stroke-linecap: square"/>
   </g>
   <g id="line2d_14">
    <path d="M 40.600625 273.881581 
L 50.049075 273.877523 
L 59.497525 273.798299 
L 68.945975 273.716299 
L 78.394425 273.70071 
L 87.842875 273.658002 
L 97.291325 273.569169 
L 106.739775 273.468377 
L 116.188225 273.37271 
L 125.636675 273.27384 
L 135.085125 273.166428 
L 144.533575 273.022501 
L 153.982025 272.857646 
L 163.430475 272.680406 
L 172.878925 272.529005 
L 182.327375 272.375468 
L 191.775825 272.157228 
L 201.224275 271.891155 
L 210.672725 271.486919 
L 220.121175 270.852699 
L 229.569625 269.873395 
L 239.018075 268.444585 
L 248.466525 266.392659 
L 257.914975 263.470549 
L 267.363425 259.697474 
L 276.811875 254.996771 
L 286.260325 248.977233 
L 295.708775 241.932052 
L 305.157225 233.887921 
L 314.605675 224.685324 
L 324.054125 214.996065 
L 333.502575 205.21178 
L 342.951025 194.988238 
L 352.399475 183.493694 
L 361.847925 170.564574 
L 371.296375 156.68028 
L 380.744825 142.411397 
L 390.193275 127.021631 
L 399.641725 112.102512 
L 409.090175 98.444146 
L 418.538625 86.529351 
L 427.987075 76.385887 
L 437.435525 66.651784 
L 446.883975 58.868602 
L 456.332425 53.541367 
L 465.780875 48.69631 
L 475.229325 45.107095 
L 484.677775 44.985162 
L 494.126225 45.905315 
L 503.574675 46.194237 
L 513.023125 46.335389 
L 522.471575 46.53078 
L 531.920025 48.595945 
L 541.368475 52.930423 
L 550.816925 57.950157 
L 560.265375 62.56651 
L 569.713825 69.042602 
L 579.162275 77.214858 
L 588.610725 84.838524 
L 598.059175 92.198039 
L 607.507625 99.899649 
L 616.956075 109.511606 
L 626.404525 121.168228 
L 635.852975 133.806931 
L 645.301425 146.543436 
L 654.749875 159.529358 
L 664.198325 172.56888 
L 673.646775 184.358753 
L 683.095225 195.75464 
L 692.543675 207.378164 
L 701.992125 217.937821 
L 711.440575 227.15622 
L 720.889025 234.863809 
L 730.337475 241.562838 
L 739.785925 247.308188 
L 749.234375 251.808801 
L 758.682825 255.513757 
L 768.131275 258.784368 
L 777.579725 261.501477 
L 787.028175 263.715268 
L 796.476625 265.644408 
L 805.925075 267.278645 
L 815.373525 268.487721 
L 824.821975 269.512509 
L 834.270425 270.421558 
L 843.718875 271.164471 
L 853.167325 271.748722 
L 862.615775 272.153384 
L 872.064225 272.493343 
L 881.512675 272.805756 
L 890.961125 273.080584 
L 900.409575 273.299465 
L 909.858025 273.433783 
L 919.306475 273.57109 
L 928.754925 273.713309 
L 938.203375 273.811539 
L 947.651825 273.859586 
L 957.100275 273.868341 
L 966.548725 273.91169 
L 975.997175 273.956747 
L 985.445625 273.95931 
" clip-path="url(#p7aec7b716b)" style="fill: none; stroke: #5cb85c; stroke-linecap: square"/>
   </g>
   <g id="line2d_15">
    <path d="M 40.600625 273.88766 
L 50.049075 273.886092 
L 59.497525 273.815387 
L 68.945975 273.7385 
L 78.394425 273.721607 
L 87.842875 273.686168 
L 97.291325 273.607104 
L 106.739775 273.517155 
L 116.188225 273.439397 
L 125.636675 273.353802 
L 135.085125 273.239647 
L 144.533575 273.108163 
L 153.982025 272.975374 
L 163.430475 272.814285 
L 172.878925 272.668608 
L 182.327375 272.529984 
L 191.775825 272.34138 
L 201.224275 272.09339 
L 210.672725 271.749269 
L 220.121175 271.200173 
L 229.569625 270.305215 
L 239.018075 269.012672 
L 248.466525 267.108078 
L 257.914975 264.414323 
L 267.363425 260.894398 
L 276.811875 256.50825 
L 286.260325 251.040194 
L 295.708775 244.388962 
L 305.157225 236.819435 
L 314.605675 228.302705 
L 324.054125 218.948922 
L 333.502575 209.413326 
L 342.951025 199.350926 
L 352.399475 187.94365 
L 361.847925 175.141867 
L 371.296375 161.535248 
L 380.744825 147.009726 
L 390.193275 131.225359 
L 399.641725 116.47614 
L 409.090175 102.750751 
L 418.538625 90.49371 
L 427.987075 79.660869 
L 437.435525 69.206979 
L 446.883975 61.108471 
L 456.332425 55.315886 
L 465.780875 50.105224 
L 475.229325 46.322768 
L 484.677775 45.558597 
L 494.126225 45.518803 
L 503.574675 44.703954 
L 513.023125 43.548642 
L 522.471575 43.286981 
L 531.920025 45.731963 
L 541.368475 49.86568 
L 550.816925 54.214734 
L 560.265375 58.793753 
L 569.713825 65.263521 
L 579.162275 72.953037 
L 588.610725 80.095809 
L 598.059175 87.100479 
L 607.507625 94.853125 
L 616.956075 104.923798 
L 626.404525 117.219675 
L 635.852975 130.224169 
L 645.301425 143.473431 
L 654.749875 157.010912 
L 664.198325 170.503985 
L 673.646775 182.79307 
L 683.095225 194.278626 
L 692.543675 205.827573 
L 701.992125 216.613306 
L 711.440575 226.187476 
L 720.889025 234.112792 
L 730.337475 240.780134 
L 739.785925 246.413458 
L 749.234375 250.978197 
L 758.682825 254.709279 
L 768.131275 257.948386 
L 777.579725 260.759693 
L 787.028175 263.079026 
L 796.476625 265.111185 
L 805.925075 266.784855 
L 815.373525 268.097948 
L 824.821975 269.28426 
L 834.270425 270.277264 
L 843.718875 271.061463 
L 853.167325 271.660104 
L 862.615775 272.087208 
L 872.064225 272.47208 
L 881.512675 272.809409 
L 890.961125 273.093273 
L 900.409575 273.300686 
L 909.858025 273.404393 
L 919.306475 273.531958 
L 928.754925 273.696269 
L 938.203375 273.81025 
L 947.651825 273.853352 
L 957.100275 273.860318 
L 966.548725 273.908732 
L 975.997175 273.957581 
L 985.445625 273.958887 
" clip-path="url(#p7aec7b716b)" style="fill: none; stroke: #5cb85c; stroke-linecap: square"/>
   </g>
   <g id="line2d_16">
    <path d="M 40.600625 273.856243 
L 50.049075 273.854797 
L 59.497525 273.775172 
L 68.945975 273.691066 
L 78.394425 273.673436 
L 87.842875 273.622712 
L 97.291325 273.530225 
L 106.739775 273.433547 
L 116.188225 273.343083 
L 125.636675 273.24178 
L 135.085125 273.127183 
L 144.533575 272.996689 
L 153.982025 272.858103 
L 163.430475 272.68888 
L 172.878925 272.518646 
L 182.327375 272.348556 
L 191.775825 272.12413 
L 201.224275 271.830772 
L 210.672725 271.432787 
L 220.121175 270.810955 
L 229.569625 269.832035 
L 239.018075 268.440969 
L 248.466525 266.42258 
L 257.914975 263.597817 
L 267.363425 259.938645 
L 276.811875 255.307346 
L 286.260325 249.571113 
L 295.708775 242.775612 
L 305.157225 235.016365 
L 314.605675 226.215336 
L 324.054125 216.722531 
L 333.502575 207.255739 
L 342.951025 197.287202 
L 352.399475 185.839882 
L 361.847925 173.419566 
L 371.296375 160.285221 
L 380.744825 145.960101 
L 390.193275 130.664299 
L 399.641725 116.592653 
L 409.090175 103.574783 
L 418.538625 91.445947 
L 427.987075 80.971477 
L 437.435525 71.571882 
L 446.883975 63.953678 
L 456.332425 58.409934 
L 465.780875 53.759126 
L 475.229325 50.061515 
L 484.677775 49.468296 
L 494.126225 50.244899 
L 503.574675 50.026976 
L 513.023125 49.109907 
L 522.471575 48.238793 
L 531.920025 49.706017 
L 541.368475 53.321112 
L 550.816925 57.261936 
L 560.265375 61.449007 
L 569.713825 67.354174 
L 579.162275 74.387107 
L 588.610725 81.233765 
L 598.059175 87.894437 
L 607.507625 95.12087 
L 616.956075 104.35789 
L 626.404525 115.761279 
L 635.852975 128.467583 
L 645.301425 141.106977 
L 654.749875 154.30881 
L 664.198325 167.850967 
L 673.646775 179.962751 
L 683.095225 191.553282 
L 692.543675 203.202196 
L 701.992125 214.261359 
L 711.440575 224.084228 
L 720.889025 232.181631 
L 730.337475 239.244044 
L 739.785925 245.15528 
L 749.234375 249.903345 
L 758.682825 253.903996 
L 768.131275 257.320822 
L 777.579725 260.250067 
L 787.028175 262.673522 
L 796.476625 264.703184 
L 805.925075 266.436453 
L 815.373525 267.786622 
L 824.821975 269.008176 
L 834.270425 270.055884 
L 843.718875 270.851996 
L 853.167325 271.460823 
L 862.615775 271.915022 
L 872.064225 272.349278 
L 881.512675 272.733968 
L 890.961125 273.019955 
L 900.409575 273.232676 
L 909.858025 273.362881 
L 919.306475 273.51982 
L 928.754925 273.691355 
L 938.203375 273.804074 
L 947.651825 273.859422 
L 957.100275 273.870405 
L 966.548725 273.916504 
L 975.997175 273.962747 
L 985.445625 273.964048 
" clip-path="url(#p7aec7b716b)" style="fill: none; stroke: #5cb85c; stroke-linecap: square"/>
   </g>
   <g id="line2d_17">
    <path d="M 40.600625 273.889519 
L 50.049075 273.891042 
L 59.497525 273.818988 
L 68.945975 273.737793 
L 78.394425 273.715857 
L 87.842875 273.671832 
L 97.291325 273.594751 
L 106.739775 273.509748 
L 116.188225 273.427944 
L 125.636675 273.325423 
L 135.085125 273.204164 
L 144.533575 273.077878 
L 153.982025 272.943366 
L 163.430475 272.768791 
L 172.878925 272.615846 
L 182.327375 272.476307 
L 191.775825 272.293048 
L 201.224275 272.047332 
L 210.672725 271.664971 
L 220.121175 271.093868 
L 229.569625 270.182448 
L 239.018075 268.924922 
L 248.466525 267.148849 
L 257.914975 264.599676 
L 267.363425 261.269024 
L 276.811875 257.021011 
L 286.260325 251.540304 
L 295.708775 244.914037 
L 305.157225 237.518937 
L 314.605675 229.219423 
L 324.054125 220.124568 
L 333.502575 210.830155 
L 342.951025 201.215839 
L 352.399475 190.060044 
L 361.847925 177.730205 
L 371.296375 164.766804 
L 380.744825 150.687854 
L 390.193275 135.499753 
L 399.641725 121.326203 
L 409.090175 107.871674 
L 418.538625 95.651973 
L 427.987075 85.182904 
L 437.435525 74.855965 
L 446.883975 66.527203 
L 456.332425 60.906804 
L 465.780875 55.699691 
L 475.229325 51.386783 
L 484.677775 50.66304 
L 494.126225 50.403918 
L 503.574675 49.214182 
L 513.023125 48.105335 
L 522.471575 46.830901 
L 531.920025 47.945841 
L 541.368475 51.556179 
L 550.816925 55.170631 
L 560.265375 58.647829 
L 569.713825 64.112998 
L 579.162275 71.105326 
L 588.610725 77.703715 
L 598.059175 83.827276 
L 607.507625 90.570383 
L 616.956075 99.576121 
L 626.404525 110.971234 
L 635.852975 123.672009 
L 645.301425 136.91662 
L 654.749875 150.302294 
L 664.198325 163.845482 
L 673.646775 176.449372 
L 683.095225 188.408276 
L 692.543675 200.440149 
L 701.992125 211.85933 
L 711.440575 222.132039 
L 720.889025 230.605214 
L 730.337475 237.92887 
L 739.785925 244.063704 
L 749.234375 248.88739 
L 758.682825 252.933255 
L 768.131275 256.600414 
L 777.579725 259.696013 
L 787.028175 262.076704 
L 796.476625 264.196597 
L 805.925075 266.069556 
L 815.373525 267.490384 
L 824.821975 268.741816 
L 834.270425 269.777084 
L 843.718875 270.639757 
L 853.167325 271.329073 
L 862.615775 271.810147 
L 872.064225 272.270351 
L 881.512675 272.662004 
L 890.961125 272.95144 
L 900.409575 273.169127 
L 909.858025 273.302877 
L 919.306475 273.480195 
L 928.754925 273.67366 
L 938.203375 273.792786 
L 947.651825 273.847322 
L 957.100275 273.855853 
L 966.548725 273.904448 
L 975.997175 273.95289 
L 985.445625 273.953804 
" clip-path="url(#p7aec7b716b)" style="fill: none; stroke: #5cb85c; stroke-linecap: square"/>
   </g>
   <g id="line2d_18">
    <path d="M 40.600625 273.885807 
L 50.049075 273.885491 
L 59.497525 273.809565 
L 68.945975 273.727216 
L 78.394425 273.710893 
L 87.842875 273.67193 
L 97.291325 273.597373 
L 106.739775 273.504703 
L 116.188225 273.414667 
L 125.636675 273.320523 
L 135.085125 273.199947 
L 144.533575 273.069578 
L 153.982025 272.936681 
L 163.430475 272.764716 
L 172.878925 272.604335 
L 182.327375 272.46512 
L 191.775825 272.26746 
L 201.224275 271.990821 
L 210.672725 271.588656 
L 220.121175 270.963874 
L 229.569625 269.948827 
L 239.018075 268.477698 
L 248.466525 266.428754 
L 257.914975 263.562002 
L 267.363425 259.882285 
L 276.811875 255.36254 
L 286.260325 249.597128 
L 295.708775 242.687247 
L 305.157225 235.083924 
L 314.605675 226.55538 
L 324.054125 217.2561 
L 333.502575 207.815394 
L 342.951025 197.727159 
L 352.399475 186.331968 
L 361.847925 173.74987 
L 371.296375 160.468539 
L 380.744825 146.224919 
L 390.193275 130.730156 
L 399.641725 116.35048 
L 409.090175 102.96479 
L 418.538625 90.907329 
L 427.987075 80.498858 
L 437.435525 70.738757 
L 446.883975 63.006013 
L 456.332425 57.427098 
L 465.780875 52.133457 
L 475.229325 48.005768 
L 484.677775 47.194593 
L 494.126225 47.270203 
L 503.574675 46.28064 
L 513.023125 45.073936 
L 522.471575 44.578681 
L 531.920025 46.492517 
L 541.368475 50.644532 
L 550.816925 54.870051 
L 560.265375 59.193505 
L 569.713825 65.695746 
L 579.162275 73.270425 
L 588.610725 80.256337 
L 598.059175 87.479189 
L 607.507625 95.339775 
L 616.956075 105.181171 
L 626.404525 117.492527 
L 635.852975 130.70425 
L 645.301425 143.878485 
L 654.749875 157.221526 
L 664.198325 170.750537 
L 673.646775 183.29304 
L 683.095225 194.814072 
L 692.543675 206.331628 
L 701.992125 217.133629 
L 711.440575 226.487774 
L 720.889025 234.193349 
L 730.337475 240.714229 
L 739.785925 246.245756 
L 749.234375 250.626602 
L 758.682825 254.281466 
L 768.131275 257.580922 
L 777.579725 260.334681 
L 787.028175 262.611929 
L 796.476625 264.690359 
L 805.925075 266.427912 
L 815.373525 267.804791 
L 824.821975 269.064149 
L 834.270425 270.093834 
L 843.718875 270.901533 
L 853.167325 271.514836 
L 862.615775 271.962599 
L 872.064225 272.366343 
L 881.512675 272.712906 
L 890.961125 273.010291 
L 900.409575 273.245755 
L 909.858025 273.368227 
L 919.306475 273.512075 
L 928.754925 273.694571 
L 938.203375 273.810723 
L 947.651825 273.853899 
L 957.100275 273.862324 
L 966.548725 273.906026 
L 975.997175 273.95036 
L 985.445625 273.951729 
" clip-path="url(#p7aec7b716b)" style="fill: none; stroke: #5cb85c; stroke-linecap: square"/>
   </g>
   <g id="line2d_19">
    <path d="M 40.600625 273.877235 
L 50.049075 273.873172 
L 59.497525 273.79166 
L 68.945975 273.707161 
L 78.394425 273.691863 
L 87.842875 273.64561 
L 97.291325 273.551191 
L 106.739775 273.456652 
L 116.188225 273.378248 
L 125.636675 273.2861 
L 135.085125 273.162399 
L 144.533575 273.011448 
L 153.982025 272.847828 
L 163.430475 272.6615 
L 172.878925 272.514971 
L 182.327375 272.370713 
L 191.775825 272.160123 
L 201.224275 271.895152 
L 210.672725 271.533252 
L 220.121175 270.955144 
L 229.569625 270.054578 
L 239.018075 268.733069 
L 248.466525 266.79473 
L 257.914975 264.063389 
L 267.363425 260.559247 
L 276.811875 256.135415 
L 286.260325 250.634369 
L 295.708775 243.876235 
L 305.157225 236.143911 
L 314.605675 227.606755 
L 324.054125 218.264048 
L 333.502575 208.708002 
L 342.951025 198.592972 
L 352.399475 187.223721 
L 361.847925 174.58304 
L 371.296375 160.985022 
L 380.744825 146.398113 
L 390.193275 130.968365 
L 399.641725 116.701047 
L 409.090175 103.111992 
L 418.538625 90.525573 
L 427.987075 79.696423 
L 437.435525 69.645813 
L 446.883975 61.759311 
L 456.332425 56.231732 
L 465.780875 51.147684 
L 475.229325 47.22009 
L 484.677775 46.408803 
L 494.126225 46.434141 
L 503.574675 46.063277 
L 513.023125 45.463537 
L 522.471575 44.921762 
L 531.920025 46.814207 
L 541.368475 51.012868 
L 550.816925 55.664022 
L 560.265375 60.464933 
L 569.713825 66.836188 
L 579.162275 74.289199 
L 588.610725 81.696195 
L 598.059175 88.8681 
L 607.507625 96.623371 
L 616.956075 106.371004 
L 626.404525 118.019089 
L 635.852975 130.913148 
L 645.301425 143.892303 
L 654.749875 156.893211 
L 664.198325 170.102079 
L 673.646775 182.269708 
L 683.095225 193.581829 
L 692.543675 204.889767 
L 701.992125 215.651628 
L 711.440575 225.014533 
L 720.889025 232.840081 
L 730.337475 239.696817 
L 739.785925 245.366861 
L 749.234375 249.885112 
L 758.682825 253.703108 
L 768.131275 257.151316 
L 777.579725 260.080937 
L 787.028175 262.413566 
L 796.476625 264.451344 
L 805.925075 266.148856 
L 815.373525 267.480523 
L 824.821975 268.740599 
L 834.270425 269.821279 
L 843.718875 270.697703 
L 853.167325 271.360071 
L 862.615775 271.835035 
L 872.064225 272.288485 
L 881.512675 272.679308 
L 890.961125 272.974159 
L 900.409575 273.195147 
L 909.858025 273.333549 
L 919.306475 273.501113 
L 928.754925 273.679911 
L 938.203375 273.791541 
L 947.651825 273.842575 
L 957.100275 273.853929 
L 966.548725 273.903649 
L 975.997175 273.955161 
L 985.445625 273.958029 
" clip-path="url(#p7aec7b716b)" style="fill: none; stroke: #5cb85c; stroke-linecap: square"/>
   </g>
   <g id="line2d_20">
    <path d="M 40.600625 273.99006 
L 985.445625 273.99006 
" clip-path="url(#p7aec7b716b)" style="fill: none; stroke: #dedede; stroke-width: 2; stroke-linecap: square"/>
   </g>
   <g id="text_16">
    <!-- FastQC: Per Sequence GC Content -->
    <g transform="translate(376.386875 19.3575)scale(0.16 -0.16)">
     <defs>
      <path id="DejaVuSans-46" d="M 628 4666 
L 3309 4666 
L 3309 4134 
L 1259 4134 
L 1259 2759 
L 3109 2759 
L 3109 2228 
L 1259 2228 
L 1259 0 
L 628 0 
L 628 4666 
z
" transform="scale(0.015625)"/>
      <path id="DejaVuSans-73" d="M 2834 3397 
L 2834 2853 
Q 2591 2978 2328 3040 
Q 2066 3103 1784 3103 
Q 1356 3103 1142 2972 
Q 928 2841 928 2578 
Q 928 2378 1081 2264 
Q 1234 2150 1697 2047 
L 1894 2003 
Q 2506 1872 2764 1633 
Q 3022 1394 3022 966 
Q 3022 478 2636 193 
Q 2250 -91 1575 -91 
Q 1294 -91 989 -36 
Q 684 19 347 128 
L 347 722 
Q 666 556 975 473 
Q 1284 391 1588 391 
Q 1994 391 2212 530 
Q 2431 669 2431 922 
Q 2431 1156 2273 1281 
Q 2116 1406 1581 1522 
L 1381 1569 
Q 847 1681 609 1914 
Q 372 2147 372 2553 
Q 372 3047 722 3315 
Q 1072 3584 1716 3584 
Q 2034 3584 2315 3537 
Q 2597 3491 2834 3397 
z
" transform="scale(0.015625)"/>
      <path id="DejaVuSans-51" d="M 2522 4238 
Q 1834 4238 1429 3725 
Q 1025 3213 1025 2328 
Q 1025 1447 1429 934 
Q 1834 422 2522 422 
Q 3209 422 3611 934 
Q 4013 1447 4013 2328 
Q 4013 3213 3611 3725 
Q 3209 4238 2522 4238 
z
M 3406 84 
L 4238 -825 
L 3475 -825 
L 2784 -78 
Q 2681 -84 2626 -87 
Q 2572 -91 2522 -91 
Q 1538 -91 948 567 
Q 359 1225 359 2328 
Q 359 3434 948 4092 
Q 1538 4750 2522 4750 
Q 3503 4750 4090 4092 
Q 4678 3434 4678 2328 
Q 4678 1516 4351 937 
Q 4025 359 3406 84 
z
" transform="scale(0.015625)"/>
      <path id="DejaVuSans-3a" d="M 750 794 
L 1409 794 
L 1409 0 
L 750 0 
L 750 794 
z
M 750 3309 
L 1409 3309 
L 1409 2516 
L 750 2516 
L 750 3309 
z
" transform="scale(0.015625)"/>
      <path id="DejaVuSans-53" d="M 3425 4513 
L 3425 3897 
Q 3066 4069 2747 4153 
Q 2428 4238 2131 4238 
Q 1616 4238 1336 4038 
Q 1056 3838 1056 3469 
Q 1056 3159 1242 3001 
Q 1428 2844 1947 2747 
L 2328 2669 
Q 3034 2534 3370 2195 
Q 3706 1856 3706 1288 
Q 3706 609 3251 259 
Q 2797 -91 1919 -91 
Q 1588 -91 1214 -16 
Q 841 59 441 206 
L 441 856 
Q 825 641 1194 531 
Q 1563 422 1919 422 
Q 2459 422 2753 634 
Q 3047 847 3047 1241 
Q 3047 1584 2836 1778 
Q 2625 1972 2144 2069 
L 1759 2144 
Q 1053 2284 737 2584 
Q 422 2884 422 3419 
Q 422 4038 858 4394 
Q 1294 4750 2059 4750 
Q 2388 4750 2728 4690 
Q 3069 4631 3425 4513 
z
" transform="scale(0.015625)"/>
      <path id="DejaVuSans-71" d="M 947 1747 
Q 947 1113 1208 752 
Q 1469 391 1925 391 
Q 2381 391 2643 752 
Q 2906 1113 2906 1747 
Q 2906 2381 2643 2742 
Q 2381 3103 1925 3103 
Q 1469 3103 1208 2742 
Q 947 2381 947 1747 
z
M 2906 525 
Q 2725 213 2448 61 
Q 2172 -91 1784 -91 
Q 1150 -91 751 415 
Q 353 922 353 1747 
Q 353 2572 751 3078 
Q 1150 3584 1784 3584 
Q 2172 3584 2448 3432 
Q 2725 3281 2906 2969 
L 2906 3500 
L 3481 3500 
L 3481 -1331 
L 2906 -1331 
L 2906 525 
z
" transform="scale(0.015625)"/>
      <path id="DejaVuSans-75" d="M 544 1381 
L 544 3500 
L 1119 3500 
L 1119 1403 
Q 1119 906 1312 657 
Q 1506 409 1894 409 
Q 2359 409 2629 706 
Q 2900 1003 2900 1516 
L 2900 3500 
L 3475 3500 
L 3475 0 
L 2900 0 
L 2900 538 
Q 2691 219 2414 64 
Q 2138 -91 1772 -91 
Q 1169 -91 856 284 
Q 544 659 544 1381 
z
M 1991 3584 
L 1991 3584 
z
" transform="scale(0.015625)"/>
      <path id="DejaVuSans-6f" d="M 1959 3097 
Q 1497 3097 1228 2736 
Q 959 2375 959 1747 
Q 959 1119 1226 758 
Q 1494 397 1959 397 
Q 2419 397 2687 759 
Q 2956 1122 2956 1747 
Q 2956 2369 2687 2733 
Q 2419 3097 1959 3097 
z
M 1959 3584 
Q 2709 3584 3137 3096 
Q 3566 2609 3566 1747 
Q 3566 888 3137 398 
Q 2709 -91 1959 -91 
Q 1206 -91 779 398 
Q 353 888 353 1747 
Q 353 2609 779 3096 
Q 1206 3584 1959 3584 
z
" transform="scale(0.015625)"/>
     </defs>
     <use xlink:href="#DejaVuSans-46"/>
     <use xlink:href="#DejaVuSans-61" x="48.394531"/>
     <use xlink:href="#DejaVuSans-73" x="109.673828"/>
     <use xlink:href="#DejaVuSans-74" x="161.773438"/>
     <use xlink:href="#DejaVuSans-51" x="200.982422"/>
     <use xlink:href="#DejaVuSans-43" x="279.693359"/>
     <use xlink:href="#DejaVuSans-3a" x="349.517578"/>
     <use xlink:href="#DejaVuSans-20" x="383.208984"/>
     <use xlink:href="#DejaVuSans-50" x="414.996094"/>
     <use xlink:href="#DejaVuSans-65" x="471.673828"/>
     <use xlink:href="#DejaVuSans-72" x="533.197266"/>
     <use xlink:href="#DejaVuSans-20" x="574.310547"/>
     <use xlink:href="#DejaVuSans-53" x="606.097656"/>
     <use xlink:href="#DejaVuSans-65" x="669.574219"/>
     <use xlink:href="#DejaVuSans-71" x="731.097656"/>
     <use xlink:href="#DejaVuSans-75" x="794.574219"/>
     <use xlink:href="#DejaVuSans-65" x="857.953125"/>
     <use xlink:href="#DejaVuSans-6e" x="919.476562"/>
     <use xlink:href="#DejaVuSans-63" x="982.855469"/>
     <use xlink:href="#DejaVuSans-65" x="1037.835938"/>
     <use xlink:href="#DejaVuSans-20" x="1099.359375"/>
     <use xlink:href="#DejaVuSans-47" x="1131.146484"/>
     <use xlink:href="#DejaVuSans-43" x="1208.636719"/>
     <use xlink:href="#DejaVuSans-20" x="1278.460938"/>
     <use xlink:href="#DejaVuSans-43" x="1310.248047"/>
     <use xlink:href="#DejaVuSans-6f" x="1380.072266"/>
     <use xlink:href="#DejaVuSans-6e" x="1441.253906"/>
     <use xlink:href="#DejaVuSans-74" x="1504.632812"/>
     <use xlink:href="#DejaVuSans-65" x="1543.841797"/>
     <use xlink:href="#DejaVuSans-6e" x="1605.365234"/>
     <use xlink:href="#DejaVuSans-74" x="1668.744141"/>
    </g>
   </g>
   <g id="legend_1">
    <g id="line2d_21">
     <path d="M 47.800625 292.192894 
L 55.800625 292.192894 
L 63.800625 292.192894 
" style="fill: none; stroke: #5cb85c; stroke-linecap: square"/>
    </g>
    <g id="text_17">
     <!-- SRR2155413 -->
     <g transform="translate(70.200625 294.992894)scale(0.08 -0.08)">
      <defs>
       <path id="DejaVuSans-52" d="M 2841 2188 
Q 3044 2119 3236 1894 
Q 3428 1669 3622 1275 
L 4263 0 
L 3584 0 
L 2988 1197 
Q 2756 1666 2539 1819 
Q 2322 1972 1947 1972 
L 1259 1972 
L 1259 0 
L 628 0 
L 628 4666 
L 2053 4666 
Q 2853 4666 3247 4331 
Q 3641 3997 3641 3322 
Q 3641 2881 3436 2590 
Q 3231 2300 2841 2188 
z
M 1259 4147 
L 1259 2491 
L 2053 2491 
Q 2509 2491 2742 2702 
Q 2975 2913 2975 3322 
Q 2975 3731 2742 3939 
Q 2509 4147 2053 4147 
L 1259 4147 
z
" transform="scale(0.015625)"/>
      </defs>
      <use xlink:href="#DejaVuSans-53"/>
      <use xlink:href="#DejaVuSans-52" x="63.476562"/>
      <use xlink:href="#DejaVuSans-52" x="132.958984"/>
      <use xlink:href="#DejaVuSans-32" x="202.441406"/>
      <use xlink:href="#DejaVuSans-31" x="266.064453"/>
      <use xlink:href="#DejaVuSans-35" x="329.6875"/>
      <use xlink:href="#DejaVuSans-35" x="393.310547"/>
      <use xlink:href="#DejaVuSans-34" x="456.933594"/>
      <use xlink:href="#DejaVuSans-31" x="520.556641"/>
      <use xlink:href="#DejaVuSans-33" x="584.179688"/>
     </g>
    </g>
    <g id="line2d_22">
     <path d="M 47.800625 303.935394 
L 55.800625 303.935394 
L 63.800625 303.935394 
" style="fill: none; stroke: #5cb85c; stroke-linecap: square"/>
    </g>
    <g id="text_18">
     <!-- SRR2155414 -->
     <g transform="translate(70.200625 306.735394)scale(0.08 -0.08)">
      <use xlink:href="#DejaVuSans-53"/>
      <use xlink:href="#DejaVuSans-52" x="63.476562"/>
      <use xlink:href="#DejaVuSans-52" x="132.958984"/>
      <use xlink:href="#DejaVuSans-32" x="202.441406"/>
      <use xlink:href="#DejaVuSans-31" x="266.064453"/>
      <use xlink:href="#DejaVuSans-35" x="329.6875"/>
      <use xlink:href="#DejaVuSans-35" x="393.310547"/>
      <use xlink:href="#DejaVuSans-34" x="456.933594"/>
      <use xlink:href="#DejaVuSans-31" x="520.556641"/>
      <use xlink:href="#DejaVuSans-34" x="584.179688"/>
     </g>
    </g>
    <g id="line2d_23">
     <path d="M 47.800625 315.677894 
L 55.800625 315.677894 
L 63.800625 315.677894 
" style="fill: none; stroke: #5cb85c; stroke-linecap: square"/>
    </g>
    <g id="text_19">
     <!-- SRR2155415 -->
     <g transform="translate(70.200625 318.477894)scale(0.08 -0.08)">
      <use xlink:href="#DejaVuSans-53"/>
      <use xlink:href="#DejaVuSans-52" x="63.476562"/>
      <use xlink:href="#DejaVuSans-52" x="132.958984"/>
      <use xlink:href="#DejaVuSans-32" x="202.441406"/>
      <use xlink:href="#DejaVuSans-31" x="266.064453"/>
      <use xlink:href="#DejaVuSans-35" x="329.6875"/>
      <use xlink:href="#DejaVuSans-35" x="393.310547"/>
      <use xlink:href="#DejaVuSans-34" x="456.933594"/>
      <use xlink:href="#DejaVuSans-31" x="520.556641"/>
      <use xlink:href="#DejaVuSans-35" x="584.179688"/>
     </g>
    </g>
    <g id="line2d_24">
     <path d="M 261.855313 292.192894 
L 269.855313 292.192894 
L 277.855313 292.192894 
" style="fill: none; stroke: #5cb85c; stroke-linecap: square"/>
    </g>
    <g id="text_20">
     <!-- SRR2155416 -->
     <g transform="translate(284.255313 294.992894)scale(0.08 -0.08)">
      <use xlink:href="#DejaVuSans-53"/>
      <use xlink:href="#DejaVuSans-52" x="63.476562"/>
      <use xlink:href="#DejaVuSans-52" x="132.958984"/>
      <use xlink:href="#DejaVuSans-32" x="202.441406"/>
      <use xlink:href="#DejaVuSans-31" x="266.064453"/>
      <use xlink:href="#DejaVuSans-35" x="329.6875"/>
      <use xlink:href="#DejaVuSans-35" x="393.310547"/>
      <use xlink:href="#DejaVuSans-34" x="456.933594"/>
      <use xlink:href="#DejaVuSans-31" x="520.556641"/>
      <use xlink:href="#DejaVuSans-36" x="584.179688"/>
     </g>
    </g>
    <g id="line2d_25">
     <path d="M 261.855313 303.935394 
L 269.855313 303.935394 
L 277.855313 303.935394 
" style="fill: none; stroke: #5cb85c; stroke-linecap: square"/>
    </g>
    <g id="text_21">
     <!-- SRR2155417 -->
     <g transform="translate(284.255313 306.735394)scale(0.08 -0.08)">
      <defs>
       <path id="DejaVuSans-37" d="M 525 4666 
L 3525 4666 
L 3525 4397 
L 1831 0 
L 1172 0 
L 2766 4134 
L 525 4134 
L 525 4666 
z
" transform="scale(0.015625)"/>
      </defs>
      <use xlink:href="#DejaVuSans-53"/>
      <use xlink:href="#DejaVuSans-52" x="63.476562"/>
      <use xlink:href="#DejaVuSans-52" x="132.958984"/>
      <use xlink:href="#DejaVuSans-32" x="202.441406"/>
      <use xlink:href="#DejaVuSans-31" x="266.064453"/>
      <use xlink:href="#DejaVuSans-35" x="329.6875"/>
      <use xlink:href="#DejaVuSans-35" x="393.310547"/>
      <use xlink:href="#DejaVuSans-34" x="456.933594"/>
      <use xlink:href="#DejaVuSans-31" x="520.556641"/>
      <use xlink:href="#DejaVuSans-37" x="584.179688"/>
     </g>
    </g>
    <g id="line2d_26">
     <path d="M 261.855313 315.677894 
L 269.855313 315.677894 
L 277.855313 315.677894 
" style="fill: none; stroke: #5cb85c; stroke-linecap: square"/>
    </g>
    <g id="text_22">
     <!-- SRR2155418 -->
     <g transform="translate(284.255313 318.477894)scale(0.08 -0.08)">
      <use xlink:href="#DejaVuSans-53"/>
      <use xlink:href="#DejaVuSans-52" x="63.476562"/>
      <use xlink:href="#DejaVuSans-52" x="132.958984"/>
      <use xlink:href="#DejaVuSans-32" x="202.441406"/>
      <use xlink:href="#DejaVuSans-31" x="266.064453"/>
      <use xlink:href="#DejaVuSans-35" x="329.6875"/>
      <use xlink:href="#DejaVuSans-35" x="393.310547"/>
      <use xlink:href="#DejaVuSans-34" x="456.933594"/>
      <use xlink:href="#DejaVuSans-31" x="520.556641"/>
      <use xlink:href="#DejaVuSans-38" x="584.179688"/>
     </g>
    </g>
    <g id="line2d_27">
     <path d="M 475.91 292.192894 
L 483.91 292.192894 
L 491.91 292.192894 
" style="fill: none; stroke: #5cb85c; stroke-linecap: square"/>
    </g>
    <g id="text_23">
     <!-- SRR2155419 -->
     <g transform="translate(498.31 294.992894)scale(0.08 -0.08)">
      <defs>
       <path id="DejaVuSans-39" d="M 703 97 
L 703 672 
Q 941 559 1184 500 
Q 1428 441 1663 441 
Q 2288 441 2617 861 
Q 2947 1281 2994 2138 
Q 2813 1869 2534 1725 
Q 2256 1581 1919 1581 
Q 1219 1581 811 2004 
Q 403 2428 403 3163 
Q 403 3881 828 4315 
Q 1253 4750 1959 4750 
Q 2769 4750 3195 4129 
Q 3622 3509 3622 2328 
Q 3622 1225 3098 567 
Q 2575 -91 1691 -91 
Q 1453 -91 1209 -44 
Q 966 3 703 97 
z
M 1959 2075 
Q 2384 2075 2632 2365 
Q 2881 2656 2881 3163 
Q 2881 3666 2632 3958 
Q 2384 4250 1959 4250 
Q 1534 4250 1286 3958 
Q 1038 3666 1038 3163 
Q 1038 2656 1286 2365 
Q 1534 2075 1959 2075 
z
" transform="scale(0.015625)"/>
      </defs>
      <use xlink:href="#DejaVuSans-53"/>
      <use xlink:href="#DejaVuSans-52" x="63.476562"/>
      <use xlink:href="#DejaVuSans-52" x="132.958984"/>
      <use xlink:href="#DejaVuSans-32" x="202.441406"/>
      <use xlink:href="#DejaVuSans-31" x="266.064453"/>
      <use xlink:href="#DejaVuSans-35" x="329.6875"/>
      <use xlink:href="#DejaVuSans-35" x="393.310547"/>
      <use xlink:href="#DejaVuSans-34" x="456.933594"/>
      <use xlink:href="#DejaVuSans-31" x="520.556641"/>
      <use xlink:href="#DejaVuSans-39" x="584.179688"/>
     </g>
    </g>
    <g id="line2d_28">
     <path d="M 475.91 303.935394 
L 483.91 303.935394 
L 491.91 303.935394 
" style="fill: none; stroke: #5cb85c; stroke-linecap: square"/>
    </g>
    <g id="text_24">
     <!-- SRR2155420 -->
     <g transform="translate(498.31 306.735394)scale(0.08 -0.08)">
      <use xlink:href="#DejaVuSans-53"/>
      <use xlink:href="#DejaVuSans-52" x="63.476562"/>
      <use xlink:href="#DejaVuSans-52" x="132.958984"/>
      <use xlink:href="#DejaVuSans-32" x="202.441406"/>
      <use xlink:href="#DejaVuSans-31" x="266.064453"/>
      <use xlink:href="#DejaVuSans-35" x="329.6875"/>
      <use xlink:href="#DejaVuSans-35" x="393.310547"/>
      <use xlink:href="#DejaVuSans-34" x="456.933594"/>
      <use xlink:href="#DejaVuSans-32" x="520.556641"/>
      <use xlink:href="#DejaVuSans-30" x="584.179688"/>
     </g>
    </g>
    <g id="line2d_29">
     <path d="M 689.964687 292.192894 
L 697.964687 292.192894 
L 705.964687 292.192894 
" style="fill: none; stroke: #5cb85c; stroke-linecap: square"/>
    </g>
    <g id="text_25">
     <!-- SRR2155421 -->
     <g transform="translate(712.364687 294.992894)scale(0.08 -0.08)">
      <use xlink:href="#DejaVuSans-53"/>
      <use xlink:href="#DejaVuSans-52" x="63.476562"/>
      <use xlink:href="#DejaVuSans-52" x="132.958984"/>
      <use xlink:href="#DejaVuSans-32" x="202.441406"/>
      <use xlink:href="#DejaVuSans-31" x="266.064453"/>
      <use xlink:href="#DejaVuSans-35" x="329.6875"/>
      <use xlink:href="#DejaVuSans-35" x="393.310547"/>
      <use xlink:href="#DejaVuSans-34" x="456.933594"/>
      <use xlink:href="#DejaVuSans-32" x="520.556641"/>
      <use xlink:href="#DejaVuSans-31" x="584.179688"/>
     </g>
    </g>
    <g id="line2d_30">
     <path d="M 689.964687 303.935394 
L 697.964687 303.935394 
L 705.964687 303.935394 
" style="fill: none; stroke: #5cb85c; stroke-linecap: square"/>
    </g>
    <g id="text_26">
     <!-- SRR2155422 -->
     <g transform="translate(712.364687 306.735394)scale(0.08 -0.08)">
      <use xlink:href="#DejaVuSans-53"/>
      <use xlink:href="#DejaVuSans-52" x="63.476562"/>
      <use xlink:href="#DejaVuSans-52" x="132.958984"/>
      <use xlink:href="#DejaVuSans-32" x="202.441406"/>
      <use xlink:href="#DejaVuSans-31" x="266.064453"/>
      <use xlink:href="#DejaVuSans-35" x="329.6875"/>
      <use xlink:href="#DejaVuSans-35" x="393.310547"/>
      <use xlink:href="#DejaVuSans-34" x="456.933594"/>
      <use xlink:href="#DejaVuSans-32" x="520.556641"/>
      <use xlink:href="#DejaVuSans-32" x="584.179688"/>
     </g>
    </g>
    <g id="line2d_31">
     <path d="M 904.019375 292.192894 
L 912.019375 292.192894 
L 920.019375 292.192894 
" style="fill: none; stroke: #5cb85c; stroke-linecap: square"/>
    </g>
    <g id="text_27">
     <!-- SRR2155423 -->
     <g transform="translate(926.419375 294.992894)scale(0.08 -0.08)">
      <use xlink:href="#DejaVuSans-53"/>
      <use xlink:href="#DejaVuSans-52" x="63.476562"/>
      <use xlink:href="#DejaVuSans-52" x="132.958984"/>
      <use xlink:href="#DejaVuSans-32" x="202.441406"/>
      <use xlink:href="#DejaVuSans-31" x="266.064453"/>
      <use xlink:href="#DejaVuSans-35" x="329.6875"/>
      <use xlink:href="#DejaVuSans-35" x="393.310547"/>
      <use xlink:href="#DejaVuSans-34" x="456.933594"/>
      <use xlink:href="#DejaVuSans-32" x="520.556641"/>
      <use xlink:href="#DejaVuSans-33" x="584.179688"/>
     </g>
    </g>
    <g id="line2d_32">
     <path d="M 904.019375 303.935394 
L 912.019375 303.935394 
L 920.019375 303.935394 
" style="fill: none; stroke: #5cb85c; stroke-linecap: square"/>
    </g>
    <g id="text_28">
     <!-- SRR2155424 -->
     <g transform="translate(926.419375 306.735394)scale(0.08 -0.08)">
      <use xlink:href="#DejaVuSans-53"/>
      <use xlink:href="#DejaVuSans-52" x="63.476562"/>
      <use xlink:href="#DejaVuSans-52" x="132.958984"/>
      <use xlink:href="#DejaVuSans-32" x="202.441406"/>
      <use xlink:href="#DejaVuSans-31" x="266.064453"/>
      <use xlink:href="#DejaVuSans-35" x="329.6875"/>
      <use xlink:href="#DejaVuSans-35" x="393.310547"/>
      <use xlink:href="#DejaVuSans-34" x="456.933594"/>
      <use xlink:href="#DejaVuSans-32" x="520.556641"/>
      <use xlink:href="#DejaVuSans-34" x="584.179688"/>
     </g>
    </g>
   </g>
  </g>
 </g>
 <defs>
  <clipPath id="p7aec7b716b">
   <rect x="40.600625" y="31.48286" width="944.845" height="242.5072"/>
  </clipPath>
 </defs>
</svg>
