<?xml version="1.0" encoding="utf-8" standalone="no"?>
<!DOCTYPE svg PUBLIC "-//W3C//DTD SVG 1.1//EN"
  "http://www.w3.org/Graphics/SVG/1.1/DTD/svg11.dtd">
<svg xmlns:xlink="http://www.w3.org/1999/xlink" width="1000.138125pt" height="330.541644pt" viewBox="0 0 1000.138125 330.541644" xmlns="http://www.w3.org/2000/svg" version="1.1">
 <metadata>
  <rdf:RDF xmlns:dc="http://purl.org/dc/elements/1.1/" xmlns:cc="http://creativecommons.org/ns#" xmlns:rdf="http://www.w3.org/1999/02/22-rdf-syntax-ns#">
   <cc:Work>
    <dc:type rdf:resource="http://purl.org/dc/dcmitype/StillImage"/>
    <dc:date>2024-08-14T16:02:00.881985</dc:date>
    <dc:format>image/svg+xml</dc:format>
    <dc:creator>
     <cc:Agent>
      <dc:title>Matplotlib v3.5.3, https://matplotlib.org/</dc:title>
     </cc:Agent>
    </dc:creator>
   </cc:Work>
  </rdf:RDF>
 </metadata>
 <defs>
  <style type="text/css">*{stroke-linejoin: round; stroke-linecap: butt}</style>
 </defs>
 <g id="figure_1">
  <g id="axes_1">
   <g id="patch_1">
    <path d="M 53.328125 273.99006 
L 985.303125 273.99006 
L 985.303125 31.48286 
L 53.328125 31.48286 
z
" style="fill: #ffffff"/>
   </g>
   <g id="matplotlib.axis_1">
    <g id="xtick_1">
     <g id="text_1">
      <!-- 0 -->
      <g transform="translate(50.783125 287.06881)scale(0.08 -0.08)">
       <defs>
        <path id="DejaVuSans-30" d="M 2034 4250 
Q 1547 4250 1301 3770 
Q 1056 3291 1056 2328 
Q 1056 1369 1301 889 
Q 1547 409 2034 409 
Q 2525 409 2770 889 
Q 3016 1369 3016 2328 
Q 3016 3291 2770 3770 
Q 2525 4250 2034 4250 
z
M 2034 4750 
Q 2819 4750 3233 4129 
Q 3647 3509 3647 2328 
Q 3647 1150 3233 529 
Q 2819 -91 2034 -91 
Q 1250 -91 836 529 
Q 422 1150 422 2328 
Q 422 3509 836 4129 
Q 1250 4750 2034 4750 
z
" transform="scale(0.015625)"/>
       </defs>
       <use xlink:href="#DejaVuSans-30"/>
      </g>
     </g>
    </g>
    <g id="xtick_2">
     <g id="text_2">
      <!-- 20 -->
      <g transform="translate(234.633125 287.06881)scale(0.08 -0.08)">
       <defs>
        <path id="DejaVuSans-32" d="M 1228 531 
L 3431 531 
L 3431 0 
L 469 0 
L 469 531 
Q 828 903 1448 1529 
Q 2069 2156 2228 2338 
Q 2531 2678 2651 2914 
Q 2772 3150 2772 3378 
Q 2772 3750 2511 3984 
Q 2250 4219 1831 4219 
Q 1534 4219 1204 4116 
Q 875 4013 500 3803 
L 500 4441 
Q 881 4594 1212 4672 
Q 1544 4750 1819 4750 
Q 2544 4750 2975 4387 
Q 3406 4025 3406 3419 
Q 3406 3131 3298 2873 
Q 3191 2616 2906 2266 
Q 2828 2175 2409 1742 
Q 1991 1309 1228 531 
z
" transform="scale(0.015625)"/>
       </defs>
       <use xlink:href="#DejaVuSans-32"/>
       <use xlink:href="#DejaVuSans-30" x="63.623047"/>
      </g>
     </g>
    </g>
    <g id="xtick_3">
     <g id="text_3">
      <!-- 40 -->
      <g transform="translate(421.028125 287.06881)scale(0.08 -0.08)">
       <defs>
        <path id="DejaVuSans-34" d="M 2419 4116 
L 825 1625 
L 2419 1625 
L 2419 4116 
z
M 2253 4666 
L 3047 4666 
L 3047 1625 
L 3713 1625 
L 3713 1100 
L 3047 1100 
L 3047 0 
L 2419 0 
L 2419 1100 
L 313 1100 
L 313 1709 
L 2253 4666 
z
" transform="scale(0.015625)"/>
       </defs>
       <use xlink:href="#DejaVuSans-34"/>
       <use xlink:href="#DejaVuSans-30" x="63.623047"/>
      </g>
     </g>
    </g>
    <g id="xtick_4">
     <g id="text_4">
      <!-- 60 -->
      <g transform="translate(607.423125 287.06881)scale(0.08 -0.08)">
       <defs>
        <path id="DejaVuSans-36" d="M 2113 2584 
Q 1688 2584 1439 2293 
Q 1191 2003 1191 1497 
Q 1191 994 1439 701 
Q 1688 409 2113 409 
Q 2538 409 2786 701 
Q 3034 994 3034 1497 
Q 3034 2003 2786 2293 
Q 2538 2584 2113 2584 
z
M 3366 4563 
L 3366 3988 
Q 3128 4100 2886 4159 
Q 2644 4219 2406 4219 
Q 1781 4219 1451 3797 
Q 1122 3375 1075 2522 
Q 1259 2794 1537 2939 
Q 1816 3084 2150 3084 
Q 2853 3084 3261 2657 
Q 3669 2231 3669 1497 
Q 3669 778 3244 343 
Q 2819 -91 2113 -91 
Q 1303 -91 875 529 
Q 447 1150 447 2328 
Q 447 3434 972 4092 
Q 1497 4750 2381 4750 
Q 2619 4750 2861 4703 
Q 3103 4656 3366 4563 
z
" transform="scale(0.015625)"/>
       </defs>
       <use xlink:href="#DejaVuSans-36"/>
       <use xlink:href="#DejaVuSans-30" x="63.623047"/>
      </g>
     </g>
    </g>
    <g id="xtick_5">
     <g id="text_5">
      <!-- 80 -->
      <g transform="translate(793.818125 287.06881)scale(0.08 -0.08)">
       <defs>
        <path id="DejaVuSans-38" d="M 2034 2216 
Q 1584 2216 1326 1975 
Q 1069 1734 1069 1313 
Q 1069 891 1326 650 
Q 1584 409 2034 409 
Q 2484 409 2743 651 
Q 3003 894 3003 1313 
Q 3003 1734 2745 1975 
Q 2488 2216 2034 2216 
z
M 1403 2484 
Q 997 2584 770 2862 
Q 544 3141 544 3541 
Q 544 4100 942 4425 
Q 1341 4750 2034 4750 
Q 2731 4750 3128 4425 
Q 3525 4100 3525 3541 
Q 3525 3141 3298 2862 
Q 3072 2584 2669 2484 
Q 3125 2378 3379 2068 
Q 3634 1759 3634 1313 
Q 3634 634 3220 271 
Q 2806 -91 2034 -91 
Q 1263 -91 848 271 
Q 434 634 434 1313 
Q 434 1759 690 2068 
Q 947 2378 1403 2484 
z
M 1172 3481 
Q 1172 3119 1398 2916 
Q 1625 2713 2034 2713 
Q 2441 2713 2670 2916 
Q 2900 3119 2900 3481 
Q 2900 3844 2670 4047 
Q 2441 4250 2034 4250 
Q 1625 4250 1398 4047 
Q 1172 3844 1172 3481 
z
" transform="scale(0.015625)"/>
       </defs>
       <use xlink:href="#DejaVuSans-38"/>
       <use xlink:href="#DejaVuSans-30" x="63.623047"/>
      </g>
     </g>
    </g>
    <g id="xtick_6">
     <g id="text_6">
      <!-- 100 -->
      <g transform="translate(977.668125 287.06881)scale(0.08 -0.08)">
       <defs>
        <path id="DejaVuSans-31" d="M 794 531 
L 1825 531 
L 1825 4091 
L 703 3866 
L 703 4441 
L 1819 4666 
L 2450 4666 
L 2450 531 
L 3481 531 
L 3481 0 
L 794 0 
L 794 531 
z
" transform="scale(0.015625)"/>
       </defs>
       <use xlink:href="#DejaVuSans-31"/>
       <use xlink:href="#DejaVuSans-30" x="63.623047"/>
       <use xlink:href="#DejaVuSans-30" x="127.246094"/>
      </g>
     </g>
    </g>
    <g id="text_7">
     <!-- Transcript Position (%) -->
     <g transform="translate(463.483594 300.330997)scale(0.1 -0.1)">
      <defs>
       <path id="DejaVuSans-54" d="M -19 4666 
L 3928 4666 
L 3928 4134 
L 2272 4134 
L 2272 0 
L 1638 0 
L 1638 4134 
L -19 4134 
L -19 4666 
z
" transform="scale(0.015625)"/>
       <path id="DejaVuSans-72" d="M 2631 2963 
Q 2534 3019 2420 3045 
Q 2306 3072 2169 3072 
Q 1681 3072 1420 2755 
Q 1159 2438 1159 1844 
L 1159 0 
L 581 0 
L 581 3500 
L 1159 3500 
L 1159 2956 
Q 1341 3275 1631 3429 
Q 1922 3584 2338 3584 
Q 2397 3584 2469 3576 
Q 2541 3569 2628 3553 
L 2631 2963 
z
" transform="scale(0.015625)"/>
       <path id="DejaVuSans-61" d="M 2194 1759 
Q 1497 1759 1228 1600 
Q 959 1441 959 1056 
Q 959 750 1161 570 
Q 1363 391 1709 391 
Q 2188 391 2477 730 
Q 2766 1069 2766 1631 
L 2766 1759 
L 2194 1759 
z
M 3341 1997 
L 3341 0 
L 2766 0 
L 2766 531 
Q 2569 213 2275 61 
Q 1981 -91 1556 -91 
Q 1019 -91 701 211 
Q 384 513 384 1019 
Q 384 1609 779 1909 
Q 1175 2209 1959 2209 
L 2766 2209 
L 2766 2266 
Q 2766 2663 2505 2880 
Q 2244 3097 1772 3097 
Q 1472 3097 1187 3025 
Q 903 2953 641 2809 
L 641 3341 
Q 956 3463 1253 3523 
Q 1550 3584 1831 3584 
Q 2591 3584 2966 3190 
Q 3341 2797 3341 1997 
z
" transform="scale(0.015625)"/>
       <path id="DejaVuSans-6e" d="M 3513 2113 
L 3513 0 
L 2938 0 
L 2938 2094 
Q 2938 2591 2744 2837 
Q 2550 3084 2163 3084 
Q 1697 3084 1428 2787 
Q 1159 2491 1159 1978 
L 1159 0 
L 581 0 
L 581 3500 
L 1159 3500 
L 1159 2956 
Q 1366 3272 1645 3428 
Q 1925 3584 2291 3584 
Q 2894 3584 3203 3211 
Q 3513 2838 3513 2113 
z
" transform="scale(0.015625)"/>
       <path id="DejaVuSans-73" d="M 2834 3397 
L 2834 2853 
Q 2591 2978 2328 3040 
Q 2066 3103 1784 3103 
Q 1356 3103 1142 2972 
Q 928 2841 928 2578 
Q 928 2378 1081 2264 
Q 1234 2150 1697 2047 
L 1894 2003 
Q 2506 1872 2764 1633 
Q 3022 1394 3022 966 
Q 3022 478 2636 193 
Q 2250 -91 1575 -91 
Q 1294 -91 989 -36 
Q 684 19 347 128 
L 347 722 
Q 666 556 975 473 
Q 1284 391 1588 391 
Q 1994 391 2212 530 
Q 2431 669 2431 922 
Q 2431 1156 2273 1281 
Q 2116 1406 1581 1522 
L 1381 1569 
Q 847 1681 609 1914 
Q 372 2147 372 2553 
Q 372 3047 722 3315 
Q 1072 3584 1716 3584 
Q 2034 3584 2315 3537 
Q 2597 3491 2834 3397 
z
" transform="scale(0.015625)"/>
       <path id="DejaVuSans-63" d="M 3122 3366 
L 3122 2828 
Q 2878 2963 2633 3030 
Q 2388 3097 2138 3097 
Q 1578 3097 1268 2742 
Q 959 2388 959 1747 
Q 959 1106 1268 751 
Q 1578 397 2138 397 
Q 2388 397 2633 464 
Q 2878 531 3122 666 
L 3122 134 
Q 2881 22 2623 -34 
Q 2366 -91 2075 -91 
Q 1284 -91 818 406 
Q 353 903 353 1747 
Q 353 2603 823 3093 
Q 1294 3584 2113 3584 
Q 2378 3584 2631 3529 
Q 2884 3475 3122 3366 
z
" transform="scale(0.015625)"/>
       <path id="DejaVuSans-69" d="M 603 3500 
L 1178 3500 
L 1178 0 
L 603 0 
L 603 3500 
z
M 603 4863 
L 1178 4863 
L 1178 4134 
L 603 4134 
L 603 4863 
z
" transform="scale(0.015625)"/>
       <path id="DejaVuSans-70" d="M 1159 525 
L 1159 -1331 
L 581 -1331 
L 581 3500 
L 1159 3500 
L 1159 2969 
Q 1341 3281 1617 3432 
Q 1894 3584 2278 3584 
Q 2916 3584 3314 3078 
Q 3713 2572 3713 1747 
Q 3713 922 3314 415 
Q 2916 -91 2278 -91 
Q 1894 -91 1617 61 
Q 1341 213 1159 525 
z
M 3116 1747 
Q 3116 2381 2855 2742 
Q 2594 3103 2138 3103 
Q 1681 3103 1420 2742 
Q 1159 2381 1159 1747 
Q 1159 1113 1420 752 
Q 1681 391 2138 391 
Q 2594 391 2855 752 
Q 3116 1113 3116 1747 
z
" transform="scale(0.015625)"/>
       <path id="DejaVuSans-74" d="M 1172 4494 
L 1172 3500 
L 2356 3500 
L 2356 3053 
L 1172 3053 
L 1172 1153 
Q 1172 725 1289 603 
Q 1406 481 1766 481 
L 2356 481 
L 2356 0 
L 1766 0 
Q 1100 0 847 248 
Q 594 497 594 1153 
L 594 3053 
L 172 3053 
L 172 3500 
L 594 3500 
L 594 4494 
L 1172 4494 
z
" transform="scale(0.015625)"/>
       <path id="DejaVuSans-20" transform="scale(0.015625)"/>
       <path id="DejaVuSans-50" d="M 1259 4147 
L 1259 2394 
L 2053 2394 
Q 2494 2394 2734 2622 
Q 2975 2850 2975 3272 
Q 2975 3691 2734 3919 
Q 2494 4147 2053 4147 
L 1259 4147 
z
M 628 4666 
L 2053 4666 
Q 2838 4666 3239 4311 
Q 3641 3956 3641 3272 
Q 3641 2581 3239 2228 
Q 2838 1875 2053 1875 
L 1259 1875 
L 1259 0 
L 628 0 
L 628 4666 
z
" transform="scale(0.015625)"/>
       <path id="DejaVuSans-6f" d="M 1959 3097 
Q 1497 3097 1228 2736 
Q 959 2375 959 1747 
Q 959 1119 1226 758 
Q 1494 397 1959 397 
Q 2419 397 2687 759 
Q 2956 1122 2956 1747 
Q 2956 2369 2687 2733 
Q 2419 3097 1959 3097 
z
M 1959 3584 
Q 2709 3584 3137 3096 
Q 3566 2609 3566 1747 
Q 3566 888 3137 398 
Q 2709 -91 1959 -91 
Q 1206 -91 779 398 
Q 353 888 353 1747 
Q 353 2609 779 3096 
Q 1206 3584 1959 3584 
z
" transform="scale(0.015625)"/>
       <path id="DejaVuSans-28" d="M 1984 4856 
Q 1566 4138 1362 3434 
Q 1159 2731 1159 2009 
Q 1159 1288 1364 580 
Q 1569 -128 1984 -844 
L 1484 -844 
Q 1016 -109 783 600 
Q 550 1309 550 2009 
Q 550 2706 781 3412 
Q 1013 4119 1484 4856 
L 1984 4856 
z
" transform="scale(0.015625)"/>
       <path id="DejaVuSans-25" d="M 4653 2053 
Q 4381 2053 4226 1822 
Q 4072 1591 4072 1178 
Q 4072 772 4226 539 
Q 4381 306 4653 306 
Q 4919 306 5073 539 
Q 5228 772 5228 1178 
Q 5228 1588 5073 1820 
Q 4919 2053 4653 2053 
z
M 4653 2450 
Q 5147 2450 5437 2106 
Q 5728 1763 5728 1178 
Q 5728 594 5436 251 
Q 5144 -91 4653 -91 
Q 4153 -91 3862 251 
Q 3572 594 3572 1178 
Q 3572 1766 3864 2108 
Q 4156 2450 4653 2450 
z
M 1428 4353 
Q 1159 4353 1004 4120 
Q 850 3888 850 3481 
Q 850 3069 1003 2837 
Q 1156 2606 1428 2606 
Q 1700 2606 1854 2837 
Q 2009 3069 2009 3481 
Q 2009 3884 1853 4118 
Q 1697 4353 1428 4353 
z
M 4250 4750 
L 4750 4750 
L 1831 -91 
L 1331 -91 
L 4250 4750 
z
M 1428 4750 
Q 1922 4750 2215 4408 
Q 2509 4066 2509 3481 
Q 2509 2891 2217 2550 
Q 1925 2209 1428 2209 
Q 931 2209 642 2551 
Q 353 2894 353 3481 
Q 353 4063 643 4406 
Q 934 4750 1428 4750 
z
" transform="scale(0.015625)"/>
       <path id="DejaVuSans-29" d="M 513 4856 
L 1013 4856 
Q 1481 4119 1714 3412 
Q 1947 2706 1947 2009 
Q 1947 1309 1714 600 
Q 1481 -109 1013 -844 
L 513 -844 
Q 928 -128 1133 580 
Q 1338 1288 1338 2009 
Q 1338 2731 1133 3434 
Q 928 4138 513 4856 
z
" transform="scale(0.015625)"/>
      </defs>
      <use xlink:href="#DejaVuSans-54"/>
      <use xlink:href="#DejaVuSans-72" x="46.333984"/>
      <use xlink:href="#DejaVuSans-61" x="87.447266"/>
      <use xlink:href="#DejaVuSans-6e" x="148.726562"/>
      <use xlink:href="#DejaVuSans-73" x="212.105469"/>
      <use xlink:href="#DejaVuSans-63" x="264.205078"/>
      <use xlink:href="#DejaVuSans-72" x="319.185547"/>
      <use xlink:href="#DejaVuSans-69" x="360.298828"/>
      <use xlink:href="#DejaVuSans-70" x="388.082031"/>
      <use xlink:href="#DejaVuSans-74" x="451.558594"/>
      <use xlink:href="#DejaVuSans-20" x="490.767578"/>
      <use xlink:href="#DejaVuSans-50" x="522.554688"/>
      <use xlink:href="#DejaVuSans-6f" x="579.232422"/>
      <use xlink:href="#DejaVuSans-73" x="640.414062"/>
      <use xlink:href="#DejaVuSans-69" x="692.513672"/>
      <use xlink:href="#DejaVuSans-74" x="720.296875"/>
      <use xlink:href="#DejaVuSans-69" x="759.505859"/>
      <use xlink:href="#DejaVuSans-6f" x="787.289062"/>
      <use xlink:href="#DejaVuSans-6e" x="848.470703"/>
      <use xlink:href="#DejaVuSans-20" x="911.849609"/>
      <use xlink:href="#DejaVuSans-28" x="943.636719"/>
      <use xlink:href="#DejaVuSans-25" x="982.650391"/>
      <use xlink:href="#DejaVuSans-29" x="1077.669922"/>
     </g>
    </g>
   </g>
   <g id="matplotlib.axis_2">
    <g id="ytick_1">
     <g id="line2d_1">
      <path d="M 53.328125 273.99006 
L 985.303125 273.99006 
" clip-path="url(#p8179edc01c)" style="fill: none; stroke: #dedede; stroke-linecap: square"/>
     </g>
     <g id="text_8">
      <!-- 0 -->
      <g transform="translate(41.238125 277.029435)scale(0.08 -0.08)">
       <use xlink:href="#DejaVuSans-30"/>
      </g>
     </g>
    </g>
    <g id="ytick_2">
     <g id="line2d_2">
      <path d="M 53.328125 231.673192 
L 985.303125 231.673192 
" clip-path="url(#p8179edc01c)" style="fill: none; stroke: #dedede; stroke-linecap: square"/>
     </g>
     <g id="text_9">
      <!-- 5000 -->
      <g transform="translate(25.968125 234.712567)scale(0.08 -0.08)">
       <defs>
        <path id="DejaVuSans-35" d="M 691 4666 
L 3169 4666 
L 3169 4134 
L 1269 4134 
L 1269 2991 
Q 1406 3038 1543 3061 
Q 1681 3084 1819 3084 
Q 2600 3084 3056 2656 
Q 3513 2228 3513 1497 
Q 3513 744 3044 326 
Q 2575 -91 1722 -91 
Q 1428 -91 1123 -41 
Q 819 9 494 109 
L 494 744 
Q 775 591 1075 516 
Q 1375 441 1709 441 
Q 2250 441 2565 725 
Q 2881 1009 2881 1497 
Q 2881 1984 2565 2268 
Q 2250 2553 1709 2553 
Q 1456 2553 1204 2497 
Q 953 2441 691 2322 
L 691 4666 
z
" transform="scale(0.015625)"/>
       </defs>
       <use xlink:href="#DejaVuSans-35"/>
       <use xlink:href="#DejaVuSans-30" x="63.623047"/>
       <use xlink:href="#DejaVuSans-30" x="127.246094"/>
       <use xlink:href="#DejaVuSans-30" x="190.869141"/>
      </g>
     </g>
    </g>
    <g id="ytick_3">
     <g id="line2d_3">
      <path d="M 53.328125 189.356324 
L 985.303125 189.356324 
" clip-path="url(#p8179edc01c)" style="fill: none; stroke: #dedede; stroke-linecap: square"/>
     </g>
     <g id="text_10">
      <!-- 10000 -->
      <g transform="translate(20.878125 192.395699)scale(0.08 -0.08)">
       <use xlink:href="#DejaVuSans-31"/>
       <use xlink:href="#DejaVuSans-30" x="63.623047"/>
       <use xlink:href="#DejaVuSans-30" x="127.246094"/>
       <use xlink:href="#DejaVuSans-30" x="190.869141"/>
       <use xlink:href="#DejaVuSans-30" x="254.492188"/>
      </g>
     </g>
    </g>
    <g id="ytick_4">
     <g id="line2d_4">
      <path d="M 53.328125 147.039455 
L 985.303125 147.039455 
" clip-path="url(#p8179edc01c)" style="fill: none; stroke: #dedede; stroke-linecap: square"/>
     </g>
     <g id="text_11">
      <!-- 15000 -->
      <g transform="translate(20.878125 150.07883)scale(0.08 -0.08)">
       <use xlink:href="#DejaVuSans-31"/>
       <use xlink:href="#DejaVuSans-35" x="63.623047"/>
       <use xlink:href="#DejaVuSans-30" x="127.246094"/>
       <use xlink:href="#DejaVuSans-30" x="190.869141"/>
       <use xlink:href="#DejaVuSans-30" x="254.492188"/>
      </g>
     </g>
    </g>
    <g id="ytick_5">
     <g id="line2d_5">
      <path d="M 53.328125 104.722587 
L 985.303125 104.722587 
" clip-path="url(#p8179edc01c)" style="fill: none; stroke: #dedede; stroke-linecap: square"/>
     </g>
     <g id="text_12">
      <!-- 20000 -->
      <g transform="translate(20.878125 107.761962)scale(0.08 -0.08)">
       <use xlink:href="#DejaVuSans-32"/>
       <use xlink:href="#DejaVuSans-30" x="63.623047"/>
       <use xlink:href="#DejaVuSans-30" x="127.246094"/>
       <use xlink:href="#DejaVuSans-30" x="190.869141"/>
       <use xlink:href="#DejaVuSans-30" x="254.492188"/>
      </g>
     </g>
    </g>
    <g id="ytick_6">
     <g id="line2d_6">
      <path d="M 53.328125 62.405719 
L 985.303125 62.405719 
" clip-path="url(#p8179edc01c)" style="fill: none; stroke: #dedede; stroke-linecap: square"/>
     </g>
     <g id="text_13">
      <!-- 25000 -->
      <g transform="translate(20.878125 65.445094)scale(0.08 -0.08)">
       <use xlink:href="#DejaVuSans-32"/>
       <use xlink:href="#DejaVuSans-35" x="63.623047"/>
       <use xlink:href="#DejaVuSans-30" x="127.246094"/>
       <use xlink:href="#DejaVuSans-30" x="190.869141"/>
       <use xlink:href="#DejaVuSans-30" x="254.492188"/>
      </g>
     </g>
    </g>
    <g id="text_14">
     <!-- Cumulative mapped-read depth -->
     <g transform="translate(14.798438 232.601304)rotate(-90)scale(0.1 -0.1)">
      <defs>
       <path id="DejaVuSans-43" d="M 4122 4306 
L 4122 3641 
Q 3803 3938 3442 4084 
Q 3081 4231 2675 4231 
Q 1875 4231 1450 3742 
Q 1025 3253 1025 2328 
Q 1025 1406 1450 917 
Q 1875 428 2675 428 
Q 3081 428 3442 575 
Q 3803 722 4122 1019 
L 4122 359 
Q 3791 134 3420 21 
Q 3050 -91 2638 -91 
Q 1578 -91 968 557 
Q 359 1206 359 2328 
Q 359 3453 968 4101 
Q 1578 4750 2638 4750 
Q 3056 4750 3426 4639 
Q 3797 4528 4122 4306 
z
" transform="scale(0.015625)"/>
       <path id="DejaVuSans-75" d="M 544 1381 
L 544 3500 
L 1119 3500 
L 1119 1403 
Q 1119 906 1312 657 
Q 1506 409 1894 409 
Q 2359 409 2629 706 
Q 2900 1003 2900 1516 
L 2900 3500 
L 3475 3500 
L 3475 0 
L 2900 0 
L 2900 538 
Q 2691 219 2414 64 
Q 2138 -91 1772 -91 
Q 1169 -91 856 284 
Q 544 659 544 1381 
z
M 1991 3584 
L 1991 3584 
z
" transform="scale(0.015625)"/>
       <path id="DejaVuSans-6d" d="M 3328 2828 
Q 3544 3216 3844 3400 
Q 4144 3584 4550 3584 
Q 5097 3584 5394 3201 
Q 5691 2819 5691 2113 
L 5691 0 
L 5113 0 
L 5113 2094 
Q 5113 2597 4934 2840 
Q 4756 3084 4391 3084 
Q 3944 3084 3684 2787 
Q 3425 2491 3425 1978 
L 3425 0 
L 2847 0 
L 2847 2094 
Q 2847 2600 2669 2842 
Q 2491 3084 2119 3084 
Q 1678 3084 1418 2786 
Q 1159 2488 1159 1978 
L 1159 0 
L 581 0 
L 581 3500 
L 1159 3500 
L 1159 2956 
Q 1356 3278 1631 3431 
Q 1906 3584 2284 3584 
Q 2666 3584 2933 3390 
Q 3200 3197 3328 2828 
z
" transform="scale(0.015625)"/>
       <path id="DejaVuSans-6c" d="M 603 4863 
L 1178 4863 
L 1178 0 
L 603 0 
L 603 4863 
z
" transform="scale(0.015625)"/>
       <path id="DejaVuSans-76" d="M 191 3500 
L 800 3500 
L 1894 563 
L 2988 3500 
L 3597 3500 
L 2284 0 
L 1503 0 
L 191 3500 
z
" transform="scale(0.015625)"/>
       <path id="DejaVuSans-65" d="M 3597 1894 
L 3597 1613 
L 953 1613 
Q 991 1019 1311 708 
Q 1631 397 2203 397 
Q 2534 397 2845 478 
Q 3156 559 3463 722 
L 3463 178 
Q 3153 47 2828 -22 
Q 2503 -91 2169 -91 
Q 1331 -91 842 396 
Q 353 884 353 1716 
Q 353 2575 817 3079 
Q 1281 3584 2069 3584 
Q 2775 3584 3186 3129 
Q 3597 2675 3597 1894 
z
M 3022 2063 
Q 3016 2534 2758 2815 
Q 2500 3097 2075 3097 
Q 1594 3097 1305 2825 
Q 1016 2553 972 2059 
L 3022 2063 
z
" transform="scale(0.015625)"/>
       <path id="DejaVuSans-64" d="M 2906 2969 
L 2906 4863 
L 3481 4863 
L 3481 0 
L 2906 0 
L 2906 525 
Q 2725 213 2448 61 
Q 2172 -91 1784 -91 
Q 1150 -91 751 415 
Q 353 922 353 1747 
Q 353 2572 751 3078 
Q 1150 3584 1784 3584 
Q 2172 3584 2448 3432 
Q 2725 3281 2906 2969 
z
M 947 1747 
Q 947 1113 1208 752 
Q 1469 391 1925 391 
Q 2381 391 2643 752 
Q 2906 1113 2906 1747 
Q 2906 2381 2643 2742 
Q 2381 3103 1925 3103 
Q 1469 3103 1208 2742 
Q 947 2381 947 1747 
z
" transform="scale(0.015625)"/>
       <path id="DejaVuSans-2d" d="M 313 2009 
L 1997 2009 
L 1997 1497 
L 313 1497 
L 313 2009 
z
" transform="scale(0.015625)"/>
       <path id="DejaVuSans-68" d="M 3513 2113 
L 3513 0 
L 2938 0 
L 2938 2094 
Q 2938 2591 2744 2837 
Q 2550 3084 2163 3084 
Q 1697 3084 1428 2787 
Q 1159 2491 1159 1978 
L 1159 0 
L 581 0 
L 581 4863 
L 1159 4863 
L 1159 2956 
Q 1366 3272 1645 3428 
Q 1925 3584 2291 3584 
Q 2894 3584 3203 3211 
Q 3513 2838 3513 2113 
z
" transform="scale(0.015625)"/>
      </defs>
      <use xlink:href="#DejaVuSans-43"/>
      <use xlink:href="#DejaVuSans-75" x="69.824219"/>
      <use xlink:href="#DejaVuSans-6d" x="133.203125"/>
      <use xlink:href="#DejaVuSans-75" x="230.615234"/>
      <use xlink:href="#DejaVuSans-6c" x="293.994141"/>
      <use xlink:href="#DejaVuSans-61" x="321.777344"/>
      <use xlink:href="#DejaVuSans-74" x="383.056641"/>
      <use xlink:href="#DejaVuSans-69" x="422.265625"/>
      <use xlink:href="#DejaVuSans-76" x="450.048828"/>
      <use xlink:href="#DejaVuSans-65" x="509.228516"/>
      <use xlink:href="#DejaVuSans-20" x="570.751953"/>
      <use xlink:href="#DejaVuSans-6d" x="602.539062"/>
      <use xlink:href="#DejaVuSans-61" x="699.951172"/>
      <use xlink:href="#DejaVuSans-70" x="761.230469"/>
      <use xlink:href="#DejaVuSans-70" x="824.707031"/>
      <use xlink:href="#DejaVuSans-65" x="888.183594"/>
      <use xlink:href="#DejaVuSans-64" x="949.707031"/>
      <use xlink:href="#DejaVuSans-2d" x="1013.183594"/>
      <use xlink:href="#DejaVuSans-72" x="1049.267578"/>
      <use xlink:href="#DejaVuSans-65" x="1088.130859"/>
      <use xlink:href="#DejaVuSans-61" x="1149.654297"/>
      <use xlink:href="#DejaVuSans-64" x="1210.933594"/>
      <use xlink:href="#DejaVuSans-20" x="1274.410156"/>
      <use xlink:href="#DejaVuSans-64" x="1306.197266"/>
      <use xlink:href="#DejaVuSans-65" x="1369.673828"/>
      <use xlink:href="#DejaVuSans-70" x="1431.197266"/>
      <use xlink:href="#DejaVuSans-74" x="1494.673828"/>
      <use xlink:href="#DejaVuSans-68" x="1533.882812"/>
     </g>
    </g>
   </g>
   <g id="line2d_7">
    <path d="M 53.328125 246.112662 
L 62.647875 243.574529 
L 71.967625 242.585921 
L 81.287375 241.912825 
L 90.607125 240.997795 
L 99.926875 239.131743 
L 109.246625 237.607625 
L 118.566375 236.493726 
L 127.886125 234.878361 
L 137.205875 233.372443 
L 146.525625 232.46715 
L 155.845375 231.576354 
L 165.165125 230.713518 
L 174.484875 229.578198 
L 183.804625 228.071906 
L 193.124375 225.984829 
L 202.444125 225.515298 
L 211.763875 225.36107 
L 221.083625 225.472507 
L 230.403375 225.631514 
L 239.723125 224.729868 
L 249.042875 224.664396 
L 258.362625 224.277225 
L 267.682375 223.764879 
L 277.002125 223.513317 
L 286.321875 222.653645 
L 295.641625 221.978357 
L 304.961375 221.446798 
L 314.281125 220.732066 
L 323.600875 220.056299 
L 332.920625 219.523304 
L 342.240375 219.321641 
L 351.560125 219.416284 
L 360.879875 220.030574 
L 370.199625 220.296779 
L 379.519375 220.558203 
L 388.839125 220.889484 
L 398.158875 220.866924 
L 407.478625 220.564638 
L 416.798375 220.754583 
L 426.118125 221.319271 
L 435.437875 221.523427 
L 444.757625 221.260096 
L 454.077375 220.867082 
L 463.397125 221.199183 
L 472.716875 221.054165 
L 482.036625 221.140958 
L 491.356375 221.179052 
L 500.676125 221.408556 
L 509.995875 221.297607 
L 519.315625 221.126423 
L 528.635375 221.827034 
L 537.955125 222.913186 
L 547.274875 223.48084 
L 556.594625 224.589035 
L 565.914375 225.595933 
L 575.234125 225.903775 
L 584.553875 225.842247 
L 593.873625 226.398876 
L 603.193375 227.237906 
L 612.513125 227.583574 
L 621.832875 227.684506 
L 631.152625 227.787139 
L 640.472375 228.932627 
L 649.792125 229.951069 
L 659.111875 230.521947 
L 668.431625 231.223272 
L 677.751375 231.82676 
L 687.071125 232.811028 
L 696.390875 233.036955 
L 705.710625 233.234789 
L 715.030375 233.010407 
L 724.350125 232.998252 
L 733.669875 233.464566 
L 742.989625 233.552747 
L 752.309375 233.792903 
L 761.629125 234.350742 
L 770.948875 234.696793 
L 780.268625 234.776524 
L 789.588375 234.988269 
L 798.908125 235.149717 
L 808.227875 235.702946 
L 817.547625 236.32825 
L 826.867375 236.747404 
L 836.187125 237.719941 
L 845.506875 238.2456 
L 854.826625 239.397001 
L 864.146375 240.401113 
L 873.466125 241.74432 
L 882.785875 243.828225 
L 892.105625 245.467751 
L 901.425375 246.946117 
L 910.745125 248.581427 
L 920.064875 251.470369 
L 929.384625 253.634852 
L 938.704375 256.024173 
L 948.024125 259.508453 
L 957.343875 262.838595 
L 966.663625 266.778906 
L 975.983375 271.388347 
" clip-path="url(#p8179edc01c)" style="fill: none; stroke: #7cb5ec; stroke-linecap: square"/>
   </g>
   <g id="line2d_8">
    <path d="M 53.328125 180.835702 
L 62.647875 171.965515 
L 71.967625 168.829638 
L 81.287375 166.146043 
L 90.607125 163.150516 
L 99.926875 157.029392 
L 109.246625 152.253846 
L 118.566375 148.635904 
L 127.886125 143.618837 
L 137.205875 138.51303 
L 146.525625 135.351129 
L 155.845375 132.414932 
L 165.165125 129.628862 
L 174.484875 126.163257 
L 183.804625 121.622757 
L 193.124375 114.80915 
L 202.444125 113.355752 
L 211.763875 112.708126 
L 221.083625 112.830545 
L 230.403375 113.4695 
L 239.723125 110.52028 
L 249.042875 110.1417 
L 258.362625 108.687909 
L 267.682375 106.760481 
L 277.002125 106.281414 
L 286.321875 103.654742 
L 295.641625 101.133375 
L 304.961375 99.617997 
L 314.281125 97.204494 
L 323.600875 94.952689 
L 332.920625 93.175243 
L 342.240375 92.514154 
L 351.560125 92.594276 
L 360.879875 94.581571 
L 370.199625 95.786421 
L 379.519375 96.677156 
L 388.839125 97.452575 
L 398.158875 97.12026 
L 407.478625 96.060853 
L 416.798375 96.641034 
L 426.118125 98.424688 
L 435.437875 99.200022 
L 444.757625 98.351925 
L 454.077375 97.127156 
L 463.397125 98.373157 
L 472.716875 97.867607 
L 482.036625 98.063426 
L 491.356375 98.415818 
L 500.676125 99.298015 
L 509.995875 98.828018 
L 519.315625 98.351911 
L 528.635375 100.663141 
L 537.955125 104.25508 
L 547.274875 106.095822 
L 556.594625 109.662708 
L 565.914375 113.150858 
L 575.234125 114.555899 
L 584.553875 114.426726 
L 593.873625 116.255986 
L 603.193375 118.721639 
L 612.513125 119.939485 
L 621.832875 120.221585 
L 631.152625 120.593811 
L 640.472375 124.693116 
L 649.792125 128.070234 
L 659.111875 129.792431 
L 668.431625 131.793492 
L 677.751375 133.613725 
L 687.071125 136.811842 
L 696.390875 137.503036 
L 705.710625 138.183265 
L 715.030375 137.61802 
L 724.350125 137.759392 
L 733.669875 139.583946 
L 742.989625 139.995971 
L 752.309375 140.712801 
L 761.629125 142.637293 
L 770.948875 143.879331 
L 780.268625 144.321461 
L 789.588375 144.883107 
L 798.908125 145.208797 
L 808.227875 146.773421 
L 817.547625 148.66489 
L 826.867375 149.914013 
L 836.187125 153.106113 
L 845.506875 154.91423 
L 854.826625 158.754045 
L 864.146375 162.153502 
L 873.466125 166.604227 
L 882.785875 173.521264 
L 892.105625 178.868357 
L 901.425375 183.697329 
L 910.745125 189.266375 
L 920.064875 199.148417 
L 929.384625 206.399891 
L 938.704375 214.316151 
L 948.024125 226.053929 
L 957.343875 236.993073 
L 966.663625 249.973159 
L 975.983375 265.236051 
" clip-path="url(#p8179edc01c)" style="fill: none; stroke: #434348; stroke-linecap: square"/>
   </g>
   <g id="line2d_9">
    <path d="M 53.328125 187.531904 
L 62.647875 179.283068 
L 71.967625 176.240582 
L 81.287375 173.75519 
L 90.607125 170.818421 
L 99.926875 165.166165 
L 109.246625 160.608424 
L 118.566375 157.212566 
L 127.886125 152.506176 
L 137.205875 147.851252 
L 146.525625 145.03923 
L 155.845375 142.157427 
L 165.165125 139.622602 
L 174.484875 136.233478 
L 183.804625 131.825312 
L 193.124375 125.349877 
L 202.444125 124.03455 
L 211.763875 123.49237 
L 221.083625 123.780203 
L 230.403375 124.177209 
L 239.723125 121.424875 
L 249.042875 121.06148 
L 258.362625 119.683735 
L 267.682375 118.089538 
L 277.002125 117.669778 
L 286.321875 114.874466 
L 295.641625 112.535505 
L 304.961375 111.052648 
L 314.281125 108.890132 
L 323.600875 106.591249 
L 332.920625 104.723159 
L 342.240375 104.459802 
L 351.560125 104.792204 
L 360.879875 106.860631 
L 370.199625 107.995378 
L 379.519375 108.965916 
L 388.839125 109.858761 
L 398.158875 109.554307 
L 407.478625 108.355701 
L 416.798375 108.730552 
L 426.118125 110.352449 
L 435.437875 111.086786 
L 444.757625 110.206029 
L 454.077375 109.108421 
L 463.397125 110.3167 
L 472.716875 109.931257 
L 482.036625 110.313051 
L 491.356375 110.626417 
L 500.676125 111.580582 
L 509.995875 111.118703 
L 519.315625 110.819251 
L 528.635375 112.928983 
L 537.955125 116.305384 
L 547.274875 118.032702 
L 556.594625 121.256231 
L 565.914375 124.581443 
L 575.234125 125.943548 
L 584.553875 125.900421 
L 593.873625 127.35498 
L 603.193375 129.567421 
L 612.513125 130.805307 
L 621.832875 131.189281 
L 631.152625 131.697368 
L 640.472375 135.517229 
L 649.792125 138.59091 
L 659.111875 140.23882 
L 668.431625 142.383959 
L 677.751375 144.167308 
L 687.071125 147.239356 
L 696.390875 147.896666 
L 705.710625 148.519058 
L 715.030375 147.950438 
L 724.350125 147.953621 
L 733.669875 149.459226 
L 742.989625 149.817614 
L 752.309375 150.313503 
L 761.629125 151.821845 
L 770.948875 152.939347 
L 780.268625 152.971718 
L 789.588375 153.347225 
L 798.908125 153.664605 
L 808.227875 155.043785 
L 817.547625 156.764556 
L 826.867375 158.038954 
L 836.187125 161.133968 
L 845.506875 163.065224 
L 854.826625 166.718496 
L 864.146375 170.023714 
L 873.466125 174.234169 
L 882.785875 180.641212 
L 892.105625 185.569067 
L 901.425375 190.037171 
L 910.745125 195.064537 
L 920.064875 204.115556 
L 929.384625 210.806216 
L 938.704375 218.232403 
L 948.024125 229.126494 
L 957.343875 239.414959 
L 966.663625 251.639105 
L 975.983375 265.912094 
" clip-path="url(#p8179edc01c)" style="fill: none; stroke: #90ed7d; stroke-linecap: square"/>
   </g>
   <g id="line2d_10">
    <path d="M 53.328125 212.536998 
L 62.647875 207.069426 
L 71.967625 204.892884 
L 81.287375 203.179019 
L 90.607125 201.124004 
L 99.926875 196.984999 
L 109.246625 193.778186 
L 118.566375 191.249504 
L 127.886125 187.767373 
L 137.205875 184.315529 
L 146.525625 182.274545 
L 155.845375 180.190131 
L 165.165125 178.160407 
L 174.484875 175.68821 
L 183.804625 172.387576 
L 193.124375 167.644619 
L 202.444125 166.72024 
L 211.763875 166.423508 
L 221.083625 166.494147 
L 230.403375 166.836239 
L 239.723125 164.788586 
L 249.042875 164.639043 
L 258.362625 163.754991 
L 267.682375 162.636379 
L 277.002125 162.343955 
L 286.321875 160.466987 
L 295.641625 158.770003 
L 304.961375 157.630867 
L 314.281125 155.969246 
L 323.600875 154.31185 
L 332.920625 153.156342 
L 342.240375 152.688694 
L 351.560125 152.902678 
L 360.879875 154.265847 
L 370.199625 155.042003 
L 379.519375 155.573769 
L 388.839125 156.006969 
L 398.158875 155.894113 
L 407.478625 155.253521 
L 416.798375 155.578175 
L 426.118125 156.839659 
L 435.437875 157.262424 
L 444.757625 156.650694 
L 454.077375 155.799946 
L 463.397125 156.690555 
L 472.716875 156.333108 
L 482.036625 156.480422 
L 491.356375 156.508928 
L 500.676125 157.004512 
L 509.995875 156.583757 
L 519.315625 156.227244 
L 528.635375 157.679785 
L 537.955125 160.034902 
L 547.274875 161.098651 
L 556.594625 163.451491 
L 565.914375 165.855888 
L 575.234125 166.731574 
L 584.553875 166.67305 
L 593.873625 167.848632 
L 603.193375 169.67394 
L 612.513125 170.537675 
L 621.832875 170.703234 
L 631.152625 170.92618 
L 640.472375 173.710625 
L 649.792125 176.153896 
L 659.111875 177.449545 
L 668.431625 179.029413 
L 677.751375 180.185206 
L 687.071125 182.46899 
L 696.390875 182.905504 
L 705.710625 183.284142 
L 715.030375 182.892114 
L 724.350125 182.882111 
L 733.669875 184.106498 
L 742.989625 184.318067 
L 752.309375 184.810035 
L 761.629125 186.172856 
L 770.948875 186.972799 
L 780.268625 187.130388 
L 789.588375 187.572814 
L 798.908125 187.807664 
L 808.227875 188.923703 
L 817.547625 190.30983 
L 826.867375 191.257947 
L 836.187125 193.38469 
L 845.506875 194.573655 
L 854.826625 197.199646 
L 864.146375 199.522549 
L 873.466125 202.514599 
L 882.785875 207.120067 
L 892.105625 210.728172 
L 901.425375 214.008483 
L 910.745125 217.70945 
L 920.064875 224.305852 
L 929.384625 229.174275 
L 938.704375 234.394054 
L 948.024125 242.050282 
L 957.343875 249.433382 
L 966.663625 258.108937 
L 975.983375 268.235398 
" clip-path="url(#p8179edc01c)" style="fill: none; stroke: #f7a35c; stroke-linecap: square"/>
   </g>
   <g id="line2d_11">
    <path d="M 53.328125 155.671669 
L 62.647875 144.473699 
L 71.967625 140.419431 
L 81.287375 136.986876 
L 90.607125 133.211557 
L 99.926875 125.559306 
L 109.246625 119.228108 
L 118.566375 114.694443 
L 127.886125 108.274227 
L 137.205875 101.796654 
L 146.525625 97.716998 
L 155.845375 93.912178 
L 165.165125 90.636122 
L 174.484875 86.201617 
L 183.804625 80.18641 
L 193.124375 71.387087 
L 202.444125 69.616903 
L 211.763875 68.905489 
L 221.083625 69.12437 
L 230.403375 69.759703 
L 239.723125 65.881062 
L 249.042875 65.276253 
L 258.362625 63.461743 
L 267.682375 61.163589 
L 277.002125 60.562332 
L 286.321875 57.013228 
L 295.641625 53.712237 
L 304.961375 51.807107 
L 314.281125 48.786686 
L 323.600875 45.752354 
L 332.920625 43.595438 
L 342.240375 42.906931 
L 351.560125 43.180702 
L 360.879875 45.924553 
L 370.199625 47.483145 
L 379.519375 48.790848 
L 388.839125 49.834243 
L 398.158875 49.435357 
L 407.478625 48.043435 
L 416.798375 48.606359 
L 426.118125 50.653604 
L 435.437875 51.634088 
L 444.757625 50.378987 
L 454.077375 48.780855 
L 463.397125 50.346319 
L 472.716875 49.533028 
L 482.036625 49.950085 
L 491.356375 50.420019 
L 500.676125 51.527352 
L 509.995875 50.796872 
L 519.315625 50.283511 
L 528.635375 53.065947 
L 537.955125 57.655647 
L 547.274875 60.274918 
L 556.594625 65.045806 
L 565.914375 69.512747 
L 575.234125 70.922441 
L 584.553875 70.649839 
L 593.873625 72.731129 
L 603.193375 75.856661 
L 612.513125 77.506814 
L 621.832875 78.024683 
L 631.152625 78.741944 
L 640.472375 83.932396 
L 649.792125 88.045878 
L 659.111875 90.224508 
L 668.431625 92.66639 
L 677.751375 95.006245 
L 687.071125 99.212141 
L 696.390875 100.103852 
L 705.710625 100.858771 
L 715.030375 100.003497 
L 724.350125 100.341818 
L 733.669875 102.634231 
L 742.989625 103.167415 
L 752.309375 103.967698 
L 761.629125 106.3631 
L 770.948875 108.053086 
L 780.268625 108.534315 
L 789.588375 109.328272 
L 798.908125 109.814637 
L 808.227875 111.832979 
L 817.547625 114.338523 
L 826.867375 116.081878 
L 836.187125 120.12165 
L 845.506875 122.382159 
L 854.826625 127.239989 
L 864.146375 131.709878 
L 873.466125 137.375328 
L 882.785875 146.23793 
L 892.105625 153.106101 
L 901.425375 159.25875 
L 910.745125 166.196896 
L 920.064875 178.747801 
L 929.384625 188.042405 
L 938.704375 198.274982 
L 948.024125 213.120177 
L 957.343875 227.046876 
L 966.663625 243.574498 
L 975.983375 262.940672 
" clip-path="url(#p8179edc01c)" style="fill: none; stroke: #8085e9; stroke-linecap: square"/>
   </g>
   <g id="line2d_12">
    <path d="M 53.328125 186.452301 
L 62.647875 178.287701 
L 71.967625 175.247709 
L 81.287375 172.954724 
L 90.607125 170.126082 
L 99.926875 164.242906 
L 109.246625 159.728092 
L 118.566375 156.407256 
L 127.886125 151.667243 
L 137.205875 146.592974 
L 146.525625 143.523097 
L 155.845375 140.830413 
L 165.165125 138.375295 
L 174.484875 135.038187 
L 183.804625 130.547622 
L 193.124375 123.742877 
L 202.444125 122.404656 
L 211.763875 121.963471 
L 221.083625 122.343647 
L 230.403375 122.797333 
L 239.723125 119.943967 
L 249.042875 119.641738 
L 258.362625 118.292796 
L 267.682375 116.5366 
L 277.002125 116.254046 
L 286.321875 113.847979 
L 295.641625 111.457494 
L 304.961375 109.882588 
L 314.281125 107.463703 
L 323.600875 105.076812 
L 332.920625 103.430468 
L 342.240375 102.910952 
L 351.560125 103.123032 
L 360.879875 105.297317 
L 370.199625 106.493747 
L 379.519375 107.249699 
L 388.839125 108.001685 
L 398.158875 107.807794 
L 407.478625 106.718991 
L 416.798375 107.30869 
L 426.118125 108.857814 
L 435.437875 109.568076 
L 444.757625 108.659944 
L 454.077375 107.57188 
L 463.397125 108.68086 
L 472.716875 108.054224 
L 482.036625 108.32289 
L 491.356375 108.618522 
L 500.676125 109.392903 
L 509.995875 108.914256 
L 519.315625 108.584402 
L 528.635375 110.733632 
L 537.955125 114.15036 
L 547.274875 115.769626 
L 556.594625 119.208627 
L 565.914375 122.674019 
L 575.234125 123.943232 
L 584.553875 123.718144 
L 593.873625 125.249765 
L 603.193375 127.609896 
L 612.513125 128.765913 
L 621.832875 129.084883 
L 631.152625 129.537469 
L 640.472375 133.600637 
L 649.792125 136.951843 
L 659.111875 138.737922 
L 668.431625 140.702027 
L 677.751375 142.443239 
L 687.071125 145.70876 
L 696.390875 146.431579 
L 705.710625 147.098072 
L 715.030375 146.586383 
L 724.350125 146.748391 
L 733.669875 148.258134 
L 742.989625 148.464763 
L 752.309375 148.976227 
L 761.629125 150.774878 
L 770.948875 151.94281 
L 780.268625 152.049817 
L 789.588375 152.470525 
L 798.908125 152.835232 
L 808.227875 154.4345 
L 817.547625 156.104312 
L 826.867375 157.147371 
L 836.187125 160.054434 
L 845.506875 161.720242 
L 854.826625 165.343581 
L 864.146375 168.688055 
L 873.466125 172.807234 
L 882.785875 179.293444 
L 892.105625 184.2838 
L 901.425375 188.641096 
L 910.745125 193.723631 
L 920.064875 203.165113 
L 929.384625 210.128455 
L 938.704375 217.695861 
L 948.024125 228.785736 
L 957.343875 239.18042 
L 966.663625 251.558385 
L 975.983375 265.825595 
" clip-path="url(#p8179edc01c)" style="fill: none; stroke: #f15c80; stroke-linecap: square"/>
   </g>
   <g id="line2d_13">
    <path d="M 53.328125 229.450385 
L 62.647875 225.426308 
L 71.967625 223.995098 
L 81.287375 222.848882 
L 90.607125 221.394955 
L 99.926875 218.397378 
L 109.246625 215.944062 
L 118.566375 214.161095 
L 127.886125 211.638945 
L 137.205875 209.11631 
L 146.525625 207.615214 
L 155.845375 206.100889 
L 165.165125 204.729683 
L 174.484875 202.849813 
L 183.804625 200.520641 
L 193.124375 197.243899 
L 202.444125 196.479863 
L 211.763875 196.209384 
L 221.083625 196.346736 
L 230.403375 196.53127 
L 239.723125 195.175475 
L 249.042875 195.072912 
L 258.362625 194.439429 
L 267.682375 193.592989 
L 277.002125 193.295804 
L 286.321875 191.893717 
L 295.641625 190.676518 
L 304.961375 189.827778 
L 314.281125 188.61897 
L 323.600875 187.358253 
L 332.920625 186.526686 
L 342.240375 186.362247 
L 351.560125 186.453647 
L 360.879875 187.477096 
L 370.199625 188.126075 
L 379.519375 188.569746 
L 388.839125 188.863778 
L 398.158875 188.731075 
L 407.478625 188.179873 
L 416.798375 188.444216 
L 426.118125 189.177433 
L 435.437875 189.511379 
L 444.757625 189.109563 
L 454.077375 188.603186 
L 463.397125 189.211177 
L 472.716875 189.076979 
L 482.036625 189.235374 
L 491.356375 189.506306 
L 500.676125 189.884216 
L 509.995875 189.522147 
L 519.315625 189.222437 
L 528.635375 190.278836 
L 537.955125 191.977224 
L 547.274875 192.811668 
L 556.594625 194.621421 
L 565.914375 196.284719 
L 575.234125 196.860916 
L 584.553875 196.756455 
L 593.873625 197.568711 
L 603.193375 198.848386 
L 612.513125 199.443678 
L 621.832875 199.671932 
L 631.152625 200.049616 
L 640.472375 202.139641 
L 649.792125 203.809596 
L 659.111875 204.77279 
L 668.431625 205.806053 
L 677.751375 206.670208 
L 687.071125 208.171917 
L 696.390875 208.579694 
L 705.710625 208.822066 
L 715.030375 208.504457 
L 724.350125 208.64429 
L 733.669875 209.567058 
L 742.989625 209.801953 
L 752.309375 210.112315 
L 761.629125 211.016819 
L 770.948875 211.624851 
L 780.268625 211.685556 
L 789.588375 211.936021 
L 798.908125 212.102807 
L 808.227875 212.90094 
L 817.547625 213.828556 
L 826.867375 214.445979 
L 836.187125 215.93391 
L 845.506875 216.764451 
L 854.826625 218.638407 
L 864.146375 220.334039 
L 873.466125 222.459231 
L 882.785875 225.739626 
L 892.105625 228.371588 
L 901.425375 230.754003 
L 910.745125 233.353106 
L 920.064875 237.943763 
L 929.384625 241.421985 
L 938.704375 245.260175 
L 948.024125 250.740734 
L 957.343875 256.090838 
L 966.663625 262.383991 
L 975.983375 269.7982 
" clip-path="url(#p8179edc01c)" style="fill: none; stroke: #e4d354; stroke-linecap: square"/>
   </g>
   <g id="line2d_14">
    <path d="M 53.328125 162.082205 
L 62.647875 151.335846 
L 71.967625 147.477519 
L 81.287375 144.338525 
L 90.607125 140.420355 
L 99.926875 132.888884 
L 109.246625 126.905924 
L 118.566375 122.36855 
L 127.886125 116.13766 
L 137.205875 109.959611 
L 146.525625 106.096382 
L 155.845375 102.362144 
L 165.165125 99.111454 
L 174.484875 94.820155 
L 183.804625 89.359464 
L 193.124375 81.195397 
L 202.444125 79.611769 
L 211.763875 78.98569 
L 221.083625 79.06633 
L 230.403375 79.698084 
L 239.723125 76.246076 
L 249.042875 75.525932 
L 258.362625 73.692905 
L 267.682375 71.567791 
L 277.002125 71.039519 
L 286.321875 67.869167 
L 295.641625 64.690577 
L 304.961375 62.736884 
L 314.281125 59.802292 
L 323.600875 56.939319 
L 332.920625 54.891557 
L 342.240375 54.425486 
L 351.560125 54.7713 
L 360.879875 57.230319 
L 370.199625 58.658656 
L 379.519375 59.766336 
L 388.839125 60.825023 
L 398.158875 60.528525 
L 407.478625 59.407974 
L 416.798375 60.174846 
L 426.118125 62.039207 
L 435.437875 63.035124 
L 444.757625 62.03579 
L 454.077375 60.456409 
L 463.397125 62.010151 
L 472.716875 61.407462 
L 482.036625 61.643199 
L 491.356375 61.943773 
L 500.676125 62.84834 
L 509.995875 62.157408 
L 519.315625 61.643988 
L 528.635375 64.316186 
L 537.955125 68.662256 
L 547.274875 71.067967 
L 556.594625 75.668259 
L 565.914375 79.970951 
L 575.234125 81.4835 
L 584.553875 81.259997 
L 593.873625 83.273292 
L 603.193375 86.293697 
L 612.513125 87.794138 
L 621.832875 88.335216 
L 631.152625 89.174021 
L 640.472375 94.092739 
L 649.792125 98.167729 
L 659.111875 100.410418 
L 668.431625 102.850081 
L 677.751375 104.940875 
L 687.071125 108.900925 
L 696.390875 109.812246 
L 705.710625 110.564283 
L 715.030375 109.829511 
L 724.350125 109.927077 
L 733.669875 112.062048 
L 742.989625 112.549189 
L 752.309375 113.30097 
L 761.629125 115.41945 
L 770.948875 116.721436 
L 780.268625 117.195281 
L 789.588375 117.753019 
L 798.908125 118.173283 
L 808.227875 120.028015 
L 817.547625 122.245123 
L 826.867375 123.843938 
L 836.187125 127.573513 
L 845.506875 129.794106 
L 854.826625 134.419334 
L 864.146375 138.606576 
L 873.466125 144.03284 
L 882.785875 152.315812 
L 892.105625 158.80884 
L 901.425375 164.744825 
L 910.745125 171.422692 
L 920.064875 183.448348 
L 929.384625 192.265271 
L 938.704375 201.8763 
L 948.024125 215.838167 
L 957.343875 229.127815 
L 966.663625 244.898028 
L 975.983375 263.480248 
" clip-path="url(#p8179edc01c)" style="fill: none; stroke: #2b908f; stroke-linecap: square"/>
   </g>
   <g id="line2d_15">
    <path d="M 53.328125 209.043296 
L 62.647875 202.81687 
L 71.967625 200.579081 
L 81.287375 198.836679 
L 90.607125 196.700472 
L 99.926875 192.357071 
L 109.246625 188.929564 
L 118.566375 186.27789 
L 127.886125 182.758679 
L 137.205875 179.100025 
L 146.525625 176.869013 
L 155.845375 174.675697 
L 165.165125 172.712858 
L 174.484875 170.264117 
L 183.804625 167.010547 
L 193.124375 162.184347 
L 202.444125 160.993744 
L 211.763875 160.576359 
L 221.083625 160.790417 
L 230.403375 161.178989 
L 239.723125 159.214678 
L 249.042875 158.894744 
L 258.362625 157.710065 
L 267.682375 156.486049 
L 277.002125 156.192453 
L 286.321875 154.398479 
L 295.641625 152.607237 
L 304.961375 151.408296 
L 314.281125 149.668546 
L 323.600875 147.998421 
L 332.920625 146.738854 
L 342.240375 146.323423 
L 351.560125 146.401652 
L 360.879875 147.802924 
L 370.199625 148.64145 
L 379.519375 149.300141 
L 388.839125 149.895193 
L 398.158875 149.714786 
L 407.478625 148.978066 
L 416.798375 149.294472 
L 426.118125 150.4501 
L 435.437875 150.941557 
L 444.757625 150.343992 
L 454.077375 149.542966 
L 463.397125 150.460462 
L 472.716875 150.180254 
L 482.036625 150.292399 
L 491.356375 150.288041 
L 500.676125 150.914444 
L 509.995875 150.519588 
L 519.315625 150.181454 
L 528.635375 151.687496 
L 537.955125 154.279829 
L 547.274875 155.482722 
L 556.594625 158.126858 
L 565.914375 160.671355 
L 575.234125 161.554186 
L 584.553875 161.434373 
L 593.873625 162.670917 
L 603.193375 164.360809 
L 612.513125 165.163075 
L 621.832875 165.464253 
L 631.152625 166.003836 
L 640.472375 169.033918 
L 649.792125 171.37179 
L 659.111875 172.693887 
L 668.431625 174.134237 
L 677.751375 175.395211 
L 687.071125 177.671852 
L 696.390875 178.120114 
L 705.710625 178.580854 
L 715.030375 178.184433 
L 724.350125 178.301909 
L 733.669875 179.472029 
L 742.989625 179.689099 
L 752.309375 180.134513 
L 761.629125 181.470445 
L 770.948875 182.309825 
L 780.268625 182.410112 
L 789.588375 182.747274 
L 798.908125 182.991191 
L 808.227875 184.151918 
L 817.547625 185.517512 
L 826.867375 186.389733 
L 836.187125 188.613935 
L 845.506875 189.956141 
L 854.826625 192.695451 
L 864.146375 195.208594 
L 873.466125 198.359738 
L 882.785875 203.214182 
L 892.105625 207.010062 
L 901.425375 210.360506 
L 910.745125 214.213927 
L 920.064875 221.072731 
L 929.384625 226.188359 
L 938.704375 231.822917 
L 948.024125 239.954733 
L 957.343875 247.749605 
L 966.663625 257.049242 
L 975.983375 267.872217 
" clip-path="url(#p8179edc01c)" style="fill: none; stroke: #f45b5b; stroke-linecap: square"/>
   </g>
   <g id="line2d_16">
    <path d="M 53.328125 210.937537 
L 62.647875 205.276159 
L 71.967625 203.325529 
L 81.287375 201.75791 
L 90.607125 199.757817 
L 99.926875 195.592195 
L 109.246625 192.213388 
L 118.566375 189.58369 
L 127.886125 186.004597 
L 137.205875 182.482614 
L 146.525625 180.214073 
L 155.845375 177.966212 
L 165.165125 176.006462 
L 174.484875 173.572094 
L 183.804625 170.525779 
L 193.124375 166.016322 
L 202.444125 164.867213 
L 211.763875 164.467797 
L 221.083625 164.600198 
L 230.403375 164.966604 
L 239.723125 162.896857 
L 249.042875 162.655724 
L 258.362625 161.614198 
L 267.682375 160.451223 
L 277.002125 160.01106 
L 286.321875 158.063088 
L 295.641625 156.254833 
L 304.961375 155.084392 
L 314.281125 153.423629 
L 323.600875 151.703614 
L 332.920625 150.619213 
L 342.240375 150.373317 
L 351.560125 150.440119 
L 360.879875 151.744171 
L 370.199625 152.53295 
L 379.519375 153.100304 
L 388.839125 153.666765 
L 398.158875 153.584372 
L 407.478625 153.056513 
L 416.798375 153.510173 
L 426.118125 154.61547 
L 435.437875 155.081579 
L 444.757625 154.581349 
L 454.077375 153.881454 
L 463.397125 154.743707 
L 472.716875 154.4665 
L 482.036625 154.660366 
L 491.356375 154.758417 
L 500.676125 155.394137 
L 509.995875 155.123831 
L 519.315625 154.788555 
L 528.635375 156.272389 
L 537.955125 158.616938 
L 547.274875 159.856433 
L 556.594625 162.253602 
L 565.914375 164.597535 
L 575.234125 165.522305 
L 584.553875 165.469842 
L 593.873625 166.543374 
L 603.193375 168.338417 
L 612.513125 169.307414 
L 621.832875 169.732684 
L 631.152625 170.228201 
L 640.472375 173.040577 
L 649.792125 175.395196 
L 659.111875 176.836309 
L 668.431625 178.20262 
L 677.751375 179.41715 
L 687.071125 181.629885 
L 696.390875 182.182297 
L 705.710625 182.546128 
L 715.030375 182.098887 
L 724.350125 182.270098 
L 733.669875 183.636943 
L 742.989625 183.965517 
L 752.309375 184.433202 
L 761.629125 185.708908 
L 770.948875 186.411812 
L 780.268625 186.546321 
L 789.588375 186.793682 
L 798.908125 187.042248 
L 808.227875 187.977054 
L 817.547625 189.133629 
L 826.867375 189.933067 
L 836.187125 192.085019 
L 845.506875 193.398981 
L 854.826625 196.205963 
L 864.146375 198.55843 
L 873.466125 201.550215 
L 882.785875 206.076852 
L 892.105625 209.830992 
L 901.425375 213.293188 
L 910.745125 217.060247 
L 920.064875 223.585914 
L 929.384625 228.412889 
L 938.704375 233.690742 
L 948.024125 241.414558 
L 957.343875 248.882875 
L 966.663625 257.813527 
L 975.983375 268.18789 
" clip-path="url(#p8179edc01c)" style="fill: none; stroke: #91e8e1; stroke-linecap: square"/>
   </g>
   <g id="line2d_17">
    <path d="M 53.328125 183.21331 
L 62.647875 174.654114 
L 71.967625 171.580641 
L 81.287375 169.02426 
L 90.607125 165.959432 
L 99.926875 159.929563 
L 109.246625 154.970251 
L 118.566375 151.049712 
L 127.886125 145.990067 
L 137.205875 140.93102 
L 146.525625 137.530474 
L 155.845375 134.41105 
L 165.165125 131.843229 
L 174.484875 128.432419 
L 183.804625 124.11904 
L 193.124375 117.546799 
L 202.444125 115.985466 
L 211.763875 115.474646 
L 221.083625 115.721836 
L 230.403375 116.352377 
L 239.723125 113.577561 
L 249.042875 113.131007 
L 258.362625 111.722161 
L 267.682375 110.237019 
L 277.002125 109.677813 
L 286.321875 106.850725 
L 295.641625 104.330367 
L 304.961375 102.632726 
L 314.281125 100.455776 
L 323.600875 97.942183 
L 332.920625 96.29622 
L 342.240375 95.85328 
L 351.560125 96.27368 
L 360.879875 98.263542 
L 370.199625 99.474971 
L 379.519375 100.556257 
L 388.839125 101.546146 
L 398.158875 101.309472 
L 407.478625 100.507954 
L 416.798375 101.04337 
L 426.118125 102.385273 
L 435.437875 103.043089 
L 444.757625 102.252002 
L 454.077375 101.421386 
L 463.397125 102.641819 
L 472.716875 102.278007 
L 482.036625 102.59438 
L 491.356375 102.998763 
L 500.676125 103.700534 
L 509.995875 103.394001 
L 519.315625 103.03238 
L 528.635375 105.168867 
L 537.955125 108.524003 
L 547.274875 110.50152 
L 556.594625 113.947441 
L 565.914375 117.204287 
L 575.234125 118.374365 
L 584.553875 118.153761 
L 593.873625 119.712764 
L 603.193375 122.226313 
L 612.513125 123.453454 
L 621.832875 123.958499 
L 631.152625 124.766223 
L 640.472375 128.822035 
L 649.792125 132.007186 
L 659.111875 133.744408 
L 668.431625 135.594868 
L 677.751375 137.349294 
L 687.071125 140.659182 
L 696.390875 141.537818 
L 705.710625 142.204901 
L 715.030375 141.641427 
L 724.350125 141.84208 
L 733.669875 143.664245 
L 742.989625 144.171501 
L 752.309375 144.915787 
L 761.629125 146.66749 
L 770.948875 147.641088 
L 780.268625 148.018101 
L 789.588375 148.376125 
L 798.908125 148.720601 
L 808.227875 150.230245 
L 817.547625 151.904081 
L 826.867375 153.049088 
L 836.187125 155.917122 
L 845.506875 157.660494 
L 854.826625 161.334707 
L 864.146375 164.773054 
L 873.466125 169.188241 
L 882.785875 175.802204 
L 892.105625 181.147123 
L 901.425375 185.942382 
L 910.745125 191.352787 
L 920.064875 200.92297 
L 929.384625 207.979059 
L 938.704375 215.738017 
L 948.024125 226.978452 
L 957.343875 237.774949 
L 966.663625 250.720726 
L 975.983375 265.661004 
" clip-path="url(#p8179edc01c)" style="fill: none; stroke: #7cb5ec; stroke-linecap: square"/>
   </g>
   <g id="line2d_18">
    <path d="M 53.328125 196.51148 
L 62.647875 189.176227 
L 71.967625 186.495132 
L 81.287375 184.363487 
L 90.607125 181.798739 
L 99.926875 176.533221 
L 109.246625 172.4395 
L 118.566375 169.234813 
L 127.886125 164.892673 
L 137.205875 160.476018 
L 146.525625 157.784948 
L 155.845375 155.186226 
L 165.165125 152.764696 
L 174.484875 149.64876 
L 183.804625 145.71079 
L 193.124375 139.922955 
L 202.444125 138.570136 
L 211.763875 138.165742 
L 221.083625 138.305733 
L 230.403375 138.905872 
L 239.723125 136.579894 
L 249.042875 136.205053 
L 258.362625 134.889926 
L 267.682375 133.415989 
L 277.002125 132.916895 
L 286.321875 130.500888 
L 295.641625 128.02053 
L 304.961375 126.521782 
L 314.281125 124.482684 
L 323.600875 122.367597 
L 332.920625 120.840358 
L 342.240375 120.499959 
L 351.560125 120.817091 
L 360.879875 122.326946 
L 370.199625 123.43263 
L 379.519375 124.40004 
L 388.839125 125.186953 
L 398.158875 124.892099 
L 407.478625 124.070857 
L 416.798375 124.511219 
L 426.118125 125.862707 
L 435.437875 126.627784 
L 444.757625 125.830971 
L 454.077375 124.851402 
L 463.397125 125.908254 
L 472.716875 125.475212 
L 482.036625 125.651298 
L 491.356375 125.959389 
L 500.676125 126.687889 
L 509.995875 126.187788 
L 519.315625 125.761434 
L 528.635375 127.570798 
L 537.955125 130.531368 
L 547.274875 132.26589 
L 556.594625 135.33904 
L 565.914375 138.2801 
L 575.234125 139.125706 
L 584.553875 138.889655 
L 593.873625 140.237214 
L 603.193375 142.323189 
L 612.513125 143.35169 
L 621.832875 143.775957 
L 631.152625 144.552983 
L 640.472375 148.153228 
L 649.792125 151.044498 
L 659.111875 152.564159 
L 668.431625 154.290751 
L 677.751375 155.936502 
L 687.071125 158.814367 
L 696.390875 159.583483 
L 705.710625 160.121578 
L 715.030375 159.539138 
L 724.350125 159.728825 
L 733.669875 161.210793 
L 742.989625 161.49329 
L 752.309375 161.925752 
L 761.629125 163.427005 
L 770.948875 164.370787 
L 780.268625 164.468283 
L 789.588375 164.901547 
L 798.908125 165.33213 
L 808.227875 166.699638 
L 817.547625 168.181668 
L 826.867375 169.161144 
L 836.187125 171.666429 
L 845.506875 173.15345 
L 854.826625 176.357804 
L 864.146375 179.272936 
L 873.466125 183.023799 
L 882.785875 188.755556 
L 892.105625 193.337815 
L 901.425375 197.487858 
L 910.745125 202.122348 
L 920.064875 210.453007 
L 929.384625 216.597008 
L 938.704375 223.317084 
L 948.024125 233.082996 
L 957.343875 242.416843 
L 966.663625 253.592641 
L 975.983375 266.641432 
" clip-path="url(#p8179edc01c)" style="fill: none; stroke: #434348; stroke-linecap: square"/>
   </g>
   <g id="line2d_19">
    <path d="M 53.328125 273.99006 
L 985.303125 273.99006 
" clip-path="url(#p8179edc01c)" style="fill: none; stroke: #dedede; stroke-width: 2; stroke-linecap: square"/>
   </g>
   <g id="text_15">
    <!-- Qualimap RNAseq: Coverage Profile Along Genes (total) -->
    <g transform="translate(295.934375 19.3575)scale(0.16 -0.16)">
     <defs>
      <path id="DejaVuSans-51" d="M 2522 4238 
Q 1834 4238 1429 3725 
Q 1025 3213 1025 2328 
Q 1025 1447 1429 934 
Q 1834 422 2522 422 
Q 3209 422 3611 934 
Q 4013 1447 4013 2328 
Q 4013 3213 3611 3725 
Q 3209 4238 2522 4238 
z
M 3406 84 
L 4238 -825 
L 3475 -825 
L 2784 -78 
Q 2681 -84 2626 -87 
Q 2572 -91 2522 -91 
Q 1538 -91 948 567 
Q 359 1225 359 2328 
Q 359 3434 948 4092 
Q 1538 4750 2522 4750 
Q 3503 4750 4090 4092 
Q 4678 3434 4678 2328 
Q 4678 1516 4351 937 
Q 4025 359 3406 84 
z
" transform="scale(0.015625)"/>
      <path id="DejaVuSans-52" d="M 2841 2188 
Q 3044 2119 3236 1894 
Q 3428 1669 3622 1275 
L 4263 0 
L 3584 0 
L 2988 1197 
Q 2756 1666 2539 1819 
Q 2322 1972 1947 1972 
L 1259 1972 
L 1259 0 
L 628 0 
L 628 4666 
L 2053 4666 
Q 2853 4666 3247 4331 
Q 3641 3997 3641 3322 
Q 3641 2881 3436 2590 
Q 3231 2300 2841 2188 
z
M 1259 4147 
L 1259 2491 
L 2053 2491 
Q 2509 2491 2742 2702 
Q 2975 2913 2975 3322 
Q 2975 3731 2742 3939 
Q 2509 4147 2053 4147 
L 1259 4147 
z
" transform="scale(0.015625)"/>
      <path id="DejaVuSans-4e" d="M 628 4666 
L 1478 4666 
L 3547 763 
L 3547 4666 
L 4159 4666 
L 4159 0 
L 3309 0 
L 1241 3903 
L 1241 0 
L 628 0 
L 628 4666 
z
" transform="scale(0.015625)"/>
      <path id="DejaVuSans-41" d="M 2188 4044 
L 1331 1722 
L 3047 1722 
L 2188 4044 
z
M 1831 4666 
L 2547 4666 
L 4325 0 
L 3669 0 
L 3244 1197 
L 1141 1197 
L 716 0 
L 50 0 
L 1831 4666 
z
" transform="scale(0.015625)"/>
      <path id="DejaVuSans-71" d="M 947 1747 
Q 947 1113 1208 752 
Q 1469 391 1925 391 
Q 2381 391 2643 752 
Q 2906 1113 2906 1747 
Q 2906 2381 2643 2742 
Q 2381 3103 1925 3103 
Q 1469 3103 1208 2742 
Q 947 2381 947 1747 
z
M 2906 525 
Q 2725 213 2448 61 
Q 2172 -91 1784 -91 
Q 1150 -91 751 415 
Q 353 922 353 1747 
Q 353 2572 751 3078 
Q 1150 3584 1784 3584 
Q 2172 3584 2448 3432 
Q 2725 3281 2906 2969 
L 2906 3500 
L 3481 3500 
L 3481 -1331 
L 2906 -1331 
L 2906 525 
z
" transform="scale(0.015625)"/>
      <path id="DejaVuSans-3a" d="M 750 794 
L 1409 794 
L 1409 0 
L 750 0 
L 750 794 
z
M 750 3309 
L 1409 3309 
L 1409 2516 
L 750 2516 
L 750 3309 
z
" transform="scale(0.015625)"/>
      <path id="DejaVuSans-67" d="M 2906 1791 
Q 2906 2416 2648 2759 
Q 2391 3103 1925 3103 
Q 1463 3103 1205 2759 
Q 947 2416 947 1791 
Q 947 1169 1205 825 
Q 1463 481 1925 481 
Q 2391 481 2648 825 
Q 2906 1169 2906 1791 
z
M 3481 434 
Q 3481 -459 3084 -895 
Q 2688 -1331 1869 -1331 
Q 1566 -1331 1297 -1286 
Q 1028 -1241 775 -1147 
L 775 -588 
Q 1028 -725 1275 -790 
Q 1522 -856 1778 -856 
Q 2344 -856 2625 -561 
Q 2906 -266 2906 331 
L 2906 616 
Q 2728 306 2450 153 
Q 2172 0 1784 0 
Q 1141 0 747 490 
Q 353 981 353 1791 
Q 353 2603 747 3093 
Q 1141 3584 1784 3584 
Q 2172 3584 2450 3431 
Q 2728 3278 2906 2969 
L 2906 3500 
L 3481 3500 
L 3481 434 
z
" transform="scale(0.015625)"/>
      <path id="DejaVuSans-66" d="M 2375 4863 
L 2375 4384 
L 1825 4384 
Q 1516 4384 1395 4259 
Q 1275 4134 1275 3809 
L 1275 3500 
L 2222 3500 
L 2222 3053 
L 1275 3053 
L 1275 0 
L 697 0 
L 697 3053 
L 147 3053 
L 147 3500 
L 697 3500 
L 697 3744 
Q 697 4328 969 4595 
Q 1241 4863 1831 4863 
L 2375 4863 
z
" transform="scale(0.015625)"/>
      <path id="DejaVuSans-47" d="M 3809 666 
L 3809 1919 
L 2778 1919 
L 2778 2438 
L 4434 2438 
L 4434 434 
Q 4069 175 3628 42 
Q 3188 -91 2688 -91 
Q 1594 -91 976 548 
Q 359 1188 359 2328 
Q 359 3472 976 4111 
Q 1594 4750 2688 4750 
Q 3144 4750 3555 4637 
Q 3966 4525 4313 4306 
L 4313 3634 
Q 3963 3931 3569 4081 
Q 3175 4231 2741 4231 
Q 1884 4231 1454 3753 
Q 1025 3275 1025 2328 
Q 1025 1384 1454 906 
Q 1884 428 2741 428 
Q 3075 428 3337 486 
Q 3600 544 3809 666 
z
" transform="scale(0.015625)"/>
     </defs>
     <use xlink:href="#DejaVuSans-51"/>
     <use xlink:href="#DejaVuSans-75" x="78.710938"/>
     <use xlink:href="#DejaVuSans-61" x="142.089844"/>
     <use xlink:href="#DejaVuSans-6c" x="203.369141"/>
     <use xlink:href="#DejaVuSans-69" x="231.152344"/>
     <use xlink:href="#DejaVuSans-6d" x="258.935547"/>
     <use xlink:href="#DejaVuSans-61" x="356.347656"/>
     <use xlink:href="#DejaVuSans-70" x="417.626953"/>
     <use xlink:href="#DejaVuSans-20" x="481.103516"/>
     <use xlink:href="#DejaVuSans-52" x="512.890625"/>
     <use xlink:href="#DejaVuSans-4e" x="582.373047"/>
     <use xlink:href="#DejaVuSans-41" x="657.177734"/>
     <use xlink:href="#DejaVuSans-73" x="725.585938"/>
     <use xlink:href="#DejaVuSans-65" x="777.685547"/>
     <use xlink:href="#DejaVuSans-71" x="839.208984"/>
     <use xlink:href="#DejaVuSans-3a" x="902.685547"/>
     <use xlink:href="#DejaVuSans-20" x="936.376953"/>
     <use xlink:href="#DejaVuSans-43" x="968.164062"/>
     <use xlink:href="#DejaVuSans-6f" x="1037.988281"/>
     <use xlink:href="#DejaVuSans-76" x="1099.169922"/>
     <use xlink:href="#DejaVuSans-65" x="1158.349609"/>
     <use xlink:href="#DejaVuSans-72" x="1219.873047"/>
     <use xlink:href="#DejaVuSans-61" x="1260.986328"/>
     <use xlink:href="#DejaVuSans-67" x="1322.265625"/>
     <use xlink:href="#DejaVuSans-65" x="1385.742188"/>
     <use xlink:href="#DejaVuSans-20" x="1447.265625"/>
     <use xlink:href="#DejaVuSans-50" x="1479.052734"/>
     <use xlink:href="#DejaVuSans-72" x="1537.605469"/>
     <use xlink:href="#DejaVuSans-6f" x="1576.46875"/>
     <use xlink:href="#DejaVuSans-66" x="1637.650391"/>
     <use xlink:href="#DejaVuSans-69" x="1672.855469"/>
     <use xlink:href="#DejaVuSans-6c" x="1700.638672"/>
     <use xlink:href="#DejaVuSans-65" x="1728.421875"/>
     <use xlink:href="#DejaVuSans-20" x="1789.945312"/>
     <use xlink:href="#DejaVuSans-41" x="1821.732422"/>
     <use xlink:href="#DejaVuSans-6c" x="1890.140625"/>
     <use xlink:href="#DejaVuSans-6f" x="1917.923828"/>
     <use xlink:href="#DejaVuSans-6e" x="1979.105469"/>
     <use xlink:href="#DejaVuSans-67" x="2042.484375"/>
     <use xlink:href="#DejaVuSans-20" x="2105.960938"/>
     <use xlink:href="#DejaVuSans-47" x="2137.748047"/>
     <use xlink:href="#DejaVuSans-65" x="2215.238281"/>
     <use xlink:href="#DejaVuSans-6e" x="2276.761719"/>
     <use xlink:href="#DejaVuSans-65" x="2340.140625"/>
     <use xlink:href="#DejaVuSans-73" x="2401.664062"/>
     <use xlink:href="#DejaVuSans-20" x="2453.763672"/>
     <use xlink:href="#DejaVuSans-28" x="2485.550781"/>
     <use xlink:href="#DejaVuSans-74" x="2524.564453"/>
     <use xlink:href="#DejaVuSans-6f" x="2563.773438"/>
     <use xlink:href="#DejaVuSans-74" x="2624.955078"/>
     <use xlink:href="#DejaVuSans-61" x="2664.164062"/>
     <use xlink:href="#DejaVuSans-6c" x="2725.443359"/>
     <use xlink:href="#DejaVuSans-29" x="2753.226562"/>
    </g>
   </g>
   <g id="legend_1">
    <g id="line2d_20">
     <path d="M 60.528125 292.192894 
L 68.528125 292.192894 
L 76.528125 292.192894 
" style="fill: none; stroke: #7cb5ec; stroke-linecap: square"/>
    </g>
    <g id="text_16">
     <!-- SRR2155413 -->
     <g transform="translate(82.928125 294.992894)scale(0.08 -0.08)">
      <defs>
       <path id="DejaVuSans-53" d="M 3425 4513 
L 3425 3897 
Q 3066 4069 2747 4153 
Q 2428 4238 2131 4238 
Q 1616 4238 1336 4038 
Q 1056 3838 1056 3469 
Q 1056 3159 1242 3001 
Q 1428 2844 1947 2747 
L 2328 2669 
Q 3034 2534 3370 2195 
Q 3706 1856 3706 1288 
Q 3706 609 3251 259 
Q 2797 -91 1919 -91 
Q 1588 -91 1214 -16 
Q 841 59 441 206 
L 441 856 
Q 825 641 1194 531 
Q 1563 422 1919 422 
Q 2459 422 2753 634 
Q 3047 847 3047 1241 
Q 3047 1584 2836 1778 
Q 2625 1972 2144 2069 
L 1759 2144 
Q 1053 2284 737 2584 
Q 422 2884 422 3419 
Q 422 4038 858 4394 
Q 1294 4750 2059 4750 
Q 2388 4750 2728 4690 
Q 3069 4631 3425 4513 
z
" transform="scale(0.015625)"/>
       <path id="DejaVuSans-33" d="M 2597 2516 
Q 3050 2419 3304 2112 
Q 3559 1806 3559 1356 
Q 3559 666 3084 287 
Q 2609 -91 1734 -91 
Q 1441 -91 1130 -33 
Q 819 25 488 141 
L 488 750 
Q 750 597 1062 519 
Q 1375 441 1716 441 
Q 2309 441 2620 675 
Q 2931 909 2931 1356 
Q 2931 1769 2642 2001 
Q 2353 2234 1838 2234 
L 1294 2234 
L 1294 2753 
L 1863 2753 
Q 2328 2753 2575 2939 
Q 2822 3125 2822 3475 
Q 2822 3834 2567 4026 
Q 2313 4219 1838 4219 
Q 1578 4219 1281 4162 
Q 984 4106 628 3988 
L 628 4550 
Q 988 4650 1302 4700 
Q 1616 4750 1894 4750 
Q 2613 4750 3031 4423 
Q 3450 4097 3450 3541 
Q 3450 3153 3228 2886 
Q 3006 2619 2597 2516 
z
" transform="scale(0.015625)"/>
      </defs>
      <use xlink:href="#DejaVuSans-53"/>
      <use xlink:href="#DejaVuSans-52" x="63.476562"/>
      <use xlink:href="#DejaVuSans-52" x="132.958984"/>
      <use xlink:href="#DejaVuSans-32" x="202.441406"/>
      <use xlink:href="#DejaVuSans-31" x="266.064453"/>
      <use xlink:href="#DejaVuSans-35" x="329.6875"/>
      <use xlink:href="#DejaVuSans-35" x="393.310547"/>
      <use xlink:href="#DejaVuSans-34" x="456.933594"/>
      <use xlink:href="#DejaVuSans-31" x="520.556641"/>
      <use xlink:href="#DejaVuSans-33" x="584.179688"/>
     </g>
    </g>
    <g id="line2d_21">
     <path d="M 60.528125 303.935394 
L 68.528125 303.935394 
L 76.528125 303.935394 
" style="fill: none; stroke: #434348; stroke-linecap: square"/>
    </g>
    <g id="text_17">
     <!-- SRR2155414 -->
     <g transform="translate(82.928125 306.735394)scale(0.08 -0.08)">
      <use xlink:href="#DejaVuSans-53"/>
      <use xlink:href="#DejaVuSans-52" x="63.476562"/>
      <use xlink:href="#DejaVuSans-52" x="132.958984"/>
      <use xlink:href="#DejaVuSans-32" x="202.441406"/>
      <use xlink:href="#DejaVuSans-31" x="266.064453"/>
      <use xlink:href="#DejaVuSans-35" x="329.6875"/>
      <use xlink:href="#DejaVuSans-35" x="393.310547"/>
      <use xlink:href="#DejaVuSans-34" x="456.933594"/>
      <use xlink:href="#DejaVuSans-31" x="520.556641"/>
      <use xlink:href="#DejaVuSans-34" x="584.179688"/>
     </g>
    </g>
    <g id="line2d_22">
     <path d="M 60.528125 315.677894 
L 68.528125 315.677894 
L 76.528125 315.677894 
" style="fill: none; stroke: #90ed7d; stroke-linecap: square"/>
    </g>
    <g id="text_18">
     <!-- SRR2155415 -->
     <g transform="translate(82.928125 318.477894)scale(0.08 -0.08)">
      <use xlink:href="#DejaVuSans-53"/>
      <use xlink:href="#DejaVuSans-52" x="63.476562"/>
      <use xlink:href="#DejaVuSans-52" x="132.958984"/>
      <use xlink:href="#DejaVuSans-32" x="202.441406"/>
      <use xlink:href="#DejaVuSans-31" x="266.064453"/>
      <use xlink:href="#DejaVuSans-35" x="329.6875"/>
      <use xlink:href="#DejaVuSans-35" x="393.310547"/>
      <use xlink:href="#DejaVuSans-34" x="456.933594"/>
      <use xlink:href="#DejaVuSans-31" x="520.556641"/>
      <use xlink:href="#DejaVuSans-35" x="584.179688"/>
     </g>
    </g>
    <g id="line2d_23">
     <path d="M 271.365313 292.192894 
L 279.365313 292.192894 
L 287.365313 292.192894 
" style="fill: none; stroke: #f7a35c; stroke-linecap: square"/>
    </g>
    <g id="text_19">
     <!-- SRR2155416 -->
     <g transform="translate(293.765312 294.992894)scale(0.08 -0.08)">
      <use xlink:href="#DejaVuSans-53"/>
      <use xlink:href="#DejaVuSans-52" x="63.476562"/>
      <use xlink:href="#DejaVuSans-52" x="132.958984"/>
      <use xlink:href="#DejaVuSans-32" x="202.441406"/>
      <use xlink:href="#DejaVuSans-31" x="266.064453"/>
      <use xlink:href="#DejaVuSans-35" x="329.6875"/>
      <use xlink:href="#DejaVuSans-35" x="393.310547"/>
      <use xlink:href="#DejaVuSans-34" x="456.933594"/>
      <use xlink:href="#DejaVuSans-31" x="520.556641"/>
      <use xlink:href="#DejaVuSans-36" x="584.179688"/>
     </g>
    </g>
    <g id="line2d_24">
     <path d="M 271.365313 303.935394 
L 279.365313 303.935394 
L 287.365313 303.935394 
" style="fill: none; stroke: #8085e9; stroke-linecap: square"/>
    </g>
    <g id="text_20">
     <!-- SRR2155417 -->
     <g transform="translate(293.765312 306.735394)scale(0.08 -0.08)">
      <defs>
       <path id="DejaVuSans-37" d="M 525 4666 
L 3525 4666 
L 3525 4397 
L 1831 0 
L 1172 0 
L 2766 4134 
L 525 4134 
L 525 4666 
z
" transform="scale(0.015625)"/>
      </defs>
      <use xlink:href="#DejaVuSans-53"/>
      <use xlink:href="#DejaVuSans-52" x="63.476562"/>
      <use xlink:href="#DejaVuSans-52" x="132.958984"/>
      <use xlink:href="#DejaVuSans-32" x="202.441406"/>
      <use xlink:href="#DejaVuSans-31" x="266.064453"/>
      <use xlink:href="#DejaVuSans-35" x="329.6875"/>
      <use xlink:href="#DejaVuSans-35" x="393.310547"/>
      <use xlink:href="#DejaVuSans-34" x="456.933594"/>
      <use xlink:href="#DejaVuSans-31" x="520.556641"/>
      <use xlink:href="#DejaVuSans-37" x="584.179688"/>
     </g>
    </g>
    <g id="line2d_25">
     <path d="M 271.365313 315.677894 
L 279.365313 315.677894 
L 287.365313 315.677894 
" style="fill: none; stroke: #f15c80; stroke-linecap: square"/>
    </g>
    <g id="text_21">
     <!-- SRR2155418 -->
     <g transform="translate(293.765312 318.477894)scale(0.08 -0.08)">
      <use xlink:href="#DejaVuSans-53"/>
      <use xlink:href="#DejaVuSans-52" x="63.476562"/>
      <use xlink:href="#DejaVuSans-52" x="132.958984"/>
      <use xlink:href="#DejaVuSans-32" x="202.441406"/>
      <use xlink:href="#DejaVuSans-31" x="266.064453"/>
      <use xlink:href="#DejaVuSans-35" x="329.6875"/>
      <use xlink:href="#DejaVuSans-35" x="393.310547"/>
      <use xlink:href="#DejaVuSans-34" x="456.933594"/>
      <use xlink:href="#DejaVuSans-31" x="520.556641"/>
      <use xlink:href="#DejaVuSans-38" x="584.179688"/>
     </g>
    </g>
    <g id="line2d_26">
     <path d="M 482.2025 292.192894 
L 490.2025 292.192894 
L 498.2025 292.192894 
" style="fill: none; stroke: #e4d354; stroke-linecap: square"/>
    </g>
    <g id="text_22">
     <!-- SRR2155419 -->
     <g transform="translate(504.6025 294.992894)scale(0.08 -0.08)">
      <defs>
       <path id="DejaVuSans-39" d="M 703 97 
L 703 672 
Q 941 559 1184 500 
Q 1428 441 1663 441 
Q 2288 441 2617 861 
Q 2947 1281 2994 2138 
Q 2813 1869 2534 1725 
Q 2256 1581 1919 1581 
Q 1219 1581 811 2004 
Q 403 2428 403 3163 
Q 403 3881 828 4315 
Q 1253 4750 1959 4750 
Q 2769 4750 3195 4129 
Q 3622 3509 3622 2328 
Q 3622 1225 3098 567 
Q 2575 -91 1691 -91 
Q 1453 -91 1209 -44 
Q 966 3 703 97 
z
M 1959 2075 
Q 2384 2075 2632 2365 
Q 2881 2656 2881 3163 
Q 2881 3666 2632 3958 
Q 2384 4250 1959 4250 
Q 1534 4250 1286 3958 
Q 1038 3666 1038 3163 
Q 1038 2656 1286 2365 
Q 1534 2075 1959 2075 
z
" transform="scale(0.015625)"/>
      </defs>
      <use xlink:href="#DejaVuSans-53"/>
      <use xlink:href="#DejaVuSans-52" x="63.476562"/>
      <use xlink:href="#DejaVuSans-52" x="132.958984"/>
      <use xlink:href="#DejaVuSans-32" x="202.441406"/>
      <use xlink:href="#DejaVuSans-31" x="266.064453"/>
      <use xlink:href="#DejaVuSans-35" x="329.6875"/>
      <use xlink:href="#DejaVuSans-35" x="393.310547"/>
      <use xlink:href="#DejaVuSans-34" x="456.933594"/>
      <use xlink:href="#DejaVuSans-31" x="520.556641"/>
      <use xlink:href="#DejaVuSans-39" x="584.179688"/>
     </g>
    </g>
    <g id="line2d_27">
     <path d="M 482.2025 303.935394 
L 490.2025 303.935394 
L 498.2025 303.935394 
" style="fill: none; stroke: #2b908f; stroke-linecap: square"/>
    </g>
    <g id="text_23">
     <!-- SRR2155420 -->
     <g transform="translate(504.6025 306.735394)scale(0.08 -0.08)">
      <use xlink:href="#DejaVuSans-53"/>
      <use xlink:href="#DejaVuSans-52" x="63.476562"/>
      <use xlink:href="#DejaVuSans-52" x="132.958984"/>
      <use xlink:href="#DejaVuSans-32" x="202.441406"/>
      <use xlink:href="#DejaVuSans-31" x="266.064453"/>
      <use xlink:href="#DejaVuSans-35" x="329.6875"/>
      <use xlink:href="#DejaVuSans-35" x="393.310547"/>
      <use xlink:href="#DejaVuSans-34" x="456.933594"/>
      <use xlink:href="#DejaVuSans-32" x="520.556641"/>
      <use xlink:href="#DejaVuSans-30" x="584.179688"/>
     </g>
    </g>
    <g id="line2d_28">
     <path d="M 693.039688 292.192894 
L 701.039688 292.192894 
L 709.039688 292.192894 
" style="fill: none; stroke: #f45b5b; stroke-linecap: square"/>
    </g>
    <g id="text_24">
     <!-- SRR2155421 -->
     <g transform="translate(715.439688 294.992894)scale(0.08 -0.08)">
      <use xlink:href="#DejaVuSans-53"/>
      <use xlink:href="#DejaVuSans-52" x="63.476562"/>
      <use xlink:href="#DejaVuSans-52" x="132.958984"/>
      <use xlink:href="#DejaVuSans-32" x="202.441406"/>
      <use xlink:href="#DejaVuSans-31" x="266.064453"/>
      <use xlink:href="#DejaVuSans-35" x="329.6875"/>
      <use xlink:href="#DejaVuSans-35" x="393.310547"/>
      <use xlink:href="#DejaVuSans-34" x="456.933594"/>
      <use xlink:href="#DejaVuSans-32" x="520.556641"/>
      <use xlink:href="#DejaVuSans-31" x="584.179688"/>
     </g>
    </g>
    <g id="line2d_29">
     <path d="M 693.039688 303.935394 
L 701.039688 303.935394 
L 709.039688 303.935394 
" style="fill: none; stroke: #91e8e1; stroke-linecap: square"/>
    </g>
    <g id="text_25">
     <!-- SRR2155422 -->
     <g transform="translate(715.439688 306.735394)scale(0.08 -0.08)">
      <use xlink:href="#DejaVuSans-53"/>
      <use xlink:href="#DejaVuSans-52" x="63.476562"/>
      <use xlink:href="#DejaVuSans-52" x="132.958984"/>
      <use xlink:href="#DejaVuSans-32" x="202.441406"/>
      <use xlink:href="#DejaVuSans-31" x="266.064453"/>
      <use xlink:href="#DejaVuSans-35" x="329.6875"/>
      <use xlink:href="#DejaVuSans-35" x="393.310547"/>
      <use xlink:href="#DejaVuSans-34" x="456.933594"/>
      <use xlink:href="#DejaVuSans-32" x="520.556641"/>
      <use xlink:href="#DejaVuSans-32" x="584.179688"/>
     </g>
    </g>
    <g id="line2d_30">
     <path d="M 903.876875 292.192894 
L 911.876875 292.192894 
L 919.876875 292.192894 
" style="fill: none; stroke: #7cb5ec; stroke-linecap: square"/>
    </g>
    <g id="text_26">
     <!-- SRR2155423 -->
     <g transform="translate(926.276875 294.992894)scale(0.08 -0.08)">
      <use xlink:href="#DejaVuSans-53"/>
      <use xlink:href="#DejaVuSans-52" x="63.476562"/>
      <use xlink:href="#DejaVuSans-52" x="132.958984"/>
      <use xlink:href="#DejaVuSans-32" x="202.441406"/>
      <use xlink:href="#DejaVuSans-31" x="266.064453"/>
      <use xlink:href="#DejaVuSans-35" x="329.6875"/>
      <use xlink:href="#DejaVuSans-35" x="393.310547"/>
      <use xlink:href="#DejaVuSans-34" x="456.933594"/>
      <use xlink:href="#DejaVuSans-32" x="520.556641"/>
      <use xlink:href="#DejaVuSans-33" x="584.179688"/>
     </g>
    </g>
    <g id="line2d_31">
     <path d="M 903.876875 303.935394 
L 911.876875 303.935394 
L 919.876875 303.935394 
" style="fill: none; stroke: #434348; stroke-linecap: square"/>
    </g>
    <g id="text_27">
     <!-- SRR2155424 -->
     <g transform="translate(926.276875 306.735394)scale(0.08 -0.08)">
      <use xlink:href="#DejaVuSans-53"/>
      <use xlink:href="#DejaVuSans-52" x="63.476562"/>
      <use xlink:href="#DejaVuSans-52" x="132.958984"/>
      <use xlink:href="#DejaVuSans-32" x="202.441406"/>
      <use xlink:href="#DejaVuSans-31" x="266.064453"/>
      <use xlink:href="#DejaVuSans-35" x="329.6875"/>
      <use xlink:href="#DejaVuSans-35" x="393.310547"/>
      <use xlink:href="#DejaVuSans-34" x="456.933594"/>
      <use xlink:href="#DejaVuSans-32" x="520.556641"/>
      <use xlink:href="#DejaVuSans-34" x="584.179688"/>
     </g>
    </g>
   </g>
  </g>
 </g>
 <defs>
  <clipPath id="p8179edc01c">
   <rect x="53.328125" y="31.48286" width="931.975" height="242.5072"/>
  </clipPath>
 </defs>
</svg>
