<?xml version="1.0" encoding="utf-8" standalone="no"?>
<!DOCTYPE svg PUBLIC "-//W3C//DTD SVG 1.1//EN"
  "http://www.w3.org/Graphics/SVG/1.1/DTD/svg11.dtd">
<svg xmlns:xlink="http://www.w3.org/1999/xlink" width="1000.280625pt" height="330.541644pt" viewBox="0 0 1000.280625 330.541644" xmlns="http://www.w3.org/2000/svg" version="1.1">
 <metadata>
  <rdf:RDF xmlns:dc="http://purl.org/dc/elements/1.1/" xmlns:cc="http://creativecommons.org/ns#" xmlns:rdf="http://www.w3.org/1999/02/22-rdf-syntax-ns#">
   <cc:Work>
    <dc:type rdf:resource="http://purl.org/dc/dcmitype/StillImage"/>
    <dc:date>2024-08-14T16:02:01.662529</dc:date>
    <dc:format>image/svg+xml</dc:format>
    <dc:creator>
     <cc:Agent>
      <dc:title>Matplotlib v3.5.3, https://matplotlib.org/</dc:title>
     </cc:Agent>
    </dc:creator>
   </cc:Work>
  </rdf:RDF>
 </metadata>
 <defs>
  <style type="text/css">*{stroke-linejoin: round; stroke-linecap: butt}</style>
 </defs>
 <g id="figure_1">
  <g id="axes_1">
   <g id="patch_1">
    <path d="M 40.600625 273.99006 
L 985.445625 273.99006 
L 985.445625 31.48286 
L 40.600625 31.48286 
z
" style="fill: #ffffff"/>
   </g>
   <g id="matplotlib.axis_1">
    <g id="xtick_1">
     <g id="text_1">
      <!-- 0 -->
      <g transform="translate(38.055625 287.06881)scale(0.08 -0.08)">
       <defs>
        <path id="DejaVuSans-30" d="M 2034 4250 
Q 1547 4250 1301 3770 
Q 1056 3291 1056 2328 
Q 1056 1369 1301 889 
Q 1547 409 2034 409 
Q 2525 409 2770 889 
Q 3016 1369 3016 2328 
Q 3016 3291 2770 3770 
Q 2525 4250 2034 4250 
z
M 2034 4750 
Q 2819 4750 3233 4129 
Q 3647 3509 3647 2328 
Q 3647 1150 3233 529 
Q 2819 -91 2034 -91 
Q 1250 -91 836 529 
Q 422 1150 422 2328 
Q 422 3509 836 4129 
Q 1250 4750 2034 4750 
z
" transform="scale(0.015625)"/>
       </defs>
       <use xlink:href="#DejaVuSans-30"/>
      </g>
     </g>
    </g>
    <g id="xtick_2">
     <g id="text_2">
      <!-- 20 -->
      <g transform="translate(224.479625 287.06881)scale(0.08 -0.08)">
       <defs>
        <path id="DejaVuSans-32" d="M 1228 531 
L 3431 531 
L 3431 0 
L 469 0 
L 469 531 
Q 828 903 1448 1529 
Q 2069 2156 2228 2338 
Q 2531 2678 2651 2914 
Q 2772 3150 2772 3378 
Q 2772 3750 2511 3984 
Q 2250 4219 1831 4219 
Q 1534 4219 1204 4116 
Q 875 4013 500 3803 
L 500 4441 
Q 881 4594 1212 4672 
Q 1544 4750 1819 4750 
Q 2544 4750 2975 4387 
Q 3406 4025 3406 3419 
Q 3406 3131 3298 2873 
Q 3191 2616 2906 2266 
Q 2828 2175 2409 1742 
Q 1991 1309 1228 531 
z
" transform="scale(0.015625)"/>
       </defs>
       <use xlink:href="#DejaVuSans-32"/>
       <use xlink:href="#DejaVuSans-30" x="63.623047"/>
      </g>
     </g>
    </g>
    <g id="xtick_3">
     <g id="text_3">
      <!-- 40 -->
      <g transform="translate(413.448625 287.06881)scale(0.08 -0.08)">
       <defs>
        <path id="DejaVuSans-34" d="M 2419 4116 
L 825 1625 
L 2419 1625 
L 2419 4116 
z
M 2253 4666 
L 3047 4666 
L 3047 1625 
L 3713 1625 
L 3713 1100 
L 3047 1100 
L 3047 0 
L 2419 0 
L 2419 1100 
L 313 1100 
L 313 1709 
L 2253 4666 
z
" transform="scale(0.015625)"/>
       </defs>
       <use xlink:href="#DejaVuSans-34"/>
       <use xlink:href="#DejaVuSans-30" x="63.623047"/>
      </g>
     </g>
    </g>
    <g id="xtick_4">
     <g id="text_4">
      <!-- 60 -->
      <g transform="translate(602.417625 287.06881)scale(0.08 -0.08)">
       <defs>
        <path id="DejaVuSans-36" d="M 2113 2584 
Q 1688 2584 1439 2293 
Q 1191 2003 1191 1497 
Q 1191 994 1439 701 
Q 1688 409 2113 409 
Q 2538 409 2786 701 
Q 3034 994 3034 1497 
Q 3034 2003 2786 2293 
Q 2538 2584 2113 2584 
z
M 3366 4563 
L 3366 3988 
Q 3128 4100 2886 4159 
Q 2644 4219 2406 4219 
Q 1781 4219 1451 3797 
Q 1122 3375 1075 2522 
Q 1259 2794 1537 2939 
Q 1816 3084 2150 3084 
Q 2853 3084 3261 2657 
Q 3669 2231 3669 1497 
Q 3669 778 3244 343 
Q 2819 -91 2113 -91 
Q 1303 -91 875 529 
Q 447 1150 447 2328 
Q 447 3434 972 4092 
Q 1497 4750 2381 4750 
Q 2619 4750 2861 4703 
Q 3103 4656 3366 4563 
z
" transform="scale(0.015625)"/>
       </defs>
       <use xlink:href="#DejaVuSans-36"/>
       <use xlink:href="#DejaVuSans-30" x="63.623047"/>
      </g>
     </g>
    </g>
    <g id="xtick_5">
     <g id="text_5">
      <!-- 80 -->
      <g transform="translate(791.386625 287.06881)scale(0.08 -0.08)">
       <defs>
        <path id="DejaVuSans-38" d="M 2034 2216 
Q 1584 2216 1326 1975 
Q 1069 1734 1069 1313 
Q 1069 891 1326 650 
Q 1584 409 2034 409 
Q 2484 409 2743 651 
Q 3003 894 3003 1313 
Q 3003 1734 2745 1975 
Q 2488 2216 2034 2216 
z
M 1403 2484 
Q 997 2584 770 2862 
Q 544 3141 544 3541 
Q 544 4100 942 4425 
Q 1341 4750 2034 4750 
Q 2731 4750 3128 4425 
Q 3525 4100 3525 3541 
Q 3525 3141 3298 2862 
Q 3072 2584 2669 2484 
Q 3125 2378 3379 2068 
Q 3634 1759 3634 1313 
Q 3634 634 3220 271 
Q 2806 -91 2034 -91 
Q 1263 -91 848 271 
Q 434 634 434 1313 
Q 434 1759 690 2068 
Q 947 2378 1403 2484 
z
M 1172 3481 
Q 1172 3119 1398 2916 
Q 1625 2713 2034 2713 
Q 2441 2713 2670 2916 
Q 2900 3119 2900 3481 
Q 2900 3844 2670 4047 
Q 2441 4250 2034 4250 
Q 1625 4250 1398 4047 
Q 1172 3844 1172 3481 
z
" transform="scale(0.015625)"/>
       </defs>
       <use xlink:href="#DejaVuSans-38"/>
       <use xlink:href="#DejaVuSans-30" x="63.623047"/>
      </g>
     </g>
    </g>
    <g id="xtick_6">
     <g id="text_6">
      <!-- 100 -->
      <g transform="translate(977.810625 287.06881)scale(0.08 -0.08)">
       <defs>
        <path id="DejaVuSans-31" d="M 794 531 
L 1825 531 
L 1825 4091 
L 703 3866 
L 703 4441 
L 1819 4666 
L 2450 4666 
L 2450 531 
L 3481 531 
L 3481 0 
L 794 0 
L 794 531 
z
" transform="scale(0.015625)"/>
       </defs>
       <use xlink:href="#DejaVuSans-31"/>
       <use xlink:href="#DejaVuSans-30" x="63.623047"/>
       <use xlink:href="#DejaVuSans-30" x="127.246094"/>
      </g>
     </g>
    </g>
    <g id="text_7">
     <!-- Transcript Position (%) -->
     <g transform="translate(457.191094 300.330997)scale(0.1 -0.1)">
      <defs>
       <path id="DejaVuSans-54" d="M -19 4666 
L 3928 4666 
L 3928 4134 
L 2272 4134 
L 2272 0 
L 1638 0 
L 1638 4134 
L -19 4134 
L -19 4666 
z
" transform="scale(0.015625)"/>
       <path id="DejaVuSans-72" d="M 2631 2963 
Q 2534 3019 2420 3045 
Q 2306 3072 2169 3072 
Q 1681 3072 1420 2755 
Q 1159 2438 1159 1844 
L 1159 0 
L 581 0 
L 581 3500 
L 1159 3500 
L 1159 2956 
Q 1341 3275 1631 3429 
Q 1922 3584 2338 3584 
Q 2397 3584 2469 3576 
Q 2541 3569 2628 3553 
L 2631 2963 
z
" transform="scale(0.015625)"/>
       <path id="DejaVuSans-61" d="M 2194 1759 
Q 1497 1759 1228 1600 
Q 959 1441 959 1056 
Q 959 750 1161 570 
Q 1363 391 1709 391 
Q 2188 391 2477 730 
Q 2766 1069 2766 1631 
L 2766 1759 
L 2194 1759 
z
M 3341 1997 
L 3341 0 
L 2766 0 
L 2766 531 
Q 2569 213 2275 61 
Q 1981 -91 1556 -91 
Q 1019 -91 701 211 
Q 384 513 384 1019 
Q 384 1609 779 1909 
Q 1175 2209 1959 2209 
L 2766 2209 
L 2766 2266 
Q 2766 2663 2505 2880 
Q 2244 3097 1772 3097 
Q 1472 3097 1187 3025 
Q 903 2953 641 2809 
L 641 3341 
Q 956 3463 1253 3523 
Q 1550 3584 1831 3584 
Q 2591 3584 2966 3190 
Q 3341 2797 3341 1997 
z
" transform="scale(0.015625)"/>
       <path id="DejaVuSans-6e" d="M 3513 2113 
L 3513 0 
L 2938 0 
L 2938 2094 
Q 2938 2591 2744 2837 
Q 2550 3084 2163 3084 
Q 1697 3084 1428 2787 
Q 1159 2491 1159 1978 
L 1159 0 
L 581 0 
L 581 3500 
L 1159 3500 
L 1159 2956 
Q 1366 3272 1645 3428 
Q 1925 3584 2291 3584 
Q 2894 3584 3203 3211 
Q 3513 2838 3513 2113 
z
" transform="scale(0.015625)"/>
       <path id="DejaVuSans-73" d="M 2834 3397 
L 2834 2853 
Q 2591 2978 2328 3040 
Q 2066 3103 1784 3103 
Q 1356 3103 1142 2972 
Q 928 2841 928 2578 
Q 928 2378 1081 2264 
Q 1234 2150 1697 2047 
L 1894 2003 
Q 2506 1872 2764 1633 
Q 3022 1394 3022 966 
Q 3022 478 2636 193 
Q 2250 -91 1575 -91 
Q 1294 -91 989 -36 
Q 684 19 347 128 
L 347 722 
Q 666 556 975 473 
Q 1284 391 1588 391 
Q 1994 391 2212 530 
Q 2431 669 2431 922 
Q 2431 1156 2273 1281 
Q 2116 1406 1581 1522 
L 1381 1569 
Q 847 1681 609 1914 
Q 372 2147 372 2553 
Q 372 3047 722 3315 
Q 1072 3584 1716 3584 
Q 2034 3584 2315 3537 
Q 2597 3491 2834 3397 
z
" transform="scale(0.015625)"/>
       <path id="DejaVuSans-63" d="M 3122 3366 
L 3122 2828 
Q 2878 2963 2633 3030 
Q 2388 3097 2138 3097 
Q 1578 3097 1268 2742 
Q 959 2388 959 1747 
Q 959 1106 1268 751 
Q 1578 397 2138 397 
Q 2388 397 2633 464 
Q 2878 531 3122 666 
L 3122 134 
Q 2881 22 2623 -34 
Q 2366 -91 2075 -91 
Q 1284 -91 818 406 
Q 353 903 353 1747 
Q 353 2603 823 3093 
Q 1294 3584 2113 3584 
Q 2378 3584 2631 3529 
Q 2884 3475 3122 3366 
z
" transform="scale(0.015625)"/>
       <path id="DejaVuSans-69" d="M 603 3500 
L 1178 3500 
L 1178 0 
L 603 0 
L 603 3500 
z
M 603 4863 
L 1178 4863 
L 1178 4134 
L 603 4134 
L 603 4863 
z
" transform="scale(0.015625)"/>
       <path id="DejaVuSans-70" d="M 1159 525 
L 1159 -1331 
L 581 -1331 
L 581 3500 
L 1159 3500 
L 1159 2969 
Q 1341 3281 1617 3432 
Q 1894 3584 2278 3584 
Q 2916 3584 3314 3078 
Q 3713 2572 3713 1747 
Q 3713 922 3314 415 
Q 2916 -91 2278 -91 
Q 1894 -91 1617 61 
Q 1341 213 1159 525 
z
M 3116 1747 
Q 3116 2381 2855 2742 
Q 2594 3103 2138 3103 
Q 1681 3103 1420 2742 
Q 1159 2381 1159 1747 
Q 1159 1113 1420 752 
Q 1681 391 2138 391 
Q 2594 391 2855 752 
Q 3116 1113 3116 1747 
z
" transform="scale(0.015625)"/>
       <path id="DejaVuSans-74" d="M 1172 4494 
L 1172 3500 
L 2356 3500 
L 2356 3053 
L 1172 3053 
L 1172 1153 
Q 1172 725 1289 603 
Q 1406 481 1766 481 
L 2356 481 
L 2356 0 
L 1766 0 
Q 1100 0 847 248 
Q 594 497 594 1153 
L 594 3053 
L 172 3053 
L 172 3500 
L 594 3500 
L 594 4494 
L 1172 4494 
z
" transform="scale(0.015625)"/>
       <path id="DejaVuSans-20" transform="scale(0.015625)"/>
       <path id="DejaVuSans-50" d="M 1259 4147 
L 1259 2394 
L 2053 2394 
Q 2494 2394 2734 2622 
Q 2975 2850 2975 3272 
Q 2975 3691 2734 3919 
Q 2494 4147 2053 4147 
L 1259 4147 
z
M 628 4666 
L 2053 4666 
Q 2838 4666 3239 4311 
Q 3641 3956 3641 3272 
Q 3641 2581 3239 2228 
Q 2838 1875 2053 1875 
L 1259 1875 
L 1259 0 
L 628 0 
L 628 4666 
z
" transform="scale(0.015625)"/>
       <path id="DejaVuSans-6f" d="M 1959 3097 
Q 1497 3097 1228 2736 
Q 959 2375 959 1747 
Q 959 1119 1226 758 
Q 1494 397 1959 397 
Q 2419 397 2687 759 
Q 2956 1122 2956 1747 
Q 2956 2369 2687 2733 
Q 2419 3097 1959 3097 
z
M 1959 3584 
Q 2709 3584 3137 3096 
Q 3566 2609 3566 1747 
Q 3566 888 3137 398 
Q 2709 -91 1959 -91 
Q 1206 -91 779 398 
Q 353 888 353 1747 
Q 353 2609 779 3096 
Q 1206 3584 1959 3584 
z
" transform="scale(0.015625)"/>
       <path id="DejaVuSans-28" d="M 1984 4856 
Q 1566 4138 1362 3434 
Q 1159 2731 1159 2009 
Q 1159 1288 1364 580 
Q 1569 -128 1984 -844 
L 1484 -844 
Q 1016 -109 783 600 
Q 550 1309 550 2009 
Q 550 2706 781 3412 
Q 1013 4119 1484 4856 
L 1984 4856 
z
" transform="scale(0.015625)"/>
       <path id="DejaVuSans-25" d="M 4653 2053 
Q 4381 2053 4226 1822 
Q 4072 1591 4072 1178 
Q 4072 772 4226 539 
Q 4381 306 4653 306 
Q 4919 306 5073 539 
Q 5228 772 5228 1178 
Q 5228 1588 5073 1820 
Q 4919 2053 4653 2053 
z
M 4653 2450 
Q 5147 2450 5437 2106 
Q 5728 1763 5728 1178 
Q 5728 594 5436 251 
Q 5144 -91 4653 -91 
Q 4153 -91 3862 251 
Q 3572 594 3572 1178 
Q 3572 1766 3864 2108 
Q 4156 2450 4653 2450 
z
M 1428 4353 
Q 1159 4353 1004 4120 
Q 850 3888 850 3481 
Q 850 3069 1003 2837 
Q 1156 2606 1428 2606 
Q 1700 2606 1854 2837 
Q 2009 3069 2009 3481 
Q 2009 3884 1853 4118 
Q 1697 4353 1428 4353 
z
M 4250 4750 
L 4750 4750 
L 1831 -91 
L 1331 -91 
L 4250 4750 
z
M 1428 4750 
Q 1922 4750 2215 4408 
Q 2509 4066 2509 3481 
Q 2509 2891 2217 2550 
Q 1925 2209 1428 2209 
Q 931 2209 642 2551 
Q 353 2894 353 3481 
Q 353 4063 643 4406 
Q 934 4750 1428 4750 
z
" transform="scale(0.015625)"/>
       <path id="DejaVuSans-29" d="M 513 4856 
L 1013 4856 
Q 1481 4119 1714 3412 
Q 1947 2706 1947 2009 
Q 1947 1309 1714 600 
Q 1481 -109 1013 -844 
L 513 -844 
Q 928 -128 1133 580 
Q 1338 1288 1338 2009 
Q 1338 2731 1133 3434 
Q 928 4138 513 4856 
z
" transform="scale(0.015625)"/>
      </defs>
      <use xlink:href="#DejaVuSans-54"/>
      <use xlink:href="#DejaVuSans-72" x="46.333984"/>
      <use xlink:href="#DejaVuSans-61" x="87.447266"/>
      <use xlink:href="#DejaVuSans-6e" x="148.726562"/>
      <use xlink:href="#DejaVuSans-73" x="212.105469"/>
      <use xlink:href="#DejaVuSans-63" x="264.205078"/>
      <use xlink:href="#DejaVuSans-72" x="319.185547"/>
      <use xlink:href="#DejaVuSans-69" x="360.298828"/>
      <use xlink:href="#DejaVuSans-70" x="388.082031"/>
      <use xlink:href="#DejaVuSans-74" x="451.558594"/>
      <use xlink:href="#DejaVuSans-20" x="490.767578"/>
      <use xlink:href="#DejaVuSans-50" x="522.554688"/>
      <use xlink:href="#DejaVuSans-6f" x="579.232422"/>
      <use xlink:href="#DejaVuSans-73" x="640.414062"/>
      <use xlink:href="#DejaVuSans-69" x="692.513672"/>
      <use xlink:href="#DejaVuSans-74" x="720.296875"/>
      <use xlink:href="#DejaVuSans-69" x="759.505859"/>
      <use xlink:href="#DejaVuSans-6f" x="787.289062"/>
      <use xlink:href="#DejaVuSans-6e" x="848.470703"/>
      <use xlink:href="#DejaVuSans-20" x="911.849609"/>
      <use xlink:href="#DejaVuSans-28" x="943.636719"/>
      <use xlink:href="#DejaVuSans-25" x="982.650391"/>
      <use xlink:href="#DejaVuSans-29" x="1077.669922"/>
     </g>
    </g>
   </g>
   <g id="matplotlib.axis_2">
    <g id="ytick_1">
     <g id="line2d_1">
      <path d="M 40.600625 273.99006 
L 985.445625 273.99006 
" clip-path="url(#paf55b96c85)" style="fill: none; stroke: #dedede; stroke-linecap: square"/>
     </g>
     <g id="text_8">
      <!-- 0.0 -->
      <g transform="translate(20.878125 277.029435)scale(0.08 -0.08)">
       <defs>
        <path id="DejaVuSans-2e" d="M 684 794 
L 1344 794 
L 1344 0 
L 684 0 
L 684 794 
z
" transform="scale(0.015625)"/>
       </defs>
       <use xlink:href="#DejaVuSans-30"/>
       <use xlink:href="#DejaVuSans-2e" x="63.623047"/>
       <use xlink:href="#DejaVuSans-30" x="95.410156"/>
      </g>
     </g>
    </g>
    <g id="ytick_2">
     <g id="line2d_2">
      <path d="M 40.600625 238.150081 
L 985.445625 238.150081 
" clip-path="url(#paf55b96c85)" style="fill: none; stroke: #dedede; stroke-linecap: square"/>
     </g>
     <g id="text_9">
      <!-- 0.2 -->
      <g transform="translate(20.878125 241.189456)scale(0.08 -0.08)">
       <use xlink:href="#DejaVuSans-30"/>
       <use xlink:href="#DejaVuSans-2e" x="63.623047"/>
       <use xlink:href="#DejaVuSans-32" x="95.410156"/>
      </g>
     </g>
    </g>
    <g id="ytick_3">
     <g id="line2d_3">
      <path d="M 40.600625 202.310103 
L 985.445625 202.310103 
" clip-path="url(#paf55b96c85)" style="fill: none; stroke: #dedede; stroke-linecap: square"/>
     </g>
     <g id="text_10">
      <!-- 0.4 -->
      <g transform="translate(20.878125 205.349478)scale(0.08 -0.08)">
       <use xlink:href="#DejaVuSans-30"/>
       <use xlink:href="#DejaVuSans-2e" x="63.623047"/>
       <use xlink:href="#DejaVuSans-34" x="95.410156"/>
      </g>
     </g>
    </g>
    <g id="ytick_4">
     <g id="line2d_4">
      <path d="M 40.600625 166.470124 
L 985.445625 166.470124 
" clip-path="url(#paf55b96c85)" style="fill: none; stroke: #dedede; stroke-linecap: square"/>
     </g>
     <g id="text_11">
      <!-- 0.6 -->
      <g transform="translate(20.878125 169.509499)scale(0.08 -0.08)">
       <use xlink:href="#DejaVuSans-30"/>
       <use xlink:href="#DejaVuSans-2e" x="63.623047"/>
       <use xlink:href="#DejaVuSans-36" x="95.410156"/>
      </g>
     </g>
    </g>
    <g id="ytick_5">
     <g id="line2d_5">
      <path d="M 40.600625 130.630145 
L 985.445625 130.630145 
" clip-path="url(#paf55b96c85)" style="fill: none; stroke: #dedede; stroke-linecap: square"/>
     </g>
     <g id="text_12">
      <!-- 0.8 -->
      <g transform="translate(20.878125 133.66952)scale(0.08 -0.08)">
       <use xlink:href="#DejaVuSans-30"/>
       <use xlink:href="#DejaVuSans-2e" x="63.623047"/>
       <use xlink:href="#DejaVuSans-38" x="95.410156"/>
      </g>
     </g>
    </g>
    <g id="ytick_6">
     <g id="line2d_6">
      <path d="M 40.600625 94.790166 
L 985.445625 94.790166 
" clip-path="url(#paf55b96c85)" style="fill: none; stroke: #dedede; stroke-linecap: square"/>
     </g>
     <g id="text_13">
      <!-- 1.0 -->
      <g transform="translate(20.878125 97.829541)scale(0.08 -0.08)">
       <use xlink:href="#DejaVuSans-31"/>
       <use xlink:href="#DejaVuSans-2e" x="63.623047"/>
       <use xlink:href="#DejaVuSans-30" x="95.410156"/>
      </g>
     </g>
    </g>
    <g id="ytick_7">
     <g id="line2d_7">
      <path d="M 40.600625 58.950188 
L 985.445625 58.950188 
" clip-path="url(#paf55b96c85)" style="fill: none; stroke: #dedede; stroke-linecap: square"/>
     </g>
     <g id="text_14">
      <!-- 1.2 -->
      <g transform="translate(20.878125 61.989563)scale(0.08 -0.08)">
       <use xlink:href="#DejaVuSans-31"/>
       <use xlink:href="#DejaVuSans-2e" x="63.623047"/>
       <use xlink:href="#DejaVuSans-32" x="95.410156"/>
      </g>
     </g>
    </g>
    <g id="text_15">
     <!-- Percentage total cumulative mapped-read depth -->
     <g transform="translate(14.798438 274.59271)rotate(-90)scale(0.1 -0.1)">
      <defs>
       <path id="DejaVuSans-65" d="M 3597 1894 
L 3597 1613 
L 953 1613 
Q 991 1019 1311 708 
Q 1631 397 2203 397 
Q 2534 397 2845 478 
Q 3156 559 3463 722 
L 3463 178 
Q 3153 47 2828 -22 
Q 2503 -91 2169 -91 
Q 1331 -91 842 396 
Q 353 884 353 1716 
Q 353 2575 817 3079 
Q 1281 3584 2069 3584 
Q 2775 3584 3186 3129 
Q 3597 2675 3597 1894 
z
M 3022 2063 
Q 3016 2534 2758 2815 
Q 2500 3097 2075 3097 
Q 1594 3097 1305 2825 
Q 1016 2553 972 2059 
L 3022 2063 
z
" transform="scale(0.015625)"/>
       <path id="DejaVuSans-67" d="M 2906 1791 
Q 2906 2416 2648 2759 
Q 2391 3103 1925 3103 
Q 1463 3103 1205 2759 
Q 947 2416 947 1791 
Q 947 1169 1205 825 
Q 1463 481 1925 481 
Q 2391 481 2648 825 
Q 2906 1169 2906 1791 
z
M 3481 434 
Q 3481 -459 3084 -895 
Q 2688 -1331 1869 -1331 
Q 1566 -1331 1297 -1286 
Q 1028 -1241 775 -1147 
L 775 -588 
Q 1028 -725 1275 -790 
Q 1522 -856 1778 -856 
Q 2344 -856 2625 -561 
Q 2906 -266 2906 331 
L 2906 616 
Q 2728 306 2450 153 
Q 2172 0 1784 0 
Q 1141 0 747 490 
Q 353 981 353 1791 
Q 353 2603 747 3093 
Q 1141 3584 1784 3584 
Q 2172 3584 2450 3431 
Q 2728 3278 2906 2969 
L 2906 3500 
L 3481 3500 
L 3481 434 
z
" transform="scale(0.015625)"/>
       <path id="DejaVuSans-6c" d="M 603 4863 
L 1178 4863 
L 1178 0 
L 603 0 
L 603 4863 
z
" transform="scale(0.015625)"/>
       <path id="DejaVuSans-75" d="M 544 1381 
L 544 3500 
L 1119 3500 
L 1119 1403 
Q 1119 906 1312 657 
Q 1506 409 1894 409 
Q 2359 409 2629 706 
Q 2900 1003 2900 1516 
L 2900 3500 
L 3475 3500 
L 3475 0 
L 2900 0 
L 2900 538 
Q 2691 219 2414 64 
Q 2138 -91 1772 -91 
Q 1169 -91 856 284 
Q 544 659 544 1381 
z
M 1991 3584 
L 1991 3584 
z
" transform="scale(0.015625)"/>
       <path id="DejaVuSans-6d" d="M 3328 2828 
Q 3544 3216 3844 3400 
Q 4144 3584 4550 3584 
Q 5097 3584 5394 3201 
Q 5691 2819 5691 2113 
L 5691 0 
L 5113 0 
L 5113 2094 
Q 5113 2597 4934 2840 
Q 4756 3084 4391 3084 
Q 3944 3084 3684 2787 
Q 3425 2491 3425 1978 
L 3425 0 
L 2847 0 
L 2847 2094 
Q 2847 2600 2669 2842 
Q 2491 3084 2119 3084 
Q 1678 3084 1418 2786 
Q 1159 2488 1159 1978 
L 1159 0 
L 581 0 
L 581 3500 
L 1159 3500 
L 1159 2956 
Q 1356 3278 1631 3431 
Q 1906 3584 2284 3584 
Q 2666 3584 2933 3390 
Q 3200 3197 3328 2828 
z
" transform="scale(0.015625)"/>
       <path id="DejaVuSans-76" d="M 191 3500 
L 800 3500 
L 1894 563 
L 2988 3500 
L 3597 3500 
L 2284 0 
L 1503 0 
L 191 3500 
z
" transform="scale(0.015625)"/>
       <path id="DejaVuSans-64" d="M 2906 2969 
L 2906 4863 
L 3481 4863 
L 3481 0 
L 2906 0 
L 2906 525 
Q 2725 213 2448 61 
Q 2172 -91 1784 -91 
Q 1150 -91 751 415 
Q 353 922 353 1747 
Q 353 2572 751 3078 
Q 1150 3584 1784 3584 
Q 2172 3584 2448 3432 
Q 2725 3281 2906 2969 
z
M 947 1747 
Q 947 1113 1208 752 
Q 1469 391 1925 391 
Q 2381 391 2643 752 
Q 2906 1113 2906 1747 
Q 2906 2381 2643 2742 
Q 2381 3103 1925 3103 
Q 1469 3103 1208 2742 
Q 947 2381 947 1747 
z
" transform="scale(0.015625)"/>
       <path id="DejaVuSans-2d" d="M 313 2009 
L 1997 2009 
L 1997 1497 
L 313 1497 
L 313 2009 
z
" transform="scale(0.015625)"/>
       <path id="DejaVuSans-68" d="M 3513 2113 
L 3513 0 
L 2938 0 
L 2938 2094 
Q 2938 2591 2744 2837 
Q 2550 3084 2163 3084 
Q 1697 3084 1428 2787 
Q 1159 2491 1159 1978 
L 1159 0 
L 581 0 
L 581 4863 
L 1159 4863 
L 1159 2956 
Q 1366 3272 1645 3428 
Q 1925 3584 2291 3584 
Q 2894 3584 3203 3211 
Q 3513 2838 3513 2113 
z
" transform="scale(0.015625)"/>
      </defs>
      <use xlink:href="#DejaVuSans-50"/>
      <use xlink:href="#DejaVuSans-65" x="56.677734"/>
      <use xlink:href="#DejaVuSans-72" x="118.201172"/>
      <use xlink:href="#DejaVuSans-63" x="157.064453"/>
      <use xlink:href="#DejaVuSans-65" x="212.044922"/>
      <use xlink:href="#DejaVuSans-6e" x="273.568359"/>
      <use xlink:href="#DejaVuSans-74" x="336.947266"/>
      <use xlink:href="#DejaVuSans-61" x="376.15625"/>
      <use xlink:href="#DejaVuSans-67" x="437.435547"/>
      <use xlink:href="#DejaVuSans-65" x="500.912109"/>
      <use xlink:href="#DejaVuSans-20" x="562.435547"/>
      <use xlink:href="#DejaVuSans-74" x="594.222656"/>
      <use xlink:href="#DejaVuSans-6f" x="633.431641"/>
      <use xlink:href="#DejaVuSans-74" x="694.613281"/>
      <use xlink:href="#DejaVuSans-61" x="733.822266"/>
      <use xlink:href="#DejaVuSans-6c" x="795.101562"/>
      <use xlink:href="#DejaVuSans-20" x="822.884766"/>
      <use xlink:href="#DejaVuSans-63" x="854.671875"/>
      <use xlink:href="#DejaVuSans-75" x="909.652344"/>
      <use xlink:href="#DejaVuSans-6d" x="973.03125"/>
      <use xlink:href="#DejaVuSans-75" x="1070.443359"/>
      <use xlink:href="#DejaVuSans-6c" x="1133.822266"/>
      <use xlink:href="#DejaVuSans-61" x="1161.605469"/>
      <use xlink:href="#DejaVuSans-74" x="1222.884766"/>
      <use xlink:href="#DejaVuSans-69" x="1262.09375"/>
      <use xlink:href="#DejaVuSans-76" x="1289.876953"/>
      <use xlink:href="#DejaVuSans-65" x="1349.056641"/>
      <use xlink:href="#DejaVuSans-20" x="1410.580078"/>
      <use xlink:href="#DejaVuSans-6d" x="1442.367188"/>
      <use xlink:href="#DejaVuSans-61" x="1539.779297"/>
      <use xlink:href="#DejaVuSans-70" x="1601.058594"/>
      <use xlink:href="#DejaVuSans-70" x="1664.535156"/>
      <use xlink:href="#DejaVuSans-65" x="1728.011719"/>
      <use xlink:href="#DejaVuSans-64" x="1789.535156"/>
      <use xlink:href="#DejaVuSans-2d" x="1853.011719"/>
      <use xlink:href="#DejaVuSans-72" x="1889.095703"/>
      <use xlink:href="#DejaVuSans-65" x="1927.958984"/>
      <use xlink:href="#DejaVuSans-61" x="1989.482422"/>
      <use xlink:href="#DejaVuSans-64" x="2050.761719"/>
      <use xlink:href="#DejaVuSans-20" x="2114.238281"/>
      <use xlink:href="#DejaVuSans-64" x="2146.025391"/>
      <use xlink:href="#DejaVuSans-65" x="2209.501953"/>
      <use xlink:href="#DejaVuSans-70" x="2271.025391"/>
      <use xlink:href="#DejaVuSans-74" x="2334.501953"/>
      <use xlink:href="#DejaVuSans-68" x="2373.710938"/>
     </g>
    </g>
   </g>
   <g id="line2d_8">
    <path d="M 40.600625 156.352726 
L 50.049075 145.642284 
L 59.497525 141.470548 
L 68.945975 138.630207 
L 78.394425 134.768955 
L 87.842875 126.894571 
L 97.291325 120.463081 
L 106.739775 115.762637 
L 116.188225 108.946105 
L 125.636675 102.591417 
L 135.085125 98.77125 
L 144.533575 95.012263 
L 153.982025 91.371256 
L 163.430475 86.580422 
L 172.878925 80.224156 
L 182.327375 71.417084 
L 191.775825 69.435753 
L 201.224275 68.784941 
L 210.672725 69.255185 
L 220.121175 69.926161 
L 229.569625 66.121389 
L 239.018075 65.845109 
L 248.466525 64.211321 
L 257.914975 62.049317 
L 267.363425 60.987774 
L 276.811875 57.360119 
L 286.260325 54.510532 
L 295.708775 52.267454 
L 305.157225 49.25142 
L 314.605675 46.399815 
L 324.054125 44.150673 
L 333.502575 43.299695 
L 342.951025 43.699071 
L 352.399475 46.291257 
L 361.847925 47.414594 
L 371.296375 48.517754 
L 380.744825 49.915695 
L 390.193275 49.820495 
L 399.641725 48.544905 
L 409.090175 49.346439 
L 418.538625 51.729315 
L 427.987075 52.590815 
L 437.435525 51.479607 
L 446.883975 49.821164 
L 456.332425 51.222565 
L 465.780875 50.610618 
L 475.229325 50.976869 
L 484.677775 51.137617 
L 494.126225 52.10608 
L 503.574675 51.637898 
L 513.023125 50.915533 
L 522.471575 53.87198 
L 531.920025 58.455334 
L 541.368475 60.850726 
L 550.816925 65.527099 
L 560.265375 69.77602 
L 569.713825 71.075054 
L 579.162275 70.815416 
L 588.610725 73.164284 
L 598.059175 76.704834 
L 607.507625 78.163487 
L 616.956075 78.589401 
L 626.404525 79.022491 
L 635.852975 83.856232 
L 645.301425 88.153866 
L 654.749875 90.562865 
L 664.198325 93.522323 
L 673.646775 96.068927 
L 683.095225 100.22235 
L 692.543675 101.175719 
L 701.992125 102.010543 
L 711.440575 101.063692 
L 720.889025 101.012402 
L 730.337475 102.980156 
L 739.785925 103.352264 
L 749.234375 104.365679 
L 758.682825 106.719653 
L 768.131275 108.179922 
L 777.579725 108.516372 
L 787.028175 109.409894 
L 796.476625 110.091174 
L 805.925075 112.425695 
L 815.373525 115.064362 
L 824.821975 116.83311 
L 834.270425 120.937033 
L 843.718875 123.155213 
L 853.167325 128.013908 
L 862.615775 132.25107 
L 872.064225 137.919151 
L 881.512675 146.712833 
L 890.961125 153.631322 
L 900.409575 159.869749 
L 909.858025 166.770444 
L 919.306475 178.961234 
L 928.754925 188.09494 
L 938.203375 198.177422 
L 947.651825 212.880425 
L 957.100275 226.93299 
L 966.548725 243.560357 
L 975.997175 263.011323 
" clip-path="url(#paf55b96c85)" style="fill: none; stroke: #7cb5ec; stroke-linecap: square"/>
   </g>
   <g id="line2d_9">
    <path d="M 40.600625 155.781397 
L 50.049075 144.52553 
L 59.497525 140.546245 
L 68.945975 137.140884 
L 78.394425 133.339696 
L 87.842875 125.572267 
L 97.291325 119.512315 
L 106.739775 114.921311 
L 116.188225 108.55488 
L 125.636675 102.075842 
L 135.085125 98.063533 
L 144.533575 94.337632 
L 153.982025 90.802234 
L 163.430475 86.404539 
L 172.878925 80.64285 
L 182.327375 71.996691 
L 191.775825 70.152395 
L 201.224275 69.330586 
L 210.672725 69.485931 
L 220.121175 70.296736 
L 229.569625 66.55431 
L 239.018075 66.073908 
L 248.466525 64.229113 
L 257.914975 61.783295 
L 267.363425 61.17538 
L 276.811875 57.842252 
L 286.260325 54.642752 
L 295.708775 52.719806 
L 305.157225 49.657179 
L 314.605675 46.799741 
L 324.054125 44.544242 
L 333.502575 43.70535 
L 342.951025 43.807021 
L 352.399475 46.328809 
L 361.847925 47.857709 
L 371.296375 48.988011 
L 380.744825 49.971983 
L 390.193275 49.550291 
L 399.641725 48.20595 
L 409.090175 48.942174 
L 418.538625 51.205551 
L 427.987075 52.189414 
L 437.435525 51.113217 
L 446.883975 49.559041 
L 456.332425 51.14016 
L 465.780875 50.498639 
L 475.229325 50.747125 
L 484.677775 51.194295 
L 494.126225 52.313763 
L 503.574675 51.717358 
L 513.023125 51.1132 
L 522.471575 54.046046 
L 531.920025 58.604054 
L 541.368475 60.939873 
L 550.816925 65.466089 
L 560.265375 69.892394 
L 569.713825 71.675327 
L 579.162275 71.511412 
L 588.610725 73.832661 
L 598.059175 76.961463 
L 607.507625 78.506854 
L 616.956075 78.864826 
L 626.404525 79.337164 
L 635.852975 84.538996 
L 645.301425 88.824406 
L 654.749875 91.009797 
L 664.198325 93.549052 
L 673.646775 95.858845 
L 683.095225 99.91711 
L 692.543675 100.794205 
L 701.992125 101.657384 
L 711.440575 100.940115 
L 720.889025 101.119509 
L 730.337475 103.434786 
L 739.785925 103.957627 
L 749.234375 104.867251 
L 758.682825 107.309345 
L 768.131275 108.885435 
L 777.579725 109.446477 
L 787.028175 110.159181 
L 796.476625 110.572467 
L 805.925075 112.557904 
L 815.373525 114.958093 
L 824.821975 116.543172 
L 834.270425 120.593803 
L 843.718875 122.888222 
L 853.167325 127.760773 
L 862.615775 132.07453 
L 872.064225 137.722299 
L 881.512675 146.499706 
L 890.961125 153.284925 
L 900.409575 159.412671 
L 909.858025 166.479539 
L 919.306475 179.019403 
L 928.754925 188.221195 
L 938.203375 198.266571 
L 947.651825 213.161279 
L 957.100275 227.042558 
L 966.548725 243.513699 
L 975.997175 262.881619 
" clip-path="url(#paf55b96c85)" style="fill: none; stroke: #434348; stroke-linecap: square"/>
   </g>
   <g id="line2d_10">
    <path d="M 40.600625 156.123319 
L 50.049075 144.87784 
L 59.497525 140.730077 
L 68.945975 137.34179 
L 78.394425 133.338149 
L 87.842875 125.632537 
L 97.291325 119.419057 
L 106.739775 114.789549 
L 116.188225 108.373418 
L 125.636675 102.02745 
L 135.085125 98.193873 
L 144.533575 94.265167 
L 153.982025 90.80949 
L 163.430475 86.189162 
L 172.878925 80.179594 
L 182.327375 71.351758 
L 191.775825 69.558597 
L 201.224275 68.819454 
L 210.672725 69.211851 
L 220.121175 69.753083 
L 229.569625 66.000878 
L 239.018075 65.505469 
L 248.466525 63.627216 
L 257.914975 61.453877 
L 267.363425 60.881627 
L 276.811875 57.070831 
L 286.260325 53.882171 
L 295.708775 51.860621 
L 305.157225 48.912504 
L 314.605675 45.778481 
L 324.054125 43.23175 
L 333.502575 42.87272 
L 342.951025 43.325877 
L 352.399475 46.145725 
L 361.847925 47.692703 
L 371.296375 49.015818 
L 380.744825 50.233018 
L 390.193275 49.817961 
L 399.641725 48.183924 
L 409.090175 48.694952 
L 418.538625 50.906053 
L 427.987075 51.90716 
L 437.435525 50.706441 
L 446.883975 49.210093 
L 456.332425 50.857316 
L 465.780875 50.33185 
L 475.229325 50.852342 
L 484.677775 51.279549 
L 494.126225 52.580342 
L 503.574675 51.950672 
L 513.023125 51.542436 
L 522.471575 54.418591 
L 531.920025 59.021574 
L 541.368475 61.376394 
L 550.816925 65.770969 
L 560.265375 70.304166 
L 569.713825 72.161098 
L 579.162275 72.102304 
L 588.610725 74.085276 
L 598.059175 77.101455 
L 607.507625 78.78904 
L 616.956075 79.312505 
L 626.404525 80.005171 
L 635.852975 85.212714 
L 645.301425 89.403004 
L 654.749875 91.649568 
L 664.198325 94.573994 
L 673.646775 97.0052 
L 683.095225 101.193263 
L 692.543675 102.089362 
L 701.992125 102.937856 
L 711.440575 102.162669 
L 720.889025 102.167007 
L 730.337475 104.21957 
L 739.785925 104.708153 
L 749.234375 105.384189 
L 758.682825 107.440482 
L 768.131275 108.963952 
L 777.579725 109.008082 
L 787.028175 109.520004 
L 796.476625 109.952682 
L 805.925075 111.832892 
L 815.373525 114.178785 
L 824.821975 115.916148 
L 834.270425 120.13552 
L 843.718875 122.768365 
L 853.167325 127.748801 
L 862.615775 132.25474 
L 872.064225 137.994773 
L 881.512675 146.729371 
L 890.961125 153.447421 
L 900.409575 159.538702 
L 909.858025 166.392413 
L 919.306475 178.731493 
L 928.754925 187.852741 
L 938.203375 197.976719 
L 947.651825 212.828423 
L 957.100275 226.854491 
L 966.548725 243.519433 
L 975.997175 262.977525 
" clip-path="url(#paf55b96c85)" style="fill: none; stroke: #90ed7d; stroke-linecap: square"/>
   </g>
   <g id="line2d_11">
    <path d="M 40.600625 157.150419 
L 50.049075 146.755019 
L 59.497525 142.616799 
L 68.945975 139.358256 
L 78.394425 135.451092 
L 87.842875 127.581672 
L 97.291325 121.484616 
L 106.739775 116.676876 
L 116.188225 110.05636 
L 125.636675 103.493429 
L 135.085125 99.612942 
L 144.533575 95.649882 
L 153.982025 91.790803 
L 163.430475 87.090458 
L 172.878925 80.815019 
L 182.327375 71.797318 
L 191.775825 70.039811 
L 201.224275 69.47564 
L 210.672725 69.609944 
L 220.121175 70.260358 
L 229.569625 66.367191 
L 239.018075 66.082869 
L 248.466525 64.402034 
L 257.914975 62.275237 
L 267.363425 61.719257 
L 276.811875 58.15061 
L 286.260325 54.924163 
L 295.708775 52.758345 
L 305.157225 49.599134 
L 314.605675 46.447955 
L 324.054125 44.251008 
L 333.502575 43.361876 
L 342.951025 43.768721 
L 352.399475 46.360491 
L 361.847925 47.836181 
L 371.296375 48.84722 
L 380.744825 49.670856 
L 390.193275 49.456283 
L 399.641725 48.238338 
L 409.090175 48.855597 
L 418.538625 51.254035 
L 427.987075 52.057831 
L 437.435525 50.894759 
L 446.883975 49.277246 
L 456.332425 50.970546 
L 465.780875 50.290938 
L 475.229325 50.571024 
L 484.677775 50.625222 
L 494.126225 51.567466 
L 503.574675 50.767492 
L 513.023125 50.089661 
L 522.471575 52.851351 
L 531.920025 57.329095 
L 541.368475 59.351583 
L 550.816925 63.824996 
L 560.265375 68.396434 
L 569.713825 70.061361 
L 579.162275 69.95009 
L 588.610725 72.185203 
L 598.059175 75.65563 
L 607.507625 77.297835 
L 616.956075 77.612609 
L 626.404525 78.036492 
L 635.852975 83.330509 
L 645.301425 87.975859 
L 654.749875 90.439253 
L 664.198325 93.443029 
L 673.646775 95.640517 
L 683.095225 99.982636 
L 692.543675 100.812573 
L 701.992125 101.53247 
L 711.440575 100.787115 
L 720.889025 100.768097 
L 730.337475 103.096002 
L 739.785925 103.498254 
L 749.234375 104.433626 
L 758.682825 107.024733 
L 768.131275 108.54565 
L 777.579725 108.845273 
L 787.028175 109.686449 
L 796.476625 110.132965 
L 805.925075 112.25487 
L 815.373525 114.890291 
L 824.821975 116.692929 
L 834.270425 120.736468 
L 843.718875 122.997027 
L 853.167325 127.989778 
L 862.615775 132.406272 
L 872.064225 138.095005 
L 881.512675 146.851302 
L 890.961125 153.711329 
L 900.409575 159.948129 
L 909.858025 166.984712 
L 919.306475 179.526338 
L 928.754925 188.782585 
L 938.203375 198.70686 
L 947.651825 213.263515 
L 957.100275 227.300874 
L 966.548725 243.795556 
L 975.997175 263.04882 
" clip-path="url(#paf55b96c85)" style="fill: none; stroke: #f7a35c; stroke-linecap: square"/>
   </g>
   <g id="line2d_12">
    <path d="M 40.600625 156.039312 
L 50.049075 144.876137 
L 59.497525 140.834467 
L 68.945975 137.412577 
L 78.394425 133.648989 
L 87.842875 126.020515 
L 97.291325 119.708989 
L 106.739775 115.189412 
L 116.188225 108.789145 
L 125.636675 102.331699 
L 135.085125 98.26472 
L 144.533575 94.471722 
L 153.982025 91.205846 
L 163.430475 86.78512 
L 172.878925 80.788603 
L 182.327375 72.016622 
L 191.775825 70.251938 
L 201.224275 69.542735 
L 210.672725 69.760936 
L 220.121175 70.394294 
L 229.569625 66.527705 
L 239.018075 65.924776 
L 248.466525 64.115904 
L 257.914975 61.824891 
L 267.363425 61.225502 
L 276.811875 57.687426 
L 286.260325 54.396692 
L 295.708775 52.497482 
L 305.157225 49.486446 
L 314.605675 46.461543 
L 324.054125 44.311328 
L 333.502575 43.62496 
L 342.951025 43.897881 
L 352.399475 46.633206 
L 361.847925 48.186955 
L 371.296375 49.490595 
L 380.744825 50.530748 
L 390.193275 50.133101 
L 399.641725 48.745504 
L 409.090175 49.306679 
L 418.538625 51.347563 
L 427.987075 52.325001 
L 437.435525 51.073799 
L 446.883975 49.480633 
L 456.332425 51.041233 
L 465.780875 50.230469 
L 475.229325 50.64623 
L 484.677775 51.114704 
L 494.126225 52.218596 
L 503.574675 51.490385 
L 513.023125 50.978619 
L 522.471575 53.75241 
L 531.920025 58.327849 
L 541.368475 60.938981 
L 550.816925 65.695045 
L 560.265375 70.148106 
L 569.713825 71.55342 
L 579.162275 71.281665 
L 588.610725 73.356488 
L 598.059175 76.472308 
L 607.507625 78.117334 
L 616.956075 78.633594 
L 626.404525 79.348626 
L 635.852975 84.52295 
L 645.301425 88.62365 
L 654.749875 90.795511 
L 664.198325 93.229805 
L 673.646775 95.56239 
L 683.095225 99.755217 
L 692.543675 100.644158 
L 701.992125 101.396731 
L 711.440575 100.544114 
L 720.889025 100.881384 
L 730.337475 103.166674 
L 739.785925 103.698201 
L 749.234375 104.495997 
L 758.682825 106.883956 
L 768.131275 108.568692 
L 777.579725 109.048425 
L 787.028175 109.839914 
L 796.476625 110.324769 
L 805.925075 112.336839 
L 815.373525 114.834598 
L 824.821975 116.572536 
L 834.270425 120.599755 
L 843.718875 122.853241 
L 853.167325 127.695976 
L 862.615775 132.151976 
L 872.064225 137.799822 
L 881.512675 146.634886 
L 890.961125 153.481716 
L 900.409575 159.615247 
L 909.858025 166.531835 
L 919.306475 179.043741 
L 928.754925 188.309465 
L 938.203375 198.510246 
L 947.651825 213.309314 
L 957.100275 227.19274 
L 966.548725 243.669006 
L 975.997175 262.975006 
" clip-path="url(#paf55b96c85)" style="fill: none; stroke: #8085e9; stroke-linecap: square"/>
   </g>
   <g id="line2d_13">
    <path d="M 40.600625 155.902089 
L 50.049075 144.888087 
L 59.497525 140.787154 
L 68.945975 137.69393 
L 78.394425 133.878106 
L 87.842875 125.941733 
L 97.291325 119.851272 
L 106.739775 115.371482 
L 116.188225 108.97723 
L 125.636675 102.132069 
L 135.085125 97.990821 
L 144.533575 94.358404 
L 153.982025 91.046463 
L 163.430475 86.544722 
L 172.878925 80.486974 
L 182.327375 71.307409 
L 191.775825 69.502156 
L 201.224275 68.907 
L 210.672725 69.419854 
L 220.121175 70.031875 
L 229.569625 66.1827 
L 239.018075 65.774995 
L 248.466525 63.955278 
L 257.914975 61.58618 
L 267.363425 61.205015 
L 276.811875 57.959245 
L 286.260325 54.734493 
L 295.708775 52.609953 
L 305.157225 49.34689 
L 314.605675 46.126986 
L 324.054125 43.906077 
L 333.502575 43.205252 
L 342.951025 43.491348 
L 352.399475 46.424446 
L 361.847925 48.038424 
L 371.296375 49.058199 
L 380.744825 50.072624 
L 390.193275 49.811066 
L 399.641725 48.342278 
L 409.090175 49.137779 
L 418.538625 51.227538 
L 427.987075 52.185678 
L 437.435525 50.960612 
L 446.883975 49.492821 
L 456.332425 50.988828 
L 465.780875 50.143499 
L 475.229325 50.505928 
L 484.677775 50.904735 
L 494.126225 51.949371 
L 503.574675 51.303678 
L 513.023125 50.858707 
L 522.471575 53.758006 
L 531.920025 58.367155 
L 541.368475 60.551536 
L 550.816925 65.19073 
L 560.265375 69.865525 
L 569.713825 71.577687 
L 579.162275 71.274044 
L 588.610725 73.340193 
L 598.059175 76.523998 
L 607.507625 78.083457 
L 616.956075 78.513746 
L 626.404525 79.124283 
L 635.852975 84.605475 
L 645.301425 89.126234 
L 654.749875 91.535645 
L 664.198325 94.185212 
L 673.646775 96.534097 
L 683.095225 100.939269 
L 692.543675 101.914347 
L 701.992125 102.813443 
L 711.440575 102.123177 
L 720.889025 102.341724 
L 730.337475 104.37836 
L 739.785925 104.657102 
L 749.234375 105.347064 
L 758.682825 107.773434 
L 768.131275 109.348968 
L 777.579725 109.49332 
L 787.028175 110.060853 
L 796.476625 110.552842 
L 805.925075 112.710245 
L 815.373525 114.962812 
L 824.821975 116.369893 
L 834.270425 120.291506 
L 843.718875 122.538672 
L 853.167325 127.426537 
L 862.615775 131.938216 
L 872.064225 137.494965 
L 881.512675 146.244829 
L 890.961125 152.976792 
L 900.409575 158.854761 
L 909.858025 165.711074 
L 919.306475 178.447583 
L 928.754925 187.841095 
L 938.203375 198.049484 
L 947.651825 213.009668 
L 957.100275 227.032041 
L 966.548725 243.72985 
L 975.997175 262.97624 
" clip-path="url(#paf55b96c85)" style="fill: none; stroke: #f15c80; stroke-linecap: square"/>
   </g>
   <g id="line2d_14">
    <path d="M 40.600625 156.548555 
L 50.049075 145.937933 
L 59.497525 142.16414 
L 68.945975 139.141817 
L 78.394425 135.308125 
L 87.842875 127.404163 
L 97.291325 120.935296 
L 106.739775 116.233997 
L 116.188225 109.583633 
L 125.636675 102.931989 
L 135.085125 98.973925 
L 144.533575 94.980977 
L 153.982025 91.365401 
L 163.430475 86.40859 
L 172.878925 80.267068 
L 182.327375 71.627004 
L 191.775825 69.612407 
L 201.224275 68.899214 
L 210.672725 69.26138 
L 220.121175 69.747956 
L 229.569625 66.173017 
L 239.018075 65.902583 
L 248.466525 64.232225 
L 257.914975 62.000344 
L 267.363425 61.21673 
L 276.811875 57.519732 
L 286.260325 54.31024 
L 295.708775 52.072296 
L 305.157225 48.884931 
L 314.605675 45.560691 
L 324.054125 43.36803 
L 333.502575 42.934439 
L 342.951025 43.17544 
L 352.399475 45.874055 
L 361.847925 47.585272 
L 371.296375 48.755136 
L 380.744825 49.530436 
L 390.193275 49.180527 
L 399.641725 47.727126 
L 409.090175 48.424142 
L 418.538625 50.357476 
L 427.987075 51.238019 
L 437.435525 50.178519 
L 446.883975 48.84331 
L 456.332425 50.446453 
L 465.780875 50.0926 
L 475.229325 50.510254 
L 484.677775 51.224644 
L 494.126225 52.221111 
L 503.574675 51.266413 
L 513.023125 50.476142 
L 522.471575 53.261638 
L 531.920025 57.739921 
L 541.368475 59.940169 
L 550.816925 64.712098 
L 560.265375 69.097854 
L 569.713825 70.617162 
L 579.162275 70.34172 
L 588.610725 72.483466 
L 598.059175 75.857691 
L 607.507625 77.427348 
L 616.956075 78.029203 
L 626.404525 79.025076 
L 635.852975 84.536021 
L 645.301425 88.93933 
L 654.749875 91.479065 
L 664.198325 94.203556 
L 673.646775 96.482147 
L 683.095225 100.44183 
L 692.543675 101.517049 
L 701.992125 102.156132 
L 711.440575 101.318664 
L 720.889025 101.687375 
L 730.337475 104.120516 
L 739.785925 104.739881 
L 749.234375 105.558241 
L 758.682825 107.943222 
L 768.131275 109.546472 
L 777.579725 109.706537 
L 787.028175 110.366959 
L 796.476625 110.806738 
L 805.925075 112.911241 
L 815.373525 115.357165 
L 824.821975 116.985175 
L 834.270425 120.90853 
L 843.718875 123.098485 
L 853.167325 128.039704 
L 862.615775 132.510719 
L 872.064225 138.114392 
L 881.512675 146.764084 
L 890.961125 153.704001 
L 900.409575 159.985913 
L 909.858025 166.839186 
L 919.306475 178.943758 
L 928.754925 188.11508 
L 938.203375 198.235556 
L 947.651825 212.686607 
L 957.100275 226.793676 
L 966.548725 243.387362 
L 975.997175 262.937031 
" clip-path="url(#paf55b96c85)" style="fill: none; stroke: #e4d354; stroke-linecap: square"/>
   </g>
   <g id="line2d_15">
    <path d="M 40.600625 156.468746 
L 50.049075 145.183334 
L 59.497525 141.131468 
L 68.945975 137.835017 
L 78.394425 133.720307 
L 87.842875 125.811046 
L 97.291325 119.527972 
L 106.739775 114.762997 
L 116.188225 108.219556 
L 125.636675 101.731607 
L 135.085125 97.674593 
L 144.533575 93.75304 
L 153.982025 90.339291 
L 163.430475 85.832735 
L 172.878925 80.098127 
L 182.327375 71.524539 
L 191.775825 69.861474 
L 201.224275 69.20399 
L 210.672725 69.288675 
L 220.121175 69.952118 
L 229.569625 66.326953 
L 239.018075 65.570686 
L 248.466525 63.645712 
L 257.914975 61.413998 
L 267.363425 60.859228 
L 276.811875 57.529846 
L 286.260325 54.191813 
L 295.708775 52.14012 
L 305.157225 49.058325 
L 314.605675 46.051741 
L 324.054125 43.90126 
L 333.502575 43.411811 
L 342.951025 43.774971 
L 352.399475 46.357338 
L 361.847925 47.857323 
L 371.296375 49.020565 
L 380.744825 50.132358 
L 390.193275 49.820987 
L 399.641725 48.644227 
L 409.090175 49.449567 
L 418.538625 51.407447 
L 427.987075 52.453321 
L 437.435525 51.403858 
L 446.883975 49.745253 
L 456.332425 51.376934 
L 465.780875 50.744012 
L 475.229325 50.991575 
L 484.677775 51.307226 
L 494.126225 52.257167 
L 503.574675 51.531577 
L 513.023125 50.992403 
L 522.471575 53.798642 
L 531.920025 58.362718 
L 541.368475 60.889102 
L 550.816925 65.720152 
L 560.265375 70.238673 
L 569.713825 71.827093 
L 579.162275 71.592379 
L 588.610725 73.706665 
L 598.059175 76.878577 
L 607.507625 78.454282 
L 616.956075 79.022502 
L 626.404525 79.903382 
L 635.852975 85.06883 
L 645.301425 89.348228 
L 654.749875 91.703413 
L 664.198325 94.265453 
L 673.646775 96.461124 
L 683.095225 100.619816 
L 692.543675 101.576851 
L 701.992125 102.36661 
L 711.440575 101.594982 
L 720.889025 101.697441 
L 730.337475 103.939505 
L 739.785925 104.451083 
L 749.234375 105.240574 
L 758.682825 107.465319 
L 768.131275 108.832615 
L 777.579725 109.330229 
L 787.028175 109.915944 
L 796.476625 110.357289 
L 805.925075 112.305058 
L 815.373525 114.633378 
L 824.821975 116.312392 
L 834.270425 120.229048 
L 843.718875 122.561029 
L 853.167325 127.418265 
L 862.615775 131.815545 
L 872.064225 137.513998 
L 881.512675 146.212456 
L 890.961125 153.031184 
L 900.409575 159.264927 
L 909.858025 166.277765 
L 919.306475 178.906645 
L 928.754925 188.165837 
L 938.203375 198.25897 
L 947.651825 212.921184 
L 957.100275 226.87746 
L 966.548725 243.43873 
L 975.997175 262.953061 
" clip-path="url(#paf55b96c85)" style="fill: none; stroke: #2b908f; stroke-linecap: square"/>
   </g>
   <g id="line2d_16">
    <path d="M 40.600625 156.826993 
L 50.049075 145.594607 
L 59.497525 141.557666 
L 68.945975 138.414398 
L 78.394425 134.560708 
L 87.842875 126.725274 
L 97.291325 120.542098 
L 106.739775 115.758515 
L 116.188225 109.409907 
L 125.636675 102.809745 
L 135.085125 98.785031 
L 144.533575 94.828319 
L 153.982025 91.287384 
L 163.430475 86.86989 
L 172.878925 81.000494 
L 182.327375 72.294095 
L 191.775825 70.146265 
L 201.224275 69.393308 
L 210.672725 69.779465 
L 220.121175 70.480443 
L 229.569625 66.936855 
L 239.018075 66.359697 
L 248.466525 64.222554 
L 257.914975 62.014445 
L 267.363425 61.484801 
L 276.811875 58.248496 
L 286.260325 55.017121 
L 295.708775 52.854249 
L 305.157225 49.715763 
L 314.605675 46.70288 
L 324.054125 44.43064 
L 333.502575 43.681208 
L 342.951025 43.822331 
L 352.399475 46.350207 
L 361.847925 47.862897 
L 371.296375 49.051166 
L 380.744825 50.124631 
L 390.193275 49.799179 
L 399.641725 48.470146 
L 409.090175 49.04094 
L 418.538625 51.125676 
L 427.987075 52.012257 
L 437.435525 50.934259 
L 446.883975 49.489218 
L 456.332425 51.144369 
L 465.780875 50.638878 
L 475.229325 50.841185 
L 484.677775 50.833324 
L 494.126225 51.963346 
L 503.574675 51.251031 
L 513.023125 50.641042 
L 522.471575 53.357921 
L 531.920025 58.034454 
L 541.368475 60.204456 
L 550.816925 64.974442 
L 560.265375 69.564679 
L 569.713825 71.157293 
L 579.162275 70.941152 
L 588.610725 73.171862 
L 598.059175 76.220403 
L 607.507625 77.66768 
L 616.956075 78.211 
L 626.404525 79.184402 
L 635.852975 84.650628 
L 645.301425 88.868117 
L 654.749875 91.253161 
L 664.198325 93.851533 
L 673.646775 96.126312 
L 683.095225 100.23334 
L 692.543675 101.042 
L 701.992125 101.873168 
L 711.440575 101.158031 
L 720.889025 101.369955 
L 730.337475 103.480836 
L 739.785925 103.872428 
L 749.234375 104.675948 
L 758.682825 107.085951 
L 768.131275 108.60018 
L 777.579725 108.781097 
L 787.028175 109.389333 
L 796.476625 109.829356 
L 805.925075 111.923291 
L 815.373525 114.386804 
L 824.821975 115.960278 
L 834.270425 119.972708 
L 843.718875 122.39403 
L 853.167325 127.335707 
L 862.615775 131.869381 
L 872.064225 137.554002 
L 881.512675 146.311352 
L 890.961125 153.159067 
L 900.409575 159.203223 
L 909.858025 166.15474 
L 919.306475 178.527928 
L 928.754925 187.756451 
L 938.203375 197.921115 
L 947.651825 212.590799 
L 957.100275 226.65264 
L 966.548725 243.429058 
L 975.997175 262.953556 
" clip-path="url(#paf55b96c85)" style="fill: none; stroke: #f45b5b; stroke-linecap: square"/>
   </g>
   <g id="line2d_17">
    <path d="M 40.600625 155.923141 
L 50.049075 145.322113 
L 59.497525 141.669526 
L 68.945975 138.734132 
L 78.394425 134.988925 
L 87.842875 127.188726 
L 97.291325 120.861852 
L 106.739775 115.937698 
L 116.188225 109.235786 
L 125.636675 102.640814 
L 135.085125 98.392931 
L 144.533575 94.183774 
L 153.982025 90.514109 
L 163.430475 85.955714 
L 172.878925 80.251437 
L 182.327375 71.807401 
L 191.775825 69.655676 
L 201.224275 68.907763 
L 210.672725 69.155686 
L 220.121175 69.841787 
L 229.569625 65.966151 
L 239.018075 65.514626 
L 248.466525 63.564349 
L 257.914975 61.38666 
L 267.363425 60.562448 
L 276.811875 56.914835 
L 286.260325 53.528847 
L 295.708775 51.337177 
L 305.157225 48.227371 
L 314.605675 45.006613 
L 324.054125 42.976054 
L 333.502575 42.51561 
L 342.951025 42.640698 
L 352.399475 45.082556 
L 361.847925 46.559559 
L 371.296375 47.621939 
L 380.744825 48.682647 
L 390.193275 48.528364 
L 399.641725 47.53994 
L 409.090175 48.389426 
L 418.538625 50.459113 
L 427.987075 51.33191 
L 437.435525 50.395221 
L 446.883975 49.084656 
L 456.332425 50.699239 
L 465.780875 50.180164 
L 475.229325 50.543181 
L 484.677775 50.726783 
L 494.126225 51.91718 
L 503.574675 51.411028 
L 513.023125 50.783218 
L 522.471575 53.561723 
L 531.920025 57.95193 
L 541.368475 60.272905 
L 550.816925 64.761645 
L 560.265375 69.150699 
L 569.713825 70.882348 
L 579.162275 70.784109 
L 588.610725 72.794317 
L 598.059175 76.155565 
L 607.507625 77.970027 
L 616.956075 78.766353 
L 626.404525 79.694217 
L 635.852975 84.960439 
L 645.301425 89.369502 
L 654.749875 92.068011 
L 664.198325 94.626452 
L 673.646775 96.900679 
L 683.095225 101.044065 
L 692.543675 102.078465 
L 701.992125 102.759745 
L 711.440575 101.922279 
L 720.889025 102.242873 
L 730.337475 104.802314 
L 739.785925 105.417575 
L 749.234375 106.293322 
L 758.682825 108.682103 
L 768.131275 109.998303 
L 777.579725 110.250173 
L 787.028175 110.713361 
L 796.476625 111.178806 
L 805.925075 112.929246 
L 815.373525 115.094952 
L 824.821975 116.591914 
L 834.270425 120.621479 
L 843.718875 123.081896 
L 853.167325 128.338018 
L 862.615775 132.743052 
L 872.064225 138.34522 
L 881.512675 146.821424 
L 890.961125 153.851115 
L 900.409575 160.334137 
L 909.858025 167.388018 
L 919.306475 179.607441 
L 928.754925 188.646033 
L 938.203375 198.528904 
L 947.651825 212.99188 
L 957.100275 226.97643 
L 966.548725 243.699227 
L 975.997175 263.125399 
" clip-path="url(#paf55b96c85)" style="fill: none; stroke: #91e8e1; stroke-linecap: square"/>
   </g>
   <g id="line2d_18">
    <path d="M 40.600625 156.071037 
L 50.049075 144.95264 
L 59.497525 140.960197 
L 68.945975 137.639458 
L 78.394425 133.658245 
L 87.842875 125.825444 
L 97.291325 119.383297 
L 106.739775 114.290515 
L 116.188225 107.718035 
L 125.636675 101.146331 
L 135.085125 96.729022 
L 144.533575 92.676889 
L 153.982025 89.341289 
L 163.430475 84.910646 
L 172.878925 79.307565 
L 182.327375 70.770222 
L 191.775825 68.74205 
L 201.224275 68.078496 
L 210.672725 68.399595 
L 220.121175 69.218668 
L 229.569625 65.614182 
L 239.018075 65.034108 
L 248.466525 63.204016 
L 257.914975 61.274816 
L 267.363425 60.548408 
L 276.811875 56.87602 
L 286.260325 53.602073 
L 295.708775 51.396838 
L 305.157225 48.56898 
L 314.605675 45.303821 
L 324.054125 43.165714 
L 333.502575 42.590335 
L 342.951025 43.136435 
L 352.399475 45.721267 
L 361.847925 47.294914 
L 371.296375 48.699505 
L 380.744825 49.98537 
L 390.193275 49.67793 
L 399.641725 48.636759 
L 409.090175 49.332264 
L 418.538625 51.075396 
L 427.987075 51.929899 
L 437.435525 50.902277 
L 446.883975 49.823307 
L 456.332425 51.40865 
L 465.780875 50.936057 
L 475.229325 51.347026 
L 484.677775 51.87232 
L 494.126225 52.783921 
L 503.574675 52.385734 
L 513.023125 51.915988 
L 522.471575 54.691286 
L 531.920025 59.049609 
L 541.368475 61.618403 
L 550.816925 66.094655 
L 560.265375 70.325299 
L 569.713825 71.845231 
L 579.162275 71.558666 
L 588.610725 73.583811 
L 598.059175 76.848912 
L 607.507625 78.442969 
L 616.956075 79.099022 
L 626.404525 80.148257 
L 635.852975 85.416757 
L 645.301425 89.554269 
L 654.749875 91.810921 
L 664.198325 94.21467 
L 673.646775 96.493668 
L 683.095225 100.793214 
L 692.543675 101.934563 
L 701.992125 102.801103 
L 711.440575 102.069151 
L 720.889025 102.3298 
L 730.337475 104.696791 
L 739.785925 105.355717 
L 749.234375 106.322546 
L 758.682825 108.598008 
L 768.131275 109.862711 
L 777.579725 110.352452 
L 787.028175 110.817526 
L 796.476625 111.264999 
L 805.925075 113.226027 
L 815.373525 115.400342 
L 824.821975 116.887706 
L 834.270425 120.613282 
L 843.718875 122.877922 
L 853.167325 127.650727 
L 862.615775 132.11714 
L 872.064225 137.85247 
L 881.512675 146.44401 
L 890.961125 153.38706 
L 900.409575 159.616103 
L 909.858025 166.64422 
L 919.306475 179.075891 
L 928.754925 188.241752 
L 938.203375 198.320641 
L 947.651825 212.921969 
L 957.100275 226.946621 
L 966.548725 243.763189 
L 975.997175 263.170614 
" clip-path="url(#paf55b96c85)" style="fill: none; stroke: #7cb5ec; stroke-linecap: square"/>
   </g>
   <g id="line2d_19">
    <path d="M 40.600625 157.335758 
L 50.049075 146.291559 
L 59.497525 142.254815 
L 68.945975 139.045339 
L 78.394425 135.18377 
L 87.842875 127.255833 
L 97.291325 121.092192 
L 106.739775 116.267108 
L 116.188225 109.729441 
L 125.636675 103.079579 
L 135.085125 99.027815 
L 144.533575 95.115094 
L 153.982025 91.469158 
L 163.430475 86.777703 
L 172.878925 80.848565 
L 182.327375 72.13421 
L 191.775825 70.097361 
L 201.224275 69.488492 
L 210.672725 69.699267 
L 220.121175 70.602856 
L 229.569625 67.100787 
L 239.018075 66.536414 
L 248.466525 64.556315 
L 257.914975 62.337108 
L 267.363425 61.585655 
L 276.811875 57.948036 
L 286.260325 54.213526 
L 295.708775 51.956963 
L 305.157225 48.886829 
L 314.605675 45.702285 
L 324.054125 43.402824 
L 333.502575 42.890307 
L 342.951025 43.367792 
L 352.399475 45.64108 
L 361.847925 47.305833 
L 371.296375 48.762398 
L 380.744825 49.9472 
L 390.193275 49.503257 
L 399.641725 48.266769 
L 409.090175 48.929792 
L 418.538625 50.964638 
L 427.987075 52.116562 
L 437.435525 50.916855 
L 446.883975 49.441983 
L 456.332425 51.033214 
L 465.780875 50.381212 
L 475.229325 50.646334 
L 484.677775 51.110205 
L 494.126225 52.207059 
L 503.574675 51.45409 
L 513.023125 50.812157 
L 522.471575 53.536396 
L 531.920025 57.993928 
L 541.368475 60.605481 
L 550.816925 65.232517 
L 560.265375 69.660673 
L 569.713825 70.933845 
L 579.162275 70.578439 
L 588.610725 72.607369 
L 598.059175 75.748081 
L 607.507625 77.296626 
L 616.956075 77.935417 
L 626.404525 79.105333 
L 635.852975 84.525979 
L 645.301425 88.879171 
L 654.749875 91.167223 
L 664.198325 93.766837 
L 673.646775 96.244733 
L 683.095225 100.577742 
L 692.543675 101.735748 
L 701.992125 102.545922 
L 711.440575 101.668982 
L 720.889025 101.95458 
L 730.337475 104.185881 
L 739.785925 104.611217 
L 749.234375 105.262346 
L 758.682825 107.522681 
L 768.131275 108.943671 
L 777.579725 109.090464 
L 787.028175 109.742801 
L 796.476625 110.3911 
L 805.925075 112.450067 
L 815.373525 114.681459 
L 824.821975 116.156191 
L 834.270425 119.928229 
L 843.718875 122.167139 
L 853.167325 126.991719 
L 862.615775 131.380838 
L 872.064225 137.02826 
L 881.512675 145.658183 
L 890.961125 152.557383 
L 900.409575 158.805825 
L 909.858025 165.783665 
L 919.306475 178.32658 
L 928.754925 187.577191 
L 938.203375 197.695158 
L 947.651825 212.399037 
L 957.100275 226.452384 
L 966.548725 243.279034 
L 975.997175 262.925724 
" clip-path="url(#paf55b96c85)" style="fill: none; stroke: #434348; stroke-linecap: square"/>
   </g>
   <g id="line2d_20">
    <path d="M 40.600625 273.99006 
L 985.445625 273.99006 
" clip-path="url(#paf55b96c85)" style="fill: none; stroke: #dedede; stroke-width: 2; stroke-linecap: square"/>
   </g>
   <g id="text_16">
    <!-- Qualimap RNAseq: Coverage Profile Along Genes (total) -->
    <g transform="translate(289.641875 19.3575)scale(0.16 -0.16)">
     <defs>
      <path id="DejaVuSans-51" d="M 2522 4238 
Q 1834 4238 1429 3725 
Q 1025 3213 1025 2328 
Q 1025 1447 1429 934 
Q 1834 422 2522 422 
Q 3209 422 3611 934 
Q 4013 1447 4013 2328 
Q 4013 3213 3611 3725 
Q 3209 4238 2522 4238 
z
M 3406 84 
L 4238 -825 
L 3475 -825 
L 2784 -78 
Q 2681 -84 2626 -87 
Q 2572 -91 2522 -91 
Q 1538 -91 948 567 
Q 359 1225 359 2328 
Q 359 3434 948 4092 
Q 1538 4750 2522 4750 
Q 3503 4750 4090 4092 
Q 4678 3434 4678 2328 
Q 4678 1516 4351 937 
Q 4025 359 3406 84 
z
" transform="scale(0.015625)"/>
      <path id="DejaVuSans-52" d="M 2841 2188 
Q 3044 2119 3236 1894 
Q 3428 1669 3622 1275 
L 4263 0 
L 3584 0 
L 2988 1197 
Q 2756 1666 2539 1819 
Q 2322 1972 1947 1972 
L 1259 1972 
L 1259 0 
L 628 0 
L 628 4666 
L 2053 4666 
Q 2853 4666 3247 4331 
Q 3641 3997 3641 3322 
Q 3641 2881 3436 2590 
Q 3231 2300 2841 2188 
z
M 1259 4147 
L 1259 2491 
L 2053 2491 
Q 2509 2491 2742 2702 
Q 2975 2913 2975 3322 
Q 2975 3731 2742 3939 
Q 2509 4147 2053 4147 
L 1259 4147 
z
" transform="scale(0.015625)"/>
      <path id="DejaVuSans-4e" d="M 628 4666 
L 1478 4666 
L 3547 763 
L 3547 4666 
L 4159 4666 
L 4159 0 
L 3309 0 
L 1241 3903 
L 1241 0 
L 628 0 
L 628 4666 
z
" transform="scale(0.015625)"/>
      <path id="DejaVuSans-41" d="M 2188 4044 
L 1331 1722 
L 3047 1722 
L 2188 4044 
z
M 1831 4666 
L 2547 4666 
L 4325 0 
L 3669 0 
L 3244 1197 
L 1141 1197 
L 716 0 
L 50 0 
L 1831 4666 
z
" transform="scale(0.015625)"/>
      <path id="DejaVuSans-71" d="M 947 1747 
Q 947 1113 1208 752 
Q 1469 391 1925 391 
Q 2381 391 2643 752 
Q 2906 1113 2906 1747 
Q 2906 2381 2643 2742 
Q 2381 3103 1925 3103 
Q 1469 3103 1208 2742 
Q 947 2381 947 1747 
z
M 2906 525 
Q 2725 213 2448 61 
Q 2172 -91 1784 -91 
Q 1150 -91 751 415 
Q 353 922 353 1747 
Q 353 2572 751 3078 
Q 1150 3584 1784 3584 
Q 2172 3584 2448 3432 
Q 2725 3281 2906 2969 
L 2906 3500 
L 3481 3500 
L 3481 -1331 
L 2906 -1331 
L 2906 525 
z
" transform="scale(0.015625)"/>
      <path id="DejaVuSans-3a" d="M 750 794 
L 1409 794 
L 1409 0 
L 750 0 
L 750 794 
z
M 750 3309 
L 1409 3309 
L 1409 2516 
L 750 2516 
L 750 3309 
z
" transform="scale(0.015625)"/>
      <path id="DejaVuSans-43" d="M 4122 4306 
L 4122 3641 
Q 3803 3938 3442 4084 
Q 3081 4231 2675 4231 
Q 1875 4231 1450 3742 
Q 1025 3253 1025 2328 
Q 1025 1406 1450 917 
Q 1875 428 2675 428 
Q 3081 428 3442 575 
Q 3803 722 4122 1019 
L 4122 359 
Q 3791 134 3420 21 
Q 3050 -91 2638 -91 
Q 1578 -91 968 557 
Q 359 1206 359 2328 
Q 359 3453 968 4101 
Q 1578 4750 2638 4750 
Q 3056 4750 3426 4639 
Q 3797 4528 4122 4306 
z
" transform="scale(0.015625)"/>
      <path id="DejaVuSans-66" d="M 2375 4863 
L 2375 4384 
L 1825 4384 
Q 1516 4384 1395 4259 
Q 1275 4134 1275 3809 
L 1275 3500 
L 2222 3500 
L 2222 3053 
L 1275 3053 
L 1275 0 
L 697 0 
L 697 3053 
L 147 3053 
L 147 3500 
L 697 3500 
L 697 3744 
Q 697 4328 969 4595 
Q 1241 4863 1831 4863 
L 2375 4863 
z
" transform="scale(0.015625)"/>
      <path id="DejaVuSans-47" d="M 3809 666 
L 3809 1919 
L 2778 1919 
L 2778 2438 
L 4434 2438 
L 4434 434 
Q 4069 175 3628 42 
Q 3188 -91 2688 -91 
Q 1594 -91 976 548 
Q 359 1188 359 2328 
Q 359 3472 976 4111 
Q 1594 4750 2688 4750 
Q 3144 4750 3555 4637 
Q 3966 4525 4313 4306 
L 4313 3634 
Q 3963 3931 3569 4081 
Q 3175 4231 2741 4231 
Q 1884 4231 1454 3753 
Q 1025 3275 1025 2328 
Q 1025 1384 1454 906 
Q 1884 428 2741 428 
Q 3075 428 3337 486 
Q 3600 544 3809 666 
z
" transform="scale(0.015625)"/>
     </defs>
     <use xlink:href="#DejaVuSans-51"/>
     <use xlink:href="#DejaVuSans-75" x="78.710938"/>
     <use xlink:href="#DejaVuSans-61" x="142.089844"/>
     <use xlink:href="#DejaVuSans-6c" x="203.369141"/>
     <use xlink:href="#DejaVuSans-69" x="231.152344"/>
     <use xlink:href="#DejaVuSans-6d" x="258.935547"/>
     <use xlink:href="#DejaVuSans-61" x="356.347656"/>
     <use xlink:href="#DejaVuSans-70" x="417.626953"/>
     <use xlink:href="#DejaVuSans-20" x="481.103516"/>
     <use xlink:href="#DejaVuSans-52" x="512.890625"/>
     <use xlink:href="#DejaVuSans-4e" x="582.373047"/>
     <use xlink:href="#DejaVuSans-41" x="657.177734"/>
     <use xlink:href="#DejaVuSans-73" x="725.585938"/>
     <use xlink:href="#DejaVuSans-65" x="777.685547"/>
     <use xlink:href="#DejaVuSans-71" x="839.208984"/>
     <use xlink:href="#DejaVuSans-3a" x="902.685547"/>
     <use xlink:href="#DejaVuSans-20" x="936.376953"/>
     <use xlink:href="#DejaVuSans-43" x="968.164062"/>
     <use xlink:href="#DejaVuSans-6f" x="1037.988281"/>
     <use xlink:href="#DejaVuSans-76" x="1099.169922"/>
     <use xlink:href="#DejaVuSans-65" x="1158.349609"/>
     <use xlink:href="#DejaVuSans-72" x="1219.873047"/>
     <use xlink:href="#DejaVuSans-61" x="1260.986328"/>
     <use xlink:href="#DejaVuSans-67" x="1322.265625"/>
     <use xlink:href="#DejaVuSans-65" x="1385.742188"/>
     <use xlink:href="#DejaVuSans-20" x="1447.265625"/>
     <use xlink:href="#DejaVuSans-50" x="1479.052734"/>
     <use xlink:href="#DejaVuSans-72" x="1537.605469"/>
     <use xlink:href="#DejaVuSans-6f" x="1576.46875"/>
     <use xlink:href="#DejaVuSans-66" x="1637.650391"/>
     <use xlink:href="#DejaVuSans-69" x="1672.855469"/>
     <use xlink:href="#DejaVuSans-6c" x="1700.638672"/>
     <use xlink:href="#DejaVuSans-65" x="1728.421875"/>
     <use xlink:href="#DejaVuSans-20" x="1789.945312"/>
     <use xlink:href="#DejaVuSans-41" x="1821.732422"/>
     <use xlink:href="#DejaVuSans-6c" x="1890.140625"/>
     <use xlink:href="#DejaVuSans-6f" x="1917.923828"/>
     <use xlink:href="#DejaVuSans-6e" x="1979.105469"/>
     <use xlink:href="#DejaVuSans-67" x="2042.484375"/>
     <use xlink:href="#DejaVuSans-20" x="2105.960938"/>
     <use xlink:href="#DejaVuSans-47" x="2137.748047"/>
     <use xlink:href="#DejaVuSans-65" x="2215.238281"/>
     <use xlink:href="#DejaVuSans-6e" x="2276.761719"/>
     <use xlink:href="#DejaVuSans-65" x="2340.140625"/>
     <use xlink:href="#DejaVuSans-73" x="2401.664062"/>
     <use xlink:href="#DejaVuSans-20" x="2453.763672"/>
     <use xlink:href="#DejaVuSans-28" x="2485.550781"/>
     <use xlink:href="#DejaVuSans-74" x="2524.564453"/>
     <use xlink:href="#DejaVuSans-6f" x="2563.773438"/>
     <use xlink:href="#DejaVuSans-74" x="2624.955078"/>
     <use xlink:href="#DejaVuSans-61" x="2664.164062"/>
     <use xlink:href="#DejaVuSans-6c" x="2725.443359"/>
     <use xlink:href="#DejaVuSans-29" x="2753.226562"/>
    </g>
   </g>
   <g id="legend_1">
    <g id="line2d_21">
     <path d="M 47.800625 292.192894 
L 55.800625 292.192894 
L 63.800625 292.192894 
" style="fill: none; stroke: #7cb5ec; stroke-linecap: square"/>
    </g>
    <g id="text_17">
     <!-- SRR2155413 -->
     <g transform="translate(70.200625 294.992894)scale(0.08 -0.08)">
      <defs>
       <path id="DejaVuSans-53" d="M 3425 4513 
L 3425 3897 
Q 3066 4069 2747 4153 
Q 2428 4238 2131 4238 
Q 1616 4238 1336 4038 
Q 1056 3838 1056 3469 
Q 1056 3159 1242 3001 
Q 1428 2844 1947 2747 
L 2328 2669 
Q 3034 2534 3370 2195 
Q 3706 1856 3706 1288 
Q 3706 609 3251 259 
Q 2797 -91 1919 -91 
Q 1588 -91 1214 -16 
Q 841 59 441 206 
L 441 856 
Q 825 641 1194 531 
Q 1563 422 1919 422 
Q 2459 422 2753 634 
Q 3047 847 3047 1241 
Q 3047 1584 2836 1778 
Q 2625 1972 2144 2069 
L 1759 2144 
Q 1053 2284 737 2584 
Q 422 2884 422 3419 
Q 422 4038 858 4394 
Q 1294 4750 2059 4750 
Q 2388 4750 2728 4690 
Q 3069 4631 3425 4513 
z
" transform="scale(0.015625)"/>
       <path id="DejaVuSans-35" d="M 691 4666 
L 3169 4666 
L 3169 4134 
L 1269 4134 
L 1269 2991 
Q 1406 3038 1543 3061 
Q 1681 3084 1819 3084 
Q 2600 3084 3056 2656 
Q 3513 2228 3513 1497 
Q 3513 744 3044 326 
Q 2575 -91 1722 -91 
Q 1428 -91 1123 -41 
Q 819 9 494 109 
L 494 744 
Q 775 591 1075 516 
Q 1375 441 1709 441 
Q 2250 441 2565 725 
Q 2881 1009 2881 1497 
Q 2881 1984 2565 2268 
Q 2250 2553 1709 2553 
Q 1456 2553 1204 2497 
Q 953 2441 691 2322 
L 691 4666 
z
" transform="scale(0.015625)"/>
       <path id="DejaVuSans-33" d="M 2597 2516 
Q 3050 2419 3304 2112 
Q 3559 1806 3559 1356 
Q 3559 666 3084 287 
Q 2609 -91 1734 -91 
Q 1441 -91 1130 -33 
Q 819 25 488 141 
L 488 750 
Q 750 597 1062 519 
Q 1375 441 1716 441 
Q 2309 441 2620 675 
Q 2931 909 2931 1356 
Q 2931 1769 2642 2001 
Q 2353 2234 1838 2234 
L 1294 2234 
L 1294 2753 
L 1863 2753 
Q 2328 2753 2575 2939 
Q 2822 3125 2822 3475 
Q 2822 3834 2567 4026 
Q 2313 4219 1838 4219 
Q 1578 4219 1281 4162 
Q 984 4106 628 3988 
L 628 4550 
Q 988 4650 1302 4700 
Q 1616 4750 1894 4750 
Q 2613 4750 3031 4423 
Q 3450 4097 3450 3541 
Q 3450 3153 3228 2886 
Q 3006 2619 2597 2516 
z
" transform="scale(0.015625)"/>
      </defs>
      <use xlink:href="#DejaVuSans-53"/>
      <use xlink:href="#DejaVuSans-52" x="63.476562"/>
      <use xlink:href="#DejaVuSans-52" x="132.958984"/>
      <use xlink:href="#DejaVuSans-32" x="202.441406"/>
      <use xlink:href="#DejaVuSans-31" x="266.064453"/>
      <use xlink:href="#DejaVuSans-35" x="329.6875"/>
      <use xlink:href="#DejaVuSans-35" x="393.310547"/>
      <use xlink:href="#DejaVuSans-34" x="456.933594"/>
      <use xlink:href="#DejaVuSans-31" x="520.556641"/>
      <use xlink:href="#DejaVuSans-33" x="584.179688"/>
     </g>
    </g>
    <g id="line2d_22">
     <path d="M 47.800625 303.935394 
L 55.800625 303.935394 
L 63.800625 303.935394 
" style="fill: none; stroke: #434348; stroke-linecap: square"/>
    </g>
    <g id="text_18">
     <!-- SRR2155414 -->
     <g transform="translate(70.200625 306.735394)scale(0.08 -0.08)">
      <use xlink:href="#DejaVuSans-53"/>
      <use xlink:href="#DejaVuSans-52" x="63.476562"/>
      <use xlink:href="#DejaVuSans-52" x="132.958984"/>
      <use xlink:href="#DejaVuSans-32" x="202.441406"/>
      <use xlink:href="#DejaVuSans-31" x="266.064453"/>
      <use xlink:href="#DejaVuSans-35" x="329.6875"/>
      <use xlink:href="#DejaVuSans-35" x="393.310547"/>
      <use xlink:href="#DejaVuSans-34" x="456.933594"/>
      <use xlink:href="#DejaVuSans-31" x="520.556641"/>
      <use xlink:href="#DejaVuSans-34" x="584.179688"/>
     </g>
    </g>
    <g id="line2d_23">
     <path d="M 47.800625 315.677894 
L 55.800625 315.677894 
L 63.800625 315.677894 
" style="fill: none; stroke: #90ed7d; stroke-linecap: square"/>
    </g>
    <g id="text_19">
     <!-- SRR2155415 -->
     <g transform="translate(70.200625 318.477894)scale(0.08 -0.08)">
      <use xlink:href="#DejaVuSans-53"/>
      <use xlink:href="#DejaVuSans-52" x="63.476562"/>
      <use xlink:href="#DejaVuSans-52" x="132.958984"/>
      <use xlink:href="#DejaVuSans-32" x="202.441406"/>
      <use xlink:href="#DejaVuSans-31" x="266.064453"/>
      <use xlink:href="#DejaVuSans-35" x="329.6875"/>
      <use xlink:href="#DejaVuSans-35" x="393.310547"/>
      <use xlink:href="#DejaVuSans-34" x="456.933594"/>
      <use xlink:href="#DejaVuSans-31" x="520.556641"/>
      <use xlink:href="#DejaVuSans-35" x="584.179688"/>
     </g>
    </g>
    <g id="line2d_24">
     <path d="M 261.855313 292.192894 
L 269.855313 292.192894 
L 277.855313 292.192894 
" style="fill: none; stroke: #f7a35c; stroke-linecap: square"/>
    </g>
    <g id="text_20">
     <!-- SRR2155416 -->
     <g transform="translate(284.255313 294.992894)scale(0.08 -0.08)">
      <use xlink:href="#DejaVuSans-53"/>
      <use xlink:href="#DejaVuSans-52" x="63.476562"/>
      <use xlink:href="#DejaVuSans-52" x="132.958984"/>
      <use xlink:href="#DejaVuSans-32" x="202.441406"/>
      <use xlink:href="#DejaVuSans-31" x="266.064453"/>
      <use xlink:href="#DejaVuSans-35" x="329.6875"/>
      <use xlink:href="#DejaVuSans-35" x="393.310547"/>
      <use xlink:href="#DejaVuSans-34" x="456.933594"/>
      <use xlink:href="#DejaVuSans-31" x="520.556641"/>
      <use xlink:href="#DejaVuSans-36" x="584.179688"/>
     </g>
    </g>
    <g id="line2d_25">
     <path d="M 261.855313 303.935394 
L 269.855313 303.935394 
L 277.855313 303.935394 
" style="fill: none; stroke: #8085e9; stroke-linecap: square"/>
    </g>
    <g id="text_21">
     <!-- SRR2155417 -->
     <g transform="translate(284.255313 306.735394)scale(0.08 -0.08)">
      <defs>
       <path id="DejaVuSans-37" d="M 525 4666 
L 3525 4666 
L 3525 4397 
L 1831 0 
L 1172 0 
L 2766 4134 
L 525 4134 
L 525 4666 
z
" transform="scale(0.015625)"/>
      </defs>
      <use xlink:href="#DejaVuSans-53"/>
      <use xlink:href="#DejaVuSans-52" x="63.476562"/>
      <use xlink:href="#DejaVuSans-52" x="132.958984"/>
      <use xlink:href="#DejaVuSans-32" x="202.441406"/>
      <use xlink:href="#DejaVuSans-31" x="266.064453"/>
      <use xlink:href="#DejaVuSans-35" x="329.6875"/>
      <use xlink:href="#DejaVuSans-35" x="393.310547"/>
      <use xlink:href="#DejaVuSans-34" x="456.933594"/>
      <use xlink:href="#DejaVuSans-31" x="520.556641"/>
      <use xlink:href="#DejaVuSans-37" x="584.179688"/>
     </g>
    </g>
    <g id="line2d_26">
     <path d="M 261.855313 315.677894 
L 269.855313 315.677894 
L 277.855313 315.677894 
" style="fill: none; stroke: #f15c80; stroke-linecap: square"/>
    </g>
    <g id="text_22">
     <!-- SRR2155418 -->
     <g transform="translate(284.255313 318.477894)scale(0.08 -0.08)">
      <use xlink:href="#DejaVuSans-53"/>
      <use xlink:href="#DejaVuSans-52" x="63.476562"/>
      <use xlink:href="#DejaVuSans-52" x="132.958984"/>
      <use xlink:href="#DejaVuSans-32" x="202.441406"/>
      <use xlink:href="#DejaVuSans-31" x="266.064453"/>
      <use xlink:href="#DejaVuSans-35" x="329.6875"/>
      <use xlink:href="#DejaVuSans-35" x="393.310547"/>
      <use xlink:href="#DejaVuSans-34" x="456.933594"/>
      <use xlink:href="#DejaVuSans-31" x="520.556641"/>
      <use xlink:href="#DejaVuSans-38" x="584.179688"/>
     </g>
    </g>
    <g id="line2d_27">
     <path d="M 475.91 292.192894 
L 483.91 292.192894 
L 491.91 292.192894 
" style="fill: none; stroke: #e4d354; stroke-linecap: square"/>
    </g>
    <g id="text_23">
     <!-- SRR2155419 -->
     <g transform="translate(498.31 294.992894)scale(0.08 -0.08)">
      <defs>
       <path id="DejaVuSans-39" d="M 703 97 
L 703 672 
Q 941 559 1184 500 
Q 1428 441 1663 441 
Q 2288 441 2617 861 
Q 2947 1281 2994 2138 
Q 2813 1869 2534 1725 
Q 2256 1581 1919 1581 
Q 1219 1581 811 2004 
Q 403 2428 403 3163 
Q 403 3881 828 4315 
Q 1253 4750 1959 4750 
Q 2769 4750 3195 4129 
Q 3622 3509 3622 2328 
Q 3622 1225 3098 567 
Q 2575 -91 1691 -91 
Q 1453 -91 1209 -44 
Q 966 3 703 97 
z
M 1959 2075 
Q 2384 2075 2632 2365 
Q 2881 2656 2881 3163 
Q 2881 3666 2632 3958 
Q 2384 4250 1959 4250 
Q 1534 4250 1286 3958 
Q 1038 3666 1038 3163 
Q 1038 2656 1286 2365 
Q 1534 2075 1959 2075 
z
" transform="scale(0.015625)"/>
      </defs>
      <use xlink:href="#DejaVuSans-53"/>
      <use xlink:href="#DejaVuSans-52" x="63.476562"/>
      <use xlink:href="#DejaVuSans-52" x="132.958984"/>
      <use xlink:href="#DejaVuSans-32" x="202.441406"/>
      <use xlink:href="#DejaVuSans-31" x="266.064453"/>
      <use xlink:href="#DejaVuSans-35" x="329.6875"/>
      <use xlink:href="#DejaVuSans-35" x="393.310547"/>
      <use xlink:href="#DejaVuSans-34" x="456.933594"/>
      <use xlink:href="#DejaVuSans-31" x="520.556641"/>
      <use xlink:href="#DejaVuSans-39" x="584.179688"/>
     </g>
    </g>
    <g id="line2d_28">
     <path d="M 475.91 303.935394 
L 483.91 303.935394 
L 491.91 303.935394 
" style="fill: none; stroke: #2b908f; stroke-linecap: square"/>
    </g>
    <g id="text_24">
     <!-- SRR2155420 -->
     <g transform="translate(498.31 306.735394)scale(0.08 -0.08)">
      <use xlink:href="#DejaVuSans-53"/>
      <use xlink:href="#DejaVuSans-52" x="63.476562"/>
      <use xlink:href="#DejaVuSans-52" x="132.958984"/>
      <use xlink:href="#DejaVuSans-32" x="202.441406"/>
      <use xlink:href="#DejaVuSans-31" x="266.064453"/>
      <use xlink:href="#DejaVuSans-35" x="329.6875"/>
      <use xlink:href="#DejaVuSans-35" x="393.310547"/>
      <use xlink:href="#DejaVuSans-34" x="456.933594"/>
      <use xlink:href="#DejaVuSans-32" x="520.556641"/>
      <use xlink:href="#DejaVuSans-30" x="584.179688"/>
     </g>
    </g>
    <g id="line2d_29">
     <path d="M 689.964687 292.192894 
L 697.964687 292.192894 
L 705.964687 292.192894 
" style="fill: none; stroke: #f45b5b; stroke-linecap: square"/>
    </g>
    <g id="text_25">
     <!-- SRR2155421 -->
     <g transform="translate(712.364687 294.992894)scale(0.08 -0.08)">
      <use xlink:href="#DejaVuSans-53"/>
      <use xlink:href="#DejaVuSans-52" x="63.476562"/>
      <use xlink:href="#DejaVuSans-52" x="132.958984"/>
      <use xlink:href="#DejaVuSans-32" x="202.441406"/>
      <use xlink:href="#DejaVuSans-31" x="266.064453"/>
      <use xlink:href="#DejaVuSans-35" x="329.6875"/>
      <use xlink:href="#DejaVuSans-35" x="393.310547"/>
      <use xlink:href="#DejaVuSans-34" x="456.933594"/>
      <use xlink:href="#DejaVuSans-32" x="520.556641"/>
      <use xlink:href="#DejaVuSans-31" x="584.179688"/>
     </g>
    </g>
    <g id="line2d_30">
     <path d="M 689.964687 303.935394 
L 697.964687 303.935394 
L 705.964687 303.935394 
" style="fill: none; stroke: #91e8e1; stroke-linecap: square"/>
    </g>
    <g id="text_26">
     <!-- SRR2155422 -->
     <g transform="translate(712.364687 306.735394)scale(0.08 -0.08)">
      <use xlink:href="#DejaVuSans-53"/>
      <use xlink:href="#DejaVuSans-52" x="63.476562"/>
      <use xlink:href="#DejaVuSans-52" x="132.958984"/>
      <use xlink:href="#DejaVuSans-32" x="202.441406"/>
      <use xlink:href="#DejaVuSans-31" x="266.064453"/>
      <use xlink:href="#DejaVuSans-35" x="329.6875"/>
      <use xlink:href="#DejaVuSans-35" x="393.310547"/>
      <use xlink:href="#DejaVuSans-34" x="456.933594"/>
      <use xlink:href="#DejaVuSans-32" x="520.556641"/>
      <use xlink:href="#DejaVuSans-32" x="584.179688"/>
     </g>
    </g>
    <g id="line2d_31">
     <path d="M 904.019375 292.192894 
L 912.019375 292.192894 
L 920.019375 292.192894 
" style="fill: none; stroke: #7cb5ec; stroke-linecap: square"/>
    </g>
    <g id="text_27">
     <!-- SRR2155423 -->
     <g transform="translate(926.419375 294.992894)scale(0.08 -0.08)">
      <use xlink:href="#DejaVuSans-53"/>
      <use xlink:href="#DejaVuSans-52" x="63.476562"/>
      <use xlink:href="#DejaVuSans-52" x="132.958984"/>
      <use xlink:href="#DejaVuSans-32" x="202.441406"/>
      <use xlink:href="#DejaVuSans-31" x="266.064453"/>
      <use xlink:href="#DejaVuSans-35" x="329.6875"/>
      <use xlink:href="#DejaVuSans-35" x="393.310547"/>
      <use xlink:href="#DejaVuSans-34" x="456.933594"/>
      <use xlink:href="#DejaVuSans-32" x="520.556641"/>
      <use xlink:href="#DejaVuSans-33" x="584.179688"/>
     </g>
    </g>
    <g id="line2d_32">
     <path d="M 904.019375 303.935394 
L 912.019375 303.935394 
L 920.019375 303.935394 
" style="fill: none; stroke: #434348; stroke-linecap: square"/>
    </g>
    <g id="text_28">
     <!-- SRR2155424 -->
     <g transform="translate(926.419375 306.735394)scale(0.08 -0.08)">
      <use xlink:href="#DejaVuSans-53"/>
      <use xlink:href="#DejaVuSans-52" x="63.476562"/>
      <use xlink:href="#DejaVuSans-52" x="132.958984"/>
      <use xlink:href="#DejaVuSans-32" x="202.441406"/>
      <use xlink:href="#DejaVuSans-31" x="266.064453"/>
      <use xlink:href="#DejaVuSans-35" x="329.6875"/>
      <use xlink:href="#DejaVuSans-35" x="393.310547"/>
      <use xlink:href="#DejaVuSans-34" x="456.933594"/>
      <use xlink:href="#DejaVuSans-32" x="520.556641"/>
      <use xlink:href="#DejaVuSans-34" x="584.179688"/>
     </g>
    </g>
   </g>
  </g>
 </g>
 <defs>
  <clipPath id="paf55b96c85">
   <rect x="40.600625" y="31.48286" width="944.845" height="242.5072"/>
  </clipPath>
 </defs>
</svg>
