<?xml version="1.0" encoding="utf-8" standalone="no"?>
<!DOCTYPE svg PUBLIC "-//W3C//DTD SVG 1.1//EN"
  "http://www.w3.org/Graphics/SVG/1.1/DTD/svg11.dtd">
<svg xmlns:xlink="http://www.w3.org/1999/xlink" width="1000.318125pt" height="330.541644pt" viewBox="0 0 1000.318125 330.541644" xmlns="http://www.w3.org/2000/svg" version="1.1">
 <metadata>
  <rdf:RDF xmlns:dc="http://purl.org/dc/elements/1.1/" xmlns:cc="http://creativecommons.org/ns#" xmlns:rdf="http://www.w3.org/1999/02/22-rdf-syntax-ns#">
   <cc:Work>
    <dc:type rdf:resource="http://purl.org/dc/dcmitype/StillImage"/>
    <dc:date>2024-08-14T16:02:24.807531</dc:date>
    <dc:format>image/svg+xml</dc:format>
    <dc:creator>
     <cc:Agent>
      <dc:title>Matplotlib v3.5.3, https://matplotlib.org/</dc:title>
     </cc:Agent>
    </dc:creator>
   </cc:Work>
  </rdf:RDF>
 </metadata>
 <defs>
  <style type="text/css">*{stroke-linejoin: round; stroke-linecap: butt}</style>
 </defs>
 <g id="figure_1">
  <g id="axes_1">
   <g id="patch_1">
    <path d="M 38.058125 273.99006 
L 993.118125 273.99006 
L 993.118125 31.48286 
L 38.058125 31.48286 
z
" style="fill: #ffffff"/>
   </g>
   <g id="patch_2">
    <path d="M 38.058125 91.464632 
L 958.476371 91.464632 
L 958.476371 -377.886468 
L 38.058125 -377.886468 
z
" clip-path="url(#pa6f411925c)" style="fill: #c3e6c3"/>
   </g>
   <g id="patch_3">
    <path d="M 38.058125 143.614754 
L 958.476371 143.614754 
L 958.476371 91.464632 
L 38.058125 91.464632 
z
" clip-path="url(#pa6f411925c)" style="fill: #e6dcc3"/>
   </g>
   <g id="patch_4">
    <path d="M 38.058125 273.99006 
L 958.476371 273.99006 
L 958.476371 143.614754 
L 38.058125 143.614754 
z
" clip-path="url(#pa6f411925c)" style="fill: #e6c3c3"/>
   </g>
   <g id="matplotlib.axis_1">
    <g id="xtick_1">
     <g id="text_1">
      <!-- 0 -->
      <g transform="translate(70.154879 287.06881)scale(0.08 -0.08)">
       <defs>
        <path id="DejaVuSans-30" d="M 2034 4250 
Q 1547 4250 1301 3770 
Q 1056 3291 1056 2328 
Q 1056 1369 1301 889 
Q 1547 409 2034 409 
Q 2525 409 2770 889 
Q 3016 1369 3016 2328 
Q 3016 3291 2770 3770 
Q 2525 4250 2034 4250 
z
M 2034 4750 
Q 2819 4750 3233 4129 
Q 3647 3509 3647 2328 
Q 3647 1150 3233 529 
Q 2819 -91 2034 -91 
Q 1250 -91 836 529 
Q 422 1150 422 2328 
Q 422 3509 836 4129 
Q 1250 4750 2034 4750 
z
" transform="scale(0.015625)"/>
       </defs>
       <use xlink:href="#DejaVuSans-30"/>
      </g>
     </g>
    </g>
    <g id="xtick_2">
     <g id="text_2">
      <!-- 20 -->
      <g transform="translate(243.011164 287.06881)scale(0.08 -0.08)">
       <defs>
        <path id="DejaVuSans-32" d="M 1228 531 
L 3431 531 
L 3431 0 
L 469 0 
L 469 531 
Q 828 903 1448 1529 
Q 2069 2156 2228 2338 
Q 2531 2678 2651 2914 
Q 2772 3150 2772 3378 
Q 2772 3750 2511 3984 
Q 2250 4219 1831 4219 
Q 1534 4219 1204 4116 
Q 875 4013 500 3803 
L 500 4441 
Q 881 4594 1212 4672 
Q 1544 4750 1819 4750 
Q 2544 4750 2975 4387 
Q 3406 4025 3406 3419 
Q 3406 3131 3298 2873 
Q 3191 2616 2906 2266 
Q 2828 2175 2409 1742 
Q 1991 1309 1228 531 
z
" transform="scale(0.015625)"/>
       </defs>
       <use xlink:href="#DejaVuSans-32"/>
       <use xlink:href="#DejaVuSans-30" x="63.623047"/>
      </g>
     </g>
    </g>
    <g id="xtick_3">
     <g id="text_3">
      <!-- 40 -->
      <g transform="translate(418.41245 287.06881)scale(0.08 -0.08)">
       <defs>
        <path id="DejaVuSans-34" d="M 2419 4116 
L 825 1625 
L 2419 1625 
L 2419 4116 
z
M 2253 4666 
L 3047 4666 
L 3047 1625 
L 3713 1625 
L 3713 1100 
L 3047 1100 
L 3047 0 
L 2419 0 
L 2419 1100 
L 313 1100 
L 313 1709 
L 2253 4666 
z
" transform="scale(0.015625)"/>
       </defs>
       <use xlink:href="#DejaVuSans-34"/>
       <use xlink:href="#DejaVuSans-30" x="63.623047"/>
      </g>
     </g>
    </g>
    <g id="xtick_4">
     <g id="text_4">
      <!-- 60 -->
      <g transform="translate(593.813736 287.06881)scale(0.08 -0.08)">
       <defs>
        <path id="DejaVuSans-36" d="M 2113 2584 
Q 1688 2584 1439 2293 
Q 1191 2003 1191 1497 
Q 1191 994 1439 701 
Q 1688 409 2113 409 
Q 2538 409 2786 701 
Q 3034 994 3034 1497 
Q 3034 2003 2786 2293 
Q 2538 2584 2113 2584 
z
M 3366 4563 
L 3366 3988 
Q 3128 4100 2886 4159 
Q 2644 4219 2406 4219 
Q 1781 4219 1451 3797 
Q 1122 3375 1075 2522 
Q 1259 2794 1537 2939 
Q 1816 3084 2150 3084 
Q 2853 3084 3261 2657 
Q 3669 2231 3669 1497 
Q 3669 778 3244 343 
Q 2819 -91 2113 -91 
Q 1303 -91 875 529 
Q 447 1150 447 2328 
Q 447 3434 972 4092 
Q 1497 4750 2381 4750 
Q 2619 4750 2861 4703 
Q 3103 4656 3366 4563 
z
" transform="scale(0.015625)"/>
       </defs>
       <use xlink:href="#DejaVuSans-36"/>
       <use xlink:href="#DejaVuSans-30" x="63.623047"/>
      </g>
     </g>
    </g>
    <g id="xtick_5">
     <g id="text_5">
      <!-- 80 -->
      <g transform="translate(769.215021 287.06881)scale(0.08 -0.08)">
       <defs>
        <path id="DejaVuSans-38" d="M 2034 2216 
Q 1584 2216 1326 1975 
Q 1069 1734 1069 1313 
Q 1069 891 1326 650 
Q 1584 409 2034 409 
Q 2484 409 2743 651 
Q 3003 894 3003 1313 
Q 3003 1734 2745 1975 
Q 2488 2216 2034 2216 
z
M 1403 2484 
Q 997 2584 770 2862 
Q 544 3141 544 3541 
Q 544 4100 942 4425 
Q 1341 4750 2034 4750 
Q 2731 4750 3128 4425 
Q 3525 4100 3525 3541 
Q 3525 3141 3298 2862 
Q 3072 2584 2669 2484 
Q 3125 2378 3379 2068 
Q 3634 1759 3634 1313 
Q 3634 634 3220 271 
Q 2806 -91 2034 -91 
Q 1263 -91 848 271 
Q 434 634 434 1313 
Q 434 1759 690 2068 
Q 947 2378 1403 2484 
z
M 1172 3481 
Q 1172 3119 1398 2916 
Q 1625 2713 2034 2713 
Q 2441 2713 2670 2916 
Q 2900 3119 2900 3481 
Q 2900 3844 2670 4047 
Q 2441 4250 2034 4250 
Q 1625 4250 1398 4047 
Q 1172 3844 1172 3481 
z
" transform="scale(0.015625)"/>
       </defs>
       <use xlink:href="#DejaVuSans-38"/>
       <use xlink:href="#DejaVuSans-30" x="63.623047"/>
      </g>
     </g>
    </g>
    <g id="xtick_6">
     <g id="text_6">
      <!-- 100 -->
      <g transform="translate(942.071307 287.06881)scale(0.08 -0.08)">
       <defs>
        <path id="DejaVuSans-31" d="M 794 531 
L 1825 531 
L 1825 4091 
L 703 3866 
L 703 4441 
L 1819 4666 
L 2450 4666 
L 2450 531 
L 3481 531 
L 3481 0 
L 794 0 
L 794 531 
z
" transform="scale(0.015625)"/>
       </defs>
       <use xlink:href="#DejaVuSans-31"/>
       <use xlink:href="#DejaVuSans-30" x="63.623047"/>
       <use xlink:href="#DejaVuSans-30" x="127.246094"/>
      </g>
     </g>
    </g>
    <g id="text_7">
     <!-- Position (bp) -->
     <g transform="translate(484.285 300.330997)scale(0.1 -0.1)">
      <defs>
       <path id="DejaVuSans-50" d="M 1259 4147 
L 1259 2394 
L 2053 2394 
Q 2494 2394 2734 2622 
Q 2975 2850 2975 3272 
Q 2975 3691 2734 3919 
Q 2494 4147 2053 4147 
L 1259 4147 
z
M 628 4666 
L 2053 4666 
Q 2838 4666 3239 4311 
Q 3641 3956 3641 3272 
Q 3641 2581 3239 2228 
Q 2838 1875 2053 1875 
L 1259 1875 
L 1259 0 
L 628 0 
L 628 4666 
z
" transform="scale(0.015625)"/>
       <path id="DejaVuSans-6f" d="M 1959 3097 
Q 1497 3097 1228 2736 
Q 959 2375 959 1747 
Q 959 1119 1226 758 
Q 1494 397 1959 397 
Q 2419 397 2687 759 
Q 2956 1122 2956 1747 
Q 2956 2369 2687 2733 
Q 2419 3097 1959 3097 
z
M 1959 3584 
Q 2709 3584 3137 3096 
Q 3566 2609 3566 1747 
Q 3566 888 3137 398 
Q 2709 -91 1959 -91 
Q 1206 -91 779 398 
Q 353 888 353 1747 
Q 353 2609 779 3096 
Q 1206 3584 1959 3584 
z
" transform="scale(0.015625)"/>
       <path id="DejaVuSans-73" d="M 2834 3397 
L 2834 2853 
Q 2591 2978 2328 3040 
Q 2066 3103 1784 3103 
Q 1356 3103 1142 2972 
Q 928 2841 928 2578 
Q 928 2378 1081 2264 
Q 1234 2150 1697 2047 
L 1894 2003 
Q 2506 1872 2764 1633 
Q 3022 1394 3022 966 
Q 3022 478 2636 193 
Q 2250 -91 1575 -91 
Q 1294 -91 989 -36 
Q 684 19 347 128 
L 347 722 
Q 666 556 975 473 
Q 1284 391 1588 391 
Q 1994 391 2212 530 
Q 2431 669 2431 922 
Q 2431 1156 2273 1281 
Q 2116 1406 1581 1522 
L 1381 1569 
Q 847 1681 609 1914 
Q 372 2147 372 2553 
Q 372 3047 722 3315 
Q 1072 3584 1716 3584 
Q 2034 3584 2315 3537 
Q 2597 3491 2834 3397 
z
" transform="scale(0.015625)"/>
       <path id="DejaVuSans-69" d="M 603 3500 
L 1178 3500 
L 1178 0 
L 603 0 
L 603 3500 
z
M 603 4863 
L 1178 4863 
L 1178 4134 
L 603 4134 
L 603 4863 
z
" transform="scale(0.015625)"/>
       <path id="DejaVuSans-74" d="M 1172 4494 
L 1172 3500 
L 2356 3500 
L 2356 3053 
L 1172 3053 
L 1172 1153 
Q 1172 725 1289 603 
Q 1406 481 1766 481 
L 2356 481 
L 2356 0 
L 1766 0 
Q 1100 0 847 248 
Q 594 497 594 1153 
L 594 3053 
L 172 3053 
L 172 3500 
L 594 3500 
L 594 4494 
L 1172 4494 
z
" transform="scale(0.015625)"/>
       <path id="DejaVuSans-6e" d="M 3513 2113 
L 3513 0 
L 2938 0 
L 2938 2094 
Q 2938 2591 2744 2837 
Q 2550 3084 2163 3084 
Q 1697 3084 1428 2787 
Q 1159 2491 1159 1978 
L 1159 0 
L 581 0 
L 581 3500 
L 1159 3500 
L 1159 2956 
Q 1366 3272 1645 3428 
Q 1925 3584 2291 3584 
Q 2894 3584 3203 3211 
Q 3513 2838 3513 2113 
z
" transform="scale(0.015625)"/>
       <path id="DejaVuSans-20" transform="scale(0.015625)"/>
       <path id="DejaVuSans-28" d="M 1984 4856 
Q 1566 4138 1362 3434 
Q 1159 2731 1159 2009 
Q 1159 1288 1364 580 
Q 1569 -128 1984 -844 
L 1484 -844 
Q 1016 -109 783 600 
Q 550 1309 550 2009 
Q 550 2706 781 3412 
Q 1013 4119 1484 4856 
L 1984 4856 
z
" transform="scale(0.015625)"/>
       <path id="DejaVuSans-62" d="M 3116 1747 
Q 3116 2381 2855 2742 
Q 2594 3103 2138 3103 
Q 1681 3103 1420 2742 
Q 1159 2381 1159 1747 
Q 1159 1113 1420 752 
Q 1681 391 2138 391 
Q 2594 391 2855 752 
Q 3116 1113 3116 1747 
z
M 1159 2969 
Q 1341 3281 1617 3432 
Q 1894 3584 2278 3584 
Q 2916 3584 3314 3078 
Q 3713 2572 3713 1747 
Q 3713 922 3314 415 
Q 2916 -91 2278 -91 
Q 1894 -91 1617 61 
Q 1341 213 1159 525 
L 1159 0 
L 581 0 
L 581 4863 
L 1159 4863 
L 1159 2969 
z
" transform="scale(0.015625)"/>
       <path id="DejaVuSans-70" d="M 1159 525 
L 1159 -1331 
L 581 -1331 
L 581 3500 
L 1159 3500 
L 1159 2969 
Q 1341 3281 1617 3432 
Q 1894 3584 2278 3584 
Q 2916 3584 3314 3078 
Q 3713 2572 3713 1747 
Q 3713 922 3314 415 
Q 2916 -91 2278 -91 
Q 1894 -91 1617 61 
Q 1341 213 1159 525 
z
M 3116 1747 
Q 3116 2381 2855 2742 
Q 2594 3103 2138 3103 
Q 1681 3103 1420 2742 
Q 1159 2381 1159 1747 
Q 1159 1113 1420 752 
Q 1681 391 2138 391 
Q 2594 391 2855 752 
Q 3116 1113 3116 1747 
z
" transform="scale(0.015625)"/>
       <path id="DejaVuSans-29" d="M 513 4856 
L 1013 4856 
Q 1481 4119 1714 3412 
Q 1947 2706 1947 2009 
Q 1947 1309 1714 600 
Q 1481 -109 1013 -844 
L 513 -844 
Q 928 -128 1133 580 
Q 1338 1288 1338 2009 
Q 1338 2731 1133 3434 
Q 928 4138 513 4856 
z
" transform="scale(0.015625)"/>
      </defs>
      <use xlink:href="#DejaVuSans-50"/>
      <use xlink:href="#DejaVuSans-6f" x="56.677734"/>
      <use xlink:href="#DejaVuSans-73" x="117.859375"/>
      <use xlink:href="#DejaVuSans-69" x="169.958984"/>
      <use xlink:href="#DejaVuSans-74" x="197.742188"/>
      <use xlink:href="#DejaVuSans-69" x="236.951172"/>
      <use xlink:href="#DejaVuSans-6f" x="264.734375"/>
      <use xlink:href="#DejaVuSans-6e" x="325.916016"/>
      <use xlink:href="#DejaVuSans-20" x="389.294922"/>
      <use xlink:href="#DejaVuSans-28" x="421.082031"/>
      <use xlink:href="#DejaVuSans-62" x="460.095703"/>
      <use xlink:href="#DejaVuSans-70" x="523.572266"/>
      <use xlink:href="#DejaVuSans-29" x="587.048828"/>
     </g>
    </g>
   </g>
   <g id="matplotlib.axis_2">
    <g id="ytick_1">
     <g id="line2d_1">
      <path d="M 38.058125 273.99006 
L 993.118125 273.99006 
" clip-path="url(#pa6f411925c)" style="fill: none; stroke: #dedede; stroke-linecap: square"/>
     </g>
     <g id="text_8">
      <!-- 0 -->
      <g transform="translate(25.968125 277.029435)scale(0.08 -0.08)">
       <use xlink:href="#DejaVuSans-30"/>
      </g>
     </g>
    </g>
    <g id="ytick_2">
     <g id="line2d_2">
      <path d="M 38.058125 241.396234 
L 993.118125 241.396234 
" clip-path="url(#pa6f411925c)" style="fill: none; stroke: #dedede; stroke-linecap: square"/>
     </g>
     <g id="text_9">
      <!-- 5 -->
      <g transform="translate(25.968125 244.435609)scale(0.08 -0.08)">
       <defs>
        <path id="DejaVuSans-35" d="M 691 4666 
L 3169 4666 
L 3169 4134 
L 1269 4134 
L 1269 2991 
Q 1406 3038 1543 3061 
Q 1681 3084 1819 3084 
Q 2600 3084 3056 2656 
Q 3513 2228 3513 1497 
Q 3513 744 3044 326 
Q 2575 -91 1722 -91 
Q 1428 -91 1123 -41 
Q 819 9 494 109 
L 494 744 
Q 775 591 1075 516 
Q 1375 441 1709 441 
Q 2250 441 2565 725 
Q 2881 1009 2881 1497 
Q 2881 1984 2565 2268 
Q 2250 2553 1709 2553 
Q 1456 2553 1204 2497 
Q 953 2441 691 2322 
L 691 4666 
z
" transform="scale(0.015625)"/>
       </defs>
       <use xlink:href="#DejaVuSans-35"/>
      </g>
     </g>
    </g>
    <g id="ytick_3">
     <g id="line2d_3">
      <path d="M 38.058125 208.802407 
L 993.118125 208.802407 
" clip-path="url(#pa6f411925c)" style="fill: none; stroke: #dedede; stroke-linecap: square"/>
     </g>
     <g id="text_10">
      <!-- 10 -->
      <g transform="translate(20.878125 211.841782)scale(0.08 -0.08)">
       <use xlink:href="#DejaVuSans-31"/>
       <use xlink:href="#DejaVuSans-30" x="63.623047"/>
      </g>
     </g>
    </g>
    <g id="ytick_4">
     <g id="line2d_4">
      <path d="M 38.058125 176.208581 
L 993.118125 176.208581 
" clip-path="url(#pa6f411925c)" style="fill: none; stroke: #dedede; stroke-linecap: square"/>
     </g>
     <g id="text_11">
      <!-- 15 -->
      <g transform="translate(20.878125 179.247956)scale(0.08 -0.08)">
       <use xlink:href="#DejaVuSans-31"/>
       <use xlink:href="#DejaVuSans-35" x="63.623047"/>
      </g>
     </g>
    </g>
    <g id="ytick_5">
     <g id="line2d_5">
      <path d="M 38.058125 143.614754 
L 993.118125 143.614754 
" clip-path="url(#pa6f411925c)" style="fill: none; stroke: #dedede; stroke-linecap: square"/>
     </g>
     <g id="text_12">
      <!-- 20 -->
      <g transform="translate(20.878125 146.654129)scale(0.08 -0.08)">
       <use xlink:href="#DejaVuSans-32"/>
       <use xlink:href="#DejaVuSans-30" x="63.623047"/>
      </g>
     </g>
    </g>
    <g id="ytick_6">
     <g id="line2d_6">
      <path d="M 38.058125 111.020928 
L 993.118125 111.020928 
" clip-path="url(#pa6f411925c)" style="fill: none; stroke: #dedede; stroke-linecap: square"/>
     </g>
     <g id="text_13">
      <!-- 25 -->
      <g transform="translate(20.878125 114.060303)scale(0.08 -0.08)">
       <use xlink:href="#DejaVuSans-32"/>
       <use xlink:href="#DejaVuSans-35" x="63.623047"/>
      </g>
     </g>
    </g>
    <g id="ytick_7">
     <g id="line2d_7">
      <path d="M 38.058125 78.427102 
L 993.118125 78.427102 
" clip-path="url(#pa6f411925c)" style="fill: none; stroke: #dedede; stroke-linecap: square"/>
     </g>
     <g id="text_14">
      <!-- 30 -->
      <g transform="translate(20.878125 81.466477)scale(0.08 -0.08)">
       <defs>
        <path id="DejaVuSans-33" d="M 2597 2516 
Q 3050 2419 3304 2112 
Q 3559 1806 3559 1356 
Q 3559 666 3084 287 
Q 2609 -91 1734 -91 
Q 1441 -91 1130 -33 
Q 819 25 488 141 
L 488 750 
Q 750 597 1062 519 
Q 1375 441 1716 441 
Q 2309 441 2620 675 
Q 2931 909 2931 1356 
Q 2931 1769 2642 2001 
Q 2353 2234 1838 2234 
L 1294 2234 
L 1294 2753 
L 1863 2753 
Q 2328 2753 2575 2939 
Q 2822 3125 2822 3475 
Q 2822 3834 2567 4026 
Q 2313 4219 1838 4219 
Q 1578 4219 1281 4162 
Q 984 4106 628 3988 
L 628 4550 
Q 988 4650 1302 4700 
Q 1616 4750 1894 4750 
Q 2613 4750 3031 4423 
Q 3450 4097 3450 3541 
Q 3450 3153 3228 2886 
Q 3006 2619 2597 2516 
z
" transform="scale(0.015625)"/>
       </defs>
       <use xlink:href="#DejaVuSans-33"/>
       <use xlink:href="#DejaVuSans-30" x="63.623047"/>
      </g>
     </g>
    </g>
    <g id="ytick_8">
     <g id="line2d_8">
      <path d="M 38.058125 45.833275 
L 993.118125 45.833275 
" clip-path="url(#pa6f411925c)" style="fill: none; stroke: #dedede; stroke-linecap: square"/>
     </g>
     <g id="text_15">
      <!-- 35 -->
      <g transform="translate(20.878125 48.87265)scale(0.08 -0.08)">
       <use xlink:href="#DejaVuSans-33"/>
       <use xlink:href="#DejaVuSans-35" x="63.623047"/>
      </g>
     </g>
    </g>
    <g id="text_16">
     <!-- Phred Score -->
     <g transform="translate(14.798438 182.70521)rotate(-90)scale(0.1 -0.1)">
      <defs>
       <path id="DejaVuSans-68" d="M 3513 2113 
L 3513 0 
L 2938 0 
L 2938 2094 
Q 2938 2591 2744 2837 
Q 2550 3084 2163 3084 
Q 1697 3084 1428 2787 
Q 1159 2491 1159 1978 
L 1159 0 
L 581 0 
L 581 4863 
L 1159 4863 
L 1159 2956 
Q 1366 3272 1645 3428 
Q 1925 3584 2291 3584 
Q 2894 3584 3203 3211 
Q 3513 2838 3513 2113 
z
" transform="scale(0.015625)"/>
       <path id="DejaVuSans-72" d="M 2631 2963 
Q 2534 3019 2420 3045 
Q 2306 3072 2169 3072 
Q 1681 3072 1420 2755 
Q 1159 2438 1159 1844 
L 1159 0 
L 581 0 
L 581 3500 
L 1159 3500 
L 1159 2956 
Q 1341 3275 1631 3429 
Q 1922 3584 2338 3584 
Q 2397 3584 2469 3576 
Q 2541 3569 2628 3553 
L 2631 2963 
z
" transform="scale(0.015625)"/>
       <path id="DejaVuSans-65" d="M 3597 1894 
L 3597 1613 
L 953 1613 
Q 991 1019 1311 708 
Q 1631 397 2203 397 
Q 2534 397 2845 478 
Q 3156 559 3463 722 
L 3463 178 
Q 3153 47 2828 -22 
Q 2503 -91 2169 -91 
Q 1331 -91 842 396 
Q 353 884 353 1716 
Q 353 2575 817 3079 
Q 1281 3584 2069 3584 
Q 2775 3584 3186 3129 
Q 3597 2675 3597 1894 
z
M 3022 2063 
Q 3016 2534 2758 2815 
Q 2500 3097 2075 3097 
Q 1594 3097 1305 2825 
Q 1016 2553 972 2059 
L 3022 2063 
z
" transform="scale(0.015625)"/>
       <path id="DejaVuSans-64" d="M 2906 2969 
L 2906 4863 
L 3481 4863 
L 3481 0 
L 2906 0 
L 2906 525 
Q 2725 213 2448 61 
Q 2172 -91 1784 -91 
Q 1150 -91 751 415 
Q 353 922 353 1747 
Q 353 2572 751 3078 
Q 1150 3584 1784 3584 
Q 2172 3584 2448 3432 
Q 2725 3281 2906 2969 
z
M 947 1747 
Q 947 1113 1208 752 
Q 1469 391 1925 391 
Q 2381 391 2643 752 
Q 2906 1113 2906 1747 
Q 2906 2381 2643 2742 
Q 2381 3103 1925 3103 
Q 1469 3103 1208 2742 
Q 947 2381 947 1747 
z
" transform="scale(0.015625)"/>
       <path id="DejaVuSans-53" d="M 3425 4513 
L 3425 3897 
Q 3066 4069 2747 4153 
Q 2428 4238 2131 4238 
Q 1616 4238 1336 4038 
Q 1056 3838 1056 3469 
Q 1056 3159 1242 3001 
Q 1428 2844 1947 2747 
L 2328 2669 
Q 3034 2534 3370 2195 
Q 3706 1856 3706 1288 
Q 3706 609 3251 259 
Q 2797 -91 1919 -91 
Q 1588 -91 1214 -16 
Q 841 59 441 206 
L 441 856 
Q 825 641 1194 531 
Q 1563 422 1919 422 
Q 2459 422 2753 634 
Q 3047 847 3047 1241 
Q 3047 1584 2836 1778 
Q 2625 1972 2144 2069 
L 1759 2144 
Q 1053 2284 737 2584 
Q 422 2884 422 3419 
Q 422 4038 858 4394 
Q 1294 4750 2059 4750 
Q 2388 4750 2728 4690 
Q 3069 4631 3425 4513 
z
" transform="scale(0.015625)"/>
       <path id="DejaVuSans-63" d="M 3122 3366 
L 3122 2828 
Q 2878 2963 2633 3030 
Q 2388 3097 2138 3097 
Q 1578 3097 1268 2742 
Q 959 2388 959 1747 
Q 959 1106 1268 751 
Q 1578 397 2138 397 
Q 2388 397 2633 464 
Q 2878 531 3122 666 
L 3122 134 
Q 2881 22 2623 -34 
Q 2366 -91 2075 -91 
Q 1284 -91 818 406 
Q 353 903 353 1747 
Q 353 2603 823 3093 
Q 1294 3584 2113 3584 
Q 2378 3584 2631 3529 
Q 2884 3475 3122 3366 
z
" transform="scale(0.015625)"/>
      </defs>
      <use xlink:href="#DejaVuSans-50"/>
      <use xlink:href="#DejaVuSans-68" x="60.302734"/>
      <use xlink:href="#DejaVuSans-72" x="123.681641"/>
      <use xlink:href="#DejaVuSans-65" x="162.544922"/>
      <use xlink:href="#DejaVuSans-64" x="224.068359"/>
      <use xlink:href="#DejaVuSans-20" x="287.544922"/>
      <use xlink:href="#DejaVuSans-53" x="319.332031"/>
      <use xlink:href="#DejaVuSans-63" x="382.808594"/>
      <use xlink:href="#DejaVuSans-6f" x="437.789062"/>
      <use xlink:href="#DejaVuSans-72" x="498.970703"/>
      <use xlink:href="#DejaVuSans-65" x="537.833984"/>
     </g>
    </g>
   </g>
   <g id="line2d_9">
    <path d="M 81.469943 76.013708 
L 90.240007 75.765865 
L 99.010072 85.513281 
L 107.780136 55.881345 
L 116.5502 53.432659 
L 125.320265 52.605184 
L 134.090329 52.46257 
L 142.860393 52.151833 
L 151.630457 44.152643 
L 160.400522 43.88253 
L 177.94065 44.817831 
L 195.480779 39.163809 
L 213.020907 39.622929 
L 230.561036 39.585565 
L 248.101164 40.248645 
L 265.641293 40.571766 
L 283.181422 41.289332 
L 300.72155 44.099699 
L 318.261679 45.045205 
L 335.801807 46.122251 
L 353.341936 47.870856 
L 370.882064 50.662391 
L 388.422193 52.123474 
L 405.962322 53.306654 
L 423.50245 54.20902 
L 441.042579 54.373854 
L 458.582707 55.492764 
L 476.122836 56.942795 
L 493.662964 58.18796 
L 511.203093 59.434986 
L 528.743221 61.118971 
L 546.28335 62.703397 
L 563.823479 62.562232 
L 581.363607 63.156786 
L 598.903736 63.195362 
L 616.443864 63.273526 
L 633.983993 64.202637 
L 651.524121 65.764828 
L 669.06425 67.393718 
L 686.604378 68.511299 
L 704.144507 67.09033 
L 721.684636 68.305103 
L 739.224764 73.640891 
L 756.764893 69.755619 
L 774.305021 69.291003 
L 791.84515 70.3852 
L 809.385278 71.580884 
L 826.925407 71.828379 
L 844.465535 72.293222 
L 862.005664 74.025299 
L 879.545793 72.732063 
L 897.085921 72.025045 
L 914.62605 71.079583 
L 932.166178 69.364557 
L 949.706307 67.146887 
" clip-path="url(#pa6f411925c)" style="fill: none; stroke: #5cb85c; stroke-linecap: square"/>
   </g>
   <g id="line2d_10">
    <path d="M 81.469943 73.82719 
L 90.240007 76.045294 
L 99.010072 90.657632 
L 107.780136 56.900259 
L 116.5502 52.334697 
L 125.320265 50.329589 
L 134.090329 49.342061 
L 142.860393 49.107321 
L 151.630457 39.842615 
L 160.400522 39.71137 
L 177.94065 40.638985 
L 195.480779 34.326362 
L 213.020907 35.182124 
L 230.561036 35.292993 
L 248.101164 35.303249 
L 265.641293 35.962344 
L 283.181422 37.257684 
L 300.72155 60.223374 
L 318.261679 58.962548 
L 335.801807 45.198733 
L 353.341936 43.866288 
L 370.882064 45.014628 
L 388.422193 46.406203 
L 405.962322 48.137566 
L 423.50245 49.370552 
L 441.042579 50.309702 
L 458.582707 51.29416 
L 476.122836 53.026289 
L 493.662964 54.611506 
L 511.203093 56.294153 
L 528.743221 58.292036 
L 546.28335 60.111409 
L 563.823479 59.231322 
L 581.363607 59.606424 
L 598.903736 59.199902 
L 616.443864 59.465973 
L 633.983993 60.332718 
L 651.524121 61.586621 
L 669.06425 63.650797 
L 686.604378 64.774705 
L 704.144507 63.590134 
L 721.684636 64.425479 
L 739.224764 69.06073 
L 756.764893 66.202379 
L 774.305021 66.241621 
L 791.84515 67.492588 
L 809.385278 68.732398 
L 826.925407 68.945203 
L 844.465535 69.282086 
L 862.005664 70.478116 
L 879.545793 69.692983 
L 897.085921 69.06583 
L 914.62605 68.84197 
L 932.166178 66.838624 
L 949.706307 64.998944 
" clip-path="url(#pa6f411925c)" style="fill: none; stroke: #5cb85c; stroke-linecap: square"/>
   </g>
   <g id="line2d_11">
    <path d="M 81.469943 75.526397 
L 90.240007 78.404376 
L 99.010072 90.651059 
L 107.780136 61.947072 
L 116.5502 55.231664 
L 125.320265 52.940848 
L 134.090329 54.042216 
L 142.860393 52.971092 
L 151.630457 43.364005 
L 160.400522 43.005349 
L 177.94065 43.647215 
L 195.480779 38.120933 
L 213.020907 39.133649 
L 230.561036 38.926227 
L 248.101164 38.863344 
L 265.641293 39.841718 
L 283.181422 40.197913 
L 300.72155 42.264904 
L 318.261679 43.928515 
L 335.801807 44.820218 
L 353.341936 47.643263 
L 370.882064 49.243049 
L 388.422193 50.810018 
L 405.962322 52.530393 
L 423.50245 53.468673 
L 441.042579 54.147024 
L 458.582707 54.82339 
L 476.122836 56.854454 
L 493.662964 58.261038 
L 511.203093 60.155825 
L 528.743221 61.979727 
L 546.28335 63.66904 
L 563.823479 62.841815 
L 581.363607 63.371743 
L 598.903736 64.619548 
L 616.443864 63.379138 
L 633.983993 63.311834 
L 651.524121 64.383658 
L 669.06425 66.361231 
L 686.604378 67.331996 
L 704.144507 66.45115 
L 721.684636 66.814724 
L 739.224764 71.563078 
L 756.764893 68.497103 
L 774.305021 68.396075 
L 791.84515 69.367451 
L 809.385278 70.227564 
L 826.925407 70.809977 
L 844.465535 71.187285 
L 862.005664 71.816544 
L 879.545793 71.613413 
L 897.085921 71.143568 
L 914.62605 70.324457 
L 932.166178 68.484162 
L 949.706307 66.618618 
" clip-path="url(#pa6f411925c)" style="fill: none; stroke: #5cb85c; stroke-linecap: square"/>
   </g>
   <g id="line2d_12">
    <path d="M 81.469943 76.425981 
L 90.240007 76.303111 
L 99.010072 86.023399 
L 107.780136 56.447026 
L 116.5502 54.058242 
L 125.320265 53.275723 
L 134.090329 53.125758 
L 142.860393 52.860736 
L 151.630457 44.985562 
L 160.400522 44.750269 
L 177.94065 45.68068 
L 195.480779 40.109248 
L 213.020907 40.491902 
L 230.561036 40.467431 
L 248.101164 41.089073 
L 265.641293 41.443873 
L 283.181422 42.123014 
L 300.72155 45.011425 
L 318.261679 45.998744 
L 335.801807 47.077761 
L 353.341936 48.826697 
L 370.882064 51.504371 
L 388.422193 52.970668 
L 405.962322 54.147795 
L 423.50245 55.061787 
L 441.042579 55.243074 
L 458.582707 56.322162 
L 476.122836 57.749015 
L 493.662964 58.964623 
L 511.203093 60.253413 
L 528.743221 61.983453 
L 546.28335 63.549696 
L 563.823479 63.326534 
L 581.363607 63.944121 
L 598.903736 63.95744 
L 616.443864 64.056971 
L 633.983993 64.982096 
L 651.524121 66.511772 
L 669.06425 68.069501 
L 686.604378 69.194403 
L 704.144507 67.831341 
L 721.684636 69.058673 
L 739.224764 74.345447 
L 756.764893 70.429669 
L 774.305021 69.923001 
L 791.84515 71.018278 
L 809.385278 72.165212 
L 826.925407 72.392698 
L 844.465535 72.829233 
L 862.005664 74.47413 
L 879.545793 73.196339 
L 897.085921 72.461129 
L 914.62605 71.476051 
L 932.166178 69.663411 
L 949.706307 67.339529 
" clip-path="url(#pa6f411925c)" style="fill: none; stroke: #5cb85c; stroke-linecap: square"/>
   </g>
   <g id="line2d_13">
    <path d="M 81.469943 74.313498 
L 90.240007 76.622514 
L 99.010072 91.196412 
L 107.780136 57.529572 
L 116.5502 52.993416 
L 125.320265 50.989664 
L 134.090329 49.971624 
L 142.860393 49.749787 
L 151.630457 40.59748 
L 160.400522 40.452763 
L 177.94065 41.406091 
L 195.480779 35.223766 
L 213.020907 36.066368 
L 230.561036 36.174647 
L 248.101164 36.195383 
L 265.641293 36.869212 
L 283.181422 38.170634 
L 300.72155 60.900098 
L 318.261679 59.692351 
L 335.801807 46.188122 
L 353.341936 44.92902 
L 370.882064 46.084 
L 388.422193 47.476477 
L 405.962322 49.20929 
L 423.50245 50.41882 
L 441.042579 51.369043 
L 458.582707 52.361115 
L 476.122836 54.116378 
L 493.662964 55.689655 
L 511.203093 57.350628 
L 528.743221 59.324734 
L 546.28335 61.144237 
L 563.823479 60.262243 
L 581.363607 60.631597 
L 598.903736 60.198237 
L 616.443864 60.422739 
L 633.983993 61.243225 
L 651.524121 62.45172 
L 669.06425 64.486447 
L 686.604378 65.594753 
L 704.144507 64.425565 
L 721.684636 65.238223 
L 739.224764 69.845002 
L 756.764893 66.957248 
L 774.305021 66.949584 
L 791.84515 68.177665 
L 809.385278 69.405388 
L 826.925407 69.607355 
L 844.465535 69.944938 
L 862.005664 71.089781 
L 879.545793 70.282512 
L 897.085921 69.62547 
L 914.62605 69.35757 
L 932.166178 67.294235 
L 949.706307 65.36276 
" clip-path="url(#pa6f411925c)" style="fill: none; stroke: #5cb85c; stroke-linecap: square"/>
   </g>
   <g id="line2d_14">
    <path d="M 81.469943 75.311369 
L 90.240007 78.148886 
L 99.010072 90.387912 
L 107.780136 61.602053 
L 116.5502 54.906443 
L 125.320265 52.637772 
L 134.090329 53.784959 
L 142.860393 52.719654 
L 151.630457 43.041674 
L 160.400522 42.699255 
L 177.94065 43.33244 
L 195.480779 37.751077 
L 213.020907 38.773044 
L 230.561036 38.584541 
L 248.101164 38.502174 
L 265.641293 39.496681 
L 283.181422 39.834214 
L 300.72155 41.876635 
L 318.261679 43.516276 
L 335.801807 44.396165 
L 353.341936 47.232237 
L 370.882064 48.840513 
L 388.422193 50.412716 
L 405.962322 52.160963 
L 423.50245 53.088022 
L 441.042579 53.773912 
L 458.582707 54.420458 
L 476.122836 56.442298 
L 493.662964 57.832011 
L 511.203093 59.730658 
L 528.743221 61.570403 
L 546.28335 63.234432 
L 563.823479 62.390482 
L 581.363607 62.918161 
L 598.903736 64.189117 
L 616.443864 62.969931 
L 633.983993 62.922377 
L 651.524121 63.994296 
L 669.06425 65.979653 
L 686.604378 66.981265 
L 704.144507 66.12511 
L 721.684636 66.495109 
L 739.224764 71.247513 
L 756.764893 68.212598 
L 774.305021 68.133885 
L 791.84515 69.110945 
L 809.385278 69.983802 
L 826.925407 70.55417 
L 844.465535 70.937787 
L 862.005664 71.576522 
L 879.545793 71.398214 
L 897.085921 70.933002 
L 914.62605 70.122428 
L 932.166178 68.304073 
L 949.706307 66.485162 
" clip-path="url(#pa6f411925c)" style="fill: none; stroke: #5cb85c; stroke-linecap: square"/>
   </g>
   <g id="line2d_15">
    <path d="M 81.469943 76.510907 
L 90.240007 76.353647 
L 99.010072 86.15717 
L 107.780136 56.543001 
L 116.5502 54.064859 
L 125.320265 53.254787 
L 134.090329 53.059168 
L 142.860393 52.739101 
L 151.630457 44.902975 
L 160.400522 44.608128 
L 177.94065 45.540829 
L 195.480779 40.010846 
L 213.020907 40.477305 
L 230.561036 40.463602 
L 248.101164 41.165459 
L 265.641293 41.457882 
L 283.181422 42.161987 
L 300.72155 45.042828 
L 318.261679 46.021706 
L 335.801807 47.115263 
L 353.341936 48.879732 
L 370.882064 51.754043 
L 388.422193 53.233656 
L 405.962322 54.42944 
L 423.50245 55.38638 
L 441.042579 55.499616 
L 458.582707 56.592048 
L 476.122836 57.976542 
L 493.662964 59.159651 
L 511.203093 60.372461 
L 528.743221 62.053533 
L 546.28335 63.64575 
L 563.823479 63.418215 
L 581.363607 64.017979 
L 598.903736 64.03617 
L 616.443864 64.12733 
L 633.983993 65.059905 
L 651.524121 66.562972 
L 669.06425 68.154083 
L 686.604378 69.304602 
L 704.144507 67.871551 
L 721.684636 69.124754 
L 739.224764 74.388611 
L 756.764893 70.438105 
L 774.305021 69.936827 
L 791.84515 71.037329 
L 809.385278 72.259434 
L 826.925407 72.458867 
L 844.465535 72.904072 
L 862.005664 74.685546 
L 879.545793 73.32004 
L 897.085921 72.590917 
L 914.62605 71.595964 
L 932.166178 69.781907 
L 949.706307 67.488836 
" clip-path="url(#pa6f411925c)" style="fill: none; stroke: #5cb85c; stroke-linecap: square"/>
   </g>
   <g id="line2d_16">
    <path d="M 81.469943 74.046396 
L 90.240007 76.322512 
L 99.010072 90.900486 
L 107.780136 57.175951 
L 116.5502 52.628972 
L 125.320265 50.632091 
L 134.090329 49.642601 
L 142.860393 49.416619 
L 151.630457 40.212362 
L 160.400522 40.060718 
L 177.94065 41.008541 
L 195.480779 34.758541 
L 213.020907 35.60038 
L 230.561036 35.711587 
L 248.101164 35.733503 
L 265.641293 36.402471 
L 283.181422 37.689518 
L 300.72155 60.500835 
L 318.261679 59.267347 
L 335.801807 45.655907 
L 353.341936 44.372904 
L 370.882064 45.541768 
L 388.422193 46.929819 
L 405.962322 48.673317 
L 423.50245 49.90322 
L 441.042579 50.834728 
L 458.582707 51.81205 
L 476.122836 53.544052 
L 493.662964 55.104119 
L 511.203093 56.764623 
L 528.743221 58.732365 
L 546.28335 60.546329 
L 563.823479 59.67704 
L 581.363607 60.071612 
L 598.903736 59.666344 
L 616.443864 59.93057 
L 633.983993 60.776285 
L 651.524121 62.017353 
L 669.06425 64.066749 
L 686.604378 65.186946 
L 704.144507 64.008908 
L 721.684636 64.838135 
L 739.224764 69.473505 
L 756.764893 66.586258 
L 774.305021 66.59743 
L 791.84515 67.828395 
L 809.385278 69.068336 
L 826.925407 69.289654 
L 844.465535 69.627905 
L 862.005664 70.79748 
L 879.545793 69.999044 
L 897.085921 69.36035 
L 914.62605 69.110306 
L 932.166178 67.073449 
L 949.706307 65.195188 
" clip-path="url(#pa6f411925c)" style="fill: none; stroke: #5cb85c; stroke-linecap: square"/>
   </g>
   <g id="line2d_17">
    <path d="M 81.469943 75.383279 
L 90.240007 78.090662 
L 99.010072 90.450534 
L 107.780136 61.330962 
L 116.5502 54.859597 
L 125.320265 52.66012 
L 134.090329 53.641904 
L 142.860393 52.651187 
L 151.630457 43.089813 
L 160.400522 42.769778 
L 177.94065 43.411081 
L 195.480779 37.900997 
L 213.020907 38.870794 
L 230.561036 38.662762 
L 248.101164 38.672406 
L 265.641293 39.692942 
L 283.181422 40.025607 
L 300.72155 42.096863 
L 318.261679 43.762318 
L 335.801807 44.675306 
L 353.341936 47.442016 
L 370.882064 49.207678 
L 388.422193 50.834788 
L 405.962322 52.620941 
L 423.50245 53.560769 
L 441.042579 54.242621 
L 458.582707 54.902047 
L 476.122836 56.895293 
L 493.662964 58.254845 
L 511.203093 60.108513 
L 528.743221 61.952378 
L 546.28335 63.659151 
L 563.823479 62.874924 
L 581.363607 63.463832 
L 598.903736 64.566958 
L 616.443864 63.47532 
L 633.983993 63.468563 
L 651.524121 64.584818 
L 669.06425 66.578259 
L 686.604378 67.569255 
L 704.144507 66.648189 
L 721.684636 66.959699 
L 739.224764 71.700852 
L 756.764893 68.619141 
L 774.305021 68.541064 
L 791.84515 69.514402 
L 809.385278 70.381104 
L 826.925407 70.94854 
L 844.465535 71.345639 
L 862.005664 72.007366 
L 879.545793 71.801586 
L 897.085921 71.335438 
L 914.62605 70.505693 
L 932.166178 68.653382 
L 949.706307 66.797323 
" clip-path="url(#pa6f411925c)" style="fill: none; stroke: #5cb85c; stroke-linecap: square"/>
   </g>
   <g id="line2d_18">
    <path d="M 81.469943 76.492401 
L 90.240007 76.383873 
L 99.010072 86.072813 
L 107.780136 56.552771 
L 116.5502 54.166631 
L 125.320265 53.398719 
L 134.090329 53.273158 
L 142.860393 52.996596 
L 151.630457 45.128248 
L 160.400522 44.891107 
L 177.94065 45.822713 
L 195.480779 40.265429 
L 213.020907 40.652389 
L 230.561036 40.638054 
L 248.101164 41.276713 
L 265.641293 41.640525 
L 283.181422 42.342894 
L 300.72155 45.26202 
L 318.261679 46.271696 
L 335.801807 47.353336 
L 353.341936 49.09078 
L 370.882064 51.770043 
L 388.422193 53.258437 
L 405.962322 54.436125 
L 423.50245 55.374668 
L 441.042579 55.558665 
L 458.582707 56.670919 
L 476.122836 58.137316 
L 493.662964 59.377584 
L 511.203093 60.670687 
L 528.743221 62.442645 
L 546.28335 64.021814 
L 563.823479 63.841464 
L 581.363607 64.471715 
L 598.903736 64.502772 
L 616.443864 64.609879 
L 633.983993 65.530574 
L 651.524121 67.063184 
L 669.06425 68.640075 
L 686.604378 69.750752 
L 704.144507 68.349293 
L 721.684636 69.529222 
L 739.224764 74.791102 
L 756.764893 70.854481 
L 774.305021 70.315824 
L 791.84515 71.392285 
L 809.385278 72.512215 
L 826.925407 72.714986 
L 844.465535 73.12805 
L 862.005664 74.774645 
L 879.545793 73.482864 
L 897.085921 72.736003 
L 914.62605 71.726153 
L 932.166178 69.881758 
L 949.706307 67.51519 
" clip-path="url(#pa6f411925c)" style="fill: none; stroke: #5cb85c; stroke-linecap: square"/>
   </g>
   <g id="line2d_19">
    <path d="M 81.469943 74.109762 
L 90.240007 76.403872 
L 99.010072 90.850958 
L 107.780136 57.257209 
L 116.5502 52.756306 
L 125.320265 50.751641 
L 134.090329 49.730684 
L 142.860393 49.517706 
L 151.630457 40.314333 
L 160.400522 40.167262 
L 177.94065 41.121879 
L 195.480779 34.901336 
L 213.020907 35.744946 
L 230.561036 35.849759 
L 248.101164 35.855609 
L 265.641293 36.53078 
L 283.181422 37.831721 
L 300.72155 60.5432 
L 318.261679 59.319113 
L 335.801807 45.798496 
L 353.341936 44.525426 
L 370.882064 45.694905 
L 388.422193 47.073518 
L 405.962322 48.795521 
L 423.50245 49.986274 
L 441.042579 50.905981 
L 458.582707 51.914795 
L 476.122836 53.705324 
L 493.662964 55.289481 
L 511.203093 56.954578 
L 528.743221 58.911834 
L 546.28335 60.731459 
L 563.823479 59.872529 
L 581.363607 60.242597 
L 598.903736 59.796319 
L 616.443864 59.981452 
L 633.983993 60.794733 
L 651.524121 62.027603 
L 669.06425 64.074667 
L 686.604378 65.171871 
L 704.144507 63.987412 
L 721.684636 64.805368 
L 739.224764 69.454839 
L 756.764893 66.590324 
L 774.305021 66.599248 
L 791.84515 67.828699 
L 809.385278 69.046111 
L 826.925407 69.273458 
L 844.465535 69.614052 
L 862.005664 70.780315 
L 879.545793 69.983792 
L 897.085921 69.337431 
L 914.62605 69.079032 
L 932.166178 67.054426 
L 949.706307 65.169338 
" clip-path="url(#pa6f411925c)" style="fill: none; stroke: #5cb85c; stroke-linecap: square"/>
   </g>
   <g id="line2d_20">
    <path d="M 81.469943 75.324225 
L 90.240007 78.211716 
L 99.010072 90.404923 
L 107.780136 61.65004 
L 116.5502 54.935178 
L 125.320265 52.675077 
L 134.090329 53.836205 
L 142.860393 52.761678 
L 151.630457 43.080328 
L 160.400522 42.733822 
L 177.94065 43.369158 
L 195.480779 37.802565 
L 213.020907 38.830339 
L 230.561036 38.637695 
L 248.101164 38.563444 
L 265.641293 39.570427 
L 283.181422 39.91885 
L 300.72155 41.960616 
L 318.261679 43.613842 
L 335.801807 44.490175 
L 353.341936 47.327372 
L 370.882064 48.938508 
L 388.422193 50.530386 
L 405.962322 52.284162 
L 423.50245 53.21505 
L 441.042579 53.90993 
L 458.582707 54.565336 
L 476.122836 56.579534 
L 493.662964 57.998243 
L 511.203093 59.893763 
L 528.743221 61.742909 
L 546.28335 63.419885 
L 563.823479 62.596404 
L 581.363607 63.138662 
L 598.903736 64.43539 
L 616.443864 63.226488 
L 633.983993 63.170047 
L 651.524121 64.259425 
L 669.06425 66.263489 
L 686.604378 67.262219 
L 704.144507 66.364213 
L 721.684636 66.72462 
L 739.224764 71.487329 
L 756.764893 68.419776 
L 774.305021 68.32075 
L 791.84515 69.288803 
L 809.385278 70.150163 
L 826.925407 70.717863 
L 844.465535 71.094617 
L 862.005664 71.736998 
L 879.545793 71.53541 
L 897.085921 71.078045 
L 914.62605 70.241257 
L 932.166178 68.416158 
L 949.706307 66.567534 
" clip-path="url(#pa6f411925c)" style="fill: none; stroke: #5cb85c; stroke-linecap: square"/>
   </g>
   <g id="line2d_21">
    <path d="M 38.058125 273.99006 
L 993.118125 273.99006 
" clip-path="url(#pa6f411925c)" style="fill: none; stroke: #dedede; stroke-width: 2; stroke-linecap: square"/>
   </g>
   <g id="text_17">
    <!-- FastQC: Mean Quality Scores -->
    <g transform="translate(400.349375 19.3575)scale(0.16 -0.16)">
     <defs>
      <path id="DejaVuSans-46" d="M 628 4666 
L 3309 4666 
L 3309 4134 
L 1259 4134 
L 1259 2759 
L 3109 2759 
L 3109 2228 
L 1259 2228 
L 1259 0 
L 628 0 
L 628 4666 
z
" transform="scale(0.015625)"/>
      <path id="DejaVuSans-61" d="M 2194 1759 
Q 1497 1759 1228 1600 
Q 959 1441 959 1056 
Q 959 750 1161 570 
Q 1363 391 1709 391 
Q 2188 391 2477 730 
Q 2766 1069 2766 1631 
L 2766 1759 
L 2194 1759 
z
M 3341 1997 
L 3341 0 
L 2766 0 
L 2766 531 
Q 2569 213 2275 61 
Q 1981 -91 1556 -91 
Q 1019 -91 701 211 
Q 384 513 384 1019 
Q 384 1609 779 1909 
Q 1175 2209 1959 2209 
L 2766 2209 
L 2766 2266 
Q 2766 2663 2505 2880 
Q 2244 3097 1772 3097 
Q 1472 3097 1187 3025 
Q 903 2953 641 2809 
L 641 3341 
Q 956 3463 1253 3523 
Q 1550 3584 1831 3584 
Q 2591 3584 2966 3190 
Q 3341 2797 3341 1997 
z
" transform="scale(0.015625)"/>
      <path id="DejaVuSans-51" d="M 2522 4238 
Q 1834 4238 1429 3725 
Q 1025 3213 1025 2328 
Q 1025 1447 1429 934 
Q 1834 422 2522 422 
Q 3209 422 3611 934 
Q 4013 1447 4013 2328 
Q 4013 3213 3611 3725 
Q 3209 4238 2522 4238 
z
M 3406 84 
L 4238 -825 
L 3475 -825 
L 2784 -78 
Q 2681 -84 2626 -87 
Q 2572 -91 2522 -91 
Q 1538 -91 948 567 
Q 359 1225 359 2328 
Q 359 3434 948 4092 
Q 1538 4750 2522 4750 
Q 3503 4750 4090 4092 
Q 4678 3434 4678 2328 
Q 4678 1516 4351 937 
Q 4025 359 3406 84 
z
" transform="scale(0.015625)"/>
      <path id="DejaVuSans-43" d="M 4122 4306 
L 4122 3641 
Q 3803 3938 3442 4084 
Q 3081 4231 2675 4231 
Q 1875 4231 1450 3742 
Q 1025 3253 1025 2328 
Q 1025 1406 1450 917 
Q 1875 428 2675 428 
Q 3081 428 3442 575 
Q 3803 722 4122 1019 
L 4122 359 
Q 3791 134 3420 21 
Q 3050 -91 2638 -91 
Q 1578 -91 968 557 
Q 359 1206 359 2328 
Q 359 3453 968 4101 
Q 1578 4750 2638 4750 
Q 3056 4750 3426 4639 
Q 3797 4528 4122 4306 
z
" transform="scale(0.015625)"/>
      <path id="DejaVuSans-3a" d="M 750 794 
L 1409 794 
L 1409 0 
L 750 0 
L 750 794 
z
M 750 3309 
L 1409 3309 
L 1409 2516 
L 750 2516 
L 750 3309 
z
" transform="scale(0.015625)"/>
      <path id="DejaVuSans-4d" d="M 628 4666 
L 1569 4666 
L 2759 1491 
L 3956 4666 
L 4897 4666 
L 4897 0 
L 4281 0 
L 4281 4097 
L 3078 897 
L 2444 897 
L 1241 4097 
L 1241 0 
L 628 0 
L 628 4666 
z
" transform="scale(0.015625)"/>
      <path id="DejaVuSans-75" d="M 544 1381 
L 544 3500 
L 1119 3500 
L 1119 1403 
Q 1119 906 1312 657 
Q 1506 409 1894 409 
Q 2359 409 2629 706 
Q 2900 1003 2900 1516 
L 2900 3500 
L 3475 3500 
L 3475 0 
L 2900 0 
L 2900 538 
Q 2691 219 2414 64 
Q 2138 -91 1772 -91 
Q 1169 -91 856 284 
Q 544 659 544 1381 
z
M 1991 3584 
L 1991 3584 
z
" transform="scale(0.015625)"/>
      <path id="DejaVuSans-6c" d="M 603 4863 
L 1178 4863 
L 1178 0 
L 603 0 
L 603 4863 
z
" transform="scale(0.015625)"/>
      <path id="DejaVuSans-79" d="M 2059 -325 
Q 1816 -950 1584 -1140 
Q 1353 -1331 966 -1331 
L 506 -1331 
L 506 -850 
L 844 -850 
Q 1081 -850 1212 -737 
Q 1344 -625 1503 -206 
L 1606 56 
L 191 3500 
L 800 3500 
L 1894 763 
L 2988 3500 
L 3597 3500 
L 2059 -325 
z
" transform="scale(0.015625)"/>
     </defs>
     <use xlink:href="#DejaVuSans-46"/>
     <use xlink:href="#DejaVuSans-61" x="48.394531"/>
     <use xlink:href="#DejaVuSans-73" x="109.673828"/>
     <use xlink:href="#DejaVuSans-74" x="161.773438"/>
     <use xlink:href="#DejaVuSans-51" x="200.982422"/>
     <use xlink:href="#DejaVuSans-43" x="279.693359"/>
     <use xlink:href="#DejaVuSans-3a" x="349.517578"/>
     <use xlink:href="#DejaVuSans-20" x="383.208984"/>
     <use xlink:href="#DejaVuSans-4d" x="414.996094"/>
     <use xlink:href="#DejaVuSans-65" x="501.275391"/>
     <use xlink:href="#DejaVuSans-61" x="562.798828"/>
     <use xlink:href="#DejaVuSans-6e" x="624.078125"/>
     <use xlink:href="#DejaVuSans-20" x="687.457031"/>
     <use xlink:href="#DejaVuSans-51" x="719.244141"/>
     <use xlink:href="#DejaVuSans-75" x="797.955078"/>
     <use xlink:href="#DejaVuSans-61" x="861.333984"/>
     <use xlink:href="#DejaVuSans-6c" x="922.613281"/>
     <use xlink:href="#DejaVuSans-69" x="950.396484"/>
     <use xlink:href="#DejaVuSans-74" x="978.179688"/>
     <use xlink:href="#DejaVuSans-79" x="1017.388672"/>
     <use xlink:href="#DejaVuSans-20" x="1076.568359"/>
     <use xlink:href="#DejaVuSans-53" x="1108.355469"/>
     <use xlink:href="#DejaVuSans-63" x="1171.832031"/>
     <use xlink:href="#DejaVuSans-6f" x="1226.8125"/>
     <use xlink:href="#DejaVuSans-72" x="1287.994141"/>
     <use xlink:href="#DejaVuSans-65" x="1326.857422"/>
     <use xlink:href="#DejaVuSans-73" x="1388.380859"/>
    </g>
   </g>
   <g id="legend_1">
    <g id="line2d_22">
     <path d="M 45.258125 292.192894 
L 53.258125 292.192894 
L 61.258125 292.192894 
" style="fill: none; stroke: #5cb85c; stroke-linecap: square"/>
    </g>
    <g id="text_18">
     <!-- SRR2155413 -->
     <g transform="translate(67.658125 294.992894)scale(0.08 -0.08)">
      <defs>
       <path id="DejaVuSans-52" d="M 2841 2188 
Q 3044 2119 3236 1894 
Q 3428 1669 3622 1275 
L 4263 0 
L 3584 0 
L 2988 1197 
Q 2756 1666 2539 1819 
Q 2322 1972 1947 1972 
L 1259 1972 
L 1259 0 
L 628 0 
L 628 4666 
L 2053 4666 
Q 2853 4666 3247 4331 
Q 3641 3997 3641 3322 
Q 3641 2881 3436 2590 
Q 3231 2300 2841 2188 
z
M 1259 4147 
L 1259 2491 
L 2053 2491 
Q 2509 2491 2742 2702 
Q 2975 2913 2975 3322 
Q 2975 3731 2742 3939 
Q 2509 4147 2053 4147 
L 1259 4147 
z
" transform="scale(0.015625)"/>
      </defs>
      <use xlink:href="#DejaVuSans-53"/>
      <use xlink:href="#DejaVuSans-52" x="63.476562"/>
      <use xlink:href="#DejaVuSans-52" x="132.958984"/>
      <use xlink:href="#DejaVuSans-32" x="202.441406"/>
      <use xlink:href="#DejaVuSans-31" x="266.064453"/>
      <use xlink:href="#DejaVuSans-35" x="329.6875"/>
      <use xlink:href="#DejaVuSans-35" x="393.310547"/>
      <use xlink:href="#DejaVuSans-34" x="456.933594"/>
      <use xlink:href="#DejaVuSans-31" x="520.556641"/>
      <use xlink:href="#DejaVuSans-33" x="584.179688"/>
     </g>
    </g>
    <g id="line2d_23">
     <path d="M 45.258125 303.935394 
L 53.258125 303.935394 
L 61.258125 303.935394 
" style="fill: none; stroke: #5cb85c; stroke-linecap: square"/>
    </g>
    <g id="text_19">
     <!-- SRR2155414 -->
     <g transform="translate(67.658125 306.735394)scale(0.08 -0.08)">
      <use xlink:href="#DejaVuSans-53"/>
      <use xlink:href="#DejaVuSans-52" x="63.476562"/>
      <use xlink:href="#DejaVuSans-52" x="132.958984"/>
      <use xlink:href="#DejaVuSans-32" x="202.441406"/>
      <use xlink:href="#DejaVuSans-31" x="266.064453"/>
      <use xlink:href="#DejaVuSans-35" x="329.6875"/>
      <use xlink:href="#DejaVuSans-35" x="393.310547"/>
      <use xlink:href="#DejaVuSans-34" x="456.933594"/>
      <use xlink:href="#DejaVuSans-31" x="520.556641"/>
      <use xlink:href="#DejaVuSans-34" x="584.179688"/>
     </g>
    </g>
    <g id="line2d_24">
     <path d="M 45.258125 315.677894 
L 53.258125 315.677894 
L 61.258125 315.677894 
" style="fill: none; stroke: #5cb85c; stroke-linecap: square"/>
    </g>
    <g id="text_20">
     <!-- SRR2155415 -->
     <g transform="translate(67.658125 318.477894)scale(0.08 -0.08)">
      <use xlink:href="#DejaVuSans-53"/>
      <use xlink:href="#DejaVuSans-52" x="63.476562"/>
      <use xlink:href="#DejaVuSans-52" x="132.958984"/>
      <use xlink:href="#DejaVuSans-32" x="202.441406"/>
      <use xlink:href="#DejaVuSans-31" x="266.064453"/>
      <use xlink:href="#DejaVuSans-35" x="329.6875"/>
      <use xlink:href="#DejaVuSans-35" x="393.310547"/>
      <use xlink:href="#DejaVuSans-34" x="456.933594"/>
      <use xlink:href="#DejaVuSans-31" x="520.556641"/>
      <use xlink:href="#DejaVuSans-35" x="584.179688"/>
     </g>
    </g>
    <g id="line2d_25">
     <path d="M 261.866563 292.192894 
L 269.866563 292.192894 
L 277.866563 292.192894 
" style="fill: none; stroke: #5cb85c; stroke-linecap: square"/>
    </g>
    <g id="text_21">
     <!-- SRR2155416 -->
     <g transform="translate(284.266563 294.992894)scale(0.08 -0.08)">
      <use xlink:href="#DejaVuSans-53"/>
      <use xlink:href="#DejaVuSans-52" x="63.476562"/>
      <use xlink:href="#DejaVuSans-52" x="132.958984"/>
      <use xlink:href="#DejaVuSans-32" x="202.441406"/>
      <use xlink:href="#DejaVuSans-31" x="266.064453"/>
      <use xlink:href="#DejaVuSans-35" x="329.6875"/>
      <use xlink:href="#DejaVuSans-35" x="393.310547"/>
      <use xlink:href="#DejaVuSans-34" x="456.933594"/>
      <use xlink:href="#DejaVuSans-31" x="520.556641"/>
      <use xlink:href="#DejaVuSans-36" x="584.179688"/>
     </g>
    </g>
    <g id="line2d_26">
     <path d="M 261.866563 303.935394 
L 269.866563 303.935394 
L 277.866563 303.935394 
" style="fill: none; stroke: #5cb85c; stroke-linecap: square"/>
    </g>
    <g id="text_22">
     <!-- SRR2155417 -->
     <g transform="translate(284.266563 306.735394)scale(0.08 -0.08)">
      <defs>
       <path id="DejaVuSans-37" d="M 525 4666 
L 3525 4666 
L 3525 4397 
L 1831 0 
L 1172 0 
L 2766 4134 
L 525 4134 
L 525 4666 
z
" transform="scale(0.015625)"/>
      </defs>
      <use xlink:href="#DejaVuSans-53"/>
      <use xlink:href="#DejaVuSans-52" x="63.476562"/>
      <use xlink:href="#DejaVuSans-52" x="132.958984"/>
      <use xlink:href="#DejaVuSans-32" x="202.441406"/>
      <use xlink:href="#DejaVuSans-31" x="266.064453"/>
      <use xlink:href="#DejaVuSans-35" x="329.6875"/>
      <use xlink:href="#DejaVuSans-35" x="393.310547"/>
      <use xlink:href="#DejaVuSans-34" x="456.933594"/>
      <use xlink:href="#DejaVuSans-31" x="520.556641"/>
      <use xlink:href="#DejaVuSans-37" x="584.179688"/>
     </g>
    </g>
    <g id="line2d_27">
     <path d="M 261.866563 315.677894 
L 269.866563 315.677894 
L 277.866563 315.677894 
" style="fill: none; stroke: #5cb85c; stroke-linecap: square"/>
    </g>
    <g id="text_23">
     <!-- SRR2155418 -->
     <g transform="translate(284.266563 318.477894)scale(0.08 -0.08)">
      <use xlink:href="#DejaVuSans-53"/>
      <use xlink:href="#DejaVuSans-52" x="63.476562"/>
      <use xlink:href="#DejaVuSans-52" x="132.958984"/>
      <use xlink:href="#DejaVuSans-32" x="202.441406"/>
      <use xlink:href="#DejaVuSans-31" x="266.064453"/>
      <use xlink:href="#DejaVuSans-35" x="329.6875"/>
      <use xlink:href="#DejaVuSans-35" x="393.310547"/>
      <use xlink:href="#DejaVuSans-34" x="456.933594"/>
      <use xlink:href="#DejaVuSans-31" x="520.556641"/>
      <use xlink:href="#DejaVuSans-38" x="584.179688"/>
     </g>
    </g>
    <g id="line2d_28">
     <path d="M 478.475 292.192894 
L 486.475 292.192894 
L 494.475 292.192894 
" style="fill: none; stroke: #5cb85c; stroke-linecap: square"/>
    </g>
    <g id="text_24">
     <!-- SRR2155419 -->
     <g transform="translate(500.875 294.992894)scale(0.08 -0.08)">
      <defs>
       <path id="DejaVuSans-39" d="M 703 97 
L 703 672 
Q 941 559 1184 500 
Q 1428 441 1663 441 
Q 2288 441 2617 861 
Q 2947 1281 2994 2138 
Q 2813 1869 2534 1725 
Q 2256 1581 1919 1581 
Q 1219 1581 811 2004 
Q 403 2428 403 3163 
Q 403 3881 828 4315 
Q 1253 4750 1959 4750 
Q 2769 4750 3195 4129 
Q 3622 3509 3622 2328 
Q 3622 1225 3098 567 
Q 2575 -91 1691 -91 
Q 1453 -91 1209 -44 
Q 966 3 703 97 
z
M 1959 2075 
Q 2384 2075 2632 2365 
Q 2881 2656 2881 3163 
Q 2881 3666 2632 3958 
Q 2384 4250 1959 4250 
Q 1534 4250 1286 3958 
Q 1038 3666 1038 3163 
Q 1038 2656 1286 2365 
Q 1534 2075 1959 2075 
z
" transform="scale(0.015625)"/>
      </defs>
      <use xlink:href="#DejaVuSans-53"/>
      <use xlink:href="#DejaVuSans-52" x="63.476562"/>
      <use xlink:href="#DejaVuSans-52" x="132.958984"/>
      <use xlink:href="#DejaVuSans-32" x="202.441406"/>
      <use xlink:href="#DejaVuSans-31" x="266.064453"/>
      <use xlink:href="#DejaVuSans-35" x="329.6875"/>
      <use xlink:href="#DejaVuSans-35" x="393.310547"/>
      <use xlink:href="#DejaVuSans-34" x="456.933594"/>
      <use xlink:href="#DejaVuSans-31" x="520.556641"/>
      <use xlink:href="#DejaVuSans-39" x="584.179688"/>
     </g>
    </g>
    <g id="line2d_29">
     <path d="M 478.475 303.935394 
L 486.475 303.935394 
L 494.475 303.935394 
" style="fill: none; stroke: #5cb85c; stroke-linecap: square"/>
    </g>
    <g id="text_25">
     <!-- SRR2155420 -->
     <g transform="translate(500.875 306.735394)scale(0.08 -0.08)">
      <use xlink:href="#DejaVuSans-53"/>
      <use xlink:href="#DejaVuSans-52" x="63.476562"/>
      <use xlink:href="#DejaVuSans-52" x="132.958984"/>
      <use xlink:href="#DejaVuSans-32" x="202.441406"/>
      <use xlink:href="#DejaVuSans-31" x="266.064453"/>
      <use xlink:href="#DejaVuSans-35" x="329.6875"/>
      <use xlink:href="#DejaVuSans-35" x="393.310547"/>
      <use xlink:href="#DejaVuSans-34" x="456.933594"/>
      <use xlink:href="#DejaVuSans-32" x="520.556641"/>
      <use xlink:href="#DejaVuSans-30" x="584.179688"/>
     </g>
    </g>
    <g id="line2d_30">
     <path d="M 695.083438 292.192894 
L 703.083438 292.192894 
L 711.083438 292.192894 
" style="fill: none; stroke: #5cb85c; stroke-linecap: square"/>
    </g>
    <g id="text_26">
     <!-- SRR2155421 -->
     <g transform="translate(717.483438 294.992894)scale(0.08 -0.08)">
      <use xlink:href="#DejaVuSans-53"/>
      <use xlink:href="#DejaVuSans-52" x="63.476562"/>
      <use xlink:href="#DejaVuSans-52" x="132.958984"/>
      <use xlink:href="#DejaVuSans-32" x="202.441406"/>
      <use xlink:href="#DejaVuSans-31" x="266.064453"/>
      <use xlink:href="#DejaVuSans-35" x="329.6875"/>
      <use xlink:href="#DejaVuSans-35" x="393.310547"/>
      <use xlink:href="#DejaVuSans-34" x="456.933594"/>
      <use xlink:href="#DejaVuSans-32" x="520.556641"/>
      <use xlink:href="#DejaVuSans-31" x="584.179688"/>
     </g>
    </g>
    <g id="line2d_31">
     <path d="M 695.083438 303.935394 
L 703.083438 303.935394 
L 711.083438 303.935394 
" style="fill: none; stroke: #5cb85c; stroke-linecap: square"/>
    </g>
    <g id="text_27">
     <!-- SRR2155422 -->
     <g transform="translate(717.483438 306.735394)scale(0.08 -0.08)">
      <use xlink:href="#DejaVuSans-53"/>
      <use xlink:href="#DejaVuSans-52" x="63.476562"/>
      <use xlink:href="#DejaVuSans-52" x="132.958984"/>
      <use xlink:href="#DejaVuSans-32" x="202.441406"/>
      <use xlink:href="#DejaVuSans-31" x="266.064453"/>
      <use xlink:href="#DejaVuSans-35" x="329.6875"/>
      <use xlink:href="#DejaVuSans-35" x="393.310547"/>
      <use xlink:href="#DejaVuSans-34" x="456.933594"/>
      <use xlink:href="#DejaVuSans-32" x="520.556641"/>
      <use xlink:href="#DejaVuSans-32" x="584.179688"/>
     </g>
    </g>
    <g id="line2d_32">
     <path d="M 911.691875 292.192894 
L 919.691875 292.192894 
L 927.691875 292.192894 
" style="fill: none; stroke: #5cb85c; stroke-linecap: square"/>
    </g>
    <g id="text_28">
     <!-- SRR2155423 -->
     <g transform="translate(934.091875 294.992894)scale(0.08 -0.08)">
      <use xlink:href="#DejaVuSans-53"/>
      <use xlink:href="#DejaVuSans-52" x="63.476562"/>
      <use xlink:href="#DejaVuSans-52" x="132.958984"/>
      <use xlink:href="#DejaVuSans-32" x="202.441406"/>
      <use xlink:href="#DejaVuSans-31" x="266.064453"/>
      <use xlink:href="#DejaVuSans-35" x="329.6875"/>
      <use xlink:href="#DejaVuSans-35" x="393.310547"/>
      <use xlink:href="#DejaVuSans-34" x="456.933594"/>
      <use xlink:href="#DejaVuSans-32" x="520.556641"/>
      <use xlink:href="#DejaVuSans-33" x="584.179688"/>
     </g>
    </g>
    <g id="line2d_33">
     <path d="M 911.691875 303.935394 
L 919.691875 303.935394 
L 927.691875 303.935394 
" style="fill: none; stroke: #5cb85c; stroke-linecap: square"/>
    </g>
    <g id="text_29">
     <!-- SRR2155424 -->
     <g transform="translate(934.091875 306.735394)scale(0.08 -0.08)">
      <use xlink:href="#DejaVuSans-53"/>
      <use xlink:href="#DejaVuSans-52" x="63.476562"/>
      <use xlink:href="#DejaVuSans-52" x="132.958984"/>
      <use xlink:href="#DejaVuSans-32" x="202.441406"/>
      <use xlink:href="#DejaVuSans-31" x="266.064453"/>
      <use xlink:href="#DejaVuSans-35" x="329.6875"/>
      <use xlink:href="#DejaVuSans-35" x="393.310547"/>
      <use xlink:href="#DejaVuSans-34" x="456.933594"/>
      <use xlink:href="#DejaVuSans-32" x="520.556641"/>
      <use xlink:href="#DejaVuSans-34" x="584.179688"/>
     </g>
    </g>
   </g>
  </g>
 </g>
 <defs>
  <clipPath id="pa6f411925c">
   <rect x="38.058125" y="31.48286" width="955.06" height="242.5072"/>
  </clipPath>
 </defs>
</svg>
