<?xml version="1.0" encoding="utf-8" standalone="no"?>
<!DOCTYPE svg PUBLIC "-//W3C//DTD SVG 1.1//EN"
  "http://www.w3.org/Graphics/SVG/1.1/DTD/svg11.dtd">
<svg xmlns:xlink="http://www.w3.org/1999/xlink" width="1000.280625pt" height="330.541644pt" viewBox="0 0 1000.280625 330.541644" xmlns="http://www.w3.org/2000/svg" version="1.1">
 <metadata>
  <rdf:RDF xmlns:dc="http://purl.org/dc/elements/1.1/" xmlns:cc="http://creativecommons.org/ns#" xmlns:rdf="http://www.w3.org/1999/02/22-rdf-syntax-ns#">
   <cc:Work>
    <dc:type rdf:resource="http://purl.org/dc/dcmitype/StillImage"/>
    <dc:date>2024-08-14T16:02:26.811059</dc:date>
    <dc:format>image/svg+xml</dc:format>
    <dc:creator>
     <cc:Agent>
      <dc:title>Matplotlib v3.5.3, https://matplotlib.org/</dc:title>
     </cc:Agent>
    </dc:creator>
   </cc:Work>
  </rdf:RDF>
 </metadata>
 <defs>
  <style type="text/css">*{stroke-linejoin: round; stroke-linecap: butt}</style>
 </defs>
 <g id="figure_1">
  <g id="axes_1">
   <g id="patch_1">
    <path d="M 40.600625 273.99006 
L 985.445625 273.99006 
L 985.445625 31.48286 
L 40.600625 31.48286 
z
" style="fill: #ffffff"/>
   </g>
   <g id="matplotlib.axis_1">
    <g id="xtick_1">
     <g id="text_1">
      <!-- 0 -->
      <g transform="translate(38.055625 287.06881)scale(0.08 -0.08)">
       <defs>
        <path id="DejaVuSans-30" d="M 2034 4250 
Q 1547 4250 1301 3770 
Q 1056 3291 1056 2328 
Q 1056 1369 1301 889 
Q 1547 409 2034 409 
Q 2525 409 2770 889 
Q 3016 1369 3016 2328 
Q 3016 3291 2770 3770 
Q 2525 4250 2034 4250 
z
M 2034 4750 
Q 2819 4750 3233 4129 
Q 3647 3509 3647 2328 
Q 3647 1150 3233 529 
Q 2819 -91 2034 -91 
Q 1250 -91 836 529 
Q 422 1150 422 2328 
Q 422 3509 836 4129 
Q 1250 4750 2034 4750 
z
" transform="scale(0.015625)"/>
       </defs>
       <use xlink:href="#DejaVuSans-30"/>
      </g>
     </g>
    </g>
    <g id="xtick_2">
     <g id="text_2">
      <!-- 20 -->
      <g transform="translate(224.479625 287.06881)scale(0.08 -0.08)">
       <defs>
        <path id="DejaVuSans-32" d="M 1228 531 
L 3431 531 
L 3431 0 
L 469 0 
L 469 531 
Q 828 903 1448 1529 
Q 2069 2156 2228 2338 
Q 2531 2678 2651 2914 
Q 2772 3150 2772 3378 
Q 2772 3750 2511 3984 
Q 2250 4219 1831 4219 
Q 1534 4219 1204 4116 
Q 875 4013 500 3803 
L 500 4441 
Q 881 4594 1212 4672 
Q 1544 4750 1819 4750 
Q 2544 4750 2975 4387 
Q 3406 4025 3406 3419 
Q 3406 3131 3298 2873 
Q 3191 2616 2906 2266 
Q 2828 2175 2409 1742 
Q 1991 1309 1228 531 
z
" transform="scale(0.015625)"/>
       </defs>
       <use xlink:href="#DejaVuSans-32"/>
       <use xlink:href="#DejaVuSans-30" x="63.623047"/>
      </g>
     </g>
    </g>
    <g id="xtick_3">
     <g id="text_3">
      <!-- 40 -->
      <g transform="translate(413.448625 287.06881)scale(0.08 -0.08)">
       <defs>
        <path id="DejaVuSans-34" d="M 2419 4116 
L 825 1625 
L 2419 1625 
L 2419 4116 
z
M 2253 4666 
L 3047 4666 
L 3047 1625 
L 3713 1625 
L 3713 1100 
L 3047 1100 
L 3047 0 
L 2419 0 
L 2419 1100 
L 313 1100 
L 313 1709 
L 2253 4666 
z
" transform="scale(0.015625)"/>
       </defs>
       <use xlink:href="#DejaVuSans-34"/>
       <use xlink:href="#DejaVuSans-30" x="63.623047"/>
      </g>
     </g>
    </g>
    <g id="xtick_4">
     <g id="text_4">
      <!-- 60 -->
      <g transform="translate(602.417625 287.06881)scale(0.08 -0.08)">
       <defs>
        <path id="DejaVuSans-36" d="M 2113 2584 
Q 1688 2584 1439 2293 
Q 1191 2003 1191 1497 
Q 1191 994 1439 701 
Q 1688 409 2113 409 
Q 2538 409 2786 701 
Q 3034 994 3034 1497 
Q 3034 2003 2786 2293 
Q 2538 2584 2113 2584 
z
M 3366 4563 
L 3366 3988 
Q 3128 4100 2886 4159 
Q 2644 4219 2406 4219 
Q 1781 4219 1451 3797 
Q 1122 3375 1075 2522 
Q 1259 2794 1537 2939 
Q 1816 3084 2150 3084 
Q 2853 3084 3261 2657 
Q 3669 2231 3669 1497 
Q 3669 778 3244 343 
Q 2819 -91 2113 -91 
Q 1303 -91 875 529 
Q 447 1150 447 2328 
Q 447 3434 972 4092 
Q 1497 4750 2381 4750 
Q 2619 4750 2861 4703 
Q 3103 4656 3366 4563 
z
" transform="scale(0.015625)"/>
       </defs>
       <use xlink:href="#DejaVuSans-36"/>
       <use xlink:href="#DejaVuSans-30" x="63.623047"/>
      </g>
     </g>
    </g>
    <g id="xtick_5">
     <g id="text_5">
      <!-- 80 -->
      <g transform="translate(791.386625 287.06881)scale(0.08 -0.08)">
       <defs>
        <path id="DejaVuSans-38" d="M 2034 2216 
Q 1584 2216 1326 1975 
Q 1069 1734 1069 1313 
Q 1069 891 1326 650 
Q 1584 409 2034 409 
Q 2484 409 2743 651 
Q 3003 894 3003 1313 
Q 3003 1734 2745 1975 
Q 2488 2216 2034 2216 
z
M 1403 2484 
Q 997 2584 770 2862 
Q 544 3141 544 3541 
Q 544 4100 942 4425 
Q 1341 4750 2034 4750 
Q 2731 4750 3128 4425 
Q 3525 4100 3525 3541 
Q 3525 3141 3298 2862 
Q 3072 2584 2669 2484 
Q 3125 2378 3379 2068 
Q 3634 1759 3634 1313 
Q 3634 634 3220 271 
Q 2806 -91 2034 -91 
Q 1263 -91 848 271 
Q 434 634 434 1313 
Q 434 1759 690 2068 
Q 947 2378 1403 2484 
z
M 1172 3481 
Q 1172 3119 1398 2916 
Q 1625 2713 2034 2713 
Q 2441 2713 2670 2916 
Q 2900 3119 2900 3481 
Q 2900 3844 2670 4047 
Q 2441 4250 2034 4250 
Q 1625 4250 1398 4047 
Q 1172 3844 1172 3481 
z
" transform="scale(0.015625)"/>
       </defs>
       <use xlink:href="#DejaVuSans-38"/>
       <use xlink:href="#DejaVuSans-30" x="63.623047"/>
      </g>
     </g>
    </g>
    <g id="xtick_6">
     <g id="text_6">
      <!-- 100 -->
      <g transform="translate(977.810625 287.06881)scale(0.08 -0.08)">
       <defs>
        <path id="DejaVuSans-31" d="M 794 531 
L 1825 531 
L 1825 4091 
L 703 3866 
L 703 4441 
L 1819 4666 
L 2450 4666 
L 2450 531 
L 3481 531 
L 3481 0 
L 794 0 
L 794 531 
z
" transform="scale(0.015625)"/>
       </defs>
       <use xlink:href="#DejaVuSans-31"/>
       <use xlink:href="#DejaVuSans-30" x="63.623047"/>
       <use xlink:href="#DejaVuSans-30" x="127.246094"/>
      </g>
     </g>
    </g>
    <g id="text_7">
     <!-- % GC -->
     <g transform="translate(499.317656 300.330997)scale(0.1 -0.1)">
      <defs>
       <path id="DejaVuSans-25" d="M 4653 2053 
Q 4381 2053 4226 1822 
Q 4072 1591 4072 1178 
Q 4072 772 4226 539 
Q 4381 306 4653 306 
Q 4919 306 5073 539 
Q 5228 772 5228 1178 
Q 5228 1588 5073 1820 
Q 4919 2053 4653 2053 
z
M 4653 2450 
Q 5147 2450 5437 2106 
Q 5728 1763 5728 1178 
Q 5728 594 5436 251 
Q 5144 -91 4653 -91 
Q 4153 -91 3862 251 
Q 3572 594 3572 1178 
Q 3572 1766 3864 2108 
Q 4156 2450 4653 2450 
z
M 1428 4353 
Q 1159 4353 1004 4120 
Q 850 3888 850 3481 
Q 850 3069 1003 2837 
Q 1156 2606 1428 2606 
Q 1700 2606 1854 2837 
Q 2009 3069 2009 3481 
Q 2009 3884 1853 4118 
Q 1697 4353 1428 4353 
z
M 4250 4750 
L 4750 4750 
L 1831 -91 
L 1331 -91 
L 4250 4750 
z
M 1428 4750 
Q 1922 4750 2215 4408 
Q 2509 4066 2509 3481 
Q 2509 2891 2217 2550 
Q 1925 2209 1428 2209 
Q 931 2209 642 2551 
Q 353 2894 353 3481 
Q 353 4063 643 4406 
Q 934 4750 1428 4750 
z
" transform="scale(0.015625)"/>
       <path id="DejaVuSans-20" transform="scale(0.015625)"/>
       <path id="DejaVuSans-47" d="M 3809 666 
L 3809 1919 
L 2778 1919 
L 2778 2438 
L 4434 2438 
L 4434 434 
Q 4069 175 3628 42 
Q 3188 -91 2688 -91 
Q 1594 -91 976 548 
Q 359 1188 359 2328 
Q 359 3472 976 4111 
Q 1594 4750 2688 4750 
Q 3144 4750 3555 4637 
Q 3966 4525 4313 4306 
L 4313 3634 
Q 3963 3931 3569 4081 
Q 3175 4231 2741 4231 
Q 1884 4231 1454 3753 
Q 1025 3275 1025 2328 
Q 1025 1384 1454 906 
Q 1884 428 2741 428 
Q 3075 428 3337 486 
Q 3600 544 3809 666 
z
" transform="scale(0.015625)"/>
       <path id="DejaVuSans-43" d="M 4122 4306 
L 4122 3641 
Q 3803 3938 3442 4084 
Q 3081 4231 2675 4231 
Q 1875 4231 1450 3742 
Q 1025 3253 1025 2328 
Q 1025 1406 1450 917 
Q 1875 428 2675 428 
Q 3081 428 3442 575 
Q 3803 722 4122 1019 
L 4122 359 
Q 3791 134 3420 21 
Q 3050 -91 2638 -91 
Q 1578 -91 968 557 
Q 359 1206 359 2328 
Q 359 3453 968 4101 
Q 1578 4750 2638 4750 
Q 3056 4750 3426 4639 
Q 3797 4528 4122 4306 
z
" transform="scale(0.015625)"/>
      </defs>
      <use xlink:href="#DejaVuSans-25"/>
      <use xlink:href="#DejaVuSans-20" x="95.019531"/>
      <use xlink:href="#DejaVuSans-47" x="126.806641"/>
      <use xlink:href="#DejaVuSans-43" x="204.296875"/>
     </g>
    </g>
   </g>
   <g id="matplotlib.axis_2">
    <g id="ytick_1">
     <g id="line2d_1">
      <path d="M 40.600625 273.99006 
L 985.445625 273.99006 
" clip-path="url(#p91b23dcd5e)" style="fill: none; stroke: #dedede; stroke-linecap: square"/>
     </g>
     <g id="text_8">
      <!-- 0.0 -->
      <g transform="translate(20.878125 277.029435)scale(0.08 -0.08)">
       <defs>
        <path id="DejaVuSans-2e" d="M 684 794 
L 1344 794 
L 1344 0 
L 684 0 
L 684 794 
z
" transform="scale(0.015625)"/>
       </defs>
       <use xlink:href="#DejaVuSans-30"/>
       <use xlink:href="#DejaVuSans-2e" x="63.623047"/>
       <use xlink:href="#DejaVuSans-30" x="95.410156"/>
      </g>
     </g>
    </g>
    <g id="ytick_2">
     <g id="line2d_2">
      <path d="M 40.600625 240.655228 
L 985.445625 240.655228 
" clip-path="url(#p91b23dcd5e)" style="fill: none; stroke: #dedede; stroke-linecap: square"/>
     </g>
     <g id="text_9">
      <!-- 0.2 -->
      <g transform="translate(20.878125 243.694603)scale(0.08 -0.08)">
       <use xlink:href="#DejaVuSans-30"/>
       <use xlink:href="#DejaVuSans-2e" x="63.623047"/>
       <use xlink:href="#DejaVuSans-32" x="95.410156"/>
      </g>
     </g>
    </g>
    <g id="ytick_3">
     <g id="line2d_3">
      <path d="M 40.600625 207.320396 
L 985.445625 207.320396 
" clip-path="url(#p91b23dcd5e)" style="fill: none; stroke: #dedede; stroke-linecap: square"/>
     </g>
     <g id="text_10">
      <!-- 0.4 -->
      <g transform="translate(20.878125 210.359771)scale(0.08 -0.08)">
       <use xlink:href="#DejaVuSans-30"/>
       <use xlink:href="#DejaVuSans-2e" x="63.623047"/>
       <use xlink:href="#DejaVuSans-34" x="95.410156"/>
      </g>
     </g>
    </g>
    <g id="ytick_4">
     <g id="line2d_4">
      <path d="M 40.600625 173.985563 
L 985.445625 173.985563 
" clip-path="url(#p91b23dcd5e)" style="fill: none; stroke: #dedede; stroke-linecap: square"/>
     </g>
     <g id="text_11">
      <!-- 0.6 -->
      <g transform="translate(20.878125 177.024938)scale(0.08 -0.08)">
       <use xlink:href="#DejaVuSans-30"/>
       <use xlink:href="#DejaVuSans-2e" x="63.623047"/>
       <use xlink:href="#DejaVuSans-36" x="95.410156"/>
      </g>
     </g>
    </g>
    <g id="ytick_5">
     <g id="line2d_5">
      <path d="M 40.600625 140.650731 
L 985.445625 140.650731 
" clip-path="url(#p91b23dcd5e)" style="fill: none; stroke: #dedede; stroke-linecap: square"/>
     </g>
     <g id="text_12">
      <!-- 0.8 -->
      <g transform="translate(20.878125 143.690106)scale(0.08 -0.08)">
       <use xlink:href="#DejaVuSans-30"/>
       <use xlink:href="#DejaVuSans-2e" x="63.623047"/>
       <use xlink:href="#DejaVuSans-38" x="95.410156"/>
      </g>
     </g>
    </g>
    <g id="ytick_6">
     <g id="line2d_6">
      <path d="M 40.600625 107.315899 
L 985.445625 107.315899 
" clip-path="url(#p91b23dcd5e)" style="fill: none; stroke: #dedede; stroke-linecap: square"/>
     </g>
     <g id="text_13">
      <!-- 1.0 -->
      <g transform="translate(20.878125 110.355274)scale(0.08 -0.08)">
       <use xlink:href="#DejaVuSans-31"/>
       <use xlink:href="#DejaVuSans-2e" x="63.623047"/>
       <use xlink:href="#DejaVuSans-30" x="95.410156"/>
      </g>
     </g>
    </g>
    <g id="ytick_7">
     <g id="line2d_7">
      <path d="M 40.600625 73.981067 
L 985.445625 73.981067 
" clip-path="url(#p91b23dcd5e)" style="fill: none; stroke: #dedede; stroke-linecap: square"/>
     </g>
     <g id="text_14">
      <!-- 1.2 -->
      <g transform="translate(20.878125 77.020442)scale(0.08 -0.08)">
       <use xlink:href="#DejaVuSans-31"/>
       <use xlink:href="#DejaVuSans-2e" x="63.623047"/>
       <use xlink:href="#DejaVuSans-32" x="95.410156"/>
      </g>
     </g>
    </g>
    <g id="ytick_8">
     <g id="line2d_8">
      <path d="M 40.600625 40.646235 
L 985.445625 40.646235 
" clip-path="url(#p91b23dcd5e)" style="fill: none; stroke: #dedede; stroke-linecap: square"/>
     </g>
     <g id="text_15">
      <!-- 1.4 -->
      <g transform="translate(20.878125 43.68561)scale(0.08 -0.08)">
       <use xlink:href="#DejaVuSans-31"/>
       <use xlink:href="#DejaVuSans-2e" x="63.623047"/>
       <use xlink:href="#DejaVuSans-34" x="95.410156"/>
      </g>
     </g>
    </g>
    <g id="text_16">
     <!-- Count -->
     <g transform="translate(14.798438 167.584897)rotate(-90)scale(0.1 -0.1)">
      <defs>
       <path id="DejaVuSans-6f" d="M 1959 3097 
Q 1497 3097 1228 2736 
Q 959 2375 959 1747 
Q 959 1119 1226 758 
Q 1494 397 1959 397 
Q 2419 397 2687 759 
Q 2956 1122 2956 1747 
Q 2956 2369 2687 2733 
Q 2419 3097 1959 3097 
z
M 1959 3584 
Q 2709 3584 3137 3096 
Q 3566 2609 3566 1747 
Q 3566 888 3137 398 
Q 2709 -91 1959 -91 
Q 1206 -91 779 398 
Q 353 888 353 1747 
Q 353 2609 779 3096 
Q 1206 3584 1959 3584 
z
" transform="scale(0.015625)"/>
       <path id="DejaVuSans-75" d="M 544 1381 
L 544 3500 
L 1119 3500 
L 1119 1403 
Q 1119 906 1312 657 
Q 1506 409 1894 409 
Q 2359 409 2629 706 
Q 2900 1003 2900 1516 
L 2900 3500 
L 3475 3500 
L 3475 0 
L 2900 0 
L 2900 538 
Q 2691 219 2414 64 
Q 2138 -91 1772 -91 
Q 1169 -91 856 284 
Q 544 659 544 1381 
z
M 1991 3584 
L 1991 3584 
z
" transform="scale(0.015625)"/>
       <path id="DejaVuSans-6e" d="M 3513 2113 
L 3513 0 
L 2938 0 
L 2938 2094 
Q 2938 2591 2744 2837 
Q 2550 3084 2163 3084 
Q 1697 3084 1428 2787 
Q 1159 2491 1159 1978 
L 1159 0 
L 581 0 
L 581 3500 
L 1159 3500 
L 1159 2956 
Q 1366 3272 1645 3428 
Q 1925 3584 2291 3584 
Q 2894 3584 3203 3211 
Q 3513 2838 3513 2113 
z
" transform="scale(0.015625)"/>
       <path id="DejaVuSans-74" d="M 1172 4494 
L 1172 3500 
L 2356 3500 
L 2356 3053 
L 1172 3053 
L 1172 1153 
Q 1172 725 1289 603 
Q 1406 481 1766 481 
L 2356 481 
L 2356 0 
L 1766 0 
Q 1100 0 847 248 
Q 594 497 594 1153 
L 594 3053 
L 172 3053 
L 172 3500 
L 594 3500 
L 594 4494 
L 1172 4494 
z
" transform="scale(0.015625)"/>
      </defs>
      <use xlink:href="#DejaVuSans-43"/>
      <use xlink:href="#DejaVuSans-6f" x="69.824219"/>
      <use xlink:href="#DejaVuSans-75" x="131.005859"/>
      <use xlink:href="#DejaVuSans-6e" x="194.384766"/>
      <use xlink:href="#DejaVuSans-74" x="257.763672"/>
     </g>
    </g>
    <g id="text_17">
     <!-- 1e6 -->
     <g transform="translate(40.600625 28.48286)scale(0.1 -0.1)">
      <defs>
       <path id="DejaVuSans-65" d="M 3597 1894 
L 3597 1613 
L 953 1613 
Q 991 1019 1311 708 
Q 1631 397 2203 397 
Q 2534 397 2845 478 
Q 3156 559 3463 722 
L 3463 178 
Q 3153 47 2828 -22 
Q 2503 -91 2169 -91 
Q 1331 -91 842 396 
Q 353 884 353 1716 
Q 353 2575 817 3079 
Q 1281 3584 2069 3584 
Q 2775 3584 3186 3129 
Q 3597 2675 3597 1894 
z
M 3022 2063 
Q 3016 2534 2758 2815 
Q 2500 3097 2075 3097 
Q 1594 3097 1305 2825 
Q 1016 2553 972 2059 
L 3022 2063 
z
" transform="scale(0.015625)"/>
      </defs>
      <use xlink:href="#DejaVuSans-31"/>
      <use xlink:href="#DejaVuSans-65" x="63.623047"/>
      <use xlink:href="#DejaVuSans-36" x="125.146484"/>
     </g>
    </g>
   </g>
   <g id="line2d_9">
    <path d="M 40.600625 273.963559 
L 50.049075 273.963892 
L 59.497525 273.947058 
L 68.945975 273.928307 
L 78.394425 273.92539 
L 87.842875 273.916723 
L 97.291325 273.895722 
L 106.739775 273.870721 
L 116.188225 273.84972 
L 125.636675 273.830303 
L 135.085125 273.804552 
L 144.533575 273.770217 
L 153.982025 273.731548 
L 163.430475 273.68663 
L 172.878925 273.656545 
L 182.327375 273.629794 
L 191.775825 273.573708 
L 201.224275 273.498621 
L 210.672725 273.390866 
L 220.121175 273.232359 
L 229.569625 273.004432 
L 239.018075 272.65575 
L 248.466525 272.172395 
L 257.914975 271.519116 
L 267.363425 270.639326 
L 276.811875 269.539693 
L 286.260325 268.153381 
L 295.708775 266.455888 
L 305.157225 264.572887 
L 314.605675 262.423373 
L 324.054125 260.092852 
L 333.502575 257.796832 
L 342.951025 255.371306 
L 352.399475 252.699436 
L 361.847925 249.714218 
L 371.296375 246.516241 
L 380.744825 243.115255 
L 390.193275 239.587013 
L 399.641725 236.210278 
L 409.090175 233.107638 
L 418.538625 230.386016 
L 427.987075 227.925822 
L 437.435525 225.660304 
L 446.883975 223.94631 
L 456.332425 222.83626 
L 465.780875 221.821298 
L 475.229325 220.948342 
L 484.677775 220.884922 
L 494.126225 221.120266 
L 503.574675 221.051263 
L 513.023125 220.898173 
L 522.471575 220.644078 
L 531.920025 220.957259 
L 541.368475 221.943886 
L 550.816925 222.986683 
L 560.265375 223.924642 
L 569.713825 225.450044 
L 579.162275 227.203373 
L 588.610725 228.721858 
L 598.059175 230.304262 
L 607.507625 232.019673 
L 616.956075 234.160686 
L 626.404525 236.847057 
L 635.852975 239.851442 
L 645.301425 242.819492 
L 654.749875 245.927882 
L 664.198325 249.129776 
L 673.646775 252.028656 
L 683.095225 254.78678 
L 692.543675 257.548071 
L 701.992125 260.115353 
L 711.440575 262.389538 
L 720.889025 264.242622 
L 730.337475 265.876945 
L 739.785925 267.269841 
L 749.234375 268.341139 
L 758.682825 269.274931 
L 768.131275 270.088968 
L 777.579725 270.749581 
L 787.028175 271.32319 
L 796.476625 271.82963 
L 805.925075 272.254649 
L 815.373525 272.581247 
L 824.821975 272.861759 
L 834.270425 273.09652 
L 843.718875 273.282445 
L 853.167325 273.421451 
L 862.615775 273.519122 
L 872.064225 273.616127 
L 881.512675 273.702714 
L 890.961125 273.765883 
L 900.409575 273.816802 
L 909.858025 273.845637 
L 919.306475 273.879888 
L 928.754925 273.92189 
L 938.203375 273.948725 
L 947.651825 273.960142 
L 957.100275 273.962142 
L 966.548725 273.971726 
L 975.997175 273.981476 
L 985.445625 273.981726 
" clip-path="url(#p91b23dcd5e)" style="fill: none; stroke: #5cb85c; stroke-linecap: square"/>
   </g>
   <g id="line2d_10">
    <path d="M 40.600625 273.897889 
L 50.049075 273.897723 
L 59.497525 273.839553 
L 68.945975 273.777967 
L 78.394425 273.766633 
L 87.842875 273.734465 
L 97.291325 273.672379 
L 106.739775 273.608293 
L 116.188225 273.552457 
L 125.636675 273.490704 
L 135.085125 273.398033 
L 144.533575 273.290112 
L 153.982025 273.191357 
L 163.430475 273.070519 
L 172.878925 272.963097 
L 182.327375 272.845592 
L 191.775825 272.695835 
L 201.224275 272.506743 
L 210.672725 272.235231 
L 220.121175 271.815212 
L 229.569625 271.160099 
L 239.018075 270.173138 
L 248.466525 268.736074 
L 257.914975 266.678815 
L 267.363425 263.969526 
L 276.811875 260.601291 
L 286.260325 256.245262 
L 295.708775 250.989026 
L 305.157225 245.040508 
L 314.605675 238.154532 
L 324.054125 230.70328 
L 333.502575 223.219277 
L 342.951025 215.268003 
L 352.399475 206.426939 
L 361.847925 196.497826 
L 371.296375 185.650255 
L 380.744825 174.34533 
L 390.193275 162.121447 
L 399.641725 150.433671 
L 409.090175 139.641602 
L 418.538625 129.81166 
L 427.987075 121.35003 
L 437.435525 113.193163 
L 446.883975 106.560865 
L 456.332425 101.86307 
L 465.780875 97.573378 
L 475.229325 94.277646 
L 484.677775 93.562697 
L 494.126225 93.759373 
L 503.574675 93.209681 
L 513.023125 92.336225 
L 522.471575 91.979626 
L 531.920025 93.563781 
L 541.368475 96.771675 
L 550.816925 100.371753 
L 560.265375 103.997666 
L 569.713825 109.169149 
L 579.162275 115.475016 
L 588.610725 120.83359 
L 598.059175 126.250167 
L 607.507625 132.558284 
L 616.956075 140.233046 
L 626.404525 149.761307 
L 635.852975 160.087605 
L 645.301425 170.429653 
L 654.749875 181.03738 
L 664.198325 191.743945 
L 673.646775 201.606305 
L 683.095225 210.924891 
L 692.543675 220.218226 
L 701.992125 228.896366 
L 711.440575 236.493124 
L 720.889025 242.683236 
L 730.337475 248.001391 
L 739.785925 252.49226 
L 749.234375 256.062087 
L 758.682825 259.013803 
L 768.131275 261.502499 
L 777.579725 263.630678 
L 787.028175 265.445759 
L 796.476625 267.033247 
L 805.925075 268.352473 
L 815.373525 269.371852 
L 824.821975 270.308811 
L 834.270425 271.093013 
L 843.718875 271.671372 
L 853.167325 272.13606 
L 862.615775 272.475325 
L 872.064225 272.767172 
L 881.512675 273.032017 
L 890.961125 273.260444 
L 900.409575 273.429451 
L 909.858025 273.517872 
L 919.306475 273.625794 
L 928.754925 273.763633 
L 938.203375 273.850137 
L 947.651825 273.879555 
L 957.100275 273.885805 
L 966.548725 273.92239 
L 975.997175 273.959892 
L 985.445625 273.961559 
" clip-path="url(#p91b23dcd5e)" style="fill: none; stroke: #5cb85c; stroke-linecap: square"/>
   </g>
   <g id="line2d_11">
    <path d="M 40.600625 273.897389 
L 50.049075 273.896222 
L 59.497525 273.835053 
L 68.945975 273.770467 
L 78.394425 273.756716 
L 87.842875 273.726715 
L 97.291325 273.670546 
L 106.739775 273.607876 
L 116.188225 273.544623 
L 125.636675 273.46287 
L 135.085125 273.366949 
L 144.533575 273.25886 
L 153.982025 273.142855 
L 163.430475 273.007682 
L 172.878925 272.878843 
L 182.327375 272.762588 
L 191.775825 272.612581 
L 201.224275 272.415489 
L 210.672725 272.132226 
L 220.121175 271.683956 
L 229.569625 270.963091 
L 239.018075 269.905293 
L 248.466525 268.382891 
L 257.914975 266.262546 
L 267.363425 263.486004 
L 276.811875 259.953346 
L 286.260325 255.579649 
L 295.708775 250.298328 
L 305.157225 244.254306 
L 314.605675 237.468251 
L 324.054125 230.165923 
L 333.502575 222.84151 
L 342.951025 215.140664 
L 352.399475 206.379687 
L 361.847925 196.616164 
L 371.296375 186.20678 
L 380.744825 175.174117 
L 390.193275 163.357585 
L 399.641725 152.378758 
L 409.090175 141.95129 
L 418.538625 132.695707 
L 427.987075 124.734265 
L 437.435525 116.989084 
L 446.883975 110.932312 
L 456.332425 106.838544 
L 465.780875 103.206214 
L 475.229325 100.45059 
L 484.677775 100.099324 
L 494.126225 100.370087 
L 503.574675 100.311667 
L 513.023125 100.046739 
L 522.471575 100.054739 
L 531.920025 101.749899 
L 541.368475 105.156885 
L 550.816925 108.916888 
L 560.265375 112.356959 
L 569.713825 117.49919 
L 579.162275 123.538295 
L 588.610725 128.782614 
L 598.059175 134.210942 
L 607.507625 140.09854 
L 616.956075 147.194859 
L 626.404525 156.015422 
L 635.852975 165.614354 
L 645.301425 175.236286 
L 654.749875 185.072395 
L 664.198325 195.025259 
L 673.646775 204.126752 
L 683.095225 212.595883 
L 692.543675 221.135433 
L 701.992125 229.254965 
L 711.440575 236.417871 
L 720.889025 242.282551 
L 730.337475 247.414115 
L 739.785925 251.81648 
L 749.234375 255.31697 
L 758.682825 258.281854 
L 768.131275 260.865637 
L 777.579725 263.066319 
L 787.028175 264.946237 
L 796.476625 266.548225 
L 805.925075 267.952622 
L 815.373525 269.082089 
L 824.821975 270.045383 
L 834.270425 270.854002 
L 843.718875 271.520199 
L 853.167325 272.014971 
L 862.615775 272.34932 
L 872.064225 272.673251 
L 881.512675 272.973431 
L 890.961125 273.215358 
L 900.409575 273.4057 
L 909.858025 273.516039 
L 919.306475 273.62471 
L 928.754925 273.750383 
L 938.203375 273.839637 
L 947.651825 273.879888 
L 957.100275 273.887222 
L 966.548725 273.923807 
L 975.997175 273.961142 
L 985.445625 273.962725 
" clip-path="url(#p91b23dcd5e)" style="fill: none; stroke: #5cb85c; stroke-linecap: square"/>
   </g>
   <g id="line2d_12">
    <path d="M 40.600625 273.933391 
L 50.049075 273.932641 
L 59.497525 273.887305 
L 68.945975 273.839303 
L 78.394425 273.832053 
L 87.842875 273.811802 
L 97.291325 273.77005 
L 106.739775 273.724048 
L 116.188225 273.68338 
L 125.636675 273.635794 
L 135.085125 273.577291 
L 144.533575 273.509538 
L 153.982025 273.436535 
L 163.430475 273.345864 
L 172.878925 273.263611 
L 182.327375 273.18469 
L 191.775825 273.073102 
L 201.224275 272.930762 
L 210.672725 272.723586 
L 220.121175 272.413322 
L 229.569625 271.946635 
L 239.018075 271.269104 
L 248.466525 270.226474 
L 257.914975 268.761408 
L 267.363425 266.898824 
L 276.811875 264.604221 
L 286.260325 261.705924 
L 295.708775 258.089512 
L 305.157225 254.016745 
L 314.605675 249.381954 
L 324.054125 244.325559 
L 333.502575 239.348669 
L 342.951025 234.080432 
L 352.399475 228.003992 
L 361.847925 221.089015 
L 371.296375 213.691849 
L 380.744825 206.117591 
L 390.193275 197.911889 
L 399.641725 190.023701 
L 409.090175 182.663204 
L 418.538625 175.964569 
L 427.987075 170.244145 
L 437.435525 164.789567 
L 446.883975 160.49529 
L 456.332425 157.529907 
L 465.780875 154.671778 
L 475.229325 152.306839 
L 484.677775 151.846651 
L 494.126225 152.110746 
L 503.574675 152.04291 
L 513.023125 151.920488 
L 522.471575 151.917154 
L 531.920025 152.977119 
L 541.368475 155.200552 
L 550.816925 157.68383 
L 560.265375 160.089022 
L 569.713825 163.753603 
L 579.162275 168.095132 
L 588.610725 171.771464 
L 598.059175 175.797728 
L 607.507625 180.105172 
L 616.956075 184.838385 
L 626.404525 191.1 
L 635.852975 198.096481 
L 645.301425 205.023376 
L 654.749875 212.042608 
L 664.198325 219.187596 
L 673.646775 225.824894 
L 683.095225 231.875166 
L 692.543675 237.821934 
L 701.992125 243.504606 
L 711.440575 248.614419 
L 720.889025 252.798774 
L 730.337475 256.388852 
L 739.785925 259.451823 
L 749.234375 261.861848 
L 758.682825 263.864438 
L 768.131275 265.626434 
L 777.579725 267.061415 
L 787.028175 268.255552 
L 796.476625 269.311933 
L 805.925075 270.196389 
L 815.373525 270.885087 
L 824.821975 271.499781 
L 834.270425 272.027638 
L 843.718875 272.446741 
L 853.167325 272.757921 
L 862.615775 272.974014 
L 872.064225 273.180857 
L 881.512675 273.370449 
L 890.961125 273.517872 
L 900.409575 273.625294 
L 909.858025 273.686046 
L 919.306475 273.755216 
L 928.754925 273.837636 
L 938.203375 273.894389 
L 947.651825 273.919557 
L 957.100275 273.924224 
L 966.548725 273.947475 
L 975.997175 273.971142 
L 985.445625 273.971893 
" clip-path="url(#p91b23dcd5e)" style="fill: none; stroke: #5cb85c; stroke-linecap: square"/>
   </g>
   <g id="line2d_13">
    <path d="M 40.600625 273.878555 
L 50.049075 273.876722 
L 59.497525 273.800718 
L 68.945975 273.720381 
L 78.394425 273.704797 
L 87.842875 273.667545 
L 97.291325 273.591292 
L 106.739775 273.511455 
L 116.188225 273.442952 
L 125.636675 273.361532 
L 135.085125 273.241443 
L 144.533575 273.095936 
L 153.982025 272.954763 
L 163.430475 272.787923 
L 172.878925 272.637166 
L 182.327375 272.50341 
L 191.775825 272.320485 
L 201.224275 272.07339 
L 210.672725 271.725125 
L 220.121175 271.155933 
L 229.569625 270.220974 
L 239.018075 268.891414 
L 248.466525 266.951994 
L 257.914975 264.221537 
L 267.363425 260.738631 
L 276.811875 256.334099 
L 286.260325 250.669095 
L 295.708775 243.980961 
L 305.157225 236.418787 
L 314.605675 227.666144 
L 324.054125 218.309223 
L 333.502575 208.912717 
L 342.951025 198.97127 
L 352.399475 187.656345 
L 361.847925 174.901605 
L 371.296375 161.433582 
L 380.744825 147.061853 
L 390.193275 131.677161 
L 399.641725 117.207594 
L 409.090175 103.312386 
L 418.538625 90.861492 
L 427.987075 80.110842 
L 437.435525 69.576702 
L 446.883975 61.161157 
L 456.332425 55.415149 
L 465.780875 49.951236 
L 475.229325 45.761215 
L 484.677775 44.98518 
L 494.126225 45.057016 
L 503.574675 44.46599 
L 513.023125 43.451944 
L 522.471575 43.030425 
L 531.920025 45.264859 
L 541.368475 49.256372 
L 550.816925 53.44431 
L 560.265375 58.035183 
L 569.713825 64.918826 
L 579.162275 72.800514 
L 588.610725 79.543067 
L 598.059175 86.454378 
L 607.507625 94.423736 
L 616.956075 104.200259 
L 626.404525 116.246217 
L 635.852975 129.562233 
L 645.301425 142.788077 
L 654.749875 156.252266 
L 664.198325 169.732622 
L 673.646775 182.036342 
L 683.095225 193.714784 
L 692.543675 205.34539 
L 701.992125 216.346635 
L 711.440575 225.852729 
L 720.889025 233.603911 
L 730.337475 240.391799 
L 739.785925 246.129307 
L 749.234375 250.749682 
L 758.682825 254.593855 
L 768.131275 257.89417 
L 777.579725 260.657711 
L 787.028175 262.998816 
L 796.476625 265.01824 
L 805.925075 266.714566 
L 815.373525 268.080711 
L 824.821975 269.258931 
L 834.270425 270.237308 
L 843.718875 271.003759 
L 853.167325 271.583868 
L 862.615775 272.016221 
L 872.064225 272.43074 
L 881.512675 272.787756 
L 890.961125 273.075519 
L 900.409575 273.281945 
L 909.858025 273.38695 
L 919.306475 273.530623 
L 928.754925 273.710131 
L 938.203375 273.820886 
L 947.651825 273.861054 
L 957.100275 273.871138 
L 966.548725 273.911723 
L 975.997175 273.952058 
L 985.445625 273.953392 
" clip-path="url(#p91b23dcd5e)" style="fill: none; stroke: #5cb85c; stroke-linecap: square"/>
   </g>
   <g id="line2d_14">
    <path d="M 40.600625 273.895722 
L 50.049075 273.893972 
L 59.497525 273.829469 
L 68.945975 273.760383 
L 78.394425 273.746882 
L 87.842875 273.712631 
L 97.291325 273.645878 
L 106.739775 273.575458 
L 116.188225 273.515705 
L 125.636675 273.447369 
L 135.085125 273.359365 
L 144.533575 273.255444 
L 153.982025 273.140938 
L 163.430475 273.008433 
L 172.878925 272.887094 
L 182.327375 272.771255 
L 191.775825 272.624165 
L 201.224275 272.429823 
L 210.672725 272.137977 
L 220.121175 271.691123 
L 229.569625 270.975091 
L 239.018075 269.915877 
L 248.466525 268.450311 
L 257.914975 266.35905 
L 267.363425 263.585342 
L 276.811875 260.231525 
L 286.260325 255.891163 
L 295.708775 250.63351 
L 305.157225 244.808498 
L 314.605675 238.074362 
L 324.054125 230.671029 
L 333.502575 223.27953 
L 342.951025 215.522681 
L 352.399475 206.631115 
L 361.847925 196.804839 
L 371.296375 186.256698 
L 380.744825 175.042361 
L 390.193275 163.225746 
L 399.641725 151.944906 
L 409.090175 141.390598 
L 418.538625 132.178434 
L 427.987075 124.08682 
L 437.435525 116.152546 
L 446.883975 109.85218 
L 456.332425 105.594488 
L 465.780875 101.910656 
L 475.229325 98.915188 
L 484.677775 98.561755 
L 494.126225 99.135781 
L 503.574675 99.47538 
L 513.023125 99.49163 
L 522.471575 99.253786 
L 531.920025 101.099953 
L 541.368475 104.723116 
L 550.816925 108.798799 
L 560.265375 113.021155 
L 569.713825 118.261558 
L 579.162275 124.404834 
L 588.610725 130.198928 
L 598.059175 135.941103 
L 607.507625 142.010959 
L 616.956075 149.187032 
L 626.404525 158.020179 
L 635.852975 167.83737 
L 645.301425 177.69823 
L 654.749875 187.284578 
L 664.198325 197.090602 
L 673.646775 206.085507 
L 683.095225 214.414631 
L 692.543675 222.973016 
L 701.992125 230.843037 
L 711.440575 237.728596 
L 720.889025 243.560608 
L 730.337475 248.56875 
L 739.785925 252.736521 
L 749.234375 256.139674 
L 758.682825 259.057972 
L 768.131275 261.540667 
L 777.579725 263.613843 
L 787.028175 265.370006 
L 796.476625 266.901158 
L 805.925075 268.175049 
L 815.373525 269.204261 
L 824.821975 270.150637 
L 834.270425 270.960674 
L 843.718875 271.594786 
L 853.167325 272.056723 
L 862.615775 272.385988 
L 872.064225 272.716253 
L 881.512675 273.008099 
L 890.961125 273.220775 
L 900.409575 273.38745 
L 909.858025 273.500288 
L 919.306475 273.62371 
L 928.754925 273.7598 
L 938.203375 273.850637 
L 947.651825 273.890139 
L 957.100275 273.899139 
L 966.548725 273.931391 
L 975.997175 273.964309 
L 985.445625 273.965559 
" clip-path="url(#p91b23dcd5e)" style="fill: none; stroke: #5cb85c; stroke-linecap: square"/>
   </g>
   <g id="line2d_15">
    <path d="M 40.600625 273.947725 
L 50.049075 273.946141 
L 59.497525 273.915223 
L 68.945975 273.883222 
L 78.394425 273.877138 
L 87.842875 273.860471 
L 97.291325 273.825803 
L 106.739775 273.786468 
L 116.188225 273.749133 
L 125.636675 273.710547 
L 135.085125 273.668629 
L 144.533575 273.61246 
L 153.982025 273.548123 
L 163.430475 273.478954 
L 172.878925 273.419868 
L 182.327375 273.359948 
L 191.775825 273.274778 
L 201.224275 273.17094 
L 210.672725 273.013183 
L 220.121175 272.765672 
L 229.569625 272.383488 
L 239.018075 271.825879 
L 248.466525 271.025093 
L 257.914975 269.884709 
L 267.363425 268.412226 
L 276.811875 266.577727 
L 286.260325 264.228538 
L 295.708775 261.479081 
L 305.157225 258.339773 
L 314.605675 254.748361 
L 324.054125 250.967025 
L 333.502575 247.148603 
L 342.951025 243.158757 
L 352.399475 238.672889 
L 361.847925 233.627162 
L 371.296375 228.208668 
L 380.744825 222.640084 
L 390.193275 216.634064 
L 399.641725 210.811719 
L 409.090175 205.481396 
L 418.538625 200.83152 
L 427.987075 196.872926 
L 437.435525 193.074088 
L 446.883975 190.036618 
L 456.332425 187.957608 
L 465.780875 186.066773 
L 475.229325 184.666044 
L 484.677775 184.618458 
L 494.126225 184.977558 
L 503.574675 185.090313 
L 513.023125 185.145398 
L 522.471575 185.221652 
L 531.920025 186.027605 
L 541.368475 187.719181 
L 550.816925 189.678186 
L 560.265375 191.479767 
L 569.713825 194.00713 
L 579.162275 197.19644 
L 588.610725 200.171657 
L 598.059175 203.043787 
L 607.507625 206.049422 
L 616.956075 209.80059 
L 626.404525 214.349712 
L 635.852975 219.2821 
L 645.301425 224.252657 
L 654.749875 229.320551 
L 664.198325 234.409364 
L 673.646775 239.010487 
L 683.095225 243.457854 
L 692.543675 247.994058 
L 701.992125 252.115076 
L 711.440575 255.712655 
L 720.889025 258.720623 
L 730.337475 261.334991 
L 739.785925 263.577175 
L 749.234375 265.333587 
L 758.682825 266.779486 
L 768.131275 268.055877 
L 777.579725 269.116258 
L 787.028175 269.980213 
L 796.476625 270.73308 
L 805.925075 271.370859 
L 815.373525 271.842713 
L 824.821975 272.242648 
L 834.270425 272.597414 
L 843.718875 272.887344 
L 853.167325 273.115354 
L 862.615775 273.273278 
L 872.064225 273.40595 
L 881.512675 273.527873 
L 890.961125 273.635127 
L 900.409575 273.720548 
L 909.858025 273.772967 
L 919.306475 273.826553 
L 928.754925 273.882055 
L 938.203375 273.92039 
L 947.651825 273.939141 
L 957.100275 273.942558 
L 966.548725 273.959475 
L 975.997175 273.977059 
L 985.445625 273.978059 
" clip-path="url(#p91b23dcd5e)" style="fill: none; stroke: #5cb85c; stroke-linecap: square"/>
   </g>
   <g id="line2d_16">
    <path d="M 40.600625 273.892056 
L 50.049075 273.890556 
L 59.497525 273.822886 
L 68.945975 273.749299 
L 78.394425 273.733132 
L 87.842875 273.699214 
L 97.291325 273.623544 
L 106.739775 273.537456 
L 116.188225 273.463036 
L 125.636675 273.381116 
L 135.085125 273.271861 
L 144.533575 273.146022 
L 153.982025 273.018933 
L 163.430475 272.864759 
L 172.878925 272.725336 
L 182.327375 272.592664 
L 191.775825 272.412156 
L 201.224275 272.174812 
L 210.672725 271.845464 
L 220.121175 271.31994 
L 229.569625 270.463401 
L 239.018075 269.226346 
L 248.466525 267.403514 
L 257.914975 264.825398 
L 267.363425 261.45658 
L 276.811875 257.258724 
L 286.260325 252.025406 
L 295.708775 245.659703 
L 305.157225 238.415127 
L 314.605675 230.264011 
L 324.054125 221.311775 
L 333.502575 212.185531 
L 342.951025 202.555098 
L 352.399475 191.637524 
L 361.847925 179.385306 
L 371.296375 166.362804 
L 380.744825 152.460846 
L 390.193275 137.354083 
L 399.641725 123.238032 
L 409.090175 110.101858 
L 418.538625 98.370997 
L 427.987075 88.003197 
L 437.435525 77.998081 
L 446.883975 70.247232 
L 456.332425 64.703316 
L 465.780875 59.716342 
L 475.229325 56.096263 
L 484.677775 55.364896 
L 494.126225 55.326811 
L 503.574675 54.546943 
L 513.023125 53.441227 
L 522.471575 53.190799 
L 531.920025 55.53082 
L 541.368475 59.487082 
L 550.816925 63.649436 
L 560.265375 68.031883 
L 569.713825 74.223911 
L 579.162275 81.583325 
L 588.610725 88.419466 
L 598.059175 95.123434 
L 607.507625 102.543268 
L 616.956075 112.181618 
L 626.404525 123.949647 
L 635.852975 136.395873 
L 645.301425 149.07636 
L 654.749875 162.032693 
L 664.198325 174.946523 
L 673.646775 186.708052 
L 683.095225 197.700546 
L 692.543675 208.75371 
L 701.992125 219.076424 
L 711.440575 228.239586 
L 720.889025 235.824677 
L 730.337475 242.205798 
L 739.785925 247.59729 
L 749.234375 251.96607 
L 758.682825 255.53698 
L 768.131275 258.637036 
L 777.579725 261.327657 
L 787.028175 263.547424 
L 796.476625 265.492345 
L 805.925075 267.094167 
L 815.373525 268.35089 
L 824.821975 269.486274 
L 834.270425 270.43665 
L 843.718875 271.187184 
L 853.167325 271.760126 
L 862.615775 272.168895 
L 872.064225 272.537245 
L 881.512675 272.860093 
L 890.961125 273.131771 
L 900.409575 273.33028 
L 909.858025 273.429535 
L 919.306475 273.551624 
L 928.754925 273.708881 
L 938.203375 273.817969 
L 947.651825 273.859221 
L 957.100275 273.865888 
L 966.548725 273.912223 
L 975.997175 273.958975 
L 985.445625 273.960225 
" clip-path="url(#p91b23dcd5e)" style="fill: none; stroke: #5cb85c; stroke-linecap: square"/>
   </g>
   <g id="line2d_17">
    <path d="M 40.600625 273.91289 
L 50.049075 273.912056 
L 59.497525 273.866138 
L 68.945975 273.817636 
L 78.394425 273.807468 
L 87.842875 273.778217 
L 97.291325 273.724881 
L 106.739775 273.669129 
L 116.188225 273.61696 
L 125.636675 273.558541 
L 135.085125 273.492454 
L 144.533575 273.417201 
L 153.982025 273.337281 
L 163.430475 273.239693 
L 172.878925 273.141522 
L 182.327375 273.043434 
L 191.775825 272.914012 
L 201.224275 272.744837 
L 210.672725 272.515327 
L 220.121175 272.156728 
L 229.569625 271.592202 
L 239.018075 270.789999 
L 248.466525 269.62603 
L 257.914975 267.997041 
L 267.363425 265.886862 
L 276.811875 263.216076 
L 286.260325 259.908093 
L 295.708775 255.989251 
L 305.157225 251.514633 
L 314.605675 246.439238 
L 324.054125 240.964908 
L 333.502575 235.50558 
L 342.951025 229.756904 
L 352.399475 223.155441 
L 361.847925 215.992869 
L 371.296375 208.418528 
L 380.744825 200.15749 
L 390.193275 191.336677 
L 399.641725 183.221812 
L 409.090175 175.714641 
L 418.538625 168.72016 
L 427.987075 162.679722 
L 437.435525 157.259145 
L 446.883975 152.865864 
L 456.332425 149.668887 
L 465.780875 146.986849 
L 475.229325 144.854504 
L 484.677775 144.512405 
L 494.126225 144.960258 
L 503.574675 144.834586 
L 513.023125 144.305729 
L 522.471575 143.803373 
L 531.920025 144.649494 
L 541.368475 146.734255 
L 550.816925 149.006857 
L 560.265375 151.421465 
L 569.713825 154.826869 
L 579.162275 158.882634 
L 588.610725 162.830978 
L 598.059175 166.672068 
L 607.507625 170.839422 
L 616.956075 176.166245 
L 626.404525 182.742374 
L 635.852975 190.06987 
L 645.301425 197.358781 
L 654.749875 204.97204 
L 664.198325 212.781558 
L 673.646775 219.766205 
L 683.095225 226.450256 
L 692.543675 233.167974 
L 701.992125 239.545595 
L 711.440575 245.210266 
L 720.889025 249.879893 
L 730.337475 253.952659 
L 739.785925 257.361562 
L 749.234375 260.099685 
L 758.682825 262.406789 
L 768.131275 264.377211 
L 777.579725 266.066454 
L 787.028175 267.464017 
L 796.476625 268.634486 
L 805.925075 269.634031 
L 815.373525 270.412649 
L 824.821975 271.117097 
L 834.270425 271.721291 
L 843.718875 272.180395 
L 853.167325 272.531494 
L 862.615775 272.793423 
L 872.064225 273.043851 
L 881.512675 273.265694 
L 890.961125 273.430618 
L 900.409575 273.55329 
L 909.858025 273.628377 
L 919.306475 273.718881 
L 928.754925 273.817802 
L 938.203375 273.882805 
L 947.651825 273.914723 
L 957.100275 273.921057 
L 966.548725 273.947641 
L 975.997175 273.974309 
L 985.445625 273.975059 
" clip-path="url(#p91b23dcd5e)" style="fill: none; stroke: #5cb85c; stroke-linecap: square"/>
   </g>
   <g id="line2d_18">
    <path d="M 40.600625 273.935058 
L 50.049075 273.935891 
L 59.497525 273.896472 
L 68.945975 273.852054 
L 78.394425 273.840053 
L 87.842875 273.815969 
L 97.291325 273.7738 
L 106.739775 273.727298 
L 116.188225 273.682546 
L 125.636675 273.62646 
L 135.085125 273.560124 
L 144.533575 273.491038 
L 153.982025 273.417451 
L 163.430475 273.321947 
L 172.878925 273.238276 
L 182.327375 273.161939 
L 191.775825 273.061685 
L 201.224275 272.927262 
L 210.672725 272.718086 
L 220.121175 272.405655 
L 229.569625 271.90705 
L 239.018075 271.219102 
L 248.466525 270.247475 
L 257.914975 268.852912 
L 267.363425 267.03083 
L 276.811875 264.706893 
L 286.260325 261.708591 
L 295.708775 258.083595 
L 305.157225 254.037996 
L 314.605675 249.497625 
L 324.054125 244.522152 
L 333.502575 239.437506 
L 342.951025 234.177853 
L 352.399475 228.074912 
L 361.847925 221.329692 
L 371.296375 214.237873 
L 380.744825 206.535777 
L 390.193275 198.226903 
L 399.641725 190.473055 
L 409.090175 183.112557 
L 418.538625 176.42759 
L 427.987075 170.700332 
L 437.435525 165.050828 
L 446.883975 160.494457 
L 456.332425 157.419735 
L 465.780875 154.571107 
L 475.229325 152.211668 
L 484.677775 151.815733 
L 494.126225 151.673977 
L 503.574675 151.023114 
L 513.023125 150.416504 
L 522.471575 149.719306 
L 531.920025 150.32925 
L 541.368475 152.304338 
L 550.816925 154.281677 
L 560.265375 156.18393 
L 569.713825 159.173731 
L 579.162275 162.998986 
L 588.610725 166.608732 
L 598.059175 169.958716 
L 607.507625 173.647632 
L 616.956075 178.574353 
L 626.404525 184.808217 
L 635.852975 191.756362 
L 645.301425 199.002022 
L 654.749875 206.324851 
L 664.198325 213.733851 
L 673.646775 220.628994 
L 683.095225 227.171288 
L 692.543675 233.753501 
L 701.992125 240.000532 
L 711.440575 245.620368 
L 720.889025 250.255743 
L 730.337475 254.262256 
L 739.785925 257.618407 
L 749.234375 260.257276 
L 758.682825 262.470625 
L 768.131275 264.476799 
L 777.579725 266.170292 
L 787.028175 267.472684 
L 796.476625 268.632402 
L 805.925075 269.657032 
L 815.373525 270.434317 
L 824.821975 271.118931 
L 834.270425 271.68529 
L 843.718875 272.157228 
L 853.167325 272.534328 
L 862.615775 272.797506 
L 872.064225 273.049268 
L 881.512675 273.263527 
L 890.961125 273.421868 
L 900.409575 273.540956 
L 909.858025 273.614126 
L 919.306475 273.711131 
L 928.754925 273.816969 
L 938.203375 273.882138 
L 947.651825 273.911973 
L 957.100275 273.91664 
L 966.548725 273.943225 
L 975.997175 273.969726 
L 985.445625 273.970226 
" clip-path="url(#p91b23dcd5e)" style="fill: none; stroke: #5cb85c; stroke-linecap: square"/>
   </g>
   <g id="line2d_19">
    <path d="M 40.600625 273.907556 
L 50.049075 273.907306 
L 59.497525 273.84722 
L 68.945975 273.782051 
L 78.394425 273.769133 
L 87.842875 273.738299 
L 97.291325 273.679296 
L 106.739775 273.605959 
L 116.188225 273.534706 
L 125.636675 273.460203 
L 135.085125 273.364782 
L 144.533575 273.261611 
L 153.982025 273.156439 
L 163.430475 273.02035 
L 172.878925 272.893427 
L 182.327375 272.783256 
L 191.775825 272.626832 
L 201.224275 272.407906 
L 210.672725 272.089641 
L 220.121175 271.595202 
L 229.569625 270.791916 
L 239.018075 269.627697 
L 248.466525 268.006208 
L 257.914975 265.737522 
L 267.363425 262.825475 
L 276.811875 259.248647 
L 286.260325 254.686025 
L 295.708775 249.217696 
L 305.157225 243.200592 
L 314.605675 236.451289 
L 324.054125 229.092041 
L 333.502575 221.620872 
L 342.951025 213.637263 
L 352.399475 204.619357 
L 361.847925 194.66216 
L 371.296375 184.151604 
L 380.744825 172.879514 
L 390.193275 160.617296 
L 399.641725 149.237534 
L 409.090175 138.644391 
L 418.538625 129.102379 
L 427.987075 120.865342 
L 437.435525 113.141411 
L 446.883975 107.021886 
L 456.332425 102.606854 
L 465.780875 98.417582 
L 475.229325 95.151019 
L 484.677775 94.509073 
L 494.126225 94.568909 
L 503.574675 93.785791 
L 513.023125 92.830831 
L 522.471575 92.438897 
L 531.920025 93.953465 
L 541.368475 97.239279 
L 550.816925 100.583263 
L 560.265375 104.00475 
L 569.713825 109.150481 
L 579.162275 115.144918 
L 588.610725 120.673416 
L 598.059175 126.389423 
L 607.507625 132.61012 
L 616.956075 140.398386 
L 626.404525 150.141325 
L 635.852975 160.596795 
L 645.301425 171.022597 
L 654.749875 181.581988 
L 664.198325 192.288553 
L 673.646775 202.214416 
L 683.095225 211.331909 
L 692.543675 220.446652 
L 701.992125 228.99512 
L 711.440575 236.397786 
L 720.889025 242.495811 
L 730.337475 247.656293 
L 739.785925 252.033823 
L 749.234375 255.500729 
L 758.682825 258.393109 
L 768.131275 261.004226 
L 777.579725 263.183491 
L 787.028175 264.985655 
L 796.476625 266.630479 
L 805.925075 268.005541 
L 815.373525 269.095173 
L 824.821975 270.091801 
L 834.270425 270.906671 
L 843.718875 271.545867 
L 853.167325 272.031222 
L 862.615775 272.385571 
L 872.064225 272.705086 
L 881.512675 272.979348 
L 890.961125 273.214692 
L 900.409575 273.401034 
L 909.858025 273.497955 
L 919.306475 273.611793 
L 928.754925 273.756216 
L 938.203375 273.848137 
L 947.651825 273.882305 
L 957.100275 273.888972 
L 966.548725 273.923557 
L 975.997175 273.958642 
L 985.445625 273.959725 
" clip-path="url(#p91b23dcd5e)" style="fill: none; stroke: #5cb85c; stroke-linecap: square"/>
   </g>
   <g id="line2d_20">
    <path d="M 40.600625 273.91139 
L 50.049075 273.908556 
L 59.497525 273.85172 
L 68.945975 273.792801 
L 78.394425 273.782134 
L 87.842875 273.749883 
L 97.291325 273.684046 
L 106.739775 273.618127 
L 116.188225 273.563457 
L 125.636675 273.499205 
L 135.085125 273.412951 
L 144.533575 273.307696 
L 153.982025 273.193608 
L 163.430475 273.063685 
L 172.878925 272.961514 
L 182.327375 272.860926 
L 191.775825 272.714086 
L 201.224275 272.529328 
L 210.672725 272.276983 
L 220.121175 271.873882 
L 229.569625 271.245937 
L 239.018075 270.324479 
L 248.466525 268.972918 
L 257.914975 267.068415 
L 267.363425 264.625056 
L 276.811875 261.540417 
L 286.260325 257.704661 
L 295.708775 252.992366 
L 305.157225 247.60079 
L 314.605675 241.648022 
L 324.054125 235.133563 
L 333.502575 228.470347 
L 342.951025 221.417363 
L 352.399475 213.48984 
L 361.847925 204.675777 
L 371.296375 195.194184 
L 380.744825 185.02306 
L 390.193275 174.264243 
L 399.641725 164.315962 
L 409.090175 154.840619 
L 418.538625 146.064391 
L 427.987075 138.513468 
L 437.435525 131.505403 
L 446.883975 126.006323 
L 456.332425 122.152066 
L 465.780875 118.607073 
L 475.229325 115.86845 
L 484.677775 115.302758 
L 494.126225 115.320426 
L 503.574675 115.061831 
L 513.023125 114.643645 
L 522.471575 114.265878 
L 531.920025 115.585437 
L 541.368475 118.513069 
L 550.816925 121.756215 
L 560.265375 125.103782 
L 569.713825 129.546315 
L 579.162275 134.743132 
L 588.610725 139.907864 
L 598.059175 144.908673 
L 607.507625 150.316249 
L 616.956075 157.113055 
L 626.404525 165.235003 
L 635.852975 174.225741 
L 645.301425 183.275814 
L 654.749875 192.341055 
L 664.198325 201.551303 
L 673.646775 210.035518 
L 683.095225 217.923206 
L 692.543675 225.807977 
L 701.992125 233.311981 
L 711.440575 239.840524 
L 720.889025 245.297103 
L 730.337475 250.078151 
L 739.785925 254.031746 
L 749.234375 257.182221 
L 758.682825 259.844424 
L 768.131275 262.248782 
L 777.579725 264.291541 
L 787.028175 265.91803 
L 796.476625 267.338928 
L 805.925075 268.522564 
L 815.373525 269.451106 
L 824.821975 270.329729 
L 834.270425 271.083263 
L 843.718875 271.694373 
L 853.167325 272.156228 
L 862.615775 272.487409 
L 872.064225 272.80359 
L 881.512675 273.076102 
L 890.961125 273.281695 
L 900.409575 273.435785 
L 909.858025 273.532289 
L 919.306475 273.649128 
L 928.754925 273.7738 
L 938.203375 273.851637 
L 947.651825 273.887222 
L 957.100275 273.895139 
L 966.548725 273.929807 
L 975.997175 273.965726 
L 985.445625 273.967726 
" clip-path="url(#p91b23dcd5e)" style="fill: none; stroke: #5cb85c; stroke-linecap: square"/>
   </g>
   <g id="line2d_21">
    <path d="M 40.600625 273.99006 
L 985.445625 273.99006 
" clip-path="url(#p91b23dcd5e)" style="fill: none; stroke: #dedede; stroke-width: 2; stroke-linecap: square"/>
   </g>
   <g id="text_18">
    <!-- FastQC: Per Sequence GC Content -->
    <g transform="translate(376.386875 19.3575)scale(0.16 -0.16)">
     <defs>
      <path id="DejaVuSans-46" d="M 628 4666 
L 3309 4666 
L 3309 4134 
L 1259 4134 
L 1259 2759 
L 3109 2759 
L 3109 2228 
L 1259 2228 
L 1259 0 
L 628 0 
L 628 4666 
z
" transform="scale(0.015625)"/>
      <path id="DejaVuSans-61" d="M 2194 1759 
Q 1497 1759 1228 1600 
Q 959 1441 959 1056 
Q 959 750 1161 570 
Q 1363 391 1709 391 
Q 2188 391 2477 730 
Q 2766 1069 2766 1631 
L 2766 1759 
L 2194 1759 
z
M 3341 1997 
L 3341 0 
L 2766 0 
L 2766 531 
Q 2569 213 2275 61 
Q 1981 -91 1556 -91 
Q 1019 -91 701 211 
Q 384 513 384 1019 
Q 384 1609 779 1909 
Q 1175 2209 1959 2209 
L 2766 2209 
L 2766 2266 
Q 2766 2663 2505 2880 
Q 2244 3097 1772 3097 
Q 1472 3097 1187 3025 
Q 903 2953 641 2809 
L 641 3341 
Q 956 3463 1253 3523 
Q 1550 3584 1831 3584 
Q 2591 3584 2966 3190 
Q 3341 2797 3341 1997 
z
" transform="scale(0.015625)"/>
      <path id="DejaVuSans-73" d="M 2834 3397 
L 2834 2853 
Q 2591 2978 2328 3040 
Q 2066 3103 1784 3103 
Q 1356 3103 1142 2972 
Q 928 2841 928 2578 
Q 928 2378 1081 2264 
Q 1234 2150 1697 2047 
L 1894 2003 
Q 2506 1872 2764 1633 
Q 3022 1394 3022 966 
Q 3022 478 2636 193 
Q 2250 -91 1575 -91 
Q 1294 -91 989 -36 
Q 684 19 347 128 
L 347 722 
Q 666 556 975 473 
Q 1284 391 1588 391 
Q 1994 391 2212 530 
Q 2431 669 2431 922 
Q 2431 1156 2273 1281 
Q 2116 1406 1581 1522 
L 1381 1569 
Q 847 1681 609 1914 
Q 372 2147 372 2553 
Q 372 3047 722 3315 
Q 1072 3584 1716 3584 
Q 2034 3584 2315 3537 
Q 2597 3491 2834 3397 
z
" transform="scale(0.015625)"/>
      <path id="DejaVuSans-51" d="M 2522 4238 
Q 1834 4238 1429 3725 
Q 1025 3213 1025 2328 
Q 1025 1447 1429 934 
Q 1834 422 2522 422 
Q 3209 422 3611 934 
Q 4013 1447 4013 2328 
Q 4013 3213 3611 3725 
Q 3209 4238 2522 4238 
z
M 3406 84 
L 4238 -825 
L 3475 -825 
L 2784 -78 
Q 2681 -84 2626 -87 
Q 2572 -91 2522 -91 
Q 1538 -91 948 567 
Q 359 1225 359 2328 
Q 359 3434 948 4092 
Q 1538 4750 2522 4750 
Q 3503 4750 4090 4092 
Q 4678 3434 4678 2328 
Q 4678 1516 4351 937 
Q 4025 359 3406 84 
z
" transform="scale(0.015625)"/>
      <path id="DejaVuSans-3a" d="M 750 794 
L 1409 794 
L 1409 0 
L 750 0 
L 750 794 
z
M 750 3309 
L 1409 3309 
L 1409 2516 
L 750 2516 
L 750 3309 
z
" transform="scale(0.015625)"/>
      <path id="DejaVuSans-50" d="M 1259 4147 
L 1259 2394 
L 2053 2394 
Q 2494 2394 2734 2622 
Q 2975 2850 2975 3272 
Q 2975 3691 2734 3919 
Q 2494 4147 2053 4147 
L 1259 4147 
z
M 628 4666 
L 2053 4666 
Q 2838 4666 3239 4311 
Q 3641 3956 3641 3272 
Q 3641 2581 3239 2228 
Q 2838 1875 2053 1875 
L 1259 1875 
L 1259 0 
L 628 0 
L 628 4666 
z
" transform="scale(0.015625)"/>
      <path id="DejaVuSans-72" d="M 2631 2963 
Q 2534 3019 2420 3045 
Q 2306 3072 2169 3072 
Q 1681 3072 1420 2755 
Q 1159 2438 1159 1844 
L 1159 0 
L 581 0 
L 581 3500 
L 1159 3500 
L 1159 2956 
Q 1341 3275 1631 3429 
Q 1922 3584 2338 3584 
Q 2397 3584 2469 3576 
Q 2541 3569 2628 3553 
L 2631 2963 
z
" transform="scale(0.015625)"/>
      <path id="DejaVuSans-53" d="M 3425 4513 
L 3425 3897 
Q 3066 4069 2747 4153 
Q 2428 4238 2131 4238 
Q 1616 4238 1336 4038 
Q 1056 3838 1056 3469 
Q 1056 3159 1242 3001 
Q 1428 2844 1947 2747 
L 2328 2669 
Q 3034 2534 3370 2195 
Q 3706 1856 3706 1288 
Q 3706 609 3251 259 
Q 2797 -91 1919 -91 
Q 1588 -91 1214 -16 
Q 841 59 441 206 
L 441 856 
Q 825 641 1194 531 
Q 1563 422 1919 422 
Q 2459 422 2753 634 
Q 3047 847 3047 1241 
Q 3047 1584 2836 1778 
Q 2625 1972 2144 2069 
L 1759 2144 
Q 1053 2284 737 2584 
Q 422 2884 422 3419 
Q 422 4038 858 4394 
Q 1294 4750 2059 4750 
Q 2388 4750 2728 4690 
Q 3069 4631 3425 4513 
z
" transform="scale(0.015625)"/>
      <path id="DejaVuSans-71" d="M 947 1747 
Q 947 1113 1208 752 
Q 1469 391 1925 391 
Q 2381 391 2643 752 
Q 2906 1113 2906 1747 
Q 2906 2381 2643 2742 
Q 2381 3103 1925 3103 
Q 1469 3103 1208 2742 
Q 947 2381 947 1747 
z
M 2906 525 
Q 2725 213 2448 61 
Q 2172 -91 1784 -91 
Q 1150 -91 751 415 
Q 353 922 353 1747 
Q 353 2572 751 3078 
Q 1150 3584 1784 3584 
Q 2172 3584 2448 3432 
Q 2725 3281 2906 2969 
L 2906 3500 
L 3481 3500 
L 3481 -1331 
L 2906 -1331 
L 2906 525 
z
" transform="scale(0.015625)"/>
      <path id="DejaVuSans-63" d="M 3122 3366 
L 3122 2828 
Q 2878 2963 2633 3030 
Q 2388 3097 2138 3097 
Q 1578 3097 1268 2742 
Q 959 2388 959 1747 
Q 959 1106 1268 751 
Q 1578 397 2138 397 
Q 2388 397 2633 464 
Q 2878 531 3122 666 
L 3122 134 
Q 2881 22 2623 -34 
Q 2366 -91 2075 -91 
Q 1284 -91 818 406 
Q 353 903 353 1747 
Q 353 2603 823 3093 
Q 1294 3584 2113 3584 
Q 2378 3584 2631 3529 
Q 2884 3475 3122 3366 
z
" transform="scale(0.015625)"/>
     </defs>
     <use xlink:href="#DejaVuSans-46"/>
     <use xlink:href="#DejaVuSans-61" x="48.394531"/>
     <use xlink:href="#DejaVuSans-73" x="109.673828"/>
     <use xlink:href="#DejaVuSans-74" x="161.773438"/>
     <use xlink:href="#DejaVuSans-51" x="200.982422"/>
     <use xlink:href="#DejaVuSans-43" x="279.693359"/>
     <use xlink:href="#DejaVuSans-3a" x="349.517578"/>
     <use xlink:href="#DejaVuSans-20" x="383.208984"/>
     <use xlink:href="#DejaVuSans-50" x="414.996094"/>
     <use xlink:href="#DejaVuSans-65" x="471.673828"/>
     <use xlink:href="#DejaVuSans-72" x="533.197266"/>
     <use xlink:href="#DejaVuSans-20" x="574.310547"/>
     <use xlink:href="#DejaVuSans-53" x="606.097656"/>
     <use xlink:href="#DejaVuSans-65" x="669.574219"/>
     <use xlink:href="#DejaVuSans-71" x="731.097656"/>
     <use xlink:href="#DejaVuSans-75" x="794.574219"/>
     <use xlink:href="#DejaVuSans-65" x="857.953125"/>
     <use xlink:href="#DejaVuSans-6e" x="919.476562"/>
     <use xlink:href="#DejaVuSans-63" x="982.855469"/>
     <use xlink:href="#DejaVuSans-65" x="1037.835938"/>
     <use xlink:href="#DejaVuSans-20" x="1099.359375"/>
     <use xlink:href="#DejaVuSans-47" x="1131.146484"/>
     <use xlink:href="#DejaVuSans-43" x="1208.636719"/>
     <use xlink:href="#DejaVuSans-20" x="1278.460938"/>
     <use xlink:href="#DejaVuSans-43" x="1310.248047"/>
     <use xlink:href="#DejaVuSans-6f" x="1380.072266"/>
     <use xlink:href="#DejaVuSans-6e" x="1441.253906"/>
     <use xlink:href="#DejaVuSans-74" x="1504.632812"/>
     <use xlink:href="#DejaVuSans-65" x="1543.841797"/>
     <use xlink:href="#DejaVuSans-6e" x="1605.365234"/>
     <use xlink:href="#DejaVuSans-74" x="1668.744141"/>
    </g>
   </g>
   <g id="legend_1">
    <g id="line2d_22">
     <path d="M 47.800625 292.192894 
L 55.800625 292.192894 
L 63.800625 292.192894 
" style="fill: none; stroke: #5cb85c; stroke-linecap: square"/>
    </g>
    <g id="text_19">
     <!-- SRR2155413 -->
     <g transform="translate(70.200625 294.992894)scale(0.08 -0.08)">
      <defs>
       <path id="DejaVuSans-52" d="M 2841 2188 
Q 3044 2119 3236 1894 
Q 3428 1669 3622 1275 
L 4263 0 
L 3584 0 
L 2988 1197 
Q 2756 1666 2539 1819 
Q 2322 1972 1947 1972 
L 1259 1972 
L 1259 0 
L 628 0 
L 628 4666 
L 2053 4666 
Q 2853 4666 3247 4331 
Q 3641 3997 3641 3322 
Q 3641 2881 3436 2590 
Q 3231 2300 2841 2188 
z
M 1259 4147 
L 1259 2491 
L 2053 2491 
Q 2509 2491 2742 2702 
Q 2975 2913 2975 3322 
Q 2975 3731 2742 3939 
Q 2509 4147 2053 4147 
L 1259 4147 
z
" transform="scale(0.015625)"/>
       <path id="DejaVuSans-35" d="M 691 4666 
L 3169 4666 
L 3169 4134 
L 1269 4134 
L 1269 2991 
Q 1406 3038 1543 3061 
Q 1681 3084 1819 3084 
Q 2600 3084 3056 2656 
Q 3513 2228 3513 1497 
Q 3513 744 3044 326 
Q 2575 -91 1722 -91 
Q 1428 -91 1123 -41 
Q 819 9 494 109 
L 494 744 
Q 775 591 1075 516 
Q 1375 441 1709 441 
Q 2250 441 2565 725 
Q 2881 1009 2881 1497 
Q 2881 1984 2565 2268 
Q 2250 2553 1709 2553 
Q 1456 2553 1204 2497 
Q 953 2441 691 2322 
L 691 4666 
z
" transform="scale(0.015625)"/>
       <path id="DejaVuSans-33" d="M 2597 2516 
Q 3050 2419 3304 2112 
Q 3559 1806 3559 1356 
Q 3559 666 3084 287 
Q 2609 -91 1734 -91 
Q 1441 -91 1130 -33 
Q 819 25 488 141 
L 488 750 
Q 750 597 1062 519 
Q 1375 441 1716 441 
Q 2309 441 2620 675 
Q 2931 909 2931 1356 
Q 2931 1769 2642 2001 
Q 2353 2234 1838 2234 
L 1294 2234 
L 1294 2753 
L 1863 2753 
Q 2328 2753 2575 2939 
Q 2822 3125 2822 3475 
Q 2822 3834 2567 4026 
Q 2313 4219 1838 4219 
Q 1578 4219 1281 4162 
Q 984 4106 628 3988 
L 628 4550 
Q 988 4650 1302 4700 
Q 1616 4750 1894 4750 
Q 2613 4750 3031 4423 
Q 3450 4097 3450 3541 
Q 3450 3153 3228 2886 
Q 3006 2619 2597 2516 
z
" transform="scale(0.015625)"/>
      </defs>
      <use xlink:href="#DejaVuSans-53"/>
      <use xlink:href="#DejaVuSans-52" x="63.476562"/>
      <use xlink:href="#DejaVuSans-52" x="132.958984"/>
      <use xlink:href="#DejaVuSans-32" x="202.441406"/>
      <use xlink:href="#DejaVuSans-31" x="266.064453"/>
      <use xlink:href="#DejaVuSans-35" x="329.6875"/>
      <use xlink:href="#DejaVuSans-35" x="393.310547"/>
      <use xlink:href="#DejaVuSans-34" x="456.933594"/>
      <use xlink:href="#DejaVuSans-31" x="520.556641"/>
      <use xlink:href="#DejaVuSans-33" x="584.179688"/>
     </g>
    </g>
    <g id="line2d_23">
     <path d="M 47.800625 303.935394 
L 55.800625 303.935394 
L 63.800625 303.935394 
" style="fill: none; stroke: #5cb85c; stroke-linecap: square"/>
    </g>
    <g id="text_20">
     <!-- SRR2155414 -->
     <g transform="translate(70.200625 306.735394)scale(0.08 -0.08)">
      <use xlink:href="#DejaVuSans-53"/>
      <use xlink:href="#DejaVuSans-52" x="63.476562"/>
      <use xlink:href="#DejaVuSans-52" x="132.958984"/>
      <use xlink:href="#DejaVuSans-32" x="202.441406"/>
      <use xlink:href="#DejaVuSans-31" x="266.064453"/>
      <use xlink:href="#DejaVuSans-35" x="329.6875"/>
      <use xlink:href="#DejaVuSans-35" x="393.310547"/>
      <use xlink:href="#DejaVuSans-34" x="456.933594"/>
      <use xlink:href="#DejaVuSans-31" x="520.556641"/>
      <use xlink:href="#DejaVuSans-34" x="584.179688"/>
     </g>
    </g>
    <g id="line2d_24">
     <path d="M 47.800625 315.677894 
L 55.800625 315.677894 
L 63.800625 315.677894 
" style="fill: none; stroke: #5cb85c; stroke-linecap: square"/>
    </g>
    <g id="text_21">
     <!-- SRR2155415 -->
     <g transform="translate(70.200625 318.477894)scale(0.08 -0.08)">
      <use xlink:href="#DejaVuSans-53"/>
      <use xlink:href="#DejaVuSans-52" x="63.476562"/>
      <use xlink:href="#DejaVuSans-52" x="132.958984"/>
      <use xlink:href="#DejaVuSans-32" x="202.441406"/>
      <use xlink:href="#DejaVuSans-31" x="266.064453"/>
      <use xlink:href="#DejaVuSans-35" x="329.6875"/>
      <use xlink:href="#DejaVuSans-35" x="393.310547"/>
      <use xlink:href="#DejaVuSans-34" x="456.933594"/>
      <use xlink:href="#DejaVuSans-31" x="520.556641"/>
      <use xlink:href="#DejaVuSans-35" x="584.179688"/>
     </g>
    </g>
    <g id="line2d_25">
     <path d="M 261.855313 292.192894 
L 269.855313 292.192894 
L 277.855313 292.192894 
" style="fill: none; stroke: #5cb85c; stroke-linecap: square"/>
    </g>
    <g id="text_22">
     <!-- SRR2155416 -->
     <g transform="translate(284.255313 294.992894)scale(0.08 -0.08)">
      <use xlink:href="#DejaVuSans-53"/>
      <use xlink:href="#DejaVuSans-52" x="63.476562"/>
      <use xlink:href="#DejaVuSans-52" x="132.958984"/>
      <use xlink:href="#DejaVuSans-32" x="202.441406"/>
      <use xlink:href="#DejaVuSans-31" x="266.064453"/>
      <use xlink:href="#DejaVuSans-35" x="329.6875"/>
      <use xlink:href="#DejaVuSans-35" x="393.310547"/>
      <use xlink:href="#DejaVuSans-34" x="456.933594"/>
      <use xlink:href="#DejaVuSans-31" x="520.556641"/>
      <use xlink:href="#DejaVuSans-36" x="584.179688"/>
     </g>
    </g>
    <g id="line2d_26">
     <path d="M 261.855313 303.935394 
L 269.855313 303.935394 
L 277.855313 303.935394 
" style="fill: none; stroke: #5cb85c; stroke-linecap: square"/>
    </g>
    <g id="text_23">
     <!-- SRR2155417 -->
     <g transform="translate(284.255313 306.735394)scale(0.08 -0.08)">
      <defs>
       <path id="DejaVuSans-37" d="M 525 4666 
L 3525 4666 
L 3525 4397 
L 1831 0 
L 1172 0 
L 2766 4134 
L 525 4134 
L 525 4666 
z
" transform="scale(0.015625)"/>
      </defs>
      <use xlink:href="#DejaVuSans-53"/>
      <use xlink:href="#DejaVuSans-52" x="63.476562"/>
      <use xlink:href="#DejaVuSans-52" x="132.958984"/>
      <use xlink:href="#DejaVuSans-32" x="202.441406"/>
      <use xlink:href="#DejaVuSans-31" x="266.064453"/>
      <use xlink:href="#DejaVuSans-35" x="329.6875"/>
      <use xlink:href="#DejaVuSans-35" x="393.310547"/>
      <use xlink:href="#DejaVuSans-34" x="456.933594"/>
      <use xlink:href="#DejaVuSans-31" x="520.556641"/>
      <use xlink:href="#DejaVuSans-37" x="584.179688"/>
     </g>
    </g>
    <g id="line2d_27">
     <path d="M 261.855313 315.677894 
L 269.855313 315.677894 
L 277.855313 315.677894 
" style="fill: none; stroke: #5cb85c; stroke-linecap: square"/>
    </g>
    <g id="text_24">
     <!-- SRR2155418 -->
     <g transform="translate(284.255313 318.477894)scale(0.08 -0.08)">
      <use xlink:href="#DejaVuSans-53"/>
      <use xlink:href="#DejaVuSans-52" x="63.476562"/>
      <use xlink:href="#DejaVuSans-52" x="132.958984"/>
      <use xlink:href="#DejaVuSans-32" x="202.441406"/>
      <use xlink:href="#DejaVuSans-31" x="266.064453"/>
      <use xlink:href="#DejaVuSans-35" x="329.6875"/>
      <use xlink:href="#DejaVuSans-35" x="393.310547"/>
      <use xlink:href="#DejaVuSans-34" x="456.933594"/>
      <use xlink:href="#DejaVuSans-31" x="520.556641"/>
      <use xlink:href="#DejaVuSans-38" x="584.179688"/>
     </g>
    </g>
    <g id="line2d_28">
     <path d="M 475.91 292.192894 
L 483.91 292.192894 
L 491.91 292.192894 
" style="fill: none; stroke: #5cb85c; stroke-linecap: square"/>
    </g>
    <g id="text_25">
     <!-- SRR2155419 -->
     <g transform="translate(498.31 294.992894)scale(0.08 -0.08)">
      <defs>
       <path id="DejaVuSans-39" d="M 703 97 
L 703 672 
Q 941 559 1184 500 
Q 1428 441 1663 441 
Q 2288 441 2617 861 
Q 2947 1281 2994 2138 
Q 2813 1869 2534 1725 
Q 2256 1581 1919 1581 
Q 1219 1581 811 2004 
Q 403 2428 403 3163 
Q 403 3881 828 4315 
Q 1253 4750 1959 4750 
Q 2769 4750 3195 4129 
Q 3622 3509 3622 2328 
Q 3622 1225 3098 567 
Q 2575 -91 1691 -91 
Q 1453 -91 1209 -44 
Q 966 3 703 97 
z
M 1959 2075 
Q 2384 2075 2632 2365 
Q 2881 2656 2881 3163 
Q 2881 3666 2632 3958 
Q 2384 4250 1959 4250 
Q 1534 4250 1286 3958 
Q 1038 3666 1038 3163 
Q 1038 2656 1286 2365 
Q 1534 2075 1959 2075 
z
" transform="scale(0.015625)"/>
      </defs>
      <use xlink:href="#DejaVuSans-53"/>
      <use xlink:href="#DejaVuSans-52" x="63.476562"/>
      <use xlink:href="#DejaVuSans-52" x="132.958984"/>
      <use xlink:href="#DejaVuSans-32" x="202.441406"/>
      <use xlink:href="#DejaVuSans-31" x="266.064453"/>
      <use xlink:href="#DejaVuSans-35" x="329.6875"/>
      <use xlink:href="#DejaVuSans-35" x="393.310547"/>
      <use xlink:href="#DejaVuSans-34" x="456.933594"/>
      <use xlink:href="#DejaVuSans-31" x="520.556641"/>
      <use xlink:href="#DejaVuSans-39" x="584.179688"/>
     </g>
    </g>
    <g id="line2d_29">
     <path d="M 475.91 303.935394 
L 483.91 303.935394 
L 491.91 303.935394 
" style="fill: none; stroke: #5cb85c; stroke-linecap: square"/>
    </g>
    <g id="text_26">
     <!-- SRR2155420 -->
     <g transform="translate(498.31 306.735394)scale(0.08 -0.08)">
      <use xlink:href="#DejaVuSans-53"/>
      <use xlink:href="#DejaVuSans-52" x="63.476562"/>
      <use xlink:href="#DejaVuSans-52" x="132.958984"/>
      <use xlink:href="#DejaVuSans-32" x="202.441406"/>
      <use xlink:href="#DejaVuSans-31" x="266.064453"/>
      <use xlink:href="#DejaVuSans-35" x="329.6875"/>
      <use xlink:href="#DejaVuSans-35" x="393.310547"/>
      <use xlink:href="#DejaVuSans-34" x="456.933594"/>
      <use xlink:href="#DejaVuSans-32" x="520.556641"/>
      <use xlink:href="#DejaVuSans-30" x="584.179688"/>
     </g>
    </g>
    <g id="line2d_30">
     <path d="M 689.964687 292.192894 
L 697.964687 292.192894 
L 705.964687 292.192894 
" style="fill: none; stroke: #5cb85c; stroke-linecap: square"/>
    </g>
    <g id="text_27">
     <!-- SRR2155421 -->
     <g transform="translate(712.364687 294.992894)scale(0.08 -0.08)">
      <use xlink:href="#DejaVuSans-53"/>
      <use xlink:href="#DejaVuSans-52" x="63.476562"/>
      <use xlink:href="#DejaVuSans-52" x="132.958984"/>
      <use xlink:href="#DejaVuSans-32" x="202.441406"/>
      <use xlink:href="#DejaVuSans-31" x="266.064453"/>
      <use xlink:href="#DejaVuSans-35" x="329.6875"/>
      <use xlink:href="#DejaVuSans-35" x="393.310547"/>
      <use xlink:href="#DejaVuSans-34" x="456.933594"/>
      <use xlink:href="#DejaVuSans-32" x="520.556641"/>
      <use xlink:href="#DejaVuSans-31" x="584.179688"/>
     </g>
    </g>
    <g id="line2d_31">
     <path d="M 689.964687 303.935394 
L 697.964687 303.935394 
L 705.964687 303.935394 
" style="fill: none; stroke: #5cb85c; stroke-linecap: square"/>
    </g>
    <g id="text_28">
     <!-- SRR2155422 -->
     <g transform="translate(712.364687 306.735394)scale(0.08 -0.08)">
      <use xlink:href="#DejaVuSans-53"/>
      <use xlink:href="#DejaVuSans-52" x="63.476562"/>
      <use xlink:href="#DejaVuSans-52" x="132.958984"/>
      <use xlink:href="#DejaVuSans-32" x="202.441406"/>
      <use xlink:href="#DejaVuSans-31" x="266.064453"/>
      <use xlink:href="#DejaVuSans-35" x="329.6875"/>
      <use xlink:href="#DejaVuSans-35" x="393.310547"/>
      <use xlink:href="#DejaVuSans-34" x="456.933594"/>
      <use xlink:href="#DejaVuSans-32" x="520.556641"/>
      <use xlink:href="#DejaVuSans-32" x="584.179688"/>
     </g>
    </g>
    <g id="line2d_32">
     <path d="M 904.019375 292.192894 
L 912.019375 292.192894 
L 920.019375 292.192894 
" style="fill: none; stroke: #5cb85c; stroke-linecap: square"/>
    </g>
    <g id="text_29">
     <!-- SRR2155423 -->
     <g transform="translate(926.419375 294.992894)scale(0.08 -0.08)">
      <use xlink:href="#DejaVuSans-53"/>
      <use xlink:href="#DejaVuSans-52" x="63.476562"/>
      <use xlink:href="#DejaVuSans-52" x="132.958984"/>
      <use xlink:href="#DejaVuSans-32" x="202.441406"/>
      <use xlink:href="#DejaVuSans-31" x="266.064453"/>
      <use xlink:href="#DejaVuSans-35" x="329.6875"/>
      <use xlink:href="#DejaVuSans-35" x="393.310547"/>
      <use xlink:href="#DejaVuSans-34" x="456.933594"/>
      <use xlink:href="#DejaVuSans-32" x="520.556641"/>
      <use xlink:href="#DejaVuSans-33" x="584.179688"/>
     </g>
    </g>
    <g id="line2d_33">
     <path d="M 904.019375 303.935394 
L 912.019375 303.935394 
L 920.019375 303.935394 
" style="fill: none; stroke: #5cb85c; stroke-linecap: square"/>
    </g>
    <g id="text_30">
     <!-- SRR2155424 -->
     <g transform="translate(926.419375 306.735394)scale(0.08 -0.08)">
      <use xlink:href="#DejaVuSans-53"/>
      <use xlink:href="#DejaVuSans-52" x="63.476562"/>
      <use xlink:href="#DejaVuSans-52" x="132.958984"/>
      <use xlink:href="#DejaVuSans-32" x="202.441406"/>
      <use xlink:href="#DejaVuSans-31" x="266.064453"/>
      <use xlink:href="#DejaVuSans-35" x="329.6875"/>
      <use xlink:href="#DejaVuSans-35" x="393.310547"/>
      <use xlink:href="#DejaVuSans-34" x="456.933594"/>
      <use xlink:href="#DejaVuSans-32" x="520.556641"/>
      <use xlink:href="#DejaVuSans-34" x="584.179688"/>
     </g>
    </g>
   </g>
  </g>
 </g>
 <defs>
  <clipPath id="p91b23dcd5e">
   <rect x="40.600625" y="31.48286" width="944.845" height="242.5072"/>
  </clipPath>
 </defs>
</svg>
