<?xml version="1.0" encoding="utf-8" standalone="no"?>
<!DOCTYPE svg PUBLIC "-//W3C//DTD SVG 1.1//EN"
  "http://www.w3.org/Graphics/SVG/1.1/DTD/svg11.dtd">
<svg xmlns:xlink="http://www.w3.org/1999/xlink" width="1000.278125pt" height="330.541644pt" viewBox="0 0 1000.278125 330.541644" xmlns="http://www.w3.org/2000/svg" version="1.1">
 <metadata>
  <rdf:RDF xmlns:dc="http://purl.org/dc/elements/1.1/" xmlns:cc="http://creativecommons.org/ns#" xmlns:rdf="http://www.w3.org/1999/02/22-rdf-syntax-ns#">
   <cc:Work>
    <dc:type rdf:resource="http://purl.org/dc/dcmitype/StillImage"/>
    <dc:date>2024-08-14T16:01:58.506043</dc:date>
    <dc:format>image/svg+xml</dc:format>
    <dc:creator>
     <cc:Agent>
      <dc:title>Matplotlib v3.5.3, https://matplotlib.org/</dc:title>
     </cc:Agent>
    </dc:creator>
   </cc:Work>
  </rdf:RDF>
 </metadata>
 <defs>
  <style type="text/css">*{stroke-linejoin: round; stroke-linecap: butt}</style>
 </defs>
 <g id="figure_1">
  <g id="axes_1">
   <g id="patch_1">
    <path d="M 43.148125 273.99006 
L 993.078125 273.99006 
L 993.078125 31.48286 
L 43.148125 31.48286 
z
" style="fill: #ffffff"/>
   </g>
   <g id="matplotlib.axis_1">
    <g id="xtick_1">
     <g id="text_1">
      <!-- 0 -->
      <g transform="translate(83.781551 287.06881)scale(0.08 -0.08)">
       <defs>
        <path id="DejaVuSans-30" d="M 2034 4250 
Q 1547 4250 1301 3770 
Q 1056 3291 1056 2328 
Q 1056 1369 1301 889 
Q 1547 409 2034 409 
Q 2525 409 2770 889 
Q 3016 1369 3016 2328 
Q 3016 3291 2770 3770 
Q 2525 4250 2034 4250 
z
M 2034 4750 
Q 2819 4750 3233 4129 
Q 3647 3509 3647 2328 
Q 3647 1150 3233 529 
Q 2819 -91 2034 -91 
Q 1250 -91 836 529 
Q 422 1150 422 2328 
Q 422 3509 836 4129 
Q 1250 4750 2034 4750 
z
" transform="scale(0.015625)"/>
       </defs>
       <use xlink:href="#DejaVuSans-30"/>
      </g>
     </g>
    </g>
    <g id="xtick_2">
     <g id="text_2">
      <!-- 10000 -->
      <g transform="translate(269.759393 287.06881)scale(0.08 -0.08)">
       <defs>
        <path id="DejaVuSans-31" d="M 794 531 
L 1825 531 
L 1825 4091 
L 703 3866 
L 703 4441 
L 1819 4666 
L 2450 4666 
L 2450 531 
L 3481 531 
L 3481 0 
L 794 0 
L 794 531 
z
" transform="scale(0.015625)"/>
       </defs>
       <use xlink:href="#DejaVuSans-31"/>
       <use xlink:href="#DejaVuSans-30" x="63.623047"/>
       <use xlink:href="#DejaVuSans-30" x="127.246094"/>
       <use xlink:href="#DejaVuSans-30" x="190.869141"/>
       <use xlink:href="#DejaVuSans-30" x="254.492188"/>
      </g>
     </g>
    </g>
    <g id="xtick_3">
     <g id="text_3">
      <!-- 20000 -->
      <g transform="translate(465.917234 287.06881)scale(0.08 -0.08)">
       <defs>
        <path id="DejaVuSans-32" d="M 1228 531 
L 3431 531 
L 3431 0 
L 469 0 
L 469 531 
Q 828 903 1448 1529 
Q 2069 2156 2228 2338 
Q 2531 2678 2651 2914 
Q 2772 3150 2772 3378 
Q 2772 3750 2511 3984 
Q 2250 4219 1831 4219 
Q 1534 4219 1204 4116 
Q 875 4013 500 3803 
L 500 4441 
Q 881 4594 1212 4672 
Q 1544 4750 1819 4750 
Q 2544 4750 2975 4387 
Q 3406 4025 3406 3419 
Q 3406 3131 3298 2873 
Q 3191 2616 2906 2266 
Q 2828 2175 2409 1742 
Q 1991 1309 1228 531 
z
" transform="scale(0.015625)"/>
       </defs>
       <use xlink:href="#DejaVuSans-32"/>
       <use xlink:href="#DejaVuSans-30" x="63.623047"/>
       <use xlink:href="#DejaVuSans-30" x="127.246094"/>
       <use xlink:href="#DejaVuSans-30" x="190.869141"/>
       <use xlink:href="#DejaVuSans-30" x="254.492188"/>
      </g>
     </g>
    </g>
    <g id="xtick_4">
     <g id="text_4">
      <!-- 30000 -->
      <g transform="translate(662.075076 287.06881)scale(0.08 -0.08)">
       <defs>
        <path id="DejaVuSans-33" d="M 2597 2516 
Q 3050 2419 3304 2112 
Q 3559 1806 3559 1356 
Q 3559 666 3084 287 
Q 2609 -91 1734 -91 
Q 1441 -91 1130 -33 
Q 819 25 488 141 
L 488 750 
Q 750 597 1062 519 
Q 1375 441 1716 441 
Q 2309 441 2620 675 
Q 2931 909 2931 1356 
Q 2931 1769 2642 2001 
Q 2353 2234 1838 2234 
L 1294 2234 
L 1294 2753 
L 1863 2753 
Q 2328 2753 2575 2939 
Q 2822 3125 2822 3475 
Q 2822 3834 2567 4026 
Q 2313 4219 1838 4219 
Q 1578 4219 1281 4162 
Q 984 4106 628 3988 
L 628 4550 
Q 988 4650 1302 4700 
Q 1616 4750 1894 4750 
Q 2613 4750 3031 4423 
Q 3450 4097 3450 3541 
Q 3450 3153 3228 2886 
Q 3006 2619 2597 2516 
z
" transform="scale(0.015625)"/>
       </defs>
       <use xlink:href="#DejaVuSans-33"/>
       <use xlink:href="#DejaVuSans-30" x="63.623047"/>
       <use xlink:href="#DejaVuSans-30" x="127.246094"/>
       <use xlink:href="#DejaVuSans-30" x="190.869141"/>
       <use xlink:href="#DejaVuSans-30" x="254.492188"/>
      </g>
     </g>
    </g>
    <g id="xtick_5">
     <g id="text_5">
      <!-- 40000 -->
      <g transform="translate(858.232918 287.06881)scale(0.08 -0.08)">
       <defs>
        <path id="DejaVuSans-34" d="M 2419 4116 
L 825 1625 
L 2419 1625 
L 2419 4116 
z
M 2253 4666 
L 3047 4666 
L 3047 1625 
L 3713 1625 
L 3713 1100 
L 3047 1100 
L 3047 0 
L 2419 0 
L 2419 1100 
L 313 1100 
L 313 1709 
L 2253 4666 
z
" transform="scale(0.015625)"/>
       </defs>
       <use xlink:href="#DejaVuSans-34"/>
       <use xlink:href="#DejaVuSans-30" x="63.623047"/>
       <use xlink:href="#DejaVuSans-30" x="127.246094"/>
       <use xlink:href="#DejaVuSans-30" x="190.869141"/>
       <use xlink:href="#DejaVuSans-30" x="254.492188"/>
      </g>
     </g>
    </g>
    <g id="text_6">
     <!-- expression (reads/kbp) -->
     <g transform="translate(460.863125 300.330997)scale(0.1 -0.1)">
      <defs>
       <path id="DejaVuSans-65" d="M 3597 1894 
L 3597 1613 
L 953 1613 
Q 991 1019 1311 708 
Q 1631 397 2203 397 
Q 2534 397 2845 478 
Q 3156 559 3463 722 
L 3463 178 
Q 3153 47 2828 -22 
Q 2503 -91 2169 -91 
Q 1331 -91 842 396 
Q 353 884 353 1716 
Q 353 2575 817 3079 
Q 1281 3584 2069 3584 
Q 2775 3584 3186 3129 
Q 3597 2675 3597 1894 
z
M 3022 2063 
Q 3016 2534 2758 2815 
Q 2500 3097 2075 3097 
Q 1594 3097 1305 2825 
Q 1016 2553 972 2059 
L 3022 2063 
z
" transform="scale(0.015625)"/>
       <path id="DejaVuSans-78" d="M 3513 3500 
L 2247 1797 
L 3578 0 
L 2900 0 
L 1881 1375 
L 863 0 
L 184 0 
L 1544 1831 
L 300 3500 
L 978 3500 
L 1906 2253 
L 2834 3500 
L 3513 3500 
z
" transform="scale(0.015625)"/>
       <path id="DejaVuSans-70" d="M 1159 525 
L 1159 -1331 
L 581 -1331 
L 581 3500 
L 1159 3500 
L 1159 2969 
Q 1341 3281 1617 3432 
Q 1894 3584 2278 3584 
Q 2916 3584 3314 3078 
Q 3713 2572 3713 1747 
Q 3713 922 3314 415 
Q 2916 -91 2278 -91 
Q 1894 -91 1617 61 
Q 1341 213 1159 525 
z
M 3116 1747 
Q 3116 2381 2855 2742 
Q 2594 3103 2138 3103 
Q 1681 3103 1420 2742 
Q 1159 2381 1159 1747 
Q 1159 1113 1420 752 
Q 1681 391 2138 391 
Q 2594 391 2855 752 
Q 3116 1113 3116 1747 
z
" transform="scale(0.015625)"/>
       <path id="DejaVuSans-72" d="M 2631 2963 
Q 2534 3019 2420 3045 
Q 2306 3072 2169 3072 
Q 1681 3072 1420 2755 
Q 1159 2438 1159 1844 
L 1159 0 
L 581 0 
L 581 3500 
L 1159 3500 
L 1159 2956 
Q 1341 3275 1631 3429 
Q 1922 3584 2338 3584 
Q 2397 3584 2469 3576 
Q 2541 3569 2628 3553 
L 2631 2963 
z
" transform="scale(0.015625)"/>
       <path id="DejaVuSans-73" d="M 2834 3397 
L 2834 2853 
Q 2591 2978 2328 3040 
Q 2066 3103 1784 3103 
Q 1356 3103 1142 2972 
Q 928 2841 928 2578 
Q 928 2378 1081 2264 
Q 1234 2150 1697 2047 
L 1894 2003 
Q 2506 1872 2764 1633 
Q 3022 1394 3022 966 
Q 3022 478 2636 193 
Q 2250 -91 1575 -91 
Q 1294 -91 989 -36 
Q 684 19 347 128 
L 347 722 
Q 666 556 975 473 
Q 1284 391 1588 391 
Q 1994 391 2212 530 
Q 2431 669 2431 922 
Q 2431 1156 2273 1281 
Q 2116 1406 1581 1522 
L 1381 1569 
Q 847 1681 609 1914 
Q 372 2147 372 2553 
Q 372 3047 722 3315 
Q 1072 3584 1716 3584 
Q 2034 3584 2315 3537 
Q 2597 3491 2834 3397 
z
" transform="scale(0.015625)"/>
       <path id="DejaVuSans-69" d="M 603 3500 
L 1178 3500 
L 1178 0 
L 603 0 
L 603 3500 
z
M 603 4863 
L 1178 4863 
L 1178 4134 
L 603 4134 
L 603 4863 
z
" transform="scale(0.015625)"/>
       <path id="DejaVuSans-6f" d="M 1959 3097 
Q 1497 3097 1228 2736 
Q 959 2375 959 1747 
Q 959 1119 1226 758 
Q 1494 397 1959 397 
Q 2419 397 2687 759 
Q 2956 1122 2956 1747 
Q 2956 2369 2687 2733 
Q 2419 3097 1959 3097 
z
M 1959 3584 
Q 2709 3584 3137 3096 
Q 3566 2609 3566 1747 
Q 3566 888 3137 398 
Q 2709 -91 1959 -91 
Q 1206 -91 779 398 
Q 353 888 353 1747 
Q 353 2609 779 3096 
Q 1206 3584 1959 3584 
z
" transform="scale(0.015625)"/>
       <path id="DejaVuSans-6e" d="M 3513 2113 
L 3513 0 
L 2938 0 
L 2938 2094 
Q 2938 2591 2744 2837 
Q 2550 3084 2163 3084 
Q 1697 3084 1428 2787 
Q 1159 2491 1159 1978 
L 1159 0 
L 581 0 
L 581 3500 
L 1159 3500 
L 1159 2956 
Q 1366 3272 1645 3428 
Q 1925 3584 2291 3584 
Q 2894 3584 3203 3211 
Q 3513 2838 3513 2113 
z
" transform="scale(0.015625)"/>
       <path id="DejaVuSans-20" transform="scale(0.015625)"/>
       <path id="DejaVuSans-28" d="M 1984 4856 
Q 1566 4138 1362 3434 
Q 1159 2731 1159 2009 
Q 1159 1288 1364 580 
Q 1569 -128 1984 -844 
L 1484 -844 
Q 1016 -109 783 600 
Q 550 1309 550 2009 
Q 550 2706 781 3412 
Q 1013 4119 1484 4856 
L 1984 4856 
z
" transform="scale(0.015625)"/>
       <path id="DejaVuSans-61" d="M 2194 1759 
Q 1497 1759 1228 1600 
Q 959 1441 959 1056 
Q 959 750 1161 570 
Q 1363 391 1709 391 
Q 2188 391 2477 730 
Q 2766 1069 2766 1631 
L 2766 1759 
L 2194 1759 
z
M 3341 1997 
L 3341 0 
L 2766 0 
L 2766 531 
Q 2569 213 2275 61 
Q 1981 -91 1556 -91 
Q 1019 -91 701 211 
Q 384 513 384 1019 
Q 384 1609 779 1909 
Q 1175 2209 1959 2209 
L 2766 2209 
L 2766 2266 
Q 2766 2663 2505 2880 
Q 2244 3097 1772 3097 
Q 1472 3097 1187 3025 
Q 903 2953 641 2809 
L 641 3341 
Q 956 3463 1253 3523 
Q 1550 3584 1831 3584 
Q 2591 3584 2966 3190 
Q 3341 2797 3341 1997 
z
" transform="scale(0.015625)"/>
       <path id="DejaVuSans-64" d="M 2906 2969 
L 2906 4863 
L 3481 4863 
L 3481 0 
L 2906 0 
L 2906 525 
Q 2725 213 2448 61 
Q 2172 -91 1784 -91 
Q 1150 -91 751 415 
Q 353 922 353 1747 
Q 353 2572 751 3078 
Q 1150 3584 1784 3584 
Q 2172 3584 2448 3432 
Q 2725 3281 2906 2969 
z
M 947 1747 
Q 947 1113 1208 752 
Q 1469 391 1925 391 
Q 2381 391 2643 752 
Q 2906 1113 2906 1747 
Q 2906 2381 2643 2742 
Q 2381 3103 1925 3103 
Q 1469 3103 1208 2742 
Q 947 2381 947 1747 
z
" transform="scale(0.015625)"/>
       <path id="DejaVuSans-2f" d="M 1625 4666 
L 2156 4666 
L 531 -594 
L 0 -594 
L 1625 4666 
z
" transform="scale(0.015625)"/>
       <path id="DejaVuSans-6b" d="M 581 4863 
L 1159 4863 
L 1159 1991 
L 2875 3500 
L 3609 3500 
L 1753 1863 
L 3688 0 
L 2938 0 
L 1159 1709 
L 1159 0 
L 581 0 
L 581 4863 
z
" transform="scale(0.015625)"/>
       <path id="DejaVuSans-62" d="M 3116 1747 
Q 3116 2381 2855 2742 
Q 2594 3103 2138 3103 
Q 1681 3103 1420 2742 
Q 1159 2381 1159 1747 
Q 1159 1113 1420 752 
Q 1681 391 2138 391 
Q 2594 391 2855 752 
Q 3116 1113 3116 1747 
z
M 1159 2969 
Q 1341 3281 1617 3432 
Q 1894 3584 2278 3584 
Q 2916 3584 3314 3078 
Q 3713 2572 3713 1747 
Q 3713 922 3314 415 
Q 2916 -91 2278 -91 
Q 1894 -91 1617 61 
Q 1341 213 1159 525 
L 1159 0 
L 581 0 
L 581 4863 
L 1159 4863 
L 1159 2969 
z
" transform="scale(0.015625)"/>
       <path id="DejaVuSans-29" d="M 513 4856 
L 1013 4856 
Q 1481 4119 1714 3412 
Q 1947 2706 1947 2009 
Q 1947 1309 1714 600 
Q 1481 -109 1013 -844 
L 513 -844 
Q 928 -128 1133 580 
Q 1338 1288 1338 2009 
Q 1338 2731 1133 3434 
Q 928 4138 513 4856 
z
" transform="scale(0.015625)"/>
      </defs>
      <use xlink:href="#DejaVuSans-65"/>
      <use xlink:href="#DejaVuSans-78" x="59.773438"/>
      <use xlink:href="#DejaVuSans-70" x="118.953125"/>
      <use xlink:href="#DejaVuSans-72" x="182.429688"/>
      <use xlink:href="#DejaVuSans-65" x="221.292969"/>
      <use xlink:href="#DejaVuSans-73" x="282.816406"/>
      <use xlink:href="#DejaVuSans-73" x="334.916016"/>
      <use xlink:href="#DejaVuSans-69" x="387.015625"/>
      <use xlink:href="#DejaVuSans-6f" x="414.798828"/>
      <use xlink:href="#DejaVuSans-6e" x="475.980469"/>
      <use xlink:href="#DejaVuSans-20" x="539.359375"/>
      <use xlink:href="#DejaVuSans-28" x="571.146484"/>
      <use xlink:href="#DejaVuSans-72" x="610.160156"/>
      <use xlink:href="#DejaVuSans-65" x="649.023438"/>
      <use xlink:href="#DejaVuSans-61" x="710.546875"/>
      <use xlink:href="#DejaVuSans-64" x="771.826172"/>
      <use xlink:href="#DejaVuSans-73" x="835.302734"/>
      <use xlink:href="#DejaVuSans-2f" x="887.402344"/>
      <use xlink:href="#DejaVuSans-6b" x="921.09375"/>
      <use xlink:href="#DejaVuSans-62" x="979.003906"/>
      <use xlink:href="#DejaVuSans-70" x="1042.480469"/>
      <use xlink:href="#DejaVuSans-29" x="1105.957031"/>
     </g>
    </g>
   </g>
   <g id="matplotlib.axis_2">
    <g id="ytick_1">
     <g id="line2d_1">
      <path d="M 43.148125 273.99006 
L 993.078125 273.99006 
" clip-path="url(#pec1dcd9b87)" style="fill: none; stroke: #dedede; stroke-linecap: square"/>
     </g>
     <g id="text_7">
      <!-- 0 -->
      <g transform="translate(31.058125 277.029435)scale(0.08 -0.08)">
       <use xlink:href="#DejaVuSans-30"/>
      </g>
     </g>
    </g>
    <g id="ytick_2">
     <g id="line2d_2">
      <path d="M 43.148125 225.48862 
L 993.078125 225.48862 
" clip-path="url(#pec1dcd9b87)" style="fill: none; stroke: #dedede; stroke-linecap: square"/>
     </g>
     <g id="text_8">
      <!-- 20 -->
      <g transform="translate(25.968125 228.527995)scale(0.08 -0.08)">
       <use xlink:href="#DejaVuSans-32"/>
       <use xlink:href="#DejaVuSans-30" x="63.623047"/>
      </g>
     </g>
    </g>
    <g id="ytick_3">
     <g id="line2d_3">
      <path d="M 43.148125 176.98718 
L 993.078125 176.98718 
" clip-path="url(#pec1dcd9b87)" style="fill: none; stroke: #dedede; stroke-linecap: square"/>
     </g>
     <g id="text_9">
      <!-- 40 -->
      <g transform="translate(25.968125 180.026555)scale(0.08 -0.08)">
       <use xlink:href="#DejaVuSans-34"/>
       <use xlink:href="#DejaVuSans-30" x="63.623047"/>
      </g>
     </g>
    </g>
    <g id="ytick_4">
     <g id="line2d_4">
      <path d="M 43.148125 128.48574 
L 993.078125 128.48574 
" clip-path="url(#pec1dcd9b87)" style="fill: none; stroke: #dedede; stroke-linecap: square"/>
     </g>
     <g id="text_10">
      <!-- 60 -->
      <g transform="translate(25.968125 131.525115)scale(0.08 -0.08)">
       <defs>
        <path id="DejaVuSans-36" d="M 2113 2584 
Q 1688 2584 1439 2293 
Q 1191 2003 1191 1497 
Q 1191 994 1439 701 
Q 1688 409 2113 409 
Q 2538 409 2786 701 
Q 3034 994 3034 1497 
Q 3034 2003 2786 2293 
Q 2538 2584 2113 2584 
z
M 3366 4563 
L 3366 3988 
Q 3128 4100 2886 4159 
Q 2644 4219 2406 4219 
Q 1781 4219 1451 3797 
Q 1122 3375 1075 2522 
Q 1259 2794 1537 2939 
Q 1816 3084 2150 3084 
Q 2853 3084 3261 2657 
Q 3669 2231 3669 1497 
Q 3669 778 3244 343 
Q 2819 -91 2113 -91 
Q 1303 -91 875 529 
Q 447 1150 447 2328 
Q 447 3434 972 4092 
Q 1497 4750 2381 4750 
Q 2619 4750 2861 4703 
Q 3103 4656 3366 4563 
z
" transform="scale(0.015625)"/>
       </defs>
       <use xlink:href="#DejaVuSans-36"/>
       <use xlink:href="#DejaVuSans-30" x="63.623047"/>
      </g>
     </g>
    </g>
    <g id="ytick_5">
     <g id="line2d_5">
      <path d="M 43.148125 79.9843 
L 993.078125 79.9843 
" clip-path="url(#pec1dcd9b87)" style="fill: none; stroke: #dedede; stroke-linecap: square"/>
     </g>
     <g id="text_11">
      <!-- 80 -->
      <g transform="translate(25.968125 83.023675)scale(0.08 -0.08)">
       <defs>
        <path id="DejaVuSans-38" d="M 2034 2216 
Q 1584 2216 1326 1975 
Q 1069 1734 1069 1313 
Q 1069 891 1326 650 
Q 1584 409 2034 409 
Q 2484 409 2743 651 
Q 3003 894 3003 1313 
Q 3003 1734 2745 1975 
Q 2488 2216 2034 2216 
z
M 1403 2484 
Q 997 2584 770 2862 
Q 544 3141 544 3541 
Q 544 4100 942 4425 
Q 1341 4750 2034 4750 
Q 2731 4750 3128 4425 
Q 3525 4100 3525 3541 
Q 3525 3141 3298 2862 
Q 3072 2584 2669 2484 
Q 3125 2378 3379 2068 
Q 3634 1759 3634 1313 
Q 3634 634 3220 271 
Q 2806 -91 2034 -91 
Q 1263 -91 848 271 
Q 434 634 434 1313 
Q 434 1759 690 2068 
Q 947 2378 1403 2484 
z
M 1172 3481 
Q 1172 3119 1398 2916 
Q 1625 2713 2034 2713 
Q 2441 2713 2670 2916 
Q 2900 3119 2900 3481 
Q 2900 3844 2670 4047 
Q 2441 4250 2034 4250 
Q 1625 4250 1398 4047 
Q 1172 3844 1172 3481 
z
" transform="scale(0.015625)"/>
       </defs>
       <use xlink:href="#DejaVuSans-38"/>
       <use xlink:href="#DejaVuSans-30" x="63.623047"/>
      </g>
     </g>
    </g>
    <g id="ytick_6">
     <g id="line2d_6">
      <path d="M 43.148125 31.48286 
L 993.078125 31.48286 
" clip-path="url(#pec1dcd9b87)" style="fill: none; stroke: #dedede; stroke-linecap: square"/>
     </g>
     <g id="text_12">
      <!-- 100 -->
      <g transform="translate(20.878125 34.522235)scale(0.08 -0.08)">
       <use xlink:href="#DejaVuSans-31"/>
       <use xlink:href="#DejaVuSans-30" x="63.623047"/>
       <use xlink:href="#DejaVuSans-30" x="127.246094"/>
      </g>
     </g>
    </g>
    <g id="text_13">
     <!-- % duplicate reads -->
     <g transform="translate(14.798438 197.673179)rotate(-90)scale(0.1 -0.1)">
      <defs>
       <path id="DejaVuSans-25" d="M 4653 2053 
Q 4381 2053 4226 1822 
Q 4072 1591 4072 1178 
Q 4072 772 4226 539 
Q 4381 306 4653 306 
Q 4919 306 5073 539 
Q 5228 772 5228 1178 
Q 5228 1588 5073 1820 
Q 4919 2053 4653 2053 
z
M 4653 2450 
Q 5147 2450 5437 2106 
Q 5728 1763 5728 1178 
Q 5728 594 5436 251 
Q 5144 -91 4653 -91 
Q 4153 -91 3862 251 
Q 3572 594 3572 1178 
Q 3572 1766 3864 2108 
Q 4156 2450 4653 2450 
z
M 1428 4353 
Q 1159 4353 1004 4120 
Q 850 3888 850 3481 
Q 850 3069 1003 2837 
Q 1156 2606 1428 2606 
Q 1700 2606 1854 2837 
Q 2009 3069 2009 3481 
Q 2009 3884 1853 4118 
Q 1697 4353 1428 4353 
z
M 4250 4750 
L 4750 4750 
L 1831 -91 
L 1331 -91 
L 4250 4750 
z
M 1428 4750 
Q 1922 4750 2215 4408 
Q 2509 4066 2509 3481 
Q 2509 2891 2217 2550 
Q 1925 2209 1428 2209 
Q 931 2209 642 2551 
Q 353 2894 353 3481 
Q 353 4063 643 4406 
Q 934 4750 1428 4750 
z
" transform="scale(0.015625)"/>
       <path id="DejaVuSans-75" d="M 544 1381 
L 544 3500 
L 1119 3500 
L 1119 1403 
Q 1119 906 1312 657 
Q 1506 409 1894 409 
Q 2359 409 2629 706 
Q 2900 1003 2900 1516 
L 2900 3500 
L 3475 3500 
L 3475 0 
L 2900 0 
L 2900 538 
Q 2691 219 2414 64 
Q 2138 -91 1772 -91 
Q 1169 -91 856 284 
Q 544 659 544 1381 
z
M 1991 3584 
L 1991 3584 
z
" transform="scale(0.015625)"/>
       <path id="DejaVuSans-6c" d="M 603 4863 
L 1178 4863 
L 1178 0 
L 603 0 
L 603 4863 
z
" transform="scale(0.015625)"/>
       <path id="DejaVuSans-63" d="M 3122 3366 
L 3122 2828 
Q 2878 2963 2633 3030 
Q 2388 3097 2138 3097 
Q 1578 3097 1268 2742 
Q 959 2388 959 1747 
Q 959 1106 1268 751 
Q 1578 397 2138 397 
Q 2388 397 2633 464 
Q 2878 531 3122 666 
L 3122 134 
Q 2881 22 2623 -34 
Q 2366 -91 2075 -91 
Q 1284 -91 818 406 
Q 353 903 353 1747 
Q 353 2603 823 3093 
Q 1294 3584 2113 3584 
Q 2378 3584 2631 3529 
Q 2884 3475 3122 3366 
z
" transform="scale(0.015625)"/>
       <path id="DejaVuSans-74" d="M 1172 4494 
L 1172 3500 
L 2356 3500 
L 2356 3053 
L 1172 3053 
L 1172 1153 
Q 1172 725 1289 603 
Q 1406 481 1766 481 
L 2356 481 
L 2356 0 
L 1766 0 
Q 1100 0 847 248 
Q 594 497 594 1153 
L 594 3053 
L 172 3053 
L 172 3500 
L 594 3500 
L 594 4494 
L 1172 4494 
z
" transform="scale(0.015625)"/>
      </defs>
      <use xlink:href="#DejaVuSans-25"/>
      <use xlink:href="#DejaVuSans-20" x="95.019531"/>
      <use xlink:href="#DejaVuSans-64" x="126.806641"/>
      <use xlink:href="#DejaVuSans-75" x="190.283203"/>
      <use xlink:href="#DejaVuSans-70" x="253.662109"/>
      <use xlink:href="#DejaVuSans-6c" x="317.138672"/>
      <use xlink:href="#DejaVuSans-69" x="344.921875"/>
      <use xlink:href="#DejaVuSans-63" x="372.705078"/>
      <use xlink:href="#DejaVuSans-61" x="427.685547"/>
      <use xlink:href="#DejaVuSans-74" x="488.964844"/>
      <use xlink:href="#DejaVuSans-65" x="528.173828"/>
      <use xlink:href="#DejaVuSans-20" x="589.697266"/>
      <use xlink:href="#DejaVuSans-72" x="621.484375"/>
      <use xlink:href="#DejaVuSans-65" x="660.347656"/>
      <use xlink:href="#DejaVuSans-61" x="721.871094"/>
      <use xlink:href="#DejaVuSans-64" x="783.150391"/>
      <use xlink:href="#DejaVuSans-73" x="846.626953"/>
     </g>
    </g>
   </g>
   <g id="line2d_7">
    <path d="M 86.326814 273.664037 
L 86.471853 251.447015 
L 86.843311 226.297694 
L 87.371596 205.081028 
L 88.02434 187.554415 
L 88.77363 173.154626 
L 89.640028 160.727694 
L 90.590219 150.24881 
L 91.625601 141.237516 
L 92.727598 133.505326 
L 93.846746 127.032923 
L 95.170277 120.672188 
L 96.566509 115.07847 
L 98.047358 110.076147 
L 99.485473 105.91699 
L 100.896016 102.361205 
L 102.320466 99.193069 
L 103.589498 96.665405 
L 106.062933 92.379445 
L 107.643125 90.000628 
L 109.723516 87.210293 
L 111.405919 85.191188 
L 115.179185 81.277043 
L 121.793717 75.904887 
L 131.11898 70.383876 
L 139.302512 66.768008 
L 168.152393 58.686367 
L 168.152393 58.686367 
" clip-path="url(#pec1dcd9b87)" style="fill: none; stroke: #7cb5ec; stroke-linecap: square"/>
   </g>
   <g id="line2d_8">
    <path d="M 86.326761 273.552049 
L 86.463916 248.73141 
L 86.811254 223.740817 
L 87.311193 203.219924 
L 87.937161 186.409669 
L 88.665476 172.606172 
L 89.495519 160.945204 
L 90.418733 150.999901 
L 91.433496 142.397 
L 92.527166 134.943415 
L 93.746269 128.167858 
L 94.99399 122.425437 
L 96.317081 117.300069 
L 97.799934 112.436687 
L 99.311137 108.20792 
L 100.911314 104.346724 
L 102.549243 100.909759 
L 104.576679 97.22247 
L 106.645181 93.969928 
L 108.637881 91.222821 
L 110.532953 88.896281 
L 113.10712 86.100059 
L 115.038897 84.2299 
L 118.155347 81.548734 
L 121.482884 79.058397 
L 123.908744 77.440419 
L 127.941345 75.05086 
L 129.997944 73.954261 
L 135.209799 71.47626 
L 141.030122 69.120689 
L 147.19016 66.992159 
L 151.533937 65.67073 
L 158.908746 63.698712 
L 164.007171 62.499752 
L 169.812989 61.26864 
L 180.638673 59.281842 
L 209.588867 55.321238 
L 234.355582 52.909623 
L 282.044067 49.654302 
L 404.231589 45.06138 
L 404.231589 45.06138 
" clip-path="url(#pec1dcd9b87)" style="fill: none; stroke: #434348; stroke-linecap: square"/>
   </g>
   <g id="line2d_9">
    <path d="M 86.326814 273.54545 
L 86.466041 249.313017 
L 86.81986 223.973604 
L 87.320276 203.265583 
L 87.949606 186.10811 
L 88.680573 172.011627 
L 89.510357 160.136215 
L 90.438056 149.957248 
L 91.466793 141.095056 
L 92.577735 133.428441 
L 93.754486 126.797409 
L 95.031639 120.836899 
L 96.382862 115.555407 
L 97.841271 110.735774 
L 99.40374 106.340384 
L 101.128882 102.192856 
L 102.922076 98.488152 
L 104.746791 95.215156 
L 106.670844 92.195298 
L 108.721309 89.368489 
L 110.823682 86.809912 
L 113.283915 84.170027 
L 116.439671 81.231307 
L 119.526035 78.743474 
L 121.72716 77.158798 
L 125.821889 74.551581 
L 130.39458 72.060322 
L 133.923674 70.378342 
L 139.819658 67.936785 
L 146.653439 65.556439 
L 151.916692 63.978068 
L 159.932446 61.904177 
L 164.498158 60.867397 
L 170.045192 59.723614 
L 193.091144 55.973862 
L 218.227819 53.079602 
L 242.165142 51.018291 
L 335.76607 46.137215 
L 335.76607 46.137215 
" clip-path="url(#pec1dcd9b87)" style="fill: none; stroke: #90ed7d; stroke-linecap: square"/>
   </g>
   <g id="line2d_10">
    <path d="M 86.326761 273.645852 
L 86.46567 250.11982 
L 86.823602 224.591476 
L 87.331983 203.507539 
L 87.966581 186.113096 
L 88.701009 171.834709 
L 89.531744 159.825181 
L 90.468691 149.438315 
L 91.461456 140.766895 
L 92.587479 132.870939 
L 93.740741 126.269287 
L 95.044677 120.093629 
L 96.459782 114.518059 
L 97.888108 109.772494 
L 99.334061 105.654735 
L 101.00125 101.569116 
L 102.652597 98.070103 
L 104.476672 94.70429 
L 106.630608 91.262837 
L 108.048361 89.253253 
L 110.052996 86.695923 
L 112.567191 83.876856 
L 115.024885 81.459755 
L 116.888971 79.810756 
L 119.961685 77.379583 
L 124.003661 74.62237 
L 126.459254 73.145378 
L 130.617178 70.919848 
L 134.106074 69.274031 
L 137.600031 67.792852 
L 142.050059 66.107976 
L 148.619639 63.954411 
L 164.371522 59.94398 
L 187.734726 55.831334 
L 203.448377 53.801102 
L 270.998183 48.350115 
L 270.998183 48.350115 
" clip-path="url(#pec1dcd9b87)" style="fill: none; stroke: #f7a35c; stroke-linecap: square"/>
   </g>
   <g id="line2d_11">
    <path d="M 86.326761 273.551436 
L 86.465006 247.918384 
L 86.81084 222.316164 
L 87.308924 201.319937 
L 87.927144 184.313721 
L 88.653547 170.258743 
L 89.483194 158.419066 
L 90.402739 148.398664 
L 91.402878 139.840143 
L 92.470975 132.493347 
L 93.66038 125.817962 
L 94.928287 119.944567 
L 96.2783 114.715794 
L 97.719828 109.999801 
L 99.255718 105.7203 
L 100.910181 101.769496 
L 102.737141 98.020419 
L 104.612847 94.694154 
L 106.450516 91.842322 
L 108.613437 88.898257 
L 110.944725 86.125945 
L 113.455627 83.512415 
L 115.823329 81.334545 
L 118.500331 79.14577 
L 121.463145 77.001173 
L 124.089558 75.30202 
L 127.649508 73.248581 
L 131.64127 71.22639 
L 134.816155 69.792066 
L 140.039301 67.705344 
L 145.049753 65.963439 
L 154.095724 63.311934 
L 162.955294 61.177862 
L 167.488155 60.222596 
L 175.981582 58.631169 
L 191.237089 56.2754 
L 204.253315 54.641377 
L 227.654731 52.30196 
L 266.355008 49.509016 
L 306.450905 47.455167 
L 441.695147 43.408899 
L 441.695147 43.408899 
" clip-path="url(#pec1dcd9b87)" style="fill: none; stroke: #8085e9; stroke-linecap: square"/>
   </g>
   <g id="line2d_12">
    <path d="M 86.326972 273.366841 
L 86.468181 248.694467 
L 86.821838 223.270575 
L 87.326442 202.381143 
L 87.951743 185.357106 
L 88.684999 171.244219 
L 89.511254 159.453565 
L 90.413172 149.557096 
L 91.438983 140.700998 
L 92.546526 133.048688 
L 93.723336 126.416042 
L 95.006101 120.436906 
L 96.278359 115.452414 
L 97.774804 110.488167 
L 99.355002 106.044378 
L 101.034388 102.006715 
L 102.77415 98.400389 
L 104.687515 94.964228 
L 106.625874 91.931588 
L 108.939415 88.779957 
L 111.286037 85.997859 
L 113.894382 83.295408 
L 116.533605 80.896967 
L 119.23894 78.72282 
L 122.619425 76.333909 
L 126.577371 73.907765 
L 129.341874 72.406009 
L 132.936533 70.64842 
L 136.102261 69.255174 
L 142.21303 66.898729 
L 144.063576 66.258148 
L 150.317598 64.298929 
L 155.602962 62.85142 
L 161.775442 61.355699 
L 167.862907 60.04952 
L 173.771703 58.914504 
L 203.600849 54.572893 
L 230.881311 51.864874 
L 269.674085 49.139439 
L 399.992281 44.17739 
L 399.992281 44.17739 
" clip-path="url(#pec1dcd9b87)" style="fill: none; stroke: #f15c80; stroke-linecap: square"/>
   </g>
   <g id="line2d_13">
    <path d="M 86.327232 273.34309 
L 86.475155 250.800791 
L 86.846174 225.712148 
L 87.371565 204.637917 
L 88.02068 187.230297 
L 88.774662 172.782738 
L 89.625277 160.611847 
L 90.553383 150.360185 
L 91.562118 141.531984 
L 92.6682 133.723733 
L 93.794729 127.18522 
L 95.099735 120.893522 
L 96.556482 115.058452 
L 98.096021 109.896015 
L 99.640646 105.496418 
L 101.260557 101.527386 
L 102.631785 98.577702 
L 104.06921 95.814346 
L 106.145257 92.306941 
L 107.923821 89.672162 
L 110.292967 86.587162 
L 112.667471 83.888703 
L 116.189386 80.454208 
L 118.867464 78.202316 
L 121.946324 75.918032 
L 125.53697 73.587204 
L 129.084363 71.569061 
L 137.040253 67.820738 
L 147.613677 64.004147 
L 160.85258 60.423774 
L 183.535545 56.109311 
L 461.182377 41.919522 
L 461.182377 41.919522 
" clip-path="url(#pec1dcd9b87)" style="fill: none; stroke: #e4d354; stroke-linecap: square"/>
   </g>
   <g id="line2d_14">
    <path d="M 86.326761 273.494791 
L 86.461605 247.623146 
L 86.801823 222.38213 
L 87.290936 201.911046 
L 87.905353 185.197728 
L 88.624154 171.470819 
L 89.436132 160.00987 
L 90.354126 150.100564 
L 91.353846 141.63003 
L 92.431066 134.298737 
L 93.616049 127.716769 
L 94.867645 121.964112 
L 96.284789 116.528359 
L 97.764992 111.754135 
L 99.240818 107.687373 
L 100.967901 103.601373 
L 102.709202 100.052756 
L 104.530813 96.821321 
L 106.434726 93.862262 
L 108.611724 90.897833 
L 110.598487 88.50852 
L 113.182554 85.765234 
L 115.659665 83.450579 
L 117.57512 81.83574 
L 121.183089 79.134237 
L 125.037807 76.645342 
L 128.05784 74.925238 
L 131.94835 72.951209 
L 136.555401 70.901234 
L 141.373345 69.026139 
L 147.908796 66.829417 
L 153.29163 65.25903 
L 162.395273 62.982822 
L 171.137374 61.144629 
L 180.164221 59.51914 
L 192.158615 57.687311 
L 204.212816 56.134928 
L 227.673501 53.706551 
L 269.11934 50.634428 
L 319.247308 48.09943 
L 497.774871 43.322748 
L 497.774871 43.322748 
" clip-path="url(#pec1dcd9b87)" style="fill: none; stroke: #2b908f; stroke-linecap: square"/>
   </g>
   <g id="line2d_15">
    <path d="M 86.326761 273.617105 
L 86.465717 250.032192 
L 86.820528 225.190934 
L 87.329752 204.55456 
L 87.964792 187.569459 
L 88.707497 173.483946 
L 89.551668 161.589764 
L 90.49257 151.411779 
L 91.48794 142.901945 
L 92.615035 135.140195 
L 93.790964 128.518674 
L 95.051966 122.61645 
L 96.456768 117.110153 
L 97.931369 112.232946 
L 99.516774 107.768001 
L 101.184992 103.738402 
L 103.03003 99.900028 
L 104.73955 96.800912 
L 106.98095 93.263308 
L 109.116242 90.335617 
L 111.915866 87.010394 
L 114.397414 84.450591 
L 116.825511 82.229402 
L 118.851537 80.555069 
L 122.409907 77.939927 
L 124.753369 76.407448 
L 130.476881 73.164785 
L 133.324797 71.766598 
L 139.154619 69.252318 
L 144.973333 67.115203 
L 149.660024 65.607453 
L 160.762787 62.613381 
L 177.704114 59.137983 
L 191.835693 56.906837 
L 242.739934 51.594081 
L 949.899489 38.41804 
L 949.899489 38.41804 
" clip-path="url(#pec1dcd9b87)" style="fill: none; stroke: #f45b5b; stroke-linecap: square"/>
   </g>
   <g id="line2d_16">
    <path d="M 86.326761 273.618402 
L 86.466406 249.83623 
L 86.821947 224.816932 
L 87.330508 204.096224 
L 87.961199 187.122839 
L 88.703984 172.95092 
L 89.545935 161.02857 
L 90.475316 150.919358 
L 91.500353 142.134072 
L 92.579169 134.68324 
L 93.796339 127.80951 
L 95.089538 121.77692 
L 96.406046 116.619192 
L 97.863722 111.773995 
L 99.253858 107.803662 
L 100.894625 103.750695 
L 102.322465 100.667331 
L 104.201765 97.108915 
L 106.460814 93.426895 
L 108.411218 90.661597 
L 110.2609 88.325028 
L 113.12688 85.149132 
L 115.448161 82.898765 
L 117.96088 80.726011 
L 120.582207 78.701315 
L 123.169834 76.90508 
L 127.874291 74.056753 
L 131.140617 72.336241 
L 137.138715 69.60355 
L 141.543519 67.878023 
L 147.217214 65.930821 
L 160.576942 62.24878 
L 174.661992 59.305862 
L 185.23061 57.525308 
L 216.520814 53.607871 
L 586.219325 41.124937 
L 586.219325 41.124937 
" clip-path="url(#pec1dcd9b87)" style="fill: none; stroke: #91e8e1; stroke-linecap: square"/>
   </g>
   <g id="line2d_17">
    <path d="M 86.326761 273.488875 
L 86.462006 247.442528 
L 86.802725 222.143159 
L 87.293912 201.607044 
L 87.90637 184.971485 
L 88.630528 171.173153 
L 89.455044 159.596645 
L 90.376576 149.719383 
L 91.374105 141.322085 
L 92.454672 134.011664 
L 93.638699 127.47231 
L 94.905133 121.687514 
L 96.306907 116.341891 
L 97.755289 111.68335 
L 99.353077 107.310945 
L 100.940131 103.579259 
L 102.759833 99.881509 
L 104.451113 96.884773 
L 106.427979 93.80936 
L 108.508046 90.973328 
L 110.915351 88.100481 
L 113.399575 85.505285 
L 116.15172 82.981528 
L 119.156416 80.565472 
L 121.146537 79.126446 
L 125.036636 76.617639 
L 127.726698 75.079683 
L 131.076954 73.349858 
L 135.238636 71.440121 
L 137.495554 70.49839 
L 143.117162 68.390962 
L 147.450303 66.96122 
L 152.097121 65.582444 
L 160.866531 63.331099 
L 168.95859 61.573161 
L 180.408741 59.478718 
L 197.018694 57.034585 
L 215.774346 54.861374 
L 238.953474 52.754151 
L 334.042496 47.519692 
L 334.042496 47.519692 
" clip-path="url(#pec1dcd9b87)" style="fill: none; stroke: #7cb5ec; stroke-linecap: square"/>
   </g>
   <g id="line2d_18">
    <path d="M 86.326814 273.535726 
L 86.465801 249.380799 
L 86.818174 224.327297 
L 87.323847 203.61517 
L 87.948528 186.757824 
L 88.684217 172.694615 
L 89.517385 160.877357 
L 90.438605 150.841545 
L 91.455766 142.112365 
L 92.56738 134.454408 
L 93.759901 127.749537 
L 94.985312 122.024593 
L 96.325683 116.755225 
L 97.761039 111.974455 
L 99.317136 107.555526 
L 100.942914 103.59158 
L 102.819575 99.657224 
L 104.728775 96.205007 
L 106.64921 93.174199 
L 108.276046 90.88833 
L 111.045297 87.475199 
L 113.504724 84.850671 
L 116.231596 82.295667 
L 119.565978 79.576837 
L 122.89641 77.216313 
L 125.921867 75.319992 
L 129.882587 73.127034 
L 132.605271 71.778122 
L 136.019871 70.239323 
L 139.984542 68.633779 
L 145.808376 66.564675 
L 152.678831 64.47533 
L 160.144339 62.539308 
L 167.688635 60.857778 
L 189.033915 57.148657 
L 204.876773 55.075536 
L 239.620272 51.732647 
L 365.754899 45.542324 
L 365.754899 45.542324 
" clip-path="url(#pec1dcd9b87)" style="fill: none; stroke: #434348; stroke-linecap: square"/>
   </g>
   <g id="line2d_19">
    <path d="M 43.148125 273.99006 
L 993.078125 273.99006 
" clip-path="url(#pec1dcd9b87)" style="fill: none; stroke: #dedede; stroke-width: 2; stroke-linecap: square"/>
   </g>
   <g id="text_14">
    <!-- DupRadar General Linear Model -->
    <g transform="translate(390.213125 19.3575)scale(0.16 -0.16)">
     <defs>
      <path id="DejaVuSans-44" d="M 1259 4147 
L 1259 519 
L 2022 519 
Q 2988 519 3436 956 
Q 3884 1394 3884 2338 
Q 3884 3275 3436 3711 
Q 2988 4147 2022 4147 
L 1259 4147 
z
M 628 4666 
L 1925 4666 
Q 3281 4666 3915 4102 
Q 4550 3538 4550 2338 
Q 4550 1131 3912 565 
Q 3275 0 1925 0 
L 628 0 
L 628 4666 
z
" transform="scale(0.015625)"/>
      <path id="DejaVuSans-52" d="M 2841 2188 
Q 3044 2119 3236 1894 
Q 3428 1669 3622 1275 
L 4263 0 
L 3584 0 
L 2988 1197 
Q 2756 1666 2539 1819 
Q 2322 1972 1947 1972 
L 1259 1972 
L 1259 0 
L 628 0 
L 628 4666 
L 2053 4666 
Q 2853 4666 3247 4331 
Q 3641 3997 3641 3322 
Q 3641 2881 3436 2590 
Q 3231 2300 2841 2188 
z
M 1259 4147 
L 1259 2491 
L 2053 2491 
Q 2509 2491 2742 2702 
Q 2975 2913 2975 3322 
Q 2975 3731 2742 3939 
Q 2509 4147 2053 4147 
L 1259 4147 
z
" transform="scale(0.015625)"/>
      <path id="DejaVuSans-47" d="M 3809 666 
L 3809 1919 
L 2778 1919 
L 2778 2438 
L 4434 2438 
L 4434 434 
Q 4069 175 3628 42 
Q 3188 -91 2688 -91 
Q 1594 -91 976 548 
Q 359 1188 359 2328 
Q 359 3472 976 4111 
Q 1594 4750 2688 4750 
Q 3144 4750 3555 4637 
Q 3966 4525 4313 4306 
L 4313 3634 
Q 3963 3931 3569 4081 
Q 3175 4231 2741 4231 
Q 1884 4231 1454 3753 
Q 1025 3275 1025 2328 
Q 1025 1384 1454 906 
Q 1884 428 2741 428 
Q 3075 428 3337 486 
Q 3600 544 3809 666 
z
" transform="scale(0.015625)"/>
      <path id="DejaVuSans-4c" d="M 628 4666 
L 1259 4666 
L 1259 531 
L 3531 531 
L 3531 0 
L 628 0 
L 628 4666 
z
" transform="scale(0.015625)"/>
      <path id="DejaVuSans-4d" d="M 628 4666 
L 1569 4666 
L 2759 1491 
L 3956 4666 
L 4897 4666 
L 4897 0 
L 4281 0 
L 4281 4097 
L 3078 897 
L 2444 897 
L 1241 4097 
L 1241 0 
L 628 0 
L 628 4666 
z
" transform="scale(0.015625)"/>
     </defs>
     <use xlink:href="#DejaVuSans-44"/>
     <use xlink:href="#DejaVuSans-75" x="77.001953"/>
     <use xlink:href="#DejaVuSans-70" x="140.380859"/>
     <use xlink:href="#DejaVuSans-52" x="203.857422"/>
     <use xlink:href="#DejaVuSans-61" x="271.089844"/>
     <use xlink:href="#DejaVuSans-64" x="332.369141"/>
     <use xlink:href="#DejaVuSans-61" x="395.845703"/>
     <use xlink:href="#DejaVuSans-72" x="457.125"/>
     <use xlink:href="#DejaVuSans-20" x="498.238281"/>
     <use xlink:href="#DejaVuSans-47" x="530.025391"/>
     <use xlink:href="#DejaVuSans-65" x="607.515625"/>
     <use xlink:href="#DejaVuSans-6e" x="669.039062"/>
     <use xlink:href="#DejaVuSans-65" x="732.417969"/>
     <use xlink:href="#DejaVuSans-72" x="793.941406"/>
     <use xlink:href="#DejaVuSans-61" x="835.054688"/>
     <use xlink:href="#DejaVuSans-6c" x="896.333984"/>
     <use xlink:href="#DejaVuSans-20" x="924.117188"/>
     <use xlink:href="#DejaVuSans-4c" x="955.904297"/>
     <use xlink:href="#DejaVuSans-69" x="1011.617188"/>
     <use xlink:href="#DejaVuSans-6e" x="1039.400391"/>
     <use xlink:href="#DejaVuSans-65" x="1102.779297"/>
     <use xlink:href="#DejaVuSans-61" x="1164.302734"/>
     <use xlink:href="#DejaVuSans-72" x="1225.582031"/>
     <use xlink:href="#DejaVuSans-20" x="1266.695312"/>
     <use xlink:href="#DejaVuSans-4d" x="1298.482422"/>
     <use xlink:href="#DejaVuSans-6f" x="1384.761719"/>
     <use xlink:href="#DejaVuSans-64" x="1445.943359"/>
     <use xlink:href="#DejaVuSans-65" x="1509.419922"/>
     <use xlink:href="#DejaVuSans-6c" x="1570.943359"/>
    </g>
   </g>
   <g id="legend_1">
    <g id="line2d_20">
     <path d="M 50.348125 292.192894 
L 58.348125 292.192894 
L 66.348125 292.192894 
" style="fill: none; stroke: #7cb5ec; stroke-linecap: square"/>
    </g>
    <g id="text_15">
     <!-- SRR2155413 -->
     <g transform="translate(72.748125 294.992894)scale(0.08 -0.08)">
      <defs>
       <path id="DejaVuSans-53" d="M 3425 4513 
L 3425 3897 
Q 3066 4069 2747 4153 
Q 2428 4238 2131 4238 
Q 1616 4238 1336 4038 
Q 1056 3838 1056 3469 
Q 1056 3159 1242 3001 
Q 1428 2844 1947 2747 
L 2328 2669 
Q 3034 2534 3370 2195 
Q 3706 1856 3706 1288 
Q 3706 609 3251 259 
Q 2797 -91 1919 -91 
Q 1588 -91 1214 -16 
Q 841 59 441 206 
L 441 856 
Q 825 641 1194 531 
Q 1563 422 1919 422 
Q 2459 422 2753 634 
Q 3047 847 3047 1241 
Q 3047 1584 2836 1778 
Q 2625 1972 2144 2069 
L 1759 2144 
Q 1053 2284 737 2584 
Q 422 2884 422 3419 
Q 422 4038 858 4394 
Q 1294 4750 2059 4750 
Q 2388 4750 2728 4690 
Q 3069 4631 3425 4513 
z
" transform="scale(0.015625)"/>
       <path id="DejaVuSans-35" d="M 691 4666 
L 3169 4666 
L 3169 4134 
L 1269 4134 
L 1269 2991 
Q 1406 3038 1543 3061 
Q 1681 3084 1819 3084 
Q 2600 3084 3056 2656 
Q 3513 2228 3513 1497 
Q 3513 744 3044 326 
Q 2575 -91 1722 -91 
Q 1428 -91 1123 -41 
Q 819 9 494 109 
L 494 744 
Q 775 591 1075 516 
Q 1375 441 1709 441 
Q 2250 441 2565 725 
Q 2881 1009 2881 1497 
Q 2881 1984 2565 2268 
Q 2250 2553 1709 2553 
Q 1456 2553 1204 2497 
Q 953 2441 691 2322 
L 691 4666 
z
" transform="scale(0.015625)"/>
      </defs>
      <use xlink:href="#DejaVuSans-53"/>
      <use xlink:href="#DejaVuSans-52" x="63.476562"/>
      <use xlink:href="#DejaVuSans-52" x="132.958984"/>
      <use xlink:href="#DejaVuSans-32" x="202.441406"/>
      <use xlink:href="#DejaVuSans-31" x="266.064453"/>
      <use xlink:href="#DejaVuSans-35" x="329.6875"/>
      <use xlink:href="#DejaVuSans-35" x="393.310547"/>
      <use xlink:href="#DejaVuSans-34" x="456.933594"/>
      <use xlink:href="#DejaVuSans-31" x="520.556641"/>
      <use xlink:href="#DejaVuSans-33" x="584.179688"/>
     </g>
    </g>
    <g id="line2d_21">
     <path d="M 50.348125 303.935394 
L 58.348125 303.935394 
L 66.348125 303.935394 
" style="fill: none; stroke: #434348; stroke-linecap: square"/>
    </g>
    <g id="text_16">
     <!-- SRR2155414 -->
     <g transform="translate(72.748125 306.735394)scale(0.08 -0.08)">
      <use xlink:href="#DejaVuSans-53"/>
      <use xlink:href="#DejaVuSans-52" x="63.476562"/>
      <use xlink:href="#DejaVuSans-52" x="132.958984"/>
      <use xlink:href="#DejaVuSans-32" x="202.441406"/>
      <use xlink:href="#DejaVuSans-31" x="266.064453"/>
      <use xlink:href="#DejaVuSans-35" x="329.6875"/>
      <use xlink:href="#DejaVuSans-35" x="393.310547"/>
      <use xlink:href="#DejaVuSans-34" x="456.933594"/>
      <use xlink:href="#DejaVuSans-31" x="520.556641"/>
      <use xlink:href="#DejaVuSans-34" x="584.179688"/>
     </g>
    </g>
    <g id="line2d_22">
     <path d="M 50.348125 315.677894 
L 58.348125 315.677894 
L 66.348125 315.677894 
" style="fill: none; stroke: #90ed7d; stroke-linecap: square"/>
    </g>
    <g id="text_17">
     <!-- SRR2155415 -->
     <g transform="translate(72.748125 318.477894)scale(0.08 -0.08)">
      <use xlink:href="#DejaVuSans-53"/>
      <use xlink:href="#DejaVuSans-52" x="63.476562"/>
      <use xlink:href="#DejaVuSans-52" x="132.958984"/>
      <use xlink:href="#DejaVuSans-32" x="202.441406"/>
      <use xlink:href="#DejaVuSans-31" x="266.064453"/>
      <use xlink:href="#DejaVuSans-35" x="329.6875"/>
      <use xlink:href="#DejaVuSans-35" x="393.310547"/>
      <use xlink:href="#DejaVuSans-34" x="456.933594"/>
      <use xlink:href="#DejaVuSans-31" x="520.556641"/>
      <use xlink:href="#DejaVuSans-35" x="584.179688"/>
     </g>
    </g>
    <g id="line2d_23">
     <path d="M 265.674062 292.192894 
L 273.674062 292.192894 
L 281.674062 292.192894 
" style="fill: none; stroke: #f7a35c; stroke-linecap: square"/>
    </g>
    <g id="text_18">
     <!-- SRR2155416 -->
     <g transform="translate(288.074062 294.992894)scale(0.08 -0.08)">
      <use xlink:href="#DejaVuSans-53"/>
      <use xlink:href="#DejaVuSans-52" x="63.476562"/>
      <use xlink:href="#DejaVuSans-52" x="132.958984"/>
      <use xlink:href="#DejaVuSans-32" x="202.441406"/>
      <use xlink:href="#DejaVuSans-31" x="266.064453"/>
      <use xlink:href="#DejaVuSans-35" x="329.6875"/>
      <use xlink:href="#DejaVuSans-35" x="393.310547"/>
      <use xlink:href="#DejaVuSans-34" x="456.933594"/>
      <use xlink:href="#DejaVuSans-31" x="520.556641"/>
      <use xlink:href="#DejaVuSans-36" x="584.179688"/>
     </g>
    </g>
    <g id="line2d_24">
     <path d="M 265.674062 303.935394 
L 273.674062 303.935394 
L 281.674062 303.935394 
" style="fill: none; stroke: #8085e9; stroke-linecap: square"/>
    </g>
    <g id="text_19">
     <!-- SRR2155417 -->
     <g transform="translate(288.074062 306.735394)scale(0.08 -0.08)">
      <defs>
       <path id="DejaVuSans-37" d="M 525 4666 
L 3525 4666 
L 3525 4397 
L 1831 0 
L 1172 0 
L 2766 4134 
L 525 4134 
L 525 4666 
z
" transform="scale(0.015625)"/>
      </defs>
      <use xlink:href="#DejaVuSans-53"/>
      <use xlink:href="#DejaVuSans-52" x="63.476562"/>
      <use xlink:href="#DejaVuSans-52" x="132.958984"/>
      <use xlink:href="#DejaVuSans-32" x="202.441406"/>
      <use xlink:href="#DejaVuSans-31" x="266.064453"/>
      <use xlink:href="#DejaVuSans-35" x="329.6875"/>
      <use xlink:href="#DejaVuSans-35" x="393.310547"/>
      <use xlink:href="#DejaVuSans-34" x="456.933594"/>
      <use xlink:href="#DejaVuSans-31" x="520.556641"/>
      <use xlink:href="#DejaVuSans-37" x="584.179688"/>
     </g>
    </g>
    <g id="line2d_25">
     <path d="M 265.674062 315.677894 
L 273.674062 315.677894 
L 281.674062 315.677894 
" style="fill: none; stroke: #f15c80; stroke-linecap: square"/>
    </g>
    <g id="text_20">
     <!-- SRR2155418 -->
     <g transform="translate(288.074062 318.477894)scale(0.08 -0.08)">
      <use xlink:href="#DejaVuSans-53"/>
      <use xlink:href="#DejaVuSans-52" x="63.476562"/>
      <use xlink:href="#DejaVuSans-52" x="132.958984"/>
      <use xlink:href="#DejaVuSans-32" x="202.441406"/>
      <use xlink:href="#DejaVuSans-31" x="266.064453"/>
      <use xlink:href="#DejaVuSans-35" x="329.6875"/>
      <use xlink:href="#DejaVuSans-35" x="393.310547"/>
      <use xlink:href="#DejaVuSans-34" x="456.933594"/>
      <use xlink:href="#DejaVuSans-31" x="520.556641"/>
      <use xlink:href="#DejaVuSans-38" x="584.179688"/>
     </g>
    </g>
    <g id="line2d_26">
     <path d="M 481 292.192894 
L 489 292.192894 
L 497 292.192894 
" style="fill: none; stroke: #e4d354; stroke-linecap: square"/>
    </g>
    <g id="text_21">
     <!-- SRR2155419 -->
     <g transform="translate(503.4 294.992894)scale(0.08 -0.08)">
      <defs>
       <path id="DejaVuSans-39" d="M 703 97 
L 703 672 
Q 941 559 1184 500 
Q 1428 441 1663 441 
Q 2288 441 2617 861 
Q 2947 1281 2994 2138 
Q 2813 1869 2534 1725 
Q 2256 1581 1919 1581 
Q 1219 1581 811 2004 
Q 403 2428 403 3163 
Q 403 3881 828 4315 
Q 1253 4750 1959 4750 
Q 2769 4750 3195 4129 
Q 3622 3509 3622 2328 
Q 3622 1225 3098 567 
Q 2575 -91 1691 -91 
Q 1453 -91 1209 -44 
Q 966 3 703 97 
z
M 1959 2075 
Q 2384 2075 2632 2365 
Q 2881 2656 2881 3163 
Q 2881 3666 2632 3958 
Q 2384 4250 1959 4250 
Q 1534 4250 1286 3958 
Q 1038 3666 1038 3163 
Q 1038 2656 1286 2365 
Q 1534 2075 1959 2075 
z
" transform="scale(0.015625)"/>
      </defs>
      <use xlink:href="#DejaVuSans-53"/>
      <use xlink:href="#DejaVuSans-52" x="63.476562"/>
      <use xlink:href="#DejaVuSans-52" x="132.958984"/>
      <use xlink:href="#DejaVuSans-32" x="202.441406"/>
      <use xlink:href="#DejaVuSans-31" x="266.064453"/>
      <use xlink:href="#DejaVuSans-35" x="329.6875"/>
      <use xlink:href="#DejaVuSans-35" x="393.310547"/>
      <use xlink:href="#DejaVuSans-34" x="456.933594"/>
      <use xlink:href="#DejaVuSans-31" x="520.556641"/>
      <use xlink:href="#DejaVuSans-39" x="584.179688"/>
     </g>
    </g>
    <g id="line2d_27">
     <path d="M 481 303.935394 
L 489 303.935394 
L 497 303.935394 
" style="fill: none; stroke: #2b908f; stroke-linecap: square"/>
    </g>
    <g id="text_22">
     <!-- SRR2155420 -->
     <g transform="translate(503.4 306.735394)scale(0.08 -0.08)">
      <use xlink:href="#DejaVuSans-53"/>
      <use xlink:href="#DejaVuSans-52" x="63.476562"/>
      <use xlink:href="#DejaVuSans-52" x="132.958984"/>
      <use xlink:href="#DejaVuSans-32" x="202.441406"/>
      <use xlink:href="#DejaVuSans-31" x="266.064453"/>
      <use xlink:href="#DejaVuSans-35" x="329.6875"/>
      <use xlink:href="#DejaVuSans-35" x="393.310547"/>
      <use xlink:href="#DejaVuSans-34" x="456.933594"/>
      <use xlink:href="#DejaVuSans-32" x="520.556641"/>
      <use xlink:href="#DejaVuSans-30" x="584.179688"/>
     </g>
    </g>
    <g id="line2d_28">
     <path d="M 696.325938 292.192894 
L 704.325938 292.192894 
L 712.325938 292.192894 
" style="fill: none; stroke: #f45b5b; stroke-linecap: square"/>
    </g>
    <g id="text_23">
     <!-- SRR2155421 -->
     <g transform="translate(718.725937 294.992894)scale(0.08 -0.08)">
      <use xlink:href="#DejaVuSans-53"/>
      <use xlink:href="#DejaVuSans-52" x="63.476562"/>
      <use xlink:href="#DejaVuSans-52" x="132.958984"/>
      <use xlink:href="#DejaVuSans-32" x="202.441406"/>
      <use xlink:href="#DejaVuSans-31" x="266.064453"/>
      <use xlink:href="#DejaVuSans-35" x="329.6875"/>
      <use xlink:href="#DejaVuSans-35" x="393.310547"/>
      <use xlink:href="#DejaVuSans-34" x="456.933594"/>
      <use xlink:href="#DejaVuSans-32" x="520.556641"/>
      <use xlink:href="#DejaVuSans-31" x="584.179688"/>
     </g>
    </g>
    <g id="line2d_29">
     <path d="M 696.325938 303.935394 
L 704.325938 303.935394 
L 712.325938 303.935394 
" style="fill: none; stroke: #91e8e1; stroke-linecap: square"/>
    </g>
    <g id="text_24">
     <!-- SRR2155422 -->
     <g transform="translate(718.725937 306.735394)scale(0.08 -0.08)">
      <use xlink:href="#DejaVuSans-53"/>
      <use xlink:href="#DejaVuSans-52" x="63.476562"/>
      <use xlink:href="#DejaVuSans-52" x="132.958984"/>
      <use xlink:href="#DejaVuSans-32" x="202.441406"/>
      <use xlink:href="#DejaVuSans-31" x="266.064453"/>
      <use xlink:href="#DejaVuSans-35" x="329.6875"/>
      <use xlink:href="#DejaVuSans-35" x="393.310547"/>
      <use xlink:href="#DejaVuSans-34" x="456.933594"/>
      <use xlink:href="#DejaVuSans-32" x="520.556641"/>
      <use xlink:href="#DejaVuSans-32" x="584.179688"/>
     </g>
    </g>
    <g id="line2d_30">
     <path d="M 911.651875 292.192894 
L 919.651875 292.192894 
L 927.651875 292.192894 
" style="fill: none; stroke: #7cb5ec; stroke-linecap: square"/>
    </g>
    <g id="text_25">
     <!-- SRR2155423 -->
     <g transform="translate(934.051875 294.992894)scale(0.08 -0.08)">
      <use xlink:href="#DejaVuSans-53"/>
      <use xlink:href="#DejaVuSans-52" x="63.476562"/>
      <use xlink:href="#DejaVuSans-52" x="132.958984"/>
      <use xlink:href="#DejaVuSans-32" x="202.441406"/>
      <use xlink:href="#DejaVuSans-31" x="266.064453"/>
      <use xlink:href="#DejaVuSans-35" x="329.6875"/>
      <use xlink:href="#DejaVuSans-35" x="393.310547"/>
      <use xlink:href="#DejaVuSans-34" x="456.933594"/>
      <use xlink:href="#DejaVuSans-32" x="520.556641"/>
      <use xlink:href="#DejaVuSans-33" x="584.179688"/>
     </g>
    </g>
    <g id="line2d_31">
     <path d="M 911.651875 303.935394 
L 919.651875 303.935394 
L 927.651875 303.935394 
" style="fill: none; stroke: #434348; stroke-linecap: square"/>
    </g>
    <g id="text_26">
     <!-- SRR2155424 -->
     <g transform="translate(934.051875 306.735394)scale(0.08 -0.08)">
      <use xlink:href="#DejaVuSans-53"/>
      <use xlink:href="#DejaVuSans-52" x="63.476562"/>
      <use xlink:href="#DejaVuSans-52" x="132.958984"/>
      <use xlink:href="#DejaVuSans-32" x="202.441406"/>
      <use xlink:href="#DejaVuSans-31" x="266.064453"/>
      <use xlink:href="#DejaVuSans-35" x="329.6875"/>
      <use xlink:href="#DejaVuSans-35" x="393.310547"/>
      <use xlink:href="#DejaVuSans-34" x="456.933594"/>
      <use xlink:href="#DejaVuSans-32" x="520.556641"/>
      <use xlink:href="#DejaVuSans-34" x="584.179688"/>
     </g>
    </g>
   </g>
  </g>
 </g>
 <defs>
  <clipPath id="pec1dcd9b87">
   <rect x="43.148125" y="31.48286" width="949.93" height="242.5072"/>
  </clipPath>
 </defs>
</svg>
