<?xml version="1.0" encoding="utf-8" standalone="no"?>
<!DOCTYPE svg PUBLIC "-//W3C//DTD SVG 1.1//EN"
  "http://www.w3.org/Graphics/SVG/1.1/DTD/svg11.dtd">
<svg xmlns:xlink="http://www.w3.org/1999/xlink" width="1000.198125pt" height="330.541644pt" viewBox="0 0 1000.198125 330.541644" xmlns="http://www.w3.org/2000/svg" version="1.1">
 <metadata>
  <rdf:RDF xmlns:dc="http://purl.org/dc/elements/1.1/" xmlns:cc="http://creativecommons.org/ns#" xmlns:rdf="http://www.w3.org/1999/02/22-rdf-syntax-ns#">
   <cc:Work>
    <dc:type rdf:resource="http://purl.org/dc/dcmitype/StillImage"/>
    <dc:date>2024-08-14T16:02:22.728166</dc:date>
    <dc:format>image/svg+xml</dc:format>
    <dc:creator>
     <cc:Agent>
      <dc:title>Matplotlib v3.5.3, https://matplotlib.org/</dc:title>
     </cc:Agent>
    </dc:creator>
   </cc:Work>
  </rdf:RDF>
 </metadata>
 <defs>
  <style type="text/css">*{stroke-linejoin: round; stroke-linecap: butt}</style>
 </defs>
 <g id="figure_1">
  <g id="axes_1">
   <g id="patch_1">
    <path d="M 53.328125 273.99006 
L 992.998125 273.99006 
L 992.998125 31.48286 
L 53.328125 31.48286 
z
" style="fill: #ffffff"/>
   </g>
   <g id="matplotlib.axis_1">
    <g id="xtick_1">
     <g id="text_1">
      <!-- 0 -->
      <g transform="translate(84.952943 287.06881)scale(0.08 -0.08)">
       <defs>
        <path id="DejaVuSans-30" d="M 2034 4250 
Q 1547 4250 1301 3770 
Q 1056 3291 1056 2328 
Q 1056 1369 1301 889 
Q 1547 409 2034 409 
Q 2525 409 2770 889 
Q 3016 1369 3016 2328 
Q 3016 3291 2770 3770 
Q 2525 4250 2034 4250 
z
M 2034 4750 
Q 2819 4750 3233 4129 
Q 3647 3509 3647 2328 
Q 3647 1150 3233 529 
Q 2819 -91 2034 -91 
Q 1250 -91 836 529 
Q 422 1150 422 2328 
Q 422 3509 836 4129 
Q 1250 4750 2034 4750 
z
" transform="scale(0.015625)"/>
       </defs>
       <use xlink:href="#DejaVuSans-30"/>
      </g>
     </g>
    </g>
    <g id="xtick_2">
     <g id="text_2">
      <!-- 20 -->
      <g transform="translate(253.257034 287.06881)scale(0.08 -0.08)">
       <defs>
        <path id="DejaVuSans-32" d="M 1228 531 
L 3431 531 
L 3431 0 
L 469 0 
L 469 531 
Q 828 903 1448 1529 
Q 2069 2156 2228 2338 
Q 2531 2678 2651 2914 
Q 2772 3150 2772 3378 
Q 2772 3750 2511 3984 
Q 2250 4219 1831 4219 
Q 1534 4219 1204 4116 
Q 875 4013 500 3803 
L 500 4441 
Q 881 4594 1212 4672 
Q 1544 4750 1819 4750 
Q 2544 4750 2975 4387 
Q 3406 4025 3406 3419 
Q 3406 3131 3298 2873 
Q 3191 2616 2906 2266 
Q 2828 2175 2409 1742 
Q 1991 1309 1228 531 
z
" transform="scale(0.015625)"/>
       </defs>
       <use xlink:href="#DejaVuSans-32"/>
       <use xlink:href="#DejaVuSans-30" x="63.623047"/>
      </g>
     </g>
    </g>
    <g id="xtick_3">
     <g id="text_3">
      <!-- 40 -->
      <g transform="translate(424.106125 287.06881)scale(0.08 -0.08)">
       <defs>
        <path id="DejaVuSans-34" d="M 2419 4116 
L 825 1625 
L 2419 1625 
L 2419 4116 
z
M 2253 4666 
L 3047 4666 
L 3047 1625 
L 3713 1625 
L 3713 1100 
L 3047 1100 
L 3047 0 
L 2419 0 
L 2419 1100 
L 313 1100 
L 313 1709 
L 2253 4666 
z
" transform="scale(0.015625)"/>
       </defs>
       <use xlink:href="#DejaVuSans-34"/>
       <use xlink:href="#DejaVuSans-30" x="63.623047"/>
      </g>
     </g>
    </g>
    <g id="xtick_4">
     <g id="text_4">
      <!-- 60 -->
      <g transform="translate(594.955216 287.06881)scale(0.08 -0.08)">
       <defs>
        <path id="DejaVuSans-36" d="M 2113 2584 
Q 1688 2584 1439 2293 
Q 1191 2003 1191 1497 
Q 1191 994 1439 701 
Q 1688 409 2113 409 
Q 2538 409 2786 701 
Q 3034 994 3034 1497 
Q 3034 2003 2786 2293 
Q 2538 2584 2113 2584 
z
M 3366 4563 
L 3366 3988 
Q 3128 4100 2886 4159 
Q 2644 4219 2406 4219 
Q 1781 4219 1451 3797 
Q 1122 3375 1075 2522 
Q 1259 2794 1537 2939 
Q 1816 3084 2150 3084 
Q 2853 3084 3261 2657 
Q 3669 2231 3669 1497 
Q 3669 778 3244 343 
Q 2819 -91 2113 -91 
Q 1303 -91 875 529 
Q 447 1150 447 2328 
Q 447 3434 972 4092 
Q 1497 4750 2381 4750 
Q 2619 4750 2861 4703 
Q 3103 4656 3366 4563 
z
" transform="scale(0.015625)"/>
       </defs>
       <use xlink:href="#DejaVuSans-36"/>
       <use xlink:href="#DejaVuSans-30" x="63.623047"/>
      </g>
     </g>
    </g>
    <g id="xtick_5">
     <g id="text_5">
      <!-- 80 -->
      <g transform="translate(765.804307 287.06881)scale(0.08 -0.08)">
       <defs>
        <path id="DejaVuSans-38" d="M 2034 2216 
Q 1584 2216 1326 1975 
Q 1069 1734 1069 1313 
Q 1069 891 1326 650 
Q 1584 409 2034 409 
Q 2484 409 2743 651 
Q 3003 894 3003 1313 
Q 3003 1734 2745 1975 
Q 2488 2216 2034 2216 
z
M 1403 2484 
Q 997 2584 770 2862 
Q 544 3141 544 3541 
Q 544 4100 942 4425 
Q 1341 4750 2034 4750 
Q 2731 4750 3128 4425 
Q 3525 4100 3525 3541 
Q 3525 3141 3298 2862 
Q 3072 2584 2669 2484 
Q 3125 2378 3379 2068 
Q 3634 1759 3634 1313 
Q 3634 634 3220 271 
Q 2806 -91 2034 -91 
Q 1263 -91 848 271 
Q 434 634 434 1313 
Q 434 1759 690 2068 
Q 947 2378 1403 2484 
z
M 1172 3481 
Q 1172 3119 1398 2916 
Q 1625 2713 2034 2713 
Q 2441 2713 2670 2916 
Q 2900 3119 2900 3481 
Q 2900 3844 2670 4047 
Q 2441 4250 2034 4250 
Q 1625 4250 1398 4047 
Q 1172 3844 1172 3481 
z
" transform="scale(0.015625)"/>
       </defs>
       <use xlink:href="#DejaVuSans-38"/>
       <use xlink:href="#DejaVuSans-30" x="63.623047"/>
      </g>
     </g>
    </g>
    <g id="xtick_6">
     <g id="text_6">
      <!-- 100 -->
      <g transform="translate(934.108398 287.06881)scale(0.08 -0.08)">
       <defs>
        <path id="DejaVuSans-31" d="M 794 531 
L 1825 531 
L 1825 4091 
L 703 3866 
L 703 4441 
L 1819 4666 
L 2450 4666 
L 2450 531 
L 3481 531 
L 3481 0 
L 794 0 
L 794 531 
z
" transform="scale(0.015625)"/>
       </defs>
       <use xlink:href="#DejaVuSans-31"/>
       <use xlink:href="#DejaVuSans-30" x="63.623047"/>
       <use xlink:href="#DejaVuSans-30" x="127.246094"/>
      </g>
     </g>
    </g>
    <g id="text_7">
     <!-- Length Trimmed (bp) -->
     <g transform="translate(470.735781 300.330997)scale(0.1 -0.1)">
      <defs>
       <path id="DejaVuSans-4c" d="M 628 4666 
L 1259 4666 
L 1259 531 
L 3531 531 
L 3531 0 
L 628 0 
L 628 4666 
z
" transform="scale(0.015625)"/>
       <path id="DejaVuSans-65" d="M 3597 1894 
L 3597 1613 
L 953 1613 
Q 991 1019 1311 708 
Q 1631 397 2203 397 
Q 2534 397 2845 478 
Q 3156 559 3463 722 
L 3463 178 
Q 3153 47 2828 -22 
Q 2503 -91 2169 -91 
Q 1331 -91 842 396 
Q 353 884 353 1716 
Q 353 2575 817 3079 
Q 1281 3584 2069 3584 
Q 2775 3584 3186 3129 
Q 3597 2675 3597 1894 
z
M 3022 2063 
Q 3016 2534 2758 2815 
Q 2500 3097 2075 3097 
Q 1594 3097 1305 2825 
Q 1016 2553 972 2059 
L 3022 2063 
z
" transform="scale(0.015625)"/>
       <path id="DejaVuSans-6e" d="M 3513 2113 
L 3513 0 
L 2938 0 
L 2938 2094 
Q 2938 2591 2744 2837 
Q 2550 3084 2163 3084 
Q 1697 3084 1428 2787 
Q 1159 2491 1159 1978 
L 1159 0 
L 581 0 
L 581 3500 
L 1159 3500 
L 1159 2956 
Q 1366 3272 1645 3428 
Q 1925 3584 2291 3584 
Q 2894 3584 3203 3211 
Q 3513 2838 3513 2113 
z
" transform="scale(0.015625)"/>
       <path id="DejaVuSans-67" d="M 2906 1791 
Q 2906 2416 2648 2759 
Q 2391 3103 1925 3103 
Q 1463 3103 1205 2759 
Q 947 2416 947 1791 
Q 947 1169 1205 825 
Q 1463 481 1925 481 
Q 2391 481 2648 825 
Q 2906 1169 2906 1791 
z
M 3481 434 
Q 3481 -459 3084 -895 
Q 2688 -1331 1869 -1331 
Q 1566 -1331 1297 -1286 
Q 1028 -1241 775 -1147 
L 775 -588 
Q 1028 -725 1275 -790 
Q 1522 -856 1778 -856 
Q 2344 -856 2625 -561 
Q 2906 -266 2906 331 
L 2906 616 
Q 2728 306 2450 153 
Q 2172 0 1784 0 
Q 1141 0 747 490 
Q 353 981 353 1791 
Q 353 2603 747 3093 
Q 1141 3584 1784 3584 
Q 2172 3584 2450 3431 
Q 2728 3278 2906 2969 
L 2906 3500 
L 3481 3500 
L 3481 434 
z
" transform="scale(0.015625)"/>
       <path id="DejaVuSans-74" d="M 1172 4494 
L 1172 3500 
L 2356 3500 
L 2356 3053 
L 1172 3053 
L 1172 1153 
Q 1172 725 1289 603 
Q 1406 481 1766 481 
L 2356 481 
L 2356 0 
L 1766 0 
Q 1100 0 847 248 
Q 594 497 594 1153 
L 594 3053 
L 172 3053 
L 172 3500 
L 594 3500 
L 594 4494 
L 1172 4494 
z
" transform="scale(0.015625)"/>
       <path id="DejaVuSans-68" d="M 3513 2113 
L 3513 0 
L 2938 0 
L 2938 2094 
Q 2938 2591 2744 2837 
Q 2550 3084 2163 3084 
Q 1697 3084 1428 2787 
Q 1159 2491 1159 1978 
L 1159 0 
L 581 0 
L 581 4863 
L 1159 4863 
L 1159 2956 
Q 1366 3272 1645 3428 
Q 1925 3584 2291 3584 
Q 2894 3584 3203 3211 
Q 3513 2838 3513 2113 
z
" transform="scale(0.015625)"/>
       <path id="DejaVuSans-20" transform="scale(0.015625)"/>
       <path id="DejaVuSans-54" d="M -19 4666 
L 3928 4666 
L 3928 4134 
L 2272 4134 
L 2272 0 
L 1638 0 
L 1638 4134 
L -19 4134 
L -19 4666 
z
" transform="scale(0.015625)"/>
       <path id="DejaVuSans-72" d="M 2631 2963 
Q 2534 3019 2420 3045 
Q 2306 3072 2169 3072 
Q 1681 3072 1420 2755 
Q 1159 2438 1159 1844 
L 1159 0 
L 581 0 
L 581 3500 
L 1159 3500 
L 1159 2956 
Q 1341 3275 1631 3429 
Q 1922 3584 2338 3584 
Q 2397 3584 2469 3576 
Q 2541 3569 2628 3553 
L 2631 2963 
z
" transform="scale(0.015625)"/>
       <path id="DejaVuSans-69" d="M 603 3500 
L 1178 3500 
L 1178 0 
L 603 0 
L 603 3500 
z
M 603 4863 
L 1178 4863 
L 1178 4134 
L 603 4134 
L 603 4863 
z
" transform="scale(0.015625)"/>
       <path id="DejaVuSans-6d" d="M 3328 2828 
Q 3544 3216 3844 3400 
Q 4144 3584 4550 3584 
Q 5097 3584 5394 3201 
Q 5691 2819 5691 2113 
L 5691 0 
L 5113 0 
L 5113 2094 
Q 5113 2597 4934 2840 
Q 4756 3084 4391 3084 
Q 3944 3084 3684 2787 
Q 3425 2491 3425 1978 
L 3425 0 
L 2847 0 
L 2847 2094 
Q 2847 2600 2669 2842 
Q 2491 3084 2119 3084 
Q 1678 3084 1418 2786 
Q 1159 2488 1159 1978 
L 1159 0 
L 581 0 
L 581 3500 
L 1159 3500 
L 1159 2956 
Q 1356 3278 1631 3431 
Q 1906 3584 2284 3584 
Q 2666 3584 2933 3390 
Q 3200 3197 3328 2828 
z
" transform="scale(0.015625)"/>
       <path id="DejaVuSans-64" d="M 2906 2969 
L 2906 4863 
L 3481 4863 
L 3481 0 
L 2906 0 
L 2906 525 
Q 2725 213 2448 61 
Q 2172 -91 1784 -91 
Q 1150 -91 751 415 
Q 353 922 353 1747 
Q 353 2572 751 3078 
Q 1150 3584 1784 3584 
Q 2172 3584 2448 3432 
Q 2725 3281 2906 2969 
z
M 947 1747 
Q 947 1113 1208 752 
Q 1469 391 1925 391 
Q 2381 391 2643 752 
Q 2906 1113 2906 1747 
Q 2906 2381 2643 2742 
Q 2381 3103 1925 3103 
Q 1469 3103 1208 2742 
Q 947 2381 947 1747 
z
" transform="scale(0.015625)"/>
       <path id="DejaVuSans-28" d="M 1984 4856 
Q 1566 4138 1362 3434 
Q 1159 2731 1159 2009 
Q 1159 1288 1364 580 
Q 1569 -128 1984 -844 
L 1484 -844 
Q 1016 -109 783 600 
Q 550 1309 550 2009 
Q 550 2706 781 3412 
Q 1013 4119 1484 4856 
L 1984 4856 
z
" transform="scale(0.015625)"/>
       <path id="DejaVuSans-62" d="M 3116 1747 
Q 3116 2381 2855 2742 
Q 2594 3103 2138 3103 
Q 1681 3103 1420 2742 
Q 1159 2381 1159 1747 
Q 1159 1113 1420 752 
Q 1681 391 2138 391 
Q 2594 391 2855 752 
Q 3116 1113 3116 1747 
z
M 1159 2969 
Q 1341 3281 1617 3432 
Q 1894 3584 2278 3584 
Q 2916 3584 3314 3078 
Q 3713 2572 3713 1747 
Q 3713 922 3314 415 
Q 2916 -91 2278 -91 
Q 1894 -91 1617 61 
Q 1341 213 1159 525 
L 1159 0 
L 581 0 
L 581 4863 
L 1159 4863 
L 1159 2969 
z
" transform="scale(0.015625)"/>
       <path id="DejaVuSans-70" d="M 1159 525 
L 1159 -1331 
L 581 -1331 
L 581 3500 
L 1159 3500 
L 1159 2969 
Q 1341 3281 1617 3432 
Q 1894 3584 2278 3584 
Q 2916 3584 3314 3078 
Q 3713 2572 3713 1747 
Q 3713 922 3314 415 
Q 2916 -91 2278 -91 
Q 1894 -91 1617 61 
Q 1341 213 1159 525 
z
M 3116 1747 
Q 3116 2381 2855 2742 
Q 2594 3103 2138 3103 
Q 1681 3103 1420 2742 
Q 1159 2381 1159 1747 
Q 1159 1113 1420 752 
Q 1681 391 2138 391 
Q 2594 391 2855 752 
Q 3116 1113 3116 1747 
z
" transform="scale(0.015625)"/>
       <path id="DejaVuSans-29" d="M 513 4856 
L 1013 4856 
Q 1481 4119 1714 3412 
Q 1947 2706 1947 2009 
Q 1947 1309 1714 600 
Q 1481 -109 1013 -844 
L 513 -844 
Q 928 -128 1133 580 
Q 1338 1288 1338 2009 
Q 1338 2731 1133 3434 
Q 928 4138 513 4856 
z
" transform="scale(0.015625)"/>
      </defs>
      <use xlink:href="#DejaVuSans-4c"/>
      <use xlink:href="#DejaVuSans-65" x="53.962891"/>
      <use xlink:href="#DejaVuSans-6e" x="115.486328"/>
      <use xlink:href="#DejaVuSans-67" x="178.865234"/>
      <use xlink:href="#DejaVuSans-74" x="242.341797"/>
      <use xlink:href="#DejaVuSans-68" x="281.550781"/>
      <use xlink:href="#DejaVuSans-20" x="344.929688"/>
      <use xlink:href="#DejaVuSans-54" x="376.716797"/>
      <use xlink:href="#DejaVuSans-72" x="423.050781"/>
      <use xlink:href="#DejaVuSans-69" x="464.164062"/>
      <use xlink:href="#DejaVuSans-6d" x="491.947266"/>
      <use xlink:href="#DejaVuSans-6d" x="589.359375"/>
      <use xlink:href="#DejaVuSans-65" x="686.771484"/>
      <use xlink:href="#DejaVuSans-64" x="748.294922"/>
      <use xlink:href="#DejaVuSans-20" x="811.771484"/>
      <use xlink:href="#DejaVuSans-28" x="843.558594"/>
      <use xlink:href="#DejaVuSans-62" x="882.572266"/>
      <use xlink:href="#DejaVuSans-70" x="946.048828"/>
      <use xlink:href="#DejaVuSans-29" x="1009.525391"/>
     </g>
    </g>
   </g>
   <g id="matplotlib.axis_2">
    <g id="ytick_1">
     <g id="line2d_1">
      <path d="M 53.328125 273.99006 
L 992.998125 273.99006 
" clip-path="url(#p48dafe67da)" style="fill: none; stroke: #dedede; stroke-linecap: square"/>
     </g>
     <g id="text_8">
      <!-- 0 -->
      <g transform="translate(41.238125 277.029435)scale(0.08 -0.08)">
       <use xlink:href="#DejaVuSans-30"/>
      </g>
     </g>
    </g>
    <g id="ytick_2">
     <g id="line2d_2">
      <path d="M 53.328125 233.72514 
L 992.998125 233.72514 
" clip-path="url(#p48dafe67da)" style="fill: none; stroke: #dedede; stroke-linecap: square"/>
     </g>
     <g id="text_9">
      <!-- 5000 -->
      <g transform="translate(25.968125 236.764515)scale(0.08 -0.08)">
       <defs>
        <path id="DejaVuSans-35" d="M 691 4666 
L 3169 4666 
L 3169 4134 
L 1269 4134 
L 1269 2991 
Q 1406 3038 1543 3061 
Q 1681 3084 1819 3084 
Q 2600 3084 3056 2656 
Q 3513 2228 3513 1497 
Q 3513 744 3044 326 
Q 2575 -91 1722 -91 
Q 1428 -91 1123 -41 
Q 819 9 494 109 
L 494 744 
Q 775 591 1075 516 
Q 1375 441 1709 441 
Q 2250 441 2565 725 
Q 2881 1009 2881 1497 
Q 2881 1984 2565 2268 
Q 2250 2553 1709 2553 
Q 1456 2553 1204 2497 
Q 953 2441 691 2322 
L 691 4666 
z
" transform="scale(0.015625)"/>
       </defs>
       <use xlink:href="#DejaVuSans-35"/>
       <use xlink:href="#DejaVuSans-30" x="63.623047"/>
       <use xlink:href="#DejaVuSans-30" x="127.246094"/>
       <use xlink:href="#DejaVuSans-30" x="190.869141"/>
      </g>
     </g>
    </g>
    <g id="ytick_3">
     <g id="line2d_3">
      <path d="M 53.328125 193.46022 
L 992.998125 193.46022 
" clip-path="url(#p48dafe67da)" style="fill: none; stroke: #dedede; stroke-linecap: square"/>
     </g>
     <g id="text_10">
      <!-- 10000 -->
      <g transform="translate(20.878125 196.499595)scale(0.08 -0.08)">
       <use xlink:href="#DejaVuSans-31"/>
       <use xlink:href="#DejaVuSans-30" x="63.623047"/>
       <use xlink:href="#DejaVuSans-30" x="127.246094"/>
       <use xlink:href="#DejaVuSans-30" x="190.869141"/>
       <use xlink:href="#DejaVuSans-30" x="254.492188"/>
      </g>
     </g>
    </g>
    <g id="ytick_4">
     <g id="line2d_4">
      <path d="M 53.328125 153.1953 
L 992.998125 153.1953 
" clip-path="url(#p48dafe67da)" style="fill: none; stroke: #dedede; stroke-linecap: square"/>
     </g>
     <g id="text_11">
      <!-- 15000 -->
      <g transform="translate(20.878125 156.234675)scale(0.08 -0.08)">
       <use xlink:href="#DejaVuSans-31"/>
       <use xlink:href="#DejaVuSans-35" x="63.623047"/>
       <use xlink:href="#DejaVuSans-30" x="127.246094"/>
       <use xlink:href="#DejaVuSans-30" x="190.869141"/>
       <use xlink:href="#DejaVuSans-30" x="254.492188"/>
      </g>
     </g>
    </g>
    <g id="ytick_5">
     <g id="line2d_5">
      <path d="M 53.328125 112.930379 
L 992.998125 112.930379 
" clip-path="url(#p48dafe67da)" style="fill: none; stroke: #dedede; stroke-linecap: square"/>
     </g>
     <g id="text_12">
      <!-- 20000 -->
      <g transform="translate(20.878125 115.969754)scale(0.08 -0.08)">
       <use xlink:href="#DejaVuSans-32"/>
       <use xlink:href="#DejaVuSans-30" x="63.623047"/>
       <use xlink:href="#DejaVuSans-30" x="127.246094"/>
       <use xlink:href="#DejaVuSans-30" x="190.869141"/>
       <use xlink:href="#DejaVuSans-30" x="254.492188"/>
      </g>
     </g>
    </g>
    <g id="ytick_6">
     <g id="line2d_6">
      <path d="M 53.328125 72.665459 
L 992.998125 72.665459 
" clip-path="url(#p48dafe67da)" style="fill: none; stroke: #dedede; stroke-linecap: square"/>
     </g>
     <g id="text_13">
      <!-- 25000 -->
      <g transform="translate(20.878125 75.704834)scale(0.08 -0.08)">
       <use xlink:href="#DejaVuSans-32"/>
       <use xlink:href="#DejaVuSans-35" x="63.623047"/>
       <use xlink:href="#DejaVuSans-30" x="127.246094"/>
       <use xlink:href="#DejaVuSans-30" x="190.869141"/>
       <use xlink:href="#DejaVuSans-30" x="254.492188"/>
      </g>
     </g>
    </g>
    <g id="ytick_7">
     <g id="line2d_7">
      <path d="M 53.328125 32.400539 
L 992.998125 32.400539 
" clip-path="url(#p48dafe67da)" style="fill: none; stroke: #dedede; stroke-linecap: square"/>
     </g>
     <g id="text_14">
      <!-- 30000 -->
      <g transform="translate(20.878125 35.439914)scale(0.08 -0.08)">
       <defs>
        <path id="DejaVuSans-33" d="M 2597 2516 
Q 3050 2419 3304 2112 
Q 3559 1806 3559 1356 
Q 3559 666 3084 287 
Q 2609 -91 1734 -91 
Q 1441 -91 1130 -33 
Q 819 25 488 141 
L 488 750 
Q 750 597 1062 519 
Q 1375 441 1716 441 
Q 2309 441 2620 675 
Q 2931 909 2931 1356 
Q 2931 1769 2642 2001 
Q 2353 2234 1838 2234 
L 1294 2234 
L 1294 2753 
L 1863 2753 
Q 2328 2753 2575 2939 
Q 2822 3125 2822 3475 
Q 2822 3834 2567 4026 
Q 2313 4219 1838 4219 
Q 1578 4219 1281 4162 
Q 984 4106 628 3988 
L 628 4550 
Q 988 4650 1302 4700 
Q 1616 4750 1894 4750 
Q 2613 4750 3031 4423 
Q 3450 4097 3450 3541 
Q 3450 3153 3228 2886 
Q 3006 2619 2597 2516 
z
" transform="scale(0.015625)"/>
       </defs>
       <use xlink:href="#DejaVuSans-33"/>
       <use xlink:href="#DejaVuSans-30" x="63.623047"/>
       <use xlink:href="#DejaVuSans-30" x="127.246094"/>
       <use xlink:href="#DejaVuSans-30" x="190.869141"/>
       <use xlink:href="#DejaVuSans-30" x="254.492188"/>
      </g>
     </g>
    </g>
    <g id="text_15">
     <!-- Observed / Expected -->
     <g transform="translate(14.798438 204.985679)rotate(-90)scale(0.1 -0.1)">
      <defs>
       <path id="DejaVuSans-4f" d="M 2522 4238 
Q 1834 4238 1429 3725 
Q 1025 3213 1025 2328 
Q 1025 1447 1429 934 
Q 1834 422 2522 422 
Q 3209 422 3611 934 
Q 4013 1447 4013 2328 
Q 4013 3213 3611 3725 
Q 3209 4238 2522 4238 
z
M 2522 4750 
Q 3503 4750 4090 4092 
Q 4678 3434 4678 2328 
Q 4678 1225 4090 567 
Q 3503 -91 2522 -91 
Q 1538 -91 948 565 
Q 359 1222 359 2328 
Q 359 3434 948 4092 
Q 1538 4750 2522 4750 
z
" transform="scale(0.015625)"/>
       <path id="DejaVuSans-73" d="M 2834 3397 
L 2834 2853 
Q 2591 2978 2328 3040 
Q 2066 3103 1784 3103 
Q 1356 3103 1142 2972 
Q 928 2841 928 2578 
Q 928 2378 1081 2264 
Q 1234 2150 1697 2047 
L 1894 2003 
Q 2506 1872 2764 1633 
Q 3022 1394 3022 966 
Q 3022 478 2636 193 
Q 2250 -91 1575 -91 
Q 1294 -91 989 -36 
Q 684 19 347 128 
L 347 722 
Q 666 556 975 473 
Q 1284 391 1588 391 
Q 1994 391 2212 530 
Q 2431 669 2431 922 
Q 2431 1156 2273 1281 
Q 2116 1406 1581 1522 
L 1381 1569 
Q 847 1681 609 1914 
Q 372 2147 372 2553 
Q 372 3047 722 3315 
Q 1072 3584 1716 3584 
Q 2034 3584 2315 3537 
Q 2597 3491 2834 3397 
z
" transform="scale(0.015625)"/>
       <path id="DejaVuSans-76" d="M 191 3500 
L 800 3500 
L 1894 563 
L 2988 3500 
L 3597 3500 
L 2284 0 
L 1503 0 
L 191 3500 
z
" transform="scale(0.015625)"/>
       <path id="DejaVuSans-2f" d="M 1625 4666 
L 2156 4666 
L 531 -594 
L 0 -594 
L 1625 4666 
z
" transform="scale(0.015625)"/>
       <path id="DejaVuSans-45" d="M 628 4666 
L 3578 4666 
L 3578 4134 
L 1259 4134 
L 1259 2753 
L 3481 2753 
L 3481 2222 
L 1259 2222 
L 1259 531 
L 3634 531 
L 3634 0 
L 628 0 
L 628 4666 
z
" transform="scale(0.015625)"/>
       <path id="DejaVuSans-78" d="M 3513 3500 
L 2247 1797 
L 3578 0 
L 2900 0 
L 1881 1375 
L 863 0 
L 184 0 
L 1544 1831 
L 300 3500 
L 978 3500 
L 1906 2253 
L 2834 3500 
L 3513 3500 
z
" transform="scale(0.015625)"/>
       <path id="DejaVuSans-63" d="M 3122 3366 
L 3122 2828 
Q 2878 2963 2633 3030 
Q 2388 3097 2138 3097 
Q 1578 3097 1268 2742 
Q 959 2388 959 1747 
Q 959 1106 1268 751 
Q 1578 397 2138 397 
Q 2388 397 2633 464 
Q 2878 531 3122 666 
L 3122 134 
Q 2881 22 2623 -34 
Q 2366 -91 2075 -91 
Q 1284 -91 818 406 
Q 353 903 353 1747 
Q 353 2603 823 3093 
Q 1294 3584 2113 3584 
Q 2378 3584 2631 3529 
Q 2884 3475 3122 3366 
z
" transform="scale(0.015625)"/>
      </defs>
      <use xlink:href="#DejaVuSans-4f"/>
      <use xlink:href="#DejaVuSans-62" x="78.710938"/>
      <use xlink:href="#DejaVuSans-73" x="142.1875"/>
      <use xlink:href="#DejaVuSans-65" x="194.287109"/>
      <use xlink:href="#DejaVuSans-72" x="255.810547"/>
      <use xlink:href="#DejaVuSans-76" x="296.923828"/>
      <use xlink:href="#DejaVuSans-65" x="356.103516"/>
      <use xlink:href="#DejaVuSans-64" x="417.626953"/>
      <use xlink:href="#DejaVuSans-20" x="481.103516"/>
      <use xlink:href="#DejaVuSans-2f" x="512.890625"/>
      <use xlink:href="#DejaVuSans-20" x="546.582031"/>
      <use xlink:href="#DejaVuSans-45" x="578.369141"/>
      <use xlink:href="#DejaVuSans-78" x="641.552734"/>
      <use xlink:href="#DejaVuSans-70" x="700.732422"/>
      <use xlink:href="#DejaVuSans-65" x="764.208984"/>
      <use xlink:href="#DejaVuSans-63" x="825.732422"/>
      <use xlink:href="#DejaVuSans-74" x="880.712891"/>
      <use xlink:href="#DejaVuSans-65" x="919.921875"/>
      <use xlink:href="#DejaVuSans-64" x="981.445312"/>
     </g>
    </g>
   </g>
   <g id="line2d_8">
    <path d="M 96.040398 273.98273 
L 104.582852 273.979863 
L 113.125307 273.97907 
L 121.667761 273.979774 
L 130.210216 273.975088 
L 138.75267 273.956221 
L 147.295125 273.885703 
L 155.83758 273.632452 
L 164.380034 272.630772 
L 172.922489 269.522968 
L 181.464943 259.326308 
L 190.007398 219.374722 
L 198.549852 74.920295 
L 207.092307 79.349436 
L 215.634761 101.656202 
L 224.177216 116.876342 
L 232.71967 106.568522 
L 241.262125 130.566414 
L 249.80458 196.923003 
L 258.347034 194.023929 
L 266.889489 205.217576 
L 275.431943 218.021821 
L 283.974398 223.33679 
L 292.516852 232.678252 
L 301.059307 229.134939 
L 309.601761 239.764878 
L 318.144216 240.892296 
L 326.68667 239.281699 
L 335.229125 245.321437 
L 343.77158 240.248057 
L 352.314034 259.333629 
L 360.856489 259.897338 
L 369.398943 259.09204 
L 377.941398 257.964622 
L 386.483852 254.662898 
L 395.026307 258.608861 
L 403.568761 260.380517 
L 412.111216 257.400913 
L 420.65367 256.354025 
L 429.196125 260.380517 
L 437.73858 259.977868 
L 446.281034 264.00436 
L 454.823489 263.279591 
L 463.365943 262.796412 
L 471.908398 257.159323 
L 480.450852 254.743428 
L 488.993307 266.500785 
L 497.535761 264.568069 
L 506.078216 263.279591 
L 514.62067 264.407009 
L 523.163125 262.071644 
L 531.70558 253.132831 
L 540.248034 253.77707 
L 548.790489 268.272441 
L 557.332943 267.306083 
L 565.875398 266.983964 
L 574.417852 261.830054 
L 582.960307 258.367271 
L 591.502761 259.977868 
L 600.045216 264.648599 
L 608.58767 260.461047 
L 617.130125 259.01151 
L 625.67258 244.274549 
L 634.215034 250.636406 
L 642.757489 265.776016 
L 651.299943 262.232703 
L 659.842398 253.93813 
L 668.384852 240.248057 
L 676.927307 219.551888 
L 685.469761 222.612022 
L 694.012216 263.440651 
L 702.55467 270.929926 
L 711.097125 272.621053 
L 719.63958 272.943172 
L 728.182034 273.265291 
L 736.724489 273.506881 
L 745.266943 273.265291 
L 753.809398 273.184762 
L 762.351852 273.265291 
L 770.894307 273.426351 
L 779.436761 273.023702 
L 787.979216 273.345821 
L 796.52167 273.587411 
L 805.064125 273.345821 
L 813.60658 273.506881 
L 822.149034 272.943172 
L 830.691489 273.184762 
L 839.233943 273.104232 
L 847.776398 273.426351 
L 856.318852 273.74847 
L 864.861307 273.667941 
L 873.403761 273.104232 
L 881.946216 273.587411 
L 890.48867 273.023702 
L 899.031125 273.74847 
L 907.57358 273.345821 
L 916.116034 273.426351 
L 924.658489 273.023702 
L 933.200943 273.829 
L 941.743398 273.587411 
L 950.285852 273.426351 
" clip-path="url(#p48dafe67da)" style="fill: none; stroke: #7cb5ec; stroke-linecap: square"/>
   </g>
   <g id="line2d_9">
    <path d="M 96.040398 273.982834 
L 104.582852 273.980018 
L 113.125307 273.979346 
L 121.667761 273.979938 
L 130.210216 273.975302 
L 138.75267 273.958336 
L 147.295125 273.884689 
L 155.83758 273.622015 
L 164.380034 272.658247 
L 172.922489 269.425783 
L 181.464943 259.44946 
L 190.007398 218.035243 
L 198.549852 128.875288 
L 207.092307 132.225329 
L 215.634761 156.658083 
L 224.177216 160.732893 
L 232.71967 166.01565 
L 241.262125 182.943023 
L 249.80458 218.34394 
L 258.347034 219.149239 
L 266.889489 226.638514 
L 275.431943 229.473164 
L 283.974398 236.608108 
L 292.516852 241.053355 
L 301.059307 242.116349 
L 309.601761 249.750578 
L 318.144216 249.138551 
L 326.68667 247.62459 
L 335.229125 252.504699 
L 343.77158 252.520805 
L 352.314034 261.588465 
L 360.856489 260.799272 
L 369.398943 262.168279 
L 377.941398 261.475723 
L 386.483852 262.68367 
L 395.026307 262.152173 
L 403.568761 258.512225 
L 412.111216 256.949946 
L 420.65367 266.822904 
L 429.196125 265.84044 
L 437.73858 266.532997 
L 446.281034 267.096706 
L 454.823489 266.597421 
L 463.365943 266.484679 
L 471.908398 263.424545 
L 480.450852 262.635353 
L 488.993307 267.531567 
L 497.535761 267.289977 
L 506.078216 267.064494 
L 514.62067 267.322189 
L 523.163125 266.484679 
L 531.70558 262.329339 
L 540.248034 263.215167 
L 548.790489 269.432071 
L 557.332943 269.238799 
L 565.875398 268.143594 
L 574.417852 266.033712 
L 582.960307 264.503645 
L 591.502761 265.502215 
L 600.045216 266.677951 
L 608.58767 264.713022 
L 617.130125 263.488969 
L 625.67258 254.469627 
L 634.215034 257.078794 
L 642.757489 265.566639 
L 651.299943 264.181525 
L 659.842398 257.964622 
L 668.384852 246.690444 
L 676.927307 232.629934 
L 685.469761 232.48498 
L 694.012216 262.92526 
L 702.55467 270.656125 
L 711.097125 272.298933 
L 719.63958 273.088126 
L 728.182034 273.249185 
L 736.724489 273.458563 
L 745.266943 273.587411 
L 753.809398 273.539093 
L 762.351852 273.587411 
L 770.894307 273.571305 
L 779.436761 273.426351 
L 787.979216 273.426351 
L 796.52167 273.74847 
L 805.064125 273.539093 
L 813.60658 273.603517 
L 822.149034 273.603517 
L 830.691489 273.651835 
L 839.233943 273.555199 
L 847.776398 273.522987 
L 856.318852 273.603517 
L 864.861307 273.651835 
L 873.403761 273.200868 
L 881.946216 273.539093 
L 890.48867 273.684047 
L 899.031125 273.764576 
L 907.57358 273.603517 
L 916.116034 273.603517 
L 924.658489 273.297503 
L 933.200943 273.651835 
L 941.743398 273.635729 
L 950.285852 272.782112 
" clip-path="url(#p48dafe67da)" style="fill: none; stroke: #434348; stroke-linecap: square"/>
   </g>
   <g id="line2d_10">
    <path d="M 96.040398 273.982794 
L 104.582852 273.979998 
L 113.125307 273.979372 
L 121.667761 273.980053 
L 130.210216 273.975797 
L 138.75267 273.960174 
L 147.295125 273.89674 
L 155.83758 273.659434 
L 164.380034 272.740034 
L 172.922489 270.100585 
L 181.464943 260.972236 
L 190.007398 226.278498 
L 198.549852 112.205611 
L 207.092307 128.81489 
L 215.634761 140.149465 
L 224.177216 152.108147 
L 232.71967 154.886426 
L 241.262125 173.690144 
L 249.80458 210.653341 
L 258.347034 213.632945 
L 266.889489 220.96116 
L 275.431943 228.269243 
L 283.974398 234.832425 
L 292.516852 239.120639 
L 301.059307 237.228188 
L 309.601761 248.039319 
L 318.144216 243.912165 
L 326.68667 238.536798 
L 335.229125 245.482497 
L 343.77158 243.690708 
L 352.314034 258.729655 
L 360.856489 257.320383 
L 369.398943 258.045152 
L 377.941398 252.367798 
L 386.483852 256.1527 
L 395.026307 258.125681 
L 403.568761 258.387403 
L 412.111216 261.830054 
L 420.65367 260.702636 
L 429.196125 258.306874 
L 437.73858 259.675881 
L 446.281034 262.977604 
L 454.823489 260.501312 
L 463.365943 260.279855 
L 471.908398 252.186606 
L 480.450852 250.877996 
L 488.993307 261.5482 
L 497.535761 263.561446 
L 506.078216 262.756147 
L 514.62067 262.333366 
L 523.163125 260.642239 
L 531.70558 248.139981 
L 540.248034 250.213625 
L 548.790489 266.098136 
L 557.332943 265.574692 
L 565.875398 262.756147 
L 574.417852 257.863959 
L 582.960307 255.689654 
L 591.502761 254.562236 
L 600.045216 260.259722 
L 608.58767 256.55535 
L 617.130125 251.099453 
L 625.67258 225.329904 
L 634.215034 240.550044 
L 642.757489 260.823431 
L 651.299943 257.159323 
L 659.842398 239.623951 
L 668.384852 212.968574 
L 676.927307 177.434781 
L 685.469761 165.71769 
L 694.012216 254.662898 
L 702.55467 267.044361 
L 711.097125 271.835887 
L 719.63958 272.641185 
L 728.182034 273.204894 
L 736.724489 273.386086 
L 745.266943 273.486748 
L 753.809398 273.486748 
L 762.351852 273.164629 
L 770.894307 273.345821 
L 779.436761 272.822377 
L 787.979216 273.204894 
L 796.52167 273.547146 
L 805.064125 273.124364 
L 813.60658 273.406219 
L 822.149034 273.365954 
L 830.691489 273.365954 
L 839.233943 273.406219 
L 847.776398 273.527013 
L 856.318852 273.386086 
L 864.861307 273.305556 
L 873.403761 272.802245 
L 881.946216 273.466616 
L 890.48867 273.446484 
L 899.031125 273.587411 
L 907.57358 273.365954 
L 916.116034 273.265291 
L 924.658489 273.164629 
L 933.200943 273.426351 
L 941.743398 273.063967 
L 950.285852 269.319329 
" clip-path="url(#p48dafe67da)" style="fill: none; stroke: #90ed7d; stroke-linecap: square"/>
   </g>
   <g id="line2d_11">
    <path d="M 96.040398 273.982776 
L 104.582852 273.97986 
L 113.125307 273.979237 
L 121.667761 273.979865 
L 130.210216 273.975199 
L 138.75267 273.958119 
L 147.295125 273.890763 
L 155.83758 273.63895 
L 164.380034 272.686516 
L 172.922489 269.690431 
L 181.464943 260.108729 
L 190.007398 222.162397 
L 198.549852 117.8427 
L 207.092307 129.30478 
L 215.634761 143.424346 
L 224.177216 158.241836 
L 232.71967 149.571457 
L 241.262125 169.408641 
L 249.80458 217.135993 
L 258.347034 214.075859 
L 266.889489 224.947387 
L 275.431943 229.591275 
L 283.974398 234.664655 
L 292.516852 239.657505 
L 301.059307 241.885497 
L 309.601761 248.354728 
L 318.144216 246.717287 
L 326.68667 247.200466 
L 335.229125 249.938481 
L 343.77158 250.153227 
L 352.314034 261.937427 
L 360.856489 260.48789 
L 369.398943 261.991114 
L 377.941398 260.783166 
L 386.483852 253.750227 
L 395.026307 257.454599 
L 403.568761 260.863696 
L 412.111216 264.138576 
L 420.65367 263.145375 
L 429.196125 266.608158 
L 437.73858 266.930277 
L 446.281034 265.507583 
L 454.823489 265.051248 
L 463.365943 264.755972 
L 471.908398 257.749876 
L 480.450852 258.179368 
L 488.993307 268.004009 
L 497.535761 267.547673 
L 506.078216 266.124979 
L 514.62067 267.708732 
L 523.163125 265.024404 
L 531.70558 256.327182 
L 540.248034 261.534778 
L 548.790489 270.232001 
L 557.332943 268.889837 
L 565.875398 268.111382 
L 574.417852 265.131778 
L 582.960307 263.735927 
L 591.502761 263.92383 
L 600.045216 267.145024 
L 608.58767 264.917031 
L 617.130125 264.031203 
L 625.67258 254.716585 
L 634.215034 260.192614 
L 642.757489 267.842949 
L 651.299943 267.145024 
L 659.842398 260.595263 
L 668.384852 252.327533 
L 676.927307 242.717639 
L 685.469761 245.831459 
L 694.012216 267.386613 
L 702.55467 271.037299 
L 711.097125 272.970015 
L 719.63958 273.453194 
L 728.182034 273.345821 
L 736.724489 273.560568 
L 745.266943 273.694784 
L 753.809398 273.560568 
L 762.351852 273.480038 
L 770.894307 273.292135 
L 779.436761 273.238448 
L 787.979216 273.533724 
L 796.52167 273.560568 
L 805.064125 273.453194 
L 813.60658 273.480038 
L 822.149034 273.399508 
L 830.691489 273.506881 
L 839.233943 273.667941 
L 847.776398 273.506881 
L 856.318852 273.587411 
L 864.861307 273.614254 
L 873.403761 273.345821 
L 881.946216 273.74847 
L 890.48867 273.667941 
L 899.031125 273.74847 
L 907.57358 273.721627 
L 916.116034 273.802157 
L 924.658489 273.399508 
L 933.200943 273.74847 
L 941.743398 273.721627 
L 950.285852 273.480038 
" clip-path="url(#p48dafe67da)" style="fill: none; stroke: #f7a35c; stroke-linecap: square"/>
   </g>
   <g id="line2d_12">
    <path d="M 96.040398 273.98282 
L 104.582852 273.979986 
L 113.125307 273.979192 
L 121.667761 273.979645 
L 130.210216 273.974229 
L 138.75267 273.954396 
L 147.295125 273.876044 
L 155.83758 273.584654 
L 164.380034 272.443396 
L 172.922489 268.996119 
L 181.464943 257.744915 
L 190.007398 216.110113 
L 198.549852 96.609665 
L 207.092307 110.447376 
L 215.634761 134.082884 
L 224.177216 133.250742 
L 232.71967 140.766861 
L 241.262125 156.000422 
L 249.80458 208.962214 
L 258.347034 210.438594 
L 266.889489 216.464911 
L 275.431943 225.417145 
L 283.974398 230.691849 
L 292.516852 233.48355 
L 301.059307 235.107569 
L 309.601761 243.603467 
L 318.144216 245.992519 
L 326.68667 246.515963 
L 335.229125 248.905015 
L 343.77158 248.878171 
L 352.314034 259.655748 
L 360.856489 259.736278 
L 369.398943 262.004535 
L 377.941398 259.696013 
L 386.483852 263.279591 
L 395.026307 262.850099 
L 403.568761 262.94405 
L 412.111216 264.541225 
L 420.65367 263.789614 
L 429.196125 265.427054 
L 437.73858 265.48074 
L 446.281034 264.970718 
L 454.823489 264.205684 
L 463.365943 265.40021 
L 471.908398 260.56842 
L 480.450852 261.897162 
L 488.993307 268.01743 
L 497.535761 267.547673 
L 506.078216 267.695311 
L 514.62067 267.19871 
L 523.163125 266.822904 
L 531.70558 260.863696 
L 540.248034 263.011158 
L 548.790489 270.191736 
L 557.332943 269.534076 
L 565.875398 268.33955 
L 574.417852 266.782639 
L 582.960307 265.440475 
L 591.502761 264.970718 
L 600.045216 266.876591 
L 608.58767 265.816281 
L 617.130125 265.265994 
L 625.67258 256.716409 
L 634.215034 260.031554 
L 642.757489 267.923479 
L 651.299943 266.930277 
L 659.842398 262.098487 
L 668.384852 253.508637 
L 676.927307 243.509515 
L 685.469761 239.053531 
L 694.012216 263.722505 
L 702.55467 270.325952 
L 711.097125 272.366042 
L 719.63958 273.077388 
L 728.182034 273.412929 
L 736.724489 273.573989 
L 745.266943 273.520303 
L 753.809398 273.681362 
L 762.351852 273.614254 
L 770.894307 273.506881 
L 779.436761 273.480038 
L 787.979216 273.547146 
L 796.52167 273.735049 
L 805.064125 273.399508 
L 813.60658 273.520303 
L 822.149034 273.453194 
L 830.691489 273.587411 
L 839.233943 273.600832 
L 847.776398 273.533724 
L 856.318852 273.587411 
L 864.861307 273.694784 
L 873.403761 273.211605 
L 881.946216 273.547146 
L 890.48867 273.761892 
L 899.031125 273.735049 
L 907.57358 273.681362 
L 916.116034 273.573989 
L 924.658489 273.050545 
L 933.200943 273.654519 
L 941.743398 273.74847 
L 950.285852 273.493459 
" clip-path="url(#p48dafe67da)" style="fill: none; stroke: #8085e9; stroke-linecap: square"/>
   </g>
   <g id="line2d_13">
    <path d="M 96.040398 273.982763 
L 104.582852 273.979987 
L 113.125307 273.979481 
L 121.667761 273.980323 
L 130.210216 273.977132 
L 138.75267 273.964838 
L 147.295125 273.911009 
L 155.83758 273.726854 
L 164.380034 273.00366 
L 172.922489 270.68979 
L 181.464943 263.455823 
L 190.007398 235.108358 
L 198.549852 149.933841 
L 207.092307 155.993712 
L 215.634761 179.488292 
L 224.177216 185.588428 
L 232.71967 187.702336 
L 241.262125 200.305256 
L 249.80458 229.899972 
L 258.347034 230.000635 
L 266.889489 235.416267 
L 275.431943 239.583686 
L 283.974398 244.415476 
L 292.516852 247.374948 
L 301.059307 249.086207 
L 309.601761 252.730182 
L 318.144216 251.663162 
L 326.68667 250.354552 
L 335.229125 254.783693 
L 343.77158 254.179719 
L 352.314034 263.782903 
L 360.856489 261.729392 
L 369.398943 264.366744 
L 377.941398 261.427405 
L 386.483852 262.413895 
L 395.026307 263.440651 
L 403.568761 263.440651 
L 412.111216 265.655222 
L 420.65367 264.668731 
L 429.196125 263.440651 
L 437.73858 266.138401 
L 446.281034 264.165419 
L 454.823489 264.547936 
L 463.365943 263.964095 
L 471.908398 259.192702 
L 480.450852 261.367008 
L 488.993307 266.561182 
L 497.535761 267.326216 
L 506.078216 265.856546 
L 514.62067 267.44701 
L 523.163125 265.272705 
L 531.70558 258.568596 
L 540.248034 261.507935 
L 548.790489 269.399859 
L 557.332943 269.319329 
L 565.875398 268.191911 
L 574.417852 264.970718 
L 582.960307 264.346612 
L 591.502761 263.420518 
L 600.045216 266.561182 
L 608.58767 264.225817 
L 617.130125 264.688863 
L 625.67258 254.481706 
L 634.215034 260.340252 
L 642.757489 267.406746 
L 651.299943 267.064494 
L 659.842398 260.340252 
L 668.384852 252.528858 
L 676.927307 239.543421 
L 685.469761 238.214678 
L 694.012216 264.568069 
L 702.55467 270.487012 
L 711.097125 272.52039 
L 719.63958 273.204894 
L 728.182034 273.305556 
L 736.724489 273.547146 
L 745.266943 273.305556 
L 753.809398 273.708206 
L 762.351852 273.627676 
L 770.894307 273.245159 
L 779.436761 273.164629 
L 787.979216 273.587411 
L 796.52167 273.688073 
L 805.064125 273.406219 
L 813.60658 273.547146 
L 822.149034 273.365954 
L 830.691489 273.567278 
L 839.233943 273.688073 
L 847.776398 273.406219 
L 856.318852 273.547146 
L 864.861307 273.567278 
L 873.403761 273.124364 
L 881.946216 273.426351 
L 890.48867 273.849133 
L 899.031125 273.708206 
L 907.57358 273.567278 
L 916.116034 273.74847 
L 924.658489 273.265291 
L 933.200943 273.667941 
L 941.743398 273.768603 
L 950.285852 273.325689 
" clip-path="url(#p48dafe67da)" style="fill: none; stroke: #f15c80; stroke-linecap: square"/>
   </g>
   <g id="line2d_14">
    <path d="M 96.040398 273.982751 
L 104.582852 273.979867 
L 113.125307 273.979048 
L 121.667761 273.979367 
L 130.210216 273.97321 
L 138.75267 273.949672 
L 147.295125 273.858506 
L 155.83758 273.525023 
L 164.380034 272.275381 
L 172.922489 268.399712 
L 181.464943 255.642678 
L 190.007398 209.056165 
L 198.549852 43.030478 
L 207.092307 57.968763 
L 215.634761 85.147585 
L 224.177216 97.790769 
L 232.71967 95.737259 
L 241.262125 115.06442 
L 249.80458 190.359821 
L 258.347034 192.534127 
L 266.889489 201.674263 
L 275.431943 209.405128 
L 283.974398 214.760362 
L 292.516852 220.518246 
L 301.059307 224.665533 
L 309.601761 235.456531 
L 318.144216 235.698121 
L 326.68667 236.825539 
L 335.229125 241.657329 
L 343.77158 237.550307 
L 352.314034 256.877469 
L 360.856489 254.058925 
L 369.398943 257.320383 
L 377.941398 253.052302 
L 386.483852 257.521708 
L 395.026307 259.575219 
L 403.568761 259.172569 
L 412.111216 261.749524 
L 420.65367 260.984491 
L 429.196125 263.360121 
L 437.73858 263.360121 
L 446.281034 264.00436 
L 454.823489 262.957472 
L 463.365943 263.158796 
L 471.908398 258.608861 
L 480.450852 259.977868 
L 488.993307 265.373367 
L 497.535761 265.252572 
L 506.078216 264.648599 
L 514.62067 265.776016 
L 523.163125 263.521181 
L 531.70558 257.199588 
L 540.248034 259.09204 
L 548.790489 268.151647 
L 557.332943 267.547673 
L 565.875398 266.057871 
L 574.417852 263.92383 
L 582.960307 261.266345 
L 591.502761 261.5482 
L 600.045216 263.641976 
L 608.58767 262.635353 
L 617.130125 257.561973 
L 625.67258 246.167 
L 634.215034 251.039056 
L 642.757489 262.111909 
L 651.299943 261.024756 
L 659.842398 250.394817 
L 668.384852 239.040109 
L 676.927307 227.564607 
L 685.469761 234.651233 
L 694.012216 266.54105 
L 702.55467 271.010456 
L 711.097125 272.701583 
L 719.63958 273.345821 
L 728.182034 273.265291 
L 736.724489 273.708206 
L 745.266943 273.426351 
L 753.809398 273.667941 
L 762.351852 273.587411 
L 770.894307 273.788735 
L 779.436761 272.822377 
L 787.979216 273.386086 
L 796.52167 273.466616 
L 805.064125 273.063967 
L 813.60658 273.788735 
L 822.149034 273.466616 
L 830.691489 273.386086 
L 839.233943 273.466616 
L 847.776398 273.426351 
L 856.318852 273.587411 
L 864.861307 273.144497 
L 873.403761 273.386086 
L 881.946216 273.426351 
L 890.48867 273.466616 
L 899.031125 273.829 
L 907.57358 273.667941 
L 916.116034 273.708206 
L 924.658489 273.184762 
L 933.200943 273.74847 
L 941.743398 273.627676 
L 950.285852 272.782112 
" clip-path="url(#p48dafe67da)" style="fill: none; stroke: #e4d354; stroke-linecap: square"/>
   </g>
   <g id="line2d_15">
    <path d="M 96.040398 273.982839 
L 104.582852 273.979987 
L 113.125307 273.979134 
L 121.667761 273.979337 
L 130.210216 273.973165 
L 138.75267 273.950005 
L 147.295125 273.860985 
L 155.83758 273.533136 
L 164.380034 272.238564 
L 172.922489 268.347496 
L 181.464943 255.534085 
L 190.007398 206.279106 
L 198.549852 81.201622 
L 207.092307 93.925337 
L 215.634761 115.88314 
L 224.177216 124.728001 
L 232.71967 130.821426 
L 241.262125 152.658434 
L 249.80458 196.627727 
L 258.347034 202.345345 
L 266.889489 211.767337 
L 275.431943 219.229769 
L 283.974398 226.007697 
L 292.516852 230.436838 
L 301.059307 233.121166 
L 309.601761 242.422363 
L 318.144216 243.321612 
L 326.68667 241.442583 
L 335.229125 248.086295 
L 343.77158 246.462276 
L 352.314034 260.058398 
L 360.856489 259.185991 
L 369.398943 261.588465 
L 377.941398 259.400737 
L 386.483852 261.091864 
L 395.026307 260.246301 
L 403.568761 262.662196 
L 412.111216 260.206036 
L 420.65367 262.407185 
L 429.196125 264.917031 
L 437.73858 265.239151 
L 446.281034 265.064669 
L 454.823489 263.735927 
L 463.365943 264.232528 
L 471.908398 257.79014 
L 480.450852 260.635528 
L 488.993307 267.520829 
L 497.535761 267.641624 
L 506.078216 267.292662 
L 514.62067 267.238975 
L 523.163125 267.064494 
L 531.70558 259.441002 
L 540.248034 263.534602 
L 548.790489 270.138049 
L 557.332943 269.695135 
L 565.875398 268.071117 
L 574.417852 266.057871 
L 582.960307 264.98414 
L 591.502761 265.359945 
L 600.045216 267.896635 
L 608.58767 265.990763 
L 617.130125 265.172042 
L 625.67258 258.407536 
L 634.215034 261.051599 
L 642.757489 268.728777 
L 651.299943 267.561094 
L 659.842398 263.615132 
L 668.384852 254.01866 
L 676.927307 242.583422 
L 685.469761 237.711367 
L 694.012216 262.903785 
L 702.55467 270.312531 
L 711.097125 272.366042 
L 719.63958 272.902907 
L 728.182034 273.412929 
L 736.724489 273.654519 
L 745.266943 273.708206 
L 753.809398 273.681362 
L 762.351852 273.681362 
L 770.894307 273.641097 
L 779.436761 273.278713 
L 787.979216 273.667941 
L 796.52167 273.654519 
L 805.064125 273.600832 
L 813.60658 273.573989 
L 822.149034 273.426351 
L 830.691489 273.560568 
L 839.233943 273.560568 
L 847.776398 273.721627 
L 856.318852 273.533724 
L 864.861307 273.681362 
L 873.403761 273.211605 
L 881.946216 273.654519 
L 890.48867 273.735049 
L 899.031125 273.788735 
L 907.57358 273.627676 
L 916.116034 273.641097 
L 924.658489 273.278713 
L 933.200943 273.573989 
L 941.743398 273.761892 
L 950.285852 273.265291 
" clip-path="url(#p48dafe67da)" style="fill: none; stroke: #2b908f; stroke-linecap: square"/>
   </g>
   <g id="line2d_16">
    <path d="M 96.040398 273.982775 
L 104.582852 273.979998 
L 113.125307 273.979367 
L 121.667761 273.98018 
L 130.210216 273.976217 
L 138.75267 273.961795 
L 147.295125 273.905821 
L 155.83758 273.687138 
L 164.380034 272.817871 
L 172.922489 270.350878 
L 181.464943 261.723197 
L 190.007398 231.668532 
L 198.549852 130.808004 
L 207.092307 141.464786 
L 215.634761 159.879276 
L 224.177216 161.892522 
L 232.71967 158.134463 
L 241.262125 176.092617 
L 249.80458 225.13529 
L 258.347034 223.122044 
L 266.889489 227.524342 
L 275.431943 236.865804 
L 283.974398 239.201169 
L 292.516852 240.51649 
L 301.059307 243.173974 
L 309.601761 249.482145 
L 318.144216 250.904839 
L 326.68667 250.287444 
L 335.229125 248.891593 
L 343.77158 250.126384 
L 352.314034 260.40736 
L 360.856489 261.481091 
L 369.398943 262.098487 
L 377.941398 256.810361 
L 386.483852 262.501136 
L 395.026307 260.917383 
L 403.568761 262.984315 
L 412.111216 264.943875 
L 420.65367 258.984666 
L 429.196125 263.735927 
L 437.73858 263.494337 
L 446.281034 265.534427 
L 454.823489 264.326479 
L 463.365943 264.702285 
L 471.908398 256.944577 
L 480.450852 262.0448 
L 488.993307 269.480389 
L 497.535761 269.560919 
L 506.078216 268.889837 
L 514.62067 269.024053 
L 523.163125 268.862994 
L 531.70558 258.984666 
L 540.248034 265.668643 
L 548.790489 271.466792 
L 557.332943 270.849396 
L 565.875398 269.373016 
L 574.417852 266.769218 
L 582.960307 267.413456 
L 591.502761 267.708732 
L 600.045216 270.258844 
L 608.58767 268.648247 
L 617.130125 269.211956 
L 625.67258 262.152173 
L 634.215034 267.655046 
L 642.757489 271.869441 
L 651.299943 271.198359 
L 659.842398 269.238799 
L 668.384852 264.702285 
L 676.927307 257.21301 
L 685.469761 254.662898 
L 694.012216 267.306083 
L 702.55467 271.359419 
L 711.097125 272.916329 
L 719.63958 273.104232 
L 728.182034 273.318978 
L 736.724489 273.667941 
L 745.266943 273.560568 
L 753.809398 273.560568 
L 762.351852 273.74847 
L 770.894307 273.560568 
L 779.436761 273.131075 
L 787.979216 273.399508 
L 796.52167 273.560568 
L 805.064125 273.480038 
L 813.60658 273.614254 
L 822.149034 273.372665 
L 830.691489 273.694784 
L 839.233943 273.533724 
L 847.776398 273.587411 
L 856.318852 273.641097 
L 864.861307 273.560568 
L 873.403761 273.157918 
L 881.946216 273.641097 
L 890.48867 273.667941 
L 899.031125 273.721627 
L 907.57358 273.90953 
L 916.116034 273.560568 
L 924.658489 273.265291 
L 933.200943 273.74847 
L 941.743398 273.802157 
L 950.285852 273.587411 
" clip-path="url(#p48dafe67da)" style="fill: none; stroke: #f45b5b; stroke-linecap: square"/>
   </g>
   <g id="line2d_17">
    <path d="M 96.040398 273.982831 
L 104.582852 273.979854 
L 113.125307 273.979341 
L 121.667761 273.980098 
L 130.210216 273.975537 
L 138.75267 273.95837 
L 147.295125 273.890021 
L 155.83758 273.647675 
L 164.380034 272.721234 
L 172.922489 269.693651 
L 181.464943 260.30804 
L 190.007398 221.679218 
L 198.549852 113.413558 
L 207.092307 119.23855 
L 215.634761 140.954764 
L 224.177216 139.854189 
L 232.71967 161.570403 
L 241.262125 174.508864 
L 249.80458 218.639216 
L 258.347034 215.06906 
L 266.889489 222.397276 
L 275.431943 228.329641 
L 283.974398 235.604169 
L 292.516852 238.691147 
L 301.059307 239.442759 
L 309.601761 247.844705 
L 318.144216 246.529384 
L 326.68667 246.287795 
L 335.229125 249.643205 
L 343.77158 248.435257 
L 352.314034 261.507935 
L 360.856489 260.863696 
L 369.398943 262.0448 
L 377.941398 259.038353 
L 386.483852 260.622107 
L 395.026307 260.031554 
L 403.568761 259.467845 
L 412.111216 261.105286 
L 420.65367 261.910584 
L 429.196125 260.863696 
L 437.73858 259.843651 
L 446.281034 262.28639 
L 454.823489 260.863696 
L 463.365943 259.628905 
L 471.908398 249.804265 
L 480.450852 254.206563 
L 488.993307 265.963919 
L 497.535761 265.776016 
L 506.078216 264.675442 
L 514.62067 265.507583 
L 523.163125 261.266345 
L 531.70558 251.522235 
L 540.248034 257.884092 
L 548.790489 268.621404 
L 557.332943 267.493986 
L 565.875398 265.72233 
L 574.417852 262.420606 
L 582.960307 260.058398 
L 591.502761 261.749524 
L 600.045216 263.628554 
L 608.58767 262.152173 
L 617.130125 256.327182 
L 625.67258 246.126735 
L 634.215034 252.676496 
L 642.757489 261.856897 
L 651.299943 262.179017 
L 659.842398 251.468548 
L 668.384852 241.99287 
L 676.927307 229.564431 
L 685.469761 237.617415 
L 694.012216 264.299636 
L 702.55467 271.278889 
L 711.097125 272.567366 
L 719.63958 273.050545 
L 728.182034 273.050545 
L 736.724489 273.587411 
L 745.266943 273.506881 
L 753.809398 273.480038 
L 762.351852 273.265291 
L 770.894307 273.667941 
L 779.436761 273.050545 
L 787.979216 273.480038 
L 796.52167 273.74847 
L 805.064125 273.318978 
L 813.60658 273.533724 
L 822.149034 273.157918 
L 830.691489 273.560568 
L 839.233943 273.587411 
L 847.776398 273.506881 
L 856.318852 273.667941 
L 864.861307 273.480038 
L 873.403761 273.265291 
L 881.946216 273.775314 
L 890.48867 273.74847 
L 899.031125 273.74847 
L 907.57358 273.587411 
L 916.116034 273.614254 
L 924.658489 273.292135 
L 933.200943 273.694784 
L 941.743398 273.506881 
L 950.285852 273.050545 
" clip-path="url(#p48dafe67da)" style="fill: none; stroke: #91e8e1; stroke-linecap: square"/>
   </g>
   <g id="line2d_18">
    <path d="M 96.040398 273.982824 
L 104.582852 273.979994 
L 113.125307 273.979071 
L 121.667761 273.979328 
L 130.210216 273.972974 
L 138.75267 273.949029 
L 147.295125 273.85416 
L 155.83758 273.522002 
L 164.380034 272.282758 
L 172.922489 268.137948 
L 181.464943 255.299415 
L 190.007398 203.414603 
L 198.549852 81.137198 
L 207.092307 93.103933 
L 215.634761 117.617216 
L 224.177216 124.494464 
L 232.71967 132.90178 
L 241.262125 151.713551 
L 249.80458 199.644911 
L 258.347034 202.688939 
L 266.889489 214.703992 
L 275.431943 218.698272 
L 283.974398 226.251971 
L 292.516852 231.260927 
L 301.059307 235.770598 
L 309.601761 242.63174 
L 318.144216 244.113489 
L 326.68667 244.451715 
L 335.229125 247.205835 
L 343.77158 247.930604 
L 352.314034 259.639642 
L 360.856489 259.059828 
L 369.398943 261.540147 
L 377.941398 260.106716 
L 386.483852 261.234133 
L 395.026307 260.09061 
L 403.568761 261.411299 
L 412.111216 261.475723 
L 420.65367 262.474293 
L 429.196125 263.440651 
L 437.73858 262.667564 
L 446.281034 263.505075 
L 454.823489 263.327909 
L 463.365943 262.812518 
L 471.908398 256.61172 
L 480.450852 259.301417 
L 488.993307 266.549103 
L 497.535761 266.565209 
L 506.078216 266.114242 
L 514.62067 266.613527 
L 523.163125 265.614957 
L 531.70558 257.481443 
L 540.248034 261.201921 
L 548.790489 269.07774 
L 557.332943 268.787832 
L 565.875398 267.612097 
L 574.417852 264.857976 
L 582.960307 264.068784 
L 591.502761 263.360121 
L 600.045216 266.371937 
L 608.58767 264.213737 
L 617.130125 264.068784 
L 625.67258 252.842924 
L 634.215034 255.838634 
L 642.757489 267.515461 
L 651.299943 265.985394 
L 659.842398 261.282451 
L 668.384852 250.829678 
L 676.927307 238.524718 
L 685.469761 233.580186 
L 694.012216 261.185815 
L 702.55467 268.852256 
L 711.097125 272.07345 
L 719.63958 272.99149 
L 728.182034 273.426351 
L 736.724489 273.490775 
L 745.266943 273.667941 
L 753.809398 273.684047 
L 762.351852 273.635729 
L 770.894307 273.571305 
L 779.436761 273.426351 
L 787.979216 273.780682 
L 796.52167 273.571305 
L 805.064125 273.522987 
L 813.60658 273.555199 
L 822.149034 273.361927 
L 830.691489 273.555199 
L 839.233943 273.603517 
L 847.776398 273.635729 
L 856.318852 273.571305 
L 864.861307 273.651835 
L 873.403761 273.265291 
L 881.946216 273.603517 
L 890.48867 273.74847 
L 899.031125 273.619623 
L 907.57358 273.651835 
L 916.116034 273.667941 
L 924.658489 273.474669 
L 933.200943 273.780682 
L 941.743398 273.684047 
L 950.285852 273.394139 
" clip-path="url(#p48dafe67da)" style="fill: none; stroke: #7cb5ec; stroke-linecap: square"/>
   </g>
   <g id="line2d_19">
    <path d="M 96.040398 273.98282 
L 104.582852 273.979956 
L 113.125307 273.97931 
L 121.667761 273.979958 
L 130.210216 273.975168 
L 138.75267 273.958029 
L 147.295125 273.88642 
L 155.83758 273.635546 
L 164.380034 272.667342 
L 172.922489 269.565674 
L 181.464943 259.860269 
L 190.007398 221.519836 
L 198.549852 123.057007 
L 207.092307 131.472375 
L 215.634761 155.510532 
L 224.177216 167.529611 
L 232.71967 163.704444 
L 241.262125 182.528294 
L 249.80458 219.149239 
L 258.347034 220.477981 
L 266.889489 227.363282 
L 275.431943 233.161431 
L 283.974398 238.738122 
L 292.516852 241.33521 
L 301.059307 243.912165 
L 309.601761 249.267399 
L 318.144216 251.804089 
L 326.68667 248.824485 
L 335.229125 253.515348 
L 343.77158 253.052302 
L 352.314034 262.434028 
L 360.856489 262.796412 
L 369.398943 264.286214 
L 377.941398 262.574955 
L 386.483852 260.964358 
L 395.026307 263.178929 
L 403.568761 263.501048 
L 412.111216 263.984227 
L 420.65367 265.856546 
L 429.196125 265.937076 
L 437.73858 264.688863 
L 446.281034 265.796149 
L 454.823489 265.574692 
L 463.365943 264.648599 
L 471.908398 260.23959 
L 480.450852 261.5482 
L 488.993307 267.76913 
L 497.535761 267.44701 
L 506.078216 267.6886 
L 514.62067 267.809395 
L 523.163125 266.742374 
L 531.70558 259.655748 
L 540.248034 262.172306 
L 548.790489 269.721978 
L 557.332943 269.440124 
L 565.875398 268.534163 
L 574.417852 266.259195 
L 582.960307 264.024492 
L 591.502761 264.125155 
L 600.045216 267.44701 
L 608.58767 265.23244 
L 617.130125 264.729128 
L 625.67258 256.192965 
L 634.215034 258.76992 
L 642.757489 269.017342 
L 651.299943 267.084626 
L 659.842398 262.293101 
L 668.384852 253.132831 
L 676.927307 240.992958 
L 685.469761 236.845671 
L 694.012216 265.776016 
L 702.55467 270.748734 
L 711.097125 272.802245 
L 719.63958 273.084099 
L 728.182034 273.225027 
L 736.724489 273.285424 
L 745.266943 273.446484 
L 753.809398 273.406219 
L 762.351852 273.446484 
L 770.894307 273.325689 
L 779.436761 273.446484 
L 787.979216 273.506881 
L 796.52167 273.607543 
L 805.064125 273.587411 
L 813.60658 273.386086 
L 822.149034 273.245159 
L 830.691489 273.74847 
L 839.233943 273.486748 
L 847.776398 273.607543 
L 856.318852 273.486748 
L 864.861307 273.708206 
L 873.403761 273.305556 
L 881.946216 273.527013 
L 890.48867 273.708206 
L 899.031125 273.808868 
L 907.57358 273.74847 
L 916.116034 273.486748 
L 924.658489 273.527013 
L 933.200943 273.647808 
L 941.743398 273.688073 
L 950.285852 273.184762 
" clip-path="url(#p48dafe67da)" style="fill: none; stroke: #434348; stroke-linecap: square"/>
   </g>
   <g id="line2d_20">
    <path d="M 53.328125 273.99006 
L 992.998125 273.99006 
" clip-path="url(#p48dafe67da)" style="fill: none; stroke: #dedede; stroke-width: 2; stroke-linecap: square"/>
   </g>
   <g id="text_16">
    <!-- Cutadapt: Lengths of Trimmed Sequences (3' end) -->
    <g transform="translate(321.810625 19.3575)scale(0.16 -0.16)">
     <defs>
      <path id="DejaVuSans-43" d="M 4122 4306 
L 4122 3641 
Q 3803 3938 3442 4084 
Q 3081 4231 2675 4231 
Q 1875 4231 1450 3742 
Q 1025 3253 1025 2328 
Q 1025 1406 1450 917 
Q 1875 428 2675 428 
Q 3081 428 3442 575 
Q 3803 722 4122 1019 
L 4122 359 
Q 3791 134 3420 21 
Q 3050 -91 2638 -91 
Q 1578 -91 968 557 
Q 359 1206 359 2328 
Q 359 3453 968 4101 
Q 1578 4750 2638 4750 
Q 3056 4750 3426 4639 
Q 3797 4528 4122 4306 
z
" transform="scale(0.015625)"/>
      <path id="DejaVuSans-75" d="M 544 1381 
L 544 3500 
L 1119 3500 
L 1119 1403 
Q 1119 906 1312 657 
Q 1506 409 1894 409 
Q 2359 409 2629 706 
Q 2900 1003 2900 1516 
L 2900 3500 
L 3475 3500 
L 3475 0 
L 2900 0 
L 2900 538 
Q 2691 219 2414 64 
Q 2138 -91 1772 -91 
Q 1169 -91 856 284 
Q 544 659 544 1381 
z
M 1991 3584 
L 1991 3584 
z
" transform="scale(0.015625)"/>
      <path id="DejaVuSans-61" d="M 2194 1759 
Q 1497 1759 1228 1600 
Q 959 1441 959 1056 
Q 959 750 1161 570 
Q 1363 391 1709 391 
Q 2188 391 2477 730 
Q 2766 1069 2766 1631 
L 2766 1759 
L 2194 1759 
z
M 3341 1997 
L 3341 0 
L 2766 0 
L 2766 531 
Q 2569 213 2275 61 
Q 1981 -91 1556 -91 
Q 1019 -91 701 211 
Q 384 513 384 1019 
Q 384 1609 779 1909 
Q 1175 2209 1959 2209 
L 2766 2209 
L 2766 2266 
Q 2766 2663 2505 2880 
Q 2244 3097 1772 3097 
Q 1472 3097 1187 3025 
Q 903 2953 641 2809 
L 641 3341 
Q 956 3463 1253 3523 
Q 1550 3584 1831 3584 
Q 2591 3584 2966 3190 
Q 3341 2797 3341 1997 
z
" transform="scale(0.015625)"/>
      <path id="DejaVuSans-3a" d="M 750 794 
L 1409 794 
L 1409 0 
L 750 0 
L 750 794 
z
M 750 3309 
L 1409 3309 
L 1409 2516 
L 750 2516 
L 750 3309 
z
" transform="scale(0.015625)"/>
      <path id="DejaVuSans-6f" d="M 1959 3097 
Q 1497 3097 1228 2736 
Q 959 2375 959 1747 
Q 959 1119 1226 758 
Q 1494 397 1959 397 
Q 2419 397 2687 759 
Q 2956 1122 2956 1747 
Q 2956 2369 2687 2733 
Q 2419 3097 1959 3097 
z
M 1959 3584 
Q 2709 3584 3137 3096 
Q 3566 2609 3566 1747 
Q 3566 888 3137 398 
Q 2709 -91 1959 -91 
Q 1206 -91 779 398 
Q 353 888 353 1747 
Q 353 2609 779 3096 
Q 1206 3584 1959 3584 
z
" transform="scale(0.015625)"/>
      <path id="DejaVuSans-66" d="M 2375 4863 
L 2375 4384 
L 1825 4384 
Q 1516 4384 1395 4259 
Q 1275 4134 1275 3809 
L 1275 3500 
L 2222 3500 
L 2222 3053 
L 1275 3053 
L 1275 0 
L 697 0 
L 697 3053 
L 147 3053 
L 147 3500 
L 697 3500 
L 697 3744 
Q 697 4328 969 4595 
Q 1241 4863 1831 4863 
L 2375 4863 
z
" transform="scale(0.015625)"/>
      <path id="DejaVuSans-53" d="M 3425 4513 
L 3425 3897 
Q 3066 4069 2747 4153 
Q 2428 4238 2131 4238 
Q 1616 4238 1336 4038 
Q 1056 3838 1056 3469 
Q 1056 3159 1242 3001 
Q 1428 2844 1947 2747 
L 2328 2669 
Q 3034 2534 3370 2195 
Q 3706 1856 3706 1288 
Q 3706 609 3251 259 
Q 2797 -91 1919 -91 
Q 1588 -91 1214 -16 
Q 841 59 441 206 
L 441 856 
Q 825 641 1194 531 
Q 1563 422 1919 422 
Q 2459 422 2753 634 
Q 3047 847 3047 1241 
Q 3047 1584 2836 1778 
Q 2625 1972 2144 2069 
L 1759 2144 
Q 1053 2284 737 2584 
Q 422 2884 422 3419 
Q 422 4038 858 4394 
Q 1294 4750 2059 4750 
Q 2388 4750 2728 4690 
Q 3069 4631 3425 4513 
z
" transform="scale(0.015625)"/>
      <path id="DejaVuSans-71" d="M 947 1747 
Q 947 1113 1208 752 
Q 1469 391 1925 391 
Q 2381 391 2643 752 
Q 2906 1113 2906 1747 
Q 2906 2381 2643 2742 
Q 2381 3103 1925 3103 
Q 1469 3103 1208 2742 
Q 947 2381 947 1747 
z
M 2906 525 
Q 2725 213 2448 61 
Q 2172 -91 1784 -91 
Q 1150 -91 751 415 
Q 353 922 353 1747 
Q 353 2572 751 3078 
Q 1150 3584 1784 3584 
Q 2172 3584 2448 3432 
Q 2725 3281 2906 2969 
L 2906 3500 
L 3481 3500 
L 3481 -1331 
L 2906 -1331 
L 2906 525 
z
" transform="scale(0.015625)"/>
      <path id="DejaVuSans-27" d="M 1147 4666 
L 1147 2931 
L 616 2931 
L 616 4666 
L 1147 4666 
z
" transform="scale(0.015625)"/>
     </defs>
     <use xlink:href="#DejaVuSans-43"/>
     <use xlink:href="#DejaVuSans-75" x="69.824219"/>
     <use xlink:href="#DejaVuSans-74" x="133.203125"/>
     <use xlink:href="#DejaVuSans-61" x="172.412109"/>
     <use xlink:href="#DejaVuSans-64" x="233.691406"/>
     <use xlink:href="#DejaVuSans-61" x="297.167969"/>
     <use xlink:href="#DejaVuSans-70" x="358.447266"/>
     <use xlink:href="#DejaVuSans-74" x="421.923828"/>
     <use xlink:href="#DejaVuSans-3a" x="461.132812"/>
     <use xlink:href="#DejaVuSans-20" x="494.824219"/>
     <use xlink:href="#DejaVuSans-4c" x="526.611328"/>
     <use xlink:href="#DejaVuSans-65" x="580.574219"/>
     <use xlink:href="#DejaVuSans-6e" x="642.097656"/>
     <use xlink:href="#DejaVuSans-67" x="705.476562"/>
     <use xlink:href="#DejaVuSans-74" x="768.953125"/>
     <use xlink:href="#DejaVuSans-68" x="808.162109"/>
     <use xlink:href="#DejaVuSans-73" x="871.541016"/>
     <use xlink:href="#DejaVuSans-20" x="923.640625"/>
     <use xlink:href="#DejaVuSans-6f" x="955.427734"/>
     <use xlink:href="#DejaVuSans-66" x="1016.609375"/>
     <use xlink:href="#DejaVuSans-20" x="1051.814453"/>
     <use xlink:href="#DejaVuSans-54" x="1083.601562"/>
     <use xlink:href="#DejaVuSans-72" x="1129.935547"/>
     <use xlink:href="#DejaVuSans-69" x="1171.048828"/>
     <use xlink:href="#DejaVuSans-6d" x="1198.832031"/>
     <use xlink:href="#DejaVuSans-6d" x="1296.244141"/>
     <use xlink:href="#DejaVuSans-65" x="1393.65625"/>
     <use xlink:href="#DejaVuSans-64" x="1455.179688"/>
     <use xlink:href="#DejaVuSans-20" x="1518.65625"/>
     <use xlink:href="#DejaVuSans-53" x="1550.443359"/>
     <use xlink:href="#DejaVuSans-65" x="1613.919922"/>
     <use xlink:href="#DejaVuSans-71" x="1675.443359"/>
     <use xlink:href="#DejaVuSans-75" x="1738.919922"/>
     <use xlink:href="#DejaVuSans-65" x="1802.298828"/>
     <use xlink:href="#DejaVuSans-6e" x="1863.822266"/>
     <use xlink:href="#DejaVuSans-63" x="1927.201172"/>
     <use xlink:href="#DejaVuSans-65" x="1982.181641"/>
     <use xlink:href="#DejaVuSans-73" x="2043.705078"/>
     <use xlink:href="#DejaVuSans-20" x="2095.804688"/>
     <use xlink:href="#DejaVuSans-28" x="2127.591797"/>
     <use xlink:href="#DejaVuSans-33" x="2166.605469"/>
     <use xlink:href="#DejaVuSans-27" x="2230.228516"/>
     <use xlink:href="#DejaVuSans-20" x="2257.71875"/>
     <use xlink:href="#DejaVuSans-65" x="2289.505859"/>
     <use xlink:href="#DejaVuSans-6e" x="2351.029297"/>
     <use xlink:href="#DejaVuSans-64" x="2414.408203"/>
     <use xlink:href="#DejaVuSans-29" x="2477.884766"/>
    </g>
   </g>
   <g id="legend_1">
    <g id="line2d_21">
     <path d="M 60.528125 292.192894 
L 68.528125 292.192894 
L 76.528125 292.192894 
" style="fill: none; stroke: #7cb5ec; stroke-linecap: square"/>
    </g>
    <g id="text_17">
     <!-- SRR2155413 - Adapter 1 -->
     <g transform="translate(82.928125 294.992894)scale(0.08 -0.08)">
      <defs>
       <path id="DejaVuSans-52" d="M 2841 2188 
Q 3044 2119 3236 1894 
Q 3428 1669 3622 1275 
L 4263 0 
L 3584 0 
L 2988 1197 
Q 2756 1666 2539 1819 
Q 2322 1972 1947 1972 
L 1259 1972 
L 1259 0 
L 628 0 
L 628 4666 
L 2053 4666 
Q 2853 4666 3247 4331 
Q 3641 3997 3641 3322 
Q 3641 2881 3436 2590 
Q 3231 2300 2841 2188 
z
M 1259 4147 
L 1259 2491 
L 2053 2491 
Q 2509 2491 2742 2702 
Q 2975 2913 2975 3322 
Q 2975 3731 2742 3939 
Q 2509 4147 2053 4147 
L 1259 4147 
z
" transform="scale(0.015625)"/>
       <path id="DejaVuSans-2d" d="M 313 2009 
L 1997 2009 
L 1997 1497 
L 313 1497 
L 313 2009 
z
" transform="scale(0.015625)"/>
       <path id="DejaVuSans-41" d="M 2188 4044 
L 1331 1722 
L 3047 1722 
L 2188 4044 
z
M 1831 4666 
L 2547 4666 
L 4325 0 
L 3669 0 
L 3244 1197 
L 1141 1197 
L 716 0 
L 50 0 
L 1831 4666 
z
" transform="scale(0.015625)"/>
      </defs>
      <use xlink:href="#DejaVuSans-53"/>
      <use xlink:href="#DejaVuSans-52" x="63.476562"/>
      <use xlink:href="#DejaVuSans-52" x="132.958984"/>
      <use xlink:href="#DejaVuSans-32" x="202.441406"/>
      <use xlink:href="#DejaVuSans-31" x="266.064453"/>
      <use xlink:href="#DejaVuSans-35" x="329.6875"/>
      <use xlink:href="#DejaVuSans-35" x="393.310547"/>
      <use xlink:href="#DejaVuSans-34" x="456.933594"/>
      <use xlink:href="#DejaVuSans-31" x="520.556641"/>
      <use xlink:href="#DejaVuSans-33" x="584.179688"/>
      <use xlink:href="#DejaVuSans-20" x="647.802734"/>
      <use xlink:href="#DejaVuSans-2d" x="679.589844"/>
      <use xlink:href="#DejaVuSans-20" x="715.673828"/>
      <use xlink:href="#DejaVuSans-41" x="747.460938"/>
      <use xlink:href="#DejaVuSans-64" x="814.119141"/>
      <use xlink:href="#DejaVuSans-61" x="877.595703"/>
      <use xlink:href="#DejaVuSans-70" x="938.875"/>
      <use xlink:href="#DejaVuSans-74" x="1002.351562"/>
      <use xlink:href="#DejaVuSans-65" x="1041.560547"/>
      <use xlink:href="#DejaVuSans-72" x="1103.083984"/>
      <use xlink:href="#DejaVuSans-20" x="1144.197266"/>
      <use xlink:href="#DejaVuSans-31" x="1175.984375"/>
     </g>
    </g>
    <g id="line2d_22">
     <path d="M 60.528125 303.935394 
L 68.528125 303.935394 
L 76.528125 303.935394 
" style="fill: none; stroke: #434348; stroke-linecap: square"/>
    </g>
    <g id="text_18">
     <!-- SRR2155414 - Adapter 1 -->
     <g transform="translate(82.928125 306.735394)scale(0.08 -0.08)">
      <use xlink:href="#DejaVuSans-53"/>
      <use xlink:href="#DejaVuSans-52" x="63.476562"/>
      <use xlink:href="#DejaVuSans-52" x="132.958984"/>
      <use xlink:href="#DejaVuSans-32" x="202.441406"/>
      <use xlink:href="#DejaVuSans-31" x="266.064453"/>
      <use xlink:href="#DejaVuSans-35" x="329.6875"/>
      <use xlink:href="#DejaVuSans-35" x="393.310547"/>
      <use xlink:href="#DejaVuSans-34" x="456.933594"/>
      <use xlink:href="#DejaVuSans-31" x="520.556641"/>
      <use xlink:href="#DejaVuSans-34" x="584.179688"/>
      <use xlink:href="#DejaVuSans-20" x="647.802734"/>
      <use xlink:href="#DejaVuSans-2d" x="679.589844"/>
      <use xlink:href="#DejaVuSans-20" x="715.673828"/>
      <use xlink:href="#DejaVuSans-41" x="747.460938"/>
      <use xlink:href="#DejaVuSans-64" x="814.119141"/>
      <use xlink:href="#DejaVuSans-61" x="877.595703"/>
      <use xlink:href="#DejaVuSans-70" x="938.875"/>
      <use xlink:href="#DejaVuSans-74" x="1002.351562"/>
      <use xlink:href="#DejaVuSans-65" x="1041.560547"/>
      <use xlink:href="#DejaVuSans-72" x="1103.083984"/>
      <use xlink:href="#DejaVuSans-20" x="1144.197266"/>
      <use xlink:href="#DejaVuSans-31" x="1175.984375"/>
     </g>
    </g>
    <g id="line2d_23">
     <path d="M 60.528125 315.677894 
L 68.528125 315.677894 
L 76.528125 315.677894 
" style="fill: none; stroke: #90ed7d; stroke-linecap: square"/>
    </g>
    <g id="text_19">
     <!-- SRR2155415 - Adapter 1 -->
     <g transform="translate(82.928125 318.477894)scale(0.08 -0.08)">
      <use xlink:href="#DejaVuSans-53"/>
      <use xlink:href="#DejaVuSans-52" x="63.476562"/>
      <use xlink:href="#DejaVuSans-52" x="132.958984"/>
      <use xlink:href="#DejaVuSans-32" x="202.441406"/>
      <use xlink:href="#DejaVuSans-31" x="266.064453"/>
      <use xlink:href="#DejaVuSans-35" x="329.6875"/>
      <use xlink:href="#DejaVuSans-35" x="393.310547"/>
      <use xlink:href="#DejaVuSans-34" x="456.933594"/>
      <use xlink:href="#DejaVuSans-31" x="520.556641"/>
      <use xlink:href="#DejaVuSans-35" x="584.179688"/>
      <use xlink:href="#DejaVuSans-20" x="647.802734"/>
      <use xlink:href="#DejaVuSans-2d" x="679.589844"/>
      <use xlink:href="#DejaVuSans-20" x="715.673828"/>
      <use xlink:href="#DejaVuSans-41" x="747.460938"/>
      <use xlink:href="#DejaVuSans-64" x="814.119141"/>
      <use xlink:href="#DejaVuSans-61" x="877.595703"/>
      <use xlink:href="#DejaVuSans-70" x="938.875"/>
      <use xlink:href="#DejaVuSans-74" x="1002.351562"/>
      <use xlink:href="#DejaVuSans-65" x="1041.560547"/>
      <use xlink:href="#DejaVuSans-72" x="1103.083984"/>
      <use xlink:href="#DejaVuSans-20" x="1144.197266"/>
      <use xlink:href="#DejaVuSans-31" x="1175.984375"/>
     </g>
    </g>
    <g id="line2d_24">
     <path d="M 261.453125 292.192894 
L 269.453125 292.192894 
L 277.453125 292.192894 
" style="fill: none; stroke: #f7a35c; stroke-linecap: square"/>
    </g>
    <g id="text_20">
     <!-- SRR2155416 - Adapter 1 -->
     <g transform="translate(283.853125 294.992894)scale(0.08 -0.08)">
      <use xlink:href="#DejaVuSans-53"/>
      <use xlink:href="#DejaVuSans-52" x="63.476562"/>
      <use xlink:href="#DejaVuSans-52" x="132.958984"/>
      <use xlink:href="#DejaVuSans-32" x="202.441406"/>
      <use xlink:href="#DejaVuSans-31" x="266.064453"/>
      <use xlink:href="#DejaVuSans-35" x="329.6875"/>
      <use xlink:href="#DejaVuSans-35" x="393.310547"/>
      <use xlink:href="#DejaVuSans-34" x="456.933594"/>
      <use xlink:href="#DejaVuSans-31" x="520.556641"/>
      <use xlink:href="#DejaVuSans-36" x="584.179688"/>
      <use xlink:href="#DejaVuSans-20" x="647.802734"/>
      <use xlink:href="#DejaVuSans-2d" x="679.589844"/>
      <use xlink:href="#DejaVuSans-20" x="715.673828"/>
      <use xlink:href="#DejaVuSans-41" x="747.460938"/>
      <use xlink:href="#DejaVuSans-64" x="814.119141"/>
      <use xlink:href="#DejaVuSans-61" x="877.595703"/>
      <use xlink:href="#DejaVuSans-70" x="938.875"/>
      <use xlink:href="#DejaVuSans-74" x="1002.351562"/>
      <use xlink:href="#DejaVuSans-65" x="1041.560547"/>
      <use xlink:href="#DejaVuSans-72" x="1103.083984"/>
      <use xlink:href="#DejaVuSans-20" x="1144.197266"/>
      <use xlink:href="#DejaVuSans-31" x="1175.984375"/>
     </g>
    </g>
    <g id="line2d_25">
     <path d="M 261.453125 303.935394 
L 269.453125 303.935394 
L 277.453125 303.935394 
" style="fill: none; stroke: #8085e9; stroke-linecap: square"/>
    </g>
    <g id="text_21">
     <!-- SRR2155417 - Adapter 1 -->
     <g transform="translate(283.853125 306.735394)scale(0.08 -0.08)">
      <defs>
       <path id="DejaVuSans-37" d="M 525 4666 
L 3525 4666 
L 3525 4397 
L 1831 0 
L 1172 0 
L 2766 4134 
L 525 4134 
L 525 4666 
z
" transform="scale(0.015625)"/>
      </defs>
      <use xlink:href="#DejaVuSans-53"/>
      <use xlink:href="#DejaVuSans-52" x="63.476562"/>
      <use xlink:href="#DejaVuSans-52" x="132.958984"/>
      <use xlink:href="#DejaVuSans-32" x="202.441406"/>
      <use xlink:href="#DejaVuSans-31" x="266.064453"/>
      <use xlink:href="#DejaVuSans-35" x="329.6875"/>
      <use xlink:href="#DejaVuSans-35" x="393.310547"/>
      <use xlink:href="#DejaVuSans-34" x="456.933594"/>
      <use xlink:href="#DejaVuSans-31" x="520.556641"/>
      <use xlink:href="#DejaVuSans-37" x="584.179688"/>
      <use xlink:href="#DejaVuSans-20" x="647.802734"/>
      <use xlink:href="#DejaVuSans-2d" x="679.589844"/>
      <use xlink:href="#DejaVuSans-20" x="715.673828"/>
      <use xlink:href="#DejaVuSans-41" x="747.460938"/>
      <use xlink:href="#DejaVuSans-64" x="814.119141"/>
      <use xlink:href="#DejaVuSans-61" x="877.595703"/>
      <use xlink:href="#DejaVuSans-70" x="938.875"/>
      <use xlink:href="#DejaVuSans-74" x="1002.351562"/>
      <use xlink:href="#DejaVuSans-65" x="1041.560547"/>
      <use xlink:href="#DejaVuSans-72" x="1103.083984"/>
      <use xlink:href="#DejaVuSans-20" x="1144.197266"/>
      <use xlink:href="#DejaVuSans-31" x="1175.984375"/>
     </g>
    </g>
    <g id="line2d_26">
     <path d="M 261.453125 315.677894 
L 269.453125 315.677894 
L 277.453125 315.677894 
" style="fill: none; stroke: #f15c80; stroke-linecap: square"/>
    </g>
    <g id="text_22">
     <!-- SRR2155418 - Adapter 1 -->
     <g transform="translate(283.853125 318.477894)scale(0.08 -0.08)">
      <use xlink:href="#DejaVuSans-53"/>
      <use xlink:href="#DejaVuSans-52" x="63.476562"/>
      <use xlink:href="#DejaVuSans-52" x="132.958984"/>
      <use xlink:href="#DejaVuSans-32" x="202.441406"/>
      <use xlink:href="#DejaVuSans-31" x="266.064453"/>
      <use xlink:href="#DejaVuSans-35" x="329.6875"/>
      <use xlink:href="#DejaVuSans-35" x="393.310547"/>
      <use xlink:href="#DejaVuSans-34" x="456.933594"/>
      <use xlink:href="#DejaVuSans-31" x="520.556641"/>
      <use xlink:href="#DejaVuSans-38" x="584.179688"/>
      <use xlink:href="#DejaVuSans-20" x="647.802734"/>
      <use xlink:href="#DejaVuSans-2d" x="679.589844"/>
      <use xlink:href="#DejaVuSans-20" x="715.673828"/>
      <use xlink:href="#DejaVuSans-41" x="747.460938"/>
      <use xlink:href="#DejaVuSans-64" x="814.119141"/>
      <use xlink:href="#DejaVuSans-61" x="877.595703"/>
      <use xlink:href="#DejaVuSans-70" x="938.875"/>
      <use xlink:href="#DejaVuSans-74" x="1002.351562"/>
      <use xlink:href="#DejaVuSans-65" x="1041.560547"/>
      <use xlink:href="#DejaVuSans-72" x="1103.083984"/>
      <use xlink:href="#DejaVuSans-20" x="1144.197266"/>
      <use xlink:href="#DejaVuSans-31" x="1175.984375"/>
     </g>
    </g>
    <g id="line2d_27">
     <path d="M 462.378125 292.192894 
L 470.378125 292.192894 
L 478.378125 292.192894 
" style="fill: none; stroke: #e4d354; stroke-linecap: square"/>
    </g>
    <g id="text_23">
     <!-- SRR2155419 - Adapter 1 -->
     <g transform="translate(484.778125 294.992894)scale(0.08 -0.08)">
      <defs>
       <path id="DejaVuSans-39" d="M 703 97 
L 703 672 
Q 941 559 1184 500 
Q 1428 441 1663 441 
Q 2288 441 2617 861 
Q 2947 1281 2994 2138 
Q 2813 1869 2534 1725 
Q 2256 1581 1919 1581 
Q 1219 1581 811 2004 
Q 403 2428 403 3163 
Q 403 3881 828 4315 
Q 1253 4750 1959 4750 
Q 2769 4750 3195 4129 
Q 3622 3509 3622 2328 
Q 3622 1225 3098 567 
Q 2575 -91 1691 -91 
Q 1453 -91 1209 -44 
Q 966 3 703 97 
z
M 1959 2075 
Q 2384 2075 2632 2365 
Q 2881 2656 2881 3163 
Q 2881 3666 2632 3958 
Q 2384 4250 1959 4250 
Q 1534 4250 1286 3958 
Q 1038 3666 1038 3163 
Q 1038 2656 1286 2365 
Q 1534 2075 1959 2075 
z
" transform="scale(0.015625)"/>
      </defs>
      <use xlink:href="#DejaVuSans-53"/>
      <use xlink:href="#DejaVuSans-52" x="63.476562"/>
      <use xlink:href="#DejaVuSans-52" x="132.958984"/>
      <use xlink:href="#DejaVuSans-32" x="202.441406"/>
      <use xlink:href="#DejaVuSans-31" x="266.064453"/>
      <use xlink:href="#DejaVuSans-35" x="329.6875"/>
      <use xlink:href="#DejaVuSans-35" x="393.310547"/>
      <use xlink:href="#DejaVuSans-34" x="456.933594"/>
      <use xlink:href="#DejaVuSans-31" x="520.556641"/>
      <use xlink:href="#DejaVuSans-39" x="584.179688"/>
      <use xlink:href="#DejaVuSans-20" x="647.802734"/>
      <use xlink:href="#DejaVuSans-2d" x="679.589844"/>
      <use xlink:href="#DejaVuSans-20" x="715.673828"/>
      <use xlink:href="#DejaVuSans-41" x="747.460938"/>
      <use xlink:href="#DejaVuSans-64" x="814.119141"/>
      <use xlink:href="#DejaVuSans-61" x="877.595703"/>
      <use xlink:href="#DejaVuSans-70" x="938.875"/>
      <use xlink:href="#DejaVuSans-74" x="1002.351562"/>
      <use xlink:href="#DejaVuSans-65" x="1041.560547"/>
      <use xlink:href="#DejaVuSans-72" x="1103.083984"/>
      <use xlink:href="#DejaVuSans-20" x="1144.197266"/>
      <use xlink:href="#DejaVuSans-31" x="1175.984375"/>
     </g>
    </g>
    <g id="line2d_28">
     <path d="M 462.378125 303.935394 
L 470.378125 303.935394 
L 478.378125 303.935394 
" style="fill: none; stroke: #2b908f; stroke-linecap: square"/>
    </g>
    <g id="text_24">
     <!-- SRR2155420 - Adapter 1 -->
     <g transform="translate(484.778125 306.735394)scale(0.08 -0.08)">
      <use xlink:href="#DejaVuSans-53"/>
      <use xlink:href="#DejaVuSans-52" x="63.476562"/>
      <use xlink:href="#DejaVuSans-52" x="132.958984"/>
      <use xlink:href="#DejaVuSans-32" x="202.441406"/>
      <use xlink:href="#DejaVuSans-31" x="266.064453"/>
      <use xlink:href="#DejaVuSans-35" x="329.6875"/>
      <use xlink:href="#DejaVuSans-35" x="393.310547"/>
      <use xlink:href="#DejaVuSans-34" x="456.933594"/>
      <use xlink:href="#DejaVuSans-32" x="520.556641"/>
      <use xlink:href="#DejaVuSans-30" x="584.179688"/>
      <use xlink:href="#DejaVuSans-20" x="647.802734"/>
      <use xlink:href="#DejaVuSans-2d" x="679.589844"/>
      <use xlink:href="#DejaVuSans-20" x="715.673828"/>
      <use xlink:href="#DejaVuSans-41" x="747.460938"/>
      <use xlink:href="#DejaVuSans-64" x="814.119141"/>
      <use xlink:href="#DejaVuSans-61" x="877.595703"/>
      <use xlink:href="#DejaVuSans-70" x="938.875"/>
      <use xlink:href="#DejaVuSans-74" x="1002.351562"/>
      <use xlink:href="#DejaVuSans-65" x="1041.560547"/>
      <use xlink:href="#DejaVuSans-72" x="1103.083984"/>
      <use xlink:href="#DejaVuSans-20" x="1144.197266"/>
      <use xlink:href="#DejaVuSans-31" x="1175.984375"/>
     </g>
    </g>
    <g id="line2d_29">
     <path d="M 663.303125 292.192894 
L 671.303125 292.192894 
L 679.303125 292.192894 
" style="fill: none; stroke: #f45b5b; stroke-linecap: square"/>
    </g>
    <g id="text_25">
     <!-- SRR2155421 - Adapter 1 -->
     <g transform="translate(685.703125 294.992894)scale(0.08 -0.08)">
      <use xlink:href="#DejaVuSans-53"/>
      <use xlink:href="#DejaVuSans-52" x="63.476562"/>
      <use xlink:href="#DejaVuSans-52" x="132.958984"/>
      <use xlink:href="#DejaVuSans-32" x="202.441406"/>
      <use xlink:href="#DejaVuSans-31" x="266.064453"/>
      <use xlink:href="#DejaVuSans-35" x="329.6875"/>
      <use xlink:href="#DejaVuSans-35" x="393.310547"/>
      <use xlink:href="#DejaVuSans-34" x="456.933594"/>
      <use xlink:href="#DejaVuSans-32" x="520.556641"/>
      <use xlink:href="#DejaVuSans-31" x="584.179688"/>
      <use xlink:href="#DejaVuSans-20" x="647.802734"/>
      <use xlink:href="#DejaVuSans-2d" x="679.589844"/>
      <use xlink:href="#DejaVuSans-20" x="715.673828"/>
      <use xlink:href="#DejaVuSans-41" x="747.460938"/>
      <use xlink:href="#DejaVuSans-64" x="814.119141"/>
      <use xlink:href="#DejaVuSans-61" x="877.595703"/>
      <use xlink:href="#DejaVuSans-70" x="938.875"/>
      <use xlink:href="#DejaVuSans-74" x="1002.351562"/>
      <use xlink:href="#DejaVuSans-65" x="1041.560547"/>
      <use xlink:href="#DejaVuSans-72" x="1103.083984"/>
      <use xlink:href="#DejaVuSans-20" x="1144.197266"/>
      <use xlink:href="#DejaVuSans-31" x="1175.984375"/>
     </g>
    </g>
    <g id="line2d_30">
     <path d="M 663.303125 303.935394 
L 671.303125 303.935394 
L 679.303125 303.935394 
" style="fill: none; stroke: #91e8e1; stroke-linecap: square"/>
    </g>
    <g id="text_26">
     <!-- SRR2155422 - Adapter 1 -->
     <g transform="translate(685.703125 306.735394)scale(0.08 -0.08)">
      <use xlink:href="#DejaVuSans-53"/>
      <use xlink:href="#DejaVuSans-52" x="63.476562"/>
      <use xlink:href="#DejaVuSans-52" x="132.958984"/>
      <use xlink:href="#DejaVuSans-32" x="202.441406"/>
      <use xlink:href="#DejaVuSans-31" x="266.064453"/>
      <use xlink:href="#DejaVuSans-35" x="329.6875"/>
      <use xlink:href="#DejaVuSans-35" x="393.310547"/>
      <use xlink:href="#DejaVuSans-34" x="456.933594"/>
      <use xlink:href="#DejaVuSans-32" x="520.556641"/>
      <use xlink:href="#DejaVuSans-32" x="584.179688"/>
      <use xlink:href="#DejaVuSans-20" x="647.802734"/>
      <use xlink:href="#DejaVuSans-2d" x="679.589844"/>
      <use xlink:href="#DejaVuSans-20" x="715.673828"/>
      <use xlink:href="#DejaVuSans-41" x="747.460938"/>
      <use xlink:href="#DejaVuSans-64" x="814.119141"/>
      <use xlink:href="#DejaVuSans-61" x="877.595703"/>
      <use xlink:href="#DejaVuSans-70" x="938.875"/>
      <use xlink:href="#DejaVuSans-74" x="1002.351562"/>
      <use xlink:href="#DejaVuSans-65" x="1041.560547"/>
      <use xlink:href="#DejaVuSans-72" x="1103.083984"/>
      <use xlink:href="#DejaVuSans-20" x="1144.197266"/>
      <use xlink:href="#DejaVuSans-31" x="1175.984375"/>
     </g>
    </g>
    <g id="line2d_31">
     <path d="M 864.228125 292.192894 
L 872.228125 292.192894 
L 880.228125 292.192894 
" style="fill: none; stroke: #7cb5ec; stroke-linecap: square"/>
    </g>
    <g id="text_27">
     <!-- SRR2155423 - Adapter 1 -->
     <g transform="translate(886.628125 294.992894)scale(0.08 -0.08)">
      <use xlink:href="#DejaVuSans-53"/>
      <use xlink:href="#DejaVuSans-52" x="63.476562"/>
      <use xlink:href="#DejaVuSans-52" x="132.958984"/>
      <use xlink:href="#DejaVuSans-32" x="202.441406"/>
      <use xlink:href="#DejaVuSans-31" x="266.064453"/>
      <use xlink:href="#DejaVuSans-35" x="329.6875"/>
      <use xlink:href="#DejaVuSans-35" x="393.310547"/>
      <use xlink:href="#DejaVuSans-34" x="456.933594"/>
      <use xlink:href="#DejaVuSans-32" x="520.556641"/>
      <use xlink:href="#DejaVuSans-33" x="584.179688"/>
      <use xlink:href="#DejaVuSans-20" x="647.802734"/>
      <use xlink:href="#DejaVuSans-2d" x="679.589844"/>
      <use xlink:href="#DejaVuSans-20" x="715.673828"/>
      <use xlink:href="#DejaVuSans-41" x="747.460938"/>
      <use xlink:href="#DejaVuSans-64" x="814.119141"/>
      <use xlink:href="#DejaVuSans-61" x="877.595703"/>
      <use xlink:href="#DejaVuSans-70" x="938.875"/>
      <use xlink:href="#DejaVuSans-74" x="1002.351562"/>
      <use xlink:href="#DejaVuSans-65" x="1041.560547"/>
      <use xlink:href="#DejaVuSans-72" x="1103.083984"/>
      <use xlink:href="#DejaVuSans-20" x="1144.197266"/>
      <use xlink:href="#DejaVuSans-31" x="1175.984375"/>
     </g>
    </g>
    <g id="line2d_32">
     <path d="M 864.228125 303.935394 
L 872.228125 303.935394 
L 880.228125 303.935394 
" style="fill: none; stroke: #434348; stroke-linecap: square"/>
    </g>
    <g id="text_28">
     <!-- SRR2155424 - Adapter 1 -->
     <g transform="translate(886.628125 306.735394)scale(0.08 -0.08)">
      <use xlink:href="#DejaVuSans-53"/>
      <use xlink:href="#DejaVuSans-52" x="63.476562"/>
      <use xlink:href="#DejaVuSans-52" x="132.958984"/>
      <use xlink:href="#DejaVuSans-32" x="202.441406"/>
      <use xlink:href="#DejaVuSans-31" x="266.064453"/>
      <use xlink:href="#DejaVuSans-35" x="329.6875"/>
      <use xlink:href="#DejaVuSans-35" x="393.310547"/>
      <use xlink:href="#DejaVuSans-34" x="456.933594"/>
      <use xlink:href="#DejaVuSans-32" x="520.556641"/>
      <use xlink:href="#DejaVuSans-34" x="584.179688"/>
      <use xlink:href="#DejaVuSans-20" x="647.802734"/>
      <use xlink:href="#DejaVuSans-2d" x="679.589844"/>
      <use xlink:href="#DejaVuSans-20" x="715.673828"/>
      <use xlink:href="#DejaVuSans-41" x="747.460938"/>
      <use xlink:href="#DejaVuSans-64" x="814.119141"/>
      <use xlink:href="#DejaVuSans-61" x="877.595703"/>
      <use xlink:href="#DejaVuSans-70" x="938.875"/>
      <use xlink:href="#DejaVuSans-74" x="1002.351562"/>
      <use xlink:href="#DejaVuSans-65" x="1041.560547"/>
      <use xlink:href="#DejaVuSans-72" x="1103.083984"/>
      <use xlink:href="#DejaVuSans-20" x="1144.197266"/>
      <use xlink:href="#DejaVuSans-31" x="1175.984375"/>
     </g>
    </g>
   </g>
  </g>
 </g>
 <defs>
  <clipPath id="p48dafe67da">
   <rect x="53.328125" y="31.48286" width="939.67" height="242.5072"/>
  </clipPath>
 </defs>
</svg>
