<?xml version="1.0" encoding="utf-8" standalone="no"?>
<!DOCTYPE svg PUBLIC "-//W3C//DTD SVG 1.1//EN"
  "http://www.w3.org/Graphics/SVG/1.1/DTD/svg11.dtd">
<svg xmlns:xlink="http://www.w3.org/1999/xlink" width="1000.358125pt" height="330.541644pt" viewBox="0 0 1000.358125 330.541644" xmlns="http://www.w3.org/2000/svg" version="1.1">
 <metadata>
  <rdf:RDF xmlns:dc="http://purl.org/dc/elements/1.1/" xmlns:cc="http://creativecommons.org/ns#" xmlns:rdf="http://www.w3.org/1999/02/22-rdf-syntax-ns#">
   <cc:Work>
    <dc:type rdf:resource="http://purl.org/dc/dcmitype/StillImage"/>
    <dc:date>2024-08-12T02:15:18.713616</dc:date>
    <dc:format>image/svg+xml</dc:format>
    <dc:creator>
     <cc:Agent>
      <dc:title>Matplotlib v3.5.3, https://matplotlib.org/</dc:title>
     </cc:Agent>
    </dc:creator>
   </cc:Work>
  </rdf:RDF>
 </metadata>
 <defs>
  <style type="text/css">*{stroke-linejoin: round; stroke-linecap: butt}</style>
 </defs>
 <g id="figure_1">
  <g id="axes_1">
   <g id="patch_1">
    <path d="M 32.968125 273.99006 
L 993.158125 273.99006 
L 993.158125 31.48286 
L 32.968125 31.48286 
z
" style="fill: #ffffff"/>
   </g>
   <g id="patch_2">
    <path d="M 32.968125 -215.195084 
L 993.158125 -215.195084 
L 993.158125 -2171.935662 
L 32.968125 -2171.935662 
z
" clip-path="url(#pec0342c26a)" style="fill: #e6c3c3"/>
   </g>
   <g id="patch_3">
    <path d="M 32.968125 151.693774 
L 993.158125 151.693774 
L 993.158125 -215.195084 
L 32.968125 -215.195084 
z
" clip-path="url(#pec0342c26a)" style="fill: #e6dcc3"/>
   </g>
   <g id="patch_4">
    <path d="M 32.968125 273.99006 
L 993.158125 273.99006 
L 993.158125 151.693774 
L 32.968125 151.693774 
z
" clip-path="url(#pec0342c26a)" style="fill: #c3e6c3"/>
   </g>
   <g id="matplotlib.axis_1">
    <g id="xtick_1">
     <g id="text_1">
      <!-- 0 -->
      <g transform="translate(30.423125 287.06881)scale(0.08 -0.08)">
       <defs>
        <path id="DejaVuSans-30" d="M 2034 4250 
Q 1547 4250 1301 3770 
Q 1056 3291 1056 2328 
Q 1056 1369 1301 889 
Q 1547 409 2034 409 
Q 2525 409 2770 889 
Q 3016 1369 3016 2328 
Q 3016 3291 2770 3770 
Q 2525 4250 2034 4250 
z
M 2034 4750 
Q 2819 4750 3233 4129 
Q 3647 3509 3647 2328 
Q 3647 1150 3233 529 
Q 2819 -91 2034 -91 
Q 1250 -91 836 529 
Q 422 1150 422 2328 
Q 422 3509 836 4129 
Q 1250 4750 2034 4750 
z
" transform="scale(0.015625)"/>
       </defs>
       <use xlink:href="#DejaVuSans-30"/>
      </g>
     </g>
    </g>
    <g id="xtick_2">
     <g id="text_2">
      <!-- 20 -->
      <g transform="translate(210.858592 287.06881)scale(0.08 -0.08)">
       <defs>
        <path id="DejaVuSans-32" d="M 1228 531 
L 3431 531 
L 3431 0 
L 469 0 
L 469 531 
Q 828 903 1448 1529 
Q 2069 2156 2228 2338 
Q 2531 2678 2651 2914 
Q 2772 3150 2772 3378 
Q 2772 3750 2511 3984 
Q 2250 4219 1831 4219 
Q 1534 4219 1204 4116 
Q 875 4013 500 3803 
L 500 4441 
Q 881 4594 1212 4672 
Q 1544 4750 1819 4750 
Q 2544 4750 2975 4387 
Q 3406 4025 3406 3419 
Q 3406 3131 3298 2873 
Q 3191 2616 2906 2266 
Q 2828 2175 2409 1742 
Q 1991 1309 1228 531 
z
" transform="scale(0.015625)"/>
       </defs>
       <use xlink:href="#DejaVuSans-32"/>
       <use xlink:href="#DejaVuSans-30" x="63.623047"/>
      </g>
     </g>
    </g>
    <g id="xtick_3">
     <g id="text_3">
      <!-- 40 -->
      <g transform="translate(393.839059 287.06881)scale(0.08 -0.08)">
       <defs>
        <path id="DejaVuSans-34" d="M 2419 4116 
L 825 1625 
L 2419 1625 
L 2419 4116 
z
M 2253 4666 
L 3047 4666 
L 3047 1625 
L 3713 1625 
L 3713 1100 
L 3047 1100 
L 3047 0 
L 2419 0 
L 2419 1100 
L 313 1100 
L 313 1709 
L 2253 4666 
z
" transform="scale(0.015625)"/>
       </defs>
       <use xlink:href="#DejaVuSans-34"/>
       <use xlink:href="#DejaVuSans-30" x="63.623047"/>
      </g>
     </g>
    </g>
    <g id="xtick_4">
     <g id="text_4">
      <!-- 60 -->
      <g transform="translate(576.819526 287.06881)scale(0.08 -0.08)">
       <defs>
        <path id="DejaVuSans-36" d="M 2113 2584 
Q 1688 2584 1439 2293 
Q 1191 2003 1191 1497 
Q 1191 994 1439 701 
Q 1688 409 2113 409 
Q 2538 409 2786 701 
Q 3034 994 3034 1497 
Q 3034 2003 2786 2293 
Q 2538 2584 2113 2584 
z
M 3366 4563 
L 3366 3988 
Q 3128 4100 2886 4159 
Q 2644 4219 2406 4219 
Q 1781 4219 1451 3797 
Q 1122 3375 1075 2522 
Q 1259 2794 1537 2939 
Q 1816 3084 2150 3084 
Q 2853 3084 3261 2657 
Q 3669 2231 3669 1497 
Q 3669 778 3244 343 
Q 2819 -91 2113 -91 
Q 1303 -91 875 529 
Q 447 1150 447 2328 
Q 447 3434 972 4092 
Q 1497 4750 2381 4750 
Q 2619 4750 2861 4703 
Q 3103 4656 3366 4563 
z
" transform="scale(0.015625)"/>
       </defs>
       <use xlink:href="#DejaVuSans-36"/>
       <use xlink:href="#DejaVuSans-30" x="63.623047"/>
      </g>
     </g>
    </g>
    <g id="xtick_5">
     <g id="text_5">
      <!-- 80 -->
      <g transform="translate(759.799993 287.06881)scale(0.08 -0.08)">
       <defs>
        <path id="DejaVuSans-38" d="M 2034 2216 
Q 1584 2216 1326 1975 
Q 1069 1734 1069 1313 
Q 1069 891 1326 650 
Q 1584 409 2034 409 
Q 2484 409 2743 651 
Q 3003 894 3003 1313 
Q 3003 1734 2745 1975 
Q 2488 2216 2034 2216 
z
M 1403 2484 
Q 997 2584 770 2862 
Q 544 3141 544 3541 
Q 544 4100 942 4425 
Q 1341 4750 2034 4750 
Q 2731 4750 3128 4425 
Q 3525 4100 3525 3541 
Q 3525 3141 3298 2862 
Q 3072 2584 2669 2484 
Q 3125 2378 3379 2068 
Q 3634 1759 3634 1313 
Q 3634 634 3220 271 
Q 2806 -91 2034 -91 
Q 1263 -91 848 271 
Q 434 634 434 1313 
Q 434 1759 690 2068 
Q 947 2378 1403 2484 
z
M 1172 3481 
Q 1172 3119 1398 2916 
Q 1625 2713 2034 2713 
Q 2441 2713 2670 2916 
Q 2900 3119 2900 3481 
Q 2900 3844 2670 4047 
Q 2441 4250 2034 4250 
Q 1625 4250 1398 4047 
Q 1172 3844 1172 3481 
z
" transform="scale(0.015625)"/>
       </defs>
       <use xlink:href="#DejaVuSans-38"/>
       <use xlink:href="#DejaVuSans-30" x="63.623047"/>
      </g>
     </g>
    </g>
    <g id="xtick_6">
     <g id="text_6">
      <!-- 100 -->
      <g transform="translate(940.235459 287.06881)scale(0.08 -0.08)">
       <defs>
        <path id="DejaVuSans-31" d="M 794 531 
L 1825 531 
L 1825 4091 
L 703 3866 
L 703 4441 
L 1819 4666 
L 2450 4666 
L 2450 531 
L 3481 531 
L 3481 0 
L 794 0 
L 794 531 
z
" transform="scale(0.015625)"/>
       </defs>
       <use xlink:href="#DejaVuSans-31"/>
       <use xlink:href="#DejaVuSans-30" x="63.623047"/>
       <use xlink:href="#DejaVuSans-30" x="127.246094"/>
      </g>
     </g>
    </g>
    <g id="text_7">
     <!-- Position in Read (bp) -->
     <g transform="translate(461.46 300.330997)scale(0.1 -0.1)">
      <defs>
       <path id="DejaVuSans-50" d="M 1259 4147 
L 1259 2394 
L 2053 2394 
Q 2494 2394 2734 2622 
Q 2975 2850 2975 3272 
Q 2975 3691 2734 3919 
Q 2494 4147 2053 4147 
L 1259 4147 
z
M 628 4666 
L 2053 4666 
Q 2838 4666 3239 4311 
Q 3641 3956 3641 3272 
Q 3641 2581 3239 2228 
Q 2838 1875 2053 1875 
L 1259 1875 
L 1259 0 
L 628 0 
L 628 4666 
z
" transform="scale(0.015625)"/>
       <path id="DejaVuSans-6f" d="M 1959 3097 
Q 1497 3097 1228 2736 
Q 959 2375 959 1747 
Q 959 1119 1226 758 
Q 1494 397 1959 397 
Q 2419 397 2687 759 
Q 2956 1122 2956 1747 
Q 2956 2369 2687 2733 
Q 2419 3097 1959 3097 
z
M 1959 3584 
Q 2709 3584 3137 3096 
Q 3566 2609 3566 1747 
Q 3566 888 3137 398 
Q 2709 -91 1959 -91 
Q 1206 -91 779 398 
Q 353 888 353 1747 
Q 353 2609 779 3096 
Q 1206 3584 1959 3584 
z
" transform="scale(0.015625)"/>
       <path id="DejaVuSans-73" d="M 2834 3397 
L 2834 2853 
Q 2591 2978 2328 3040 
Q 2066 3103 1784 3103 
Q 1356 3103 1142 2972 
Q 928 2841 928 2578 
Q 928 2378 1081 2264 
Q 1234 2150 1697 2047 
L 1894 2003 
Q 2506 1872 2764 1633 
Q 3022 1394 3022 966 
Q 3022 478 2636 193 
Q 2250 -91 1575 -91 
Q 1294 -91 989 -36 
Q 684 19 347 128 
L 347 722 
Q 666 556 975 473 
Q 1284 391 1588 391 
Q 1994 391 2212 530 
Q 2431 669 2431 922 
Q 2431 1156 2273 1281 
Q 2116 1406 1581 1522 
L 1381 1569 
Q 847 1681 609 1914 
Q 372 2147 372 2553 
Q 372 3047 722 3315 
Q 1072 3584 1716 3584 
Q 2034 3584 2315 3537 
Q 2597 3491 2834 3397 
z
" transform="scale(0.015625)"/>
       <path id="DejaVuSans-69" d="M 603 3500 
L 1178 3500 
L 1178 0 
L 603 0 
L 603 3500 
z
M 603 4863 
L 1178 4863 
L 1178 4134 
L 603 4134 
L 603 4863 
z
" transform="scale(0.015625)"/>
       <path id="DejaVuSans-74" d="M 1172 4494 
L 1172 3500 
L 2356 3500 
L 2356 3053 
L 1172 3053 
L 1172 1153 
Q 1172 725 1289 603 
Q 1406 481 1766 481 
L 2356 481 
L 2356 0 
L 1766 0 
Q 1100 0 847 248 
Q 594 497 594 1153 
L 594 3053 
L 172 3053 
L 172 3500 
L 594 3500 
L 594 4494 
L 1172 4494 
z
" transform="scale(0.015625)"/>
       <path id="DejaVuSans-6e" d="M 3513 2113 
L 3513 0 
L 2938 0 
L 2938 2094 
Q 2938 2591 2744 2837 
Q 2550 3084 2163 3084 
Q 1697 3084 1428 2787 
Q 1159 2491 1159 1978 
L 1159 0 
L 581 0 
L 581 3500 
L 1159 3500 
L 1159 2956 
Q 1366 3272 1645 3428 
Q 1925 3584 2291 3584 
Q 2894 3584 3203 3211 
Q 3513 2838 3513 2113 
z
" transform="scale(0.015625)"/>
       <path id="DejaVuSans-20" transform="scale(0.015625)"/>
       <path id="DejaVuSans-52" d="M 2841 2188 
Q 3044 2119 3236 1894 
Q 3428 1669 3622 1275 
L 4263 0 
L 3584 0 
L 2988 1197 
Q 2756 1666 2539 1819 
Q 2322 1972 1947 1972 
L 1259 1972 
L 1259 0 
L 628 0 
L 628 4666 
L 2053 4666 
Q 2853 4666 3247 4331 
Q 3641 3997 3641 3322 
Q 3641 2881 3436 2590 
Q 3231 2300 2841 2188 
z
M 1259 4147 
L 1259 2491 
L 2053 2491 
Q 2509 2491 2742 2702 
Q 2975 2913 2975 3322 
Q 2975 3731 2742 3939 
Q 2509 4147 2053 4147 
L 1259 4147 
z
" transform="scale(0.015625)"/>
       <path id="DejaVuSans-65" d="M 3597 1894 
L 3597 1613 
L 953 1613 
Q 991 1019 1311 708 
Q 1631 397 2203 397 
Q 2534 397 2845 478 
Q 3156 559 3463 722 
L 3463 178 
Q 3153 47 2828 -22 
Q 2503 -91 2169 -91 
Q 1331 -91 842 396 
Q 353 884 353 1716 
Q 353 2575 817 3079 
Q 1281 3584 2069 3584 
Q 2775 3584 3186 3129 
Q 3597 2675 3597 1894 
z
M 3022 2063 
Q 3016 2534 2758 2815 
Q 2500 3097 2075 3097 
Q 1594 3097 1305 2825 
Q 1016 2553 972 2059 
L 3022 2063 
z
" transform="scale(0.015625)"/>
       <path id="DejaVuSans-61" d="M 2194 1759 
Q 1497 1759 1228 1600 
Q 959 1441 959 1056 
Q 959 750 1161 570 
Q 1363 391 1709 391 
Q 2188 391 2477 730 
Q 2766 1069 2766 1631 
L 2766 1759 
L 2194 1759 
z
M 3341 1997 
L 3341 0 
L 2766 0 
L 2766 531 
Q 2569 213 2275 61 
Q 1981 -91 1556 -91 
Q 1019 -91 701 211 
Q 384 513 384 1019 
Q 384 1609 779 1909 
Q 1175 2209 1959 2209 
L 2766 2209 
L 2766 2266 
Q 2766 2663 2505 2880 
Q 2244 3097 1772 3097 
Q 1472 3097 1187 3025 
Q 903 2953 641 2809 
L 641 3341 
Q 956 3463 1253 3523 
Q 1550 3584 1831 3584 
Q 2591 3584 2966 3190 
Q 3341 2797 3341 1997 
z
" transform="scale(0.015625)"/>
       <path id="DejaVuSans-64" d="M 2906 2969 
L 2906 4863 
L 3481 4863 
L 3481 0 
L 2906 0 
L 2906 525 
Q 2725 213 2448 61 
Q 2172 -91 1784 -91 
Q 1150 -91 751 415 
Q 353 922 353 1747 
Q 353 2572 751 3078 
Q 1150 3584 1784 3584 
Q 2172 3584 2448 3432 
Q 2725 3281 2906 2969 
z
M 947 1747 
Q 947 1113 1208 752 
Q 1469 391 1925 391 
Q 2381 391 2643 752 
Q 2906 1113 2906 1747 
Q 2906 2381 2643 2742 
Q 2381 3103 1925 3103 
Q 1469 3103 1208 2742 
Q 947 2381 947 1747 
z
" transform="scale(0.015625)"/>
       <path id="DejaVuSans-28" d="M 1984 4856 
Q 1566 4138 1362 3434 
Q 1159 2731 1159 2009 
Q 1159 1288 1364 580 
Q 1569 -128 1984 -844 
L 1484 -844 
Q 1016 -109 783 600 
Q 550 1309 550 2009 
Q 550 2706 781 3412 
Q 1013 4119 1484 4856 
L 1984 4856 
z
" transform="scale(0.015625)"/>
       <path id="DejaVuSans-62" d="M 3116 1747 
Q 3116 2381 2855 2742 
Q 2594 3103 2138 3103 
Q 1681 3103 1420 2742 
Q 1159 2381 1159 1747 
Q 1159 1113 1420 752 
Q 1681 391 2138 391 
Q 2594 391 2855 752 
Q 3116 1113 3116 1747 
z
M 1159 2969 
Q 1341 3281 1617 3432 
Q 1894 3584 2278 3584 
Q 2916 3584 3314 3078 
Q 3713 2572 3713 1747 
Q 3713 922 3314 415 
Q 2916 -91 2278 -91 
Q 1894 -91 1617 61 
Q 1341 213 1159 525 
L 1159 0 
L 581 0 
L 581 4863 
L 1159 4863 
L 1159 2969 
z
" transform="scale(0.015625)"/>
       <path id="DejaVuSans-70" d="M 1159 525 
L 1159 -1331 
L 581 -1331 
L 581 3500 
L 1159 3500 
L 1159 2969 
Q 1341 3281 1617 3432 
Q 1894 3584 2278 3584 
Q 2916 3584 3314 3078 
Q 3713 2572 3713 1747 
Q 3713 922 3314 415 
Q 2916 -91 2278 -91 
Q 1894 -91 1617 61 
Q 1341 213 1159 525 
z
M 3116 1747 
Q 3116 2381 2855 2742 
Q 2594 3103 2138 3103 
Q 1681 3103 1420 2742 
Q 1159 2381 1159 1747 
Q 1159 1113 1420 752 
Q 1681 391 2138 391 
Q 2594 391 2855 752 
Q 3116 1113 3116 1747 
z
" transform="scale(0.015625)"/>
       <path id="DejaVuSans-29" d="M 513 4856 
L 1013 4856 
Q 1481 4119 1714 3412 
Q 1947 2706 1947 2009 
Q 1947 1309 1714 600 
Q 1481 -109 1013 -844 
L 513 -844 
Q 928 -128 1133 580 
Q 1338 1288 1338 2009 
Q 1338 2731 1133 3434 
Q 928 4138 513 4856 
z
" transform="scale(0.015625)"/>
      </defs>
      <use xlink:href="#DejaVuSans-50"/>
      <use xlink:href="#DejaVuSans-6f" x="56.677734"/>
      <use xlink:href="#DejaVuSans-73" x="117.859375"/>
      <use xlink:href="#DejaVuSans-69" x="169.958984"/>
      <use xlink:href="#DejaVuSans-74" x="197.742188"/>
      <use xlink:href="#DejaVuSans-69" x="236.951172"/>
      <use xlink:href="#DejaVuSans-6f" x="264.734375"/>
      <use xlink:href="#DejaVuSans-6e" x="325.916016"/>
      <use xlink:href="#DejaVuSans-20" x="389.294922"/>
      <use xlink:href="#DejaVuSans-69" x="421.082031"/>
      <use xlink:href="#DejaVuSans-6e" x="448.865234"/>
      <use xlink:href="#DejaVuSans-20" x="512.244141"/>
      <use xlink:href="#DejaVuSans-52" x="544.03125"/>
      <use xlink:href="#DejaVuSans-65" x="609.013672"/>
      <use xlink:href="#DejaVuSans-61" x="670.537109"/>
      <use xlink:href="#DejaVuSans-64" x="731.816406"/>
      <use xlink:href="#DejaVuSans-20" x="795.292969"/>
      <use xlink:href="#DejaVuSans-28" x="827.080078"/>
      <use xlink:href="#DejaVuSans-62" x="866.09375"/>
      <use xlink:href="#DejaVuSans-70" x="929.570312"/>
      <use xlink:href="#DejaVuSans-29" x="993.046875"/>
     </g>
    </g>
   </g>
   <g id="matplotlib.axis_2">
    <g id="ytick_1">
     <g id="line2d_1">
      <path d="M 32.968125 273.99006 
L 993.158125 273.99006 
" clip-path="url(#pec0342c26a)" style="fill: none; stroke: #dedede; stroke-linecap: square"/>
     </g>
     <g id="text_8">
      <!-- 0 -->
      <g transform="translate(20.878125 277.029435)scale(0.08 -0.08)">
       <use xlink:href="#DejaVuSans-30"/>
      </g>
     </g>
    </g>
    <g id="ytick_2">
     <g id="line2d_2">
      <path d="M 32.968125 225.071546 
L 993.158125 225.071546 
" clip-path="url(#pec0342c26a)" style="fill: none; stroke: #dedede; stroke-linecap: square"/>
     </g>
     <g id="text_9">
      <!-- 2 -->
      <g transform="translate(20.878125 228.110921)scale(0.08 -0.08)">
       <use xlink:href="#DejaVuSans-32"/>
      </g>
     </g>
    </g>
    <g id="ytick_3">
     <g id="line2d_3">
      <path d="M 32.968125 176.153031 
L 993.158125 176.153031 
" clip-path="url(#pec0342c26a)" style="fill: none; stroke: #dedede; stroke-linecap: square"/>
     </g>
     <g id="text_10">
      <!-- 4 -->
      <g transform="translate(20.878125 179.192406)scale(0.08 -0.08)">
       <use xlink:href="#DejaVuSans-34"/>
      </g>
     </g>
    </g>
    <g id="ytick_4">
     <g id="line2d_4">
      <path d="M 32.968125 127.234517 
L 993.158125 127.234517 
" clip-path="url(#pec0342c26a)" style="fill: none; stroke: #dedede; stroke-linecap: square"/>
     </g>
     <g id="text_11">
      <!-- 6 -->
      <g transform="translate(20.878125 130.273892)scale(0.08 -0.08)">
       <use xlink:href="#DejaVuSans-36"/>
      </g>
     </g>
    </g>
    <g id="ytick_5">
     <g id="line2d_5">
      <path d="M 32.968125 78.316002 
L 993.158125 78.316002 
" clip-path="url(#pec0342c26a)" style="fill: none; stroke: #dedede; stroke-linecap: square"/>
     </g>
     <g id="text_12">
      <!-- 8 -->
      <g transform="translate(20.878125 81.355377)scale(0.08 -0.08)">
       <use xlink:href="#DejaVuSans-38"/>
      </g>
     </g>
    </g>
    <g id="text_13">
     <!-- Percentage N-Count -->
     <g transform="translate(14.798438 202.841147)rotate(-90)scale(0.1 -0.1)">
      <defs>
       <path id="DejaVuSans-72" d="M 2631 2963 
Q 2534 3019 2420 3045 
Q 2306 3072 2169 3072 
Q 1681 3072 1420 2755 
Q 1159 2438 1159 1844 
L 1159 0 
L 581 0 
L 581 3500 
L 1159 3500 
L 1159 2956 
Q 1341 3275 1631 3429 
Q 1922 3584 2338 3584 
Q 2397 3584 2469 3576 
Q 2541 3569 2628 3553 
L 2631 2963 
z
" transform="scale(0.015625)"/>
       <path id="DejaVuSans-63" d="M 3122 3366 
L 3122 2828 
Q 2878 2963 2633 3030 
Q 2388 3097 2138 3097 
Q 1578 3097 1268 2742 
Q 959 2388 959 1747 
Q 959 1106 1268 751 
Q 1578 397 2138 397 
Q 2388 397 2633 464 
Q 2878 531 3122 666 
L 3122 134 
Q 2881 22 2623 -34 
Q 2366 -91 2075 -91 
Q 1284 -91 818 406 
Q 353 903 353 1747 
Q 353 2603 823 3093 
Q 1294 3584 2113 3584 
Q 2378 3584 2631 3529 
Q 2884 3475 3122 3366 
z
" transform="scale(0.015625)"/>
       <path id="DejaVuSans-67" d="M 2906 1791 
Q 2906 2416 2648 2759 
Q 2391 3103 1925 3103 
Q 1463 3103 1205 2759 
Q 947 2416 947 1791 
Q 947 1169 1205 825 
Q 1463 481 1925 481 
Q 2391 481 2648 825 
Q 2906 1169 2906 1791 
z
M 3481 434 
Q 3481 -459 3084 -895 
Q 2688 -1331 1869 -1331 
Q 1566 -1331 1297 -1286 
Q 1028 -1241 775 -1147 
L 775 -588 
Q 1028 -725 1275 -790 
Q 1522 -856 1778 -856 
Q 2344 -856 2625 -561 
Q 2906 -266 2906 331 
L 2906 616 
Q 2728 306 2450 153 
Q 2172 0 1784 0 
Q 1141 0 747 490 
Q 353 981 353 1791 
Q 353 2603 747 3093 
Q 1141 3584 1784 3584 
Q 2172 3584 2450 3431 
Q 2728 3278 2906 2969 
L 2906 3500 
L 3481 3500 
L 3481 434 
z
" transform="scale(0.015625)"/>
       <path id="DejaVuSans-4e" d="M 628 4666 
L 1478 4666 
L 3547 763 
L 3547 4666 
L 4159 4666 
L 4159 0 
L 3309 0 
L 1241 3903 
L 1241 0 
L 628 0 
L 628 4666 
z
" transform="scale(0.015625)"/>
       <path id="DejaVuSans-2d" d="M 313 2009 
L 1997 2009 
L 1997 1497 
L 313 1497 
L 313 2009 
z
" transform="scale(0.015625)"/>
       <path id="DejaVuSans-43" d="M 4122 4306 
L 4122 3641 
Q 3803 3938 3442 4084 
Q 3081 4231 2675 4231 
Q 1875 4231 1450 3742 
Q 1025 3253 1025 2328 
Q 1025 1406 1450 917 
Q 1875 428 2675 428 
Q 3081 428 3442 575 
Q 3803 722 4122 1019 
L 4122 359 
Q 3791 134 3420 21 
Q 3050 -91 2638 -91 
Q 1578 -91 968 557 
Q 359 1206 359 2328 
Q 359 3453 968 4101 
Q 1578 4750 2638 4750 
Q 3056 4750 3426 4639 
Q 3797 4528 4122 4306 
z
" transform="scale(0.015625)"/>
       <path id="DejaVuSans-75" d="M 544 1381 
L 544 3500 
L 1119 3500 
L 1119 1403 
Q 1119 906 1312 657 
Q 1506 409 1894 409 
Q 2359 409 2629 706 
Q 2900 1003 2900 1516 
L 2900 3500 
L 3475 3500 
L 3475 0 
L 2900 0 
L 2900 538 
Q 2691 219 2414 64 
Q 2138 -91 1772 -91 
Q 1169 -91 856 284 
Q 544 659 544 1381 
z
M 1991 3584 
L 1991 3584 
z
" transform="scale(0.015625)"/>
      </defs>
      <use xlink:href="#DejaVuSans-50"/>
      <use xlink:href="#DejaVuSans-65" x="56.677734"/>
      <use xlink:href="#DejaVuSans-72" x="118.201172"/>
      <use xlink:href="#DejaVuSans-63" x="157.064453"/>
      <use xlink:href="#DejaVuSans-65" x="212.044922"/>
      <use xlink:href="#DejaVuSans-6e" x="273.568359"/>
      <use xlink:href="#DejaVuSans-74" x="336.947266"/>
      <use xlink:href="#DejaVuSans-61" x="376.15625"/>
      <use xlink:href="#DejaVuSans-67" x="437.435547"/>
      <use xlink:href="#DejaVuSans-65" x="500.912109"/>
      <use xlink:href="#DejaVuSans-20" x="562.435547"/>
      <use xlink:href="#DejaVuSans-4e" x="594.222656"/>
      <use xlink:href="#DejaVuSans-2d" x="669.027344"/>
      <use xlink:href="#DejaVuSans-43" x="705.111328"/>
      <use xlink:href="#DejaVuSans-6f" x="774.935547"/>
      <use xlink:href="#DejaVuSans-75" x="836.117188"/>
      <use xlink:href="#DejaVuSans-6e" x="899.496094"/>
      <use xlink:href="#DejaVuSans-74" x="962.875"/>
     </g>
    </g>
   </g>
   <g id="line2d_6">
    <path d="M 42.117148 267.728363 
L 51.266172 273.99006 
L 60.415195 273.99006 
L 69.564218 273.99006 
L 78.713242 273.99006 
L 87.862265 273.99006 
L 97.011288 273.99006 
L 106.160312 273.99006 
L 115.309335 273.99006 
L 124.458358 273.99006 
L 142.756405 273.99006 
L 161.054452 273.988987 
L 179.352499 273.99006 
L 197.650545 273.99006 
L 215.948592 273.99006 
L 234.246639 273.97852 
L 252.544685 273.989255 
L 270.842732 273.979459 
L 289.140779 273.981069 
L 307.438825 273.844467 
L 325.736872 273.962552 
L 344.034919 273.860972 
L 362.332965 273.98174 
L 380.631012 273.848359 
L 398.929059 273.867547 
L 417.227105 273.638088 
L 435.525152 273.39105 
L 453.823199 273.535569 
L 472.121246 273.279004 
L 490.419292 273.510208 
L 508.717339 273.357503 
L 527.015386 273.438552 
L 545.313432 273.319394 
L 563.611479 273.598905 
L 581.909526 273.6295 
L 600.207572 273.65513 
L 618.505619 273.592196 
L 636.803666 272.970374 
L 655.101712 273.705852 
L 673.399759 273.364347 
L 691.697806 273.568311 
L 709.995852 273.133545 
L 728.293899 273.913037 
L 746.591946 273.815214 
L 764.889993 273.74906 
L 783.188039 273.872378 
L 801.486086 273.951012 
L 819.784133 273.97275 
L 838.082179 273.922967 
L 856.380226 273.707865 
L 874.678273 273.872512 
L 892.976319 273.91666 
L 911.274366 273.752281 
L 929.572413 273.682906 
L 947.870459 273.788109 
" clip-path="url(#pec0342c26a)" style="fill: none; stroke: #5cb85c; stroke-linecap: square"/>
   </g>
   <g id="line2d_7">
    <path d="M 42.117148 271.619922 
L 51.266172 273.935433 
L 60.415195 273.845296 
L 69.564218 273.99006 
L 78.713242 273.99006 
L 87.862265 273.99006 
L 97.011288 273.99006 
L 106.160312 273.99006 
L 115.309335 273.99006 
L 124.458358 273.99006 
L 142.756405 273.99006 
L 161.054452 273.987741 
L 179.352499 273.98922 
L 197.650545 273.99006 
L 215.948592 273.99006 
L 234.246639 273.932794 
L 252.544685 273.9883 
L 270.842732 43.030822 
L 289.140779 273.98934 
L 307.438825 273.880807 
L 325.736872 273.955109 
L 344.034919 273.960587 
L 362.332965 273.869929 
L 380.631012 273.920157 
L 398.929059 273.847535 
L 417.227105 273.778112 
L 435.525152 273.631708 
L 453.823199 273.361374 
L 472.121246 273.392607 
L 490.419292 273.229687 
L 508.717339 273.111995 
L 527.015386 273.101118 
L 545.313432 273.302309 
L 563.611479 273.445234 
L 581.909526 273.389447 
L 600.207572 273.251161 
L 618.505619 273.37973 
L 636.803666 273.130071 
L 655.101712 273.236045 
L 673.399759 273.345458 
L 691.697806 273.242683 
L 709.995852 273.728964 
L 728.293899 273.407483 
L 746.591946 273.437156 
L 764.889993 273.443194 
L 783.188039 273.9887 
L 801.486086 273.986741 
L 819.784133 273.98962 
L 838.082179 273.980862 
L 856.380226 273.958588 
L 874.678273 273.984021 
L 892.976319 273.981422 
L 911.274366 273.894004 
L 929.572413 273.783351 
L 947.870459 273.841177 
" clip-path="url(#pec0342c26a)" style="fill: none; stroke: #f0ad4e; stroke-linecap: square"/>
   </g>
   <g id="line2d_8">
    <path d="M 42.117148 271.571222 
L 51.266172 273.984849 
L 60.415195 273.847256 
L 69.564218 273.99006 
L 78.713242 273.99006 
L 87.862265 273.99006 
L 97.011288 247.496144 
L 106.160312 273.99006 
L 115.309335 273.99006 
L 124.458358 273.99006 
L 142.756405 273.99006 
L 161.054452 273.99006 
L 179.352499 273.99006 
L 197.650545 273.99006 
L 215.948592 273.99006 
L 234.246639 273.928828 
L 252.544685 273.987707 
L 270.842732 273.986446 
L 289.140779 273.977873 
L 307.438825 273.883567 
L 325.736872 273.921348 
L 344.034919 273.878313 
L 362.332965 273.787538 
L 380.631012 273.88903 
L 398.929059 273.802709 
L 417.227105 273.548243 
L 435.525152 273.3677 
L 453.823199 273.089741 
L 472.121246 272.752484 
L 490.419292 272.825188 
L 508.717339 272.700035 
L 527.015386 272.907433 
L 545.313432 272.942188 
L 563.611479 273.105879 
L 581.909526 260.101326 
L 600.207572 272.972741 
L 618.505619 273.040949 
L 636.803666 272.836493 
L 655.101712 273.10113 
L 673.399759 273.036284 
L 691.697806 273.087514 
L 709.995852 273.608297 
L 728.293899 273.225064 
L 746.591946 273.11483 
L 764.889993 273.558329 
L 783.188039 273.981235 
L 801.486086 273.985521 
L 819.784133 273.972241 
L 838.082179 273.890753 
L 856.380226 273.745554 
L 874.678273 273.773501 
L 892.976319 273.603969 
L 911.274366 273.730467 
L 929.572413 273.707436 
L 947.870459 273.819939 
" clip-path="url(#pec0342c26a)" style="fill: none; stroke: #5cb85c; stroke-linecap: square"/>
   </g>
   <g id="line2d_9">
    <path d="M 42.117148 267.780371 
L 51.266172 273.99006 
L 60.415195 273.99006 
L 69.564218 273.99006 
L 78.713242 273.99006 
L 87.862265 273.99006 
L 97.011288 273.99006 
L 106.160312 273.99006 
L 115.309335 273.99006 
L 124.458358 273.99006 
L 142.756405 273.99006 
L 161.054452 273.988254 
L 179.352499 273.99006 
L 197.650545 273.99006 
L 215.948592 273.99006 
L 234.246639 273.978323 
L 252.544685 273.988856 
L 270.842732 273.967007 
L 289.140779 273.978142 
L 307.438825 273.830376 
L 325.736872 273.954247 
L 344.034919 273.85084 
L 362.332965 273.978684 
L 380.631012 273.84121 
L 398.929059 273.859327 
L 417.227105 273.624405 
L 435.525152 273.384006 
L 453.823199 273.526717 
L 472.121246 273.266636 
L 490.419292 273.495779 
L 508.717339 273.354934 
L 527.015386 273.431316 
L 545.313432 273.316653 
L 563.611479 273.576614 
L 581.909526 273.611886 
L 600.207572 273.637768 
L 618.505619 273.575591 
L 636.803666 272.960509 
L 655.101712 273.682308 
L 673.399759 273.355055 
L 691.697806 273.554585 
L 709.995852 273.129282 
L 728.293899 273.904831 
L 746.591946 273.801184 
L 764.889993 273.726548 
L 783.188039 273.865166 
L 801.486086 273.951779 
L 819.784133 273.971582 
L 838.082179 273.921504 
L 856.380226 273.696874 
L 874.678273 273.8698 
L 892.976319 273.910429 
L 911.274366 273.74635 
L 929.572413 273.672858 
L 947.870459 273.782163 
" clip-path="url(#pec0342c26a)" style="fill: none; stroke: #5cb85c; stroke-linecap: square"/>
   </g>
   <g id="line2d_10">
    <path d="M 42.117148 271.670476 
L 51.266172 273.933064 
L 60.415195 273.847411 
L 69.564218 273.99006 
L 78.713242 273.99006 
L 87.862265 273.99006 
L 97.011288 273.99006 
L 106.160312 273.99006 
L 115.309335 273.99006 
L 124.458358 273.99006 
L 142.756405 273.99006 
L 161.054452 273.987719 
L 179.352499 273.989333 
L 197.650545 273.99006 
L 215.948592 273.99006 
L 234.246639 273.933949 
L 252.544685 273.98851 
L 270.842732 45.909767 
L 289.140779 273.989554 
L 307.438825 273.883816 
L 325.736872 273.954445 
L 344.034919 273.961024 
L 362.332965 273.867717 
L 380.631012 273.918862 
L 398.929059 273.847537 
L 417.227105 273.781938 
L 435.525152 273.627238 
L 453.823199 273.355129 
L 472.121246 273.389858 
L 490.419292 273.22317 
L 508.717339 273.105382 
L 527.015386 273.093046 
L 545.313432 273.301991 
L 563.611479 273.439991 
L 581.909526 273.385936 
L 600.207572 273.245532 
L 618.505619 273.375024 
L 636.803666 273.114681 
L 655.101712 273.226776 
L 673.399759 273.343774 
L 691.697806 273.236201 
L 709.995852 273.728547 
L 728.293899 273.403648 
L 746.591946 273.438188 
L 764.889993 273.439611 
L 783.188039 273.989174 
L 801.486086 273.987055 
L 819.784133 273.989269 
L 838.082179 273.980508 
L 856.380226 273.958462 
L 874.678273 273.983892 
L 892.976319 273.980856 
L 911.274366 273.892641 
L 929.572413 273.778174 
L 947.870459 273.834095 
" clip-path="url(#pec0342c26a)" style="fill: none; stroke: #f0ad4e; stroke-linecap: square"/>
   </g>
   <g id="line2d_11">
    <path d="M 42.117148 271.554487 
L 51.266172 273.984593 
L 60.415195 273.843788 
L 69.564218 273.99006 
L 78.713242 273.99006 
L 87.862265 273.99006 
L 97.011288 247.328125 
L 106.160312 273.99006 
L 115.309335 273.99006 
L 124.458358 273.99006 
L 142.756405 273.99006 
L 161.054452 273.99006 
L 179.352499 273.99006 
L 197.650545 273.99006 
L 215.948592 273.99006 
L 234.246639 273.931097 
L 252.544685 273.986359 
L 270.842732 273.983457 
L 289.140779 273.977191 
L 307.438825 273.882942 
L 325.736872 273.923779 
L 344.034919 273.882227 
L 362.332965 273.79475 
L 380.631012 273.893372 
L 398.929059 273.809091 
L 417.227105 273.559865 
L 435.525152 273.374143 
L 453.823199 273.093711 
L 472.121246 272.748133 
L 490.419292 272.821101 
L 508.717339 272.695436 
L 527.015386 272.901597 
L 545.313432 272.945168 
L 563.611479 273.107169 
L 581.909526 260.028246 
L 600.207572 272.973177 
L 618.505619 273.039711 
L 636.803666 272.837209 
L 655.101712 273.10452 
L 673.399759 273.035715 
L 691.697806 273.09287 
L 709.995852 273.610837 
L 728.293899 273.233212 
L 746.591946 273.116758 
L 764.889993 273.566846 
L 783.188039 273.977822 
L 801.486086 273.984719 
L 819.784133 273.971261 
L 838.082179 273.888115 
L 856.380226 273.741086 
L 874.678273 273.77267 
L 892.976319 273.593384 
L 911.274366 273.722623 
L 929.572413 273.705212 
L 947.870459 273.817208 
" clip-path="url(#pec0342c26a)" style="fill: none; stroke: #5cb85c; stroke-linecap: square"/>
   </g>
   <g id="line2d_12">
    <path d="M 42.117148 267.755321 
L 51.266172 273.99006 
L 60.415195 273.99006 
L 69.564218 273.99006 
L 78.713242 273.99006 
L 87.862265 273.99006 
L 97.011288 273.99006 
L 106.160312 273.99006 
L 115.309335 273.99006 
L 124.458358 273.99006 
L 142.756405 273.99006 
L 161.054452 273.989244 
L 179.352499 273.99006 
L 197.650545 273.99006 
L 215.948592 273.99006 
L 234.246639 273.979529 
L 252.544685 273.988019 
L 270.842732 273.965651 
L 289.140779 273.981815 
L 307.438825 273.849482 
L 325.736872 273.962875 
L 344.034919 273.86385 
L 362.332965 273.980917 
L 380.631012 273.852584 
L 398.929059 273.875932 
L 417.227105 273.651432 
L 435.525152 273.421462 
L 453.823199 273.549305 
L 472.121246 273.313702 
L 490.419292 273.530692 
L 508.717339 273.389461 
L 527.015386 273.466607 
L 545.313432 273.355826 
L 563.611479 273.612165 
L 581.909526 273.651105 
L 600.207572 273.677311 
L 618.505619 273.61192 
L 636.803666 273.009606 
L 655.101712 273.717476 
L 673.399759 273.391257 
L 691.697806 273.591348 
L 709.995852 273.137939 
L 728.293899 273.922383 
L 746.591946 273.829155 
L 764.889993 273.760906 
L 783.188039 273.863768 
L 801.486086 273.949487 
L 819.784133 273.970631 
L 838.082179 273.917159 
L 856.380226 273.697312 
L 874.678273 273.866218 
L 892.976319 273.908424 
L 911.274366 273.745396 
L 929.572413 273.677474 
L 947.870459 273.780907 
" clip-path="url(#pec0342c26a)" style="fill: none; stroke: #5cb85c; stroke-linecap: square"/>
   </g>
   <g id="line2d_13">
    <path d="M 42.117148 271.670124 
L 51.266172 273.938653 
L 60.415195 273.847254 
L 69.564218 273.99006 
L 78.713242 273.99006 
L 87.862265 273.99006 
L 97.011288 273.99006 
L 106.160312 273.99006 
L 115.309335 273.99006 
L 124.458358 273.99006 
L 142.756405 273.99006 
L 161.054452 273.987354 
L 179.352499 273.989532 
L 197.650545 273.99006 
L 215.948592 273.99006 
L 234.246639 273.933604 
L 252.544685 273.988146 
L 270.842732 45.040561 
L 289.140779 273.9894 
L 307.438825 273.8851 
L 325.736872 273.955282 
L 344.034919 273.96175 
L 362.332965 273.871308 
L 380.631012 273.918492 
L 398.929059 273.85161 
L 417.227105 273.780636 
L 435.525152 273.631197 
L 453.823199 273.355649 
L 472.121246 273.391978 
L 490.419292 273.227197 
L 508.717339 273.104881 
L 527.015386 273.092442 
L 545.313432 273.297148 
L 563.611479 273.445167 
L 581.909526 273.383003 
L 600.207572 273.245707 
L 618.505619 273.376503 
L 636.803666 273.115506 
L 655.101712 273.22944 
L 673.399759 273.342847 
L 691.697806 273.237029 
L 709.995852 273.731076 
L 728.293899 273.400887 
L 746.591946 273.442131 
L 764.889993 273.434872 
L 783.188039 273.9894 
L 801.486086 273.986991 
L 819.784133 273.989235 
L 838.082179 273.981382 
L 856.380226 273.960298 
L 874.678273 273.983758 
L 892.976319 273.982273 
L 911.274366 273.89622 
L 929.572413 273.781493 
L 947.870459 273.839005 
" clip-path="url(#pec0342c26a)" style="fill: none; stroke: #f0ad4e; stroke-linecap: square"/>
   </g>
   <g id="line2d_14">
    <path d="M 42.117148 271.530078 
L 51.266172 273.985616 
L 60.415195 273.84842 
L 69.564218 273.99006 
L 78.713242 273.99006 
L 87.862265 273.99006 
L 97.011288 249.745732 
L 106.160312 273.99006 
L 115.309335 273.99006 
L 124.458358 273.99006 
L 142.756405 273.99006 
L 161.054452 273.99006 
L 179.352499 273.99006 
L 197.650545 273.99006 
L 215.948592 273.99006 
L 234.246639 273.932515 
L 252.544685 273.988171 
L 270.842732 273.986338 
L 289.140779 273.980284 
L 307.438825 273.884524 
L 325.736872 273.924628 
L 344.034919 273.882747 
L 362.332965 273.795208 
L 380.631012 273.894023 
L 398.929059 273.813093 
L 417.227105 273.562307 
L 435.525152 273.380452 
L 453.823199 273.104838 
L 472.121246 272.766846 
L 490.419292 272.838332 
L 508.717339 272.707912 
L 527.015386 272.919872 
L 545.313432 272.962975 
L 563.611479 273.120113 
L 581.909526 261.246124 
L 600.207572 272.984194 
L 618.505619 273.058735 
L 636.803666 272.852774 
L 655.101712 273.117002 
L 673.399759 273.044849 
L 691.697806 273.10406 
L 709.995852 273.617352 
L 728.293899 273.243589 
L 746.591946 273.13111 
L 764.889993 273.573749 
L 783.188039 273.980062 
L 801.486086 273.985505 
L 819.784133 273.97023 
L 838.082179 273.889912 
L 856.380226 273.740551 
L 874.678273 273.76738 
L 892.976319 273.608132 
L 911.274366 273.73533 
L 929.572413 273.701892 
L 947.870459 273.815648 
" clip-path="url(#pec0342c26a)" style="fill: none; stroke: #5cb85c; stroke-linecap: square"/>
   </g>
   <g id="line2d_15">
    <path d="M 42.117148 267.858809 
L 51.266172 273.99006 
L 60.415195 273.989825 
L 69.564218 273.99006 
L 78.713242 273.99006 
L 87.862265 273.99006 
L 97.011288 273.99006 
L 106.160312 273.99006 
L 115.309335 273.99006 
L 124.458358 273.99006 
L 142.756405 273.99006 
L 161.054452 273.989004 
L 179.352499 273.99006 
L 197.650545 273.99006 
L 215.948592 273.99006 
L 234.246639 273.978322 
L 252.544685 273.989121 
L 270.842732 273.979261 
L 289.140779 273.980141 
L 307.438825 273.83746 
L 325.736872 273.956253 
L 344.034919 273.857239 
L 362.332965 273.979437 
L 380.631012 273.845618 
L 398.929059 273.859411 
L 417.227105 273.637846 
L 435.525152 273.396796 
L 453.823199 273.539184 
L 472.121246 273.278648 
L 490.419292 273.503088 
L 508.717339 273.363753 
L 527.015386 273.440405 
L 545.313432 273.324311 
L 563.611479 273.587723 
L 581.909526 273.625697 
L 600.207572 273.6507 
L 618.505619 273.584554 
L 636.803666 272.973858 
L 655.101712 273.693487 
L 673.399759 273.365513 
L 691.697806 273.571876 
L 709.995852 273.132856 
L 728.293899 273.905425 
L 746.591946 273.804827 
L 764.889993 273.730581 
L 783.188039 273.867041 
L 801.486086 273.950208 
L 819.784133 273.97075 
L 838.082179 273.923503 
L 856.380226 273.697302 
L 874.678273 273.869153 
L 892.976319 273.916929 
L 911.274366 273.744843 
L 929.572413 273.672592 
L 947.870459 273.782054 
" clip-path="url(#pec0342c26a)" style="fill: none; stroke: #5cb85c; stroke-linecap: square"/>
   </g>
   <g id="line2d_16">
    <path d="M 42.117148 271.638263 
L 51.266172 273.937764 
L 60.415195 273.84959 
L 69.564218 273.99006 
L 78.713242 273.99006 
L 87.862265 273.99006 
L 97.011288 273.99006 
L 106.160312 273.99006 
L 115.309335 273.99006 
L 124.458358 273.99006 
L 142.756405 273.99006 
L 161.054452 273.988018 
L 179.352499 273.989259 
L 197.650545 273.99006 
L 215.948592 273.99006 
L 234.246639 273.933079 
L 252.544685 273.988258 
L 270.842732 46.205829 
L 289.140779 273.989339 
L 307.438825 273.884147 
L 325.736872 273.95314 
L 344.034919 273.960869 
L 362.332965 273.866207 
L 380.631012 273.918624 
L 398.929059 273.846466 
L 417.227105 273.777432 
L 435.525152 273.629554 
L 453.823199 273.347813 
L 472.121246 273.384652 
L 490.419292 273.217553 
L 508.717339 273.096263 
L 527.015386 273.085972 
L 545.313432 273.289951 
L 563.611479 273.442394 
L 581.909526 273.377404 
L 600.207572 273.236574 
L 618.505619 273.372439 
L 636.803666 273.103551 
L 655.101712 273.218314 
L 673.399759 273.339324 
L 691.697806 273.226403 
L 709.995852 273.725657 
L 728.293899 273.395504 
L 746.591946 273.432663 
L 764.889993 273.435627 
L 783.188039 273.988859 
L 801.486086 273.986897 
L 819.784133 273.989179 
L 838.082179 273.98081 
L 856.380226 273.957946 
L 874.678273 273.983813 
L 892.976319 273.979729 
L 911.274366 273.890714 
L 929.572413 273.781797 
L 947.870459 273.835374 
" clip-path="url(#pec0342c26a)" style="fill: none; stroke: #f0ad4e; stroke-linecap: square"/>
   </g>
   <g id="line2d_17">
    <path d="M 42.117148 271.533868 
L 51.266172 273.985099 
L 60.415195 273.838558 
L 69.564218 273.99006 
L 78.713242 273.99006 
L 87.862265 273.99006 
L 97.011288 247.182339 
L 106.160312 273.99006 
L 115.309335 273.99006 
L 124.458358 273.99006 
L 142.756405 273.99006 
L 161.054452 273.99006 
L 179.352499 273.99006 
L 197.650545 273.99006 
L 215.948592 273.99006 
L 234.246639 273.932638 
L 252.544685 273.986707 
L 270.842732 273.985512 
L 289.140779 273.97706 
L 307.438825 273.884128 
L 325.736872 273.92492 
L 344.034919 273.880039 
L 362.332965 273.794917 
L 380.631012 273.89258 
L 398.929059 273.80902 
L 417.227105 273.559303 
L 435.525152 273.382213 
L 453.823199 273.103097 
L 472.121246 272.761183 
L 490.419292 272.839231 
L 508.717339 272.712167 
L 527.015386 272.920724 
L 545.313432 272.958531 
L 563.611479 273.121563 
L 581.909526 259.962321 
L 600.207572 272.995832 
L 618.505619 273.061156 
L 636.803666 272.854207 
L 655.101712 273.118623 
L 673.399759 273.049304 
L 691.697806 273.105899 
L 709.995852 273.619206 
L 728.293899 273.243803 
L 746.591946 273.133232 
L 764.889993 273.571798 
L 783.188039 273.979678 
L 801.486086 273.984593 
L 819.784133 273.972236 
L 838.082179 273.891616 
L 856.380226 273.744432 
L 874.678273 273.775072 
L 892.976319 273.60694 
L 911.274366 273.730972 
L 929.572413 273.705385 
L 947.870459 273.820688 
" clip-path="url(#pec0342c26a)" style="fill: none; stroke: #5cb85c; stroke-linecap: square"/>
   </g>
   <g id="line2d_18">
    <path d="M 32.968125 273.99006 
L 993.158125 273.99006 
" clip-path="url(#pec0342c26a)" style="fill: none; stroke: #dedede; stroke-width: 2; stroke-linecap: square"/>
   </g>
   <g id="text_14">
    <!-- FastQC: Per Base N Content -->
    <g transform="translate(402.209375 19.3575)scale(0.16 -0.16)">
     <defs>
      <path id="DejaVuSans-46" d="M 628 4666 
L 3309 4666 
L 3309 4134 
L 1259 4134 
L 1259 2759 
L 3109 2759 
L 3109 2228 
L 1259 2228 
L 1259 0 
L 628 0 
L 628 4666 
z
" transform="scale(0.015625)"/>
      <path id="DejaVuSans-51" d="M 2522 4238 
Q 1834 4238 1429 3725 
Q 1025 3213 1025 2328 
Q 1025 1447 1429 934 
Q 1834 422 2522 422 
Q 3209 422 3611 934 
Q 4013 1447 4013 2328 
Q 4013 3213 3611 3725 
Q 3209 4238 2522 4238 
z
M 3406 84 
L 4238 -825 
L 3475 -825 
L 2784 -78 
Q 2681 -84 2626 -87 
Q 2572 -91 2522 -91 
Q 1538 -91 948 567 
Q 359 1225 359 2328 
Q 359 3434 948 4092 
Q 1538 4750 2522 4750 
Q 3503 4750 4090 4092 
Q 4678 3434 4678 2328 
Q 4678 1516 4351 937 
Q 4025 359 3406 84 
z
" transform="scale(0.015625)"/>
      <path id="DejaVuSans-3a" d="M 750 794 
L 1409 794 
L 1409 0 
L 750 0 
L 750 794 
z
M 750 3309 
L 1409 3309 
L 1409 2516 
L 750 2516 
L 750 3309 
z
" transform="scale(0.015625)"/>
      <path id="DejaVuSans-42" d="M 1259 2228 
L 1259 519 
L 2272 519 
Q 2781 519 3026 730 
Q 3272 941 3272 1375 
Q 3272 1813 3026 2020 
Q 2781 2228 2272 2228 
L 1259 2228 
z
M 1259 4147 
L 1259 2741 
L 2194 2741 
Q 2656 2741 2882 2914 
Q 3109 3088 3109 3444 
Q 3109 3797 2882 3972 
Q 2656 4147 2194 4147 
L 1259 4147 
z
M 628 4666 
L 2241 4666 
Q 2963 4666 3353 4366 
Q 3744 4066 3744 3513 
Q 3744 3084 3544 2831 
Q 3344 2578 2956 2516 
Q 3422 2416 3680 2098 
Q 3938 1781 3938 1306 
Q 3938 681 3513 340 
Q 3088 0 2303 0 
L 628 0 
L 628 4666 
z
" transform="scale(0.015625)"/>
     </defs>
     <use xlink:href="#DejaVuSans-46"/>
     <use xlink:href="#DejaVuSans-61" x="48.394531"/>
     <use xlink:href="#DejaVuSans-73" x="109.673828"/>
     <use xlink:href="#DejaVuSans-74" x="161.773438"/>
     <use xlink:href="#DejaVuSans-51" x="200.982422"/>
     <use xlink:href="#DejaVuSans-43" x="279.693359"/>
     <use xlink:href="#DejaVuSans-3a" x="349.517578"/>
     <use xlink:href="#DejaVuSans-20" x="383.208984"/>
     <use xlink:href="#DejaVuSans-50" x="414.996094"/>
     <use xlink:href="#DejaVuSans-65" x="471.673828"/>
     <use xlink:href="#DejaVuSans-72" x="533.197266"/>
     <use xlink:href="#DejaVuSans-20" x="574.310547"/>
     <use xlink:href="#DejaVuSans-42" x="606.097656"/>
     <use xlink:href="#DejaVuSans-61" x="674.701172"/>
     <use xlink:href="#DejaVuSans-73" x="735.980469"/>
     <use xlink:href="#DejaVuSans-65" x="788.080078"/>
     <use xlink:href="#DejaVuSans-20" x="849.603516"/>
     <use xlink:href="#DejaVuSans-4e" x="881.390625"/>
     <use xlink:href="#DejaVuSans-20" x="956.195312"/>
     <use xlink:href="#DejaVuSans-43" x="987.982422"/>
     <use xlink:href="#DejaVuSans-6f" x="1057.806641"/>
     <use xlink:href="#DejaVuSans-6e" x="1118.988281"/>
     <use xlink:href="#DejaVuSans-74" x="1182.367188"/>
     <use xlink:href="#DejaVuSans-65" x="1221.576172"/>
     <use xlink:href="#DejaVuSans-6e" x="1283.099609"/>
     <use xlink:href="#DejaVuSans-74" x="1346.478516"/>
    </g>
   </g>
   <g id="legend_1">
    <g id="line2d_19">
     <path d="M 40.168125 292.192894 
L 48.168125 292.192894 
L 56.168125 292.192894 
" style="fill: none; stroke: #5cb85c; stroke-linecap: square"/>
    </g>
    <g id="text_15">
     <!-- SRR2155413 -->
     <g transform="translate(62.568125 294.992894)scale(0.08 -0.08)">
      <defs>
       <path id="DejaVuSans-53" d="M 3425 4513 
L 3425 3897 
Q 3066 4069 2747 4153 
Q 2428 4238 2131 4238 
Q 1616 4238 1336 4038 
Q 1056 3838 1056 3469 
Q 1056 3159 1242 3001 
Q 1428 2844 1947 2747 
L 2328 2669 
Q 3034 2534 3370 2195 
Q 3706 1856 3706 1288 
Q 3706 609 3251 259 
Q 2797 -91 1919 -91 
Q 1588 -91 1214 -16 
Q 841 59 441 206 
L 441 856 
Q 825 641 1194 531 
Q 1563 422 1919 422 
Q 2459 422 2753 634 
Q 3047 847 3047 1241 
Q 3047 1584 2836 1778 
Q 2625 1972 2144 2069 
L 1759 2144 
Q 1053 2284 737 2584 
Q 422 2884 422 3419 
Q 422 4038 858 4394 
Q 1294 4750 2059 4750 
Q 2388 4750 2728 4690 
Q 3069 4631 3425 4513 
z
" transform="scale(0.015625)"/>
       <path id="DejaVuSans-35" d="M 691 4666 
L 3169 4666 
L 3169 4134 
L 1269 4134 
L 1269 2991 
Q 1406 3038 1543 3061 
Q 1681 3084 1819 3084 
Q 2600 3084 3056 2656 
Q 3513 2228 3513 1497 
Q 3513 744 3044 326 
Q 2575 -91 1722 -91 
Q 1428 -91 1123 -41 
Q 819 9 494 109 
L 494 744 
Q 775 591 1075 516 
Q 1375 441 1709 441 
Q 2250 441 2565 725 
Q 2881 1009 2881 1497 
Q 2881 1984 2565 2268 
Q 2250 2553 1709 2553 
Q 1456 2553 1204 2497 
Q 953 2441 691 2322 
L 691 4666 
z
" transform="scale(0.015625)"/>
       <path id="DejaVuSans-33" d="M 2597 2516 
Q 3050 2419 3304 2112 
Q 3559 1806 3559 1356 
Q 3559 666 3084 287 
Q 2609 -91 1734 -91 
Q 1441 -91 1130 -33 
Q 819 25 488 141 
L 488 750 
Q 750 597 1062 519 
Q 1375 441 1716 441 
Q 2309 441 2620 675 
Q 2931 909 2931 1356 
Q 2931 1769 2642 2001 
Q 2353 2234 1838 2234 
L 1294 2234 
L 1294 2753 
L 1863 2753 
Q 2328 2753 2575 2939 
Q 2822 3125 2822 3475 
Q 2822 3834 2567 4026 
Q 2313 4219 1838 4219 
Q 1578 4219 1281 4162 
Q 984 4106 628 3988 
L 628 4550 
Q 988 4650 1302 4700 
Q 1616 4750 1894 4750 
Q 2613 4750 3031 4423 
Q 3450 4097 3450 3541 
Q 3450 3153 3228 2886 
Q 3006 2619 2597 2516 
z
" transform="scale(0.015625)"/>
      </defs>
      <use xlink:href="#DejaVuSans-53"/>
      <use xlink:href="#DejaVuSans-52" x="63.476562"/>
      <use xlink:href="#DejaVuSans-52" x="132.958984"/>
      <use xlink:href="#DejaVuSans-32" x="202.441406"/>
      <use xlink:href="#DejaVuSans-31" x="266.064453"/>
      <use xlink:href="#DejaVuSans-35" x="329.6875"/>
      <use xlink:href="#DejaVuSans-35" x="393.310547"/>
      <use xlink:href="#DejaVuSans-34" x="456.933594"/>
      <use xlink:href="#DejaVuSans-31" x="520.556641"/>
      <use xlink:href="#DejaVuSans-33" x="584.179688"/>
     </g>
    </g>
    <g id="line2d_20">
     <path d="M 40.168125 303.935394 
L 48.168125 303.935394 
L 56.168125 303.935394 
" style="fill: none; stroke: #f0ad4e; stroke-linecap: square"/>
    </g>
    <g id="text_16">
     <!-- SRR2155414 -->
     <g transform="translate(62.568125 306.735394)scale(0.08 -0.08)">
      <use xlink:href="#DejaVuSans-53"/>
      <use xlink:href="#DejaVuSans-52" x="63.476562"/>
      <use xlink:href="#DejaVuSans-52" x="132.958984"/>
      <use xlink:href="#DejaVuSans-32" x="202.441406"/>
      <use xlink:href="#DejaVuSans-31" x="266.064453"/>
      <use xlink:href="#DejaVuSans-35" x="329.6875"/>
      <use xlink:href="#DejaVuSans-35" x="393.310547"/>
      <use xlink:href="#DejaVuSans-34" x="456.933594"/>
      <use xlink:href="#DejaVuSans-31" x="520.556641"/>
      <use xlink:href="#DejaVuSans-34" x="584.179688"/>
     </g>
    </g>
    <g id="line2d_21">
     <path d="M 40.168125 315.677894 
L 48.168125 315.677894 
L 56.168125 315.677894 
" style="fill: none; stroke: #5cb85c; stroke-linecap: square"/>
    </g>
    <g id="text_17">
     <!-- SRR2155415 -->
     <g transform="translate(62.568125 318.477894)scale(0.08 -0.08)">
      <use xlink:href="#DejaVuSans-53"/>
      <use xlink:href="#DejaVuSans-52" x="63.476562"/>
      <use xlink:href="#DejaVuSans-52" x="132.958984"/>
      <use xlink:href="#DejaVuSans-32" x="202.441406"/>
      <use xlink:href="#DejaVuSans-31" x="266.064453"/>
      <use xlink:href="#DejaVuSans-35" x="329.6875"/>
      <use xlink:href="#DejaVuSans-35" x="393.310547"/>
      <use xlink:href="#DejaVuSans-34" x="456.933594"/>
      <use xlink:href="#DejaVuSans-31" x="520.556641"/>
      <use xlink:href="#DejaVuSans-35" x="584.179688"/>
     </g>
    </g>
    <g id="line2d_22">
     <path d="M 258.059063 292.192894 
L 266.059063 292.192894 
L 274.059063 292.192894 
" style="fill: none; stroke: #5cb85c; stroke-linecap: square"/>
    </g>
    <g id="text_18">
     <!-- SRR2155416 -->
     <g transform="translate(280.459063 294.992894)scale(0.08 -0.08)">
      <use xlink:href="#DejaVuSans-53"/>
      <use xlink:href="#DejaVuSans-52" x="63.476562"/>
      <use xlink:href="#DejaVuSans-52" x="132.958984"/>
      <use xlink:href="#DejaVuSans-32" x="202.441406"/>
      <use xlink:href="#DejaVuSans-31" x="266.064453"/>
      <use xlink:href="#DejaVuSans-35" x="329.6875"/>
      <use xlink:href="#DejaVuSans-35" x="393.310547"/>
      <use xlink:href="#DejaVuSans-34" x="456.933594"/>
      <use xlink:href="#DejaVuSans-31" x="520.556641"/>
      <use xlink:href="#DejaVuSans-36" x="584.179688"/>
     </g>
    </g>
    <g id="line2d_23">
     <path d="M 258.059063 303.935394 
L 266.059063 303.935394 
L 274.059063 303.935394 
" style="fill: none; stroke: #f0ad4e; stroke-linecap: square"/>
    </g>
    <g id="text_19">
     <!-- SRR2155417 -->
     <g transform="translate(280.459063 306.735394)scale(0.08 -0.08)">
      <defs>
       <path id="DejaVuSans-37" d="M 525 4666 
L 3525 4666 
L 3525 4397 
L 1831 0 
L 1172 0 
L 2766 4134 
L 525 4134 
L 525 4666 
z
" transform="scale(0.015625)"/>
      </defs>
      <use xlink:href="#DejaVuSans-53"/>
      <use xlink:href="#DejaVuSans-52" x="63.476562"/>
      <use xlink:href="#DejaVuSans-52" x="132.958984"/>
      <use xlink:href="#DejaVuSans-32" x="202.441406"/>
      <use xlink:href="#DejaVuSans-31" x="266.064453"/>
      <use xlink:href="#DejaVuSans-35" x="329.6875"/>
      <use xlink:href="#DejaVuSans-35" x="393.310547"/>
      <use xlink:href="#DejaVuSans-34" x="456.933594"/>
      <use xlink:href="#DejaVuSans-31" x="520.556641"/>
      <use xlink:href="#DejaVuSans-37" x="584.179688"/>
     </g>
    </g>
    <g id="line2d_24">
     <path d="M 258.059063 315.677894 
L 266.059063 315.677894 
L 274.059063 315.677894 
" style="fill: none; stroke: #5cb85c; stroke-linecap: square"/>
    </g>
    <g id="text_20">
     <!-- SRR2155418 -->
     <g transform="translate(280.459063 318.477894)scale(0.08 -0.08)">
      <use xlink:href="#DejaVuSans-53"/>
      <use xlink:href="#DejaVuSans-52" x="63.476562"/>
      <use xlink:href="#DejaVuSans-52" x="132.958984"/>
      <use xlink:href="#DejaVuSans-32" x="202.441406"/>
      <use xlink:href="#DejaVuSans-31" x="266.064453"/>
      <use xlink:href="#DejaVuSans-35" x="329.6875"/>
      <use xlink:href="#DejaVuSans-35" x="393.310547"/>
      <use xlink:href="#DejaVuSans-34" x="456.933594"/>
      <use xlink:href="#DejaVuSans-31" x="520.556641"/>
      <use xlink:href="#DejaVuSans-38" x="584.179688"/>
     </g>
    </g>
    <g id="line2d_25">
     <path d="M 475.95 292.192894 
L 483.95 292.192894 
L 491.95 292.192894 
" style="fill: none; stroke: #5cb85c; stroke-linecap: square"/>
    </g>
    <g id="text_21">
     <!-- SRR2155419 -->
     <g transform="translate(498.35 294.992894)scale(0.08 -0.08)">
      <defs>
       <path id="DejaVuSans-39" d="M 703 97 
L 703 672 
Q 941 559 1184 500 
Q 1428 441 1663 441 
Q 2288 441 2617 861 
Q 2947 1281 2994 2138 
Q 2813 1869 2534 1725 
Q 2256 1581 1919 1581 
Q 1219 1581 811 2004 
Q 403 2428 403 3163 
Q 403 3881 828 4315 
Q 1253 4750 1959 4750 
Q 2769 4750 3195 4129 
Q 3622 3509 3622 2328 
Q 3622 1225 3098 567 
Q 2575 -91 1691 -91 
Q 1453 -91 1209 -44 
Q 966 3 703 97 
z
M 1959 2075 
Q 2384 2075 2632 2365 
Q 2881 2656 2881 3163 
Q 2881 3666 2632 3958 
Q 2384 4250 1959 4250 
Q 1534 4250 1286 3958 
Q 1038 3666 1038 3163 
Q 1038 2656 1286 2365 
Q 1534 2075 1959 2075 
z
" transform="scale(0.015625)"/>
      </defs>
      <use xlink:href="#DejaVuSans-53"/>
      <use xlink:href="#DejaVuSans-52" x="63.476562"/>
      <use xlink:href="#DejaVuSans-52" x="132.958984"/>
      <use xlink:href="#DejaVuSans-32" x="202.441406"/>
      <use xlink:href="#DejaVuSans-31" x="266.064453"/>
      <use xlink:href="#DejaVuSans-35" x="329.6875"/>
      <use xlink:href="#DejaVuSans-35" x="393.310547"/>
      <use xlink:href="#DejaVuSans-34" x="456.933594"/>
      <use xlink:href="#DejaVuSans-31" x="520.556641"/>
      <use xlink:href="#DejaVuSans-39" x="584.179688"/>
     </g>
    </g>
    <g id="line2d_26">
     <path d="M 475.95 303.935394 
L 483.95 303.935394 
L 491.95 303.935394 
" style="fill: none; stroke: #f0ad4e; stroke-linecap: square"/>
    </g>
    <g id="text_22">
     <!-- SRR2155420 -->
     <g transform="translate(498.35 306.735394)scale(0.08 -0.08)">
      <use xlink:href="#DejaVuSans-53"/>
      <use xlink:href="#DejaVuSans-52" x="63.476562"/>
      <use xlink:href="#DejaVuSans-52" x="132.958984"/>
      <use xlink:href="#DejaVuSans-32" x="202.441406"/>
      <use xlink:href="#DejaVuSans-31" x="266.064453"/>
      <use xlink:href="#DejaVuSans-35" x="329.6875"/>
      <use xlink:href="#DejaVuSans-35" x="393.310547"/>
      <use xlink:href="#DejaVuSans-34" x="456.933594"/>
      <use xlink:href="#DejaVuSans-32" x="520.556641"/>
      <use xlink:href="#DejaVuSans-30" x="584.179688"/>
     </g>
    </g>
    <g id="line2d_27">
     <path d="M 693.840937 292.192894 
L 701.840937 292.192894 
L 709.840937 292.192894 
" style="fill: none; stroke: #5cb85c; stroke-linecap: square"/>
    </g>
    <g id="text_23">
     <!-- SRR2155421 -->
     <g transform="translate(716.240937 294.992894)scale(0.08 -0.08)">
      <use xlink:href="#DejaVuSans-53"/>
      <use xlink:href="#DejaVuSans-52" x="63.476562"/>
      <use xlink:href="#DejaVuSans-52" x="132.958984"/>
      <use xlink:href="#DejaVuSans-32" x="202.441406"/>
      <use xlink:href="#DejaVuSans-31" x="266.064453"/>
      <use xlink:href="#DejaVuSans-35" x="329.6875"/>
      <use xlink:href="#DejaVuSans-35" x="393.310547"/>
      <use xlink:href="#DejaVuSans-34" x="456.933594"/>
      <use xlink:href="#DejaVuSans-32" x="520.556641"/>
      <use xlink:href="#DejaVuSans-31" x="584.179688"/>
     </g>
    </g>
    <g id="line2d_28">
     <path d="M 693.840937 303.935394 
L 701.840937 303.935394 
L 709.840937 303.935394 
" style="fill: none; stroke: #5cb85c; stroke-linecap: square"/>
    </g>
    <g id="text_24">
     <!-- SRR2155422 -->
     <g transform="translate(716.240937 306.735394)scale(0.08 -0.08)">
      <use xlink:href="#DejaVuSans-53"/>
      <use xlink:href="#DejaVuSans-52" x="63.476562"/>
      <use xlink:href="#DejaVuSans-52" x="132.958984"/>
      <use xlink:href="#DejaVuSans-32" x="202.441406"/>
      <use xlink:href="#DejaVuSans-31" x="266.064453"/>
      <use xlink:href="#DejaVuSans-35" x="329.6875"/>
      <use xlink:href="#DejaVuSans-35" x="393.310547"/>
      <use xlink:href="#DejaVuSans-34" x="456.933594"/>
      <use xlink:href="#DejaVuSans-32" x="520.556641"/>
      <use xlink:href="#DejaVuSans-32" x="584.179688"/>
     </g>
    </g>
    <g id="line2d_29">
     <path d="M 911.731875 292.192894 
L 919.731875 292.192894 
L 927.731875 292.192894 
" style="fill: none; stroke: #f0ad4e; stroke-linecap: square"/>
    </g>
    <g id="text_25">
     <!-- SRR2155423 -->
     <g transform="translate(934.131875 294.992894)scale(0.08 -0.08)">
      <use xlink:href="#DejaVuSans-53"/>
      <use xlink:href="#DejaVuSans-52" x="63.476562"/>
      <use xlink:href="#DejaVuSans-52" x="132.958984"/>
      <use xlink:href="#DejaVuSans-32" x="202.441406"/>
      <use xlink:href="#DejaVuSans-31" x="266.064453"/>
      <use xlink:href="#DejaVuSans-35" x="329.6875"/>
      <use xlink:href="#DejaVuSans-35" x="393.310547"/>
      <use xlink:href="#DejaVuSans-34" x="456.933594"/>
      <use xlink:href="#DejaVuSans-32" x="520.556641"/>
      <use xlink:href="#DejaVuSans-33" x="584.179688"/>
     </g>
    </g>
    <g id="line2d_30">
     <path d="M 911.731875 303.935394 
L 919.731875 303.935394 
L 927.731875 303.935394 
" style="fill: none; stroke: #5cb85c; stroke-linecap: square"/>
    </g>
    <g id="text_26">
     <!-- SRR2155424 -->
     <g transform="translate(934.131875 306.735394)scale(0.08 -0.08)">
      <use xlink:href="#DejaVuSans-53"/>
      <use xlink:href="#DejaVuSans-52" x="63.476562"/>
      <use xlink:href="#DejaVuSans-52" x="132.958984"/>
      <use xlink:href="#DejaVuSans-32" x="202.441406"/>
      <use xlink:href="#DejaVuSans-31" x="266.064453"/>
      <use xlink:href="#DejaVuSans-35" x="329.6875"/>
      <use xlink:href="#DejaVuSans-35" x="393.310547"/>
      <use xlink:href="#DejaVuSans-34" x="456.933594"/>
      <use xlink:href="#DejaVuSans-32" x="520.556641"/>
      <use xlink:href="#DejaVuSans-34" x="584.179688"/>
     </g>
    </g>
   </g>
  </g>
 </g>
 <defs>
  <clipPath id="pec0342c26a">
   <rect x="32.968125" y="31.48286" width="960.19" height="242.5072"/>
  </clipPath>
 </defs>
</svg>
