<?xml version="1.0" encoding="utf-8" standalone="no"?>
<!DOCTYPE svg PUBLIC "-//W3C//DTD SVG 1.1//EN"
  "http://www.w3.org/Graphics/SVG/1.1/DTD/svg11.dtd">
<svg xmlns:xlink="http://www.w3.org/1999/xlink" width="1000.098125pt" height="330.541644pt" viewBox="0 0 1000.098125 330.541644" xmlns="http://www.w3.org/2000/svg" version="1.1">
 <metadata>
  <rdf:RDF xmlns:dc="http://purl.org/dc/elements/1.1/" xmlns:cc="http://creativecommons.org/ns#" xmlns:rdf="http://www.w3.org/1999/02/22-rdf-syntax-ns#">
   <cc:Work>
    <dc:type rdf:resource="http://purl.org/dc/dcmitype/StillImage"/>
    <dc:date>2024-08-12T02:15:00.553468</dc:date>
    <dc:format>image/svg+xml</dc:format>
    <dc:creator>
     <cc:Agent>
      <dc:title>Matplotlib v3.5.3, https://matplotlib.org/</dc:title>
     </cc:Agent>
    </dc:creator>
   </cc:Work>
  </rdf:RDF>
 </metadata>
 <defs>
  <style type="text/css">*{stroke-linejoin: round; stroke-linecap: butt}</style>
 </defs>
 <g id="figure_1">
  <g id="axes_1">
   <g id="patch_1">
    <path d="M 58.418125 273.99006 
L 985.263125 273.99006 
L 985.263125 31.48286 
L 58.418125 31.48286 
z
" style="fill: #ffffff"/>
   </g>
   <g id="matplotlib.axis_1">
    <g id="xtick_1">
     <g id="text_1">
      <!-- 0 -->
      <g transform="translate(55.873125 287.06881)scale(0.08 -0.08)">
       <defs>
        <path id="DejaVuSans-30" d="M 2034 4250 
Q 1547 4250 1301 3770 
Q 1056 3291 1056 2328 
Q 1056 1369 1301 889 
Q 1547 409 2034 409 
Q 2525 409 2770 889 
Q 3016 1369 3016 2328 
Q 3016 3291 2770 3770 
Q 2525 4250 2034 4250 
z
M 2034 4750 
Q 2819 4750 3233 4129 
Q 3647 3509 3647 2328 
Q 3647 1150 3233 529 
Q 2819 -91 2034 -91 
Q 1250 -91 836 529 
Q 422 1150 422 2328 
Q 422 3509 836 4129 
Q 1250 4750 2034 4750 
z
" transform="scale(0.015625)"/>
       </defs>
       <use xlink:href="#DejaVuSans-30"/>
      </g>
     </g>
    </g>
    <g id="xtick_2">
     <g id="text_2">
      <!-- 20 -->
      <g transform="translate(238.697125 287.06881)scale(0.08 -0.08)">
       <defs>
        <path id="DejaVuSans-32" d="M 1228 531 
L 3431 531 
L 3431 0 
L 469 0 
L 469 531 
Q 828 903 1448 1529 
Q 2069 2156 2228 2338 
Q 2531 2678 2651 2914 
Q 2772 3150 2772 3378 
Q 2772 3750 2511 3984 
Q 2250 4219 1831 4219 
Q 1534 4219 1204 4116 
Q 875 4013 500 3803 
L 500 4441 
Q 881 4594 1212 4672 
Q 1544 4750 1819 4750 
Q 2544 4750 2975 4387 
Q 3406 4025 3406 3419 
Q 3406 3131 3298 2873 
Q 3191 2616 2906 2266 
Q 2828 2175 2409 1742 
Q 1991 1309 1228 531 
z
" transform="scale(0.015625)"/>
       </defs>
       <use xlink:href="#DejaVuSans-32"/>
       <use xlink:href="#DejaVuSans-30" x="63.623047"/>
      </g>
     </g>
    </g>
    <g id="xtick_3">
     <g id="text_3">
      <!-- 40 -->
      <g transform="translate(424.066125 287.06881)scale(0.08 -0.08)">
       <defs>
        <path id="DejaVuSans-34" d="M 2419 4116 
L 825 1625 
L 2419 1625 
L 2419 4116 
z
M 2253 4666 
L 3047 4666 
L 3047 1625 
L 3713 1625 
L 3713 1100 
L 3047 1100 
L 3047 0 
L 2419 0 
L 2419 1100 
L 313 1100 
L 313 1709 
L 2253 4666 
z
" transform="scale(0.015625)"/>
       </defs>
       <use xlink:href="#DejaVuSans-34"/>
       <use xlink:href="#DejaVuSans-30" x="63.623047"/>
      </g>
     </g>
    </g>
    <g id="xtick_4">
     <g id="text_4">
      <!-- 60 -->
      <g transform="translate(609.435125 287.06881)scale(0.08 -0.08)">
       <defs>
        <path id="DejaVuSans-36" d="M 2113 2584 
Q 1688 2584 1439 2293 
Q 1191 2003 1191 1497 
Q 1191 994 1439 701 
Q 1688 409 2113 409 
Q 2538 409 2786 701 
Q 3034 994 3034 1497 
Q 3034 2003 2786 2293 
Q 2538 2584 2113 2584 
z
M 3366 4563 
L 3366 3988 
Q 3128 4100 2886 4159 
Q 2644 4219 2406 4219 
Q 1781 4219 1451 3797 
Q 1122 3375 1075 2522 
Q 1259 2794 1537 2939 
Q 1816 3084 2150 3084 
Q 2853 3084 3261 2657 
Q 3669 2231 3669 1497 
Q 3669 778 3244 343 
Q 2819 -91 2113 -91 
Q 1303 -91 875 529 
Q 447 1150 447 2328 
Q 447 3434 972 4092 
Q 1497 4750 2381 4750 
Q 2619 4750 2861 4703 
Q 3103 4656 3366 4563 
z
" transform="scale(0.015625)"/>
       </defs>
       <use xlink:href="#DejaVuSans-36"/>
       <use xlink:href="#DejaVuSans-30" x="63.623047"/>
      </g>
     </g>
    </g>
    <g id="xtick_5">
     <g id="text_5">
      <!-- 80 -->
      <g transform="translate(794.804125 287.06881)scale(0.08 -0.08)">
       <defs>
        <path id="DejaVuSans-38" d="M 2034 2216 
Q 1584 2216 1326 1975 
Q 1069 1734 1069 1313 
Q 1069 891 1326 650 
Q 1584 409 2034 409 
Q 2484 409 2743 651 
Q 3003 894 3003 1313 
Q 3003 1734 2745 1975 
Q 2488 2216 2034 2216 
z
M 1403 2484 
Q 997 2584 770 2862 
Q 544 3141 544 3541 
Q 544 4100 942 4425 
Q 1341 4750 2034 4750 
Q 2731 4750 3128 4425 
Q 3525 4100 3525 3541 
Q 3525 3141 3298 2862 
Q 3072 2584 2669 2484 
Q 3125 2378 3379 2068 
Q 3634 1759 3634 1313 
Q 3634 634 3220 271 
Q 2806 -91 2034 -91 
Q 1263 -91 848 271 
Q 434 634 434 1313 
Q 434 1759 690 2068 
Q 947 2378 1403 2484 
z
M 1172 3481 
Q 1172 3119 1398 2916 
Q 1625 2713 2034 2713 
Q 2441 2713 2670 2916 
Q 2900 3119 2900 3481 
Q 2900 3844 2670 4047 
Q 2441 4250 2034 4250 
Q 1625 4250 1398 4047 
Q 1172 3844 1172 3481 
z
" transform="scale(0.015625)"/>
       </defs>
       <use xlink:href="#DejaVuSans-38"/>
       <use xlink:href="#DejaVuSans-30" x="63.623047"/>
      </g>
     </g>
    </g>
    <g id="xtick_6">
     <g id="text_6">
      <!-- 100 -->
      <g transform="translate(977.628125 287.06881)scale(0.08 -0.08)">
       <defs>
        <path id="DejaVuSans-31" d="M 794 531 
L 1825 531 
L 1825 4091 
L 703 3866 
L 703 4441 
L 1819 4666 
L 2450 4666 
L 2450 531 
L 3481 531 
L 3481 0 
L 794 0 
L 794 531 
z
" transform="scale(0.015625)"/>
       </defs>
       <use xlink:href="#DejaVuSans-31"/>
       <use xlink:href="#DejaVuSans-30" x="63.623047"/>
       <use xlink:href="#DejaVuSans-30" x="127.246094"/>
      </g>
     </g>
    </g>
    <g id="text_7">
     <!-- Transcript Position (%) -->
     <g transform="translate(466.008594 300.330997)scale(0.1 -0.1)">
      <defs>
       <path id="DejaVuSans-54" d="M -19 4666 
L 3928 4666 
L 3928 4134 
L 2272 4134 
L 2272 0 
L 1638 0 
L 1638 4134 
L -19 4134 
L -19 4666 
z
" transform="scale(0.015625)"/>
       <path id="DejaVuSans-72" d="M 2631 2963 
Q 2534 3019 2420 3045 
Q 2306 3072 2169 3072 
Q 1681 3072 1420 2755 
Q 1159 2438 1159 1844 
L 1159 0 
L 581 0 
L 581 3500 
L 1159 3500 
L 1159 2956 
Q 1341 3275 1631 3429 
Q 1922 3584 2338 3584 
Q 2397 3584 2469 3576 
Q 2541 3569 2628 3553 
L 2631 2963 
z
" transform="scale(0.015625)"/>
       <path id="DejaVuSans-61" d="M 2194 1759 
Q 1497 1759 1228 1600 
Q 959 1441 959 1056 
Q 959 750 1161 570 
Q 1363 391 1709 391 
Q 2188 391 2477 730 
Q 2766 1069 2766 1631 
L 2766 1759 
L 2194 1759 
z
M 3341 1997 
L 3341 0 
L 2766 0 
L 2766 531 
Q 2569 213 2275 61 
Q 1981 -91 1556 -91 
Q 1019 -91 701 211 
Q 384 513 384 1019 
Q 384 1609 779 1909 
Q 1175 2209 1959 2209 
L 2766 2209 
L 2766 2266 
Q 2766 2663 2505 2880 
Q 2244 3097 1772 3097 
Q 1472 3097 1187 3025 
Q 903 2953 641 2809 
L 641 3341 
Q 956 3463 1253 3523 
Q 1550 3584 1831 3584 
Q 2591 3584 2966 3190 
Q 3341 2797 3341 1997 
z
" transform="scale(0.015625)"/>
       <path id="DejaVuSans-6e" d="M 3513 2113 
L 3513 0 
L 2938 0 
L 2938 2094 
Q 2938 2591 2744 2837 
Q 2550 3084 2163 3084 
Q 1697 3084 1428 2787 
Q 1159 2491 1159 1978 
L 1159 0 
L 581 0 
L 581 3500 
L 1159 3500 
L 1159 2956 
Q 1366 3272 1645 3428 
Q 1925 3584 2291 3584 
Q 2894 3584 3203 3211 
Q 3513 2838 3513 2113 
z
" transform="scale(0.015625)"/>
       <path id="DejaVuSans-73" d="M 2834 3397 
L 2834 2853 
Q 2591 2978 2328 3040 
Q 2066 3103 1784 3103 
Q 1356 3103 1142 2972 
Q 928 2841 928 2578 
Q 928 2378 1081 2264 
Q 1234 2150 1697 2047 
L 1894 2003 
Q 2506 1872 2764 1633 
Q 3022 1394 3022 966 
Q 3022 478 2636 193 
Q 2250 -91 1575 -91 
Q 1294 -91 989 -36 
Q 684 19 347 128 
L 347 722 
Q 666 556 975 473 
Q 1284 391 1588 391 
Q 1994 391 2212 530 
Q 2431 669 2431 922 
Q 2431 1156 2273 1281 
Q 2116 1406 1581 1522 
L 1381 1569 
Q 847 1681 609 1914 
Q 372 2147 372 2553 
Q 372 3047 722 3315 
Q 1072 3584 1716 3584 
Q 2034 3584 2315 3537 
Q 2597 3491 2834 3397 
z
" transform="scale(0.015625)"/>
       <path id="DejaVuSans-63" d="M 3122 3366 
L 3122 2828 
Q 2878 2963 2633 3030 
Q 2388 3097 2138 3097 
Q 1578 3097 1268 2742 
Q 959 2388 959 1747 
Q 959 1106 1268 751 
Q 1578 397 2138 397 
Q 2388 397 2633 464 
Q 2878 531 3122 666 
L 3122 134 
Q 2881 22 2623 -34 
Q 2366 -91 2075 -91 
Q 1284 -91 818 406 
Q 353 903 353 1747 
Q 353 2603 823 3093 
Q 1294 3584 2113 3584 
Q 2378 3584 2631 3529 
Q 2884 3475 3122 3366 
z
" transform="scale(0.015625)"/>
       <path id="DejaVuSans-69" d="M 603 3500 
L 1178 3500 
L 1178 0 
L 603 0 
L 603 3500 
z
M 603 4863 
L 1178 4863 
L 1178 4134 
L 603 4134 
L 603 4863 
z
" transform="scale(0.015625)"/>
       <path id="DejaVuSans-70" d="M 1159 525 
L 1159 -1331 
L 581 -1331 
L 581 3500 
L 1159 3500 
L 1159 2969 
Q 1341 3281 1617 3432 
Q 1894 3584 2278 3584 
Q 2916 3584 3314 3078 
Q 3713 2572 3713 1747 
Q 3713 922 3314 415 
Q 2916 -91 2278 -91 
Q 1894 -91 1617 61 
Q 1341 213 1159 525 
z
M 3116 1747 
Q 3116 2381 2855 2742 
Q 2594 3103 2138 3103 
Q 1681 3103 1420 2742 
Q 1159 2381 1159 1747 
Q 1159 1113 1420 752 
Q 1681 391 2138 391 
Q 2594 391 2855 752 
Q 3116 1113 3116 1747 
z
" transform="scale(0.015625)"/>
       <path id="DejaVuSans-74" d="M 1172 4494 
L 1172 3500 
L 2356 3500 
L 2356 3053 
L 1172 3053 
L 1172 1153 
Q 1172 725 1289 603 
Q 1406 481 1766 481 
L 2356 481 
L 2356 0 
L 1766 0 
Q 1100 0 847 248 
Q 594 497 594 1153 
L 594 3053 
L 172 3053 
L 172 3500 
L 594 3500 
L 594 4494 
L 1172 4494 
z
" transform="scale(0.015625)"/>
       <path id="DejaVuSans-20" transform="scale(0.015625)"/>
       <path id="DejaVuSans-50" d="M 1259 4147 
L 1259 2394 
L 2053 2394 
Q 2494 2394 2734 2622 
Q 2975 2850 2975 3272 
Q 2975 3691 2734 3919 
Q 2494 4147 2053 4147 
L 1259 4147 
z
M 628 4666 
L 2053 4666 
Q 2838 4666 3239 4311 
Q 3641 3956 3641 3272 
Q 3641 2581 3239 2228 
Q 2838 1875 2053 1875 
L 1259 1875 
L 1259 0 
L 628 0 
L 628 4666 
z
" transform="scale(0.015625)"/>
       <path id="DejaVuSans-6f" d="M 1959 3097 
Q 1497 3097 1228 2736 
Q 959 2375 959 1747 
Q 959 1119 1226 758 
Q 1494 397 1959 397 
Q 2419 397 2687 759 
Q 2956 1122 2956 1747 
Q 2956 2369 2687 2733 
Q 2419 3097 1959 3097 
z
M 1959 3584 
Q 2709 3584 3137 3096 
Q 3566 2609 3566 1747 
Q 3566 888 3137 398 
Q 2709 -91 1959 -91 
Q 1206 -91 779 398 
Q 353 888 353 1747 
Q 353 2609 779 3096 
Q 1206 3584 1959 3584 
z
" transform="scale(0.015625)"/>
       <path id="DejaVuSans-28" d="M 1984 4856 
Q 1566 4138 1362 3434 
Q 1159 2731 1159 2009 
Q 1159 1288 1364 580 
Q 1569 -128 1984 -844 
L 1484 -844 
Q 1016 -109 783 600 
Q 550 1309 550 2009 
Q 550 2706 781 3412 
Q 1013 4119 1484 4856 
L 1984 4856 
z
" transform="scale(0.015625)"/>
       <path id="DejaVuSans-25" d="M 4653 2053 
Q 4381 2053 4226 1822 
Q 4072 1591 4072 1178 
Q 4072 772 4226 539 
Q 4381 306 4653 306 
Q 4919 306 5073 539 
Q 5228 772 5228 1178 
Q 5228 1588 5073 1820 
Q 4919 2053 4653 2053 
z
M 4653 2450 
Q 5147 2450 5437 2106 
Q 5728 1763 5728 1178 
Q 5728 594 5436 251 
Q 5144 -91 4653 -91 
Q 4153 -91 3862 251 
Q 3572 594 3572 1178 
Q 3572 1766 3864 2108 
Q 4156 2450 4653 2450 
z
M 1428 4353 
Q 1159 4353 1004 4120 
Q 850 3888 850 3481 
Q 850 3069 1003 2837 
Q 1156 2606 1428 2606 
Q 1700 2606 1854 2837 
Q 2009 3069 2009 3481 
Q 2009 3884 1853 4118 
Q 1697 4353 1428 4353 
z
M 4250 4750 
L 4750 4750 
L 1831 -91 
L 1331 -91 
L 4250 4750 
z
M 1428 4750 
Q 1922 4750 2215 4408 
Q 2509 4066 2509 3481 
Q 2509 2891 2217 2550 
Q 1925 2209 1428 2209 
Q 931 2209 642 2551 
Q 353 2894 353 3481 
Q 353 4063 643 4406 
Q 934 4750 1428 4750 
z
" transform="scale(0.015625)"/>
       <path id="DejaVuSans-29" d="M 513 4856 
L 1013 4856 
Q 1481 4119 1714 3412 
Q 1947 2706 1947 2009 
Q 1947 1309 1714 600 
Q 1481 -109 1013 -844 
L 513 -844 
Q 928 -128 1133 580 
Q 1338 1288 1338 2009 
Q 1338 2731 1133 3434 
Q 928 4138 513 4856 
z
" transform="scale(0.015625)"/>
      </defs>
      <use xlink:href="#DejaVuSans-54"/>
      <use xlink:href="#DejaVuSans-72" x="46.333984"/>
      <use xlink:href="#DejaVuSans-61" x="87.447266"/>
      <use xlink:href="#DejaVuSans-6e" x="148.726562"/>
      <use xlink:href="#DejaVuSans-73" x="212.105469"/>
      <use xlink:href="#DejaVuSans-63" x="264.205078"/>
      <use xlink:href="#DejaVuSans-72" x="319.185547"/>
      <use xlink:href="#DejaVuSans-69" x="360.298828"/>
      <use xlink:href="#DejaVuSans-70" x="388.082031"/>
      <use xlink:href="#DejaVuSans-74" x="451.558594"/>
      <use xlink:href="#DejaVuSans-20" x="490.767578"/>
      <use xlink:href="#DejaVuSans-50" x="522.554688"/>
      <use xlink:href="#DejaVuSans-6f" x="579.232422"/>
      <use xlink:href="#DejaVuSans-73" x="640.414062"/>
      <use xlink:href="#DejaVuSans-69" x="692.513672"/>
      <use xlink:href="#DejaVuSans-74" x="720.296875"/>
      <use xlink:href="#DejaVuSans-69" x="759.505859"/>
      <use xlink:href="#DejaVuSans-6f" x="787.289062"/>
      <use xlink:href="#DejaVuSans-6e" x="848.470703"/>
      <use xlink:href="#DejaVuSans-20" x="911.849609"/>
      <use xlink:href="#DejaVuSans-28" x="943.636719"/>
      <use xlink:href="#DejaVuSans-25" x="982.650391"/>
      <use xlink:href="#DejaVuSans-29" x="1077.669922"/>
     </g>
    </g>
   </g>
   <g id="matplotlib.axis_2">
    <g id="ytick_1">
     <g id="line2d_1">
      <path d="M 58.418125 273.99006 
L 985.263125 273.99006 
" clip-path="url(#pd14a577d7b)" style="fill: none; stroke: #dedede; stroke-linecap: square"/>
     </g>
     <g id="text_8">
      <!-- 0 -->
      <g transform="translate(46.328125 277.029435)scale(0.08 -0.08)">
       <use xlink:href="#DejaVuSans-30"/>
      </g>
     </g>
    </g>
    <g id="ytick_2">
     <g id="line2d_2">
      <path d="M 58.418125 241.534556 
L 985.263125 241.534556 
" clip-path="url(#pd14a577d7b)" style="fill: none; stroke: #dedede; stroke-linecap: square"/>
     </g>
     <g id="text_9">
      <!-- 25000 -->
      <g transform="translate(25.968125 244.573931)scale(0.08 -0.08)">
       <defs>
        <path id="DejaVuSans-35" d="M 691 4666 
L 3169 4666 
L 3169 4134 
L 1269 4134 
L 1269 2991 
Q 1406 3038 1543 3061 
Q 1681 3084 1819 3084 
Q 2600 3084 3056 2656 
Q 3513 2228 3513 1497 
Q 3513 744 3044 326 
Q 2575 -91 1722 -91 
Q 1428 -91 1123 -41 
Q 819 9 494 109 
L 494 744 
Q 775 591 1075 516 
Q 1375 441 1709 441 
Q 2250 441 2565 725 
Q 2881 1009 2881 1497 
Q 2881 1984 2565 2268 
Q 2250 2553 1709 2553 
Q 1456 2553 1204 2497 
Q 953 2441 691 2322 
L 691 4666 
z
" transform="scale(0.015625)"/>
       </defs>
       <use xlink:href="#DejaVuSans-32"/>
       <use xlink:href="#DejaVuSans-35" x="63.623047"/>
       <use xlink:href="#DejaVuSans-30" x="127.246094"/>
       <use xlink:href="#DejaVuSans-30" x="190.869141"/>
       <use xlink:href="#DejaVuSans-30" x="254.492188"/>
      </g>
     </g>
    </g>
    <g id="ytick_3">
     <g id="line2d_3">
      <path d="M 58.418125 209.079051 
L 985.263125 209.079051 
" clip-path="url(#pd14a577d7b)" style="fill: none; stroke: #dedede; stroke-linecap: square"/>
     </g>
     <g id="text_10">
      <!-- 50000 -->
      <g transform="translate(25.968125 212.118426)scale(0.08 -0.08)">
       <use xlink:href="#DejaVuSans-35"/>
       <use xlink:href="#DejaVuSans-30" x="63.623047"/>
       <use xlink:href="#DejaVuSans-30" x="127.246094"/>
       <use xlink:href="#DejaVuSans-30" x="190.869141"/>
       <use xlink:href="#DejaVuSans-30" x="254.492188"/>
      </g>
     </g>
    </g>
    <g id="ytick_4">
     <g id="line2d_4">
      <path d="M 58.418125 176.623547 
L 985.263125 176.623547 
" clip-path="url(#pd14a577d7b)" style="fill: none; stroke: #dedede; stroke-linecap: square"/>
     </g>
     <g id="text_11">
      <!-- 75000 -->
      <g transform="translate(25.968125 179.662922)scale(0.08 -0.08)">
       <defs>
        <path id="DejaVuSans-37" d="M 525 4666 
L 3525 4666 
L 3525 4397 
L 1831 0 
L 1172 0 
L 2766 4134 
L 525 4134 
L 525 4666 
z
" transform="scale(0.015625)"/>
       </defs>
       <use xlink:href="#DejaVuSans-37"/>
       <use xlink:href="#DejaVuSans-35" x="63.623047"/>
       <use xlink:href="#DejaVuSans-30" x="127.246094"/>
       <use xlink:href="#DejaVuSans-30" x="190.869141"/>
       <use xlink:href="#DejaVuSans-30" x="254.492188"/>
      </g>
     </g>
    </g>
    <g id="ytick_5">
     <g id="line2d_5">
      <path d="M 58.418125 144.168043 
L 985.263125 144.168043 
" clip-path="url(#pd14a577d7b)" style="fill: none; stroke: #dedede; stroke-linecap: square"/>
     </g>
     <g id="text_12">
      <!-- 100000 -->
      <g transform="translate(20.878125 147.207418)scale(0.08 -0.08)">
       <use xlink:href="#DejaVuSans-31"/>
       <use xlink:href="#DejaVuSans-30" x="63.623047"/>
       <use xlink:href="#DejaVuSans-30" x="127.246094"/>
       <use xlink:href="#DejaVuSans-30" x="190.869141"/>
       <use xlink:href="#DejaVuSans-30" x="254.492188"/>
       <use xlink:href="#DejaVuSans-30" x="318.115234"/>
      </g>
     </g>
    </g>
    <g id="ytick_6">
     <g id="line2d_6">
      <path d="M 58.418125 111.712539 
L 985.263125 111.712539 
" clip-path="url(#pd14a577d7b)" style="fill: none; stroke: #dedede; stroke-linecap: square"/>
     </g>
     <g id="text_13">
      <!-- 125000 -->
      <g transform="translate(20.878125 114.751914)scale(0.08 -0.08)">
       <use xlink:href="#DejaVuSans-31"/>
       <use xlink:href="#DejaVuSans-32" x="63.623047"/>
       <use xlink:href="#DejaVuSans-35" x="127.246094"/>
       <use xlink:href="#DejaVuSans-30" x="190.869141"/>
       <use xlink:href="#DejaVuSans-30" x="254.492188"/>
       <use xlink:href="#DejaVuSans-30" x="318.115234"/>
      </g>
     </g>
    </g>
    <g id="ytick_7">
     <g id="line2d_7">
      <path d="M 58.418125 79.257034 
L 985.263125 79.257034 
" clip-path="url(#pd14a577d7b)" style="fill: none; stroke: #dedede; stroke-linecap: square"/>
     </g>
     <g id="text_14">
      <!-- 150000 -->
      <g transform="translate(20.878125 82.296409)scale(0.08 -0.08)">
       <use xlink:href="#DejaVuSans-31"/>
       <use xlink:href="#DejaVuSans-35" x="63.623047"/>
       <use xlink:href="#DejaVuSans-30" x="127.246094"/>
       <use xlink:href="#DejaVuSans-30" x="190.869141"/>
       <use xlink:href="#DejaVuSans-30" x="254.492188"/>
       <use xlink:href="#DejaVuSans-30" x="318.115234"/>
      </g>
     </g>
    </g>
    <g id="ytick_8">
     <g id="line2d_8">
      <path d="M 58.418125 46.80153 
L 985.263125 46.80153 
" clip-path="url(#pd14a577d7b)" style="fill: none; stroke: #dedede; stroke-linecap: square"/>
     </g>
     <g id="text_15">
      <!-- 175000 -->
      <g transform="translate(20.878125 49.840905)scale(0.08 -0.08)">
       <use xlink:href="#DejaVuSans-31"/>
       <use xlink:href="#DejaVuSans-37" x="63.623047"/>
       <use xlink:href="#DejaVuSans-35" x="127.246094"/>
       <use xlink:href="#DejaVuSans-30" x="190.869141"/>
       <use xlink:href="#DejaVuSans-30" x="254.492188"/>
       <use xlink:href="#DejaVuSans-30" x="318.115234"/>
      </g>
     </g>
    </g>
    <g id="text_16">
     <!-- Cumulative mapped-read depth -->
     <g transform="translate(14.798437 232.601304)rotate(-90)scale(0.1 -0.1)">
      <defs>
       <path id="DejaVuSans-43" d="M 4122 4306 
L 4122 3641 
Q 3803 3938 3442 4084 
Q 3081 4231 2675 4231 
Q 1875 4231 1450 3742 
Q 1025 3253 1025 2328 
Q 1025 1406 1450 917 
Q 1875 428 2675 428 
Q 3081 428 3442 575 
Q 3803 722 4122 1019 
L 4122 359 
Q 3791 134 3420 21 
Q 3050 -91 2638 -91 
Q 1578 -91 968 557 
Q 359 1206 359 2328 
Q 359 3453 968 4101 
Q 1578 4750 2638 4750 
Q 3056 4750 3426 4639 
Q 3797 4528 4122 4306 
z
" transform="scale(0.015625)"/>
       <path id="DejaVuSans-75" d="M 544 1381 
L 544 3500 
L 1119 3500 
L 1119 1403 
Q 1119 906 1312 657 
Q 1506 409 1894 409 
Q 2359 409 2629 706 
Q 2900 1003 2900 1516 
L 2900 3500 
L 3475 3500 
L 3475 0 
L 2900 0 
L 2900 538 
Q 2691 219 2414 64 
Q 2138 -91 1772 -91 
Q 1169 -91 856 284 
Q 544 659 544 1381 
z
M 1991 3584 
L 1991 3584 
z
" transform="scale(0.015625)"/>
       <path id="DejaVuSans-6d" d="M 3328 2828 
Q 3544 3216 3844 3400 
Q 4144 3584 4550 3584 
Q 5097 3584 5394 3201 
Q 5691 2819 5691 2113 
L 5691 0 
L 5113 0 
L 5113 2094 
Q 5113 2597 4934 2840 
Q 4756 3084 4391 3084 
Q 3944 3084 3684 2787 
Q 3425 2491 3425 1978 
L 3425 0 
L 2847 0 
L 2847 2094 
Q 2847 2600 2669 2842 
Q 2491 3084 2119 3084 
Q 1678 3084 1418 2786 
Q 1159 2488 1159 1978 
L 1159 0 
L 581 0 
L 581 3500 
L 1159 3500 
L 1159 2956 
Q 1356 3278 1631 3431 
Q 1906 3584 2284 3584 
Q 2666 3584 2933 3390 
Q 3200 3197 3328 2828 
z
" transform="scale(0.015625)"/>
       <path id="DejaVuSans-6c" d="M 603 4863 
L 1178 4863 
L 1178 0 
L 603 0 
L 603 4863 
z
" transform="scale(0.015625)"/>
       <path id="DejaVuSans-76" d="M 191 3500 
L 800 3500 
L 1894 563 
L 2988 3500 
L 3597 3500 
L 2284 0 
L 1503 0 
L 191 3500 
z
" transform="scale(0.015625)"/>
       <path id="DejaVuSans-65" d="M 3597 1894 
L 3597 1613 
L 953 1613 
Q 991 1019 1311 708 
Q 1631 397 2203 397 
Q 2534 397 2845 478 
Q 3156 559 3463 722 
L 3463 178 
Q 3153 47 2828 -22 
Q 2503 -91 2169 -91 
Q 1331 -91 842 396 
Q 353 884 353 1716 
Q 353 2575 817 3079 
Q 1281 3584 2069 3584 
Q 2775 3584 3186 3129 
Q 3597 2675 3597 1894 
z
M 3022 2063 
Q 3016 2534 2758 2815 
Q 2500 3097 2075 3097 
Q 1594 3097 1305 2825 
Q 1016 2553 972 2059 
L 3022 2063 
z
" transform="scale(0.015625)"/>
       <path id="DejaVuSans-64" d="M 2906 2969 
L 2906 4863 
L 3481 4863 
L 3481 0 
L 2906 0 
L 2906 525 
Q 2725 213 2448 61 
Q 2172 -91 1784 -91 
Q 1150 -91 751 415 
Q 353 922 353 1747 
Q 353 2572 751 3078 
Q 1150 3584 1784 3584 
Q 2172 3584 2448 3432 
Q 2725 3281 2906 2969 
z
M 947 1747 
Q 947 1113 1208 752 
Q 1469 391 1925 391 
Q 2381 391 2643 752 
Q 2906 1113 2906 1747 
Q 2906 2381 2643 2742 
Q 2381 3103 1925 3103 
Q 1469 3103 1208 2742 
Q 947 2381 947 1747 
z
" transform="scale(0.015625)"/>
       <path id="DejaVuSans-2d" d="M 313 2009 
L 1997 2009 
L 1997 1497 
L 313 1497 
L 313 2009 
z
" transform="scale(0.015625)"/>
       <path id="DejaVuSans-68" d="M 3513 2113 
L 3513 0 
L 2938 0 
L 2938 2094 
Q 2938 2591 2744 2837 
Q 2550 3084 2163 3084 
Q 1697 3084 1428 2787 
Q 1159 2491 1159 1978 
L 1159 0 
L 581 0 
L 581 4863 
L 1159 4863 
L 1159 2956 
Q 1366 3272 1645 3428 
Q 1925 3584 2291 3584 
Q 2894 3584 3203 3211 
Q 3513 2838 3513 2113 
z
" transform="scale(0.015625)"/>
      </defs>
      <use xlink:href="#DejaVuSans-43"/>
      <use xlink:href="#DejaVuSans-75" x="69.824219"/>
      <use xlink:href="#DejaVuSans-6d" x="133.203125"/>
      <use xlink:href="#DejaVuSans-75" x="230.615234"/>
      <use xlink:href="#DejaVuSans-6c" x="293.994141"/>
      <use xlink:href="#DejaVuSans-61" x="321.777344"/>
      <use xlink:href="#DejaVuSans-74" x="383.056641"/>
      <use xlink:href="#DejaVuSans-69" x="422.265625"/>
      <use xlink:href="#DejaVuSans-76" x="450.048828"/>
      <use xlink:href="#DejaVuSans-65" x="509.228516"/>
      <use xlink:href="#DejaVuSans-20" x="570.751953"/>
      <use xlink:href="#DejaVuSans-6d" x="602.539062"/>
      <use xlink:href="#DejaVuSans-61" x="699.951172"/>
      <use xlink:href="#DejaVuSans-70" x="761.230469"/>
      <use xlink:href="#DejaVuSans-70" x="824.707031"/>
      <use xlink:href="#DejaVuSans-65" x="888.183594"/>
      <use xlink:href="#DejaVuSans-64" x="949.707031"/>
      <use xlink:href="#DejaVuSans-2d" x="1013.183594"/>
      <use xlink:href="#DejaVuSans-72" x="1049.267578"/>
      <use xlink:href="#DejaVuSans-65" x="1088.130859"/>
      <use xlink:href="#DejaVuSans-61" x="1149.654297"/>
      <use xlink:href="#DejaVuSans-64" x="1210.933594"/>
      <use xlink:href="#DejaVuSans-20" x="1274.410156"/>
      <use xlink:href="#DejaVuSans-64" x="1306.197266"/>
      <use xlink:href="#DejaVuSans-65" x="1369.673828"/>
      <use xlink:href="#DejaVuSans-70" x="1431.197266"/>
      <use xlink:href="#DejaVuSans-74" x="1494.673828"/>
      <use xlink:href="#DejaVuSans-68" x="1533.882812"/>
     </g>
    </g>
   </g>
   <g id="line2d_9">
    <path d="M 58.418125 243.440378 
L 67.686575 241.529713 
L 76.955025 239.361799 
L 86.223475 237.587205 
L 95.491925 235.76997 
L 104.760375 233.912305 
L 114.028825 231.938073 
L 123.297275 230.799798 
L 132.565725 229.617995 
L 141.834175 228.266822 
L 151.102625 227.207506 
L 160.371075 226.07052 
L 169.639525 225.44749 
L 178.907975 224.807964 
L 188.176425 224.05599 
L 197.444875 223.214007 
L 206.713325 222.986895 
L 215.981775 222.19098 
L 225.250225 221.579164 
L 234.518675 221.412829 
L 243.787125 221.145512 
L 253.055575 220.904628 
L 262.324025 220.584231 
L 271.592475 220.274309 
L 280.860925 220.157536 
L 290.129375 219.680779 
L 299.397825 219.484781 
L 308.666275 219.785042 
L 317.934725 220.022473 
L 327.203175 220.131887 
L 336.471625 220.240765 
L 345.740075 220.440423 
L 355.008525 220.413413 
L 364.276975 220.30395 
L 373.545425 220.167252 
L 382.813875 219.951346 
L 392.082325 219.912715 
L 401.350775 219.942631 
L 410.619225 219.827203 
L 419.887675 219.791096 
L 429.156125 219.701506 
L 438.424575 219.982518 
L 447.693025 220.182382 
L 456.961475 220.221557 
L 466.229925 220.159227 
L 475.498375 220.053049 
L 484.766825 220.245204 
L 494.035275 220.352774 
L 503.303725 220.3262 
L 512.572175 220.444501 
L 521.840625 220.904161 
L 531.109075 221.223039 
L 540.377525 221.373274 
L 549.645975 221.380871 
L 558.914425 221.540926 
L 568.182875 221.882381 
L 577.451325 222.394728 
L 586.719775 222.825762 
L 595.988225 223.002742 
L 605.256675 222.991197 
L 614.525125 223.006723 
L 623.793575 222.967505 
L 633.062025 222.878965 
L 642.330475 222.986316 
L 651.598925 223.323602 
L 660.867375 223.699493 
L 670.135825 224.112776 
L 679.404275 224.294667 
L 688.672725 224.288923 
L 697.941175 224.45071 
L 707.209625 224.52018 
L 716.478075 224.476614 
L 725.746525 224.35766 
L 735.014975 224.245466 
L 744.283425 224.556926 
L 753.551875 224.57622 
L 762.820325 224.716333 
L 772.088775 225.218777 
L 781.357225 225.567819 
L 790.625675 225.854289 
L 799.894125 226.124882 
L 809.162575 226.385726 
L 818.431025 226.612498 
L 827.699475 226.973552 
L 836.967925 227.561254 
L 846.236375 228.308721 
L 855.504825 229.126333 
L 864.773275 229.901054 
L 874.041725 231.091532 
L 883.310175 232.754318 
L 892.578625 234.770037 
L 901.847075 237.044606 
L 911.115525 239.545498 
L 920.383975 242.135517 
L 929.652425 244.979744 
L 938.920875 248.488816 
L 948.189325 252.968488 
L 957.457775 258.2634 
L 966.726225 264.194213 
L 975.994675 270.799329 
" clip-path="url(#pd14a577d7b)" style="fill: none; stroke: #7cb5ec; stroke-linecap: square"/>
   </g>
   <g id="line2d_10">
    <path d="M 58.418125 172.163296 
L 67.686575 165.37056 
L 76.955025 157.82878 
L 86.223475 151.91916 
L 95.491925 146.048347 
L 104.760375 140.164132 
L 114.028825 133.764627 
L 123.297275 130.066044 
L 132.565725 126.252703 
L 141.834175 121.87401 
L 151.102625 118.495477 
L 160.371075 114.718472 
L 169.639525 112.697239 
L 178.907975 110.67133 
L 188.176425 108.243907 
L 197.444875 105.3303 
L 206.713325 104.511946 
L 215.981775 101.945869 
L 225.250225 99.993536 
L 234.518675 99.501369 
L 243.787125 98.610549 
L 253.055575 97.856516 
L 262.324025 96.793353 
L 271.592475 95.793906 
L 280.860925 95.321679 
L 290.129375 93.737443 
L 299.397825 93.06574 
L 308.666275 94.042895 
L 317.934725 94.860314 
L 327.203175 95.262578 
L 336.471625 95.625208 
L 345.740075 96.274495 
L 355.008525 96.118562 
L 364.276975 95.694242 
L 373.545425 95.180903 
L 382.813875 94.40339 
L 392.082325 94.204199 
L 401.350775 94.326518 
L 410.619225 93.976248 
L 419.887675 93.909528 
L 429.156125 93.730243 
L 438.424575 94.700027 
L 447.693025 95.391623 
L 456.961475 95.551052 
L 466.229925 95.319622 
L 475.498375 94.826892 
L 484.766825 95.438244 
L 494.035275 95.775037 
L 503.303725 95.592723 
L 512.572175 95.943203 
L 521.840625 97.33928 
L 531.109075 98.421886 
L 540.377525 98.976485 
L 549.645975 99.157208 
L 558.914425 99.673633 
L 568.182875 100.785038 
L 577.451325 102.573081 
L 586.719775 104.128566 
L 595.988225 104.937573 
L 605.256675 104.845362 
L 614.525125 104.873535 
L 623.793575 104.699146 
L 633.062025 104.364032 
L 642.330475 104.70037 
L 651.598925 105.719515 
L 660.867375 106.994434 
L 670.135825 108.43193 
L 679.404275 108.971014 
L 688.672725 109.030223 
L 697.941175 109.60243 
L 707.209625 109.775835 
L 716.478075 109.690142 
L 725.746525 109.355262 
L 735.014975 108.992745 
L 744.283425 110.060268 
L 753.551875 110.174027 
L 762.820325 110.563444 
L 772.088775 112.184699 
L 781.357225 113.384279 
L 790.625675 114.388345 
L 799.894125 115.301058 
L 809.162575 116.282818 
L 818.431025 117.061708 
L 827.699475 118.251144 
L 836.967925 120.223543 
L 846.236375 122.664774 
L 855.504825 125.376108 
L 864.773275 128.085242 
L 874.041725 132.084053 
L 883.310175 137.617101 
L 892.578625 144.229723 
L 901.847075 151.768244 
L 911.115525 159.993703 
L 920.383975 168.619678 
L 929.652425 178.121093 
L 938.920875 189.742619 
L 948.189325 204.672935 
L 957.457775 222.102871 
L 966.726225 241.560265 
L 975.994675 263.418013 
" clip-path="url(#pd14a577d7b)" style="fill: none; stroke: #434348; stroke-linecap: square"/>
   </g>
   <g id="line2d_11">
    <path d="M 58.418125 178.124157 
L 67.686575 171.508503 
L 76.955025 164.306657 
L 86.223475 158.664963 
L 95.491925 153.042586 
L 104.760375 147.420473 
L 114.028825 141.287042 
L 123.297275 137.668983 
L 132.565725 133.918661 
L 141.834175 129.742375 
L 151.102625 126.464565 
L 160.371075 122.891209 
L 169.639525 120.985492 
L 178.907975 118.993754 
L 188.176425 116.598793 
L 197.444875 113.95478 
L 206.713325 113.233266 
L 215.981775 110.913826 
L 225.250225 109.066188 
L 234.518675 108.590189 
L 243.787125 107.727454 
L 253.055575 107.083702 
L 262.324025 106.190801 
L 271.592475 105.259715 
L 280.860925 104.835855 
L 290.129375 103.30568 
L 299.397825 102.690922 
L 308.666275 103.559248 
L 317.934725 104.305646 
L 327.203175 104.680565 
L 336.471625 105.015765 
L 345.740075 105.648063 
L 355.008525 105.518127 
L 364.276975 105.24895 
L 373.545425 104.843758 
L 382.813875 104.13602 
L 392.082325 104.080487 
L 401.350775 104.195128 
L 410.619225 103.933488 
L 419.887675 103.864495 
L 429.156125 103.639677 
L 438.424575 104.531858 
L 447.693025 105.163025 
L 456.961475 105.265006 
L 466.229925 105.126265 
L 475.498375 104.695132 
L 484.766825 105.36356 
L 494.035275 105.631549 
L 503.303725 105.59015 
L 512.572175 106.059825 
L 521.840625 107.484 
L 531.109075 108.602268 
L 540.377525 109.077082 
L 549.645975 109.153598 
L 558.914425 109.623605 
L 568.182875 110.673182 
L 577.451325 112.334315 
L 586.719775 113.707945 
L 595.988225 114.362317 
L 605.256675 114.24848 
L 614.525125 114.206687 
L 623.793575 114.08218 
L 633.062025 113.775107 
L 642.330475 114.149899 
L 651.598925 115.145394 
L 660.867375 116.311106 
L 670.135825 117.689119 
L 679.404275 118.291797 
L 688.672725 118.384353 
L 697.941175 118.966504 
L 707.209625 119.181745 
L 716.478075 119.130487 
L 725.746525 118.829393 
L 735.014975 118.543489 
L 744.283425 119.475626 
L 753.551875 119.510306 
L 762.820325 119.840416 
L 772.088775 121.23683 
L 781.357225 122.294162 
L 790.625675 123.241774 
L 799.894125 124.105451 
L 809.162575 125.002207 
L 818.431025 125.767879 
L 827.699475 126.970824 
L 836.967925 128.859554 
L 846.236375 131.180052 
L 855.504825 133.692994 
L 864.773275 136.201268 
L 874.041725 139.960555 
L 883.310175 145.209666 
L 892.578625 151.450656 
L 901.847075 158.55036 
L 911.115525 166.246988 
L 920.383975 174.273915 
L 929.652425 183.175377 
L 938.920875 194.198008 
L 948.189325 208.373369 
L 957.457775 224.914537 
L 966.726225 243.402267 
L 975.994675 264.04309 
" clip-path="url(#pd14a577d7b)" style="fill: none; stroke: #90ed7d; stroke-linecap: square"/>
   </g>
   <g id="line2d_12">
    <path d="M 58.418125 206.946549 
L 67.686575 202.66811 
L 76.955025 197.725036 
L 86.223475 193.766711 
L 95.491925 189.776005 
L 104.760375 185.70906 
L 114.028825 181.28992 
L 123.297275 178.720846 
L 132.565725 176.054566 
L 141.834175 173.020774 
L 151.102625 170.62329 
L 160.371075 167.979794 
L 169.639525 166.566322 
L 178.907975 165.133517 
L 188.176425 163.384245 
L 197.444875 161.372796 
L 206.713325 160.720579 
L 215.981775 158.942053 
L 225.250225 157.602392 
L 234.518675 157.181698 
L 243.787125 156.52557 
L 253.055575 155.99531 
L 262.324025 155.246464 
L 271.592475 154.504576 
L 280.860925 154.19252 
L 290.129375 153.139552 
L 299.397825 152.726375 
L 308.666275 153.374642 
L 317.934725 153.828224 
L 327.203175 153.966565 
L 336.471625 154.212047 
L 345.740075 154.628867 
L 355.008525 154.50317 
L 364.276975 154.250565 
L 373.545425 153.953525 
L 382.813875 153.50012 
L 392.082325 153.367095 
L 401.350775 153.36712 
L 410.619225 153.13765 
L 419.887675 153.124722 
L 429.156125 152.939303 
L 438.424575 153.55196 
L 447.693025 153.992123 
L 456.961475 154.068847 
L 466.229925 153.996087 
L 475.498375 153.742163 
L 484.766825 154.206741 
L 494.035275 154.451061 
L 503.303725 154.415421 
L 512.572175 154.673726 
L 521.840625 155.701859 
L 531.109075 156.429423 
L 540.377525 156.807526 
L 549.645975 156.868946 
L 558.914425 157.261946 
L 568.182875 158.045818 
L 577.451325 159.170615 
L 586.719775 160.077087 
L 595.988225 160.529779 
L 605.256675 160.479183 
L 614.525125 160.48593 
L 623.793575 160.422576 
L 633.062025 160.301953 
L 642.330475 160.603419 
L 651.598925 161.280949 
L 660.867375 162.104623 
L 670.135825 163.103513 
L 679.404275 163.505013 
L 688.672725 163.626769 
L 697.941175 164.026567 
L 707.209625 164.206024 
L 716.478075 164.187342 
L 725.746525 163.991321 
L 735.014975 163.800904 
L 744.283425 164.506722 
L 753.551875 164.574663 
L 762.820325 164.800845 
L 772.088775 165.845735 
L 781.357225 166.598167 
L 790.625675 167.261141 
L 799.894125 167.87275 
L 809.162575 168.443843 
L 818.431025 168.953125 
L 827.699475 169.750633 
L 836.967925 171.054543 
L 846.236375 172.753868 
L 855.504825 174.633087 
L 864.773275 176.440592 
L 874.041725 179.163779 
L 883.310175 182.865115 
L 892.578625 187.294105 
L 901.847075 192.347461 
L 911.115525 197.901806 
L 920.383975 203.653803 
L 929.652425 209.968703 
L 938.920875 217.744965 
L 948.189325 227.66835 
L 957.457775 239.260114 
L 966.726225 252.308392 
L 975.994675 266.928512 
" clip-path="url(#pd14a577d7b)" style="fill: none; stroke: #f7a35c; stroke-linecap: square"/>
   </g>
   <g id="line2d_13">
    <path d="M 58.418125 144.261816 
L 67.686575 135.495575 
L 76.955025 125.821141 
L 86.223475 118.248848 
L 95.491925 110.815722 
L 104.760375 103.275652 
L 114.028825 95.135795 
L 123.297275 90.370179 
L 132.565725 85.491074 
L 141.834175 79.861363 
L 151.102625 75.491666 
L 160.371075 70.529435 
L 169.639525 68.066771 
L 178.907975 65.479963 
L 188.176425 62.323395 
L 197.444875 58.696365 
L 206.713325 57.731036 
L 215.981775 54.434358 
L 225.250225 51.8644 
L 234.518675 51.188076 
L 243.787125 50.022459 
L 253.055575 49.056417 
L 262.324025 47.687546 
L 271.592475 46.381864 
L 280.860925 45.818702 
L 290.129375 43.740997 
L 299.397825 42.878882 
L 308.666275 44.148671 
L 317.934725 45.155503 
L 327.203175 45.592191 
L 336.471625 46.076976 
L 345.740075 46.956309 
L 355.008525 46.769759 
L 364.276975 46.232174 
L 373.545425 45.599473 
L 382.813875 44.623061 
L 392.082325 44.325937 
L 401.350775 44.403157 
L 410.619225 43.91434 
L 419.887675 43.86872 
L 429.156125 43.540653 
L 438.424575 44.794928 
L 447.693025 45.58614 
L 456.961475 45.666272 
L 466.229925 45.418713 
L 475.498375 44.914261 
L 484.766825 45.707935 
L 494.035275 46.046087 
L 503.303725 45.88815 
L 512.572175 46.451196 
L 521.840625 48.359151 
L 531.109075 49.742069 
L 540.377525 50.422598 
L 549.645975 50.531766 
L 558.914425 51.141712 
L 568.182875 52.630257 
L 577.451325 54.870161 
L 586.719775 56.753212 
L 595.988225 57.689477 
L 605.256675 57.536842 
L 614.525125 57.479106 
L 623.793575 57.280241 
L 633.062025 56.911203 
L 642.330475 57.392176 
L 651.598925 58.620053 
L 660.867375 60.223366 
L 670.135825 62.033234 
L 679.404275 62.690182 
L 688.672725 62.741422 
L 697.941175 63.495546 
L 707.209625 63.756221 
L 716.478075 63.682926 
L 725.746525 63.267245 
L 735.014975 62.764993 
L 744.283425 64.09872 
L 753.551875 64.238674 
L 762.820325 64.707415 
L 772.088775 66.773911 
L 781.357225 68.289601 
L 790.625675 69.568789 
L 799.894125 70.750062 
L 809.162575 71.986531 
L 818.431025 72.997417 
L 827.699475 74.487844 
L 836.967925 76.995775 
L 846.236375 80.180015 
L 855.504825 83.714197 
L 864.773275 87.149681 
L 874.041725 92.248649 
L 883.310175 99.327561 
L 892.578625 107.816511 
L 901.847075 117.389853 
L 911.115525 127.863863 
L 920.383975 138.798487 
L 929.652425 150.884071 
L 938.920875 165.809357 
L 948.189325 185.049342 
L 957.457775 207.469426 
L 966.726225 232.514763 
L 975.994675 260.486045 
" clip-path="url(#pd14a577d7b)" style="fill: none; stroke: #8085e9; stroke-linecap: square"/>
   </g>
   <g id="line2d_14">
    <path d="M 58.418125 177.974493 
L 67.686575 171.717776 
L 76.955025 164.60598 
L 86.223475 159.009451 
L 95.491925 153.360988 
L 104.760375 147.655605 
L 114.028825 141.472538 
L 123.297275 137.813054 
L 132.565725 134.050193 
L 141.834175 129.714669 
L 151.102625 126.439298 
L 160.371075 122.773283 
L 169.639525 120.952517 
L 178.907975 118.927561 
L 188.176425 116.441031 
L 197.444875 113.677709 
L 206.713325 112.904473 
L 215.981775 110.381914 
L 225.250225 108.448268 
L 234.518675 107.964882 
L 243.787125 107.121394 
L 253.055575 106.364538 
L 262.324025 105.260682 
L 271.592475 104.235699 
L 280.860925 103.752833 
L 290.129375 102.236277 
L 299.397825 101.673252 
L 308.666275 102.564028 
L 317.934725 103.302238 
L 327.203175 103.652062 
L 336.471625 103.975242 
L 345.740075 104.546313 
L 355.008525 104.376305 
L 364.276975 104.046813 
L 373.545425 103.618431 
L 382.813875 102.919834 
L 392.082325 102.800953 
L 401.350775 102.864 
L 410.619225 102.450797 
L 419.887675 102.386364 
L 429.156125 102.128687 
L 438.424575 103.075611 
L 447.693025 103.756674 
L 456.961475 103.8922 
L 466.229925 103.73287 
L 475.498375 103.368963 
L 484.766825 104.023992 
L 494.035275 104.325117 
L 503.303725 104.307686 
L 512.572175 104.741969 
L 521.840625 106.199877 
L 531.109075 107.247751 
L 540.377525 107.788349 
L 549.645975 107.926585 
L 558.914425 108.462502 
L 568.182875 109.603471 
L 577.451325 111.280929 
L 586.719775 112.72545 
L 595.988225 113.392996 
L 605.256675 113.249227 
L 614.525125 113.183292 
L 623.793575 113.117764 
L 633.062025 112.812343 
L 642.330475 113.184295 
L 651.598925 114.193443 
L 660.867375 115.433686 
L 670.135825 116.793946 
L 679.404275 117.359024 
L 688.672725 117.445781 
L 697.941175 118.031556 
L 707.209625 118.258217 
L 716.478075 118.246955 
L 725.746525 117.915627 
L 735.014975 117.515593 
L 744.283425 118.575316 
L 753.551875 118.62477 
L 762.820325 118.96122 
L 772.088775 120.46217 
L 781.357225 121.572013 
L 790.625675 122.553058 
L 799.894125 123.434452 
L 809.162575 124.280258 
L 818.431025 125.006738 
L 827.699475 126.221846 
L 836.967925 128.139605 
L 846.236375 130.479746 
L 855.504825 133.132249 
L 864.773275 135.692412 
L 874.041725 139.528682 
L 883.310175 144.816459 
L 892.578625 151.06167 
L 901.847075 158.131122 
L 911.115525 165.815468 
L 920.383975 173.922553 
L 929.652425 182.885393 
L 938.920875 193.919195 
L 948.189325 208.146407 
L 957.457775 224.717888 
L 966.726225 243.23395 
L 975.994675 263.978891 
" clip-path="url(#pd14a577d7b)" style="fill: none; stroke: #f15c80; stroke-linecap: square"/>
   </g>
   <g id="line2d_15">
    <path d="M 58.418125 225.068753 
L 67.686575 221.850154 
L 76.955025 218.19476 
L 86.223475 215.233437 
L 95.491925 212.307356 
L 104.760375 209.351243 
L 114.028825 206.211529 
L 123.297275 204.311789 
L 132.565725 202.380159 
L 141.834175 200.247409 
L 151.102625 198.57979 
L 160.371075 196.701432 
L 169.639525 195.700563 
L 178.907975 194.669783 
L 188.176425 193.438457 
L 197.444875 192.011665 
L 206.713325 191.605336 
L 215.981775 190.329933 
L 225.250225 189.342965 
L 234.518675 189.068613 
L 243.787125 188.612042 
L 253.055575 188.214462 
L 262.324025 187.674682 
L 271.592475 187.138634 
L 280.860925 186.944256 
L 290.129375 186.143053 
L 299.397825 185.878018 
L 308.666275 186.351641 
L 317.934725 186.723167 
L 327.203175 186.889379 
L 336.471625 187.048248 
L 345.740075 187.36587 
L 355.008525 187.274687 
L 364.276975 187.114273 
L 373.545425 186.937115 
L 382.813875 186.642842 
L 392.082325 186.641799 
L 401.350775 186.653503 
L 410.619225 186.441846 
L 419.887675 186.399062 
L 429.156125 186.264479 
L 438.424575 186.68733 
L 447.693025 187.017907 
L 456.961475 187.141226 
L 466.229925 187.047879 
L 475.498375 186.883644 
L 484.766825 187.221962 
L 494.035275 187.406107 
L 503.303725 187.389042 
L 512.572175 187.599001 
L 521.840625 188.327237 
L 531.109075 188.838411 
L 540.377525 189.059381 
L 549.645975 189.094302 
L 558.914425 189.380579 
L 568.182875 189.941074 
L 577.451325 190.757722 
L 586.719775 191.441064 
L 595.988225 191.768123 
L 605.256675 191.715001 
L 614.525125 191.750127 
L 623.793575 191.678313 
L 633.062025 191.58533 
L 642.330475 191.737338 
L 651.598925 192.26404 
L 660.867375 192.845768 
L 670.135825 193.488926 
L 679.404275 193.734942 
L 688.672725 193.792258 
L 697.941175 194.079431 
L 707.209625 194.208124 
L 716.478075 194.240673 
L 725.746525 194.128503 
L 735.014975 193.978056 
L 744.283425 194.434641 
L 753.551875 194.475557 
L 762.820325 194.642182 
L 772.088775 195.364664 
L 781.357225 195.905321 
L 790.625675 196.298799 
L 799.894125 196.691395 
L 809.162575 197.177402 
L 818.431025 197.59459 
L 827.699475 198.191765 
L 836.967925 199.176539 
L 846.236375 200.463457 
L 855.504825 201.812981 
L 864.773275 203.135718 
L 874.041725 205.090906 
L 883.310175 207.796469 
L 892.578625 211.057136 
L 901.847075 214.802169 
L 911.115525 218.806787 
L 920.383975 222.982923 
L 929.652425 227.586075 
L 938.920875 233.223526 
L 948.189325 240.455481 
L 957.457775 248.880173 
L 966.726225 258.306517 
L 975.994675 268.894838 
" clip-path="url(#pd14a577d7b)" style="fill: none; stroke: #e4d354; stroke-linecap: square"/>
   </g>
   <g id="line2d_16">
    <path d="M 58.418125 150.878895 
L 67.686575 142.744333 
L 76.955025 133.674151 
L 86.223475 126.513447 
L 95.491925 119.333314 
L 104.760375 112.154635 
L 114.028825 104.417749 
L 123.297275 99.77872 
L 132.565725 95.094918 
L 141.834175 89.71714 
L 151.102625 85.477426 
L 160.371075 80.765839 
L 169.639525 78.349714 
L 178.907975 75.827107 
L 188.176425 72.877447 
L 197.444875 69.438536 
L 206.713325 68.474752 
L 215.981775 65.332902 
L 225.250225 62.838615 
L 234.518675 62.228674 
L 243.787125 61.15972 
L 253.055575 60.155148 
L 262.324025 58.858773 
L 271.592475 57.671765 
L 280.860925 57.097484 
L 290.129375 55.152916 
L 299.397825 54.507205 
L 308.666275 55.730868 
L 317.934725 56.652055 
L 327.203175 57.026292 
L 336.471625 57.39884 
L 345.740075 58.13653 
L 355.008525 57.956985 
L 364.276975 57.403388 
L 373.545425 56.846399 
L 382.813875 56.050702 
L 392.082325 55.914213 
L 401.350775 55.918094 
L 410.619225 55.445595 
L 419.887675 55.415139 
L 429.156125 55.12359 
L 438.424575 56.32509 
L 447.693025 57.109724 
L 456.961475 57.224852 
L 466.229925 56.99101 
L 475.498375 56.533844 
L 484.766825 57.357824 
L 494.035275 57.731939 
L 503.303725 57.735438 
L 512.572175 58.397068 
L 521.840625 60.249367 
L 531.109075 61.583372 
L 540.377525 62.108214 
L 549.645975 62.204112 
L 558.914425 62.840753 
L 568.182875 64.1712 
L 577.451325 66.226263 
L 586.719775 67.986939 
L 595.988225 68.854039 
L 605.256675 68.748804 
L 614.525125 68.758872 
L 623.793575 68.599713 
L 633.062025 68.302757 
L 642.330475 68.75532 
L 651.598925 69.853046 
L 660.867375 71.328906 
L 670.135825 73.042221 
L 679.404275 73.74457 
L 688.672725 73.877872 
L 697.941175 74.628118 
L 707.209625 75.008428 
L 716.478075 75.065308 
L 725.746525 74.834582 
L 735.014975 74.499686 
L 744.283425 75.663561 
L 753.551875 75.732275 
L 762.820325 76.19278 
L 772.088775 77.985232 
L 781.357225 79.375902 
L 790.625675 80.516268 
L 799.894125 81.585732 
L 809.162575 82.757641 
L 818.431025 83.741465 
L 827.699475 85.244809 
L 836.967925 87.60698 
L 846.236375 90.719232 
L 855.504825 94.11853 
L 864.773275 97.460593 
L 874.041725 102.336192 
L 883.310175 108.894803 
L 892.578625 116.842731 
L 901.847075 126.011454 
L 911.115525 136.001814 
L 920.383975 146.471092 
L 929.652425 157.981929 
L 938.920875 172.056861 
L 948.189325 190.116334 
L 957.457775 211.20553 
L 966.726225 234.760752 
L 975.994675 261.208784 
" clip-path="url(#pd14a577d7b)" style="fill: none; stroke: #2b908f; stroke-linecap: square"/>
   </g>
   <g id="line2d_17">
    <path d="M 58.418125 202.006914 
L 67.686575 197.188377 
L 76.955025 191.845799 
L 86.223475 187.67363 
L 95.491925 183.481829 
L 104.760375 179.2889 
L 114.028825 174.695424 
L 123.297275 171.942569 
L 132.565725 169.102902 
L 141.834175 165.851864 
L 151.102625 163.362583 
L 160.371075 160.611963 
L 169.639525 159.140202 
L 178.907975 157.568866 
L 188.176425 155.763663 
L 197.444875 153.707651 
L 206.713325 153.101001 
L 215.981775 151.245565 
L 225.250225 149.772734 
L 234.518675 149.275523 
L 243.787125 148.622755 
L 253.055575 148.06521 
L 262.324025 147.287835 
L 271.592475 146.457142 
L 280.860925 146.080163 
L 290.129375 144.940596 
L 299.397825 144.443222 
L 308.666275 145.116831 
L 317.934725 145.60187 
L 327.203175 145.847083 
L 336.471625 146.075811 
L 345.740075 146.463573 
L 355.008525 146.365875 
L 364.276975 146.122216 
L 373.545425 145.786073 
L 382.813875 145.247533 
L 392.082325 145.108546 
L 401.350775 145.107879 
L 410.619225 144.784354 
L 419.887675 144.705254 
L 429.156125 144.489741 
L 438.424575 145.184818 
L 447.693025 145.686746 
L 456.961475 145.803335 
L 466.229925 145.675704 
L 475.498375 145.424635 
L 484.766825 145.915978 
L 494.035275 146.097036 
L 503.303725 145.975536 
L 512.572175 146.253905 
L 521.840625 147.353974 
L 531.109075 148.109506 
L 540.377525 148.502461 
L 549.645975 148.600727 
L 558.914425 148.910746 
L 568.182875 149.655895 
L 577.451325 150.886162 
L 586.719775 151.903094 
L 595.988225 152.366499 
L 605.256675 152.283692 
L 614.525125 152.264283 
L 623.793575 152.185157 
L 633.062025 151.923974 
L 642.330475 152.113092 
L 651.598925 152.738688 
L 660.867375 153.561515 
L 670.135825 154.529494 
L 679.404275 154.917753 
L 688.672725 154.958982 
L 697.941175 155.389288 
L 707.209625 155.53742 
L 716.478075 155.493991 
L 725.746525 155.3027 
L 735.014975 155.046658 
L 744.283425 155.76807 
L 753.551875 155.81379 
L 762.820325 156.071589 
L 772.088775 157.200954 
L 781.357225 158.00468 
L 790.625675 158.724661 
L 799.894125 159.413979 
L 809.162575 160.127137 
L 818.431025 160.694555 
L 827.699475 161.53285 
L 836.967925 162.957511 
L 846.236375 164.773027 
L 855.504825 166.778353 
L 864.773275 168.749661 
L 874.041725 171.638447 
L 883.310175 175.655673 
L 892.578625 180.434831 
L 901.847075 185.840529 
L 911.115525 191.666451 
L 920.383975 197.81477 
L 929.652425 204.647374 
L 938.920875 213.093826 
L 948.189325 223.956351 
L 957.457775 236.581275 
L 966.726225 250.667963 
L 975.994675 266.413554 
" clip-path="url(#pd14a577d7b)" style="fill: none; stroke: #f45b5b; stroke-linecap: square"/>
   </g>
   <g id="line2d_18">
    <path d="M 58.418125 204.515402 
L 67.686575 200.044889 
L 76.955025 194.979906 
L 86.223475 190.808945 
L 95.491925 186.701346 
L 104.760375 182.589499 
L 114.028825 178.205501 
L 123.297275 175.569888 
L 132.565725 172.878606 
L 141.834175 169.839557 
L 151.102625 167.473117 
L 160.371075 164.9036 
L 169.639525 163.488102 
L 178.907975 161.979894 
L 188.176425 160.25676 
L 197.444875 158.338863 
L 206.713325 157.762659 
L 215.981775 155.949235 
L 225.250225 154.545846 
L 234.518675 154.096393 
L 243.787125 153.431384 
L 253.055575 152.9031 
L 262.324025 152.16624 
L 271.592475 151.346041 
L 280.860925 151.068101 
L 290.129375 150.008596 
L 299.397825 149.611922 
L 308.666275 150.265802 
L 317.934725 150.768919 
L 327.203175 150.959813 
L 336.471625 151.189737 
L 345.740075 151.666631 
L 355.008525 151.520362 
L 364.276975 151.237398 
L 373.545425 150.895075 
L 382.813875 150.454736 
L 392.082325 150.405181 
L 401.350775 150.431312 
L 410.619225 150.116029 
L 419.887675 150.017076 
L 429.156125 149.774196 
L 438.424575 150.481731 
L 447.693025 150.953156 
L 456.961475 151.068302 
L 466.229925 150.976768 
L 475.498375 150.772769 
L 484.766825 151.273834 
L 494.035275 151.483989 
L 503.303725 151.422044 
L 512.572175 151.705113 
L 521.840625 152.738518 
L 531.109075 153.523872 
L 540.377525 153.936251 
L 549.645975 154.077717 
L 558.914425 154.428701 
L 568.182875 155.250346 
L 577.451325 156.433321 
L 586.719775 157.417086 
L 595.988225 157.928984 
L 605.256675 157.922474 
L 614.525125 157.959675 
L 623.793575 157.866175 
L 633.062025 157.78744 
L 642.330475 158.02701 
L 651.598925 158.69246 
L 660.867375 159.526424 
L 670.135825 160.50311 
L 679.404275 160.903569 
L 688.672725 160.972039 
L 697.941175 161.342031 
L 707.209625 161.47621 
L 716.478075 161.460396 
L 725.746525 161.271911 
L 735.014975 161.008328 
L 744.283425 161.706871 
L 753.551875 161.75536 
L 762.820325 162.000366 
L 772.088775 163.073547 
L 781.357225 163.854759 
L 790.625675 164.514042 
L 799.894125 165.129694 
L 809.162575 165.807739 
L 818.431025 166.289591 
L 827.699475 167.067036 
L 836.967925 168.459911 
L 846.236375 170.317255 
L 855.504825 172.195261 
L 864.773275 174.024347 
L 874.041725 176.789371 
L 883.310175 180.566935 
L 892.578625 185.14502 
L 901.847075 190.369958 
L 911.115525 196.057802 
L 920.383975 202.01255 
L 929.652425 208.52681 
L 938.920875 216.428688 
L 948.189325 226.556577 
L 957.457775 238.481668 
L 966.726225 251.855494 
L 975.994675 266.813493 
" clip-path="url(#pd14a577d7b)" style="fill: none; stroke: #91e8e1; stroke-linecap: square"/>
   </g>
   <g id="line2d_19">
    <path d="M 58.418125 173.844529 
L 67.686575 167.128575 
L 76.955025 159.610399 
L 86.223475 153.672618 
L 95.491925 147.810675 
L 104.760375 142.007074 
L 114.028825 135.701739 
L 123.297275 131.892369 
L 132.565725 128.055495 
L 141.834175 123.698734 
L 151.102625 120.302045 
L 160.371075 116.705853 
L 169.639525 114.83651 
L 178.907975 112.792712 
L 188.176425 110.41849 
L 197.444875 107.669389 
L 206.713325 106.846073 
L 215.981775 104.283325 
L 225.250225 102.305025 
L 234.518675 101.807109 
L 243.787125 100.947502 
L 253.055575 100.160313 
L 262.324025 99.16504 
L 271.592475 98.159463 
L 280.860925 97.753075 
L 290.129375 96.211389 
L 299.397825 95.737174 
L 308.666275 96.75974 
L 317.934725 97.493613 
L 327.203175 97.820316 
L 336.471625 98.197423 
L 345.740075 98.865707 
L 355.008525 98.748206 
L 364.276975 98.390268 
L 373.545425 97.986897 
L 382.813875 97.356628 
L 392.082325 97.289655 
L 401.350775 97.307251 
L 410.619225 96.913474 
L 419.887675 96.779714 
L 429.156125 96.503814 
L 438.424575 97.425655 
L 447.693025 98.042027 
L 456.961475 98.252522 
L 466.229925 98.118982 
L 475.498375 97.7126 
L 484.766825 98.397687 
L 494.035275 98.68803 
L 503.303725 98.683508 
L 512.572175 99.138611 
L 521.840625 100.676063 
L 531.109075 101.801351 
L 540.377525 102.266107 
L 549.645975 102.350519 
L 558.914425 102.851553 
L 568.182875 103.954511 
L 577.451325 105.638807 
L 586.719775 107.115641 
L 595.988225 107.823948 
L 605.256675 107.739274 
L 614.525125 107.762092 
L 623.793575 107.643297 
L 633.062025 107.460945 
L 642.330475 107.794232 
L 651.598925 108.719276 
L 660.867375 109.876128 
L 670.135825 111.17742 
L 679.404275 111.688513 
L 688.672725 111.75986 
L 697.941175 112.28892 
L 707.209625 112.499309 
L 716.478075 112.532784 
L 725.746525 112.295956 
L 735.014975 112.003172 
L 744.283425 112.951603 
L 753.551875 113.015293 
L 762.820325 113.420497 
L 772.088775 114.909754 
L 781.357225 116.023276 
L 790.625675 116.848031 
L 799.894125 117.601385 
L 809.162575 118.588261 
L 818.431025 119.359022 
L 827.699475 120.489483 
L 836.967925 122.384842 
L 846.236375 124.951569 
L 855.504825 127.623949 
L 864.773275 130.277577 
L 874.041725 134.270592 
L 883.310175 139.684733 
L 892.578625 146.244018 
L 901.847075 153.671426 
L 911.115525 161.746338 
L 920.383975 170.202522 
L 929.652425 179.642168 
L 938.920875 191.052145 
L 948.189325 205.703879 
L 957.457775 222.888667 
L 966.726225 242.105779 
L 975.994675 263.659234 
" clip-path="url(#pd14a577d7b)" style="fill: none; stroke: #7cb5ec; stroke-linecap: square"/>
   </g>
   <g id="line2d_20">
    <path d="M 58.418125 188.551653 
L 67.686575 182.758744 
L 76.955025 176.381392 
L 86.223475 171.349562 
L 95.491925 166.341036 
L 104.760375 161.230394 
L 114.028825 155.652641 
L 123.297275 152.369921 
L 132.565725 148.996136 
L 141.834175 145.169639 
L 151.102625 142.149516 
L 160.371075 138.855956 
L 169.639525 137.037079 
L 178.907975 135.133168 
L 188.176425 132.95912 
L 197.444875 130.44377 
L 206.713325 129.65342 
L 215.981775 127.449563 
L 225.250225 125.687398 
L 234.518675 125.149054 
L 243.787125 124.34687 
L 253.055575 123.707563 
L 262.324025 122.76542 
L 271.592475 121.763096 
L 280.860925 121.363817 
L 290.129375 119.960948 
L 299.397825 119.392046 
L 308.666275 120.142346 
L 317.934725 120.782305 
L 327.203175 121.02618 
L 336.471625 121.304038 
L 345.740075 121.791466 
L 355.008525 121.618375 
L 364.276975 121.252594 
L 373.545425 120.784664 
L 382.813875 120.161914 
L 392.082325 120.119246 
L 401.350775 120.155301 
L 410.619225 119.770716 
L 419.887675 119.624133 
L 429.156125 119.302699 
L 438.424575 120.148132 
L 447.693025 120.701196 
L 456.961475 120.80066 
L 466.229925 120.622773 
L 475.498375 120.298224 
L 484.766825 120.958383 
L 494.035275 121.309549 
L 503.303725 121.184103 
L 512.572175 121.500992 
L 521.840625 122.780001 
L 531.109075 123.67523 
L 540.377525 124.086571 
L 549.645975 124.199114 
L 558.914425 124.584888 
L 568.182875 125.582418 
L 577.451325 127.025319 
L 586.719775 128.258119 
L 595.988225 128.879535 
L 605.256675 128.808147 
L 614.525125 128.832668 
L 623.793575 128.668742 
L 633.062025 128.499122 
L 642.330475 128.739817 
L 651.598925 129.529015 
L 660.867375 130.560189 
L 670.135825 131.752761 
L 679.404275 132.205746 
L 688.672725 132.288021 
L 697.941175 132.819382 
L 707.209625 133.076554 
L 716.478075 133.049137 
L 725.746525 132.820527 
L 735.014975 132.444745 
L 744.283425 133.253279 
L 753.551875 133.253274 
L 762.820325 133.524974 
L 772.088775 134.887358 
L 781.357225 135.853884 
L 790.625675 136.647432 
L 799.894125 137.426379 
L 809.162575 138.328012 
L 818.431025 138.98357 
L 827.699475 139.98951 
L 836.967925 141.705923 
L 846.236375 143.948367 
L 855.504825 146.335249 
L 864.773275 148.712453 
L 874.041725 152.157615 
L 883.310175 156.936826 
L 892.578625 162.660462 
L 901.847075 169.166593 
L 911.115525 176.148774 
L 920.383975 183.437015 
L 929.652425 191.580703 
L 938.920875 201.493111 
L 948.189325 214.244229 
L 957.457775 229.262451 
L 966.726225 246.020102 
L 975.994675 264.919263 
" clip-path="url(#pd14a577d7b)" style="fill: none; stroke: #434348; stroke-linecap: square"/>
   </g>
   <g id="line2d_21">
    <path d="M 58.418125 273.99006 
L 985.263125 273.99006 
" clip-path="url(#pd14a577d7b)" style="fill: none; stroke: #dedede; stroke-width: 2; stroke-linecap: square"/>
   </g>
   <g id="text_17">
    <!-- Qualimap RNAseq: Coverage Profile Along Genes (total) -->
    <g transform="translate(298.459375 19.3575)scale(0.16 -0.16)">
     <defs>
      <path id="DejaVuSans-51" d="M 2522 4238 
Q 1834 4238 1429 3725 
Q 1025 3213 1025 2328 
Q 1025 1447 1429 934 
Q 1834 422 2522 422 
Q 3209 422 3611 934 
Q 4013 1447 4013 2328 
Q 4013 3213 3611 3725 
Q 3209 4238 2522 4238 
z
M 3406 84 
L 4238 -825 
L 3475 -825 
L 2784 -78 
Q 2681 -84 2626 -87 
Q 2572 -91 2522 -91 
Q 1538 -91 948 567 
Q 359 1225 359 2328 
Q 359 3434 948 4092 
Q 1538 4750 2522 4750 
Q 3503 4750 4090 4092 
Q 4678 3434 4678 2328 
Q 4678 1516 4351 937 
Q 4025 359 3406 84 
z
" transform="scale(0.015625)"/>
      <path id="DejaVuSans-52" d="M 2841 2188 
Q 3044 2119 3236 1894 
Q 3428 1669 3622 1275 
L 4263 0 
L 3584 0 
L 2988 1197 
Q 2756 1666 2539 1819 
Q 2322 1972 1947 1972 
L 1259 1972 
L 1259 0 
L 628 0 
L 628 4666 
L 2053 4666 
Q 2853 4666 3247 4331 
Q 3641 3997 3641 3322 
Q 3641 2881 3436 2590 
Q 3231 2300 2841 2188 
z
M 1259 4147 
L 1259 2491 
L 2053 2491 
Q 2509 2491 2742 2702 
Q 2975 2913 2975 3322 
Q 2975 3731 2742 3939 
Q 2509 4147 2053 4147 
L 1259 4147 
z
" transform="scale(0.015625)"/>
      <path id="DejaVuSans-4e" d="M 628 4666 
L 1478 4666 
L 3547 763 
L 3547 4666 
L 4159 4666 
L 4159 0 
L 3309 0 
L 1241 3903 
L 1241 0 
L 628 0 
L 628 4666 
z
" transform="scale(0.015625)"/>
      <path id="DejaVuSans-41" d="M 2188 4044 
L 1331 1722 
L 3047 1722 
L 2188 4044 
z
M 1831 4666 
L 2547 4666 
L 4325 0 
L 3669 0 
L 3244 1197 
L 1141 1197 
L 716 0 
L 50 0 
L 1831 4666 
z
" transform="scale(0.015625)"/>
      <path id="DejaVuSans-71" d="M 947 1747 
Q 947 1113 1208 752 
Q 1469 391 1925 391 
Q 2381 391 2643 752 
Q 2906 1113 2906 1747 
Q 2906 2381 2643 2742 
Q 2381 3103 1925 3103 
Q 1469 3103 1208 2742 
Q 947 2381 947 1747 
z
M 2906 525 
Q 2725 213 2448 61 
Q 2172 -91 1784 -91 
Q 1150 -91 751 415 
Q 353 922 353 1747 
Q 353 2572 751 3078 
Q 1150 3584 1784 3584 
Q 2172 3584 2448 3432 
Q 2725 3281 2906 2969 
L 2906 3500 
L 3481 3500 
L 3481 -1331 
L 2906 -1331 
L 2906 525 
z
" transform="scale(0.015625)"/>
      <path id="DejaVuSans-3a" d="M 750 794 
L 1409 794 
L 1409 0 
L 750 0 
L 750 794 
z
M 750 3309 
L 1409 3309 
L 1409 2516 
L 750 2516 
L 750 3309 
z
" transform="scale(0.015625)"/>
      <path id="DejaVuSans-67" d="M 2906 1791 
Q 2906 2416 2648 2759 
Q 2391 3103 1925 3103 
Q 1463 3103 1205 2759 
Q 947 2416 947 1791 
Q 947 1169 1205 825 
Q 1463 481 1925 481 
Q 2391 481 2648 825 
Q 2906 1169 2906 1791 
z
M 3481 434 
Q 3481 -459 3084 -895 
Q 2688 -1331 1869 -1331 
Q 1566 -1331 1297 -1286 
Q 1028 -1241 775 -1147 
L 775 -588 
Q 1028 -725 1275 -790 
Q 1522 -856 1778 -856 
Q 2344 -856 2625 -561 
Q 2906 -266 2906 331 
L 2906 616 
Q 2728 306 2450 153 
Q 2172 0 1784 0 
Q 1141 0 747 490 
Q 353 981 353 1791 
Q 353 2603 747 3093 
Q 1141 3584 1784 3584 
Q 2172 3584 2450 3431 
Q 2728 3278 2906 2969 
L 2906 3500 
L 3481 3500 
L 3481 434 
z
" transform="scale(0.015625)"/>
      <path id="DejaVuSans-66" d="M 2375 4863 
L 2375 4384 
L 1825 4384 
Q 1516 4384 1395 4259 
Q 1275 4134 1275 3809 
L 1275 3500 
L 2222 3500 
L 2222 3053 
L 1275 3053 
L 1275 0 
L 697 0 
L 697 3053 
L 147 3053 
L 147 3500 
L 697 3500 
L 697 3744 
Q 697 4328 969 4595 
Q 1241 4863 1831 4863 
L 2375 4863 
z
" transform="scale(0.015625)"/>
      <path id="DejaVuSans-47" d="M 3809 666 
L 3809 1919 
L 2778 1919 
L 2778 2438 
L 4434 2438 
L 4434 434 
Q 4069 175 3628 42 
Q 3188 -91 2688 -91 
Q 1594 -91 976 548 
Q 359 1188 359 2328 
Q 359 3472 976 4111 
Q 1594 4750 2688 4750 
Q 3144 4750 3555 4637 
Q 3966 4525 4313 4306 
L 4313 3634 
Q 3963 3931 3569 4081 
Q 3175 4231 2741 4231 
Q 1884 4231 1454 3753 
Q 1025 3275 1025 2328 
Q 1025 1384 1454 906 
Q 1884 428 2741 428 
Q 3075 428 3337 486 
Q 3600 544 3809 666 
z
" transform="scale(0.015625)"/>
     </defs>
     <use xlink:href="#DejaVuSans-51"/>
     <use xlink:href="#DejaVuSans-75" x="78.710938"/>
     <use xlink:href="#DejaVuSans-61" x="142.089844"/>
     <use xlink:href="#DejaVuSans-6c" x="203.369141"/>
     <use xlink:href="#DejaVuSans-69" x="231.152344"/>
     <use xlink:href="#DejaVuSans-6d" x="258.935547"/>
     <use xlink:href="#DejaVuSans-61" x="356.347656"/>
     <use xlink:href="#DejaVuSans-70" x="417.626953"/>
     <use xlink:href="#DejaVuSans-20" x="481.103516"/>
     <use xlink:href="#DejaVuSans-52" x="512.890625"/>
     <use xlink:href="#DejaVuSans-4e" x="582.373047"/>
     <use xlink:href="#DejaVuSans-41" x="657.177734"/>
     <use xlink:href="#DejaVuSans-73" x="725.585938"/>
     <use xlink:href="#DejaVuSans-65" x="777.685547"/>
     <use xlink:href="#DejaVuSans-71" x="839.208984"/>
     <use xlink:href="#DejaVuSans-3a" x="902.685547"/>
     <use xlink:href="#DejaVuSans-20" x="936.376953"/>
     <use xlink:href="#DejaVuSans-43" x="968.164062"/>
     <use xlink:href="#DejaVuSans-6f" x="1037.988281"/>
     <use xlink:href="#DejaVuSans-76" x="1099.169922"/>
     <use xlink:href="#DejaVuSans-65" x="1158.349609"/>
     <use xlink:href="#DejaVuSans-72" x="1219.873047"/>
     <use xlink:href="#DejaVuSans-61" x="1260.986328"/>
     <use xlink:href="#DejaVuSans-67" x="1322.265625"/>
     <use xlink:href="#DejaVuSans-65" x="1385.742188"/>
     <use xlink:href="#DejaVuSans-20" x="1447.265625"/>
     <use xlink:href="#DejaVuSans-50" x="1479.052734"/>
     <use xlink:href="#DejaVuSans-72" x="1537.605469"/>
     <use xlink:href="#DejaVuSans-6f" x="1576.46875"/>
     <use xlink:href="#DejaVuSans-66" x="1637.650391"/>
     <use xlink:href="#DejaVuSans-69" x="1672.855469"/>
     <use xlink:href="#DejaVuSans-6c" x="1700.638672"/>
     <use xlink:href="#DejaVuSans-65" x="1728.421875"/>
     <use xlink:href="#DejaVuSans-20" x="1789.945312"/>
     <use xlink:href="#DejaVuSans-41" x="1821.732422"/>
     <use xlink:href="#DejaVuSans-6c" x="1890.140625"/>
     <use xlink:href="#DejaVuSans-6f" x="1917.923828"/>
     <use xlink:href="#DejaVuSans-6e" x="1979.105469"/>
     <use xlink:href="#DejaVuSans-67" x="2042.484375"/>
     <use xlink:href="#DejaVuSans-20" x="2105.960938"/>
     <use xlink:href="#DejaVuSans-47" x="2137.748047"/>
     <use xlink:href="#DejaVuSans-65" x="2215.238281"/>
     <use xlink:href="#DejaVuSans-6e" x="2276.761719"/>
     <use xlink:href="#DejaVuSans-65" x="2340.140625"/>
     <use xlink:href="#DejaVuSans-73" x="2401.664062"/>
     <use xlink:href="#DejaVuSans-20" x="2453.763672"/>
     <use xlink:href="#DejaVuSans-28" x="2485.550781"/>
     <use xlink:href="#DejaVuSans-74" x="2524.564453"/>
     <use xlink:href="#DejaVuSans-6f" x="2563.773438"/>
     <use xlink:href="#DejaVuSans-74" x="2624.955078"/>
     <use xlink:href="#DejaVuSans-61" x="2664.164062"/>
     <use xlink:href="#DejaVuSans-6c" x="2725.443359"/>
     <use xlink:href="#DejaVuSans-29" x="2753.226562"/>
    </g>
   </g>
   <g id="legend_1">
    <g id="line2d_22">
     <path d="M 65.618125 292.192894 
L 73.618125 292.192894 
L 81.618125 292.192894 
" style="fill: none; stroke: #7cb5ec; stroke-linecap: square"/>
    </g>
    <g id="text_18">
     <!-- SRR2155413 -->
     <g transform="translate(88.018125 294.992894)scale(0.08 -0.08)">
      <defs>
       <path id="DejaVuSans-53" d="M 3425 4513 
L 3425 3897 
Q 3066 4069 2747 4153 
Q 2428 4238 2131 4238 
Q 1616 4238 1336 4038 
Q 1056 3838 1056 3469 
Q 1056 3159 1242 3001 
Q 1428 2844 1947 2747 
L 2328 2669 
Q 3034 2534 3370 2195 
Q 3706 1856 3706 1288 
Q 3706 609 3251 259 
Q 2797 -91 1919 -91 
Q 1588 -91 1214 -16 
Q 841 59 441 206 
L 441 856 
Q 825 641 1194 531 
Q 1563 422 1919 422 
Q 2459 422 2753 634 
Q 3047 847 3047 1241 
Q 3047 1584 2836 1778 
Q 2625 1972 2144 2069 
L 1759 2144 
Q 1053 2284 737 2584 
Q 422 2884 422 3419 
Q 422 4038 858 4394 
Q 1294 4750 2059 4750 
Q 2388 4750 2728 4690 
Q 3069 4631 3425 4513 
z
" transform="scale(0.015625)"/>
       <path id="DejaVuSans-33" d="M 2597 2516 
Q 3050 2419 3304 2112 
Q 3559 1806 3559 1356 
Q 3559 666 3084 287 
Q 2609 -91 1734 -91 
Q 1441 -91 1130 -33 
Q 819 25 488 141 
L 488 750 
Q 750 597 1062 519 
Q 1375 441 1716 441 
Q 2309 441 2620 675 
Q 2931 909 2931 1356 
Q 2931 1769 2642 2001 
Q 2353 2234 1838 2234 
L 1294 2234 
L 1294 2753 
L 1863 2753 
Q 2328 2753 2575 2939 
Q 2822 3125 2822 3475 
Q 2822 3834 2567 4026 
Q 2313 4219 1838 4219 
Q 1578 4219 1281 4162 
Q 984 4106 628 3988 
L 628 4550 
Q 988 4650 1302 4700 
Q 1616 4750 1894 4750 
Q 2613 4750 3031 4423 
Q 3450 4097 3450 3541 
Q 3450 3153 3228 2886 
Q 3006 2619 2597 2516 
z
" transform="scale(0.015625)"/>
      </defs>
      <use xlink:href="#DejaVuSans-53"/>
      <use xlink:href="#DejaVuSans-52" x="63.476562"/>
      <use xlink:href="#DejaVuSans-52" x="132.958984"/>
      <use xlink:href="#DejaVuSans-32" x="202.441406"/>
      <use xlink:href="#DejaVuSans-31" x="266.064453"/>
      <use xlink:href="#DejaVuSans-35" x="329.6875"/>
      <use xlink:href="#DejaVuSans-35" x="393.310547"/>
      <use xlink:href="#DejaVuSans-34" x="456.933594"/>
      <use xlink:href="#DejaVuSans-31" x="520.556641"/>
      <use xlink:href="#DejaVuSans-33" x="584.179688"/>
     </g>
    </g>
    <g id="line2d_23">
     <path d="M 65.618125 303.935394 
L 73.618125 303.935394 
L 81.618125 303.935394 
" style="fill: none; stroke: #434348; stroke-linecap: square"/>
    </g>
    <g id="text_19">
     <!-- SRR2155414 -->
     <g transform="translate(88.018125 306.735394)scale(0.08 -0.08)">
      <use xlink:href="#DejaVuSans-53"/>
      <use xlink:href="#DejaVuSans-52" x="63.476562"/>
      <use xlink:href="#DejaVuSans-52" x="132.958984"/>
      <use xlink:href="#DejaVuSans-32" x="202.441406"/>
      <use xlink:href="#DejaVuSans-31" x="266.064453"/>
      <use xlink:href="#DejaVuSans-35" x="329.6875"/>
      <use xlink:href="#DejaVuSans-35" x="393.310547"/>
      <use xlink:href="#DejaVuSans-34" x="456.933594"/>
      <use xlink:href="#DejaVuSans-31" x="520.556641"/>
      <use xlink:href="#DejaVuSans-34" x="584.179688"/>
     </g>
    </g>
    <g id="line2d_24">
     <path d="M 65.618125 315.677894 
L 73.618125 315.677894 
L 81.618125 315.677894 
" style="fill: none; stroke: #90ed7d; stroke-linecap: square"/>
    </g>
    <g id="text_20">
     <!-- SRR2155415 -->
     <g transform="translate(88.018125 318.477894)scale(0.08 -0.08)">
      <use xlink:href="#DejaVuSans-53"/>
      <use xlink:href="#DejaVuSans-52" x="63.476562"/>
      <use xlink:href="#DejaVuSans-52" x="132.958984"/>
      <use xlink:href="#DejaVuSans-32" x="202.441406"/>
      <use xlink:href="#DejaVuSans-31" x="266.064453"/>
      <use xlink:href="#DejaVuSans-35" x="329.6875"/>
      <use xlink:href="#DejaVuSans-35" x="393.310547"/>
      <use xlink:href="#DejaVuSans-34" x="456.933594"/>
      <use xlink:href="#DejaVuSans-31" x="520.556641"/>
      <use xlink:href="#DejaVuSans-35" x="584.179688"/>
     </g>
    </g>
    <g id="line2d_25">
     <path d="M 275.172813 292.192894 
L 283.172813 292.192894 
L 291.172813 292.192894 
" style="fill: none; stroke: #f7a35c; stroke-linecap: square"/>
    </g>
    <g id="text_21">
     <!-- SRR2155416 -->
     <g transform="translate(297.572812 294.992894)scale(0.08 -0.08)">
      <use xlink:href="#DejaVuSans-53"/>
      <use xlink:href="#DejaVuSans-52" x="63.476562"/>
      <use xlink:href="#DejaVuSans-52" x="132.958984"/>
      <use xlink:href="#DejaVuSans-32" x="202.441406"/>
      <use xlink:href="#DejaVuSans-31" x="266.064453"/>
      <use xlink:href="#DejaVuSans-35" x="329.6875"/>
      <use xlink:href="#DejaVuSans-35" x="393.310547"/>
      <use xlink:href="#DejaVuSans-34" x="456.933594"/>
      <use xlink:href="#DejaVuSans-31" x="520.556641"/>
      <use xlink:href="#DejaVuSans-36" x="584.179688"/>
     </g>
    </g>
    <g id="line2d_26">
     <path d="M 275.172813 303.935394 
L 283.172813 303.935394 
L 291.172813 303.935394 
" style="fill: none; stroke: #8085e9; stroke-linecap: square"/>
    </g>
    <g id="text_22">
     <!-- SRR2155417 -->
     <g transform="translate(297.572812 306.735394)scale(0.08 -0.08)">
      <use xlink:href="#DejaVuSans-53"/>
      <use xlink:href="#DejaVuSans-52" x="63.476562"/>
      <use xlink:href="#DejaVuSans-52" x="132.958984"/>
      <use xlink:href="#DejaVuSans-32" x="202.441406"/>
      <use xlink:href="#DejaVuSans-31" x="266.064453"/>
      <use xlink:href="#DejaVuSans-35" x="329.6875"/>
      <use xlink:href="#DejaVuSans-35" x="393.310547"/>
      <use xlink:href="#DejaVuSans-34" x="456.933594"/>
      <use xlink:href="#DejaVuSans-31" x="520.556641"/>
      <use xlink:href="#DejaVuSans-37" x="584.179688"/>
     </g>
    </g>
    <g id="line2d_27">
     <path d="M 275.172813 315.677894 
L 283.172813 315.677894 
L 291.172813 315.677894 
" style="fill: none; stroke: #f15c80; stroke-linecap: square"/>
    </g>
    <g id="text_23">
     <!-- SRR2155418 -->
     <g transform="translate(297.572812 318.477894)scale(0.08 -0.08)">
      <use xlink:href="#DejaVuSans-53"/>
      <use xlink:href="#DejaVuSans-52" x="63.476562"/>
      <use xlink:href="#DejaVuSans-52" x="132.958984"/>
      <use xlink:href="#DejaVuSans-32" x="202.441406"/>
      <use xlink:href="#DejaVuSans-31" x="266.064453"/>
      <use xlink:href="#DejaVuSans-35" x="329.6875"/>
      <use xlink:href="#DejaVuSans-35" x="393.310547"/>
      <use xlink:href="#DejaVuSans-34" x="456.933594"/>
      <use xlink:href="#DejaVuSans-31" x="520.556641"/>
      <use xlink:href="#DejaVuSans-38" x="584.179688"/>
     </g>
    </g>
    <g id="line2d_28">
     <path d="M 484.7275 292.192894 
L 492.7275 292.192894 
L 500.7275 292.192894 
" style="fill: none; stroke: #e4d354; stroke-linecap: square"/>
    </g>
    <g id="text_24">
     <!-- SRR2155419 -->
     <g transform="translate(507.1275 294.992894)scale(0.08 -0.08)">
      <defs>
       <path id="DejaVuSans-39" d="M 703 97 
L 703 672 
Q 941 559 1184 500 
Q 1428 441 1663 441 
Q 2288 441 2617 861 
Q 2947 1281 2994 2138 
Q 2813 1869 2534 1725 
Q 2256 1581 1919 1581 
Q 1219 1581 811 2004 
Q 403 2428 403 3163 
Q 403 3881 828 4315 
Q 1253 4750 1959 4750 
Q 2769 4750 3195 4129 
Q 3622 3509 3622 2328 
Q 3622 1225 3098 567 
Q 2575 -91 1691 -91 
Q 1453 -91 1209 -44 
Q 966 3 703 97 
z
M 1959 2075 
Q 2384 2075 2632 2365 
Q 2881 2656 2881 3163 
Q 2881 3666 2632 3958 
Q 2384 4250 1959 4250 
Q 1534 4250 1286 3958 
Q 1038 3666 1038 3163 
Q 1038 2656 1286 2365 
Q 1534 2075 1959 2075 
z
" transform="scale(0.015625)"/>
      </defs>
      <use xlink:href="#DejaVuSans-53"/>
      <use xlink:href="#DejaVuSans-52" x="63.476562"/>
      <use xlink:href="#DejaVuSans-52" x="132.958984"/>
      <use xlink:href="#DejaVuSans-32" x="202.441406"/>
      <use xlink:href="#DejaVuSans-31" x="266.064453"/>
      <use xlink:href="#DejaVuSans-35" x="329.6875"/>
      <use xlink:href="#DejaVuSans-35" x="393.310547"/>
      <use xlink:href="#DejaVuSans-34" x="456.933594"/>
      <use xlink:href="#DejaVuSans-31" x="520.556641"/>
      <use xlink:href="#DejaVuSans-39" x="584.179688"/>
     </g>
    </g>
    <g id="line2d_29">
     <path d="M 484.7275 303.935394 
L 492.7275 303.935394 
L 500.7275 303.935394 
" style="fill: none; stroke: #2b908f; stroke-linecap: square"/>
    </g>
    <g id="text_25">
     <!-- SRR2155420 -->
     <g transform="translate(507.1275 306.735394)scale(0.08 -0.08)">
      <use xlink:href="#DejaVuSans-53"/>
      <use xlink:href="#DejaVuSans-52" x="63.476562"/>
      <use xlink:href="#DejaVuSans-52" x="132.958984"/>
      <use xlink:href="#DejaVuSans-32" x="202.441406"/>
      <use xlink:href="#DejaVuSans-31" x="266.064453"/>
      <use xlink:href="#DejaVuSans-35" x="329.6875"/>
      <use xlink:href="#DejaVuSans-35" x="393.310547"/>
      <use xlink:href="#DejaVuSans-34" x="456.933594"/>
      <use xlink:href="#DejaVuSans-32" x="520.556641"/>
      <use xlink:href="#DejaVuSans-30" x="584.179688"/>
     </g>
    </g>
    <g id="line2d_30">
     <path d="M 694.282187 292.192894 
L 702.282187 292.192894 
L 710.282187 292.192894 
" style="fill: none; stroke: #f45b5b; stroke-linecap: square"/>
    </g>
    <g id="text_26">
     <!-- SRR2155421 -->
     <g transform="translate(716.682187 294.992894)scale(0.08 -0.08)">
      <use xlink:href="#DejaVuSans-53"/>
      <use xlink:href="#DejaVuSans-52" x="63.476562"/>
      <use xlink:href="#DejaVuSans-52" x="132.958984"/>
      <use xlink:href="#DejaVuSans-32" x="202.441406"/>
      <use xlink:href="#DejaVuSans-31" x="266.064453"/>
      <use xlink:href="#DejaVuSans-35" x="329.6875"/>
      <use xlink:href="#DejaVuSans-35" x="393.310547"/>
      <use xlink:href="#DejaVuSans-34" x="456.933594"/>
      <use xlink:href="#DejaVuSans-32" x="520.556641"/>
      <use xlink:href="#DejaVuSans-31" x="584.179688"/>
     </g>
    </g>
    <g id="line2d_31">
     <path d="M 694.282187 303.935394 
L 702.282187 303.935394 
L 710.282187 303.935394 
" style="fill: none; stroke: #91e8e1; stroke-linecap: square"/>
    </g>
    <g id="text_27">
     <!-- SRR2155422 -->
     <g transform="translate(716.682187 306.735394)scale(0.08 -0.08)">
      <use xlink:href="#DejaVuSans-53"/>
      <use xlink:href="#DejaVuSans-52" x="63.476562"/>
      <use xlink:href="#DejaVuSans-52" x="132.958984"/>
      <use xlink:href="#DejaVuSans-32" x="202.441406"/>
      <use xlink:href="#DejaVuSans-31" x="266.064453"/>
      <use xlink:href="#DejaVuSans-35" x="329.6875"/>
      <use xlink:href="#DejaVuSans-35" x="393.310547"/>
      <use xlink:href="#DejaVuSans-34" x="456.933594"/>
      <use xlink:href="#DejaVuSans-32" x="520.556641"/>
      <use xlink:href="#DejaVuSans-32" x="584.179688"/>
     </g>
    </g>
    <g id="line2d_32">
     <path d="M 903.836875 292.192894 
L 911.836875 292.192894 
L 919.836875 292.192894 
" style="fill: none; stroke: #7cb5ec; stroke-linecap: square"/>
    </g>
    <g id="text_28">
     <!-- SRR2155423 -->
     <g transform="translate(926.236875 294.992894)scale(0.08 -0.08)">
      <use xlink:href="#DejaVuSans-53"/>
      <use xlink:href="#DejaVuSans-52" x="63.476562"/>
      <use xlink:href="#DejaVuSans-52" x="132.958984"/>
      <use xlink:href="#DejaVuSans-32" x="202.441406"/>
      <use xlink:href="#DejaVuSans-31" x="266.064453"/>
      <use xlink:href="#DejaVuSans-35" x="329.6875"/>
      <use xlink:href="#DejaVuSans-35" x="393.310547"/>
      <use xlink:href="#DejaVuSans-34" x="456.933594"/>
      <use xlink:href="#DejaVuSans-32" x="520.556641"/>
      <use xlink:href="#DejaVuSans-33" x="584.179688"/>
     </g>
    </g>
    <g id="line2d_33">
     <path d="M 903.836875 303.935394 
L 911.836875 303.935394 
L 919.836875 303.935394 
" style="fill: none; stroke: #434348; stroke-linecap: square"/>
    </g>
    <g id="text_29">
     <!-- SRR2155424 -->
     <g transform="translate(926.236875 306.735394)scale(0.08 -0.08)">
      <use xlink:href="#DejaVuSans-53"/>
      <use xlink:href="#DejaVuSans-52" x="63.476562"/>
      <use xlink:href="#DejaVuSans-52" x="132.958984"/>
      <use xlink:href="#DejaVuSans-32" x="202.441406"/>
      <use xlink:href="#DejaVuSans-31" x="266.064453"/>
      <use xlink:href="#DejaVuSans-35" x="329.6875"/>
      <use xlink:href="#DejaVuSans-35" x="393.310547"/>
      <use xlink:href="#DejaVuSans-34" x="456.933594"/>
      <use xlink:href="#DejaVuSans-32" x="520.556641"/>
      <use xlink:href="#DejaVuSans-34" x="584.179688"/>
     </g>
    </g>
   </g>
  </g>
 </g>
 <defs>
  <clipPath id="pd14a577d7b">
   <rect x="58.418125" y="31.48286" width="926.845" height="242.5072"/>
  </clipPath>
 </defs>
</svg>
