<?xml version="1.0" encoding="utf-8" standalone="no"?>
<!DOCTYPE svg PUBLIC "-//W3C//DTD SVG 1.1//EN"
  "http://www.w3.org/Graphics/SVG/1.1/DTD/svg11.dtd">
<svg xmlns:xlink="http://www.w3.org/1999/xlink" width="1000.280625pt" height="330.541644pt" viewBox="0 0 1000.280625 330.541644" xmlns="http://www.w3.org/2000/svg" version="1.1">
 <metadata>
  <rdf:RDF xmlns:dc="http://purl.org/dc/elements/1.1/" xmlns:cc="http://creativecommons.org/ns#" xmlns:rdf="http://www.w3.org/1999/02/22-rdf-syntax-ns#">
   <cc:Work>
    <dc:type rdf:resource="http://purl.org/dc/dcmitype/StillImage"/>
    <dc:date>2024-08-12T02:15:17.482009</dc:date>
    <dc:format>image/svg+xml</dc:format>
    <dc:creator>
     <cc:Agent>
      <dc:title>Matplotlib v3.5.3, https://matplotlib.org/</dc:title>
     </cc:Agent>
    </dc:creator>
   </cc:Work>
  </rdf:RDF>
 </metadata>
 <defs>
  <style type="text/css">*{stroke-linejoin: round; stroke-linecap: butt}</style>
 </defs>
 <g id="figure_1">
  <g id="axes_1">
   <g id="patch_1">
    <path d="M 40.600625 273.99006 
L 985.445625 273.99006 
L 985.445625 31.48286 
L 40.600625 31.48286 
z
" style="fill: #ffffff"/>
   </g>
   <g id="matplotlib.axis_1">
    <g id="xtick_1">
     <g id="text_1">
      <!-- 0 -->
      <g transform="translate(38.055625 287.06881)scale(0.08 -0.08)">
       <defs>
        <path id="DejaVuSans-30" d="M 2034 4250 
Q 1547 4250 1301 3770 
Q 1056 3291 1056 2328 
Q 1056 1369 1301 889 
Q 1547 409 2034 409 
Q 2525 409 2770 889 
Q 3016 1369 3016 2328 
Q 3016 3291 2770 3770 
Q 2525 4250 2034 4250 
z
M 2034 4750 
Q 2819 4750 3233 4129 
Q 3647 3509 3647 2328 
Q 3647 1150 3233 529 
Q 2819 -91 2034 -91 
Q 1250 -91 836 529 
Q 422 1150 422 2328 
Q 422 3509 836 4129 
Q 1250 4750 2034 4750 
z
" transform="scale(0.015625)"/>
       </defs>
       <use xlink:href="#DejaVuSans-30"/>
      </g>
     </g>
    </g>
    <g id="xtick_2">
     <g id="text_2">
      <!-- 20 -->
      <g transform="translate(224.479625 287.06881)scale(0.08 -0.08)">
       <defs>
        <path id="DejaVuSans-32" d="M 1228 531 
L 3431 531 
L 3431 0 
L 469 0 
L 469 531 
Q 828 903 1448 1529 
Q 2069 2156 2228 2338 
Q 2531 2678 2651 2914 
Q 2772 3150 2772 3378 
Q 2772 3750 2511 3984 
Q 2250 4219 1831 4219 
Q 1534 4219 1204 4116 
Q 875 4013 500 3803 
L 500 4441 
Q 881 4594 1212 4672 
Q 1544 4750 1819 4750 
Q 2544 4750 2975 4387 
Q 3406 4025 3406 3419 
Q 3406 3131 3298 2873 
Q 3191 2616 2906 2266 
Q 2828 2175 2409 1742 
Q 1991 1309 1228 531 
z
" transform="scale(0.015625)"/>
       </defs>
       <use xlink:href="#DejaVuSans-32"/>
       <use xlink:href="#DejaVuSans-30" x="63.623047"/>
      </g>
     </g>
    </g>
    <g id="xtick_3">
     <g id="text_3">
      <!-- 40 -->
      <g transform="translate(413.448625 287.06881)scale(0.08 -0.08)">
       <defs>
        <path id="DejaVuSans-34" d="M 2419 4116 
L 825 1625 
L 2419 1625 
L 2419 4116 
z
M 2253 4666 
L 3047 4666 
L 3047 1625 
L 3713 1625 
L 3713 1100 
L 3047 1100 
L 3047 0 
L 2419 0 
L 2419 1100 
L 313 1100 
L 313 1709 
L 2253 4666 
z
" transform="scale(0.015625)"/>
       </defs>
       <use xlink:href="#DejaVuSans-34"/>
       <use xlink:href="#DejaVuSans-30" x="63.623047"/>
      </g>
     </g>
    </g>
    <g id="xtick_4">
     <g id="text_4">
      <!-- 60 -->
      <g transform="translate(602.417625 287.06881)scale(0.08 -0.08)">
       <defs>
        <path id="DejaVuSans-36" d="M 2113 2584 
Q 1688 2584 1439 2293 
Q 1191 2003 1191 1497 
Q 1191 994 1439 701 
Q 1688 409 2113 409 
Q 2538 409 2786 701 
Q 3034 994 3034 1497 
Q 3034 2003 2786 2293 
Q 2538 2584 2113 2584 
z
M 3366 4563 
L 3366 3988 
Q 3128 4100 2886 4159 
Q 2644 4219 2406 4219 
Q 1781 4219 1451 3797 
Q 1122 3375 1075 2522 
Q 1259 2794 1537 2939 
Q 1816 3084 2150 3084 
Q 2853 3084 3261 2657 
Q 3669 2231 3669 1497 
Q 3669 778 3244 343 
Q 2819 -91 2113 -91 
Q 1303 -91 875 529 
Q 447 1150 447 2328 
Q 447 3434 972 4092 
Q 1497 4750 2381 4750 
Q 2619 4750 2861 4703 
Q 3103 4656 3366 4563 
z
" transform="scale(0.015625)"/>
       </defs>
       <use xlink:href="#DejaVuSans-36"/>
       <use xlink:href="#DejaVuSans-30" x="63.623047"/>
      </g>
     </g>
    </g>
    <g id="xtick_5">
     <g id="text_5">
      <!-- 80 -->
      <g transform="translate(791.386625 287.06881)scale(0.08 -0.08)">
       <defs>
        <path id="DejaVuSans-38" d="M 2034 2216 
Q 1584 2216 1326 1975 
Q 1069 1734 1069 1313 
Q 1069 891 1326 650 
Q 1584 409 2034 409 
Q 2484 409 2743 651 
Q 3003 894 3003 1313 
Q 3003 1734 2745 1975 
Q 2488 2216 2034 2216 
z
M 1403 2484 
Q 997 2584 770 2862 
Q 544 3141 544 3541 
Q 544 4100 942 4425 
Q 1341 4750 2034 4750 
Q 2731 4750 3128 4425 
Q 3525 4100 3525 3541 
Q 3525 3141 3298 2862 
Q 3072 2584 2669 2484 
Q 3125 2378 3379 2068 
Q 3634 1759 3634 1313 
Q 3634 634 3220 271 
Q 2806 -91 2034 -91 
Q 1263 -91 848 271 
Q 434 634 434 1313 
Q 434 1759 690 2068 
Q 947 2378 1403 2484 
z
M 1172 3481 
Q 1172 3119 1398 2916 
Q 1625 2713 2034 2713 
Q 2441 2713 2670 2916 
Q 2900 3119 2900 3481 
Q 2900 3844 2670 4047 
Q 2441 4250 2034 4250 
Q 1625 4250 1398 4047 
Q 1172 3844 1172 3481 
z
" transform="scale(0.015625)"/>
       </defs>
       <use xlink:href="#DejaVuSans-38"/>
       <use xlink:href="#DejaVuSans-30" x="63.623047"/>
      </g>
     </g>
    </g>
    <g id="xtick_6">
     <g id="text_6">
      <!-- 100 -->
      <g transform="translate(977.810625 287.06881)scale(0.08 -0.08)">
       <defs>
        <path id="DejaVuSans-31" d="M 794 531 
L 1825 531 
L 1825 4091 
L 703 3866 
L 703 4441 
L 1819 4666 
L 2450 4666 
L 2450 531 
L 3481 531 
L 3481 0 
L 794 0 
L 794 531 
z
" transform="scale(0.015625)"/>
       </defs>
       <use xlink:href="#DejaVuSans-31"/>
       <use xlink:href="#DejaVuSans-30" x="63.623047"/>
       <use xlink:href="#DejaVuSans-30" x="127.246094"/>
      </g>
     </g>
    </g>
    <g id="text_7">
     <!-- % GC -->
     <g transform="translate(499.317656 300.330997)scale(0.1 -0.1)">
      <defs>
       <path id="DejaVuSans-25" d="M 4653 2053 
Q 4381 2053 4226 1822 
Q 4072 1591 4072 1178 
Q 4072 772 4226 539 
Q 4381 306 4653 306 
Q 4919 306 5073 539 
Q 5228 772 5228 1178 
Q 5228 1588 5073 1820 
Q 4919 2053 4653 2053 
z
M 4653 2450 
Q 5147 2450 5437 2106 
Q 5728 1763 5728 1178 
Q 5728 594 5436 251 
Q 5144 -91 4653 -91 
Q 4153 -91 3862 251 
Q 3572 594 3572 1178 
Q 3572 1766 3864 2108 
Q 4156 2450 4653 2450 
z
M 1428 4353 
Q 1159 4353 1004 4120 
Q 850 3888 850 3481 
Q 850 3069 1003 2837 
Q 1156 2606 1428 2606 
Q 1700 2606 1854 2837 
Q 2009 3069 2009 3481 
Q 2009 3884 1853 4118 
Q 1697 4353 1428 4353 
z
M 4250 4750 
L 4750 4750 
L 1831 -91 
L 1331 -91 
L 4250 4750 
z
M 1428 4750 
Q 1922 4750 2215 4408 
Q 2509 4066 2509 3481 
Q 2509 2891 2217 2550 
Q 1925 2209 1428 2209 
Q 931 2209 642 2551 
Q 353 2894 353 3481 
Q 353 4063 643 4406 
Q 934 4750 1428 4750 
z
" transform="scale(0.015625)"/>
       <path id="DejaVuSans-20" transform="scale(0.015625)"/>
       <path id="DejaVuSans-47" d="M 3809 666 
L 3809 1919 
L 2778 1919 
L 2778 2438 
L 4434 2438 
L 4434 434 
Q 4069 175 3628 42 
Q 3188 -91 2688 -91 
Q 1594 -91 976 548 
Q 359 1188 359 2328 
Q 359 3472 976 4111 
Q 1594 4750 2688 4750 
Q 3144 4750 3555 4637 
Q 3966 4525 4313 4306 
L 4313 3634 
Q 3963 3931 3569 4081 
Q 3175 4231 2741 4231 
Q 1884 4231 1454 3753 
Q 1025 3275 1025 2328 
Q 1025 1384 1454 906 
Q 1884 428 2741 428 
Q 3075 428 3337 486 
Q 3600 544 3809 666 
z
" transform="scale(0.015625)"/>
       <path id="DejaVuSans-43" d="M 4122 4306 
L 4122 3641 
Q 3803 3938 3442 4084 
Q 3081 4231 2675 4231 
Q 1875 4231 1450 3742 
Q 1025 3253 1025 2328 
Q 1025 1406 1450 917 
Q 1875 428 2675 428 
Q 3081 428 3442 575 
Q 3803 722 4122 1019 
L 4122 359 
Q 3791 134 3420 21 
Q 3050 -91 2638 -91 
Q 1578 -91 968 557 
Q 359 1206 359 2328 
Q 359 3453 968 4101 
Q 1578 4750 2638 4750 
Q 3056 4750 3426 4639 
Q 3797 4528 4122 4306 
z
" transform="scale(0.015625)"/>
      </defs>
      <use xlink:href="#DejaVuSans-25"/>
      <use xlink:href="#DejaVuSans-20" x="95.019531"/>
      <use xlink:href="#DejaVuSans-47" x="126.806641"/>
      <use xlink:href="#DejaVuSans-43" x="204.296875"/>
     </g>
    </g>
   </g>
   <g id="matplotlib.axis_2">
    <g id="ytick_1">
     <g id="line2d_1">
      <path d="M 40.600625 273.99006 
L 985.445625 273.99006 
" clip-path="url(#p66290091e9)" style="fill: none; stroke: #dedede; stroke-linecap: square"/>
     </g>
     <g id="text_8">
      <!-- 0.0 -->
      <g transform="translate(20.878125 277.029435)scale(0.08 -0.08)">
       <defs>
        <path id="DejaVuSans-2e" d="M 684 794 
L 1344 794 
L 1344 0 
L 684 0 
L 684 794 
z
" transform="scale(0.015625)"/>
       </defs>
       <use xlink:href="#DejaVuSans-30"/>
       <use xlink:href="#DejaVuSans-2e" x="63.623047"/>
       <use xlink:href="#DejaVuSans-30" x="95.410156"/>
      </g>
     </g>
    </g>
    <g id="ytick_2">
     <g id="line2d_2">
      <path d="M 40.600625 239.823401 
L 985.445625 239.823401 
" clip-path="url(#p66290091e9)" style="fill: none; stroke: #dedede; stroke-linecap: square"/>
     </g>
     <g id="text_9">
      <!-- 0.5 -->
      <g transform="translate(20.878125 242.862776)scale(0.08 -0.08)">
       <defs>
        <path id="DejaVuSans-35" d="M 691 4666 
L 3169 4666 
L 3169 4134 
L 1269 4134 
L 1269 2991 
Q 1406 3038 1543 3061 
Q 1681 3084 1819 3084 
Q 2600 3084 3056 2656 
Q 3513 2228 3513 1497 
Q 3513 744 3044 326 
Q 2575 -91 1722 -91 
Q 1428 -91 1123 -41 
Q 819 9 494 109 
L 494 744 
Q 775 591 1075 516 
Q 1375 441 1709 441 
Q 2250 441 2565 725 
Q 2881 1009 2881 1497 
Q 2881 1984 2565 2268 
Q 2250 2553 1709 2553 
Q 1456 2553 1204 2497 
Q 953 2441 691 2322 
L 691 4666 
z
" transform="scale(0.015625)"/>
       </defs>
       <use xlink:href="#DejaVuSans-30"/>
       <use xlink:href="#DejaVuSans-2e" x="63.623047"/>
       <use xlink:href="#DejaVuSans-35" x="95.410156"/>
      </g>
     </g>
    </g>
    <g id="ytick_3">
     <g id="line2d_3">
      <path d="M 40.600625 205.656743 
L 985.445625 205.656743 
" clip-path="url(#p66290091e9)" style="fill: none; stroke: #dedede; stroke-linecap: square"/>
     </g>
     <g id="text_10">
      <!-- 1.0 -->
      <g transform="translate(20.878125 208.696118)scale(0.08 -0.08)">
       <use xlink:href="#DejaVuSans-31"/>
       <use xlink:href="#DejaVuSans-2e" x="63.623047"/>
       <use xlink:href="#DejaVuSans-30" x="95.410156"/>
      </g>
     </g>
    </g>
    <g id="ytick_4">
     <g id="line2d_4">
      <path d="M 40.600625 171.490084 
L 985.445625 171.490084 
" clip-path="url(#p66290091e9)" style="fill: none; stroke: #dedede; stroke-linecap: square"/>
     </g>
     <g id="text_11">
      <!-- 1.5 -->
      <g transform="translate(20.878125 174.529459)scale(0.08 -0.08)">
       <use xlink:href="#DejaVuSans-31"/>
       <use xlink:href="#DejaVuSans-2e" x="63.623047"/>
       <use xlink:href="#DejaVuSans-35" x="95.410156"/>
      </g>
     </g>
    </g>
    <g id="ytick_5">
     <g id="line2d_5">
      <path d="M 40.600625 137.323426 
L 985.445625 137.323426 
" clip-path="url(#p66290091e9)" style="fill: none; stroke: #dedede; stroke-linecap: square"/>
     </g>
     <g id="text_12">
      <!-- 2.0 -->
      <g transform="translate(20.878125 140.362801)scale(0.08 -0.08)">
       <use xlink:href="#DejaVuSans-32"/>
       <use xlink:href="#DejaVuSans-2e" x="63.623047"/>
       <use xlink:href="#DejaVuSans-30" x="95.410156"/>
      </g>
     </g>
    </g>
    <g id="ytick_6">
     <g id="line2d_6">
      <path d="M 40.600625 103.156767 
L 985.445625 103.156767 
" clip-path="url(#p66290091e9)" style="fill: none; stroke: #dedede; stroke-linecap: square"/>
     </g>
     <g id="text_13">
      <!-- 2.5 -->
      <g transform="translate(20.878125 106.196142)scale(0.08 -0.08)">
       <use xlink:href="#DejaVuSans-32"/>
       <use xlink:href="#DejaVuSans-2e" x="63.623047"/>
       <use xlink:href="#DejaVuSans-35" x="95.410156"/>
      </g>
     </g>
    </g>
    <g id="ytick_7">
     <g id="line2d_7">
      <path d="M 40.600625 68.990109 
L 985.445625 68.990109 
" clip-path="url(#p66290091e9)" style="fill: none; stroke: #dedede; stroke-linecap: square"/>
     </g>
     <g id="text_14">
      <!-- 3.0 -->
      <g transform="translate(20.878125 72.029484)scale(0.08 -0.08)">
       <defs>
        <path id="DejaVuSans-33" d="M 2597 2516 
Q 3050 2419 3304 2112 
Q 3559 1806 3559 1356 
Q 3559 666 3084 287 
Q 2609 -91 1734 -91 
Q 1441 -91 1130 -33 
Q 819 25 488 141 
L 488 750 
Q 750 597 1062 519 
Q 1375 441 1716 441 
Q 2309 441 2620 675 
Q 2931 909 2931 1356 
Q 2931 1769 2642 2001 
Q 2353 2234 1838 2234 
L 1294 2234 
L 1294 2753 
L 1863 2753 
Q 2328 2753 2575 2939 
Q 2822 3125 2822 3475 
Q 2822 3834 2567 4026 
Q 2313 4219 1838 4219 
Q 1578 4219 1281 4162 
Q 984 4106 628 3988 
L 628 4550 
Q 988 4650 1302 4700 
Q 1616 4750 1894 4750 
Q 2613 4750 3031 4423 
Q 3450 4097 3450 3541 
Q 3450 3153 3228 2886 
Q 3006 2619 2597 2516 
z
" transform="scale(0.015625)"/>
       </defs>
       <use xlink:href="#DejaVuSans-33"/>
       <use xlink:href="#DejaVuSans-2e" x="63.623047"/>
       <use xlink:href="#DejaVuSans-30" x="95.410156"/>
      </g>
     </g>
    </g>
    <g id="ytick_8">
     <g id="line2d_8">
      <path d="M 40.600625 34.82345 
L 985.445625 34.82345 
" clip-path="url(#p66290091e9)" style="fill: none; stroke: #dedede; stroke-linecap: square"/>
     </g>
     <g id="text_15">
      <!-- 3.5 -->
      <g transform="translate(20.878125 37.862825)scale(0.08 -0.08)">
       <use xlink:href="#DejaVuSans-33"/>
       <use xlink:href="#DejaVuSans-2e" x="63.623047"/>
       <use xlink:href="#DejaVuSans-35" x="95.410156"/>
      </g>
     </g>
    </g>
    <g id="text_16">
     <!-- Percentage -->
     <g transform="translate(14.798438 180.859116)rotate(-90)scale(0.1 -0.1)">
      <defs>
       <path id="DejaVuSans-50" d="M 1259 4147 
L 1259 2394 
L 2053 2394 
Q 2494 2394 2734 2622 
Q 2975 2850 2975 3272 
Q 2975 3691 2734 3919 
Q 2494 4147 2053 4147 
L 1259 4147 
z
M 628 4666 
L 2053 4666 
Q 2838 4666 3239 4311 
Q 3641 3956 3641 3272 
Q 3641 2581 3239 2228 
Q 2838 1875 2053 1875 
L 1259 1875 
L 1259 0 
L 628 0 
L 628 4666 
z
" transform="scale(0.015625)"/>
       <path id="DejaVuSans-65" d="M 3597 1894 
L 3597 1613 
L 953 1613 
Q 991 1019 1311 708 
Q 1631 397 2203 397 
Q 2534 397 2845 478 
Q 3156 559 3463 722 
L 3463 178 
Q 3153 47 2828 -22 
Q 2503 -91 2169 -91 
Q 1331 -91 842 396 
Q 353 884 353 1716 
Q 353 2575 817 3079 
Q 1281 3584 2069 3584 
Q 2775 3584 3186 3129 
Q 3597 2675 3597 1894 
z
M 3022 2063 
Q 3016 2534 2758 2815 
Q 2500 3097 2075 3097 
Q 1594 3097 1305 2825 
Q 1016 2553 972 2059 
L 3022 2063 
z
" transform="scale(0.015625)"/>
       <path id="DejaVuSans-72" d="M 2631 2963 
Q 2534 3019 2420 3045 
Q 2306 3072 2169 3072 
Q 1681 3072 1420 2755 
Q 1159 2438 1159 1844 
L 1159 0 
L 581 0 
L 581 3500 
L 1159 3500 
L 1159 2956 
Q 1341 3275 1631 3429 
Q 1922 3584 2338 3584 
Q 2397 3584 2469 3576 
Q 2541 3569 2628 3553 
L 2631 2963 
z
" transform="scale(0.015625)"/>
       <path id="DejaVuSans-63" d="M 3122 3366 
L 3122 2828 
Q 2878 2963 2633 3030 
Q 2388 3097 2138 3097 
Q 1578 3097 1268 2742 
Q 959 2388 959 1747 
Q 959 1106 1268 751 
Q 1578 397 2138 397 
Q 2388 397 2633 464 
Q 2878 531 3122 666 
L 3122 134 
Q 2881 22 2623 -34 
Q 2366 -91 2075 -91 
Q 1284 -91 818 406 
Q 353 903 353 1747 
Q 353 2603 823 3093 
Q 1294 3584 2113 3584 
Q 2378 3584 2631 3529 
Q 2884 3475 3122 3366 
z
" transform="scale(0.015625)"/>
       <path id="DejaVuSans-6e" d="M 3513 2113 
L 3513 0 
L 2938 0 
L 2938 2094 
Q 2938 2591 2744 2837 
Q 2550 3084 2163 3084 
Q 1697 3084 1428 2787 
Q 1159 2491 1159 1978 
L 1159 0 
L 581 0 
L 581 3500 
L 1159 3500 
L 1159 2956 
Q 1366 3272 1645 3428 
Q 1925 3584 2291 3584 
Q 2894 3584 3203 3211 
Q 3513 2838 3513 2113 
z
" transform="scale(0.015625)"/>
       <path id="DejaVuSans-74" d="M 1172 4494 
L 1172 3500 
L 2356 3500 
L 2356 3053 
L 1172 3053 
L 1172 1153 
Q 1172 725 1289 603 
Q 1406 481 1766 481 
L 2356 481 
L 2356 0 
L 1766 0 
Q 1100 0 847 248 
Q 594 497 594 1153 
L 594 3053 
L 172 3053 
L 172 3500 
L 594 3500 
L 594 4494 
L 1172 4494 
z
" transform="scale(0.015625)"/>
       <path id="DejaVuSans-61" d="M 2194 1759 
Q 1497 1759 1228 1600 
Q 959 1441 959 1056 
Q 959 750 1161 570 
Q 1363 391 1709 391 
Q 2188 391 2477 730 
Q 2766 1069 2766 1631 
L 2766 1759 
L 2194 1759 
z
M 3341 1997 
L 3341 0 
L 2766 0 
L 2766 531 
Q 2569 213 2275 61 
Q 1981 -91 1556 -91 
Q 1019 -91 701 211 
Q 384 513 384 1019 
Q 384 1609 779 1909 
Q 1175 2209 1959 2209 
L 2766 2209 
L 2766 2266 
Q 2766 2663 2505 2880 
Q 2244 3097 1772 3097 
Q 1472 3097 1187 3025 
Q 903 2953 641 2809 
L 641 3341 
Q 956 3463 1253 3523 
Q 1550 3584 1831 3584 
Q 2591 3584 2966 3190 
Q 3341 2797 3341 1997 
z
" transform="scale(0.015625)"/>
       <path id="DejaVuSans-67" d="M 2906 1791 
Q 2906 2416 2648 2759 
Q 2391 3103 1925 3103 
Q 1463 3103 1205 2759 
Q 947 2416 947 1791 
Q 947 1169 1205 825 
Q 1463 481 1925 481 
Q 2391 481 2648 825 
Q 2906 1169 2906 1791 
z
M 3481 434 
Q 3481 -459 3084 -895 
Q 2688 -1331 1869 -1331 
Q 1566 -1331 1297 -1286 
Q 1028 -1241 775 -1147 
L 775 -588 
Q 1028 -725 1275 -790 
Q 1522 -856 1778 -856 
Q 2344 -856 2625 -561 
Q 2906 -266 2906 331 
L 2906 616 
Q 2728 306 2450 153 
Q 2172 0 1784 0 
Q 1141 0 747 490 
Q 353 981 353 1791 
Q 353 2603 747 3093 
Q 1141 3584 1784 3584 
Q 2172 3584 2450 3431 
Q 2728 3278 2906 2969 
L 2906 3500 
L 3481 3500 
L 3481 434 
z
" transform="scale(0.015625)"/>
      </defs>
      <use xlink:href="#DejaVuSans-50"/>
      <use xlink:href="#DejaVuSans-65" x="56.677734"/>
      <use xlink:href="#DejaVuSans-72" x="118.201172"/>
      <use xlink:href="#DejaVuSans-63" x="157.064453"/>
      <use xlink:href="#DejaVuSans-65" x="212.044922"/>
      <use xlink:href="#DejaVuSans-6e" x="273.568359"/>
      <use xlink:href="#DejaVuSans-74" x="336.947266"/>
      <use xlink:href="#DejaVuSans-61" x="376.15625"/>
      <use xlink:href="#DejaVuSans-67" x="437.435547"/>
      <use xlink:href="#DejaVuSans-65" x="500.912109"/>
     </g>
    </g>
   </g>
   <g id="line2d_9">
    <path d="M 40.600625 273.984062 
L 50.049075 273.985561 
L 59.497525 273.988186 
L 68.945975 273.98931 
L 78.394425 273.98856 
L 87.842875 273.986311 
L 97.291325 273.985561 
L 106.739775 273.986311 
L 116.188225 273.985186 
L 125.636675 273.980313 
L 135.085125 273.974315 
L 144.533575 273.966442 
L 153.982025 273.948073 
L 163.430475 273.929703 
L 172.878925 273.912459 
L 182.327375 273.875345 
L 191.775825 273.778624 
L 201.224275 273.617423 
L 210.672725 273.338508 
L 220.121175 272.853406 
L 229.569625 272.014411 
L 239.018075 270.68619 
L 248.466525 268.779895 
L 257.914975 266.091963 
L 267.363425 262.444698 
L 276.811875 257.747752 
L 286.260325 251.703466 
L 295.708775 244.319712 
L 305.157225 236.189936 
L 314.605675 226.832033 
L 324.054125 216.533541 
L 333.502575 206.613684 
L 342.951025 196.554745 
L 352.399475 184.863552 
L 361.847925 171.717427 
L 371.296375 158.257522 
L 380.744825 143.687955 
L 390.193275 128.427847 
L 399.641725 114.15444 
L 409.090175 100.618808 
L 418.538625 88.777286 
L 427.987075 78.713098 
L 437.435525 68.941321 
L 446.883975 61.48634 
L 456.332425 57.136163 
L 465.780875 52.620662 
L 475.229325 49.496362 
L 484.677775 50.22664 
L 494.126225 51.90313 
L 503.574675 52.845219 
L 513.023125 53.23585 
L 522.471575 52.687392 
L 531.920025 54.684034 
L 541.368475 59.893449 
L 550.816925 64.975403 
L 560.265375 69.120892 
L 569.713825 75.968558 
L 579.162275 84.438356 
L 588.610725 91.831857 
L 598.059175 99.022544 
L 607.507625 106.402924 
L 616.956075 115.857172 
L 626.404525 127.618844 
L 635.852975 140.592146 
L 645.301425 153.686163 
L 654.749875 167.102206 
L 664.198325 180.213842 
L 673.646775 192.463615 
L 683.095225 204.179175 
L 692.543675 215.303915 
L 701.992125 225.85508 
L 711.440575 235.361438 
L 720.889025 242.954378 
L 730.337475 249.036902 
L 739.785925 253.985022 
L 749.234375 258.084024 
L 758.682825 261.403639 
L 768.131275 264.005348 
L 777.579725 266.065346 
L 787.028175 267.808566 
L 796.476625 269.27212 
L 805.925075 270.532862 
L 815.373525 271.528184 
L 824.821975 272.248715 
L 834.270425 272.841784 
L 843.718875 273.270654 
L 853.167325 273.543571 
L 862.615775 273.716768 
L 872.064225 273.82736 
L 881.512675 273.883592 
L 890.961125 273.92558 
L 900.409575 273.952197 
L 909.858025 273.962693 
L 919.306475 273.972065 
L 928.754925 273.979563 
L 938.203375 273.983687 
L 947.651825 273.987436 
L 957.100275 273.988935 
L 966.548725 273.988935 
L 975.997175 273.99006 
L 985.445625 273.99006 
" clip-path="url(#p66290091e9)" style="fill: none; stroke: #5cb85c; stroke-linecap: square"/>
   </g>
   <g id="line2d_10">
    <path d="M 40.600625 273.983804 
L 50.049075 273.985256 
L 59.497525 273.988049 
L 68.945975 273.989166 
L 78.394425 273.988049 
L 87.842875 273.986932 
L 97.291325 273.986485 
L 106.739775 273.986373 
L 116.188225 273.984139 
L 125.636675 273.980899 
L 135.085125 273.977659 
L 144.533575 273.969615 
L 153.982025 273.959113 
L 163.430475 273.946376 
L 172.878925 273.918669 
L 182.327375 273.876885 
L 191.775825 273.804265 
L 201.224275 273.678241 
L 210.672725 273.46094 
L 220.121175 273.03494 
L 229.569625 272.296116 
L 239.018075 271.171178 
L 248.466525 269.521141 
L 257.914975 267.0324 
L 267.363425 263.645183 
L 276.811875 259.297261 
L 286.260325 253.673238 
L 295.708775 246.935114 
L 305.157225 239.257065 
L 314.605675 230.315317 
L 324.054125 220.545926 
L 333.502575 210.89496 
L 342.951025 200.849278 
L 352.399475 189.325389 
L 361.847925 176.526741 
L 371.296375 162.850174 
L 380.744825 148.527066 
L 390.193275 132.744744 
L 399.641725 117.472773 
L 409.090175 103.423386 
L 418.538625 90.857122 
L 427.987075 80.451691 
L 437.435525 69.900686 
L 446.883975 61.120601 
L 456.332425 55.65746 
L 465.780875 50.199346 
L 475.229325 46.179777 
L 484.677775 46.225136 
L 494.126225 47.10205 
L 503.574675 47.546372 
L 513.023125 47.24148 
L 522.471575 47.115457 
L 531.920025 50.119911 
L 541.368475 54.963213 
L 550.816925 59.995216 
L 560.265375 64.979848 
L 569.713825 72.264409 
L 579.162275 81.118566 
L 588.610725 88.650705 
L 598.059175 96.063635 
L 607.507625 104.304657 
L 616.956075 114.383186 
L 626.404525 126.829348 
L 635.852975 140.368161 
L 645.301425 153.736261 
L 654.749875 167.270381 
L 664.198325 180.575693 
L 673.646775 193.158269 
L 683.095225 205.010735 
L 692.543675 216.267383 
L 701.992125 226.882517 
L 711.440575 236.222669 
L 720.889025 243.569348 
L 730.337475 249.600824 
L 739.785925 254.569703 
L 749.234375 258.497883 
L 758.682825 261.639309 
L 768.131275 264.069172 
L 777.579725 266.142304 
L 787.028175 267.856469 
L 796.476625 269.2539 
L 805.925075 270.429226 
L 815.373525 271.352281 
L 824.821975 272.075128 
L 834.270425 272.667372 
L 843.718875 273.108566 
L 853.167325 273.414463 
L 862.615775 273.625061 
L 872.064225 273.758458 
L 881.512675 273.844262 
L 890.961125 273.889956 
L 900.409575 273.924479 
L 909.858025 273.954309 
L 919.306475 273.969838 
L 928.754925 273.976542 
L 938.203375 273.98291 
L 947.651825 273.986038 
L 957.100275 273.987267 
L 966.548725 273.988161 
L 975.997175 273.989166 
L 985.445625 273.989725 
" clip-path="url(#p66290091e9)" style="fill: none; stroke: #5cb85c; stroke-linecap: square"/>
   </g>
   <g id="line2d_11">
    <path d="M 40.600625 273.986538 
L 50.049075 273.98736 
L 59.497525 273.988416 
L 68.945975 273.988651 
L 78.394425 273.988181 
L 87.842875 273.987594 
L 97.291325 273.987125 
L 106.739775 273.986655 
L 116.188225 273.984542 
L 125.636675 273.978554 
L 135.085125 273.972801 
L 144.533575 273.968339 
L 153.982025 273.954485 
L 163.430475 273.934642 
L 172.878925 273.906934 
L 182.327375 273.856447 
L 191.775825 273.771795 
L 201.224275 273.629494 
L 210.672725 273.376123 
L 220.121175 272.923272 
L 229.569625 272.116665 
L 239.018075 270.852511 
L 248.466525 269.013752 
L 257.914975 266.403022 
L 267.363425 262.890935 
L 276.811875 258.154848 
L 286.260325 252.260863 
L 295.708775 245.225065 
L 305.157225 237.098411 
L 314.605675 227.926807 
L 324.054125 217.924057 
L 333.502575 208.128418 
L 342.951025 198.08434 
L 352.399475 186.185066 
L 361.847925 173.010835 
L 371.296375 159.390212 
L 380.744825 144.907799 
L 390.193275 128.939326 
L 399.641725 114.09529 
L 409.090175 100.053634 
L 418.538625 87.669456 
L 427.987075 77.414157 
L 437.435525 66.854649 
L 446.883975 58.524171 
L 456.332425 53.700261 
L 465.780875 49.198525 
L 475.229325 45.742207 
L 484.677775 46.033736 
L 494.126225 47.358357 
L 503.574675 48.413051 
L 513.023125 49.045657 
L 522.471575 49.716655 
L 531.920025 52.815107 
L 541.368475 58.373651 
L 550.816925 64.009099 
L 560.265375 69.138392 
L 569.713825 76.717211 
L 579.162275 85.462734 
L 588.610725 93.326625 
L 598.059175 101.137564 
L 607.507625 109.200817 
L 616.956075 118.750247 
L 626.404525 130.789004 
L 635.852975 143.892202 
L 645.301425 156.676044 
L 654.749875 169.729459 
L 664.198325 182.541479 
L 673.646775 194.585286 
L 683.095225 205.885534 
L 692.543675 216.612117 
L 701.992125 226.748245 
L 711.440575 235.876055 
L 720.889025 242.962808 
L 730.337475 248.855972 
L 739.785925 253.798935 
L 749.234375 257.678163 
L 758.682825 260.89426 
L 768.131275 263.512973 
L 777.579725 265.731789 
L 787.028175 267.555402 
L 796.476625 268.986161 
L 805.925075 270.260295 
L 815.373525 271.311232 
L 824.821975 272.079329 
L 834.270425 272.698667 
L 843.718875 273.161497 
L 853.167325 273.451735 
L 862.615775 273.651332 
L 872.064225 273.784945 
L 881.512675 273.85586 
L 890.961125 273.906934 
L 900.409575 273.938869 
L 909.858025 273.955776 
L 919.306475 273.969513 
L 928.754925 273.977027 
L 938.203375 273.98325 
L 947.651825 273.987829 
L 957.100275 273.988534 
L 966.548725 273.988768 
L 975.997175 273.989121 
L 985.445625 273.989825 
" clip-path="url(#p66290091e9)" style="fill: none; stroke: #5cb85c; stroke-linecap: square"/>
   </g>
   <g id="line2d_12">
    <path d="M 40.600625 273.986361 
L 50.049075 273.987201 
L 59.497525 273.988715 
L 68.945975 273.988883 
L 78.394425 273.988547 
L 87.842875 273.988883 
L 97.291325 273.988378 
L 106.739775 273.987369 
L 116.188225 273.985688 
L 125.636675 273.983334 
L 135.085125 273.980643 
L 144.533575 273.975262 
L 153.982025 273.96635 
L 163.430475 273.949198 
L 172.878925 273.928683 
L 182.327375 273.892025 
L 191.775825 273.815177 
L 201.224275 273.690909 
L 210.672725 273.455154 
L 220.121175 273.00214 
L 229.569625 272.23585 
L 239.018075 271.105669 
L 248.466525 269.360036 
L 257.914975 266.83096 
L 267.363425 263.40376 
L 276.811875 258.960053 
L 286.260325 253.330337 
L 295.708775 246.39909 
L 305.157225 238.563664 
L 314.605675 229.539034 
L 324.054125 219.664877 
L 333.502575 210.033707 
L 342.951025 200.184437 
L 352.399475 188.461566 
L 361.847925 174.936057 
L 371.296375 161.061958 
L 380.744825 146.791515 
L 390.193275 130.803183 
L 399.641725 115.57492 
L 409.090175 101.378465 
L 418.538625 88.610837 
L 427.987075 78.146787 
L 437.435525 67.502136 
L 446.883975 58.724361 
L 456.332425 53.721869 
L 465.780875 48.692305 
L 475.229325 44.275839 
L 484.677775 44.210595 
L 494.126225 45.658087 
L 503.574675 46.641803 
L 513.023125 47.088763 
L 522.471575 47.696145 
L 531.920025 50.73524 
L 541.368475 55.798099 
L 550.816925 61.096378 
L 560.265375 66.053635 
L 569.713825 73.530719 
L 579.162275 82.761341 
L 588.610725 90.435505 
L 598.059175 98.404447 
L 607.507625 106.928811 
L 616.956075 116.464973 
L 626.404525 128.780595 
L 635.852975 142.253304 
L 645.301425 155.525065 
L 654.749875 168.967001 
L 664.198325 182.308884 
L 673.646775 194.851182 
L 683.095225 206.349395 
L 692.543675 217.283275 
L 701.992125 227.668964 
L 711.440575 236.988204 
L 720.889025 244.311425 
L 730.337475 250.186818 
L 739.785925 255.108594 
L 749.234375 259.044636 
L 758.682825 262.136195 
L 768.131275 264.614319 
L 777.579725 266.649183 
L 787.028175 268.267018 
L 796.476625 269.636149 
L 805.925075 270.759435 
L 815.373525 271.63839 
L 824.821975 272.313707 
L 834.270425 272.843568 
L 843.718875 273.244454 
L 853.167325 273.518044 
L 862.615775 273.693264 
L 872.064225 273.810805 
L 881.512675 273.876386 
L 890.961125 273.920611 
L 900.409575 273.94533 
L 909.858025 273.959792 
L 919.306475 273.973581 
L 928.754925 273.979634 
L 938.203375 273.984175 
L 947.651825 273.98821 
L 957.100275 273.988883 
L 966.548725 273.989387 
L 975.997175 273.989724 
L 985.445625 273.99006 
" clip-path="url(#p66290091e9)" style="fill: none; stroke: #5cb85c; stroke-linecap: square"/>
   </g>
   <g id="line2d_13">
    <path d="M 40.600625 273.983168 
L 50.049075 273.98573 
L 59.497525 273.988558 
L 68.945975 273.989 
L 78.394425 273.988558 
L 87.842875 273.988293 
L 97.291325 273.988204 
L 106.739775 273.986437 
L 116.188225 273.983256 
L 125.636675 273.979721 
L 135.085125 273.975922 
L 144.533575 273.967173 
L 153.982025 273.959132 
L 163.430475 273.947645 
L 172.878925 273.917512 
L 182.327375 273.874567 
L 191.775825 273.794949 
L 201.224275 273.660987 
L 210.672725 273.435391 
L 220.121175 273.008763 
L 229.569625 272.221074 
L 239.018075 271.049173 
L 248.466525 269.2968 
L 257.914975 266.705133 
L 267.363425 263.260299 
L 276.811875 258.766568 
L 286.260325 253.039345 
L 295.708775 246.280015 
L 305.157225 238.534793 
L 314.605675 229.555461 
L 324.054125 219.939987 
L 333.502575 210.397237 
L 342.951025 200.577462 
L 352.399475 188.949202 
L 361.847925 175.918054 
L 371.296375 162.64125 
L 380.744825 148.193605 
L 390.193275 132.395561 
L 399.641725 117.652865 
L 409.090175 103.50796 
L 418.538625 90.967858 
L 427.987075 80.598539 
L 437.435525 69.764153 
L 446.883975 60.935837 
L 456.332425 55.752061 
L 465.780875 50.449169 
L 475.229325 46.53264 
L 484.677775 46.563392 
L 494.126225 47.250697 
L 503.574675 47.842657 
L 513.023125 47.652406 
L 522.471575 47.557855 
L 531.920025 50.737682 
L 541.368475 55.374299 
L 550.816925 60.067383 
L 560.265375 65.206622 
L 569.713825 72.746925 
L 579.162275 81.575418 
L 588.610725 88.935897 
L 598.059175 96.351605 
L 607.507625 104.657682 
L 616.956075 114.833922 
L 626.404525 127.441624 
L 635.852975 141.047677 
L 645.301425 154.234878 
L 654.749875 167.625673 
L 664.198325 181.039443 
L 673.646775 193.529177 
L 683.095225 205.112283 
L 692.543675 216.285108 
L 701.992125 226.790421 
L 711.440575 235.927662 
L 720.889025 243.2482 
L 730.337475 249.26049 
L 739.785925 254.177491 
L 749.234375 258.189896 
L 758.682825 261.385098 
L 768.131275 263.92728 
L 777.579725 266.093291 
L 787.028175 267.829847 
L 796.476625 269.265696 
L 805.925075 270.486021 
L 815.373525 271.44885 
L 824.821975 272.196774 
L 834.270425 272.792003 
L 843.718875 273.206878 
L 853.167325 273.488852 
L 862.615775 273.67168 
L 872.064225 273.787615 
L 881.512675 273.862991 
L 890.961125 273.905318 
L 900.409575 273.934478 
L 909.858025 273.955863 
L 919.306475 273.970796 
L 928.754925 273.979279 
L 938.203375 273.98414 
L 947.651825 273.986525 
L 957.100275 273.987851 
L 966.548725 273.988558 
L 975.997175 273.989265 
L 985.445625 273.989883 
" clip-path="url(#p66290091e9)" style="fill: none; stroke: #5cb85c; stroke-linecap: square"/>
   </g>
   <g id="line2d_14">
    <path d="M 40.600625 273.98536 
L 50.049075 273.987123 
L 59.497525 273.988768 
L 68.945975 273.988415 
L 78.394425 273.988415 
L 87.842875 273.98771 
L 97.291325 273.986183 
L 106.739775 273.985595 
L 116.188225 273.983715 
L 125.636675 273.979485 
L 135.085125 273.973258 
L 144.533575 273.963388 
L 153.982025 273.953754 
L 163.430475 273.938009 
L 172.878925 273.905933 
L 182.327375 273.855058 
L 191.775825 273.771518 
L 201.224275 273.633696 
L 210.672725 273.387543 
L 220.121175 272.940707 
L 229.569625 272.133512 
L 239.018075 270.889703 
L 248.466525 269.10659 
L 257.914975 266.481268 
L 267.363425 262.911752 
L 276.811875 258.40838 
L 286.260325 252.554514 
L 295.708775 245.520992 
L 305.157225 237.623642 
L 314.605675 228.454049 
L 324.054125 218.350014 
L 333.502575 208.330576 
L 342.951025 198.18906 
L 352.399475 186.192876 
L 361.847925 172.952414 
L 371.296375 159.105439 
L 380.744825 144.308394 
L 390.193275 128.262606 
L 399.641725 112.856935 
L 409.090175 98.529285 
L 418.538625 86.179087 
L 427.987075 75.873664 
L 437.435525 65.113417 
L 446.883975 56.462802 
L 456.332425 51.563471 
L 465.780875 46.740511 
L 475.229325 43.030822 
L 484.677775 43.736618 
L 494.126225 45.212128 
L 503.574675 46.609856 
L 513.023125 47.524206 
L 522.471575 47.797971 
L 531.920025 51.202289 
L 541.368475 56.959339 
L 550.816925 62.955962 
L 560.265375 68.871279 
L 569.713825 76.5898 
L 579.162275 85.858089 
L 588.610725 94.198397 
L 598.059175 102.306417 
L 607.507625 110.735786 
L 616.956075 120.544202 
L 626.404525 132.767271 
L 635.852975 145.976244 
L 645.301425 159.014145 
L 654.749875 171.91481 
L 664.198325 184.652744 
L 673.646775 196.718603 
L 683.095225 207.796441 
L 692.543675 218.454351 
L 701.992125 228.341371 
L 711.440575 237.105251 
L 720.889025 244.089895 
L 730.337475 249.751421 
L 739.785925 254.537957 
L 749.234375 258.386878 
L 758.682825 261.538345 
L 768.131275 263.976967 
L 777.579725 265.998479 
L 787.028175 267.718967 
L 796.476625 269.133144 
L 805.925075 270.31985 
L 815.373525 271.253587 
L 824.821975 271.978418 
L 834.270425 272.58822 
L 843.718875 273.0602 
L 853.167325 273.380023 
L 862.615775 273.597507 
L 872.064225 273.737562 
L 881.512675 273.833086 
L 890.961125 273.888426 
L 900.409575 273.92532 
L 909.858025 273.953754 
L 919.306475 273.967266 
L 928.754925 273.974903 
L 938.203375 273.981835 
L 947.651825 273.985478 
L 957.100275 273.987123 
L 966.548725 273.98771 
L 975.997175 273.98912 
L 985.445625 273.989943 
" clip-path="url(#p66290091e9)" style="fill: none; stroke: #5cb85c; stroke-linecap: square"/>
   </g>
   <g id="line2d_15">
    <path d="M 40.600625 273.985499 
L 50.049075 273.987323 
L 59.497525 273.989376 
L 68.945975 273.989148 
L 78.394425 273.989148 
L 87.842875 273.988463 
L 97.291325 273.986183 
L 106.739775 273.984586 
L 116.188225 273.983218 
L 125.636675 273.981393 
L 135.085125 273.9782 
L 144.533575 273.973183 
L 153.982025 273.968849 
L 163.430475 273.956077 
L 172.878925 273.925287 
L 182.327375 273.874199 
L 191.775825 273.787531 
L 201.224275 273.647039 
L 210.672725 273.395931 
L 220.121175 272.916294 
L 229.569625 272.051214 
L 239.018075 270.767622 
L 248.466525 268.907917 
L 257.914975 266.144133 
L 267.363425 262.4489 
L 276.811875 257.663479 
L 286.260325 251.484535 
L 295.708775 244.289983 
L 305.157225 236.163755 
L 314.605675 226.650388 
L 324.054125 216.416996 
L 333.502575 206.474397 
L 342.951025 196.334743 
L 352.399475 184.392859 
L 361.847925 171.148224 
L 371.296375 157.368303 
L 380.744825 142.97555 
L 390.193275 127.108764 
L 399.641725 111.790948 
L 409.090175 97.635619 
L 418.538625 85.494399 
L 427.987075 75.848067 
L 437.435525 65.866467 
L 446.883975 57.642623 
L 456.332425 52.720587 
L 465.780875 48.129029 
L 475.229325 44.840449 
L 484.677775 45.411543 
L 494.126225 47.009648 
L 503.574675 48.385611 
L 513.023125 49.445008 
L 522.471575 50.165718 
L 531.920025 53.178557 
L 541.368475 58.430158 
L 550.816925 64.123992 
L 560.265375 69.175573 
L 569.713825 76.215948 
L 579.162275 85.212274 
L 588.610725 93.611505 
L 598.059175 101.633733 
L 607.507625 109.881296 
L 616.956075 119.910106 
L 626.404525 131.856324 
L 635.852975 144.824763 
L 645.301425 157.654534 
L 654.749875 170.840326 
L 664.198325 183.839783 
L 673.646775 195.882475 
L 683.095225 207.400372 
L 692.543675 218.385948 
L 701.992125 228.577146 
L 711.440575 237.525576 
L 720.889025 244.811357 
L 730.337475 250.834756 
L 739.785925 255.665791 
L 749.234375 259.581114 
L 758.682825 262.691797 
L 768.131275 265.121227 
L 777.579725 267.158144 
L 787.028175 268.77746 
L 796.476625 270.022052 
L 805.925075 271.001168 
L 815.373525 271.83523 
L 824.821975 272.495044 
L 834.270425 272.983575 
L 843.718875 273.339141 
L 853.167325 273.572687 
L 862.615775 273.716145 
L 872.064225 273.81376 
L 881.512675 273.882866 
L 890.961125 273.927796 
L 900.409575 273.955621 
L 909.858025 273.966797 
L 919.306475 273.974323 
L 928.754925 273.982534 
L 938.203375 273.985042 
L 947.651825 273.987779 
L 957.100275 273.988463 
L 966.548725 273.988692 
L 975.997175 273.989148 
L 985.445625 273.99006 
" clip-path="url(#p66290091e9)" style="fill: none; stroke: #5cb85c; stroke-linecap: square"/>
   </g>
   <g id="line2d_16">
    <path d="M 40.600625 273.984898 
L 50.049075 273.985451 
L 59.497525 273.987387 
L 68.945975 273.989138 
L 78.394425 273.98923 
L 87.842875 273.988401 
L 97.291325 273.987479 
L 106.739775 273.985635 
L 116.188225 273.984345 
L 125.636675 273.981671 
L 135.085125 273.976325 
L 144.533575 273.968674 
L 153.982025 273.959179 
L 163.430475 273.945628 
L 172.878925 273.91825 
L 182.327375 273.876952 
L 191.775825 273.793804 
L 201.224275 273.659678 
L 210.672725 273.442865 
L 220.121175 272.999284 
L 229.569625 272.221449 
L 239.018075 271.056908 
L 248.466525 269.336877 
L 257.914975 266.777249 
L 267.363425 263.334789 
L 276.811875 258.938519 
L 286.260325 253.320002 
L 295.708775 246.520998 
L 305.157225 238.835198 
L 314.605675 230.133088 
L 324.054125 220.463801 
L 333.502575 210.758746 
L 342.951025 200.849969 
L 352.399475 189.209821 
L 361.847925 176.087105 
L 371.296375 162.519516 
L 380.744825 147.945019 
L 390.193275 131.815773 
L 399.641725 116.74174 
L 409.090175 102.651477 
L 418.538625 90.147488 
L 427.987075 79.64607 
L 437.435525 68.998635 
L 446.883975 60.481627 
L 456.332425 55.245114 
L 465.780875 50.090551 
L 475.229325 46.387032 
L 484.677775 46.551761 
L 494.126225 47.256957 
L 503.574675 47.546502 
L 513.023125 47.284335 
L 522.471575 47.366009 
L 531.920025 50.711308 
L 541.368475 55.784473 
L 550.816925 60.531867 
L 560.265375 65.374945 
L 569.713825 72.693674 
L 579.162275 81.363705 
L 588.610725 89.067295 
L 598.059175 96.75715 
L 607.507625 104.981294 
L 616.956075 115.02936 
L 626.404525 127.570958 
L 635.852975 141.170258 
L 645.301425 154.585009 
L 654.749875 168.076916 
L 664.198325 181.261671 
L 673.646775 193.656884 
L 683.095225 205.377322 
L 692.543675 216.512956 
L 701.992125 226.850473 
L 711.440575 236.066961 
L 720.889025 243.430767 
L 730.337475 249.398194 
L 739.785925 254.313728 
L 749.234375 258.231019 
L 758.682825 261.345309 
L 768.131275 263.889174 
L 777.579725 266.037669 
L 787.028175 267.7695 
L 796.476625 269.212523 
L 805.925075 270.439194 
L 815.373525 271.461036 
L 824.821975 272.216286 
L 834.270425 272.803304 
L 843.718875 273.232044 
L 853.167325 273.500203 
L 862.615775 273.683461 
L 872.064225 273.794726 
L 881.512675 273.869393 
L 890.961125 273.914563 
L 900.409575 273.94065 
L 909.858025 273.959548 
L 919.306475 273.970333 
L 928.754925 273.977154 
L 938.203375 273.983054 
L 947.651825 273.986373 
L 957.100275 273.987755 
L 966.548725 273.988862 
L 975.997175 273.989691 
L 985.445625 273.989968 
" clip-path="url(#p66290091e9)" style="fill: none; stroke: #5cb85c; stroke-linecap: square"/>
   </g>
   <g id="line2d_17">
    <path d="M 40.600625 273.985405 
L 50.049075 273.986646 
L 59.497525 273.988508 
L 68.945975 273.988353 
L 78.394425 273.988663 
L 87.842875 273.988353 
L 97.291325 273.987267 
L 106.739775 273.984008 
L 116.188225 273.980284 
L 125.636675 273.977801 
L 135.085125 273.969266 
L 144.533575 273.959955 
L 153.982025 273.951265 
L 163.430475 273.934506 
L 172.878925 273.903004 
L 182.327375 273.852726 
L 191.775825 273.76536 
L 201.224275 273.605835 
L 210.672725 273.343581 
L 220.121175 272.861283 
L 229.569625 272.005467 
L 239.018075 270.756891 
L 248.466525 268.917081 
L 257.914975 266.215402 
L 267.363425 262.541523 
L 276.811875 257.740263 
L 286.260325 251.806502 
L 295.708775 244.824502 
L 305.157225 236.849352 
L 314.605675 227.720131 
L 324.054125 217.751698 
L 333.502575 208.004396 
L 342.951025 198.094621 
L 352.399475 186.335104 
L 361.847925 173.466517 
L 371.296375 160.261502 
L 380.744825 145.948658 
L 390.193275 130.175263 
L 399.641725 115.569905 
L 409.090175 102.18845 
L 418.538625 90.014138 
L 427.987075 79.928234 
L 437.435525 70.175035 
L 446.883975 62.240697 
L 456.332425 57.172839 
L 465.780875 52.601866 
L 475.229325 49.33735 
L 484.677775 49.795286 
L 494.126225 51.118969 
L 503.574675 51.900298 
L 513.023125 52.049426 
L 522.471575 51.762188 
L 531.920025 54.274082 
L 541.368475 58.820847 
L 550.816925 63.504636 
L 560.265375 68.299999 
L 569.713825 74.944327 
L 579.162275 82.905822 
L 588.610725 90.334118 
L 598.059175 97.768157 
L 607.507625 105.37103 
L 616.956075 114.815422 
L 626.404525 126.809105 
L 635.852975 139.840009 
L 645.301425 152.659093 
L 654.749875 165.945113 
L 664.198325 179.365673 
L 673.646775 191.78129 
L 683.095225 203.542359 
L 692.543675 214.719021 
L 701.992125 225.380642 
L 711.440575 235.015284 
L 720.889025 242.557017 
L 730.337475 248.867864 
L 739.785925 253.979639 
L 749.234375 257.98374 
L 758.682825 261.426091 
L 768.131275 264.137857 
L 777.579725 266.296716 
L 787.028175 268.057075 
L 796.476625 269.440191 
L 805.925075 270.567727 
L 815.373525 271.493839 
L 824.821975 272.207976 
L 834.270425 272.741329 
L 843.718875 273.153641 
L 853.167325 273.455466 
L 862.615775 273.651148 
L 872.064225 273.77405 
L 881.512675 273.847605 
L 890.961125 273.897107 
L 900.409575 273.932954 
L 909.858025 273.95592 
L 919.306475 273.970663 
L 928.754925 273.978577 
L 938.203375 273.981525 
L 947.651825 273.984629 
L 957.100275 273.988353 
L 966.548725 273.988663 
L 975.997175 273.989284 
L 985.445625 273.99006 
" clip-path="url(#p66290091e9)" style="fill: none; stroke: #5cb85c; stroke-linecap: square"/>
   </g>
   <g id="line2d_18">
    <path d="M 40.600625 273.983501 
L 50.049075 273.986125 
L 59.497525 273.988748 
L 68.945975 273.989076 
L 78.394425 273.98924 
L 87.842875 273.988912 
L 97.291325 273.987764 
L 106.739775 273.986781 
L 116.188225 273.984977 
L 125.636675 273.982189 
L 135.085125 273.977926 
L 144.533575 273.973007 
L 153.982025 273.966776 
L 163.430475 273.95497 
L 172.878925 273.929718 
L 182.327375 273.885609 
L 191.775825 273.808378 
L 201.224275 273.693269 
L 210.672725 273.48404 
L 220.121175 273.076568 
L 229.569625 272.321146 
L 239.018075 271.190226 
L 248.466525 269.560502 
L 257.914975 267.161746 
L 267.363425 263.895246 
L 276.811875 259.587683 
L 286.260325 254.015728 
L 295.708775 247.222831 
L 305.157225 239.550057 
L 314.605675 230.896727 
L 324.054125 221.448949 
L 333.502575 212.004286 
L 342.951025 202.373843 
L 352.399475 190.81836 
L 361.847925 178.114084 
L 371.296375 165.219764 
L 380.744825 151.06925 
L 390.193275 135.279008 
L 399.641725 120.540979 
L 409.090175 106.601661 
L 418.538625 94.223036 
L 427.987075 84.1579 
L 437.435525 73.481639 
L 446.883975 64.485934 
L 456.332425 59.365231 
L 465.780875 54.290276 
L 475.229325 50.134552 
L 484.677775 50.407731 
L 494.126225 50.922441 
L 503.574675 50.81012 
L 513.023125 50.762732 
L 522.471575 50.357555 
L 531.920025 52.400819 
L 541.368475 56.811848 
L 550.816925 61.079401 
L 560.265375 64.798465 
L 569.713825 70.809868 
L 579.162275 78.921269 
L 588.610725 86.400063 
L 598.059175 93.104906 
L 607.507625 100.220009 
L 616.956075 109.611708 
L 626.404525 121.680425 
L 635.852975 134.847924 
L 645.301425 148.333857 
L 654.749875 162.033775 
L 664.198325 175.434934 
L 673.646775 188.343356 
L 683.095225 200.562436 
L 692.543675 212.34289 
L 701.992125 223.489753 
L 711.440575 233.412724 
L 720.889025 241.338507 
L 730.337475 247.858717 
L 739.785925 253.189961 
L 749.234375 257.440133 
L 758.682825 260.878476 
L 768.131275 263.641252 
L 777.579725 265.97114 
L 787.028175 267.72614 
L 796.476625 269.099247 
L 805.925075 270.335273 
L 815.373525 271.347476 
L 824.821975 272.075187 
L 834.270425 272.657618 
L 843.718875 273.130023 
L 853.167325 273.451246 
L 862.615775 273.660147 
L 872.064225 273.781979 
L 881.512675 273.857406 
L 890.961125 273.912993 
L 900.409575 273.944312 
L 909.858025 273.960217 
L 919.306475 273.971367 
L 928.754925 273.978746 
L 938.203375 273.983829 
L 947.651825 273.986945 
L 957.100275 273.988584 
L 966.548725 273.989076 
L 975.997175 273.98924 
L 985.445625 273.989896 
" clip-path="url(#p66290091e9)" style="fill: none; stroke: #5cb85c; stroke-linecap: square"/>
   </g>
   <g id="line2d_19">
    <path d="M 40.600625 273.983348 
L 50.049075 273.984355 
L 59.497525 273.986704 
L 68.945975 273.988158 
L 78.394425 273.987934 
L 87.842875 273.987487 
L 97.291325 273.986704 
L 106.739775 273.985026 
L 116.188225 273.982229 
L 125.636675 273.977642 
L 135.085125 273.972944 
L 144.533575 273.963994 
L 153.982025 273.951353 
L 163.430475 273.93625 
L 172.878925 273.904927 
L 182.327375 273.8519 
L 191.775825 273.757035 
L 201.224275 273.607017 
L 210.672725 273.345576 
L 220.121175 272.840147 
L 229.569625 271.942837 
L 239.018075 270.615051 
L 248.466525 268.7504 
L 257.914975 266.022223 
L 267.363425 262.408818 
L 276.811875 257.797756 
L 286.260325 251.899181 
L 295.708775 244.874521 
L 305.157225 237.108274 
L 314.605675 228.358129 
L 324.054125 218.750612 
L 333.502575 209.174306 
L 342.951025 199.118749 
L 352.399475 187.33245 
L 361.847925 174.400041 
L 371.296375 161.201493 
L 380.744825 146.921161 
L 390.193275 131.092659 
L 399.641725 116.402659 
L 409.090175 102.677538 
L 418.538625 90.409974 
L 427.987075 80.273423 
L 437.435525 70.24024 
L 446.883975 62.15382 
L 456.332425 57.021779 
L 465.780875 51.740838 
L 475.229325 47.831873 
L 484.677775 48.073512 
L 494.126225 48.932898 
L 503.574675 49.058305 
L 513.023125 48.785118 
L 522.471575 48.66139 
L 531.920025 51.452997 
L 541.368475 56.392957 
L 550.816925 61.113205 
L 560.265375 65.856721 
L 569.713825 73.078944 
L 579.162275 81.559593 
L 588.610725 89.080174 
L 598.059175 96.976749 
L 607.507625 105.52866 
L 616.956075 115.541706 
L 626.404525 128.267155 
L 635.852975 141.910051 
L 645.301425 155.22528 
L 654.749875 168.81459 
L 664.198325 182.021752 
L 673.646775 194.549415 
L 683.095225 206.093403 
L 692.543675 217.061037 
L 701.992125 227.461602 
L 711.440575 236.446226 
L 720.889025 243.575261 
L 730.337475 249.40045 
L 739.785925 254.160076 
L 749.234375 257.86857 
L 758.682825 260.847335 
L 768.131275 263.377278 
L 777.579725 265.564003 
L 787.028175 267.299892 
L 796.476625 268.769977 
L 805.925075 270.097875 
L 815.373525 271.160753 
L 824.821975 271.978859 
L 834.270425 272.639452 
L 843.718875 273.126423 
L 853.167325 273.436415 
L 862.615775 273.639459 
L 872.064225 273.772137 
L 881.512675 273.85011 
L 890.961125 273.895865 
L 900.409575 273.932894 
L 909.858025 273.954709 
L 919.306475 273.968245 
L 928.754925 273.977419 
L 938.203375 273.98346 
L 947.651825 273.987263 
L 957.100275 273.987151 
L 966.548725 273.98827 
L 975.997175 273.989724 
L 985.445625 273.99006 
" clip-path="url(#p66290091e9)" style="fill: none; stroke: #5cb85c; stroke-linecap: square"/>
   </g>
   <g id="line2d_20">
    <path d="M 40.600625 273.987493 
L 50.049075 273.988007 
L 59.497525 273.98852 
L 68.945975 273.989033 
L 78.394425 273.989033 
L 87.842875 273.987878 
L 97.291325 273.987878 
L 106.739775 273.986595 
L 116.188225 273.982873 
L 125.636675 273.98005 
L 135.085125 273.974274 
L 144.533575 273.964649 
L 153.982025 273.95297 
L 163.430475 273.938981 
L 172.878925 273.910105 
L 182.327375 273.860438 
L 191.775825 273.775349 
L 201.224275 273.642904 
L 210.672725 273.409327 
L 220.121175 272.948592 
L 229.569625 272.153533 
L 239.018075 270.968326 
L 248.466525 269.226385 
L 257.914975 266.656274 
L 267.363425 263.222059 
L 276.811875 258.667319 
L 286.260325 252.991926 
L 295.708775 246.057402 
L 305.157225 238.127226 
L 314.605675 229.267108 
L 324.054125 219.581003 
L 333.502575 209.870128 
L 342.951025 199.705961 
L 352.399475 187.986842 
L 361.847925 174.988058 
L 371.296375 161.383644 
L 380.744825 146.691303 
L 390.193275 130.670785 
L 399.641725 115.973182 
L 409.090175 102.135705 
L 418.538625 89.127039 
L 427.987075 78.462736 
L 437.435525 68.199876 
L 446.883975 60.019697 
L 456.332425 54.964821 
L 465.780875 49.837562 
L 475.229325 46.185172 
L 484.677775 46.638079 
L 494.126225 47.598052 
L 503.574675 48.084713 
L 513.023125 48.358331 
L 522.471575 48.397346 
L 531.920025 51.159579 
L 541.368475 56.100875 
L 550.816925 61.289865 
L 560.265375 66.777499 
L 569.713825 74.071628 
L 579.162275 82.513362 
L 588.610725 90.596004 
L 598.059175 98.447123 
L 607.507625 106.793886 
L 616.956075 116.866034 
L 626.404525 129.035493 
L 635.852975 142.361669 
L 645.301425 155.652937 
L 654.749875 168.820743 
L 664.198325 181.909877 
L 673.646775 194.300463 
L 683.095225 205.578995 
L 692.543675 216.480982 
L 701.992125 226.92159 
L 711.440575 236.084844 
L 720.889025 243.34214 
L 730.337475 249.317718 
L 739.785925 254.136322 
L 749.234375 257.908324 
L 758.682825 261.086247 
L 768.131275 263.657897 
L 777.579725 265.792426 
L 787.028175 267.571586 
L 796.476625 268.980616 
L 805.925075 270.168647 
L 815.373525 271.118354 
L 824.821975 271.869263 
L 834.270425 272.492733 
L 843.718875 272.975928 
L 853.167325 273.327447 
L 862.615775 273.563847 
L 872.064225 273.718495 
L 881.512675 273.816931 
L 890.961125 273.880844 
L 900.409575 273.91665 
L 909.858025 273.948222 
L 919.306475 273.966574 
L 928.754925 273.976456 
L 938.203375 273.983515 
L 947.651825 273.987108 
L 957.100275 273.988135 
L 966.548725 273.988135 
L 975.997175 273.988392 
L 985.445625 273.989418 
" clip-path="url(#p66290091e9)" style="fill: none; stroke: #5cb85c; stroke-linecap: square"/>
   </g>
   <g id="line2d_21">
    <path d="M 40.600625 273.99006 
L 985.445625 273.99006 
" clip-path="url(#p66290091e9)" style="fill: none; stroke: #dedede; stroke-width: 2; stroke-linecap: square"/>
   </g>
   <g id="text_17">
    <!-- FastQC: Per Sequence GC Content -->
    <g transform="translate(376.386875 19.3575)scale(0.16 -0.16)">
     <defs>
      <path id="DejaVuSans-46" d="M 628 4666 
L 3309 4666 
L 3309 4134 
L 1259 4134 
L 1259 2759 
L 3109 2759 
L 3109 2228 
L 1259 2228 
L 1259 0 
L 628 0 
L 628 4666 
z
" transform="scale(0.015625)"/>
      <path id="DejaVuSans-73" d="M 2834 3397 
L 2834 2853 
Q 2591 2978 2328 3040 
Q 2066 3103 1784 3103 
Q 1356 3103 1142 2972 
Q 928 2841 928 2578 
Q 928 2378 1081 2264 
Q 1234 2150 1697 2047 
L 1894 2003 
Q 2506 1872 2764 1633 
Q 3022 1394 3022 966 
Q 3022 478 2636 193 
Q 2250 -91 1575 -91 
Q 1294 -91 989 -36 
Q 684 19 347 128 
L 347 722 
Q 666 556 975 473 
Q 1284 391 1588 391 
Q 1994 391 2212 530 
Q 2431 669 2431 922 
Q 2431 1156 2273 1281 
Q 2116 1406 1581 1522 
L 1381 1569 
Q 847 1681 609 1914 
Q 372 2147 372 2553 
Q 372 3047 722 3315 
Q 1072 3584 1716 3584 
Q 2034 3584 2315 3537 
Q 2597 3491 2834 3397 
z
" transform="scale(0.015625)"/>
      <path id="DejaVuSans-51" d="M 2522 4238 
Q 1834 4238 1429 3725 
Q 1025 3213 1025 2328 
Q 1025 1447 1429 934 
Q 1834 422 2522 422 
Q 3209 422 3611 934 
Q 4013 1447 4013 2328 
Q 4013 3213 3611 3725 
Q 3209 4238 2522 4238 
z
M 3406 84 
L 4238 -825 
L 3475 -825 
L 2784 -78 
Q 2681 -84 2626 -87 
Q 2572 -91 2522 -91 
Q 1538 -91 948 567 
Q 359 1225 359 2328 
Q 359 3434 948 4092 
Q 1538 4750 2522 4750 
Q 3503 4750 4090 4092 
Q 4678 3434 4678 2328 
Q 4678 1516 4351 937 
Q 4025 359 3406 84 
z
" transform="scale(0.015625)"/>
      <path id="DejaVuSans-3a" d="M 750 794 
L 1409 794 
L 1409 0 
L 750 0 
L 750 794 
z
M 750 3309 
L 1409 3309 
L 1409 2516 
L 750 2516 
L 750 3309 
z
" transform="scale(0.015625)"/>
      <path id="DejaVuSans-53" d="M 3425 4513 
L 3425 3897 
Q 3066 4069 2747 4153 
Q 2428 4238 2131 4238 
Q 1616 4238 1336 4038 
Q 1056 3838 1056 3469 
Q 1056 3159 1242 3001 
Q 1428 2844 1947 2747 
L 2328 2669 
Q 3034 2534 3370 2195 
Q 3706 1856 3706 1288 
Q 3706 609 3251 259 
Q 2797 -91 1919 -91 
Q 1588 -91 1214 -16 
Q 841 59 441 206 
L 441 856 
Q 825 641 1194 531 
Q 1563 422 1919 422 
Q 2459 422 2753 634 
Q 3047 847 3047 1241 
Q 3047 1584 2836 1778 
Q 2625 1972 2144 2069 
L 1759 2144 
Q 1053 2284 737 2584 
Q 422 2884 422 3419 
Q 422 4038 858 4394 
Q 1294 4750 2059 4750 
Q 2388 4750 2728 4690 
Q 3069 4631 3425 4513 
z
" transform="scale(0.015625)"/>
      <path id="DejaVuSans-71" d="M 947 1747 
Q 947 1113 1208 752 
Q 1469 391 1925 391 
Q 2381 391 2643 752 
Q 2906 1113 2906 1747 
Q 2906 2381 2643 2742 
Q 2381 3103 1925 3103 
Q 1469 3103 1208 2742 
Q 947 2381 947 1747 
z
M 2906 525 
Q 2725 213 2448 61 
Q 2172 -91 1784 -91 
Q 1150 -91 751 415 
Q 353 922 353 1747 
Q 353 2572 751 3078 
Q 1150 3584 1784 3584 
Q 2172 3584 2448 3432 
Q 2725 3281 2906 2969 
L 2906 3500 
L 3481 3500 
L 3481 -1331 
L 2906 -1331 
L 2906 525 
z
" transform="scale(0.015625)"/>
      <path id="DejaVuSans-75" d="M 544 1381 
L 544 3500 
L 1119 3500 
L 1119 1403 
Q 1119 906 1312 657 
Q 1506 409 1894 409 
Q 2359 409 2629 706 
Q 2900 1003 2900 1516 
L 2900 3500 
L 3475 3500 
L 3475 0 
L 2900 0 
L 2900 538 
Q 2691 219 2414 64 
Q 2138 -91 1772 -91 
Q 1169 -91 856 284 
Q 544 659 544 1381 
z
M 1991 3584 
L 1991 3584 
z
" transform="scale(0.015625)"/>
      <path id="DejaVuSans-6f" d="M 1959 3097 
Q 1497 3097 1228 2736 
Q 959 2375 959 1747 
Q 959 1119 1226 758 
Q 1494 397 1959 397 
Q 2419 397 2687 759 
Q 2956 1122 2956 1747 
Q 2956 2369 2687 2733 
Q 2419 3097 1959 3097 
z
M 1959 3584 
Q 2709 3584 3137 3096 
Q 3566 2609 3566 1747 
Q 3566 888 3137 398 
Q 2709 -91 1959 -91 
Q 1206 -91 779 398 
Q 353 888 353 1747 
Q 353 2609 779 3096 
Q 1206 3584 1959 3584 
z
" transform="scale(0.015625)"/>
     </defs>
     <use xlink:href="#DejaVuSans-46"/>
     <use xlink:href="#DejaVuSans-61" x="48.394531"/>
     <use xlink:href="#DejaVuSans-73" x="109.673828"/>
     <use xlink:href="#DejaVuSans-74" x="161.773438"/>
     <use xlink:href="#DejaVuSans-51" x="200.982422"/>
     <use xlink:href="#DejaVuSans-43" x="279.693359"/>
     <use xlink:href="#DejaVuSans-3a" x="349.517578"/>
     <use xlink:href="#DejaVuSans-20" x="383.208984"/>
     <use xlink:href="#DejaVuSans-50" x="414.996094"/>
     <use xlink:href="#DejaVuSans-65" x="471.673828"/>
     <use xlink:href="#DejaVuSans-72" x="533.197266"/>
     <use xlink:href="#DejaVuSans-20" x="574.310547"/>
     <use xlink:href="#DejaVuSans-53" x="606.097656"/>
     <use xlink:href="#DejaVuSans-65" x="669.574219"/>
     <use xlink:href="#DejaVuSans-71" x="731.097656"/>
     <use xlink:href="#DejaVuSans-75" x="794.574219"/>
     <use xlink:href="#DejaVuSans-65" x="857.953125"/>
     <use xlink:href="#DejaVuSans-6e" x="919.476562"/>
     <use xlink:href="#DejaVuSans-63" x="982.855469"/>
     <use xlink:href="#DejaVuSans-65" x="1037.835938"/>
     <use xlink:href="#DejaVuSans-20" x="1099.359375"/>
     <use xlink:href="#DejaVuSans-47" x="1131.146484"/>
     <use xlink:href="#DejaVuSans-43" x="1208.636719"/>
     <use xlink:href="#DejaVuSans-20" x="1278.460938"/>
     <use xlink:href="#DejaVuSans-43" x="1310.248047"/>
     <use xlink:href="#DejaVuSans-6f" x="1380.072266"/>
     <use xlink:href="#DejaVuSans-6e" x="1441.253906"/>
     <use xlink:href="#DejaVuSans-74" x="1504.632812"/>
     <use xlink:href="#DejaVuSans-65" x="1543.841797"/>
     <use xlink:href="#DejaVuSans-6e" x="1605.365234"/>
     <use xlink:href="#DejaVuSans-74" x="1668.744141"/>
    </g>
   </g>
   <g id="legend_1">
    <g id="line2d_22">
     <path d="M 47.800625 292.192894 
L 55.800625 292.192894 
L 63.800625 292.192894 
" style="fill: none; stroke: #5cb85c; stroke-linecap: square"/>
    </g>
    <g id="text_18">
     <!-- SRR2155413 -->
     <g transform="translate(70.200625 294.992894)scale(0.08 -0.08)">
      <defs>
       <path id="DejaVuSans-52" d="M 2841 2188 
Q 3044 2119 3236 1894 
Q 3428 1669 3622 1275 
L 4263 0 
L 3584 0 
L 2988 1197 
Q 2756 1666 2539 1819 
Q 2322 1972 1947 1972 
L 1259 1972 
L 1259 0 
L 628 0 
L 628 4666 
L 2053 4666 
Q 2853 4666 3247 4331 
Q 3641 3997 3641 3322 
Q 3641 2881 3436 2590 
Q 3231 2300 2841 2188 
z
M 1259 4147 
L 1259 2491 
L 2053 2491 
Q 2509 2491 2742 2702 
Q 2975 2913 2975 3322 
Q 2975 3731 2742 3939 
Q 2509 4147 2053 4147 
L 1259 4147 
z
" transform="scale(0.015625)"/>
      </defs>
      <use xlink:href="#DejaVuSans-53"/>
      <use xlink:href="#DejaVuSans-52" x="63.476562"/>
      <use xlink:href="#DejaVuSans-52" x="132.958984"/>
      <use xlink:href="#DejaVuSans-32" x="202.441406"/>
      <use xlink:href="#DejaVuSans-31" x="266.064453"/>
      <use xlink:href="#DejaVuSans-35" x="329.6875"/>
      <use xlink:href="#DejaVuSans-35" x="393.310547"/>
      <use xlink:href="#DejaVuSans-34" x="456.933594"/>
      <use xlink:href="#DejaVuSans-31" x="520.556641"/>
      <use xlink:href="#DejaVuSans-33" x="584.179688"/>
     </g>
    </g>
    <g id="line2d_23">
     <path d="M 47.800625 303.935394 
L 55.800625 303.935394 
L 63.800625 303.935394 
" style="fill: none; stroke: #5cb85c; stroke-linecap: square"/>
    </g>
    <g id="text_19">
     <!-- SRR2155414 -->
     <g transform="translate(70.200625 306.735394)scale(0.08 -0.08)">
      <use xlink:href="#DejaVuSans-53"/>
      <use xlink:href="#DejaVuSans-52" x="63.476562"/>
      <use xlink:href="#DejaVuSans-52" x="132.958984"/>
      <use xlink:href="#DejaVuSans-32" x="202.441406"/>
      <use xlink:href="#DejaVuSans-31" x="266.064453"/>
      <use xlink:href="#DejaVuSans-35" x="329.6875"/>
      <use xlink:href="#DejaVuSans-35" x="393.310547"/>
      <use xlink:href="#DejaVuSans-34" x="456.933594"/>
      <use xlink:href="#DejaVuSans-31" x="520.556641"/>
      <use xlink:href="#DejaVuSans-34" x="584.179688"/>
     </g>
    </g>
    <g id="line2d_24">
     <path d="M 47.800625 315.677894 
L 55.800625 315.677894 
L 63.800625 315.677894 
" style="fill: none; stroke: #5cb85c; stroke-linecap: square"/>
    </g>
    <g id="text_20">
     <!-- SRR2155415 -->
     <g transform="translate(70.200625 318.477894)scale(0.08 -0.08)">
      <use xlink:href="#DejaVuSans-53"/>
      <use xlink:href="#DejaVuSans-52" x="63.476562"/>
      <use xlink:href="#DejaVuSans-52" x="132.958984"/>
      <use xlink:href="#DejaVuSans-32" x="202.441406"/>
      <use xlink:href="#DejaVuSans-31" x="266.064453"/>
      <use xlink:href="#DejaVuSans-35" x="329.6875"/>
      <use xlink:href="#DejaVuSans-35" x="393.310547"/>
      <use xlink:href="#DejaVuSans-34" x="456.933594"/>
      <use xlink:href="#DejaVuSans-31" x="520.556641"/>
      <use xlink:href="#DejaVuSans-35" x="584.179688"/>
     </g>
    </g>
    <g id="line2d_25">
     <path d="M 261.855313 292.192894 
L 269.855313 292.192894 
L 277.855313 292.192894 
" style="fill: none; stroke: #5cb85c; stroke-linecap: square"/>
    </g>
    <g id="text_21">
     <!-- SRR2155416 -->
     <g transform="translate(284.255313 294.992894)scale(0.08 -0.08)">
      <use xlink:href="#DejaVuSans-53"/>
      <use xlink:href="#DejaVuSans-52" x="63.476562"/>
      <use xlink:href="#DejaVuSans-52" x="132.958984"/>
      <use xlink:href="#DejaVuSans-32" x="202.441406"/>
      <use xlink:href="#DejaVuSans-31" x="266.064453"/>
      <use xlink:href="#DejaVuSans-35" x="329.6875"/>
      <use xlink:href="#DejaVuSans-35" x="393.310547"/>
      <use xlink:href="#DejaVuSans-34" x="456.933594"/>
      <use xlink:href="#DejaVuSans-31" x="520.556641"/>
      <use xlink:href="#DejaVuSans-36" x="584.179688"/>
     </g>
    </g>
    <g id="line2d_26">
     <path d="M 261.855313 303.935394 
L 269.855313 303.935394 
L 277.855313 303.935394 
" style="fill: none; stroke: #5cb85c; stroke-linecap: square"/>
    </g>
    <g id="text_22">
     <!-- SRR2155417 -->
     <g transform="translate(284.255313 306.735394)scale(0.08 -0.08)">
      <defs>
       <path id="DejaVuSans-37" d="M 525 4666 
L 3525 4666 
L 3525 4397 
L 1831 0 
L 1172 0 
L 2766 4134 
L 525 4134 
L 525 4666 
z
" transform="scale(0.015625)"/>
      </defs>
      <use xlink:href="#DejaVuSans-53"/>
      <use xlink:href="#DejaVuSans-52" x="63.476562"/>
      <use xlink:href="#DejaVuSans-52" x="132.958984"/>
      <use xlink:href="#DejaVuSans-32" x="202.441406"/>
      <use xlink:href="#DejaVuSans-31" x="266.064453"/>
      <use xlink:href="#DejaVuSans-35" x="329.6875"/>
      <use xlink:href="#DejaVuSans-35" x="393.310547"/>
      <use xlink:href="#DejaVuSans-34" x="456.933594"/>
      <use xlink:href="#DejaVuSans-31" x="520.556641"/>
      <use xlink:href="#DejaVuSans-37" x="584.179688"/>
     </g>
    </g>
    <g id="line2d_27">
     <path d="M 261.855313 315.677894 
L 269.855313 315.677894 
L 277.855313 315.677894 
" style="fill: none; stroke: #5cb85c; stroke-linecap: square"/>
    </g>
    <g id="text_23">
     <!-- SRR2155418 -->
     <g transform="translate(284.255313 318.477894)scale(0.08 -0.08)">
      <use xlink:href="#DejaVuSans-53"/>
      <use xlink:href="#DejaVuSans-52" x="63.476562"/>
      <use xlink:href="#DejaVuSans-52" x="132.958984"/>
      <use xlink:href="#DejaVuSans-32" x="202.441406"/>
      <use xlink:href="#DejaVuSans-31" x="266.064453"/>
      <use xlink:href="#DejaVuSans-35" x="329.6875"/>
      <use xlink:href="#DejaVuSans-35" x="393.310547"/>
      <use xlink:href="#DejaVuSans-34" x="456.933594"/>
      <use xlink:href="#DejaVuSans-31" x="520.556641"/>
      <use xlink:href="#DejaVuSans-38" x="584.179688"/>
     </g>
    </g>
    <g id="line2d_28">
     <path d="M 475.91 292.192894 
L 483.91 292.192894 
L 491.91 292.192894 
" style="fill: none; stroke: #5cb85c; stroke-linecap: square"/>
    </g>
    <g id="text_24">
     <!-- SRR2155419 -->
     <g transform="translate(498.31 294.992894)scale(0.08 -0.08)">
      <defs>
       <path id="DejaVuSans-39" d="M 703 97 
L 703 672 
Q 941 559 1184 500 
Q 1428 441 1663 441 
Q 2288 441 2617 861 
Q 2947 1281 2994 2138 
Q 2813 1869 2534 1725 
Q 2256 1581 1919 1581 
Q 1219 1581 811 2004 
Q 403 2428 403 3163 
Q 403 3881 828 4315 
Q 1253 4750 1959 4750 
Q 2769 4750 3195 4129 
Q 3622 3509 3622 2328 
Q 3622 1225 3098 567 
Q 2575 -91 1691 -91 
Q 1453 -91 1209 -44 
Q 966 3 703 97 
z
M 1959 2075 
Q 2384 2075 2632 2365 
Q 2881 2656 2881 3163 
Q 2881 3666 2632 3958 
Q 2384 4250 1959 4250 
Q 1534 4250 1286 3958 
Q 1038 3666 1038 3163 
Q 1038 2656 1286 2365 
Q 1534 2075 1959 2075 
z
" transform="scale(0.015625)"/>
      </defs>
      <use xlink:href="#DejaVuSans-53"/>
      <use xlink:href="#DejaVuSans-52" x="63.476562"/>
      <use xlink:href="#DejaVuSans-52" x="132.958984"/>
      <use xlink:href="#DejaVuSans-32" x="202.441406"/>
      <use xlink:href="#DejaVuSans-31" x="266.064453"/>
      <use xlink:href="#DejaVuSans-35" x="329.6875"/>
      <use xlink:href="#DejaVuSans-35" x="393.310547"/>
      <use xlink:href="#DejaVuSans-34" x="456.933594"/>
      <use xlink:href="#DejaVuSans-31" x="520.556641"/>
      <use xlink:href="#DejaVuSans-39" x="584.179688"/>
     </g>
    </g>
    <g id="line2d_29">
     <path d="M 475.91 303.935394 
L 483.91 303.935394 
L 491.91 303.935394 
" style="fill: none; stroke: #5cb85c; stroke-linecap: square"/>
    </g>
    <g id="text_25">
     <!-- SRR2155420 -->
     <g transform="translate(498.31 306.735394)scale(0.08 -0.08)">
      <use xlink:href="#DejaVuSans-53"/>
      <use xlink:href="#DejaVuSans-52" x="63.476562"/>
      <use xlink:href="#DejaVuSans-52" x="132.958984"/>
      <use xlink:href="#DejaVuSans-32" x="202.441406"/>
      <use xlink:href="#DejaVuSans-31" x="266.064453"/>
      <use xlink:href="#DejaVuSans-35" x="329.6875"/>
      <use xlink:href="#DejaVuSans-35" x="393.310547"/>
      <use xlink:href="#DejaVuSans-34" x="456.933594"/>
      <use xlink:href="#DejaVuSans-32" x="520.556641"/>
      <use xlink:href="#DejaVuSans-30" x="584.179688"/>
     </g>
    </g>
    <g id="line2d_30">
     <path d="M 689.964687 292.192894 
L 697.964687 292.192894 
L 705.964687 292.192894 
" style="fill: none; stroke: #5cb85c; stroke-linecap: square"/>
    </g>
    <g id="text_26">
     <!-- SRR2155421 -->
     <g transform="translate(712.364687 294.992894)scale(0.08 -0.08)">
      <use xlink:href="#DejaVuSans-53"/>
      <use xlink:href="#DejaVuSans-52" x="63.476562"/>
      <use xlink:href="#DejaVuSans-52" x="132.958984"/>
      <use xlink:href="#DejaVuSans-32" x="202.441406"/>
      <use xlink:href="#DejaVuSans-31" x="266.064453"/>
      <use xlink:href="#DejaVuSans-35" x="329.6875"/>
      <use xlink:href="#DejaVuSans-35" x="393.310547"/>
      <use xlink:href="#DejaVuSans-34" x="456.933594"/>
      <use xlink:href="#DejaVuSans-32" x="520.556641"/>
      <use xlink:href="#DejaVuSans-31" x="584.179688"/>
     </g>
    </g>
    <g id="line2d_31">
     <path d="M 689.964687 303.935394 
L 697.964687 303.935394 
L 705.964687 303.935394 
" style="fill: none; stroke: #5cb85c; stroke-linecap: square"/>
    </g>
    <g id="text_27">
     <!-- SRR2155422 -->
     <g transform="translate(712.364687 306.735394)scale(0.08 -0.08)">
      <use xlink:href="#DejaVuSans-53"/>
      <use xlink:href="#DejaVuSans-52" x="63.476562"/>
      <use xlink:href="#DejaVuSans-52" x="132.958984"/>
      <use xlink:href="#DejaVuSans-32" x="202.441406"/>
      <use xlink:href="#DejaVuSans-31" x="266.064453"/>
      <use xlink:href="#DejaVuSans-35" x="329.6875"/>
      <use xlink:href="#DejaVuSans-35" x="393.310547"/>
      <use xlink:href="#DejaVuSans-34" x="456.933594"/>
      <use xlink:href="#DejaVuSans-32" x="520.556641"/>
      <use xlink:href="#DejaVuSans-32" x="584.179688"/>
     </g>
    </g>
    <g id="line2d_32">
     <path d="M 904.019375 292.192894 
L 912.019375 292.192894 
L 920.019375 292.192894 
" style="fill: none; stroke: #5cb85c; stroke-linecap: square"/>
    </g>
    <g id="text_28">
     <!-- SRR2155423 -->
     <g transform="translate(926.419375 294.992894)scale(0.08 -0.08)">
      <use xlink:href="#DejaVuSans-53"/>
      <use xlink:href="#DejaVuSans-52" x="63.476562"/>
      <use xlink:href="#DejaVuSans-52" x="132.958984"/>
      <use xlink:href="#DejaVuSans-32" x="202.441406"/>
      <use xlink:href="#DejaVuSans-31" x="266.064453"/>
      <use xlink:href="#DejaVuSans-35" x="329.6875"/>
      <use xlink:href="#DejaVuSans-35" x="393.310547"/>
      <use xlink:href="#DejaVuSans-34" x="456.933594"/>
      <use xlink:href="#DejaVuSans-32" x="520.556641"/>
      <use xlink:href="#DejaVuSans-33" x="584.179688"/>
     </g>
    </g>
    <g id="line2d_33">
     <path d="M 904.019375 303.935394 
L 912.019375 303.935394 
L 920.019375 303.935394 
" style="fill: none; stroke: #5cb85c; stroke-linecap: square"/>
    </g>
    <g id="text_29">
     <!-- SRR2155424 -->
     <g transform="translate(926.419375 306.735394)scale(0.08 -0.08)">
      <use xlink:href="#DejaVuSans-53"/>
      <use xlink:href="#DejaVuSans-52" x="63.476562"/>
      <use xlink:href="#DejaVuSans-52" x="132.958984"/>
      <use xlink:href="#DejaVuSans-32" x="202.441406"/>
      <use xlink:href="#DejaVuSans-31" x="266.064453"/>
      <use xlink:href="#DejaVuSans-35" x="329.6875"/>
      <use xlink:href="#DejaVuSans-35" x="393.310547"/>
      <use xlink:href="#DejaVuSans-34" x="456.933594"/>
      <use xlink:href="#DejaVuSans-32" x="520.556641"/>
      <use xlink:href="#DejaVuSans-34" x="584.179688"/>
     </g>
    </g>
   </g>
  </g>
 </g>
 <defs>
  <clipPath id="p66290091e9">
   <rect x="40.600625" y="31.48286" width="944.845" height="242.5072"/>
  </clipPath>
 </defs>
</svg>
