<?xml version="1.0" encoding="utf-8" standalone="no"?>
<!DOCTYPE svg PUBLIC "-//W3C//DTD SVG 1.1//EN"
  "http://www.w3.org/Graphics/SVG/1.1/DTD/svg11.dtd">
<svg xmlns:xlink="http://www.w3.org/1999/xlink" width="1000.098125pt" height="330.541644pt" viewBox="0 0 1000.098125 330.541644" xmlns="http://www.w3.org/2000/svg" version="1.1">
 <metadata>
  <rdf:RDF xmlns:dc="http://purl.org/dc/elements/1.1/" xmlns:cc="http://creativecommons.org/ns#" xmlns:rdf="http://www.w3.org/1999/02/22-rdf-syntax-ns#">
   <cc:Work>
    <dc:type rdf:resource="http://purl.org/dc/dcmitype/StillImage"/>
    <dc:date>2024-08-12T02:15:05.948986</dc:date>
    <dc:format>image/svg+xml</dc:format>
    <dc:creator>
     <cc:Agent>
      <dc:title>Matplotlib v3.5.3, https://matplotlib.org/</dc:title>
     </cc:Agent>
    </dc:creator>
   </cc:Work>
  </rdf:RDF>
 </metadata>
 <defs>
  <style type="text/css">*{stroke-linejoin: round; stroke-linecap: butt}</style>
 </defs>
 <g id="figure_1">
  <g id="axes_1">
   <g id="patch_1">
    <path d="M 58.418125 273.99006 
L 985.263125 273.99006 
L 985.263125 31.48286 
L 58.418125 31.48286 
z
" style="fill: #ffffff"/>
   </g>
   <g id="matplotlib.axis_1">
    <g id="xtick_1">
     <g id="text_1">
      <!-- 0 -->
      <g transform="translate(55.873125 287.06881)scale(0.08 -0.08)">
       <defs>
        <path id="DejaVuSans-30" d="M 2034 4250 
Q 1547 4250 1301 3770 
Q 1056 3291 1056 2328 
Q 1056 1369 1301 889 
Q 1547 409 2034 409 
Q 2525 409 2770 889 
Q 3016 1369 3016 2328 
Q 3016 3291 2770 3770 
Q 2525 4250 2034 4250 
z
M 2034 4750 
Q 2819 4750 3233 4129 
Q 3647 3509 3647 2328 
Q 3647 1150 3233 529 
Q 2819 -91 2034 -91 
Q 1250 -91 836 529 
Q 422 1150 422 2328 
Q 422 3509 836 4129 
Q 1250 4750 2034 4750 
z
" transform="scale(0.015625)"/>
       </defs>
       <use xlink:href="#DejaVuSans-30"/>
      </g>
     </g>
    </g>
    <g id="xtick_2">
     <g id="text_2">
      <!-- 20 -->
      <g transform="translate(238.697125 287.06881)scale(0.08 -0.08)">
       <defs>
        <path id="DejaVuSans-32" d="M 1228 531 
L 3431 531 
L 3431 0 
L 469 0 
L 469 531 
Q 828 903 1448 1529 
Q 2069 2156 2228 2338 
Q 2531 2678 2651 2914 
Q 2772 3150 2772 3378 
Q 2772 3750 2511 3984 
Q 2250 4219 1831 4219 
Q 1534 4219 1204 4116 
Q 875 4013 500 3803 
L 500 4441 
Q 881 4594 1212 4672 
Q 1544 4750 1819 4750 
Q 2544 4750 2975 4387 
Q 3406 4025 3406 3419 
Q 3406 3131 3298 2873 
Q 3191 2616 2906 2266 
Q 2828 2175 2409 1742 
Q 1991 1309 1228 531 
z
" transform="scale(0.015625)"/>
       </defs>
       <use xlink:href="#DejaVuSans-32"/>
       <use xlink:href="#DejaVuSans-30" x="63.623047"/>
      </g>
     </g>
    </g>
    <g id="xtick_3">
     <g id="text_3">
      <!-- 40 -->
      <g transform="translate(424.066125 287.06881)scale(0.08 -0.08)">
       <defs>
        <path id="DejaVuSans-34" d="M 2419 4116 
L 825 1625 
L 2419 1625 
L 2419 4116 
z
M 2253 4666 
L 3047 4666 
L 3047 1625 
L 3713 1625 
L 3713 1100 
L 3047 1100 
L 3047 0 
L 2419 0 
L 2419 1100 
L 313 1100 
L 313 1709 
L 2253 4666 
z
" transform="scale(0.015625)"/>
       </defs>
       <use xlink:href="#DejaVuSans-34"/>
       <use xlink:href="#DejaVuSans-30" x="63.623047"/>
      </g>
     </g>
    </g>
    <g id="xtick_4">
     <g id="text_4">
      <!-- 60 -->
      <g transform="translate(609.435125 287.06881)scale(0.08 -0.08)">
       <defs>
        <path id="DejaVuSans-36" d="M 2113 2584 
Q 1688 2584 1439 2293 
Q 1191 2003 1191 1497 
Q 1191 994 1439 701 
Q 1688 409 2113 409 
Q 2538 409 2786 701 
Q 3034 994 3034 1497 
Q 3034 2003 2786 2293 
Q 2538 2584 2113 2584 
z
M 3366 4563 
L 3366 3988 
Q 3128 4100 2886 4159 
Q 2644 4219 2406 4219 
Q 1781 4219 1451 3797 
Q 1122 3375 1075 2522 
Q 1259 2794 1537 2939 
Q 1816 3084 2150 3084 
Q 2853 3084 3261 2657 
Q 3669 2231 3669 1497 
Q 3669 778 3244 343 
Q 2819 -91 2113 -91 
Q 1303 -91 875 529 
Q 447 1150 447 2328 
Q 447 3434 972 4092 
Q 1497 4750 2381 4750 
Q 2619 4750 2861 4703 
Q 3103 4656 3366 4563 
z
" transform="scale(0.015625)"/>
       </defs>
       <use xlink:href="#DejaVuSans-36"/>
       <use xlink:href="#DejaVuSans-30" x="63.623047"/>
      </g>
     </g>
    </g>
    <g id="xtick_5">
     <g id="text_5">
      <!-- 80 -->
      <g transform="translate(794.804125 287.06881)scale(0.08 -0.08)">
       <defs>
        <path id="DejaVuSans-38" d="M 2034 2216 
Q 1584 2216 1326 1975 
Q 1069 1734 1069 1313 
Q 1069 891 1326 650 
Q 1584 409 2034 409 
Q 2484 409 2743 651 
Q 3003 894 3003 1313 
Q 3003 1734 2745 1975 
Q 2488 2216 2034 2216 
z
M 1403 2484 
Q 997 2584 770 2862 
Q 544 3141 544 3541 
Q 544 4100 942 4425 
Q 1341 4750 2034 4750 
Q 2731 4750 3128 4425 
Q 3525 4100 3525 3541 
Q 3525 3141 3298 2862 
Q 3072 2584 2669 2484 
Q 3125 2378 3379 2068 
Q 3634 1759 3634 1313 
Q 3634 634 3220 271 
Q 2806 -91 2034 -91 
Q 1263 -91 848 271 
Q 434 634 434 1313 
Q 434 1759 690 2068 
Q 947 2378 1403 2484 
z
M 1172 3481 
Q 1172 3119 1398 2916 
Q 1625 2713 2034 2713 
Q 2441 2713 2670 2916 
Q 2900 3119 2900 3481 
Q 2900 3844 2670 4047 
Q 2441 4250 2034 4250 
Q 1625 4250 1398 4047 
Q 1172 3844 1172 3481 
z
" transform="scale(0.015625)"/>
       </defs>
       <use xlink:href="#DejaVuSans-38"/>
       <use xlink:href="#DejaVuSans-30" x="63.623047"/>
      </g>
     </g>
    </g>
    <g id="xtick_6">
     <g id="text_6">
      <!-- 100 -->
      <g transform="translate(977.628125 287.06881)scale(0.08 -0.08)">
       <defs>
        <path id="DejaVuSans-31" d="M 794 531 
L 1825 531 
L 1825 4091 
L 703 3866 
L 703 4441 
L 1819 4666 
L 2450 4666 
L 2450 531 
L 3481 531 
L 3481 0 
L 794 0 
L 794 531 
z
" transform="scale(0.015625)"/>
       </defs>
       <use xlink:href="#DejaVuSans-31"/>
       <use xlink:href="#DejaVuSans-30" x="63.623047"/>
       <use xlink:href="#DejaVuSans-30" x="127.246094"/>
      </g>
     </g>
    </g>
    <g id="text_7">
     <!-- Percent of reads -->
     <g transform="translate(481.172656 300.330997)scale(0.1 -0.1)">
      <defs>
       <path id="DejaVuSans-50" d="M 1259 4147 
L 1259 2394 
L 2053 2394 
Q 2494 2394 2734 2622 
Q 2975 2850 2975 3272 
Q 2975 3691 2734 3919 
Q 2494 4147 2053 4147 
L 1259 4147 
z
M 628 4666 
L 2053 4666 
Q 2838 4666 3239 4311 
Q 3641 3956 3641 3272 
Q 3641 2581 3239 2228 
Q 2838 1875 2053 1875 
L 1259 1875 
L 1259 0 
L 628 0 
L 628 4666 
z
" transform="scale(0.015625)"/>
       <path id="DejaVuSans-65" d="M 3597 1894 
L 3597 1613 
L 953 1613 
Q 991 1019 1311 708 
Q 1631 397 2203 397 
Q 2534 397 2845 478 
Q 3156 559 3463 722 
L 3463 178 
Q 3153 47 2828 -22 
Q 2503 -91 2169 -91 
Q 1331 -91 842 396 
Q 353 884 353 1716 
Q 353 2575 817 3079 
Q 1281 3584 2069 3584 
Q 2775 3584 3186 3129 
Q 3597 2675 3597 1894 
z
M 3022 2063 
Q 3016 2534 2758 2815 
Q 2500 3097 2075 3097 
Q 1594 3097 1305 2825 
Q 1016 2553 972 2059 
L 3022 2063 
z
" transform="scale(0.015625)"/>
       <path id="DejaVuSans-72" d="M 2631 2963 
Q 2534 3019 2420 3045 
Q 2306 3072 2169 3072 
Q 1681 3072 1420 2755 
Q 1159 2438 1159 1844 
L 1159 0 
L 581 0 
L 581 3500 
L 1159 3500 
L 1159 2956 
Q 1341 3275 1631 3429 
Q 1922 3584 2338 3584 
Q 2397 3584 2469 3576 
Q 2541 3569 2628 3553 
L 2631 2963 
z
" transform="scale(0.015625)"/>
       <path id="DejaVuSans-63" d="M 3122 3366 
L 3122 2828 
Q 2878 2963 2633 3030 
Q 2388 3097 2138 3097 
Q 1578 3097 1268 2742 
Q 959 2388 959 1747 
Q 959 1106 1268 751 
Q 1578 397 2138 397 
Q 2388 397 2633 464 
Q 2878 531 3122 666 
L 3122 134 
Q 2881 22 2623 -34 
Q 2366 -91 2075 -91 
Q 1284 -91 818 406 
Q 353 903 353 1747 
Q 353 2603 823 3093 
Q 1294 3584 2113 3584 
Q 2378 3584 2631 3529 
Q 2884 3475 3122 3366 
z
" transform="scale(0.015625)"/>
       <path id="DejaVuSans-6e" d="M 3513 2113 
L 3513 0 
L 2938 0 
L 2938 2094 
Q 2938 2591 2744 2837 
Q 2550 3084 2163 3084 
Q 1697 3084 1428 2787 
Q 1159 2491 1159 1978 
L 1159 0 
L 581 0 
L 581 3500 
L 1159 3500 
L 1159 2956 
Q 1366 3272 1645 3428 
Q 1925 3584 2291 3584 
Q 2894 3584 3203 3211 
Q 3513 2838 3513 2113 
z
" transform="scale(0.015625)"/>
       <path id="DejaVuSans-74" d="M 1172 4494 
L 1172 3500 
L 2356 3500 
L 2356 3053 
L 1172 3053 
L 1172 1153 
Q 1172 725 1289 603 
Q 1406 481 1766 481 
L 2356 481 
L 2356 0 
L 1766 0 
Q 1100 0 847 248 
Q 594 497 594 1153 
L 594 3053 
L 172 3053 
L 172 3500 
L 594 3500 
L 594 4494 
L 1172 4494 
z
" transform="scale(0.015625)"/>
       <path id="DejaVuSans-20" transform="scale(0.015625)"/>
       <path id="DejaVuSans-6f" d="M 1959 3097 
Q 1497 3097 1228 2736 
Q 959 2375 959 1747 
Q 959 1119 1226 758 
Q 1494 397 1959 397 
Q 2419 397 2687 759 
Q 2956 1122 2956 1747 
Q 2956 2369 2687 2733 
Q 2419 3097 1959 3097 
z
M 1959 3584 
Q 2709 3584 3137 3096 
Q 3566 2609 3566 1747 
Q 3566 888 3137 398 
Q 2709 -91 1959 -91 
Q 1206 -91 779 398 
Q 353 888 353 1747 
Q 353 2609 779 3096 
Q 1206 3584 1959 3584 
z
" transform="scale(0.015625)"/>
       <path id="DejaVuSans-66" d="M 2375 4863 
L 2375 4384 
L 1825 4384 
Q 1516 4384 1395 4259 
Q 1275 4134 1275 3809 
L 1275 3500 
L 2222 3500 
L 2222 3053 
L 1275 3053 
L 1275 0 
L 697 0 
L 697 3053 
L 147 3053 
L 147 3500 
L 697 3500 
L 697 3744 
Q 697 4328 969 4595 
Q 1241 4863 1831 4863 
L 2375 4863 
z
" transform="scale(0.015625)"/>
       <path id="DejaVuSans-61" d="M 2194 1759 
Q 1497 1759 1228 1600 
Q 959 1441 959 1056 
Q 959 750 1161 570 
Q 1363 391 1709 391 
Q 2188 391 2477 730 
Q 2766 1069 2766 1631 
L 2766 1759 
L 2194 1759 
z
M 3341 1997 
L 3341 0 
L 2766 0 
L 2766 531 
Q 2569 213 2275 61 
Q 1981 -91 1556 -91 
Q 1019 -91 701 211 
Q 384 513 384 1019 
Q 384 1609 779 1909 
Q 1175 2209 1959 2209 
L 2766 2209 
L 2766 2266 
Q 2766 2663 2505 2880 
Q 2244 3097 1772 3097 
Q 1472 3097 1187 3025 
Q 903 2953 641 2809 
L 641 3341 
Q 956 3463 1253 3523 
Q 1550 3584 1831 3584 
Q 2591 3584 2966 3190 
Q 3341 2797 3341 1997 
z
" transform="scale(0.015625)"/>
       <path id="DejaVuSans-64" d="M 2906 2969 
L 2906 4863 
L 3481 4863 
L 3481 0 
L 2906 0 
L 2906 525 
Q 2725 213 2448 61 
Q 2172 -91 1784 -91 
Q 1150 -91 751 415 
Q 353 922 353 1747 
Q 353 2572 751 3078 
Q 1150 3584 1784 3584 
Q 2172 3584 2448 3432 
Q 2725 3281 2906 2969 
z
M 947 1747 
Q 947 1113 1208 752 
Q 1469 391 1925 391 
Q 2381 391 2643 752 
Q 2906 1113 2906 1747 
Q 2906 2381 2643 2742 
Q 2381 3103 1925 3103 
Q 1469 3103 1208 2742 
Q 947 2381 947 1747 
z
" transform="scale(0.015625)"/>
       <path id="DejaVuSans-73" d="M 2834 3397 
L 2834 2853 
Q 2591 2978 2328 3040 
Q 2066 3103 1784 3103 
Q 1356 3103 1142 2972 
Q 928 2841 928 2578 
Q 928 2378 1081 2264 
Q 1234 2150 1697 2047 
L 1894 2003 
Q 2506 1872 2764 1633 
Q 3022 1394 3022 966 
Q 3022 478 2636 193 
Q 2250 -91 1575 -91 
Q 1294 -91 989 -36 
Q 684 19 347 128 
L 347 722 
Q 666 556 975 473 
Q 1284 391 1588 391 
Q 1994 391 2212 530 
Q 2431 669 2431 922 
Q 2431 1156 2273 1281 
Q 2116 1406 1581 1522 
L 1381 1569 
Q 847 1681 609 1914 
Q 372 2147 372 2553 
Q 372 3047 722 3315 
Q 1072 3584 1716 3584 
Q 2034 3584 2315 3537 
Q 2597 3491 2834 3397 
z
" transform="scale(0.015625)"/>
      </defs>
      <use xlink:href="#DejaVuSans-50"/>
      <use xlink:href="#DejaVuSans-65" x="56.677734"/>
      <use xlink:href="#DejaVuSans-72" x="118.201172"/>
      <use xlink:href="#DejaVuSans-63" x="157.064453"/>
      <use xlink:href="#DejaVuSans-65" x="212.044922"/>
      <use xlink:href="#DejaVuSans-6e" x="273.568359"/>
      <use xlink:href="#DejaVuSans-74" x="336.947266"/>
      <use xlink:href="#DejaVuSans-20" x="376.15625"/>
      <use xlink:href="#DejaVuSans-6f" x="407.943359"/>
      <use xlink:href="#DejaVuSans-66" x="469.125"/>
      <use xlink:href="#DejaVuSans-20" x="504.330078"/>
      <use xlink:href="#DejaVuSans-72" x="536.117188"/>
      <use xlink:href="#DejaVuSans-65" x="574.980469"/>
      <use xlink:href="#DejaVuSans-61" x="636.503906"/>
      <use xlink:href="#DejaVuSans-64" x="697.783203"/>
      <use xlink:href="#DejaVuSans-73" x="761.259766"/>
     </g>
    </g>
   </g>
   <g id="matplotlib.axis_2">
    <g id="ytick_1">
     <g id="line2d_1">
      <path d="M 58.418125 273.99006 
L 985.263125 273.99006 
" clip-path="url(#p11ba1a6493)" style="fill: none; stroke: #dedede; stroke-linecap: square"/>
     </g>
     <g id="text_8">
      <!-- 0 -->
      <g transform="translate(46.328125 277.029435)scale(0.08 -0.08)">
       <use xlink:href="#DejaVuSans-30"/>
      </g>
     </g>
    </g>
    <g id="ytick_2">
     <g id="line2d_2">
      <path d="M 58.418125 222.074975 
L 985.263125 222.074975 
" clip-path="url(#p11ba1a6493)" style="fill: none; stroke: #dedede; stroke-linecap: square"/>
     </g>
     <g id="text_9">
      <!-- 50000 -->
      <g transform="translate(25.968125 225.11435)scale(0.08 -0.08)">
       <defs>
        <path id="DejaVuSans-35" d="M 691 4666 
L 3169 4666 
L 3169 4134 
L 1269 4134 
L 1269 2991 
Q 1406 3038 1543 3061 
Q 1681 3084 1819 3084 
Q 2600 3084 3056 2656 
Q 3513 2228 3513 1497 
Q 3513 744 3044 326 
Q 2575 -91 1722 -91 
Q 1428 -91 1123 -41 
Q 819 9 494 109 
L 494 744 
Q 775 591 1075 516 
Q 1375 441 1709 441 
Q 2250 441 2565 725 
Q 2881 1009 2881 1497 
Q 2881 1984 2565 2268 
Q 2250 2553 1709 2553 
Q 1456 2553 1204 2497 
Q 953 2441 691 2322 
L 691 4666 
z
" transform="scale(0.015625)"/>
       </defs>
       <use xlink:href="#DejaVuSans-35"/>
       <use xlink:href="#DejaVuSans-30" x="63.623047"/>
       <use xlink:href="#DejaVuSans-30" x="127.246094"/>
       <use xlink:href="#DejaVuSans-30" x="190.869141"/>
       <use xlink:href="#DejaVuSans-30" x="254.492188"/>
      </g>
     </g>
    </g>
    <g id="ytick_3">
     <g id="line2d_3">
      <path d="M 58.418125 170.159889 
L 985.263125 170.159889 
" clip-path="url(#p11ba1a6493)" style="fill: none; stroke: #dedede; stroke-linecap: square"/>
     </g>
     <g id="text_10">
      <!-- 100000 -->
      <g transform="translate(20.878125 173.199264)scale(0.08 -0.08)">
       <use xlink:href="#DejaVuSans-31"/>
       <use xlink:href="#DejaVuSans-30" x="63.623047"/>
       <use xlink:href="#DejaVuSans-30" x="127.246094"/>
       <use xlink:href="#DejaVuSans-30" x="190.869141"/>
       <use xlink:href="#DejaVuSans-30" x="254.492188"/>
       <use xlink:href="#DejaVuSans-30" x="318.115234"/>
      </g>
     </g>
    </g>
    <g id="ytick_4">
     <g id="line2d_4">
      <path d="M 58.418125 118.244804 
L 985.263125 118.244804 
" clip-path="url(#p11ba1a6493)" style="fill: none; stroke: #dedede; stroke-linecap: square"/>
     </g>
     <g id="text_11">
      <!-- 150000 -->
      <g transform="translate(20.878125 121.284179)scale(0.08 -0.08)">
       <use xlink:href="#DejaVuSans-31"/>
       <use xlink:href="#DejaVuSans-35" x="63.623047"/>
       <use xlink:href="#DejaVuSans-30" x="127.246094"/>
       <use xlink:href="#DejaVuSans-30" x="190.869141"/>
       <use xlink:href="#DejaVuSans-30" x="254.492188"/>
       <use xlink:href="#DejaVuSans-30" x="318.115234"/>
      </g>
     </g>
    </g>
    <g id="ytick_5">
     <g id="line2d_5">
      <path d="M 58.418125 66.329719 
L 985.263125 66.329719 
" clip-path="url(#p11ba1a6493)" style="fill: none; stroke: #dedede; stroke-linecap: square"/>
     </g>
     <g id="text_12">
      <!-- 200000 -->
      <g transform="translate(20.878125 69.369094)scale(0.08 -0.08)">
       <use xlink:href="#DejaVuSans-32"/>
       <use xlink:href="#DejaVuSans-30" x="63.623047"/>
       <use xlink:href="#DejaVuSans-30" x="127.246094"/>
       <use xlink:href="#DejaVuSans-30" x="190.869141"/>
       <use xlink:href="#DejaVuSans-30" x="254.492188"/>
       <use xlink:href="#DejaVuSans-30" x="318.115234"/>
      </g>
     </g>
    </g>
    <g id="text_13">
     <!-- Number of Junctions -->
     <g transform="translate(14.798438 203.563804)rotate(-90)scale(0.1 -0.1)">
      <defs>
       <path id="DejaVuSans-4e" d="M 628 4666 
L 1478 4666 
L 3547 763 
L 3547 4666 
L 4159 4666 
L 4159 0 
L 3309 0 
L 1241 3903 
L 1241 0 
L 628 0 
L 628 4666 
z
" transform="scale(0.015625)"/>
       <path id="DejaVuSans-75" d="M 544 1381 
L 544 3500 
L 1119 3500 
L 1119 1403 
Q 1119 906 1312 657 
Q 1506 409 1894 409 
Q 2359 409 2629 706 
Q 2900 1003 2900 1516 
L 2900 3500 
L 3475 3500 
L 3475 0 
L 2900 0 
L 2900 538 
Q 2691 219 2414 64 
Q 2138 -91 1772 -91 
Q 1169 -91 856 284 
Q 544 659 544 1381 
z
M 1991 3584 
L 1991 3584 
z
" transform="scale(0.015625)"/>
       <path id="DejaVuSans-6d" d="M 3328 2828 
Q 3544 3216 3844 3400 
Q 4144 3584 4550 3584 
Q 5097 3584 5394 3201 
Q 5691 2819 5691 2113 
L 5691 0 
L 5113 0 
L 5113 2094 
Q 5113 2597 4934 2840 
Q 4756 3084 4391 3084 
Q 3944 3084 3684 2787 
Q 3425 2491 3425 1978 
L 3425 0 
L 2847 0 
L 2847 2094 
Q 2847 2600 2669 2842 
Q 2491 3084 2119 3084 
Q 1678 3084 1418 2786 
Q 1159 2488 1159 1978 
L 1159 0 
L 581 0 
L 581 3500 
L 1159 3500 
L 1159 2956 
Q 1356 3278 1631 3431 
Q 1906 3584 2284 3584 
Q 2666 3584 2933 3390 
Q 3200 3197 3328 2828 
z
" transform="scale(0.015625)"/>
       <path id="DejaVuSans-62" d="M 3116 1747 
Q 3116 2381 2855 2742 
Q 2594 3103 2138 3103 
Q 1681 3103 1420 2742 
Q 1159 2381 1159 1747 
Q 1159 1113 1420 752 
Q 1681 391 2138 391 
Q 2594 391 2855 752 
Q 3116 1113 3116 1747 
z
M 1159 2969 
Q 1341 3281 1617 3432 
Q 1894 3584 2278 3584 
Q 2916 3584 3314 3078 
Q 3713 2572 3713 1747 
Q 3713 922 3314 415 
Q 2916 -91 2278 -91 
Q 1894 -91 1617 61 
Q 1341 213 1159 525 
L 1159 0 
L 581 0 
L 581 4863 
L 1159 4863 
L 1159 2969 
z
" transform="scale(0.015625)"/>
       <path id="DejaVuSans-4a" d="M 628 4666 
L 1259 4666 
L 1259 325 
Q 1259 -519 939 -900 
Q 619 -1281 -91 -1281 
L -331 -1281 
L -331 -750 
L -134 -750 
Q 284 -750 456 -515 
Q 628 -281 628 325 
L 628 4666 
z
" transform="scale(0.015625)"/>
       <path id="DejaVuSans-69" d="M 603 3500 
L 1178 3500 
L 1178 0 
L 603 0 
L 603 3500 
z
M 603 4863 
L 1178 4863 
L 1178 4134 
L 603 4134 
L 603 4863 
z
" transform="scale(0.015625)"/>
      </defs>
      <use xlink:href="#DejaVuSans-4e"/>
      <use xlink:href="#DejaVuSans-75" x="74.804688"/>
      <use xlink:href="#DejaVuSans-6d" x="138.183594"/>
      <use xlink:href="#DejaVuSans-62" x="235.595703"/>
      <use xlink:href="#DejaVuSans-65" x="299.072266"/>
      <use xlink:href="#DejaVuSans-72" x="360.595703"/>
      <use xlink:href="#DejaVuSans-20" x="401.708984"/>
      <use xlink:href="#DejaVuSans-6f" x="433.496094"/>
      <use xlink:href="#DejaVuSans-66" x="494.677734"/>
      <use xlink:href="#DejaVuSans-20" x="529.882812"/>
      <use xlink:href="#DejaVuSans-4a" x="561.669922"/>
      <use xlink:href="#DejaVuSans-75" x="591.162109"/>
      <use xlink:href="#DejaVuSans-6e" x="654.541016"/>
      <use xlink:href="#DejaVuSans-63" x="717.919922"/>
      <use xlink:href="#DejaVuSans-74" x="772.900391"/>
      <use xlink:href="#DejaVuSans-69" x="812.109375"/>
      <use xlink:href="#DejaVuSans-6f" x="839.892578"/>
      <use xlink:href="#DejaVuSans-6e" x="901.074219"/>
      <use xlink:href="#DejaVuSans-73" x="964.453125"/>
     </g>
    </g>
   </g>
   <g id="line2d_6">
    <path d="M 104.760375 218.00587 
L 151.102625 193.309864 
L 197.444875 178.231647 
L 243.787125 167.328441 
L 290.129375 159.213075 
L 336.471625 152.606361 
L 382.813875 147.129319 
L 429.156125 142.275259 
L 475.498375 137.955924 
L 521.840625 134.119399 
L 568.182875 130.653548 
L 614.525125 127.422353 
L 660.867375 124.450733 
L 707.209625 121.691966 
L 753.551875 119.124246 
L 799.894125 116.769377 
L 846.236375 114.446697 
L 892.578625 112.178007 
L 938.920875 110.076485 
L 985.263125 108.061141 
" clip-path="url(#p11ba1a6493)" style="fill: none; stroke: #7cb5ec; stroke-linecap: square"/>
   </g>
   <g id="line2d_7">
    <path d="M 104.760375 179.761065 
L 151.102625 152.635433 
L 197.444875 137.641318 
L 243.787125 127.035066 
L 290.129375 118.666355 
L 336.471625 111.463656 
L 382.813875 105.267071 
L 429.156125 99.724617 
L 475.498375 94.559066 
L 521.840625 89.75692 
L 568.182875 85.297414 
L 614.525125 81.128633 
L 660.867375 77.148823 
L 707.209625 73.438971 
L 753.551875 69.814259 
L 799.894125 66.449124 
L 846.236375 63.112022 
L 892.578625 59.929627 
L 938.920875 56.88948 
L 985.263125 54.063223 
" clip-path="url(#p11ba1a6493)" style="fill: none; stroke: #434348; stroke-linecap: square"/>
   </g>
   <g id="line2d_8">
    <path d="M 104.760375 182.066095 
L 151.102625 154.93631 
L 197.444875 139.737649 
L 243.787125 128.983959 
L 290.129375 120.600711 
L 336.471625 113.420854 
L 382.813875 107.089291 
L 429.156125 101.46481 
L 475.498375 96.504843 
L 521.840625 91.838715 
L 568.182875 87.523533 
L 614.525125 83.335024 
L 660.867375 79.391554 
L 707.209625 75.70766 
L 753.551875 72.133825 
L 799.894125 68.681472 
L 846.236375 65.36306 
L 892.578625 62.283457 
L 938.920875 59.349216 
L 985.263125 56.393172 
" clip-path="url(#p11ba1a6493)" style="fill: none; stroke: #90ed7d; stroke-linecap: square"/>
   </g>
   <g id="line2d_9">
    <path d="M 104.760375 193.095974 
L 151.102625 166.095977 
L 197.444875 150.761299 
L 243.787125 140.127013 
L 290.129375 131.765569 
L 336.471625 125.011416 
L 382.813875 119.211463 
L 429.156125 113.882899 
L 475.498375 109.249996 
L 521.840625 105.007496 
L 568.182875 101.045336 
L 614.525125 97.224386 
L 660.867375 93.786569 
L 707.209625 90.51488 
L 753.551875 87.193353 
L 799.894125 84.114789 
L 846.236375 81.117212 
L 892.578625 78.243193 
L 938.920875 75.435625 
L 985.263125 72.811836 
" clip-path="url(#p11ba1a6493)" style="fill: none; stroke: #f7a35c; stroke-linecap: square"/>
   </g>
   <g id="line2d_10">
    <path d="M 104.760375 172.888546 
L 151.102625 145.862591 
L 197.444875 130.559062 
L 243.787125 119.454426 
L 290.129375 110.550989 
L 336.471625 103.000459 
L 382.813875 96.352213 
L 429.156125 90.350829 
L 475.498375 84.733617 
L 521.840625 79.628287 
L 568.182875 74.871827 
L 614.525125 70.293955 
L 660.867375 65.973581 
L 707.209625 61.860868 
L 753.551875 57.986965 
L 799.894125 54.217929 
L 846.236375 50.564146 
L 892.578625 47.019384 
L 938.920875 43.677091 
L 985.263125 40.364908 
" clip-path="url(#p11ba1a6493)" style="fill: none; stroke: #8085e9; stroke-linecap: square"/>
   </g>
   <g id="line2d_11">
    <path d="M 104.760375 182.046367 
L 151.102625 154.806522 
L 197.444875 139.597479 
L 243.787125 128.873899 
L 290.129375 120.383706 
L 336.471625 113.205926 
L 382.813875 107.035299 
L 429.156125 101.424317 
L 475.498375 96.328332 
L 521.840625 91.559412 
L 568.182875 87.180894 
L 614.525125 83.034955 
L 660.867375 79.005306 
L 707.209625 75.38371 
L 753.551875 71.736156 
L 799.894125 68.296262 
L 846.236375 65.002769 
L 892.578625 61.888902 
L 938.920875 58.798917 
L 985.263125 55.855331 
" clip-path="url(#p11ba1a6493)" style="fill: none; stroke: #f15c80; stroke-linecap: square"/>
   </g>
   <g id="line2d_12">
    <path d="M 104.760375 203.216301 
L 151.102625 176.650313 
L 197.444875 161.228418 
L 243.787125 150.490302 
L 290.129375 142.372859 
L 336.471625 135.625975 
L 382.813875 129.870668 
L 429.156125 124.819331 
L 475.498375 120.339059 
L 521.840625 116.305257 
L 568.182875 112.5736 
L 614.525125 109.025723 
L 660.867375 105.788299 
L 707.209625 102.722194 
L 753.551875 99.77134 
L 799.894125 97.037492 
L 846.236375 94.307797 
L 892.578625 91.669472 
L 938.920875 89.217003 
L 985.263125 86.890169 
" clip-path="url(#p11ba1a6493)" style="fill: none; stroke: #e4d354; stroke-linecap: square"/>
   </g>
   <g id="line2d_13">
    <path d="M 104.760375 173.884278 
L 151.102625 146.60913 
L 197.444875 131.273414 
L 243.787125 120.640166 
L 290.129375 111.804219 
L 336.471625 104.458234 
L 382.813875 97.838022 
L 429.156125 91.914511 
L 475.498375 86.239154 
L 521.840625 81.194046 
L 568.182875 76.336871 
L 614.525125 71.713313 
L 660.867375 67.416821 
L 707.209625 63.368482 
L 753.551875 59.555839 
L 799.894125 55.881289 
L 846.236375 52.309531 
L 892.578625 48.888327 
L 938.920875 45.542919 
L 985.263125 42.275383 
" clip-path="url(#p11ba1a6493)" style="fill: none; stroke: #2b908f; stroke-linecap: square"/>
   </g>
   <g id="line2d_14">
    <path d="M 104.760375 190.94669 
L 151.102625 164.098284 
L 197.444875 148.997224 
L 243.787125 138.561254 
L 290.129375 130.238227 
L 336.471625 123.497572 
L 382.813875 117.738113 
L 429.156125 112.544528 
L 475.498375 107.89086 
L 521.840625 103.606827 
L 568.182875 99.715272 
L 614.525125 95.894322 
L 660.867375 92.314257 
L 707.209625 88.82764 
L 753.551875 85.603713 
L 799.894125 82.564604 
L 846.236375 79.6449 
L 892.578625 76.804106 
L 938.920875 74.192778 
L 985.263125 71.530572 
" clip-path="url(#p11ba1a6493)" style="fill: none; stroke: #f45b5b; stroke-linecap: square"/>
   </g>
   <g id="line2d_15">
    <path d="M 104.760375 192.78033 
L 151.102625 165.92881 
L 197.444875 150.836056 
L 243.787125 140.065753 
L 290.129375 131.739611 
L 336.471625 124.930429 
L 382.813875 119.006918 
L 429.156125 113.844482 
L 475.498375 109.173162 
L 521.840625 104.887053 
L 568.182875 100.934238 
L 614.525125 97.233731 
L 660.867375 93.673394 
L 707.209625 90.315527 
L 753.551875 87.03034 
L 799.894125 83.97358 
L 846.236375 81.066335 
L 892.578625 78.313797 
L 938.920875 75.529072 
L 985.263125 72.964467 
" clip-path="url(#p11ba1a6493)" style="fill: none; stroke: #91e8e1; stroke-linecap: square"/>
   </g>
   <g id="line2d_16">
    <path d="M 104.760375 181.25622 
L 151.102625 154.265567 
L 197.444875 138.992149 
L 243.787125 128.271684 
L 290.129375 119.710886 
L 336.471625 112.500919 
L 382.813875 106.212964 
L 429.156125 100.661165 
L 475.498375 95.472771 
L 521.840625 90.658166 
L 568.182875 86.196584 
L 614.525125 82.119173 
L 660.867375 78.222427 
L 707.209625 74.446123 
L 753.551875 70.759114 
L 799.894125 67.178011 
L 846.236375 63.838833 
L 892.578625 60.682396 
L 938.920875 57.54984 
L 985.263125 54.566799 
" clip-path="url(#p11ba1a6493)" style="fill: none; stroke: #7cb5ec; stroke-linecap: square"/>
   </g>
   <g id="line2d_17">
    <path d="M 104.760375 185.030446 
L 151.102625 158.056406 
L 197.444875 142.991687 
L 243.787125 132.464346 
L 290.129375 124.145473 
L 336.471625 117.264647 
L 382.813875 111.335945 
L 429.156125 105.90355 
L 475.498375 100.919702 
L 521.840625 96.423856 
L 568.182875 92.196929 
L 614.525125 88.175587 
L 660.867375 84.290262 
L 707.209625 80.717466 
L 753.551875 77.240193 
L 799.894125 73.96539 
L 846.236375 70.742501 
L 892.578625 67.700277 
L 938.920875 64.809645 
L 985.263125 61.979235 
" clip-path="url(#p11ba1a6493)" style="fill: none; stroke: #434348; stroke-linecap: square"/>
   </g>
   <g id="line2d_18">
    <path d="M 58.418125 273.99006 
L 985.263125 273.99006 
" clip-path="url(#p11ba1a6493)" style="fill: none; stroke: #dedede; stroke-width: 2; stroke-linecap: square"/>
   </g>
   <g id="text_14">
    <!-- RSeQC: Junction Saturation -->
    <g transform="translate(412.691875 19.3575)scale(0.16 -0.16)">
     <defs>
      <path id="DejaVuSans-52" d="M 2841 2188 
Q 3044 2119 3236 1894 
Q 3428 1669 3622 1275 
L 4263 0 
L 3584 0 
L 2988 1197 
Q 2756 1666 2539 1819 
Q 2322 1972 1947 1972 
L 1259 1972 
L 1259 0 
L 628 0 
L 628 4666 
L 2053 4666 
Q 2853 4666 3247 4331 
Q 3641 3997 3641 3322 
Q 3641 2881 3436 2590 
Q 3231 2300 2841 2188 
z
M 1259 4147 
L 1259 2491 
L 2053 2491 
Q 2509 2491 2742 2702 
Q 2975 2913 2975 3322 
Q 2975 3731 2742 3939 
Q 2509 4147 2053 4147 
L 1259 4147 
z
" transform="scale(0.015625)"/>
      <path id="DejaVuSans-53" d="M 3425 4513 
L 3425 3897 
Q 3066 4069 2747 4153 
Q 2428 4238 2131 4238 
Q 1616 4238 1336 4038 
Q 1056 3838 1056 3469 
Q 1056 3159 1242 3001 
Q 1428 2844 1947 2747 
L 2328 2669 
Q 3034 2534 3370 2195 
Q 3706 1856 3706 1288 
Q 3706 609 3251 259 
Q 2797 -91 1919 -91 
Q 1588 -91 1214 -16 
Q 841 59 441 206 
L 441 856 
Q 825 641 1194 531 
Q 1563 422 1919 422 
Q 2459 422 2753 634 
Q 3047 847 3047 1241 
Q 3047 1584 2836 1778 
Q 2625 1972 2144 2069 
L 1759 2144 
Q 1053 2284 737 2584 
Q 422 2884 422 3419 
Q 422 4038 858 4394 
Q 1294 4750 2059 4750 
Q 2388 4750 2728 4690 
Q 3069 4631 3425 4513 
z
" transform="scale(0.015625)"/>
      <path id="DejaVuSans-51" d="M 2522 4238 
Q 1834 4238 1429 3725 
Q 1025 3213 1025 2328 
Q 1025 1447 1429 934 
Q 1834 422 2522 422 
Q 3209 422 3611 934 
Q 4013 1447 4013 2328 
Q 4013 3213 3611 3725 
Q 3209 4238 2522 4238 
z
M 3406 84 
L 4238 -825 
L 3475 -825 
L 2784 -78 
Q 2681 -84 2626 -87 
Q 2572 -91 2522 -91 
Q 1538 -91 948 567 
Q 359 1225 359 2328 
Q 359 3434 948 4092 
Q 1538 4750 2522 4750 
Q 3503 4750 4090 4092 
Q 4678 3434 4678 2328 
Q 4678 1516 4351 937 
Q 4025 359 3406 84 
z
" transform="scale(0.015625)"/>
      <path id="DejaVuSans-43" d="M 4122 4306 
L 4122 3641 
Q 3803 3938 3442 4084 
Q 3081 4231 2675 4231 
Q 1875 4231 1450 3742 
Q 1025 3253 1025 2328 
Q 1025 1406 1450 917 
Q 1875 428 2675 428 
Q 3081 428 3442 575 
Q 3803 722 4122 1019 
L 4122 359 
Q 3791 134 3420 21 
Q 3050 -91 2638 -91 
Q 1578 -91 968 557 
Q 359 1206 359 2328 
Q 359 3453 968 4101 
Q 1578 4750 2638 4750 
Q 3056 4750 3426 4639 
Q 3797 4528 4122 4306 
z
" transform="scale(0.015625)"/>
      <path id="DejaVuSans-3a" d="M 750 794 
L 1409 794 
L 1409 0 
L 750 0 
L 750 794 
z
M 750 3309 
L 1409 3309 
L 1409 2516 
L 750 2516 
L 750 3309 
z
" transform="scale(0.015625)"/>
     </defs>
     <use xlink:href="#DejaVuSans-52"/>
     <use xlink:href="#DejaVuSans-53" x="69.482422"/>
     <use xlink:href="#DejaVuSans-65" x="132.958984"/>
     <use xlink:href="#DejaVuSans-51" x="194.482422"/>
     <use xlink:href="#DejaVuSans-43" x="273.193359"/>
     <use xlink:href="#DejaVuSans-3a" x="343.017578"/>
     <use xlink:href="#DejaVuSans-20" x="376.708984"/>
     <use xlink:href="#DejaVuSans-4a" x="408.496094"/>
     <use xlink:href="#DejaVuSans-75" x="437.988281"/>
     <use xlink:href="#DejaVuSans-6e" x="501.367188"/>
     <use xlink:href="#DejaVuSans-63" x="564.746094"/>
     <use xlink:href="#DejaVuSans-74" x="619.726562"/>
     <use xlink:href="#DejaVuSans-69" x="658.935547"/>
     <use xlink:href="#DejaVuSans-6f" x="686.71875"/>
     <use xlink:href="#DejaVuSans-6e" x="747.900391"/>
     <use xlink:href="#DejaVuSans-20" x="811.279297"/>
     <use xlink:href="#DejaVuSans-53" x="843.066406"/>
     <use xlink:href="#DejaVuSans-61" x="906.542969"/>
     <use xlink:href="#DejaVuSans-74" x="967.822266"/>
     <use xlink:href="#DejaVuSans-75" x="1007.03125"/>
     <use xlink:href="#DejaVuSans-72" x="1070.410156"/>
     <use xlink:href="#DejaVuSans-61" x="1111.523438"/>
     <use xlink:href="#DejaVuSans-74" x="1172.802734"/>
     <use xlink:href="#DejaVuSans-69" x="1212.011719"/>
     <use xlink:href="#DejaVuSans-6f" x="1239.794922"/>
     <use xlink:href="#DejaVuSans-6e" x="1300.976562"/>
    </g>
   </g>
   <g id="legend_1">
    <g id="line2d_19">
     <path d="M 65.618125 292.192894 
L 73.618125 292.192894 
L 81.618125 292.192894 
" style="fill: none; stroke: #7cb5ec; stroke-linecap: square"/>
    </g>
    <g id="text_15">
     <!-- SRR2155413 -->
     <g transform="translate(88.018125 294.992894)scale(0.08 -0.08)">
      <defs>
       <path id="DejaVuSans-33" d="M 2597 2516 
Q 3050 2419 3304 2112 
Q 3559 1806 3559 1356 
Q 3559 666 3084 287 
Q 2609 -91 1734 -91 
Q 1441 -91 1130 -33 
Q 819 25 488 141 
L 488 750 
Q 750 597 1062 519 
Q 1375 441 1716 441 
Q 2309 441 2620 675 
Q 2931 909 2931 1356 
Q 2931 1769 2642 2001 
Q 2353 2234 1838 2234 
L 1294 2234 
L 1294 2753 
L 1863 2753 
Q 2328 2753 2575 2939 
Q 2822 3125 2822 3475 
Q 2822 3834 2567 4026 
Q 2313 4219 1838 4219 
Q 1578 4219 1281 4162 
Q 984 4106 628 3988 
L 628 4550 
Q 988 4650 1302 4700 
Q 1616 4750 1894 4750 
Q 2613 4750 3031 4423 
Q 3450 4097 3450 3541 
Q 3450 3153 3228 2886 
Q 3006 2619 2597 2516 
z
" transform="scale(0.015625)"/>
      </defs>
      <use xlink:href="#DejaVuSans-53"/>
      <use xlink:href="#DejaVuSans-52" x="63.476562"/>
      <use xlink:href="#DejaVuSans-52" x="132.958984"/>
      <use xlink:href="#DejaVuSans-32" x="202.441406"/>
      <use xlink:href="#DejaVuSans-31" x="266.064453"/>
      <use xlink:href="#DejaVuSans-35" x="329.6875"/>
      <use xlink:href="#DejaVuSans-35" x="393.310547"/>
      <use xlink:href="#DejaVuSans-34" x="456.933594"/>
      <use xlink:href="#DejaVuSans-31" x="520.556641"/>
      <use xlink:href="#DejaVuSans-33" x="584.179688"/>
     </g>
    </g>
    <g id="line2d_20">
     <path d="M 65.618125 303.935394 
L 73.618125 303.935394 
L 81.618125 303.935394 
" style="fill: none; stroke: #434348; stroke-linecap: square"/>
    </g>
    <g id="text_16">
     <!-- SRR2155414 -->
     <g transform="translate(88.018125 306.735394)scale(0.08 -0.08)">
      <use xlink:href="#DejaVuSans-53"/>
      <use xlink:href="#DejaVuSans-52" x="63.476562"/>
      <use xlink:href="#DejaVuSans-52" x="132.958984"/>
      <use xlink:href="#DejaVuSans-32" x="202.441406"/>
      <use xlink:href="#DejaVuSans-31" x="266.064453"/>
      <use xlink:href="#DejaVuSans-35" x="329.6875"/>
      <use xlink:href="#DejaVuSans-35" x="393.310547"/>
      <use xlink:href="#DejaVuSans-34" x="456.933594"/>
      <use xlink:href="#DejaVuSans-31" x="520.556641"/>
      <use xlink:href="#DejaVuSans-34" x="584.179688"/>
     </g>
    </g>
    <g id="line2d_21">
     <path d="M 65.618125 315.677894 
L 73.618125 315.677894 
L 81.618125 315.677894 
" style="fill: none; stroke: #90ed7d; stroke-linecap: square"/>
    </g>
    <g id="text_17">
     <!-- SRR2155415 -->
     <g transform="translate(88.018125 318.477894)scale(0.08 -0.08)">
      <use xlink:href="#DejaVuSans-53"/>
      <use xlink:href="#DejaVuSans-52" x="63.476562"/>
      <use xlink:href="#DejaVuSans-52" x="132.958984"/>
      <use xlink:href="#DejaVuSans-32" x="202.441406"/>
      <use xlink:href="#DejaVuSans-31" x="266.064453"/>
      <use xlink:href="#DejaVuSans-35" x="329.6875"/>
      <use xlink:href="#DejaVuSans-35" x="393.310547"/>
      <use xlink:href="#DejaVuSans-34" x="456.933594"/>
      <use xlink:href="#DejaVuSans-31" x="520.556641"/>
      <use xlink:href="#DejaVuSans-35" x="584.179688"/>
     </g>
    </g>
    <g id="line2d_22">
     <path d="M 275.172813 292.192894 
L 283.172813 292.192894 
L 291.172813 292.192894 
" style="fill: none; stroke: #f7a35c; stroke-linecap: square"/>
    </g>
    <g id="text_18">
     <!-- SRR2155416 -->
     <g transform="translate(297.572812 294.992894)scale(0.08 -0.08)">
      <use xlink:href="#DejaVuSans-53"/>
      <use xlink:href="#DejaVuSans-52" x="63.476562"/>
      <use xlink:href="#DejaVuSans-52" x="132.958984"/>
      <use xlink:href="#DejaVuSans-32" x="202.441406"/>
      <use xlink:href="#DejaVuSans-31" x="266.064453"/>
      <use xlink:href="#DejaVuSans-35" x="329.6875"/>
      <use xlink:href="#DejaVuSans-35" x="393.310547"/>
      <use xlink:href="#DejaVuSans-34" x="456.933594"/>
      <use xlink:href="#DejaVuSans-31" x="520.556641"/>
      <use xlink:href="#DejaVuSans-36" x="584.179688"/>
     </g>
    </g>
    <g id="line2d_23">
     <path d="M 275.172813 303.935394 
L 283.172813 303.935394 
L 291.172813 303.935394 
" style="fill: none; stroke: #8085e9; stroke-linecap: square"/>
    </g>
    <g id="text_19">
     <!-- SRR2155417 -->
     <g transform="translate(297.572812 306.735394)scale(0.08 -0.08)">
      <defs>
       <path id="DejaVuSans-37" d="M 525 4666 
L 3525 4666 
L 3525 4397 
L 1831 0 
L 1172 0 
L 2766 4134 
L 525 4134 
L 525 4666 
z
" transform="scale(0.015625)"/>
      </defs>
      <use xlink:href="#DejaVuSans-53"/>
      <use xlink:href="#DejaVuSans-52" x="63.476562"/>
      <use xlink:href="#DejaVuSans-52" x="132.958984"/>
      <use xlink:href="#DejaVuSans-32" x="202.441406"/>
      <use xlink:href="#DejaVuSans-31" x="266.064453"/>
      <use xlink:href="#DejaVuSans-35" x="329.6875"/>
      <use xlink:href="#DejaVuSans-35" x="393.310547"/>
      <use xlink:href="#DejaVuSans-34" x="456.933594"/>
      <use xlink:href="#DejaVuSans-31" x="520.556641"/>
      <use xlink:href="#DejaVuSans-37" x="584.179688"/>
     </g>
    </g>
    <g id="line2d_24">
     <path d="M 275.172813 315.677894 
L 283.172813 315.677894 
L 291.172813 315.677894 
" style="fill: none; stroke: #f15c80; stroke-linecap: square"/>
    </g>
    <g id="text_20">
     <!-- SRR2155418 -->
     <g transform="translate(297.572812 318.477894)scale(0.08 -0.08)">
      <use xlink:href="#DejaVuSans-53"/>
      <use xlink:href="#DejaVuSans-52" x="63.476562"/>
      <use xlink:href="#DejaVuSans-52" x="132.958984"/>
      <use xlink:href="#DejaVuSans-32" x="202.441406"/>
      <use xlink:href="#DejaVuSans-31" x="266.064453"/>
      <use xlink:href="#DejaVuSans-35" x="329.6875"/>
      <use xlink:href="#DejaVuSans-35" x="393.310547"/>
      <use xlink:href="#DejaVuSans-34" x="456.933594"/>
      <use xlink:href="#DejaVuSans-31" x="520.556641"/>
      <use xlink:href="#DejaVuSans-38" x="584.179688"/>
     </g>
    </g>
    <g id="line2d_25">
     <path d="M 484.7275 292.192894 
L 492.7275 292.192894 
L 500.7275 292.192894 
" style="fill: none; stroke: #e4d354; stroke-linecap: square"/>
    </g>
    <g id="text_21">
     <!-- SRR2155419 -->
     <g transform="translate(507.1275 294.992894)scale(0.08 -0.08)">
      <defs>
       <path id="DejaVuSans-39" d="M 703 97 
L 703 672 
Q 941 559 1184 500 
Q 1428 441 1663 441 
Q 2288 441 2617 861 
Q 2947 1281 2994 2138 
Q 2813 1869 2534 1725 
Q 2256 1581 1919 1581 
Q 1219 1581 811 2004 
Q 403 2428 403 3163 
Q 403 3881 828 4315 
Q 1253 4750 1959 4750 
Q 2769 4750 3195 4129 
Q 3622 3509 3622 2328 
Q 3622 1225 3098 567 
Q 2575 -91 1691 -91 
Q 1453 -91 1209 -44 
Q 966 3 703 97 
z
M 1959 2075 
Q 2384 2075 2632 2365 
Q 2881 2656 2881 3163 
Q 2881 3666 2632 3958 
Q 2384 4250 1959 4250 
Q 1534 4250 1286 3958 
Q 1038 3666 1038 3163 
Q 1038 2656 1286 2365 
Q 1534 2075 1959 2075 
z
" transform="scale(0.015625)"/>
      </defs>
      <use xlink:href="#DejaVuSans-53"/>
      <use xlink:href="#DejaVuSans-52" x="63.476562"/>
      <use xlink:href="#DejaVuSans-52" x="132.958984"/>
      <use xlink:href="#DejaVuSans-32" x="202.441406"/>
      <use xlink:href="#DejaVuSans-31" x="266.064453"/>
      <use xlink:href="#DejaVuSans-35" x="329.6875"/>
      <use xlink:href="#DejaVuSans-35" x="393.310547"/>
      <use xlink:href="#DejaVuSans-34" x="456.933594"/>
      <use xlink:href="#DejaVuSans-31" x="520.556641"/>
      <use xlink:href="#DejaVuSans-39" x="584.179688"/>
     </g>
    </g>
    <g id="line2d_26">
     <path d="M 484.7275 303.935394 
L 492.7275 303.935394 
L 500.7275 303.935394 
" style="fill: none; stroke: #2b908f; stroke-linecap: square"/>
    </g>
    <g id="text_22">
     <!-- SRR2155420 -->
     <g transform="translate(507.1275 306.735394)scale(0.08 -0.08)">
      <use xlink:href="#DejaVuSans-53"/>
      <use xlink:href="#DejaVuSans-52" x="63.476562"/>
      <use xlink:href="#DejaVuSans-52" x="132.958984"/>
      <use xlink:href="#DejaVuSans-32" x="202.441406"/>
      <use xlink:href="#DejaVuSans-31" x="266.064453"/>
      <use xlink:href="#DejaVuSans-35" x="329.6875"/>
      <use xlink:href="#DejaVuSans-35" x="393.310547"/>
      <use xlink:href="#DejaVuSans-34" x="456.933594"/>
      <use xlink:href="#DejaVuSans-32" x="520.556641"/>
      <use xlink:href="#DejaVuSans-30" x="584.179688"/>
     </g>
    </g>
    <g id="line2d_27">
     <path d="M 694.282187 292.192894 
L 702.282187 292.192894 
L 710.282187 292.192894 
" style="fill: none; stroke: #f45b5b; stroke-linecap: square"/>
    </g>
    <g id="text_23">
     <!-- SRR2155421 -->
     <g transform="translate(716.682187 294.992894)scale(0.08 -0.08)">
      <use xlink:href="#DejaVuSans-53"/>
      <use xlink:href="#DejaVuSans-52" x="63.476562"/>
      <use xlink:href="#DejaVuSans-52" x="132.958984"/>
      <use xlink:href="#DejaVuSans-32" x="202.441406"/>
      <use xlink:href="#DejaVuSans-31" x="266.064453"/>
      <use xlink:href="#DejaVuSans-35" x="329.6875"/>
      <use xlink:href="#DejaVuSans-35" x="393.310547"/>
      <use xlink:href="#DejaVuSans-34" x="456.933594"/>
      <use xlink:href="#DejaVuSans-32" x="520.556641"/>
      <use xlink:href="#DejaVuSans-31" x="584.179688"/>
     </g>
    </g>
    <g id="line2d_28">
     <path d="M 694.282187 303.935394 
L 702.282187 303.935394 
L 710.282187 303.935394 
" style="fill: none; stroke: #91e8e1; stroke-linecap: square"/>
    </g>
    <g id="text_24">
     <!-- SRR2155422 -->
     <g transform="translate(716.682187 306.735394)scale(0.08 -0.08)">
      <use xlink:href="#DejaVuSans-53"/>
      <use xlink:href="#DejaVuSans-52" x="63.476562"/>
      <use xlink:href="#DejaVuSans-52" x="132.958984"/>
      <use xlink:href="#DejaVuSans-32" x="202.441406"/>
      <use xlink:href="#DejaVuSans-31" x="266.064453"/>
      <use xlink:href="#DejaVuSans-35" x="329.6875"/>
      <use xlink:href="#DejaVuSans-35" x="393.310547"/>
      <use xlink:href="#DejaVuSans-34" x="456.933594"/>
      <use xlink:href="#DejaVuSans-32" x="520.556641"/>
      <use xlink:href="#DejaVuSans-32" x="584.179688"/>
     </g>
    </g>
    <g id="line2d_29">
     <path d="M 903.836875 292.192894 
L 911.836875 292.192894 
L 919.836875 292.192894 
" style="fill: none; stroke: #7cb5ec; stroke-linecap: square"/>
    </g>
    <g id="text_25">
     <!-- SRR2155423 -->
     <g transform="translate(926.236875 294.992894)scale(0.08 -0.08)">
      <use xlink:href="#DejaVuSans-53"/>
      <use xlink:href="#DejaVuSans-52" x="63.476562"/>
      <use xlink:href="#DejaVuSans-52" x="132.958984"/>
      <use xlink:href="#DejaVuSans-32" x="202.441406"/>
      <use xlink:href="#DejaVuSans-31" x="266.064453"/>
      <use xlink:href="#DejaVuSans-35" x="329.6875"/>
      <use xlink:href="#DejaVuSans-35" x="393.310547"/>
      <use xlink:href="#DejaVuSans-34" x="456.933594"/>
      <use xlink:href="#DejaVuSans-32" x="520.556641"/>
      <use xlink:href="#DejaVuSans-33" x="584.179688"/>
     </g>
    </g>
    <g id="line2d_30">
     <path d="M 903.836875 303.935394 
L 911.836875 303.935394 
L 919.836875 303.935394 
" style="fill: none; stroke: #434348; stroke-linecap: square"/>
    </g>
    <g id="text_26">
     <!-- SRR2155424 -->
     <g transform="translate(926.236875 306.735394)scale(0.08 -0.08)">
      <use xlink:href="#DejaVuSans-53"/>
      <use xlink:href="#DejaVuSans-52" x="63.476562"/>
      <use xlink:href="#DejaVuSans-52" x="132.958984"/>
      <use xlink:href="#DejaVuSans-32" x="202.441406"/>
      <use xlink:href="#DejaVuSans-31" x="266.064453"/>
      <use xlink:href="#DejaVuSans-35" x="329.6875"/>
      <use xlink:href="#DejaVuSans-35" x="393.310547"/>
      <use xlink:href="#DejaVuSans-34" x="456.933594"/>
      <use xlink:href="#DejaVuSans-32" x="520.556641"/>
      <use xlink:href="#DejaVuSans-34" x="584.179688"/>
     </g>
    </g>
   </g>
  </g>
 </g>
 <defs>
  <clipPath id="p11ba1a6493">
   <rect x="58.418125" y="31.48286" width="926.845" height="242.5072"/>
  </clipPath>
 </defs>
</svg>
