<?xml version="1.0" encoding="utf-8" standalone="no"?>
<!DOCTYPE svg PUBLIC "-//W3C//DTD SVG 1.1//EN"
  "http://www.w3.org/Graphics/SVG/1.1/DTD/svg11.dtd">
<svg xmlns:xlink="http://www.w3.org/1999/xlink" width="1000.280625pt" height="330.541644pt" viewBox="0 0 1000.280625 330.541644" xmlns="http://www.w3.org/2000/svg" version="1.1">
 <metadata>
  <rdf:RDF xmlns:dc="http://purl.org/dc/elements/1.1/" xmlns:cc="http://creativecommons.org/ns#" xmlns:rdf="http://www.w3.org/1999/02/22-rdf-syntax-ns#">
   <cc:Work>
    <dc:type rdf:resource="http://purl.org/dc/dcmitype/StillImage"/>
    <dc:date>2024-08-12T02:15:01.187792</dc:date>
    <dc:format>image/svg+xml</dc:format>
    <dc:creator>
     <cc:Agent>
      <dc:title>Matplotlib v3.5.3, https://matplotlib.org/</dc:title>
     </cc:Agent>
    </dc:creator>
   </cc:Work>
  </rdf:RDF>
 </metadata>
 <defs>
  <style type="text/css">*{stroke-linejoin: round; stroke-linecap: butt}</style>
 </defs>
 <g id="figure_1">
  <g id="axes_1">
   <g id="patch_1">
    <path d="M 40.600625 273.99006 
L 985.445625 273.99006 
L 985.445625 31.48286 
L 40.600625 31.48286 
z
" style="fill: #ffffff"/>
   </g>
   <g id="matplotlib.axis_1">
    <g id="xtick_1">
     <g id="text_1">
      <!-- 0 -->
      <g transform="translate(38.055625 287.06881)scale(0.08 -0.08)">
       <defs>
        <path id="DejaVuSans-30" d="M 2034 4250 
Q 1547 4250 1301 3770 
Q 1056 3291 1056 2328 
Q 1056 1369 1301 889 
Q 1547 409 2034 409 
Q 2525 409 2770 889 
Q 3016 1369 3016 2328 
Q 3016 3291 2770 3770 
Q 2525 4250 2034 4250 
z
M 2034 4750 
Q 2819 4750 3233 4129 
Q 3647 3509 3647 2328 
Q 3647 1150 3233 529 
Q 2819 -91 2034 -91 
Q 1250 -91 836 529 
Q 422 1150 422 2328 
Q 422 3509 836 4129 
Q 1250 4750 2034 4750 
z
" transform="scale(0.015625)"/>
       </defs>
       <use xlink:href="#DejaVuSans-30"/>
      </g>
     </g>
    </g>
    <g id="xtick_2">
     <g id="text_2">
      <!-- 20 -->
      <g transform="translate(224.479625 287.06881)scale(0.08 -0.08)">
       <defs>
        <path id="DejaVuSans-32" d="M 1228 531 
L 3431 531 
L 3431 0 
L 469 0 
L 469 531 
Q 828 903 1448 1529 
Q 2069 2156 2228 2338 
Q 2531 2678 2651 2914 
Q 2772 3150 2772 3378 
Q 2772 3750 2511 3984 
Q 2250 4219 1831 4219 
Q 1534 4219 1204 4116 
Q 875 4013 500 3803 
L 500 4441 
Q 881 4594 1212 4672 
Q 1544 4750 1819 4750 
Q 2544 4750 2975 4387 
Q 3406 4025 3406 3419 
Q 3406 3131 3298 2873 
Q 3191 2616 2906 2266 
Q 2828 2175 2409 1742 
Q 1991 1309 1228 531 
z
" transform="scale(0.015625)"/>
       </defs>
       <use xlink:href="#DejaVuSans-32"/>
       <use xlink:href="#DejaVuSans-30" x="63.623047"/>
      </g>
     </g>
    </g>
    <g id="xtick_3">
     <g id="text_3">
      <!-- 40 -->
      <g transform="translate(413.448625 287.06881)scale(0.08 -0.08)">
       <defs>
        <path id="DejaVuSans-34" d="M 2419 4116 
L 825 1625 
L 2419 1625 
L 2419 4116 
z
M 2253 4666 
L 3047 4666 
L 3047 1625 
L 3713 1625 
L 3713 1100 
L 3047 1100 
L 3047 0 
L 2419 0 
L 2419 1100 
L 313 1100 
L 313 1709 
L 2253 4666 
z
" transform="scale(0.015625)"/>
       </defs>
       <use xlink:href="#DejaVuSans-34"/>
       <use xlink:href="#DejaVuSans-30" x="63.623047"/>
      </g>
     </g>
    </g>
    <g id="xtick_4">
     <g id="text_4">
      <!-- 60 -->
      <g transform="translate(602.417625 287.06881)scale(0.08 -0.08)">
       <defs>
        <path id="DejaVuSans-36" d="M 2113 2584 
Q 1688 2584 1439 2293 
Q 1191 2003 1191 1497 
Q 1191 994 1439 701 
Q 1688 409 2113 409 
Q 2538 409 2786 701 
Q 3034 994 3034 1497 
Q 3034 2003 2786 2293 
Q 2538 2584 2113 2584 
z
M 3366 4563 
L 3366 3988 
Q 3128 4100 2886 4159 
Q 2644 4219 2406 4219 
Q 1781 4219 1451 3797 
Q 1122 3375 1075 2522 
Q 1259 2794 1537 2939 
Q 1816 3084 2150 3084 
Q 2853 3084 3261 2657 
Q 3669 2231 3669 1497 
Q 3669 778 3244 343 
Q 2819 -91 2113 -91 
Q 1303 -91 875 529 
Q 447 1150 447 2328 
Q 447 3434 972 4092 
Q 1497 4750 2381 4750 
Q 2619 4750 2861 4703 
Q 3103 4656 3366 4563 
z
" transform="scale(0.015625)"/>
       </defs>
       <use xlink:href="#DejaVuSans-36"/>
       <use xlink:href="#DejaVuSans-30" x="63.623047"/>
      </g>
     </g>
    </g>
    <g id="xtick_5">
     <g id="text_5">
      <!-- 80 -->
      <g transform="translate(791.386625 287.06881)scale(0.08 -0.08)">
       <defs>
        <path id="DejaVuSans-38" d="M 2034 2216 
Q 1584 2216 1326 1975 
Q 1069 1734 1069 1313 
Q 1069 891 1326 650 
Q 1584 409 2034 409 
Q 2484 409 2743 651 
Q 3003 894 3003 1313 
Q 3003 1734 2745 1975 
Q 2488 2216 2034 2216 
z
M 1403 2484 
Q 997 2584 770 2862 
Q 544 3141 544 3541 
Q 544 4100 942 4425 
Q 1341 4750 2034 4750 
Q 2731 4750 3128 4425 
Q 3525 4100 3525 3541 
Q 3525 3141 3298 2862 
Q 3072 2584 2669 2484 
Q 3125 2378 3379 2068 
Q 3634 1759 3634 1313 
Q 3634 634 3220 271 
Q 2806 -91 2034 -91 
Q 1263 -91 848 271 
Q 434 634 434 1313 
Q 434 1759 690 2068 
Q 947 2378 1403 2484 
z
M 1172 3481 
Q 1172 3119 1398 2916 
Q 1625 2713 2034 2713 
Q 2441 2713 2670 2916 
Q 2900 3119 2900 3481 
Q 2900 3844 2670 4047 
Q 2441 4250 2034 4250 
Q 1625 4250 1398 4047 
Q 1172 3844 1172 3481 
z
" transform="scale(0.015625)"/>
       </defs>
       <use xlink:href="#DejaVuSans-38"/>
       <use xlink:href="#DejaVuSans-30" x="63.623047"/>
      </g>
     </g>
    </g>
    <g id="xtick_6">
     <g id="text_6">
      <!-- 100 -->
      <g transform="translate(977.810625 287.06881)scale(0.08 -0.08)">
       <defs>
        <path id="DejaVuSans-31" d="M 794 531 
L 1825 531 
L 1825 4091 
L 703 3866 
L 703 4441 
L 1819 4666 
L 2450 4666 
L 2450 531 
L 3481 531 
L 3481 0 
L 794 0 
L 794 531 
z
" transform="scale(0.015625)"/>
       </defs>
       <use xlink:href="#DejaVuSans-31"/>
       <use xlink:href="#DejaVuSans-30" x="63.623047"/>
       <use xlink:href="#DejaVuSans-30" x="127.246094"/>
      </g>
     </g>
    </g>
    <g id="text_7">
     <!-- Transcript Position (%) -->
     <g transform="translate(457.191094 300.330997)scale(0.1 -0.1)">
      <defs>
       <path id="DejaVuSans-54" d="M -19 4666 
L 3928 4666 
L 3928 4134 
L 2272 4134 
L 2272 0 
L 1638 0 
L 1638 4134 
L -19 4134 
L -19 4666 
z
" transform="scale(0.015625)"/>
       <path id="DejaVuSans-72" d="M 2631 2963 
Q 2534 3019 2420 3045 
Q 2306 3072 2169 3072 
Q 1681 3072 1420 2755 
Q 1159 2438 1159 1844 
L 1159 0 
L 581 0 
L 581 3500 
L 1159 3500 
L 1159 2956 
Q 1341 3275 1631 3429 
Q 1922 3584 2338 3584 
Q 2397 3584 2469 3576 
Q 2541 3569 2628 3553 
L 2631 2963 
z
" transform="scale(0.015625)"/>
       <path id="DejaVuSans-61" d="M 2194 1759 
Q 1497 1759 1228 1600 
Q 959 1441 959 1056 
Q 959 750 1161 570 
Q 1363 391 1709 391 
Q 2188 391 2477 730 
Q 2766 1069 2766 1631 
L 2766 1759 
L 2194 1759 
z
M 3341 1997 
L 3341 0 
L 2766 0 
L 2766 531 
Q 2569 213 2275 61 
Q 1981 -91 1556 -91 
Q 1019 -91 701 211 
Q 384 513 384 1019 
Q 384 1609 779 1909 
Q 1175 2209 1959 2209 
L 2766 2209 
L 2766 2266 
Q 2766 2663 2505 2880 
Q 2244 3097 1772 3097 
Q 1472 3097 1187 3025 
Q 903 2953 641 2809 
L 641 3341 
Q 956 3463 1253 3523 
Q 1550 3584 1831 3584 
Q 2591 3584 2966 3190 
Q 3341 2797 3341 1997 
z
" transform="scale(0.015625)"/>
       <path id="DejaVuSans-6e" d="M 3513 2113 
L 3513 0 
L 2938 0 
L 2938 2094 
Q 2938 2591 2744 2837 
Q 2550 3084 2163 3084 
Q 1697 3084 1428 2787 
Q 1159 2491 1159 1978 
L 1159 0 
L 581 0 
L 581 3500 
L 1159 3500 
L 1159 2956 
Q 1366 3272 1645 3428 
Q 1925 3584 2291 3584 
Q 2894 3584 3203 3211 
Q 3513 2838 3513 2113 
z
" transform="scale(0.015625)"/>
       <path id="DejaVuSans-73" d="M 2834 3397 
L 2834 2853 
Q 2591 2978 2328 3040 
Q 2066 3103 1784 3103 
Q 1356 3103 1142 2972 
Q 928 2841 928 2578 
Q 928 2378 1081 2264 
Q 1234 2150 1697 2047 
L 1894 2003 
Q 2506 1872 2764 1633 
Q 3022 1394 3022 966 
Q 3022 478 2636 193 
Q 2250 -91 1575 -91 
Q 1294 -91 989 -36 
Q 684 19 347 128 
L 347 722 
Q 666 556 975 473 
Q 1284 391 1588 391 
Q 1994 391 2212 530 
Q 2431 669 2431 922 
Q 2431 1156 2273 1281 
Q 2116 1406 1581 1522 
L 1381 1569 
Q 847 1681 609 1914 
Q 372 2147 372 2553 
Q 372 3047 722 3315 
Q 1072 3584 1716 3584 
Q 2034 3584 2315 3537 
Q 2597 3491 2834 3397 
z
" transform="scale(0.015625)"/>
       <path id="DejaVuSans-63" d="M 3122 3366 
L 3122 2828 
Q 2878 2963 2633 3030 
Q 2388 3097 2138 3097 
Q 1578 3097 1268 2742 
Q 959 2388 959 1747 
Q 959 1106 1268 751 
Q 1578 397 2138 397 
Q 2388 397 2633 464 
Q 2878 531 3122 666 
L 3122 134 
Q 2881 22 2623 -34 
Q 2366 -91 2075 -91 
Q 1284 -91 818 406 
Q 353 903 353 1747 
Q 353 2603 823 3093 
Q 1294 3584 2113 3584 
Q 2378 3584 2631 3529 
Q 2884 3475 3122 3366 
z
" transform="scale(0.015625)"/>
       <path id="DejaVuSans-69" d="M 603 3500 
L 1178 3500 
L 1178 0 
L 603 0 
L 603 3500 
z
M 603 4863 
L 1178 4863 
L 1178 4134 
L 603 4134 
L 603 4863 
z
" transform="scale(0.015625)"/>
       <path id="DejaVuSans-70" d="M 1159 525 
L 1159 -1331 
L 581 -1331 
L 581 3500 
L 1159 3500 
L 1159 2969 
Q 1341 3281 1617 3432 
Q 1894 3584 2278 3584 
Q 2916 3584 3314 3078 
Q 3713 2572 3713 1747 
Q 3713 922 3314 415 
Q 2916 -91 2278 -91 
Q 1894 -91 1617 61 
Q 1341 213 1159 525 
z
M 3116 1747 
Q 3116 2381 2855 2742 
Q 2594 3103 2138 3103 
Q 1681 3103 1420 2742 
Q 1159 2381 1159 1747 
Q 1159 1113 1420 752 
Q 1681 391 2138 391 
Q 2594 391 2855 752 
Q 3116 1113 3116 1747 
z
" transform="scale(0.015625)"/>
       <path id="DejaVuSans-74" d="M 1172 4494 
L 1172 3500 
L 2356 3500 
L 2356 3053 
L 1172 3053 
L 1172 1153 
Q 1172 725 1289 603 
Q 1406 481 1766 481 
L 2356 481 
L 2356 0 
L 1766 0 
Q 1100 0 847 248 
Q 594 497 594 1153 
L 594 3053 
L 172 3053 
L 172 3500 
L 594 3500 
L 594 4494 
L 1172 4494 
z
" transform="scale(0.015625)"/>
       <path id="DejaVuSans-20" transform="scale(0.015625)"/>
       <path id="DejaVuSans-50" d="M 1259 4147 
L 1259 2394 
L 2053 2394 
Q 2494 2394 2734 2622 
Q 2975 2850 2975 3272 
Q 2975 3691 2734 3919 
Q 2494 4147 2053 4147 
L 1259 4147 
z
M 628 4666 
L 2053 4666 
Q 2838 4666 3239 4311 
Q 3641 3956 3641 3272 
Q 3641 2581 3239 2228 
Q 2838 1875 2053 1875 
L 1259 1875 
L 1259 0 
L 628 0 
L 628 4666 
z
" transform="scale(0.015625)"/>
       <path id="DejaVuSans-6f" d="M 1959 3097 
Q 1497 3097 1228 2736 
Q 959 2375 959 1747 
Q 959 1119 1226 758 
Q 1494 397 1959 397 
Q 2419 397 2687 759 
Q 2956 1122 2956 1747 
Q 2956 2369 2687 2733 
Q 2419 3097 1959 3097 
z
M 1959 3584 
Q 2709 3584 3137 3096 
Q 3566 2609 3566 1747 
Q 3566 888 3137 398 
Q 2709 -91 1959 -91 
Q 1206 -91 779 398 
Q 353 888 353 1747 
Q 353 2609 779 3096 
Q 1206 3584 1959 3584 
z
" transform="scale(0.015625)"/>
       <path id="DejaVuSans-28" d="M 1984 4856 
Q 1566 4138 1362 3434 
Q 1159 2731 1159 2009 
Q 1159 1288 1364 580 
Q 1569 -128 1984 -844 
L 1484 -844 
Q 1016 -109 783 600 
Q 550 1309 550 2009 
Q 550 2706 781 3412 
Q 1013 4119 1484 4856 
L 1984 4856 
z
" transform="scale(0.015625)"/>
       <path id="DejaVuSans-25" d="M 4653 2053 
Q 4381 2053 4226 1822 
Q 4072 1591 4072 1178 
Q 4072 772 4226 539 
Q 4381 306 4653 306 
Q 4919 306 5073 539 
Q 5228 772 5228 1178 
Q 5228 1588 5073 1820 
Q 4919 2053 4653 2053 
z
M 4653 2450 
Q 5147 2450 5437 2106 
Q 5728 1763 5728 1178 
Q 5728 594 5436 251 
Q 5144 -91 4653 -91 
Q 4153 -91 3862 251 
Q 3572 594 3572 1178 
Q 3572 1766 3864 2108 
Q 4156 2450 4653 2450 
z
M 1428 4353 
Q 1159 4353 1004 4120 
Q 850 3888 850 3481 
Q 850 3069 1003 2837 
Q 1156 2606 1428 2606 
Q 1700 2606 1854 2837 
Q 2009 3069 2009 3481 
Q 2009 3884 1853 4118 
Q 1697 4353 1428 4353 
z
M 4250 4750 
L 4750 4750 
L 1831 -91 
L 1331 -91 
L 4250 4750 
z
M 1428 4750 
Q 1922 4750 2215 4408 
Q 2509 4066 2509 3481 
Q 2509 2891 2217 2550 
Q 1925 2209 1428 2209 
Q 931 2209 642 2551 
Q 353 2894 353 3481 
Q 353 4063 643 4406 
Q 934 4750 1428 4750 
z
" transform="scale(0.015625)"/>
       <path id="DejaVuSans-29" d="M 513 4856 
L 1013 4856 
Q 1481 4119 1714 3412 
Q 1947 2706 1947 2009 
Q 1947 1309 1714 600 
Q 1481 -109 1013 -844 
L 513 -844 
Q 928 -128 1133 580 
Q 1338 1288 1338 2009 
Q 1338 2731 1133 3434 
Q 928 4138 513 4856 
z
" transform="scale(0.015625)"/>
      </defs>
      <use xlink:href="#DejaVuSans-54"/>
      <use xlink:href="#DejaVuSans-72" x="46.333984"/>
      <use xlink:href="#DejaVuSans-61" x="87.447266"/>
      <use xlink:href="#DejaVuSans-6e" x="148.726562"/>
      <use xlink:href="#DejaVuSans-73" x="212.105469"/>
      <use xlink:href="#DejaVuSans-63" x="264.205078"/>
      <use xlink:href="#DejaVuSans-72" x="319.185547"/>
      <use xlink:href="#DejaVuSans-69" x="360.298828"/>
      <use xlink:href="#DejaVuSans-70" x="388.082031"/>
      <use xlink:href="#DejaVuSans-74" x="451.558594"/>
      <use xlink:href="#DejaVuSans-20" x="490.767578"/>
      <use xlink:href="#DejaVuSans-50" x="522.554688"/>
      <use xlink:href="#DejaVuSans-6f" x="579.232422"/>
      <use xlink:href="#DejaVuSans-73" x="640.414062"/>
      <use xlink:href="#DejaVuSans-69" x="692.513672"/>
      <use xlink:href="#DejaVuSans-74" x="720.296875"/>
      <use xlink:href="#DejaVuSans-69" x="759.505859"/>
      <use xlink:href="#DejaVuSans-6f" x="787.289062"/>
      <use xlink:href="#DejaVuSans-6e" x="848.470703"/>
      <use xlink:href="#DejaVuSans-20" x="911.849609"/>
      <use xlink:href="#DejaVuSans-28" x="943.636719"/>
      <use xlink:href="#DejaVuSans-25" x="982.650391"/>
      <use xlink:href="#DejaVuSans-29" x="1077.669922"/>
     </g>
    </g>
   </g>
   <g id="matplotlib.axis_2">
    <g id="ytick_1">
     <g id="line2d_1">
      <path d="M 40.600625 273.99006 
L 985.445625 273.99006 
" clip-path="url(#pcb2f727400)" style="fill: none; stroke: #dedede; stroke-linecap: square"/>
     </g>
     <g id="text_8">
      <!-- 0.0 -->
      <g transform="translate(20.878125 277.029435)scale(0.08 -0.08)">
       <defs>
        <path id="DejaVuSans-2e" d="M 684 794 
L 1344 794 
L 1344 0 
L 684 0 
L 684 794 
z
" transform="scale(0.015625)"/>
       </defs>
       <use xlink:href="#DejaVuSans-30"/>
       <use xlink:href="#DejaVuSans-2e" x="63.623047"/>
       <use xlink:href="#DejaVuSans-30" x="95.410156"/>
      </g>
     </g>
    </g>
    <g id="ytick_2">
     <g id="line2d_2">
      <path d="M 40.600625 233.958623 
L 985.445625 233.958623 
" clip-path="url(#pcb2f727400)" style="fill: none; stroke: #dedede; stroke-linecap: square"/>
     </g>
     <g id="text_9">
      <!-- 0.2 -->
      <g transform="translate(20.878125 236.997998)scale(0.08 -0.08)">
       <use xlink:href="#DejaVuSans-30"/>
       <use xlink:href="#DejaVuSans-2e" x="63.623047"/>
       <use xlink:href="#DejaVuSans-32" x="95.410156"/>
      </g>
     </g>
    </g>
    <g id="ytick_3">
     <g id="line2d_3">
      <path d="M 40.600625 193.927185 
L 985.445625 193.927185 
" clip-path="url(#pcb2f727400)" style="fill: none; stroke: #dedede; stroke-linecap: square"/>
     </g>
     <g id="text_10">
      <!-- 0.4 -->
      <g transform="translate(20.878125 196.96656)scale(0.08 -0.08)">
       <use xlink:href="#DejaVuSans-30"/>
       <use xlink:href="#DejaVuSans-2e" x="63.623047"/>
       <use xlink:href="#DejaVuSans-34" x="95.410156"/>
      </g>
     </g>
    </g>
    <g id="ytick_4">
     <g id="line2d_4">
      <path d="M 40.600625 153.895748 
L 985.445625 153.895748 
" clip-path="url(#pcb2f727400)" style="fill: none; stroke: #dedede; stroke-linecap: square"/>
     </g>
     <g id="text_11">
      <!-- 0.6 -->
      <g transform="translate(20.878125 156.935123)scale(0.08 -0.08)">
       <use xlink:href="#DejaVuSans-30"/>
       <use xlink:href="#DejaVuSans-2e" x="63.623047"/>
       <use xlink:href="#DejaVuSans-36" x="95.410156"/>
      </g>
     </g>
    </g>
    <g id="ytick_5">
     <g id="line2d_5">
      <path d="M 40.600625 113.864311 
L 985.445625 113.864311 
" clip-path="url(#pcb2f727400)" style="fill: none; stroke: #dedede; stroke-linecap: square"/>
     </g>
     <g id="text_12">
      <!-- 0.8 -->
      <g transform="translate(20.878125 116.903686)scale(0.08 -0.08)">
       <use xlink:href="#DejaVuSans-30"/>
       <use xlink:href="#DejaVuSans-2e" x="63.623047"/>
       <use xlink:href="#DejaVuSans-38" x="95.410156"/>
      </g>
     </g>
    </g>
    <g id="ytick_6">
     <g id="line2d_6">
      <path d="M 40.600625 73.832873 
L 985.445625 73.832873 
" clip-path="url(#pcb2f727400)" style="fill: none; stroke: #dedede; stroke-linecap: square"/>
     </g>
     <g id="text_13">
      <!-- 1.0 -->
      <g transform="translate(20.878125 76.872248)scale(0.08 -0.08)">
       <use xlink:href="#DejaVuSans-31"/>
       <use xlink:href="#DejaVuSans-2e" x="63.623047"/>
       <use xlink:href="#DejaVuSans-30" x="95.410156"/>
      </g>
     </g>
    </g>
    <g id="ytick_7">
     <g id="line2d_7">
      <path d="M 40.600625 33.801436 
L 985.445625 33.801436 
" clip-path="url(#pcb2f727400)" style="fill: none; stroke: #dedede; stroke-linecap: square"/>
     </g>
     <g id="text_14">
      <!-- 1.2 -->
      <g transform="translate(20.878125 36.840811)scale(0.08 -0.08)">
       <use xlink:href="#DejaVuSans-31"/>
       <use xlink:href="#DejaVuSans-2e" x="63.623047"/>
       <use xlink:href="#DejaVuSans-32" x="95.410156"/>
      </g>
     </g>
    </g>
    <g id="text_15">
     <!-- Percentage total cumulative mapped-read depth -->
     <g transform="translate(14.798438 274.59271)rotate(-90)scale(0.1 -0.1)">
      <defs>
       <path id="DejaVuSans-65" d="M 3597 1894 
L 3597 1613 
L 953 1613 
Q 991 1019 1311 708 
Q 1631 397 2203 397 
Q 2534 397 2845 478 
Q 3156 559 3463 722 
L 3463 178 
Q 3153 47 2828 -22 
Q 2503 -91 2169 -91 
Q 1331 -91 842 396 
Q 353 884 353 1716 
Q 353 2575 817 3079 
Q 1281 3584 2069 3584 
Q 2775 3584 3186 3129 
Q 3597 2675 3597 1894 
z
M 3022 2063 
Q 3016 2534 2758 2815 
Q 2500 3097 2075 3097 
Q 1594 3097 1305 2825 
Q 1016 2553 972 2059 
L 3022 2063 
z
" transform="scale(0.015625)"/>
       <path id="DejaVuSans-67" d="M 2906 1791 
Q 2906 2416 2648 2759 
Q 2391 3103 1925 3103 
Q 1463 3103 1205 2759 
Q 947 2416 947 1791 
Q 947 1169 1205 825 
Q 1463 481 1925 481 
Q 2391 481 2648 825 
Q 2906 1169 2906 1791 
z
M 3481 434 
Q 3481 -459 3084 -895 
Q 2688 -1331 1869 -1331 
Q 1566 -1331 1297 -1286 
Q 1028 -1241 775 -1147 
L 775 -588 
Q 1028 -725 1275 -790 
Q 1522 -856 1778 -856 
Q 2344 -856 2625 -561 
Q 2906 -266 2906 331 
L 2906 616 
Q 2728 306 2450 153 
Q 2172 0 1784 0 
Q 1141 0 747 490 
Q 353 981 353 1791 
Q 353 2603 747 3093 
Q 1141 3584 1784 3584 
Q 2172 3584 2450 3431 
Q 2728 3278 2906 2969 
L 2906 3500 
L 3481 3500 
L 3481 434 
z
" transform="scale(0.015625)"/>
       <path id="DejaVuSans-6c" d="M 603 4863 
L 1178 4863 
L 1178 0 
L 603 0 
L 603 4863 
z
" transform="scale(0.015625)"/>
       <path id="DejaVuSans-75" d="M 544 1381 
L 544 3500 
L 1119 3500 
L 1119 1403 
Q 1119 906 1312 657 
Q 1506 409 1894 409 
Q 2359 409 2629 706 
Q 2900 1003 2900 1516 
L 2900 3500 
L 3475 3500 
L 3475 0 
L 2900 0 
L 2900 538 
Q 2691 219 2414 64 
Q 2138 -91 1772 -91 
Q 1169 -91 856 284 
Q 544 659 544 1381 
z
M 1991 3584 
L 1991 3584 
z
" transform="scale(0.015625)"/>
       <path id="DejaVuSans-6d" d="M 3328 2828 
Q 3544 3216 3844 3400 
Q 4144 3584 4550 3584 
Q 5097 3584 5394 3201 
Q 5691 2819 5691 2113 
L 5691 0 
L 5113 0 
L 5113 2094 
Q 5113 2597 4934 2840 
Q 4756 3084 4391 3084 
Q 3944 3084 3684 2787 
Q 3425 2491 3425 1978 
L 3425 0 
L 2847 0 
L 2847 2094 
Q 2847 2600 2669 2842 
Q 2491 3084 2119 3084 
Q 1678 3084 1418 2786 
Q 1159 2488 1159 1978 
L 1159 0 
L 581 0 
L 581 3500 
L 1159 3500 
L 1159 2956 
Q 1356 3278 1631 3431 
Q 1906 3584 2284 3584 
Q 2666 3584 2933 3390 
Q 3200 3197 3328 2828 
z
" transform="scale(0.015625)"/>
       <path id="DejaVuSans-76" d="M 191 3500 
L 800 3500 
L 1894 563 
L 2988 3500 
L 3597 3500 
L 2284 0 
L 1503 0 
L 191 3500 
z
" transform="scale(0.015625)"/>
       <path id="DejaVuSans-64" d="M 2906 2969 
L 2906 4863 
L 3481 4863 
L 3481 0 
L 2906 0 
L 2906 525 
Q 2725 213 2448 61 
Q 2172 -91 1784 -91 
Q 1150 -91 751 415 
Q 353 922 353 1747 
Q 353 2572 751 3078 
Q 1150 3584 1784 3584 
Q 2172 3584 2448 3432 
Q 2725 3281 2906 2969 
z
M 947 1747 
Q 947 1113 1208 752 
Q 1469 391 1925 391 
Q 2381 391 2643 752 
Q 2906 1113 2906 1747 
Q 2906 2381 2643 2742 
Q 2381 3103 1925 3103 
Q 1469 3103 1208 2742 
Q 947 2381 947 1747 
z
" transform="scale(0.015625)"/>
       <path id="DejaVuSans-2d" d="M 313 2009 
L 1997 2009 
L 1997 1497 
L 313 1497 
L 313 2009 
z
" transform="scale(0.015625)"/>
       <path id="DejaVuSans-68" d="M 3513 2113 
L 3513 0 
L 2938 0 
L 2938 2094 
Q 2938 2591 2744 2837 
Q 2550 3084 2163 3084 
Q 1697 3084 1428 2787 
Q 1159 2491 1159 1978 
L 1159 0 
L 581 0 
L 581 4863 
L 1159 4863 
L 1159 2956 
Q 1366 3272 1645 3428 
Q 1925 3584 2291 3584 
Q 2894 3584 3203 3211 
Q 3513 2838 3513 2113 
z
" transform="scale(0.015625)"/>
      </defs>
      <use xlink:href="#DejaVuSans-50"/>
      <use xlink:href="#DejaVuSans-65" x="56.677734"/>
      <use xlink:href="#DejaVuSans-72" x="118.201172"/>
      <use xlink:href="#DejaVuSans-63" x="157.064453"/>
      <use xlink:href="#DejaVuSans-65" x="212.044922"/>
      <use xlink:href="#DejaVuSans-6e" x="273.568359"/>
      <use xlink:href="#DejaVuSans-74" x="336.947266"/>
      <use xlink:href="#DejaVuSans-61" x="376.15625"/>
      <use xlink:href="#DejaVuSans-67" x="437.435547"/>
      <use xlink:href="#DejaVuSans-65" x="500.912109"/>
      <use xlink:href="#DejaVuSans-20" x="562.435547"/>
      <use xlink:href="#DejaVuSans-74" x="594.222656"/>
      <use xlink:href="#DejaVuSans-6f" x="633.431641"/>
      <use xlink:href="#DejaVuSans-74" x="694.613281"/>
      <use xlink:href="#DejaVuSans-61" x="733.822266"/>
      <use xlink:href="#DejaVuSans-6c" x="795.101562"/>
      <use xlink:href="#DejaVuSans-20" x="822.884766"/>
      <use xlink:href="#DejaVuSans-63" x="854.671875"/>
      <use xlink:href="#DejaVuSans-75" x="909.652344"/>
      <use xlink:href="#DejaVuSans-6d" x="973.03125"/>
      <use xlink:href="#DejaVuSans-75" x="1070.443359"/>
      <use xlink:href="#DejaVuSans-6c" x="1133.822266"/>
      <use xlink:href="#DejaVuSans-61" x="1161.605469"/>
      <use xlink:href="#DejaVuSans-74" x="1222.884766"/>
      <use xlink:href="#DejaVuSans-69" x="1262.09375"/>
      <use xlink:href="#DejaVuSans-76" x="1289.876953"/>
      <use xlink:href="#DejaVuSans-65" x="1349.056641"/>
      <use xlink:href="#DejaVuSans-20" x="1410.580078"/>
      <use xlink:href="#DejaVuSans-6d" x="1442.367188"/>
      <use xlink:href="#DejaVuSans-61" x="1539.779297"/>
      <use xlink:href="#DejaVuSans-70" x="1601.058594"/>
      <use xlink:href="#DejaVuSans-70" x="1664.535156"/>
      <use xlink:href="#DejaVuSans-65" x="1728.011719"/>
      <use xlink:href="#DejaVuSans-64" x="1789.535156"/>
      <use xlink:href="#DejaVuSans-2d" x="1853.011719"/>
      <use xlink:href="#DejaVuSans-72" x="1889.095703"/>
      <use xlink:href="#DejaVuSans-65" x="1927.958984"/>
      <use xlink:href="#DejaVuSans-61" x="1989.482422"/>
      <use xlink:href="#DejaVuSans-64" x="2050.761719"/>
      <use xlink:href="#DejaVuSans-20" x="2114.238281"/>
      <use xlink:href="#DejaVuSans-64" x="2146.025391"/>
      <use xlink:href="#DejaVuSans-65" x="2209.501953"/>
      <use xlink:href="#DejaVuSans-70" x="2271.025391"/>
      <use xlink:href="#DejaVuSans-74" x="2334.501953"/>
      <use xlink:href="#DejaVuSans-68" x="2373.710938"/>
     </g>
    </g>
   </g>
   <g id="line2d_8">
    <path d="M 40.600625 144.476988 
L 50.049075 136.376869 
L 59.497525 127.18616 
L 68.945975 119.662905 
L 78.394425 111.95887 
L 87.842875 104.083441 
L 97.291325 95.713834 
L 106.739775 90.888204 
L 116.188225 85.87804 
L 125.636675 80.149842 
L 135.085125 75.658954 
L 144.533575 70.838785 
L 153.982025 68.197499 
L 163.430475 65.486276 
L 172.878925 62.298336 
L 182.327375 58.728813 
L 191.775825 57.765992 
L 201.224275 54.391768 
L 210.672725 51.798022 
L 220.121175 51.092855 
L 229.569625 49.959585 
L 239.018075 48.938378 
L 248.466525 47.580079 
L 257.914975 46.266186 
L 267.363425 45.771135 
L 276.811875 43.749963 
L 286.260325 42.919043 
L 295.708775 44.191978 
L 305.157225 45.198549 
L 314.605675 45.6624 
L 324.054125 46.123978 
L 333.502575 46.970415 
L 342.951025 46.855906 
L 352.399475 46.391848 
L 361.847925 45.812326 
L 371.296375 44.897008 
L 380.744825 44.733235 
L 390.193275 44.860063 
L 399.641725 44.370715 
L 409.090175 44.217642 
L 418.538625 43.837833 
L 427.987075 45.02916 
L 437.435525 45.876471 
L 446.883975 46.042546 
L 456.332425 45.778307 
L 465.780875 45.328172 
L 475.229325 46.142797 
L 484.677775 46.598834 
L 494.126225 46.486173 
L 503.574675 46.987701 
L 513.023125 48.936396 
L 522.471575 50.288255 
L 531.920025 50.925165 
L 541.368475 50.957372 
L 550.816925 51.635914 
L 560.265375 53.083486 
L 569.713825 55.255543 
L 579.162275 57.08288 
L 588.610725 57.833171 
L 598.059175 57.784227 
L 607.507625 57.850048 
L 616.956075 57.68379 
L 626.404525 57.308427 
L 635.852975 57.763536 
L 645.301425 59.193432 
L 654.749875 60.786995 
L 664.198325 62.539079 
L 673.646775 63.310191 
L 683.095225 63.285838 
L 692.543675 63.971723 
L 701.992125 64.266236 
L 711.440575 64.081542 
L 720.889025 63.577246 
L 730.337475 63.101606 
L 739.785925 64.422019 
L 749.234375 64.503815 
L 758.682825 65.097811 
L 768.131275 67.227884 
L 777.579725 68.707625 
L 787.028175 69.922089 
L 796.476625 71.06925 
L 805.925075 72.175076 
L 815.373525 73.136462 
L 824.821975 74.667124 
L 834.270425 77.158642 
L 843.718875 80.327471 
L 853.167325 83.793675 
L 862.615775 87.078046 
L 872.064225 92.124988 
L 881.512675 99.174242 
L 890.961125 107.719732 
L 900.409575 117.362595 
L 909.858025 127.964937 
L 919.306475 138.945127 
L 928.754925 151.003012 
L 938.203375 165.87946 
L 947.651825 184.870693 
L 957.100275 207.318071 
L 966.548725 232.461307 
L 975.997175 260.463197 
" clip-path="url(#pcb2f727400)" style="fill: none; stroke: #7cb5ec; stroke-linecap: square"/>
   </g>
   <g id="line2d_9">
    <path d="M 40.600625 143.974961 
L 50.049075 135.301817 
L 59.497525 125.672273 
L 68.945975 118.126714 
L 78.394425 110.630706 
L 87.842875 103.117584 
L 97.291325 94.946528 
L 106.739775 90.22408 
L 116.188225 85.355105 
L 125.636675 79.764274 
L 135.085125 75.450474 
L 144.533575 70.627894 
L 153.982025 68.04713 
L 163.430475 65.460397 
L 172.878925 62.360999 
L 182.327375 58.640829 
L 191.775825 57.595933 
L 201.224275 54.319498 
L 210.672725 51.826708 
L 220.121175 51.198297 
L 229.569625 50.060873 
L 239.018075 49.098104 
L 248.466525 47.74063 
L 257.914975 46.464509 
L 267.363425 45.861557 
L 276.811875 43.838763 
L 286.260325 42.981115 
L 295.708775 44.228772 
L 305.157225 45.272475 
L 314.605675 45.786095 
L 324.054125 46.249112 
L 333.502575 47.078138 
L 342.951025 46.879038 
L 352.399475 46.337255 
L 361.847925 45.681812 
L 371.296375 44.689062 
L 380.744825 44.434729 
L 390.193275 44.590909 
L 399.641725 44.143676 
L 409.090175 44.058486 
L 418.538625 43.82957 
L 427.987075 45.067815 
L 437.435525 45.950864 
L 446.883975 46.154427 
L 456.332425 45.858932 
L 465.780875 45.229801 
L 475.229325 46.010391 
L 484.677775 46.440417 
L 494.126225 46.207633 
L 503.574675 46.655136 
L 513.023125 48.437684 
L 522.471575 49.819984 
L 531.920025 50.528111 
L 541.368475 50.758862 
L 550.816925 51.418247 
L 560.265375 52.837319 
L 569.713825 55.120339 
L 579.162275 57.106423 
L 588.610725 58.139385 
L 598.059175 58.021647 
L 607.507625 58.05762 
L 616.956075 57.834954 
L 626.404525 57.407073 
L 635.852975 57.836518 
L 645.301425 59.137788 
L 654.749875 60.765638 
L 664.198325 62.601072 
L 673.646775 63.289389 
L 683.095225 63.364989 
L 692.543675 64.095597 
L 701.992125 64.317005 
L 711.440575 64.207591 
L 720.889025 63.780007 
L 730.337475 63.317135 
L 739.785925 64.680177 
L 749.234375 64.825427 
L 758.682825 65.322645 
L 768.131275 67.392706 
L 777.579725 68.924362 
L 787.028175 70.206379 
L 796.476625 71.371756 
L 805.925075 72.625292 
L 815.373525 73.6198 
L 824.821975 75.138503 
L 834.270425 77.656915 
L 843.718875 80.773943 
L 853.167325 84.235846 
L 862.615775 87.694939 
L 872.064225 92.800727 
L 881.512675 99.865468 
L 890.961125 108.308639 
L 900.409575 117.934021 
L 909.858025 128.436504 
L 919.306475 139.450376 
L 928.754925 151.582034 
L 938.203375 166.420705 
L 947.651825 185.484126 
L 957.100275 207.739128 
L 966.548725 232.582843 
L 975.997175 260.491392 
" clip-path="url(#pcb2f727400)" style="fill: none; stroke: #434348; stroke-linecap: square"/>
   </g>
   <g id="line2d_10">
    <path d="M 40.600625 144.491165 
L 50.049075 135.554516 
L 59.497525 125.826019 
L 68.945975 118.205029 
L 78.394425 110.610132 
L 87.842875 103.015592 
L 97.291325 94.730348 
L 106.739775 89.842951 
L 116.188225 84.776889 
L 125.636675 79.135422 
L 135.085125 74.707645 
L 144.533575 69.880636 
L 153.982025 67.306329 
L 163.430475 64.615822 
L 172.878925 61.380627 
L 182.327375 57.809005 
L 191.775825 56.834361 
L 201.224275 53.701182 
L 210.672725 51.20533 
L 220.121175 50.562335 
L 229.569625 49.396924 
L 239.018075 48.527322 
L 248.466525 47.321161 
L 257.914975 46.063419 
L 267.363425 45.490855 
L 276.811875 43.423843 
L 286.260325 42.593407 
L 295.708775 43.766371 
L 305.157225 44.77463 
L 314.605675 45.281084 
L 324.054125 45.733883 
L 333.502575 46.588012 
L 342.951025 46.41249 
L 352.399475 46.048877 
L 361.847925 45.50153 
L 371.296375 44.545494 
L 380.744825 44.470478 
L 390.193275 44.625339 
L 399.641725 44.271906 
L 409.090175 44.178709 
L 418.538625 43.875017 
L 427.987075 45.080205 
L 437.435525 45.932807 
L 446.883975 46.070565 
L 456.332425 45.883149 
L 465.780875 45.300762 
L 475.229325 46.203696 
L 484.677775 46.565705 
L 494.126225 46.509781 
L 503.574675 47.144234 
L 513.023125 49.068058 
L 522.471575 50.578652 
L 531.920025 51.220047 
L 541.368475 51.323408 
L 550.816925 51.958309 
L 560.265375 53.376112 
L 569.713825 55.620026 
L 579.162275 57.475572 
L 588.610725 58.35952 
L 598.059175 58.205745 
L 607.507625 58.14929 
L 616.956075 57.981102 
L 626.404525 57.566297 
L 635.852975 58.072579 
L 645.301425 59.417327 
L 654.749875 60.99201 
L 664.198325 62.853477 
L 673.646775 63.667595 
L 683.095225 63.792622 
L 692.543675 64.579012 
L 701.992125 64.869767 
L 711.440575 64.800526 
L 720.889025 64.393798 
L 730.337475 64.007589 
L 739.785925 65.266751 
L 749.234375 65.313597 
L 758.682825 65.759521 
L 768.131275 67.645845 
L 777.579725 69.074124 
L 787.028175 70.35419 
L 796.476625 71.520874 
L 805.925075 72.732243 
L 815.373525 73.766538 
L 824.821975 75.391517 
L 834.270425 77.942878 
L 843.718875 81.077484 
L 853.167325 84.472051 
L 862.615775 87.860313 
L 872.064225 92.938484 
L 881.512675 100.02916 
L 890.961125 108.4597 
L 900.409575 118.050219 
L 909.858025 128.447084 
L 919.306475 139.290128 
L 928.754925 151.314522 
L 938.203375 166.204265 
L 947.651825 185.352821 
L 957.100275 207.697188 
L 966.548725 232.671038 
L 975.997175 260.553358 
" clip-path="url(#pcb2f727400)" style="fill: none; stroke: #90ed7d; stroke-linecap: square"/>
   </g>
   <g id="line2d_11">
    <path d="M 40.600625 146.000365 
L 50.049075 137.832593 
L 59.497525 128.395996 
L 68.945975 120.83934 
L 78.394425 113.220866 
L 87.842875 105.456847 
L 97.291325 97.02047 
L 106.739775 92.115967 
L 116.188225 87.025895 
L 125.636675 81.234222 
L 135.085125 76.657295 
L 144.533575 71.610717 
L 153.982025 68.912323 
L 163.430475 66.17702 
L 172.878925 62.837566 
L 182.327375 58.997601 
L 191.775825 57.752483 
L 201.224275 54.35718 
L 210.672725 51.799694 
L 220.121175 50.996567 
L 229.569625 49.743983 
L 239.018075 48.731689 
L 248.466525 47.3021 
L 257.914975 45.885796 
L 267.363425 45.290065 
L 276.811875 43.27989 
L 286.260325 42.491115 
L 295.708775 43.72869 
L 305.157225 44.594604 
L 314.605675 44.858703 
L 324.054125 45.327341 
L 333.502575 46.123074 
L 342.951025 45.883112 
L 352.399475 45.400876 
L 361.847925 44.83381 
L 371.296375 43.968235 
L 380.744825 43.714284 
L 390.193275 43.71433 
L 399.641725 43.27626 
L 409.090175 43.251581 
L 418.538625 42.897605 
L 427.987075 44.067201 
L 437.435525 44.907495 
L 446.883975 45.053966 
L 456.332425 44.915063 
L 465.780875 44.430308 
L 475.229325 45.317213 
L 484.677775 45.783633 
L 494.126225 45.715594 
L 503.574675 46.208713 
L 513.023125 48.171473 
L 522.471575 49.560433 
L 531.920025 50.282253 
L 541.368475 50.399506 
L 550.816925 51.149764 
L 560.265375 52.646219 
L 569.713825 54.793518 
L 579.162275 56.524021 
L 588.610725 57.388236 
L 598.059175 57.291645 
L 607.507625 57.304526 
L 616.956075 57.183578 
L 626.404525 56.953302 
L 635.852975 57.528817 
L 645.301425 58.822259 
L 654.749875 60.394697 
L 664.198325 62.301633 
L 673.646775 63.068119 
L 683.095225 63.300557 
L 692.543675 64.063793 
L 701.992125 64.406385 
L 711.440575 64.37072 
L 720.889025 63.996506 
L 730.337475 63.632989 
L 739.785925 64.980434 
L 749.234375 65.110138 
L 758.682825 65.541931 
L 768.131275 67.536682 
L 777.579725 68.973116 
L 787.028175 70.23877 
L 796.476625 71.406365 
L 805.925075 72.496613 
L 815.373525 73.468859 
L 824.821975 74.991345 
L 834.270425 77.48058 
L 843.718875 80.724683 
L 853.167325 84.312214 
L 862.615775 87.762839 
L 872.064225 92.96155 
L 881.512675 100.027602 
L 890.961125 108.482784 
L 900.409575 118.129913 
L 909.858025 128.733461 
L 919.306475 139.714334 
L 928.754925 151.76982 
L 938.203375 166.615125 
L 947.651825 185.559405 
L 957.100275 207.688711 
L 966.548725 232.59858 
L 975.997175 260.509181 
" clip-path="url(#pcb2f727400)" style="fill: none; stroke: #f7a35c; stroke-linecap: square"/>
   </g>
   <g id="line2d_12">
    <path d="M 40.600625 144.441912 
L 50.049075 135.68784 
L 59.497525 126.026836 
L 68.945975 118.465056 
L 78.394425 111.042249 
L 87.842875 103.512646 
L 97.291325 95.38409 
L 106.739775 90.625089 
L 116.188225 85.752759 
L 125.636675 80.130863 
L 135.085125 75.767232 
L 144.533575 70.81189 
L 153.982025 68.352645 
L 163.430475 65.769428 
L 172.878925 62.617242 
L 182.327375 58.995247 
L 191.775825 58.031258 
L 201.224275 54.739157 
L 210.672725 52.172767 
L 220.121175 51.497381 
L 229.569625 50.333382 
L 239.018075 49.368682 
L 248.466525 48.001711 
L 257.914975 46.697842 
L 267.363425 46.135462 
L 276.811875 44.060641 
L 286.260325 43.199723 
L 295.708775 44.467749 
L 305.157225 45.473183 
L 314.605675 45.909265 
L 324.054125 46.393377 
L 333.502575 47.271489 
L 342.951025 47.085198 
L 352.399475 46.548359 
L 361.847925 45.916537 
L 371.296375 44.941481 
L 380.744825 44.644768 
L 390.193275 44.721881 
L 399.641725 44.233744 
L 409.090175 44.188187 
L 418.538625 43.860575 
L 427.987075 45.113108 
L 437.435525 45.903222 
L 446.883975 45.983243 
L 456.332425 45.736028 
L 465.780875 45.232276 
L 475.229325 46.024848 
L 484.677775 46.362531 
L 494.126225 46.204813 
L 503.574675 46.767077 
L 513.023125 48.672383 
L 522.471575 50.053382 
L 531.920025 50.732966 
L 541.368475 50.841983 
L 550.816925 51.451082 
L 560.265375 52.937561 
L 569.713825 55.174355 
L 579.162275 57.054792 
L 588.610725 57.989757 
L 598.059175 57.837334 
L 607.507625 57.779678 
L 616.956075 57.581089 
L 626.404525 57.212563 
L 635.852975 57.692868 
L 645.301425 58.919041 
L 654.749875 60.520128 
L 664.198325 62.327483 
L 673.646775 62.983519 
L 683.095225 63.034688 
L 692.543675 63.787765 
L 701.992125 64.048078 
L 711.440575 63.974885 
L 720.889025 63.559781 
L 730.337475 63.058227 
L 739.785925 64.390102 
L 749.234375 64.529862 
L 758.682825 64.997952 
L 768.131275 67.06158 
L 777.579725 68.575165 
L 787.028175 69.852577 
L 796.476625 71.032211 
L 805.925075 72.266963 
L 815.373525 73.276446 
L 824.821975 74.764803 
L 834.270425 77.269253 
L 843.718875 80.449073 
L 853.167325 83.978348 
L 862.615775 87.409063 
L 872.064225 92.500952 
L 881.512675 99.570037 
L 890.961125 108.047202 
L 900.409575 117.607253 
L 909.858025 128.066723 
L 919.306475 138.986167 
L 928.754925 151.054973 
L 938.203375 165.959539 
L 947.651825 185.172815 
L 957.100275 207.561773 
L 966.548725 232.572341 
L 975.997175 260.504792 
" clip-path="url(#pcb2f727400)" style="fill: none; stroke: #8085e9; stroke-linecap: square"/>
   </g>
   <g id="line2d_13">
    <path d="M 40.600625 144.944344 
L 50.049075 136.535266 
L 59.497525 126.976953 
L 68.945975 119.455172 
L 78.394425 111.863591 
L 87.842875 104.195509 
L 97.291325 95.885416 
L 106.739775 90.96704 
L 116.188225 85.909723 
L 125.636675 80.082743 
L 135.085125 75.680617 
L 144.533575 70.753463 
L 153.982025 68.306338 
L 163.430475 65.584781 
L 172.878925 62.242864 
L 182.327375 58.528936 
L 191.775825 57.4897 
L 201.224275 54.09936 
L 210.672725 51.500524 
L 220.121175 50.850849 
L 229.569625 49.717194 
L 239.018075 48.699974 
L 248.466525 47.216382 
L 257.914975 45.838797 
L 267.363425 45.18982 
L 276.811875 43.151557 
L 286.260325 42.394847 
L 295.708775 43.592057 
L 305.157225 44.584218 
L 314.605675 45.054383 
L 324.054125 45.48874 
L 333.502575 46.256264 
L 342.951025 46.027772 
L 352.399475 45.584933 
L 361.847925 45.009183 
L 371.296375 44.070263 
L 380.744825 43.910487 
L 390.193275 43.995222 
L 399.641725 43.439874 
L 409.090175 43.353275 
L 418.538625 43.006955 
L 427.987075 44.279629 
L 437.435525 45.194984 
L 446.883975 45.377131 
L 456.332425 45.162991 
L 465.780875 44.673896 
L 475.229325 45.554261 
L 484.677775 45.958975 
L 494.126225 45.935548 
L 503.574675 46.519228 
L 513.023125 48.478669 
L 522.471575 49.887019 
L 531.920025 50.613587 
L 541.368475 50.799378 
L 550.816925 51.519655 
L 560.265375 53.053127 
L 569.713825 55.307644 
L 579.162275 57.249093 
L 588.610725 58.14628 
L 598.059175 57.953053 
L 607.507625 57.864435 
L 616.956075 57.776365 
L 626.404525 57.365877 
L 635.852975 57.865784 
L 645.301425 59.222086 
L 654.749875 60.888983 
L 664.198325 62.717184 
L 673.646775 63.476654 
L 683.095225 63.593256 
L 692.543675 64.380542 
L 701.992125 64.685177 
L 711.440575 64.670041 
L 720.889025 64.224733 
L 730.337475 63.687085 
L 739.785925 65.11136 
L 749.234375 65.177827 
L 758.682825 65.630019 
L 768.131275 67.647308 
L 777.579725 69.138946 
L 787.028175 70.457478 
L 796.476625 71.642079 
L 805.925075 72.77885 
L 815.373525 73.755245 
L 824.821975 75.38836 
L 834.270425 77.965843 
L 843.718875 81.111012 
L 853.167325 84.675999 
L 862.615775 88.116879 
L 872.064225 93.272858 
L 881.512675 100.379674 
L 890.961125 108.773289 
L 900.409575 118.274691 
L 909.858025 128.602515 
L 919.306475 139.498504 
L 928.754925 151.544635 
L 938.203375 166.374157 
L 947.651825 185.495647 
L 957.100275 207.767854 
L 966.548725 232.653594 
L 975.997175 260.534966 
" clip-path="url(#pcb2f727400)" style="fill: none; stroke: #f15c80; stroke-linecap: square"/>
   </g>
   <g id="line2d_14">
    <path d="M 40.600625 145.412031 
L 50.049075 136.952707 
L 59.497525 127.345371 
L 68.945975 119.562239 
L 78.394425 111.871729 
L 87.842875 104.10229 
L 97.291325 95.850296 
L 106.739775 90.857283 
L 116.188225 85.780452 
L 125.636675 80.175026 
L 135.085125 75.792085 
L 144.533575 70.855267 
L 153.982025 68.224721 
L 163.430475 65.515559 
L 172.878925 62.279313 
L 182.327375 58.529328 
L 191.775825 57.461389 
L 201.224275 54.109296 
L 210.672725 51.515285 
L 220.121175 50.794217 
L 229.569625 49.594227 
L 239.018075 48.549282 
L 248.466525 47.130599 
L 257.914975 45.721725 
L 267.363425 45.210849 
L 276.811875 43.105077 
L 286.260325 42.408495 
L 295.708775 43.653301 
L 305.157225 44.629768 
L 314.605675 45.066617 
L 324.054125 45.484167 
L 333.502575 46.31896 
L 342.951025 46.079308 
L 352.399475 45.657698 
L 361.847925 45.192079 
L 371.296375 44.418653 
L 380.744825 44.415913 
L 390.193275 44.446673 
L 399.641725 43.890384 
L 409.090175 43.777937 
L 418.538625 43.424216 
L 427.987075 44.535579 
L 437.435525 45.404422 
L 446.883975 45.728538 
L 456.332425 45.483196 
L 465.780875 45.051544 
L 475.229325 45.940732 
L 484.677775 46.424715 
L 494.126225 46.379862 
L 503.574675 46.931689 
L 513.023125 48.845685 
L 522.471575 50.189184 
L 531.920025 50.769953 
L 541.368475 50.861735 
L 550.816925 51.614146 
L 560.265375 53.087272 
L 569.713825 55.233637 
L 579.162275 57.029639 
L 588.610725 57.889238 
L 598.059175 57.749619 
L 607.507625 57.841938 
L 616.956075 57.653191 
L 626.404525 57.408809 
L 635.852975 57.808327 
L 645.301425 59.192637 
L 654.749875 60.72157 
L 664.198325 62.411959 
L 673.646775 63.058553 
L 683.095225 63.209194 
L 692.543675 63.96396 
L 701.992125 64.302198 
L 711.440575 64.387748 
L 720.889025 64.092935 
L 730.337475 63.697521 
L 739.785925 64.897545 
L 749.234375 65.005085 
L 758.682825 65.443018 
L 768.131275 67.341891 
L 777.579725 68.762877 
L 787.028175 69.797043 
L 796.476625 70.828888 
L 805.925075 72.106242 
L 815.373525 73.202719 
L 824.821975 74.772252 
L 834.270425 77.360499 
L 843.718875 80.742855 
L 853.167325 84.289758 
L 862.615775 87.76626 
L 872.064225 92.905005 
L 881.512675 100.015936 
L 890.961125 108.585823 
L 900.409575 118.428753 
L 909.858025 128.95394 
L 919.306475 139.92992 
L 928.754925 152.028213 
L 938.203375 166.844913 
L 947.651825 185.852389 
L 957.100275 207.99469 
L 966.548725 232.769594 
L 975.997175 260.598479 
" clip-path="url(#pcb2f727400)" style="fill: none; stroke: #e4d354; stroke-linecap: square"/>
   </g>
   <g id="line2d_15">
    <path d="M 40.600625 144.326155 
L 50.049075 135.758622 
L 59.497525 126.205668 
L 68.945975 118.663828 
L 78.394425 111.101523 
L 87.842875 103.54075 
L 97.291325 95.392059 
L 106.739775 90.506113 
L 116.188225 85.573009 
L 125.636675 79.908993 
L 135.085125 75.443615 
L 144.533575 70.481248 
L 153.982025 67.936522 
L 163.430475 65.279646 
L 172.878925 62.172987 
L 182.327375 58.551036 
L 191.775825 57.535954 
L 201.224275 54.226874 
L 210.672725 51.599826 
L 220.121175 50.95742 
L 229.569625 49.83157 
L 239.018075 48.773528 
L 248.466525 47.408152 
L 257.914975 46.157964 
L 267.363425 45.553116 
L 276.811875 43.505047 
L 286.260325 42.824966 
L 295.708775 44.113761 
L 305.157225 45.083978 
L 314.605675 45.478135 
L 324.054125 45.870513 
L 333.502575 46.647467 
L 342.951025 46.458365 
L 352.399475 45.875302 
L 361.847925 45.288667 
L 371.296375 44.450618 
L 380.744825 44.306864 
L 390.193275 44.310952 
L 399.641725 43.813303 
L 409.090175 43.781226 
L 418.538625 43.474159 
L 427.987075 44.739611 
L 437.435525 45.566008 
L 446.883975 45.687264 
L 456.332425 45.440975 
L 465.780875 44.959476 
L 475.229325 45.827313 
L 484.677775 46.221341 
L 494.126225 46.225026 
L 503.574675 46.921873 
L 513.023125 48.872763 
L 522.471575 50.277771 
L 531.920025 50.830548 
L 541.368475 50.93155 
L 550.816925 51.602077 
L 560.265375 53.003339 
L 569.713825 55.167786 
L 579.162275 57.022176 
L 588.610725 57.935428 
L 598.059175 57.824592 
L 607.507625 57.835196 
L 616.956075 57.667565 
L 626.404525 57.354803 
L 635.852975 57.831455 
L 645.301425 58.987608 
L 654.749875 60.542023 
L 664.198325 62.346531 
L 673.646775 63.086263 
L 683.095225 63.22666 
L 692.543675 64.016839 
L 701.992125 64.417391 
L 711.440575 64.4773 
L 720.889025 64.234293 
L 730.337475 63.881572 
L 739.785925 65.107395 
L 749.234375 65.179766 
L 758.682825 65.664783 
L 768.131275 67.55264 
L 777.579725 69.01733 
L 787.028175 70.218393 
L 796.476625 71.34478 
L 805.925075 72.579066 
L 815.373525 73.615256 
L 824.821975 75.198617 
L 834.270425 77.686517 
L 843.718875 80.964423 
L 853.167325 84.544652 
L 862.615775 88.0646 
L 872.064225 93.199709 
L 881.512675 100.107409 
L 890.961125 108.478376 
L 900.409575 118.135115 
L 909.858025 128.657224 
L 919.306475 139.683742 
L 928.754925 151.807257 
L 938.203375 166.631344 
L 947.651825 185.652055 
L 957.100275 207.863748 
L 966.548725 232.672725 
L 975.997175 260.528485 
" clip-path="url(#pcb2f727400)" style="fill: none; stroke: #2b908f; stroke-linecap: square"/>
   </g>
   <g id="line2d_16">
    <path d="M 40.600625 145.897623 
L 50.049075 137.32314 
L 59.497525 127.816139 
L 68.945975 120.391856 
L 78.394425 112.932637 
L 87.842875 105.471411 
L 97.291325 97.29742 
L 106.739775 92.398776 
L 116.188225 87.34565 
L 125.636675 81.560499 
L 135.085125 77.130878 
L 144.533575 72.236209 
L 153.982025 69.617243 
L 163.430475 66.821084 
L 172.878925 63.608764 
L 182.327375 59.950137 
L 191.775825 58.870616 
L 201.224275 55.568908 
L 210.672725 52.948037 
L 220.121175 52.063261 
L 229.569625 50.901674 
L 239.018075 49.909537 
L 248.466525 48.526214 
L 257.914975 47.048014 
L 267.363425 46.377187 
L 276.811875 44.349353 
L 286.260325 43.464287 
L 295.708775 44.662959 
L 305.157225 45.526075 
L 314.605675 45.962428 
L 324.054125 46.369444 
L 333.502575 47.059458 
L 342.951025 46.885606 
L 352.399475 46.452021 
L 361.847925 45.853862 
L 371.296375 44.89554 
L 380.744825 44.648216 
L 390.193275 44.64703 
L 399.641725 44.071325 
L 409.090175 43.930567 
L 418.538625 43.547068 
L 427.987075 44.783941 
L 437.435525 45.677111 
L 446.883975 45.884579 
L 456.332425 45.657463 
L 465.780875 45.21069 
L 475.229325 46.085025 
L 484.677775 46.407214 
L 494.126225 46.191006 
L 503.574675 46.686358 
L 513.023125 48.643908 
L 522.471575 49.988359 
L 531.920025 50.687615 
L 541.368475 50.862476 
L 550.816925 51.414149 
L 560.265375 52.740125 
L 569.713825 54.929359 
L 579.162275 56.738968 
L 588.610725 57.563586 
L 598.059175 57.416232 
L 607.507625 57.381695 
L 616.956075 57.240893 
L 626.404525 56.776123 
L 635.852975 57.112654 
L 645.301425 58.225889 
L 654.749875 59.690091 
L 664.198325 61.412588 
L 673.646775 62.103487 
L 683.095225 62.176853 
L 692.543675 62.942572 
L 701.992125 63.206171 
L 711.440575 63.12889 
L 720.889025 62.788491 
L 730.337475 62.332871 
L 739.785925 63.616606 
L 749.234375 63.697965 
L 758.682825 64.156713 
L 768.131275 66.166394 
L 777.579725 67.596606 
L 787.028175 68.877796 
L 796.476625 70.104423 
L 805.925075 71.373472 
L 815.373525 72.383181 
L 824.821975 73.874908 
L 834.270425 76.410061 
L 843.718875 79.640732 
L 853.167325 83.209166 
L 862.615775 86.717065 
L 872.064225 91.857597 
L 881.512675 99.006164 
L 890.961125 107.51057 
L 900.409575 117.129892 
L 909.858025 127.496994 
L 919.306475 138.437793 
L 928.754925 150.596264 
L 938.203375 165.62654 
L 947.651825 184.956166 
L 957.100275 207.421943 
L 966.548725 232.488898 
L 975.997175 260.507833 
" clip-path="url(#pcb2f727400)" style="fill: none; stroke: #f45b5b; stroke-linecap: square"/>
   </g>
   <g id="line2d_17">
    <path d="M 40.600625 144.698825 
L 50.049075 136.379272 
L 59.497525 126.953419 
L 68.945975 119.191326 
L 78.394425 111.54715 
L 87.842875 103.895068 
L 97.291325 95.736518 
L 106.739775 90.831683 
L 116.188225 85.82325 
L 125.636675 80.167628 
L 135.085125 75.763722 
L 144.533575 70.981892 
L 153.982025 68.347672 
L 163.430475 65.54092 
L 172.878925 62.334196 
L 182.327375 58.76502 
L 191.775825 57.692713 
L 201.224275 54.317961 
L 210.672725 51.706275 
L 220.121175 50.869851 
L 229.569625 49.632279 
L 239.018075 48.649152 
L 248.466525 47.277867 
L 257.914975 45.751488 
L 267.363425 45.234247 
L 276.811875 43.262525 
L 286.260325 42.524322 
L 295.708775 43.741182 
L 305.157225 44.677474 
L 314.605675 45.032725 
L 324.054125 45.460609 
L 333.502575 46.348103 
L 342.951025 46.075898 
L 352.399475 45.549307 
L 361.847925 44.912249 
L 371.296375 44.092785 
L 380.744825 44.000563 
L 390.193275 44.049192 
L 399.641725 43.462456 
L 409.090175 43.278306 
L 418.538625 42.82631 
L 427.987075 44.143021 
L 437.435525 45.020336 
L 446.883975 45.234622 
L 456.332425 45.064278 
L 465.780875 44.684639 
L 475.229325 45.617113 
L 484.677775 46.008208 
L 494.126225 45.892929 
L 503.574675 46.419716 
L 513.023125 48.342867 
L 522.471575 49.804398 
L 531.920025 50.571828 
L 541.368475 50.835095 
L 550.816925 51.488271 
L 560.265375 53.017339 
L 569.713825 55.218837 
L 579.162275 57.049608 
L 588.610725 58.002242 
L 598.059175 57.990127 
L 607.507625 58.059357 
L 616.956075 57.885354 
L 626.404525 57.738831 
L 635.852975 58.184666 
L 645.301425 59.423059 
L 654.749875 60.975052 
L 664.198325 62.792648 
L 673.646775 63.537896 
L 683.095225 63.665318 
L 692.543675 64.353867 
L 701.992125 64.603574 
L 711.440575 64.574143 
L 720.889025 64.223376 
L 730.337475 63.732852 
L 739.785925 65.032829 
L 749.234375 65.123066 
L 758.682825 65.579019 
L 768.131275 67.576191 
L 777.579725 69.030015 
L 787.028175 70.25693 
L 796.476625 71.402649 
L 805.925075 72.664479 
L 815.373525 73.561197 
L 824.821975 75.00801 
L 834.270425 77.60013 
L 843.718875 81.056617 
L 853.167325 84.551556 
L 862.615775 87.955456 
L 872.064225 93.101121 
L 881.512675 100.131109 
L 890.961125 108.650852 
L 900.409575 118.374378 
L 909.858025 128.959367 
L 919.306475 140.041058 
L 928.754925 152.163991 
L 938.203375 166.869262 
L 947.651825 185.717102 
L 957.100275 207.909507 
L 966.548725 232.797985 
L 975.997175 260.634582 
" clip-path="url(#pcb2f727400)" style="fill: none; stroke: #91e8e1; stroke-linecap: square"/>
   </g>
   <g id="line2d_18">
    <path d="M 40.600625 144.09504 
L 50.049075 135.384028 
L 59.497525 125.632483 
L 68.945975 117.93081 
L 78.394425 110.327503 
L 87.842875 102.799869 
L 97.291325 94.621455 
L 106.739775 89.680463 
L 116.188225 84.703798 
L 125.636675 79.052807 
L 135.085125 74.647089 
L 144.533575 69.982602 
L 153.982025 67.557948 
L 163.430475 64.907014 
L 172.878925 61.827498 
L 182.327375 58.261743 
L 191.775825 57.193851 
L 201.224275 53.869806 
L 210.672725 51.303827 
L 220.121175 50.657999 
L 229.569625 49.543035 
L 239.018075 48.522002 
L 248.466525 47.231071 
L 257.914975 45.926774 
L 267.363425 45.399664 
L 276.811875 43.4 
L 286.260325 42.784913 
L 295.708775 44.111245 
L 305.157225 45.063124 
L 314.605675 45.486879 
L 324.054125 45.97601 
L 333.502575 46.842816 
L 342.951025 46.69041 
L 352.399475 46.226143 
L 361.847925 45.702945 
L 371.296375 44.885446 
L 380.744825 44.798579 
L 390.193275 44.821401 
L 399.641725 44.310648 
L 409.090175 44.137153 
L 418.538625 43.779294 
L 427.987075 44.974979 
L 437.435525 45.774452 
L 446.883975 46.047477 
L 456.332425 45.874267 
L 465.780875 45.347165 
L 475.229325 46.235765 
L 484.677775 46.612359 
L 494.126225 46.606493 
L 503.574675 47.196791 
L 513.023125 49.190961 
L 522.471575 50.650531 
L 531.920025 51.253349 
L 541.368475 51.362836 
L 550.816925 52.012708 
L 560.265375 53.443313 
L 569.713825 55.627951 
L 579.162275 57.543497 
L 588.610725 58.462216 
L 598.059175 58.352388 
L 607.507625 58.381985 
L 616.956075 58.2279 
L 626.404525 57.991378 
L 635.852975 58.423672 
L 645.301425 59.623512 
L 654.749875 61.124022 
L 664.198325 62.811879 
L 673.646775 63.474798 
L 683.095225 63.567339 
L 692.543675 64.253563 
L 701.992125 64.526452 
L 711.440575 64.569871 
L 720.889025 64.262689 
L 730.337475 63.882931 
L 739.785925 65.113105 
L 749.234375 65.195715 
L 758.682825 65.721289 
L 768.131275 67.652949 
L 777.579725 69.097257 
L 787.028175 70.167015 
L 796.476625 71.144163 
L 805.925075 72.424203 
L 815.373525 73.423928 
L 824.821975 74.890207 
L 834.270425 77.348606 
L 843.718875 80.677811 
L 853.167325 84.144056 
L 862.615775 87.585977 
L 872.064225 92.765167 
L 881.512675 99.787647 
L 890.961125 108.29545 
L 900.409575 117.929264 
L 909.858025 128.40293 
L 919.306475 139.371129 
L 928.754925 151.61494 
L 938.203375 166.414395 
L 947.651825 185.418611 
L 957.100275 207.708356 
L 966.548725 232.634152 
L 975.997175 260.590332 
" clip-path="url(#pcb2f727400)" style="fill: none; stroke: #7cb5ec; stroke-linecap: square"/>
   </g>
   <g id="line2d_19">
    <path d="M 40.600625 146.49337 
L 50.049075 137.848819 
L 59.497525 128.332124 
L 68.945975 120.823303 
L 78.394425 113.349259 
L 87.842875 105.722829 
L 97.291325 97.399347 
L 106.739775 92.500662 
L 116.188225 87.466083 
L 125.636675 81.755938 
L 135.085125 77.249116 
L 144.533575 72.334254 
L 153.982025 69.620008 
L 163.430475 66.778871 
L 172.878925 63.534616 
L 182.327375 59.781048 
L 191.775825 58.601637 
L 201.224275 55.312899 
L 210.672725 52.683285 
L 220.121175 51.879932 
L 229.569625 50.682862 
L 239.018075 49.728847 
L 248.466525 48.32292 
L 257.914975 46.827188 
L 267.363425 46.231357 
L 276.811875 44.137907 
L 286.260325 43.288955 
L 295.708775 44.408601 
L 305.157225 45.363589 
L 314.605675 45.727515 
L 324.054125 46.142152 
L 333.502575 46.869524 
L 342.951025 46.611225 
L 352.399475 46.065384 
L 361.847925 45.367108 
L 371.296375 44.437801 
L 380.744825 44.374129 
L 390.193275 44.427932 
L 399.641725 43.85403 
L 409.090175 43.635289 
L 418.538625 43.155625 
L 427.987075 44.417234 
L 437.435525 45.242552 
L 446.883975 45.39098 
L 456.332425 45.125524 
L 465.780875 44.641211 
L 475.229325 45.626343 
L 484.677775 46.150376 
L 494.126225 45.963177 
L 503.574675 46.436059 
L 513.023125 48.344679 
L 522.471575 49.680597 
L 531.920025 50.294426 
L 541.368475 50.462371 
L 550.816925 51.038048 
L 560.265375 52.526626 
L 569.713825 54.679816 
L 579.162275 56.519479 
L 588.610725 57.446797 
L 598.059175 57.340266 
L 607.507625 57.376858 
L 616.956075 57.132237 
L 626.404525 56.87912 
L 635.852975 57.2383 
L 645.301425 58.415992 
L 654.749875 59.954777 
L 664.198325 61.734409 
L 673.646775 62.410382 
L 683.095225 62.533158 
L 692.543675 63.326089 
L 701.992125 63.709858 
L 711.440575 63.668944 
L 720.889025 63.327797 
L 730.337475 62.767032 
L 739.785925 63.973579 
L 749.234375 63.973571 
L 758.682825 64.379019 
L 768.131275 66.412056 
L 777.579725 67.854369 
L 787.028175 69.038552 
L 796.476625 70.200947 
L 805.925075 71.546422 
L 815.373525 72.524687 
L 824.821975 74.025816 
L 834.270425 76.587157 
L 843.718875 79.933477 
L 853.167325 83.495336 
L 862.615775 87.042752 
L 872.064225 92.183845 
L 881.512675 99.315692 
L 890.961125 107.856869 
L 900.409575 117.565736 
L 909.858025 127.984997 
L 919.306475 138.860978 
L 928.754925 151.013513 
L 938.203375 165.805447 
L 947.651825 184.833487 
L 957.100275 207.244644 
L 966.548725 232.251488 
L 975.997175 260.454034 
" clip-path="url(#pcb2f727400)" style="fill: none; stroke: #434348; stroke-linecap: square"/>
   </g>
   <g id="line2d_20">
    <path d="M 40.600625 273.99006 
L 985.445625 273.99006 
" clip-path="url(#pcb2f727400)" style="fill: none; stroke: #dedede; stroke-width: 2; stroke-linecap: square"/>
   </g>
   <g id="text_16">
    <!-- Qualimap RNAseq: Coverage Profile Along Genes (total) -->
    <g transform="translate(289.641875 19.3575)scale(0.16 -0.16)">
     <defs>
      <path id="DejaVuSans-51" d="M 2522 4238 
Q 1834 4238 1429 3725 
Q 1025 3213 1025 2328 
Q 1025 1447 1429 934 
Q 1834 422 2522 422 
Q 3209 422 3611 934 
Q 4013 1447 4013 2328 
Q 4013 3213 3611 3725 
Q 3209 4238 2522 4238 
z
M 3406 84 
L 4238 -825 
L 3475 -825 
L 2784 -78 
Q 2681 -84 2626 -87 
Q 2572 -91 2522 -91 
Q 1538 -91 948 567 
Q 359 1225 359 2328 
Q 359 3434 948 4092 
Q 1538 4750 2522 4750 
Q 3503 4750 4090 4092 
Q 4678 3434 4678 2328 
Q 4678 1516 4351 937 
Q 4025 359 3406 84 
z
" transform="scale(0.015625)"/>
      <path id="DejaVuSans-52" d="M 2841 2188 
Q 3044 2119 3236 1894 
Q 3428 1669 3622 1275 
L 4263 0 
L 3584 0 
L 2988 1197 
Q 2756 1666 2539 1819 
Q 2322 1972 1947 1972 
L 1259 1972 
L 1259 0 
L 628 0 
L 628 4666 
L 2053 4666 
Q 2853 4666 3247 4331 
Q 3641 3997 3641 3322 
Q 3641 2881 3436 2590 
Q 3231 2300 2841 2188 
z
M 1259 4147 
L 1259 2491 
L 2053 2491 
Q 2509 2491 2742 2702 
Q 2975 2913 2975 3322 
Q 2975 3731 2742 3939 
Q 2509 4147 2053 4147 
L 1259 4147 
z
" transform="scale(0.015625)"/>
      <path id="DejaVuSans-4e" d="M 628 4666 
L 1478 4666 
L 3547 763 
L 3547 4666 
L 4159 4666 
L 4159 0 
L 3309 0 
L 1241 3903 
L 1241 0 
L 628 0 
L 628 4666 
z
" transform="scale(0.015625)"/>
      <path id="DejaVuSans-41" d="M 2188 4044 
L 1331 1722 
L 3047 1722 
L 2188 4044 
z
M 1831 4666 
L 2547 4666 
L 4325 0 
L 3669 0 
L 3244 1197 
L 1141 1197 
L 716 0 
L 50 0 
L 1831 4666 
z
" transform="scale(0.015625)"/>
      <path id="DejaVuSans-71" d="M 947 1747 
Q 947 1113 1208 752 
Q 1469 391 1925 391 
Q 2381 391 2643 752 
Q 2906 1113 2906 1747 
Q 2906 2381 2643 2742 
Q 2381 3103 1925 3103 
Q 1469 3103 1208 2742 
Q 947 2381 947 1747 
z
M 2906 525 
Q 2725 213 2448 61 
Q 2172 -91 1784 -91 
Q 1150 -91 751 415 
Q 353 922 353 1747 
Q 353 2572 751 3078 
Q 1150 3584 1784 3584 
Q 2172 3584 2448 3432 
Q 2725 3281 2906 2969 
L 2906 3500 
L 3481 3500 
L 3481 -1331 
L 2906 -1331 
L 2906 525 
z
" transform="scale(0.015625)"/>
      <path id="DejaVuSans-3a" d="M 750 794 
L 1409 794 
L 1409 0 
L 750 0 
L 750 794 
z
M 750 3309 
L 1409 3309 
L 1409 2516 
L 750 2516 
L 750 3309 
z
" transform="scale(0.015625)"/>
      <path id="DejaVuSans-43" d="M 4122 4306 
L 4122 3641 
Q 3803 3938 3442 4084 
Q 3081 4231 2675 4231 
Q 1875 4231 1450 3742 
Q 1025 3253 1025 2328 
Q 1025 1406 1450 917 
Q 1875 428 2675 428 
Q 3081 428 3442 575 
Q 3803 722 4122 1019 
L 4122 359 
Q 3791 134 3420 21 
Q 3050 -91 2638 -91 
Q 1578 -91 968 557 
Q 359 1206 359 2328 
Q 359 3453 968 4101 
Q 1578 4750 2638 4750 
Q 3056 4750 3426 4639 
Q 3797 4528 4122 4306 
z
" transform="scale(0.015625)"/>
      <path id="DejaVuSans-66" d="M 2375 4863 
L 2375 4384 
L 1825 4384 
Q 1516 4384 1395 4259 
Q 1275 4134 1275 3809 
L 1275 3500 
L 2222 3500 
L 2222 3053 
L 1275 3053 
L 1275 0 
L 697 0 
L 697 3053 
L 147 3053 
L 147 3500 
L 697 3500 
L 697 3744 
Q 697 4328 969 4595 
Q 1241 4863 1831 4863 
L 2375 4863 
z
" transform="scale(0.015625)"/>
      <path id="DejaVuSans-47" d="M 3809 666 
L 3809 1919 
L 2778 1919 
L 2778 2438 
L 4434 2438 
L 4434 434 
Q 4069 175 3628 42 
Q 3188 -91 2688 -91 
Q 1594 -91 976 548 
Q 359 1188 359 2328 
Q 359 3472 976 4111 
Q 1594 4750 2688 4750 
Q 3144 4750 3555 4637 
Q 3966 4525 4313 4306 
L 4313 3634 
Q 3963 3931 3569 4081 
Q 3175 4231 2741 4231 
Q 1884 4231 1454 3753 
Q 1025 3275 1025 2328 
Q 1025 1384 1454 906 
Q 1884 428 2741 428 
Q 3075 428 3337 486 
Q 3600 544 3809 666 
z
" transform="scale(0.015625)"/>
     </defs>
     <use xlink:href="#DejaVuSans-51"/>
     <use xlink:href="#DejaVuSans-75" x="78.710938"/>
     <use xlink:href="#DejaVuSans-61" x="142.089844"/>
     <use xlink:href="#DejaVuSans-6c" x="203.369141"/>
     <use xlink:href="#DejaVuSans-69" x="231.152344"/>
     <use xlink:href="#DejaVuSans-6d" x="258.935547"/>
     <use xlink:href="#DejaVuSans-61" x="356.347656"/>
     <use xlink:href="#DejaVuSans-70" x="417.626953"/>
     <use xlink:href="#DejaVuSans-20" x="481.103516"/>
     <use xlink:href="#DejaVuSans-52" x="512.890625"/>
     <use xlink:href="#DejaVuSans-4e" x="582.373047"/>
     <use xlink:href="#DejaVuSans-41" x="657.177734"/>
     <use xlink:href="#DejaVuSans-73" x="725.585938"/>
     <use xlink:href="#DejaVuSans-65" x="777.685547"/>
     <use xlink:href="#DejaVuSans-71" x="839.208984"/>
     <use xlink:href="#DejaVuSans-3a" x="902.685547"/>
     <use xlink:href="#DejaVuSans-20" x="936.376953"/>
     <use xlink:href="#DejaVuSans-43" x="968.164062"/>
     <use xlink:href="#DejaVuSans-6f" x="1037.988281"/>
     <use xlink:href="#DejaVuSans-76" x="1099.169922"/>
     <use xlink:href="#DejaVuSans-65" x="1158.349609"/>
     <use xlink:href="#DejaVuSans-72" x="1219.873047"/>
     <use xlink:href="#DejaVuSans-61" x="1260.986328"/>
     <use xlink:href="#DejaVuSans-67" x="1322.265625"/>
     <use xlink:href="#DejaVuSans-65" x="1385.742188"/>
     <use xlink:href="#DejaVuSans-20" x="1447.265625"/>
     <use xlink:href="#DejaVuSans-50" x="1479.052734"/>
     <use xlink:href="#DejaVuSans-72" x="1537.605469"/>
     <use xlink:href="#DejaVuSans-6f" x="1576.46875"/>
     <use xlink:href="#DejaVuSans-66" x="1637.650391"/>
     <use xlink:href="#DejaVuSans-69" x="1672.855469"/>
     <use xlink:href="#DejaVuSans-6c" x="1700.638672"/>
     <use xlink:href="#DejaVuSans-65" x="1728.421875"/>
     <use xlink:href="#DejaVuSans-20" x="1789.945312"/>
     <use xlink:href="#DejaVuSans-41" x="1821.732422"/>
     <use xlink:href="#DejaVuSans-6c" x="1890.140625"/>
     <use xlink:href="#DejaVuSans-6f" x="1917.923828"/>
     <use xlink:href="#DejaVuSans-6e" x="1979.105469"/>
     <use xlink:href="#DejaVuSans-67" x="2042.484375"/>
     <use xlink:href="#DejaVuSans-20" x="2105.960938"/>
     <use xlink:href="#DejaVuSans-47" x="2137.748047"/>
     <use xlink:href="#DejaVuSans-65" x="2215.238281"/>
     <use xlink:href="#DejaVuSans-6e" x="2276.761719"/>
     <use xlink:href="#DejaVuSans-65" x="2340.140625"/>
     <use xlink:href="#DejaVuSans-73" x="2401.664062"/>
     <use xlink:href="#DejaVuSans-20" x="2453.763672"/>
     <use xlink:href="#DejaVuSans-28" x="2485.550781"/>
     <use xlink:href="#DejaVuSans-74" x="2524.564453"/>
     <use xlink:href="#DejaVuSans-6f" x="2563.773438"/>
     <use xlink:href="#DejaVuSans-74" x="2624.955078"/>
     <use xlink:href="#DejaVuSans-61" x="2664.164062"/>
     <use xlink:href="#DejaVuSans-6c" x="2725.443359"/>
     <use xlink:href="#DejaVuSans-29" x="2753.226562"/>
    </g>
   </g>
   <g id="legend_1">
    <g id="line2d_21">
     <path d="M 47.800625 292.192894 
L 55.800625 292.192894 
L 63.800625 292.192894 
" style="fill: none; stroke: #7cb5ec; stroke-linecap: square"/>
    </g>
    <g id="text_17">
     <!-- SRR2155413 -->
     <g transform="translate(70.200625 294.992894)scale(0.08 -0.08)">
      <defs>
       <path id="DejaVuSans-53" d="M 3425 4513 
L 3425 3897 
Q 3066 4069 2747 4153 
Q 2428 4238 2131 4238 
Q 1616 4238 1336 4038 
Q 1056 3838 1056 3469 
Q 1056 3159 1242 3001 
Q 1428 2844 1947 2747 
L 2328 2669 
Q 3034 2534 3370 2195 
Q 3706 1856 3706 1288 
Q 3706 609 3251 259 
Q 2797 -91 1919 -91 
Q 1588 -91 1214 -16 
Q 841 59 441 206 
L 441 856 
Q 825 641 1194 531 
Q 1563 422 1919 422 
Q 2459 422 2753 634 
Q 3047 847 3047 1241 
Q 3047 1584 2836 1778 
Q 2625 1972 2144 2069 
L 1759 2144 
Q 1053 2284 737 2584 
Q 422 2884 422 3419 
Q 422 4038 858 4394 
Q 1294 4750 2059 4750 
Q 2388 4750 2728 4690 
Q 3069 4631 3425 4513 
z
" transform="scale(0.015625)"/>
       <path id="DejaVuSans-35" d="M 691 4666 
L 3169 4666 
L 3169 4134 
L 1269 4134 
L 1269 2991 
Q 1406 3038 1543 3061 
Q 1681 3084 1819 3084 
Q 2600 3084 3056 2656 
Q 3513 2228 3513 1497 
Q 3513 744 3044 326 
Q 2575 -91 1722 -91 
Q 1428 -91 1123 -41 
Q 819 9 494 109 
L 494 744 
Q 775 591 1075 516 
Q 1375 441 1709 441 
Q 2250 441 2565 725 
Q 2881 1009 2881 1497 
Q 2881 1984 2565 2268 
Q 2250 2553 1709 2553 
Q 1456 2553 1204 2497 
Q 953 2441 691 2322 
L 691 4666 
z
" transform="scale(0.015625)"/>
       <path id="DejaVuSans-33" d="M 2597 2516 
Q 3050 2419 3304 2112 
Q 3559 1806 3559 1356 
Q 3559 666 3084 287 
Q 2609 -91 1734 -91 
Q 1441 -91 1130 -33 
Q 819 25 488 141 
L 488 750 
Q 750 597 1062 519 
Q 1375 441 1716 441 
Q 2309 441 2620 675 
Q 2931 909 2931 1356 
Q 2931 1769 2642 2001 
Q 2353 2234 1838 2234 
L 1294 2234 
L 1294 2753 
L 1863 2753 
Q 2328 2753 2575 2939 
Q 2822 3125 2822 3475 
Q 2822 3834 2567 4026 
Q 2313 4219 1838 4219 
Q 1578 4219 1281 4162 
Q 984 4106 628 3988 
L 628 4550 
Q 988 4650 1302 4700 
Q 1616 4750 1894 4750 
Q 2613 4750 3031 4423 
Q 3450 4097 3450 3541 
Q 3450 3153 3228 2886 
Q 3006 2619 2597 2516 
z
" transform="scale(0.015625)"/>
      </defs>
      <use xlink:href="#DejaVuSans-53"/>
      <use xlink:href="#DejaVuSans-52" x="63.476562"/>
      <use xlink:href="#DejaVuSans-52" x="132.958984"/>
      <use xlink:href="#DejaVuSans-32" x="202.441406"/>
      <use xlink:href="#DejaVuSans-31" x="266.064453"/>
      <use xlink:href="#DejaVuSans-35" x="329.6875"/>
      <use xlink:href="#DejaVuSans-35" x="393.310547"/>
      <use xlink:href="#DejaVuSans-34" x="456.933594"/>
      <use xlink:href="#DejaVuSans-31" x="520.556641"/>
      <use xlink:href="#DejaVuSans-33" x="584.179688"/>
     </g>
    </g>
    <g id="line2d_22">
     <path d="M 47.800625 303.935394 
L 55.800625 303.935394 
L 63.800625 303.935394 
" style="fill: none; stroke: #434348; stroke-linecap: square"/>
    </g>
    <g id="text_18">
     <!-- SRR2155414 -->
     <g transform="translate(70.200625 306.735394)scale(0.08 -0.08)">
      <use xlink:href="#DejaVuSans-53"/>
      <use xlink:href="#DejaVuSans-52" x="63.476562"/>
      <use xlink:href="#DejaVuSans-52" x="132.958984"/>
      <use xlink:href="#DejaVuSans-32" x="202.441406"/>
      <use xlink:href="#DejaVuSans-31" x="266.064453"/>
      <use xlink:href="#DejaVuSans-35" x="329.6875"/>
      <use xlink:href="#DejaVuSans-35" x="393.310547"/>
      <use xlink:href="#DejaVuSans-34" x="456.933594"/>
      <use xlink:href="#DejaVuSans-31" x="520.556641"/>
      <use xlink:href="#DejaVuSans-34" x="584.179688"/>
     </g>
    </g>
    <g id="line2d_23">
     <path d="M 47.800625 315.677894 
L 55.800625 315.677894 
L 63.800625 315.677894 
" style="fill: none; stroke: #90ed7d; stroke-linecap: square"/>
    </g>
    <g id="text_19">
     <!-- SRR2155415 -->
     <g transform="translate(70.200625 318.477894)scale(0.08 -0.08)">
      <use xlink:href="#DejaVuSans-53"/>
      <use xlink:href="#DejaVuSans-52" x="63.476562"/>
      <use xlink:href="#DejaVuSans-52" x="132.958984"/>
      <use xlink:href="#DejaVuSans-32" x="202.441406"/>
      <use xlink:href="#DejaVuSans-31" x="266.064453"/>
      <use xlink:href="#DejaVuSans-35" x="329.6875"/>
      <use xlink:href="#DejaVuSans-35" x="393.310547"/>
      <use xlink:href="#DejaVuSans-34" x="456.933594"/>
      <use xlink:href="#DejaVuSans-31" x="520.556641"/>
      <use xlink:href="#DejaVuSans-35" x="584.179688"/>
     </g>
    </g>
    <g id="line2d_24">
     <path d="M 261.855313 292.192894 
L 269.855313 292.192894 
L 277.855313 292.192894 
" style="fill: none; stroke: #f7a35c; stroke-linecap: square"/>
    </g>
    <g id="text_20">
     <!-- SRR2155416 -->
     <g transform="translate(284.255313 294.992894)scale(0.08 -0.08)">
      <use xlink:href="#DejaVuSans-53"/>
      <use xlink:href="#DejaVuSans-52" x="63.476562"/>
      <use xlink:href="#DejaVuSans-52" x="132.958984"/>
      <use xlink:href="#DejaVuSans-32" x="202.441406"/>
      <use xlink:href="#DejaVuSans-31" x="266.064453"/>
      <use xlink:href="#DejaVuSans-35" x="329.6875"/>
      <use xlink:href="#DejaVuSans-35" x="393.310547"/>
      <use xlink:href="#DejaVuSans-34" x="456.933594"/>
      <use xlink:href="#DejaVuSans-31" x="520.556641"/>
      <use xlink:href="#DejaVuSans-36" x="584.179688"/>
     </g>
    </g>
    <g id="line2d_25">
     <path d="M 261.855313 303.935394 
L 269.855313 303.935394 
L 277.855313 303.935394 
" style="fill: none; stroke: #8085e9; stroke-linecap: square"/>
    </g>
    <g id="text_21">
     <!-- SRR2155417 -->
     <g transform="translate(284.255313 306.735394)scale(0.08 -0.08)">
      <defs>
       <path id="DejaVuSans-37" d="M 525 4666 
L 3525 4666 
L 3525 4397 
L 1831 0 
L 1172 0 
L 2766 4134 
L 525 4134 
L 525 4666 
z
" transform="scale(0.015625)"/>
      </defs>
      <use xlink:href="#DejaVuSans-53"/>
      <use xlink:href="#DejaVuSans-52" x="63.476562"/>
      <use xlink:href="#DejaVuSans-52" x="132.958984"/>
      <use xlink:href="#DejaVuSans-32" x="202.441406"/>
      <use xlink:href="#DejaVuSans-31" x="266.064453"/>
      <use xlink:href="#DejaVuSans-35" x="329.6875"/>
      <use xlink:href="#DejaVuSans-35" x="393.310547"/>
      <use xlink:href="#DejaVuSans-34" x="456.933594"/>
      <use xlink:href="#DejaVuSans-31" x="520.556641"/>
      <use xlink:href="#DejaVuSans-37" x="584.179688"/>
     </g>
    </g>
    <g id="line2d_26">
     <path d="M 261.855313 315.677894 
L 269.855313 315.677894 
L 277.855313 315.677894 
" style="fill: none; stroke: #f15c80; stroke-linecap: square"/>
    </g>
    <g id="text_22">
     <!-- SRR2155418 -->
     <g transform="translate(284.255313 318.477894)scale(0.08 -0.08)">
      <use xlink:href="#DejaVuSans-53"/>
      <use xlink:href="#DejaVuSans-52" x="63.476562"/>
      <use xlink:href="#DejaVuSans-52" x="132.958984"/>
      <use xlink:href="#DejaVuSans-32" x="202.441406"/>
      <use xlink:href="#DejaVuSans-31" x="266.064453"/>
      <use xlink:href="#DejaVuSans-35" x="329.6875"/>
      <use xlink:href="#DejaVuSans-35" x="393.310547"/>
      <use xlink:href="#DejaVuSans-34" x="456.933594"/>
      <use xlink:href="#DejaVuSans-31" x="520.556641"/>
      <use xlink:href="#DejaVuSans-38" x="584.179688"/>
     </g>
    </g>
    <g id="line2d_27">
     <path d="M 475.91 292.192894 
L 483.91 292.192894 
L 491.91 292.192894 
" style="fill: none; stroke: #e4d354; stroke-linecap: square"/>
    </g>
    <g id="text_23">
     <!-- SRR2155419 -->
     <g transform="translate(498.31 294.992894)scale(0.08 -0.08)">
      <defs>
       <path id="DejaVuSans-39" d="M 703 97 
L 703 672 
Q 941 559 1184 500 
Q 1428 441 1663 441 
Q 2288 441 2617 861 
Q 2947 1281 2994 2138 
Q 2813 1869 2534 1725 
Q 2256 1581 1919 1581 
Q 1219 1581 811 2004 
Q 403 2428 403 3163 
Q 403 3881 828 4315 
Q 1253 4750 1959 4750 
Q 2769 4750 3195 4129 
Q 3622 3509 3622 2328 
Q 3622 1225 3098 567 
Q 2575 -91 1691 -91 
Q 1453 -91 1209 -44 
Q 966 3 703 97 
z
M 1959 2075 
Q 2384 2075 2632 2365 
Q 2881 2656 2881 3163 
Q 2881 3666 2632 3958 
Q 2384 4250 1959 4250 
Q 1534 4250 1286 3958 
Q 1038 3666 1038 3163 
Q 1038 2656 1286 2365 
Q 1534 2075 1959 2075 
z
" transform="scale(0.015625)"/>
      </defs>
      <use xlink:href="#DejaVuSans-53"/>
      <use xlink:href="#DejaVuSans-52" x="63.476562"/>
      <use xlink:href="#DejaVuSans-52" x="132.958984"/>
      <use xlink:href="#DejaVuSans-32" x="202.441406"/>
      <use xlink:href="#DejaVuSans-31" x="266.064453"/>
      <use xlink:href="#DejaVuSans-35" x="329.6875"/>
      <use xlink:href="#DejaVuSans-35" x="393.310547"/>
      <use xlink:href="#DejaVuSans-34" x="456.933594"/>
      <use xlink:href="#DejaVuSans-31" x="520.556641"/>
      <use xlink:href="#DejaVuSans-39" x="584.179688"/>
     </g>
    </g>
    <g id="line2d_28">
     <path d="M 475.91 303.935394 
L 483.91 303.935394 
L 491.91 303.935394 
" style="fill: none; stroke: #2b908f; stroke-linecap: square"/>
    </g>
    <g id="text_24">
     <!-- SRR2155420 -->
     <g transform="translate(498.31 306.735394)scale(0.08 -0.08)">
      <use xlink:href="#DejaVuSans-53"/>
      <use xlink:href="#DejaVuSans-52" x="63.476562"/>
      <use xlink:href="#DejaVuSans-52" x="132.958984"/>
      <use xlink:href="#DejaVuSans-32" x="202.441406"/>
      <use xlink:href="#DejaVuSans-31" x="266.064453"/>
      <use xlink:href="#DejaVuSans-35" x="329.6875"/>
      <use xlink:href="#DejaVuSans-35" x="393.310547"/>
      <use xlink:href="#DejaVuSans-34" x="456.933594"/>
      <use xlink:href="#DejaVuSans-32" x="520.556641"/>
      <use xlink:href="#DejaVuSans-30" x="584.179688"/>
     </g>
    </g>
    <g id="line2d_29">
     <path d="M 689.964687 292.192894 
L 697.964687 292.192894 
L 705.964687 292.192894 
" style="fill: none; stroke: #f45b5b; stroke-linecap: square"/>
    </g>
    <g id="text_25">
     <!-- SRR2155421 -->
     <g transform="translate(712.364687 294.992894)scale(0.08 -0.08)">
      <use xlink:href="#DejaVuSans-53"/>
      <use xlink:href="#DejaVuSans-52" x="63.476562"/>
      <use xlink:href="#DejaVuSans-52" x="132.958984"/>
      <use xlink:href="#DejaVuSans-32" x="202.441406"/>
      <use xlink:href="#DejaVuSans-31" x="266.064453"/>
      <use xlink:href="#DejaVuSans-35" x="329.6875"/>
      <use xlink:href="#DejaVuSans-35" x="393.310547"/>
      <use xlink:href="#DejaVuSans-34" x="456.933594"/>
      <use xlink:href="#DejaVuSans-32" x="520.556641"/>
      <use xlink:href="#DejaVuSans-31" x="584.179688"/>
     </g>
    </g>
    <g id="line2d_30">
     <path d="M 689.964687 303.935394 
L 697.964687 303.935394 
L 705.964687 303.935394 
" style="fill: none; stroke: #91e8e1; stroke-linecap: square"/>
    </g>
    <g id="text_26">
     <!-- SRR2155422 -->
     <g transform="translate(712.364687 306.735394)scale(0.08 -0.08)">
      <use xlink:href="#DejaVuSans-53"/>
      <use xlink:href="#DejaVuSans-52" x="63.476562"/>
      <use xlink:href="#DejaVuSans-52" x="132.958984"/>
      <use xlink:href="#DejaVuSans-32" x="202.441406"/>
      <use xlink:href="#DejaVuSans-31" x="266.064453"/>
      <use xlink:href="#DejaVuSans-35" x="329.6875"/>
      <use xlink:href="#DejaVuSans-35" x="393.310547"/>
      <use xlink:href="#DejaVuSans-34" x="456.933594"/>
      <use xlink:href="#DejaVuSans-32" x="520.556641"/>
      <use xlink:href="#DejaVuSans-32" x="584.179688"/>
     </g>
    </g>
    <g id="line2d_31">
     <path d="M 904.019375 292.192894 
L 912.019375 292.192894 
L 920.019375 292.192894 
" style="fill: none; stroke: #7cb5ec; stroke-linecap: square"/>
    </g>
    <g id="text_27">
     <!-- SRR2155423 -->
     <g transform="translate(926.419375 294.992894)scale(0.08 -0.08)">
      <use xlink:href="#DejaVuSans-53"/>
      <use xlink:href="#DejaVuSans-52" x="63.476562"/>
      <use xlink:href="#DejaVuSans-52" x="132.958984"/>
      <use xlink:href="#DejaVuSans-32" x="202.441406"/>
      <use xlink:href="#DejaVuSans-31" x="266.064453"/>
      <use xlink:href="#DejaVuSans-35" x="329.6875"/>
      <use xlink:href="#DejaVuSans-35" x="393.310547"/>
      <use xlink:href="#DejaVuSans-34" x="456.933594"/>
      <use xlink:href="#DejaVuSans-32" x="520.556641"/>
      <use xlink:href="#DejaVuSans-33" x="584.179688"/>
     </g>
    </g>
    <g id="line2d_32">
     <path d="M 904.019375 303.935394 
L 912.019375 303.935394 
L 920.019375 303.935394 
" style="fill: none; stroke: #434348; stroke-linecap: square"/>
    </g>
    <g id="text_28">
     <!-- SRR2155424 -->
     <g transform="translate(926.419375 306.735394)scale(0.08 -0.08)">
      <use xlink:href="#DejaVuSans-53"/>
      <use xlink:href="#DejaVuSans-52" x="63.476562"/>
      <use xlink:href="#DejaVuSans-52" x="132.958984"/>
      <use xlink:href="#DejaVuSans-32" x="202.441406"/>
      <use xlink:href="#DejaVuSans-31" x="266.064453"/>
      <use xlink:href="#DejaVuSans-35" x="329.6875"/>
      <use xlink:href="#DejaVuSans-35" x="393.310547"/>
      <use xlink:href="#DejaVuSans-34" x="456.933594"/>
      <use xlink:href="#DejaVuSans-32" x="520.556641"/>
      <use xlink:href="#DejaVuSans-34" x="584.179688"/>
     </g>
    </g>
   </g>
  </g>
 </g>
 <defs>
  <clipPath id="pcb2f727400">
   <rect x="40.600625" y="31.48286" width="944.845" height="242.5072"/>
  </clipPath>
 </defs>
</svg>
