<?xml version="1.0" encoding="utf-8" standalone="no"?>
<!DOCTYPE svg PUBLIC "-//W3C//DTD SVG 1.1//EN"
  "http://www.w3.org/Graphics/SVG/1.1/DTD/svg11.dtd">
<svg xmlns:xlink="http://www.w3.org/1999/xlink" width="1000.280625pt" height="330.541644pt" viewBox="0 0 1000.280625 330.541644" xmlns="http://www.w3.org/2000/svg" version="1.1">
 <metadata>
  <rdf:RDF xmlns:dc="http://purl.org/dc/elements/1.1/" xmlns:cc="http://creativecommons.org/ns#" xmlns:rdf="http://www.w3.org/1999/02/22-rdf-syntax-ns#">
   <cc:Work>
    <dc:type rdf:resource="http://purl.org/dc/dcmitype/StillImage"/>
    <dc:date>2024-08-12T02:15:18.103471</dc:date>
    <dc:format>image/svg+xml</dc:format>
    <dc:creator>
     <cc:Agent>
      <dc:title>Matplotlib v3.5.3, https://matplotlib.org/</dc:title>
     </cc:Agent>
    </dc:creator>
   </cc:Work>
  </rdf:RDF>
 </metadata>
 <defs>
  <style type="text/css">*{stroke-linejoin: round; stroke-linecap: butt}</style>
 </defs>
 <g id="figure_1">
  <g id="axes_1">
   <g id="patch_1">
    <path d="M 40.600625 273.99006 
L 985.445625 273.99006 
L 985.445625 31.48286 
L 40.600625 31.48286 
z
" style="fill: #ffffff"/>
   </g>
   <g id="matplotlib.axis_1">
    <g id="xtick_1">
     <g id="text_1">
      <!-- 0 -->
      <g transform="translate(38.055625 287.06881)scale(0.08 -0.08)">
       <defs>
        <path id="DejaVuSans-30" d="M 2034 4250 
Q 1547 4250 1301 3770 
Q 1056 3291 1056 2328 
Q 1056 1369 1301 889 
Q 1547 409 2034 409 
Q 2525 409 2770 889 
Q 3016 1369 3016 2328 
Q 3016 3291 2770 3770 
Q 2525 4250 2034 4250 
z
M 2034 4750 
Q 2819 4750 3233 4129 
Q 3647 3509 3647 2328 
Q 3647 1150 3233 529 
Q 2819 -91 2034 -91 
Q 1250 -91 836 529 
Q 422 1150 422 2328 
Q 422 3509 836 4129 
Q 1250 4750 2034 4750 
z
" transform="scale(0.015625)"/>
       </defs>
       <use xlink:href="#DejaVuSans-30"/>
      </g>
     </g>
    </g>
    <g id="xtick_2">
     <g id="text_2">
      <!-- 20 -->
      <g transform="translate(224.479625 287.06881)scale(0.08 -0.08)">
       <defs>
        <path id="DejaVuSans-32" d="M 1228 531 
L 3431 531 
L 3431 0 
L 469 0 
L 469 531 
Q 828 903 1448 1529 
Q 2069 2156 2228 2338 
Q 2531 2678 2651 2914 
Q 2772 3150 2772 3378 
Q 2772 3750 2511 3984 
Q 2250 4219 1831 4219 
Q 1534 4219 1204 4116 
Q 875 4013 500 3803 
L 500 4441 
Q 881 4594 1212 4672 
Q 1544 4750 1819 4750 
Q 2544 4750 2975 4387 
Q 3406 4025 3406 3419 
Q 3406 3131 3298 2873 
Q 3191 2616 2906 2266 
Q 2828 2175 2409 1742 
Q 1991 1309 1228 531 
z
" transform="scale(0.015625)"/>
       </defs>
       <use xlink:href="#DejaVuSans-32"/>
       <use xlink:href="#DejaVuSans-30" x="63.623047"/>
      </g>
     </g>
    </g>
    <g id="xtick_3">
     <g id="text_3">
      <!-- 40 -->
      <g transform="translate(413.448625 287.06881)scale(0.08 -0.08)">
       <defs>
        <path id="DejaVuSans-34" d="M 2419 4116 
L 825 1625 
L 2419 1625 
L 2419 4116 
z
M 2253 4666 
L 3047 4666 
L 3047 1625 
L 3713 1625 
L 3713 1100 
L 3047 1100 
L 3047 0 
L 2419 0 
L 2419 1100 
L 313 1100 
L 313 1709 
L 2253 4666 
z
" transform="scale(0.015625)"/>
       </defs>
       <use xlink:href="#DejaVuSans-34"/>
       <use xlink:href="#DejaVuSans-30" x="63.623047"/>
      </g>
     </g>
    </g>
    <g id="xtick_4">
     <g id="text_4">
      <!-- 60 -->
      <g transform="translate(602.417625 287.06881)scale(0.08 -0.08)">
       <defs>
        <path id="DejaVuSans-36" d="M 2113 2584 
Q 1688 2584 1439 2293 
Q 1191 2003 1191 1497 
Q 1191 994 1439 701 
Q 1688 409 2113 409 
Q 2538 409 2786 701 
Q 3034 994 3034 1497 
Q 3034 2003 2786 2293 
Q 2538 2584 2113 2584 
z
M 3366 4563 
L 3366 3988 
Q 3128 4100 2886 4159 
Q 2644 4219 2406 4219 
Q 1781 4219 1451 3797 
Q 1122 3375 1075 2522 
Q 1259 2794 1537 2939 
Q 1816 3084 2150 3084 
Q 2853 3084 3261 2657 
Q 3669 2231 3669 1497 
Q 3669 778 3244 343 
Q 2819 -91 2113 -91 
Q 1303 -91 875 529 
Q 447 1150 447 2328 
Q 447 3434 972 4092 
Q 1497 4750 2381 4750 
Q 2619 4750 2861 4703 
Q 3103 4656 3366 4563 
z
" transform="scale(0.015625)"/>
       </defs>
       <use xlink:href="#DejaVuSans-36"/>
       <use xlink:href="#DejaVuSans-30" x="63.623047"/>
      </g>
     </g>
    </g>
    <g id="xtick_5">
     <g id="text_5">
      <!-- 80 -->
      <g transform="translate(791.386625 287.06881)scale(0.08 -0.08)">
       <defs>
        <path id="DejaVuSans-38" d="M 2034 2216 
Q 1584 2216 1326 1975 
Q 1069 1734 1069 1313 
Q 1069 891 1326 650 
Q 1584 409 2034 409 
Q 2484 409 2743 651 
Q 3003 894 3003 1313 
Q 3003 1734 2745 1975 
Q 2488 2216 2034 2216 
z
M 1403 2484 
Q 997 2584 770 2862 
Q 544 3141 544 3541 
Q 544 4100 942 4425 
Q 1341 4750 2034 4750 
Q 2731 4750 3128 4425 
Q 3525 4100 3525 3541 
Q 3525 3141 3298 2862 
Q 3072 2584 2669 2484 
Q 3125 2378 3379 2068 
Q 3634 1759 3634 1313 
Q 3634 634 3220 271 
Q 2806 -91 2034 -91 
Q 1263 -91 848 271 
Q 434 634 434 1313 
Q 434 1759 690 2068 
Q 947 2378 1403 2484 
z
M 1172 3481 
Q 1172 3119 1398 2916 
Q 1625 2713 2034 2713 
Q 2441 2713 2670 2916 
Q 2900 3119 2900 3481 
Q 2900 3844 2670 4047 
Q 2441 4250 2034 4250 
Q 1625 4250 1398 4047 
Q 1172 3844 1172 3481 
z
" transform="scale(0.015625)"/>
       </defs>
       <use xlink:href="#DejaVuSans-38"/>
       <use xlink:href="#DejaVuSans-30" x="63.623047"/>
      </g>
     </g>
    </g>
    <g id="xtick_6">
     <g id="text_6">
      <!-- 100 -->
      <g transform="translate(977.810625 287.06881)scale(0.08 -0.08)">
       <defs>
        <path id="DejaVuSans-31" d="M 794 531 
L 1825 531 
L 1825 4091 
L 703 3866 
L 703 4441 
L 1819 4666 
L 2450 4666 
L 2450 531 
L 3481 531 
L 3481 0 
L 794 0 
L 794 531 
z
" transform="scale(0.015625)"/>
       </defs>
       <use xlink:href="#DejaVuSans-31"/>
       <use xlink:href="#DejaVuSans-30" x="63.623047"/>
       <use xlink:href="#DejaVuSans-30" x="127.246094"/>
      </g>
     </g>
    </g>
    <g id="text_7">
     <!-- % GC -->
     <g transform="translate(499.317656 300.330997)scale(0.1 -0.1)">
      <defs>
       <path id="DejaVuSans-25" d="M 4653 2053 
Q 4381 2053 4226 1822 
Q 4072 1591 4072 1178 
Q 4072 772 4226 539 
Q 4381 306 4653 306 
Q 4919 306 5073 539 
Q 5228 772 5228 1178 
Q 5228 1588 5073 1820 
Q 4919 2053 4653 2053 
z
M 4653 2450 
Q 5147 2450 5437 2106 
Q 5728 1763 5728 1178 
Q 5728 594 5436 251 
Q 5144 -91 4653 -91 
Q 4153 -91 3862 251 
Q 3572 594 3572 1178 
Q 3572 1766 3864 2108 
Q 4156 2450 4653 2450 
z
M 1428 4353 
Q 1159 4353 1004 4120 
Q 850 3888 850 3481 
Q 850 3069 1003 2837 
Q 1156 2606 1428 2606 
Q 1700 2606 1854 2837 
Q 2009 3069 2009 3481 
Q 2009 3884 1853 4118 
Q 1697 4353 1428 4353 
z
M 4250 4750 
L 4750 4750 
L 1831 -91 
L 1331 -91 
L 4250 4750 
z
M 1428 4750 
Q 1922 4750 2215 4408 
Q 2509 4066 2509 3481 
Q 2509 2891 2217 2550 
Q 1925 2209 1428 2209 
Q 931 2209 642 2551 
Q 353 2894 353 3481 
Q 353 4063 643 4406 
Q 934 4750 1428 4750 
z
" transform="scale(0.015625)"/>
       <path id="DejaVuSans-20" transform="scale(0.015625)"/>
       <path id="DejaVuSans-47" d="M 3809 666 
L 3809 1919 
L 2778 1919 
L 2778 2438 
L 4434 2438 
L 4434 434 
Q 4069 175 3628 42 
Q 3188 -91 2688 -91 
Q 1594 -91 976 548 
Q 359 1188 359 2328 
Q 359 3472 976 4111 
Q 1594 4750 2688 4750 
Q 3144 4750 3555 4637 
Q 3966 4525 4313 4306 
L 4313 3634 
Q 3963 3931 3569 4081 
Q 3175 4231 2741 4231 
Q 1884 4231 1454 3753 
Q 1025 3275 1025 2328 
Q 1025 1384 1454 906 
Q 1884 428 2741 428 
Q 3075 428 3337 486 
Q 3600 544 3809 666 
z
" transform="scale(0.015625)"/>
       <path id="DejaVuSans-43" d="M 4122 4306 
L 4122 3641 
Q 3803 3938 3442 4084 
Q 3081 4231 2675 4231 
Q 1875 4231 1450 3742 
Q 1025 3253 1025 2328 
Q 1025 1406 1450 917 
Q 1875 428 2675 428 
Q 3081 428 3442 575 
Q 3803 722 4122 1019 
L 4122 359 
Q 3791 134 3420 21 
Q 3050 -91 2638 -91 
Q 1578 -91 968 557 
Q 359 1206 359 2328 
Q 359 3453 968 4101 
Q 1578 4750 2638 4750 
Q 3056 4750 3426 4639 
Q 3797 4528 4122 4306 
z
" transform="scale(0.015625)"/>
      </defs>
      <use xlink:href="#DejaVuSans-25"/>
      <use xlink:href="#DejaVuSans-20" x="95.019531"/>
      <use xlink:href="#DejaVuSans-47" x="126.806641"/>
      <use xlink:href="#DejaVuSans-43" x="204.296875"/>
     </g>
    </g>
   </g>
   <g id="matplotlib.axis_2">
    <g id="ytick_1">
     <g id="line2d_1">
      <path d="M 40.600625 273.99006 
L 985.445625 273.99006 
" clip-path="url(#pf5d1cc05e1)" style="fill: none; stroke: #dedede; stroke-linecap: square"/>
     </g>
     <g id="text_8">
      <!-- 0.0 -->
      <g transform="translate(20.878125 277.029435)scale(0.08 -0.08)">
       <defs>
        <path id="DejaVuSans-2e" d="M 684 794 
L 1344 794 
L 1344 0 
L 684 0 
L 684 794 
z
" transform="scale(0.015625)"/>
       </defs>
       <use xlink:href="#DejaVuSans-30"/>
       <use xlink:href="#DejaVuSans-2e" x="63.623047"/>
       <use xlink:href="#DejaVuSans-30" x="95.410156"/>
      </g>
     </g>
    </g>
    <g id="ytick_2">
     <g id="line2d_2">
      <path d="M 40.600625 238.099753 
L 985.445625 238.099753 
" clip-path="url(#pf5d1cc05e1)" style="fill: none; stroke: #dedede; stroke-linecap: square"/>
     </g>
     <g id="text_9">
      <!-- 0.2 -->
      <g transform="translate(20.878125 241.139128)scale(0.08 -0.08)">
       <use xlink:href="#DejaVuSans-30"/>
       <use xlink:href="#DejaVuSans-2e" x="63.623047"/>
       <use xlink:href="#DejaVuSans-32" x="95.410156"/>
      </g>
     </g>
    </g>
    <g id="ytick_3">
     <g id="line2d_3">
      <path d="M 40.600625 202.209447 
L 985.445625 202.209447 
" clip-path="url(#pf5d1cc05e1)" style="fill: none; stroke: #dedede; stroke-linecap: square"/>
     </g>
     <g id="text_10">
      <!-- 0.4 -->
      <g transform="translate(20.878125 205.248822)scale(0.08 -0.08)">
       <use xlink:href="#DejaVuSans-30"/>
       <use xlink:href="#DejaVuSans-2e" x="63.623047"/>
       <use xlink:href="#DejaVuSans-34" x="95.410156"/>
      </g>
     </g>
    </g>
    <g id="ytick_4">
     <g id="line2d_4">
      <path d="M 40.600625 166.31914 
L 985.445625 166.31914 
" clip-path="url(#pf5d1cc05e1)" style="fill: none; stroke: #dedede; stroke-linecap: square"/>
     </g>
     <g id="text_11">
      <!-- 0.6 -->
      <g transform="translate(20.878125 169.358515)scale(0.08 -0.08)">
       <use xlink:href="#DejaVuSans-30"/>
       <use xlink:href="#DejaVuSans-2e" x="63.623047"/>
       <use xlink:href="#DejaVuSans-36" x="95.410156"/>
      </g>
     </g>
    </g>
    <g id="ytick_5">
     <g id="line2d_5">
      <path d="M 40.600625 130.428833 
L 985.445625 130.428833 
" clip-path="url(#pf5d1cc05e1)" style="fill: none; stroke: #dedede; stroke-linecap: square"/>
     </g>
     <g id="text_12">
      <!-- 0.8 -->
      <g transform="translate(20.878125 133.468208)scale(0.08 -0.08)">
       <use xlink:href="#DejaVuSans-30"/>
       <use xlink:href="#DejaVuSans-2e" x="63.623047"/>
       <use xlink:href="#DejaVuSans-38" x="95.410156"/>
      </g>
     </g>
    </g>
    <g id="ytick_6">
     <g id="line2d_6">
      <path d="M 40.600625 94.538526 
L 985.445625 94.538526 
" clip-path="url(#pf5d1cc05e1)" style="fill: none; stroke: #dedede; stroke-linecap: square"/>
     </g>
     <g id="text_13">
      <!-- 1.0 -->
      <g transform="translate(20.878125 97.577901)scale(0.08 -0.08)">
       <use xlink:href="#DejaVuSans-31"/>
       <use xlink:href="#DejaVuSans-2e" x="63.623047"/>
       <use xlink:href="#DejaVuSans-30" x="95.410156"/>
      </g>
     </g>
    </g>
    <g id="ytick_7">
     <g id="line2d_7">
      <path d="M 40.600625 58.64822 
L 985.445625 58.64822 
" clip-path="url(#pf5d1cc05e1)" style="fill: none; stroke: #dedede; stroke-linecap: square"/>
     </g>
     <g id="text_14">
      <!-- 1.2 -->
      <g transform="translate(20.878125 61.687595)scale(0.08 -0.08)">
       <use xlink:href="#DejaVuSans-31"/>
       <use xlink:href="#DejaVuSans-2e" x="63.623047"/>
       <use xlink:href="#DejaVuSans-32" x="95.410156"/>
      </g>
     </g>
    </g>
    <g id="text_15">
     <!-- Count -->
     <g transform="translate(14.798438 167.584897)rotate(-90)scale(0.1 -0.1)">
      <defs>
       <path id="DejaVuSans-6f" d="M 1959 3097 
Q 1497 3097 1228 2736 
Q 959 2375 959 1747 
Q 959 1119 1226 758 
Q 1494 397 1959 397 
Q 2419 397 2687 759 
Q 2956 1122 2956 1747 
Q 2956 2369 2687 2733 
Q 2419 3097 1959 3097 
z
M 1959 3584 
Q 2709 3584 3137 3096 
Q 3566 2609 3566 1747 
Q 3566 888 3137 398 
Q 2709 -91 1959 -91 
Q 1206 -91 779 398 
Q 353 888 353 1747 
Q 353 2609 779 3096 
Q 1206 3584 1959 3584 
z
" transform="scale(0.015625)"/>
       <path id="DejaVuSans-75" d="M 544 1381 
L 544 3500 
L 1119 3500 
L 1119 1403 
Q 1119 906 1312 657 
Q 1506 409 1894 409 
Q 2359 409 2629 706 
Q 2900 1003 2900 1516 
L 2900 3500 
L 3475 3500 
L 3475 0 
L 2900 0 
L 2900 538 
Q 2691 219 2414 64 
Q 2138 -91 1772 -91 
Q 1169 -91 856 284 
Q 544 659 544 1381 
z
M 1991 3584 
L 1991 3584 
z
" transform="scale(0.015625)"/>
       <path id="DejaVuSans-6e" d="M 3513 2113 
L 3513 0 
L 2938 0 
L 2938 2094 
Q 2938 2591 2744 2837 
Q 2550 3084 2163 3084 
Q 1697 3084 1428 2787 
Q 1159 2491 1159 1978 
L 1159 0 
L 581 0 
L 581 3500 
L 1159 3500 
L 1159 2956 
Q 1366 3272 1645 3428 
Q 1925 3584 2291 3584 
Q 2894 3584 3203 3211 
Q 3513 2838 3513 2113 
z
" transform="scale(0.015625)"/>
       <path id="DejaVuSans-74" d="M 1172 4494 
L 1172 3500 
L 2356 3500 
L 2356 3053 
L 1172 3053 
L 1172 1153 
Q 1172 725 1289 603 
Q 1406 481 1766 481 
L 2356 481 
L 2356 0 
L 1766 0 
Q 1100 0 847 248 
Q 594 497 594 1153 
L 594 3053 
L 172 3053 
L 172 3500 
L 594 3500 
L 594 4494 
L 1172 4494 
z
" transform="scale(0.015625)"/>
      </defs>
      <use xlink:href="#DejaVuSans-43"/>
      <use xlink:href="#DejaVuSans-6f" x="69.824219"/>
      <use xlink:href="#DejaVuSans-75" x="131.005859"/>
      <use xlink:href="#DejaVuSans-6e" x="194.384766"/>
      <use xlink:href="#DejaVuSans-74" x="257.763672"/>
     </g>
    </g>
    <g id="text_16">
     <!-- 1e6 -->
     <g transform="translate(40.600625 28.48286)scale(0.1 -0.1)">
      <defs>
       <path id="DejaVuSans-65" d="M 3597 1894 
L 3597 1613 
L 953 1613 
Q 991 1019 1311 708 
Q 1631 397 2203 397 
Q 2534 397 2845 478 
Q 3156 559 3463 722 
L 3463 178 
Q 3153 47 2828 -22 
Q 2503 -91 2169 -91 
Q 1331 -91 842 396 
Q 353 884 353 1716 
Q 353 2575 817 3079 
Q 1281 3584 2069 3584 
Q 2775 3584 3186 3129 
Q 3597 2675 3597 1894 
z
M 3022 2063 
Q 3016 2534 2758 2815 
Q 2500 3097 2075 3097 
Q 1594 3097 1305 2825 
Q 1016 2553 972 2059 
L 3022 2063 
z
" transform="scale(0.015625)"/>
      </defs>
      <use xlink:href="#DejaVuSans-31"/>
      <use xlink:href="#DejaVuSans-65" x="63.623047"/>
      <use xlink:href="#DejaVuSans-36" x="125.146484"/>
     </g>
    </g>
   </g>
   <g id="line2d_8">
    <path d="M 40.600625 273.988624 
L 50.049075 273.988983 
L 59.497525 273.989611 
L 68.945975 273.989881 
L 78.394425 273.989701 
L 87.842875 273.989163 
L 97.291325 273.988983 
L 106.739775 273.989163 
L 116.188225 273.988894 
L 125.636675 273.987727 
L 135.085125 273.986292 
L 144.533575 273.984407 
L 153.982025 273.980011 
L 163.430475 273.975614 
L 172.878925 273.971487 
L 182.327375 273.962604 
L 191.775825 273.939455 
L 201.224275 273.900873 
L 210.672725 273.834117 
L 220.121175 273.718011 
L 229.569625 273.517205 
L 239.018075 273.199307 
L 248.466525 272.743051 
L 257.914975 272.099718 
L 267.363425 271.226776 
L 276.811875 270.102601 
L 286.260325 268.655953 
L 295.708775 266.888714 
L 305.157225 264.942921 
L 314.605675 262.703187 
L 324.054125 260.23833 
L 333.502575 257.864097 
L 342.951025 255.456575 
L 352.399475 252.658387 
L 361.847925 249.511974 
L 371.296375 246.29046 
L 380.744825 242.803357 
L 390.193275 239.15098 
L 399.641725 235.734762 
L 409.090175 232.495123 
L 418.538625 229.660955 
L 427.987075 227.252177 
L 437.435525 224.913385 
L 446.883975 223.129099 
L 456.332425 222.087921 
L 465.780875 221.007174 
L 475.229325 220.2594 
L 484.677775 220.434185 
L 494.126225 220.835439 
L 503.574675 221.06092 
L 513.023125 221.154414 
L 522.471575 221.023145 
L 531.920025 221.501025 
L 541.368475 222.747854 
L 550.816925 223.964177 
L 560.265375 224.956364 
L 569.713825 226.595295 
L 579.162275 228.622469 
L 588.610725 230.392041 
L 598.059175 232.113071 
L 607.507625 233.879502 
L 616.956075 236.142296 
L 626.404525 238.957352 
L 635.852975 242.062402 
L 645.301425 245.196344 
L 654.749875 248.40736 
L 664.198325 251.545518 
L 673.646775 254.477397 
L 683.095225 257.281417 
L 692.543675 259.94403 
L 701.992125 262.469361 
L 711.440575 264.744627 
L 720.889025 266.561933 
L 730.337475 268.017734 
L 739.785925 269.202024 
L 749.234375 270.183085 
L 758.682825 270.977607 
L 768.131275 271.600304 
L 777.579725 272.093347 
L 787.028175 272.510572 
L 796.476625 272.860861 
L 805.925075 273.162609 
L 815.373525 273.400831 
L 824.821975 273.573284 
L 834.270425 273.71523 
L 843.718875 273.817876 
L 853.167325 273.883197 
L 862.615775 273.92465 
L 872.064225 273.951119 
L 881.512675 273.964578 
L 890.961125 273.974627 
L 900.409575 273.980998 
L 909.858025 273.98351 
L 919.306475 273.985753 
L 928.754925 273.987548 
L 938.203375 273.988535 
L 947.651825 273.989432 
L 957.100275 273.989791 
L 966.548725 273.989791 
L 975.997175 273.99006 
L 985.445625 273.99006 
" clip-path="url(#pf5d1cc05e1)" style="fill: none; stroke: #5cb85c; stroke-linecap: square"/>
   </g>
   <g id="line2d_9">
    <path d="M 40.600625 273.985035 
L 50.049075 273.986202 
L 59.497525 273.988445 
L 68.945975 273.989342 
L 78.394425 273.988445 
L 87.842875 273.987548 
L 97.291325 273.987189 
L 106.739775 273.987099 
L 116.188225 273.985305 
L 125.636675 273.982702 
L 135.085125 273.9801 
L 144.533575 273.97364 
L 153.982025 273.965206 
L 163.430475 273.954977 
L 172.878925 273.932725 
L 182.327375 273.899168 
L 191.775825 273.840846 
L 201.224275 273.739635 
L 210.672725 273.565119 
L 220.121175 273.222994 
L 229.569625 272.629638 
L 239.018075 271.726189 
L 248.466525 270.401029 
L 257.914975 268.402298 
L 267.363425 265.681992 
L 276.811875 262.190135 
L 286.260325 257.673429 
L 295.708775 252.261979 
L 305.157225 246.095665 
L 314.605675 238.914463 
L 324.054125 231.068573 
L 333.502575 223.317792 
L 342.951025 215.25001 
L 352.399475 205.995066 
L 361.847925 195.716352 
L 371.296375 184.732572 
L 380.744825 173.229549 
L 390.193275 160.554618 
L 399.641725 148.289555 
L 409.090175 137.00636 
L 418.538625 126.914275 
L 427.987075 118.557576 
L 437.435525 110.083964 
L 446.883975 103.032596 
L 456.332425 98.645095 
L 465.780875 94.261633 
L 475.229325 91.033479 
L 484.677775 91.069908 
L 494.126225 91.774165 
L 503.574675 92.131005 
L 513.023125 91.886143 
L 522.471575 91.784932 
L 531.920025 94.197838 
L 541.368475 98.087539 
L 550.816925 102.128788 
L 560.265375 106.131993 
L 569.713825 111.982292 
L 579.162275 119.093149 
L 588.610725 125.142281 
L 598.059175 131.095675 
L 607.507625 137.714117 
L 616.956075 145.808278 
L 626.404525 155.803908 
L 635.852975 166.677056 
L 645.301425 177.413103 
L 654.749875 188.282482 
L 664.198325 198.968103 
L 673.646775 209.073288 
L 683.095225 218.592115 
L 692.543675 227.632435 
L 701.992125 236.157549 
L 711.440575 243.658713 
L 720.889025 249.5589 
L 730.337475 254.402835 
L 739.785925 258.393389 
L 749.234375 261.548147 
L 758.682825 264.071056 
L 768.131275 266.022502 
L 777.579725 267.687453 
L 787.028175 269.064115 
L 796.476625 270.186405 
L 805.925075 271.13032 
L 815.373525 271.871635 
L 824.821975 272.45216 
L 834.270425 272.927797 
L 843.718875 273.282124 
L 853.167325 273.527793 
L 862.615775 273.696926 
L 872.064225 273.804058 
L 881.512675 273.872968 
L 890.961125 273.909666 
L 900.409575 273.937391 
L 909.858025 273.961348 
L 919.306475 273.97382 
L 928.754925 273.979203 
L 938.203375 273.984318 
L 947.651825 273.98683 
L 957.100275 273.987817 
L 966.548725 273.988535 
L 975.997175 273.989342 
L 985.445625 273.989791 
" clip-path="url(#pf5d1cc05e1)" style="fill: none; stroke: #5cb85c; stroke-linecap: square"/>
   </g>
   <g id="line2d_10">
    <path d="M 40.600625 273.987368 
L 50.049075 273.987996 
L 59.497525 273.988804 
L 68.945975 273.988983 
L 78.394425 273.988624 
L 87.842875 273.988176 
L 97.291325 273.987817 
L 106.739775 273.987458 
L 116.188225 273.985843 
L 125.636675 273.981267 
L 135.085125 273.97687 
L 144.533575 273.973461 
L 153.982025 273.962873 
L 163.430475 273.947709 
L 172.878925 273.926534 
L 182.327375 273.887952 
L 191.775825 273.82326 
L 201.224275 273.714512 
L 210.672725 273.520884 
L 220.121175 273.174812 
L 229.569625 272.558396 
L 239.018075 271.592318 
L 248.466525 270.187123 
L 257.914975 268.191981 
L 267.363425 265.508014 
L 276.811875 261.888656 
L 286.260325 257.384423 
L 295.708775 252.007606 
L 305.157225 245.797147 
L 314.605675 238.788129 
L 324.054125 231.143943 
L 333.502575 223.658032 
L 342.951025 215.982262 
L 352.399475 206.888735 
L 361.847925 196.820876 
L 371.296375 186.411879 
L 380.744825 175.344296 
L 390.193275 163.141053 
L 399.641725 151.797114 
L 409.090175 141.066361 
L 418.538625 131.602267 
L 427.987075 123.76508 
L 437.435525 115.695414 
L 446.883975 109.329191 
L 456.332425 105.642718 
L 465.780875 102.202453 
L 475.229325 99.561106 
L 484.677775 99.783895 
L 494.126225 100.796181 
L 503.574675 101.602187 
L 513.023125 102.08563 
L 522.471575 102.598413 
L 531.920025 104.966276 
L 541.368475 109.214163 
L 550.816925 113.52082 
L 560.265375 117.440669 
L 569.713825 123.232468 
L 579.162275 129.915871 
L 588.610725 135.925523 
L 598.059175 141.894709 
L 607.507625 148.056716 
L 616.956075 155.354472 
L 626.404525 164.554593 
L 635.852975 174.568168 
L 645.301425 184.337689 
L 654.749875 194.31322 
L 664.198325 204.104275 
L 673.646775 213.308255 
L 683.095225 221.944001 
L 692.543675 230.141347 
L 701.992125 237.887462 
L 711.440575 244.863012 
L 720.889025 250.27877 
L 730.337475 254.782375 
L 739.785925 258.55983 
L 749.234375 261.524369 
L 758.682825 263.982138 
L 768.131275 265.983381 
L 777.579725 267.679019 
L 787.028175 269.072639 
L 796.476625 270.166038 
L 805.925075 271.139742 
L 815.373525 271.942877 
L 824.821975 272.529863 
L 834.270425 273.003166 
L 843.718875 273.356865 
L 853.167325 273.578667 
L 862.615775 273.731201 
L 872.064225 273.833309 
L 881.512675 273.887503 
L 890.961125 273.926534 
L 900.409575 273.95094 
L 909.858025 273.96386 
L 919.306475 273.974358 
L 928.754925 273.9801 
L 938.203375 273.984856 
L 947.651825 273.988355 
L 957.100275 273.988894 
L 966.548725 273.989073 
L 975.997175 273.989342 
L 985.445625 273.989881 
" clip-path="url(#pf5d1cc05e1)" style="fill: none; stroke: #5cb85c; stroke-linecap: square"/>
   </g>
   <g id="line2d_11">
    <path d="M 40.600625 273.988086 
L 50.049075 273.988535 
L 59.497525 273.989342 
L 68.945975 273.989432 
L 78.394425 273.989252 
L 87.842875 273.989432 
L 97.291325 273.989163 
L 106.739775 273.988624 
L 116.188225 273.987727 
L 125.636675 273.986471 
L 135.085125 273.985035 
L 144.533575 273.982164 
L 153.982025 273.977409 
L 163.430475 273.968257 
L 172.878925 273.95731 
L 182.327375 273.93775 
L 191.775825 273.896745 
L 201.224275 273.830438 
L 210.672725 273.704642 
L 220.121175 273.462921 
L 229.569625 273.054041 
L 239.018075 272.450994 
L 248.466525 271.519551 
L 257.914975 270.170075 
L 267.363425 268.341374 
L 276.811875 265.970281 
L 286.260325 262.966352 
L 295.708775 259.267946 
L 305.157225 255.087084 
L 314.605675 250.271682 
L 324.054125 245.002985 
L 333.502575 239.863941 
L 342.951025 234.608524 
L 352.399475 228.353382 
L 361.847925 221.136379 
L 371.296375 213.733375 
L 380.744825 206.118888 
L 390.193275 197.587762 
L 399.641725 189.462197 
L 409.090175 181.887188 
L 418.538625 175.07458 
L 427.987075 169.491125 
L 437.435525 163.811305 
L 446.883975 159.12762 
L 456.332425 156.458368 
L 465.780875 153.77467 
L 475.229325 151.418113 
L 484.677775 151.383299 
L 494.126225 152.155658 
L 503.574675 152.680554 
L 513.023125 152.919045 
L 522.471575 153.243135 
L 531.920025 154.864748 
L 541.368475 157.566212 
L 550.816925 160.393291 
L 560.265375 163.038407 
L 569.713825 167.028063 
L 579.162275 171.95338 
L 588.610725 176.048194 
L 598.059175 180.300299 
L 607.507625 184.848767 
L 616.956075 189.937115 
L 626.404525 196.508541 
L 635.852975 203.697369 
L 645.301425 210.778975 
L 654.749875 217.951384 
L 664.198325 225.070406 
L 673.646775 231.762781 
L 683.095225 237.89805 
L 692.543675 243.732199 
L 701.992125 249.273841 
L 711.440575 254.246443 
L 720.889025 258.154001 
L 730.337475 261.289019 
L 739.785925 263.915202 
L 749.234375 266.015413 
L 758.682825 267.665022 
L 768.131275 268.98731 
L 777.579725 270.073082 
L 787.028175 270.936333 
L 796.476625 271.66688 
L 805.925075 272.266249 
L 815.373525 272.735245 
L 824.821975 273.095584 
L 834.270425 273.37831 
L 843.718875 273.592216 
L 853.167325 273.7382 
L 862.615775 273.831694 
L 872.064225 273.894412 
L 881.512675 273.929405 
L 890.961125 273.953003 
L 900.409575 273.966193 
L 909.858025 273.973909 
L 919.306475 273.981267 
L 928.754925 273.984497 
L 938.203375 273.98692 
L 947.651825 273.989073 
L 957.100275 273.989432 
L 966.548725 273.989701 
L 975.997175 273.989881 
L 985.445625 273.99006 
" clip-path="url(#pf5d1cc05e1)" style="fill: none; stroke: #5cb85c; stroke-linecap: square"/>
   </g>
   <g id="line2d_12">
    <path d="M 40.600625 273.983061 
L 50.049075 273.985663 
L 59.497525 273.988535 
L 68.945975 273.988983 
L 78.394425 273.988535 
L 87.842875 273.988265 
L 97.291325 273.988176 
L 106.739775 273.986381 
L 116.188225 273.983151 
L 125.636675 273.979562 
L 135.085125 273.975704 
L 144.533575 273.966821 
L 153.982025 273.958656 
L 163.430475 273.946992 
L 172.878925 273.916395 
L 182.327375 273.872788 
L 191.775825 273.791946 
L 201.224275 273.655921 
L 210.672725 273.426851 
L 220.121175 272.993655 
L 229.569625 272.19384 
L 239.018075 271.003897 
L 248.466525 269.224545 
L 257.914975 266.592978 
L 267.363425 263.095109 
L 276.811875 258.532195 
L 286.260325 252.716798 
L 295.708775 245.853405 
L 305.157225 237.988942 
L 314.605675 228.871368 
L 324.054125 219.107859 
L 333.502575 209.418194 
L 342.951025 199.447239 
L 352.399475 187.639956 
L 361.847925 174.408187 
L 371.296375 160.92698 
L 380.744825 146.256907 
L 390.193275 130.215645 
L 399.641725 115.245977 
L 409.090175 100.883305 
L 418.538625 88.150142 
L 427.987075 77.621182 
L 437.435525 66.619995 
L 446.883975 57.655763 
L 456.332425 52.39218 
L 465.780875 47.007647 
L 475.229325 43.030822 
L 484.677775 43.062046 
L 494.126225 43.759933 
L 503.574675 44.361006 
L 513.023125 44.167827 
L 522.471575 44.07182 
L 531.920025 47.300602 
L 541.368475 52.008603 
L 550.816925 56.773938 
L 560.265375 61.992299 
L 569.713825 69.648688 
L 579.162275 78.6131 
L 588.610725 86.086898 
L 598.059175 93.616774 
L 607.507625 102.050727 
L 616.956075 112.383636 
L 626.404525 125.185439 
L 635.852975 139.000964 
L 645.301425 152.391189 
L 654.749875 165.988141 
L 664.198325 179.608423 
L 673.646775 192.290442 
L 683.095225 204.051875 
L 692.543675 215.396712 
L 701.992125 226.063759 
L 711.440575 235.341673 
L 720.889025 242.774914 
L 730.337475 248.879766 
L 739.785925 253.872466 
L 749.234375 257.946644 
L 758.682825 261.191038 
L 768.131275 263.772359 
L 777.579725 265.971717 
L 787.028175 267.735008 
L 796.476625 269.192962 
L 805.925075 270.432074 
L 815.373525 271.409726 
L 824.821975 272.169165 
L 834.270425 272.773558 
L 843.718875 273.194821 
L 853.167325 273.481135 
L 862.615775 273.666778 
L 872.064225 273.784498 
L 881.512675 273.861034 
L 890.961125 273.904013 
L 900.409575 273.933622 
L 909.858025 273.955336 
L 919.306475 273.9705 
L 928.754925 273.979113 
L 938.203375 273.984048 
L 947.651825 273.986471 
L 957.100275 273.987817 
L 966.548725 273.988535 
L 975.997175 273.989252 
L 985.445625 273.989881 
" clip-path="url(#pf5d1cc05e1)" style="fill: none; stroke: #5cb85c; stroke-linecap: square"/>
   </g>
   <g id="line2d_13">
    <path d="M 40.600625 273.986471 
L 50.049075 273.987817 
L 59.497525 273.989073 
L 68.945975 273.988804 
L 78.394425 273.988804 
L 87.842875 273.988265 
L 97.291325 273.987099 
L 106.739775 273.98665 
L 116.188225 273.985215 
L 125.636675 273.981985 
L 135.085125 273.977229 
L 144.533575 273.969692 
L 153.982025 273.962335 
L 163.430475 273.950311 
L 172.878925 273.925816 
L 182.327375 273.886965 
L 191.775825 273.82317 
L 201.224275 273.717922 
L 210.672725 273.529946 
L 220.121175 273.188719 
L 229.569625 272.572303 
L 239.018075 271.622466 
L 248.466525 270.260788 
L 257.914975 268.255955 
L 267.363425 265.530087 
L 276.811875 262.091077 
L 286.260325 257.62076 
L 295.708775 252.249596 
L 305.157225 246.218769 
L 314.605675 239.21639 
L 324.054125 231.500423 
L 333.502575 223.849058 
L 342.951025 216.104469 
L 352.399475 206.943557 
L 361.847925 196.832451 
L 371.296375 186.258179 
L 380.744825 174.958385 
L 390.193275 162.704986 
L 399.641725 150.940413 
L 409.090175 139.999073 
L 418.538625 130.567818 
L 427.987075 122.698061 
L 437.435525 114.480975 
L 446.883975 107.874916 
L 456.332425 104.133531 
L 465.780875 100.450467 
L 475.229325 97.617556 
L 484.677775 98.156539 
L 494.126225 99.283315 
L 503.574675 100.350692 
L 513.023125 101.048938 
L 522.471575 101.257999 
L 531.920025 103.857714 
L 541.368475 108.254097 
L 550.816925 112.833431 
L 560.265375 117.350675 
L 569.713825 123.24494 
L 579.162275 130.322688 
L 588.610725 136.691781 
L 598.059175 142.883487 
L 607.507625 149.320593 
L 616.956075 156.810811 
L 626.404525 166.144982 
L 635.852975 176.232043 
L 645.301425 186.188462 
L 654.749875 196.040082 
L 664.198325 205.767432 
L 673.646775 214.981551 
L 683.095225 223.441165 
L 692.543675 231.5801 
L 701.992125 239.130343 
L 711.440575 245.822899 
L 720.889025 251.156737 
L 730.337475 255.480173 
L 739.785925 259.135421 
L 749.234375 262.074658 
L 758.682825 264.481282 
L 768.131275 266.34354 
L 777.579725 267.887272 
L 787.028175 269.201127 
L 796.476625 270.281066 
L 805.925075 271.187296 
L 815.373525 271.900347 
L 824.821975 272.453865 
L 834.270425 272.919542 
L 843.718875 273.27997 
L 853.167325 273.524204 
L 862.615775 273.690286 
L 872.064225 273.797239 
L 881.512675 273.870186 
L 890.961125 273.912447 
L 900.409575 273.940621 
L 909.858025 273.962335 
L 919.306475 273.972653 
L 928.754925 273.978485 
L 938.203375 273.983779 
L 947.651825 273.986561 
L 957.100275 273.987817 
L 966.548725 273.988265 
L 975.997175 273.989342 
L 985.445625 273.98997 
" clip-path="url(#pf5d1cc05e1)" style="fill: none; stroke: #5cb85c; stroke-linecap: square"/>
   </g>
   <g id="line2d_14">
    <path d="M 40.600625 273.988265 
L 50.049075 273.988983 
L 59.497525 273.989791 
L 68.945975 273.989701 
L 78.394425 273.989701 
L 87.842875 273.989432 
L 97.291325 273.988535 
L 106.739775 273.987907 
L 116.188225 273.987368 
L 125.636675 273.98665 
L 135.085125 273.985394 
L 144.533575 273.98342 
L 153.982025 273.981716 
L 163.430475 273.976691 
L 172.878925 273.964578 
L 182.327375 273.944479 
L 191.775825 273.910384 
L 201.224275 273.855112 
L 210.672725 273.756324 
L 220.121175 273.567631 
L 229.569625 273.227301 
L 239.018075 272.722325 
L 248.466525 271.990701 
L 257.914975 270.903404 
L 267.363425 269.449667 
L 276.811875 267.567041 
L 286.260325 265.136191 
L 295.708775 262.305791 
L 305.157225 259.108862 
L 314.605675 255.366221 
L 324.054125 251.340316 
L 333.502575 247.42881 
L 342.951025 243.439782 
L 352.399475 238.741741 
L 361.847925 233.531186 
L 371.296375 228.110045 
L 380.744825 222.447811 
L 390.193275 216.205679 
L 399.641725 210.179517 
L 409.090175 204.610688 
L 418.538625 199.834226 
L 427.987075 196.039275 
L 437.435525 192.112427 
L 446.883975 188.877095 
L 456.332425 186.940723 
L 465.780875 185.134364 
L 475.229325 183.840608 
L 484.677775 184.065281 
L 494.126225 184.69399 
L 503.574675 185.235305 
L 513.023125 185.652082 
L 522.471575 185.935615 
L 531.920025 187.120892 
L 541.368475 189.186918 
L 550.816925 191.426922 
L 560.265375 193.414258 
L 569.713825 196.184002 
L 579.162275 199.723235 
L 588.610725 203.027566 
L 598.059175 206.18358 
L 607.507625 209.428243 
L 616.956075 213.373665 
L 626.404525 218.073411 
L 635.852975 223.175308 
L 645.301425 228.222651 
L 654.749875 233.410057 
L 664.198325 238.524156 
L 673.646775 243.261856 
L 683.095225 247.793097 
L 692.543675 252.114918 
L 701.992125 256.124224 
L 711.440575 259.644615 
L 720.889025 262.510904 
L 730.337475 264.880562 
L 739.785925 266.781133 
L 749.234375 268.321455 
L 758.682825 269.545225 
L 768.131275 270.500984 
L 777.579725 271.302325 
L 787.028175 271.939378 
L 796.476625 272.429011 
L 805.925075 272.814204 
L 815.373525 273.142331 
L 824.821975 273.401908 
L 834.270425 273.5941 
L 843.718875 273.733983 
L 853.167325 273.825862 
L 862.615775 273.882299 
L 872.064225 273.920702 
L 881.512675 273.947889 
L 890.961125 273.965565 
L 900.409575 273.976511 
L 909.858025 273.980908 
L 919.306475 273.983869 
L 928.754925 273.987099 
L 938.203375 273.988086 
L 947.651825 273.989163 
L 957.100275 273.989432 
L 966.548725 273.989522 
L 975.997175 273.989701 
L 985.445625 273.99006 
" clip-path="url(#pf5d1cc05e1)" style="fill: none; stroke: #5cb85c; stroke-linecap: square"/>
   </g>
   <g id="line2d_15">
    <path d="M 40.600625 273.985035 
L 50.049075 273.985574 
L 59.497525 273.987458 
L 68.945975 273.989163 
L 78.394425 273.989252 
L 87.842875 273.988445 
L 97.291325 273.987548 
L 106.739775 273.985753 
L 116.188225 273.984497 
L 125.636675 273.981895 
L 135.085125 273.976691 
L 144.533575 273.969244 
L 153.982025 273.960002 
L 163.430475 273.946812 
L 172.878925 273.920164 
L 182.327375 273.879966 
L 191.775825 273.799034 
L 201.224275 273.668483 
L 210.672725 273.457448 
L 220.121175 273.025687 
L 229.569625 272.268581 
L 239.018075 271.135076 
L 248.466525 269.460883 
L 257.914975 266.969467 
L 267.363425 263.618748 
L 276.811875 259.339637 
L 286.260325 253.870851 
L 295.708775 247.253038 
L 305.157225 239.772062 
L 314.605675 231.30186 
L 324.054125 221.890255 
L 333.502575 212.443837 
L 342.951025 202.799124 
L 352.399475 191.469183 
L 361.847925 178.696181 
L 371.296375 165.490163 
L 380.744825 151.304071 
L 390.193275 135.604664 
L 399.641725 120.932348 
L 409.090175 107.217585 
L 418.538625 95.046823 
L 427.987075 84.825264 
L 437.435525 74.461579 
L 446.883975 66.171546 
L 456.332425 61.074584 
L 465.780875 56.057388 
L 475.229325 52.452566 
L 484.677775 52.612906 
L 494.126225 53.299308 
L 503.574675 53.581136 
L 513.023125 53.325956 
L 522.471575 53.405453 
L 531.920025 56.661601 
L 541.368475 61.599569 
L 550.816925 66.220446 
L 560.265375 70.934459 
L 569.713825 78.058146 
L 579.162275 86.497124 
L 588.610725 93.995416 
L 598.059175 101.48034 
L 607.507625 109.485314 
L 616.956075 119.265602 
L 626.404525 131.472972 
L 635.852975 144.709855 
L 645.301425 157.767108 
L 654.749875 170.899461 
L 664.198325 183.732847 
L 673.646775 195.797733 
L 683.095225 207.205826 
L 692.543675 218.044699 
L 701.992125 228.106725 
L 711.440575 237.077597 
L 720.889025 244.245161 
L 730.337475 250.053558 
L 739.785925 254.838095 
L 749.234375 258.650992 
L 758.682825 261.682287 
L 768.131275 264.158359 
L 777.579725 266.249598 
L 787.028175 267.935276 
L 796.476625 269.339843 
L 805.925075 270.533823 
L 815.373525 271.528434 
L 824.821975 272.263557 
L 834.270425 272.83493 
L 843.718875 273.252245 
L 853.167325 273.513257 
L 862.615775 273.691632 
L 872.064225 273.799931 
L 881.512675 273.872609 
L 890.961125 273.916575 
L 900.409575 273.941967 
L 909.858025 273.960361 
L 919.306475 273.970859 
L 928.754925 273.977498 
L 938.203375 273.983241 
L 947.651825 273.986471 
L 957.100275 273.987817 
L 966.548725 273.988894 
L 975.997175 273.989701 
L 985.445625 273.98997 
" clip-path="url(#pf5d1cc05e1)" style="fill: none; stroke: #5cb85c; stroke-linecap: square"/>
   </g>
   <g id="line2d_16">
    <path d="M 40.600625 273.987368 
L 50.049075 273.988086 
L 59.497525 273.989163 
L 68.945975 273.989073 
L 78.394425 273.989252 
L 87.842875 273.989073 
L 97.291325 273.988445 
L 106.739775 273.986561 
L 116.188225 273.984407 
L 125.636675 273.982972 
L 135.085125 273.978037 
L 144.533575 273.972653 
L 153.982025 273.967629 
L 163.430475 273.957938 
L 172.878925 273.939724 
L 182.327375 273.910653 
L 191.775825 273.860137 
L 201.224275 273.767899 
L 210.672725 273.616262 
L 220.121175 273.337395 
L 229.569625 272.842557 
L 239.018075 272.120624 
L 248.466525 271.056835 
L 257.914975 269.494709 
L 267.363425 267.370452 
L 276.811875 264.594337 
L 286.260325 261.163403 
L 295.708775 257.126371 
L 305.157225 252.515095 
L 314.605675 247.236528 
L 324.054125 241.472724 
L 333.502575 235.83678 
L 342.951025 230.106892 
L 352.399475 223.307474 
L 361.847925 215.866785 
L 371.296375 208.231571 
L 380.744825 199.955804 
L 390.193275 190.835539 
L 399.641725 182.39064 
L 409.090175 174.653407 
L 418.538625 167.614152 
L 427.987075 161.782426 
L 437.435525 156.143071 
L 446.883975 151.555393 
L 456.332425 148.625129 
L 465.780875 145.982167 
L 475.229325 144.094606 
L 484.677775 144.359387 
L 494.126225 145.124747 
L 503.574675 145.576517 
L 513.023125 145.662743 
L 522.471575 145.496661 
L 531.920025 146.949052 
L 541.368475 149.578017 
L 550.816925 152.286209 
L 560.265375 155.058915 
L 569.713825 158.900703 
L 579.162275 163.504084 
L 588.610725 167.799166 
L 598.059175 172.097569 
L 607.507625 176.493593 
L 616.956075 181.954393 
L 626.404525 188.889208 
L 635.852975 196.42375 
L 645.301425 203.835816 
L 654.749875 211.517867 
L 664.198325 219.27771 
L 673.646775 226.456489 
L 683.095225 233.256805 
L 692.543675 239.719214 
L 701.992125 245.883822 
L 711.440575 251.454626 
L 720.889025 255.815298 
L 730.337475 259.464266 
L 739.785925 262.419922 
L 749.234375 264.735116 
L 758.682825 266.725503 
L 768.131275 268.293461 
L 777.579725 269.541726 
L 787.028175 270.559575 
L 796.476625 271.359301 
L 805.925075 272.011248 
L 815.373525 272.546731 
L 824.821975 272.959649 
L 834.270425 273.268037 
L 843.718875 273.506438 
L 853.167325 273.680955 
L 862.615775 273.794099 
L 872.064225 273.865162 
L 881.512675 273.907692 
L 890.961125 273.936314 
L 900.409575 273.957041 
L 909.858025 273.97032 
L 919.306475 273.978844 
L 928.754925 273.98342 
L 938.203375 273.985125 
L 947.651825 273.98692 
L 957.100275 273.989073 
L 966.548725 273.989252 
L 975.997175 273.989611 
L 985.445625 273.99006 
" clip-path="url(#pf5d1cc05e1)" style="fill: none; stroke: #5cb85c; stroke-linecap: square"/>
   </g>
   <g id="line2d_17">
    <path d="M 40.600625 273.986471 
L 50.049075 273.987907 
L 59.497525 273.989342 
L 68.945975 273.989522 
L 78.394425 273.989611 
L 87.842875 273.989432 
L 97.291325 273.988804 
L 106.739775 273.988265 
L 116.188225 273.987279 
L 125.636675 273.985753 
L 135.085125 273.98342 
L 144.533575 273.980729 
L 153.982025 273.977319 
L 163.430475 273.970859 
L 172.878925 273.957041 
L 182.327375 273.932905 
L 191.775825 273.890644 
L 201.224275 273.827656 
L 210.672725 273.713166 
L 220.121175 273.490198 
L 229.569625 273.076831 
L 239.018075 272.457993 
L 248.466525 271.566208 
L 257.914975 270.25361 
L 267.363425 268.466183 
L 276.811875 266.109087 
L 286.260325 263.060116 
L 295.708775 259.343046 
L 305.157225 255.144509 
L 314.605675 250.409411 
L 324.054125 245.239591 
L 333.502575 240.071477 
L 342.951025 234.801703 
L 352.399475 228.478549 
L 361.847925 221.526776 
L 371.296375 214.471011 
L 380.744825 206.727857 
L 390.193275 198.087445 
L 399.641725 190.022803 
L 409.090175 182.395216 
L 418.538625 175.621638 
L 427.987075 170.114001 
L 437.435525 164.271957 
L 446.883975 159.349511 
L 456.332425 156.547465 
L 465.780875 153.770453 
L 475.229325 151.496443 
L 484.677775 151.645926 
L 494.126225 151.927575 
L 503.574675 151.866113 
L 513.023125 151.840183 
L 522.471575 151.61847 
L 531.920025 152.736543 
L 541.368475 155.150256 
L 550.816925 157.485459 
L 560.265375 159.520529 
L 569.713825 162.809965 
L 579.162275 167.248519 
L 588.610725 171.340912 
L 598.059175 175.009798 
L 607.507625 178.903179 
L 616.956075 184.042312 
L 626.404525 190.646308 
L 635.852975 197.851556 
L 645.301425 205.231051 
L 654.749875 212.727639 
L 664.198325 220.060747 
L 673.646775 227.124228 
L 683.095225 233.810503 
L 692.543675 240.256761 
L 701.992125 246.356318 
L 711.440575 251.786163 
L 720.889025 256.123148 
L 730.337475 259.691003 
L 739.785925 262.608257 
L 749.234375 264.933949 
L 758.682825 266.815408 
L 768.131275 268.327198 
L 777.579725 269.602111 
L 787.028175 270.562446 
L 796.476625 271.31381 
L 805.925075 271.990162 
L 815.373525 272.54404 
L 824.821975 272.942242 
L 834.270425 273.260948 
L 843.718875 273.519448 
L 853.167325 273.695221 
L 862.615775 273.809532 
L 872.064225 273.876198 
L 881.512675 273.917472 
L 890.961125 273.947889 
L 900.409575 273.965027 
L 909.858025 273.97373 
L 919.306475 273.979831 
L 928.754925 273.983869 
L 938.203375 273.98665 
L 947.651825 273.988355 
L 957.100275 273.989252 
L 966.548725 273.989522 
L 975.997175 273.989611 
L 985.445625 273.98997 
" clip-path="url(#pf5d1cc05e1)" style="fill: none; stroke: #5cb85c; stroke-linecap: square"/>
   </g>
   <g id="line2d_18">
    <path d="M 40.600625 273.984676 
L 50.049075 273.985484 
L 59.497525 273.987368 
L 68.945975 273.988535 
L 78.394425 273.988355 
L 87.842875 273.987996 
L 97.291325 273.987368 
L 106.739775 273.986022 
L 116.188225 273.983779 
L 125.636675 273.9801 
L 135.085125 273.976332 
L 144.533575 273.969154 
L 153.982025 273.959015 
L 163.430475 273.946902 
L 172.878925 273.921779 
L 182.327375 273.879249 
L 191.775825 273.803161 
L 201.224275 273.682839 
L 210.672725 273.47315 
L 220.121175 273.067769 
L 229.569625 272.348078 
L 239.018075 271.283123 
L 248.466525 269.787574 
L 257.914975 267.599432 
L 267.363425 264.70129 
L 276.811875 261.002973 
L 286.260325 256.272003 
L 295.708775 250.637852 
L 305.157225 244.40891 
L 314.605675 237.39083 
L 324.054125 229.685091 
L 333.502575 222.004386 
L 342.951025 213.939296 
L 352.399475 204.486058 
L 361.847925 194.11358 
L 371.296375 183.527645 
L 380.744825 172.074061 
L 390.193275 159.378762 
L 399.641725 147.596602 
L 409.090175 136.588328 
L 418.538625 126.74909 
L 427.987075 118.619038 
L 437.435525 110.571893 
L 446.883975 104.086156 
L 456.332425 99.969986 
L 465.780875 95.734391 
L 475.229325 92.599194 
L 484.677775 92.793001 
L 494.126225 93.482275 
L 503.574675 93.582857 
L 513.023125 93.363747 
L 522.471575 93.26451 
L 531.920025 95.503527 
L 541.368475 99.465637 
L 550.816925 103.251526 
L 560.265375 107.056078 
L 569.713825 112.848684 
L 579.162275 119.650615 
L 588.610725 125.68252 
L 598.059175 132.015992 
L 607.507625 138.875078 
L 616.956075 146.906073 
L 626.404525 157.112558 
L 635.852975 168.054885 
L 645.301425 178.734404 
L 654.749875 189.633752 
L 664.198325 200.226597 
L 673.646775 210.274447 
L 683.095225 219.533339 
L 692.543675 228.329963 
L 701.992125 236.671768 
L 711.440575 243.877913 
L 720.889025 249.595777 
L 730.337475 254.267888 
L 739.785925 258.08536 
L 749.234375 261.059769 
L 758.682825 263.448897 
L 768.131275 265.478046 
L 777.579725 267.231915 
L 787.028175 268.62419 
L 796.476625 269.803276 
L 805.925075 270.868321 
L 815.373525 271.720806 
L 824.821975 272.37697 
L 834.270425 272.906801 
L 843.718875 273.297377 
L 853.167325 273.546007 
L 862.615775 273.708859 
L 872.064225 273.815274 
L 881.512675 273.877813 
L 890.961125 273.914511 
L 900.409575 273.94421 
L 909.858025 273.961707 
L 919.306475 273.972563 
L 928.754925 273.979921 
L 938.203375 273.984766 
L 947.651825 273.987817 
L 957.100275 273.987727 
L 966.548725 273.988624 
L 975.997175 273.989791 
L 985.445625 273.99006 
" clip-path="url(#pf5d1cc05e1)" style="fill: none; stroke: #5cb85c; stroke-linecap: square"/>
   </g>
   <g id="line2d_19">
    <path d="M 40.600625 273.988265 
L 50.049075 273.988624 
L 59.497525 273.988983 
L 68.945975 273.989342 
L 78.394425 273.989342 
L 87.842875 273.988535 
L 97.291325 273.988535 
L 106.739775 273.987637 
L 116.188225 273.985035 
L 125.636675 273.983061 
L 135.085125 273.979024 
L 144.533575 273.972294 
L 153.982025 273.964129 
L 163.430475 273.954349 
L 172.878925 273.934161 
L 182.327375 273.899437 
L 191.775825 273.839949 
L 201.224275 273.747352 
L 210.672725 273.584051 
L 220.121175 273.261935 
L 229.569625 272.706084 
L 239.018075 271.877467 
L 248.466525 270.659619 
L 257.914975 268.862771 
L 267.363425 266.461799 
L 276.811875 263.277432 
L 286.260325 259.309579 
L 295.708775 254.461426 
L 305.157225 248.917181 
L 314.605675 242.722784 
L 324.054125 235.950911 
L 333.502575 229.161721 
L 342.951025 222.05562 
L 352.399475 213.862401 
L 361.847925 204.774527 
L 371.296375 195.263237 
L 380.744825 184.991341 
L 390.193275 173.790874 
L 399.641725 163.515299 
L 409.090175 153.841067 
L 418.538625 144.746284 
L 427.987075 137.290521 
L 437.435525 130.115421 
L 446.883975 124.39639 
L 456.332425 120.862362 
L 465.780875 117.277727 
L 475.229325 114.724222 
L 484.677775 115.040864 
L 494.126225 115.712013 
L 503.574675 116.052253 
L 513.023125 116.243548 
L 522.471575 116.270825 
L 531.920025 118.201993 
L 541.368475 121.656614 
L 550.816925 125.284406 
L 560.265375 129.12099 
L 569.713825 134.220554 
L 579.162275 140.122446 
L 588.610725 145.773285 
L 598.059175 151.262259 
L 607.507625 157.097754 
L 616.956075 164.139522 
L 626.404525 172.647588 
L 635.852975 181.964353 
L 645.301425 191.256712 
L 654.749875 200.462755 
L 664.198325 209.613796 
L 673.646775 218.27646 
L 683.095225 226.16165 
L 692.543675 233.783585 
L 701.992125 241.082956 
L 711.440575 247.489286 
L 720.889025 252.563098 
L 730.337475 256.74082 
L 739.785925 260.109663 
L 749.234375 262.746793 
L 758.682825 264.968583 
L 768.131275 266.766508 
L 777.579725 268.258827 
L 787.028175 269.502695 
L 796.476625 270.487794 
L 805.925075 271.318386 
L 815.373525 271.982356 
L 824.821975 272.507342 
L 834.270425 272.943229 
L 843.718875 273.281047 
L 853.167325 273.526806 
L 862.615775 273.692081 
L 872.064225 273.8002 
L 881.512675 273.86902 
L 890.961125 273.913703 
L 900.409575 273.938737 
L 909.858025 273.960809 
L 919.306475 273.97364 
L 928.754925 273.980549 
L 938.203375 273.985484 
L 947.651825 273.987996 
L 957.100275 273.988714 
L 966.548725 273.988714 
L 975.997175 273.988894 
L 985.445625 273.989611 
" clip-path="url(#pf5d1cc05e1)" style="fill: none; stroke: #5cb85c; stroke-linecap: square"/>
   </g>
   <g id="line2d_20">
    <path d="M 40.600625 273.99006 
L 985.445625 273.99006 
" clip-path="url(#pf5d1cc05e1)" style="fill: none; stroke: #dedede; stroke-width: 2; stroke-linecap: square"/>
   </g>
   <g id="text_17">
    <!-- FastQC: Per Sequence GC Content -->
    <g transform="translate(376.386875 19.3575)scale(0.16 -0.16)">
     <defs>
      <path id="DejaVuSans-46" d="M 628 4666 
L 3309 4666 
L 3309 4134 
L 1259 4134 
L 1259 2759 
L 3109 2759 
L 3109 2228 
L 1259 2228 
L 1259 0 
L 628 0 
L 628 4666 
z
" transform="scale(0.015625)"/>
      <path id="DejaVuSans-61" d="M 2194 1759 
Q 1497 1759 1228 1600 
Q 959 1441 959 1056 
Q 959 750 1161 570 
Q 1363 391 1709 391 
Q 2188 391 2477 730 
Q 2766 1069 2766 1631 
L 2766 1759 
L 2194 1759 
z
M 3341 1997 
L 3341 0 
L 2766 0 
L 2766 531 
Q 2569 213 2275 61 
Q 1981 -91 1556 -91 
Q 1019 -91 701 211 
Q 384 513 384 1019 
Q 384 1609 779 1909 
Q 1175 2209 1959 2209 
L 2766 2209 
L 2766 2266 
Q 2766 2663 2505 2880 
Q 2244 3097 1772 3097 
Q 1472 3097 1187 3025 
Q 903 2953 641 2809 
L 641 3341 
Q 956 3463 1253 3523 
Q 1550 3584 1831 3584 
Q 2591 3584 2966 3190 
Q 3341 2797 3341 1997 
z
" transform="scale(0.015625)"/>
      <path id="DejaVuSans-73" d="M 2834 3397 
L 2834 2853 
Q 2591 2978 2328 3040 
Q 2066 3103 1784 3103 
Q 1356 3103 1142 2972 
Q 928 2841 928 2578 
Q 928 2378 1081 2264 
Q 1234 2150 1697 2047 
L 1894 2003 
Q 2506 1872 2764 1633 
Q 3022 1394 3022 966 
Q 3022 478 2636 193 
Q 2250 -91 1575 -91 
Q 1294 -91 989 -36 
Q 684 19 347 128 
L 347 722 
Q 666 556 975 473 
Q 1284 391 1588 391 
Q 1994 391 2212 530 
Q 2431 669 2431 922 
Q 2431 1156 2273 1281 
Q 2116 1406 1581 1522 
L 1381 1569 
Q 847 1681 609 1914 
Q 372 2147 372 2553 
Q 372 3047 722 3315 
Q 1072 3584 1716 3584 
Q 2034 3584 2315 3537 
Q 2597 3491 2834 3397 
z
" transform="scale(0.015625)"/>
      <path id="DejaVuSans-51" d="M 2522 4238 
Q 1834 4238 1429 3725 
Q 1025 3213 1025 2328 
Q 1025 1447 1429 934 
Q 1834 422 2522 422 
Q 3209 422 3611 934 
Q 4013 1447 4013 2328 
Q 4013 3213 3611 3725 
Q 3209 4238 2522 4238 
z
M 3406 84 
L 4238 -825 
L 3475 -825 
L 2784 -78 
Q 2681 -84 2626 -87 
Q 2572 -91 2522 -91 
Q 1538 -91 948 567 
Q 359 1225 359 2328 
Q 359 3434 948 4092 
Q 1538 4750 2522 4750 
Q 3503 4750 4090 4092 
Q 4678 3434 4678 2328 
Q 4678 1516 4351 937 
Q 4025 359 3406 84 
z
" transform="scale(0.015625)"/>
      <path id="DejaVuSans-3a" d="M 750 794 
L 1409 794 
L 1409 0 
L 750 0 
L 750 794 
z
M 750 3309 
L 1409 3309 
L 1409 2516 
L 750 2516 
L 750 3309 
z
" transform="scale(0.015625)"/>
      <path id="DejaVuSans-50" d="M 1259 4147 
L 1259 2394 
L 2053 2394 
Q 2494 2394 2734 2622 
Q 2975 2850 2975 3272 
Q 2975 3691 2734 3919 
Q 2494 4147 2053 4147 
L 1259 4147 
z
M 628 4666 
L 2053 4666 
Q 2838 4666 3239 4311 
Q 3641 3956 3641 3272 
Q 3641 2581 3239 2228 
Q 2838 1875 2053 1875 
L 1259 1875 
L 1259 0 
L 628 0 
L 628 4666 
z
" transform="scale(0.015625)"/>
      <path id="DejaVuSans-72" d="M 2631 2963 
Q 2534 3019 2420 3045 
Q 2306 3072 2169 3072 
Q 1681 3072 1420 2755 
Q 1159 2438 1159 1844 
L 1159 0 
L 581 0 
L 581 3500 
L 1159 3500 
L 1159 2956 
Q 1341 3275 1631 3429 
Q 1922 3584 2338 3584 
Q 2397 3584 2469 3576 
Q 2541 3569 2628 3553 
L 2631 2963 
z
" transform="scale(0.015625)"/>
      <path id="DejaVuSans-53" d="M 3425 4513 
L 3425 3897 
Q 3066 4069 2747 4153 
Q 2428 4238 2131 4238 
Q 1616 4238 1336 4038 
Q 1056 3838 1056 3469 
Q 1056 3159 1242 3001 
Q 1428 2844 1947 2747 
L 2328 2669 
Q 3034 2534 3370 2195 
Q 3706 1856 3706 1288 
Q 3706 609 3251 259 
Q 2797 -91 1919 -91 
Q 1588 -91 1214 -16 
Q 841 59 441 206 
L 441 856 
Q 825 641 1194 531 
Q 1563 422 1919 422 
Q 2459 422 2753 634 
Q 3047 847 3047 1241 
Q 3047 1584 2836 1778 
Q 2625 1972 2144 2069 
L 1759 2144 
Q 1053 2284 737 2584 
Q 422 2884 422 3419 
Q 422 4038 858 4394 
Q 1294 4750 2059 4750 
Q 2388 4750 2728 4690 
Q 3069 4631 3425 4513 
z
" transform="scale(0.015625)"/>
      <path id="DejaVuSans-71" d="M 947 1747 
Q 947 1113 1208 752 
Q 1469 391 1925 391 
Q 2381 391 2643 752 
Q 2906 1113 2906 1747 
Q 2906 2381 2643 2742 
Q 2381 3103 1925 3103 
Q 1469 3103 1208 2742 
Q 947 2381 947 1747 
z
M 2906 525 
Q 2725 213 2448 61 
Q 2172 -91 1784 -91 
Q 1150 -91 751 415 
Q 353 922 353 1747 
Q 353 2572 751 3078 
Q 1150 3584 1784 3584 
Q 2172 3584 2448 3432 
Q 2725 3281 2906 2969 
L 2906 3500 
L 3481 3500 
L 3481 -1331 
L 2906 -1331 
L 2906 525 
z
" transform="scale(0.015625)"/>
      <path id="DejaVuSans-63" d="M 3122 3366 
L 3122 2828 
Q 2878 2963 2633 3030 
Q 2388 3097 2138 3097 
Q 1578 3097 1268 2742 
Q 959 2388 959 1747 
Q 959 1106 1268 751 
Q 1578 397 2138 397 
Q 2388 397 2633 464 
Q 2878 531 3122 666 
L 3122 134 
Q 2881 22 2623 -34 
Q 2366 -91 2075 -91 
Q 1284 -91 818 406 
Q 353 903 353 1747 
Q 353 2603 823 3093 
Q 1294 3584 2113 3584 
Q 2378 3584 2631 3529 
Q 2884 3475 3122 3366 
z
" transform="scale(0.015625)"/>
     </defs>
     <use xlink:href="#DejaVuSans-46"/>
     <use xlink:href="#DejaVuSans-61" x="48.394531"/>
     <use xlink:href="#DejaVuSans-73" x="109.673828"/>
     <use xlink:href="#DejaVuSans-74" x="161.773438"/>
     <use xlink:href="#DejaVuSans-51" x="200.982422"/>
     <use xlink:href="#DejaVuSans-43" x="279.693359"/>
     <use xlink:href="#DejaVuSans-3a" x="349.517578"/>
     <use xlink:href="#DejaVuSans-20" x="383.208984"/>
     <use xlink:href="#DejaVuSans-50" x="414.996094"/>
     <use xlink:href="#DejaVuSans-65" x="471.673828"/>
     <use xlink:href="#DejaVuSans-72" x="533.197266"/>
     <use xlink:href="#DejaVuSans-20" x="574.310547"/>
     <use xlink:href="#DejaVuSans-53" x="606.097656"/>
     <use xlink:href="#DejaVuSans-65" x="669.574219"/>
     <use xlink:href="#DejaVuSans-71" x="731.097656"/>
     <use xlink:href="#DejaVuSans-75" x="794.574219"/>
     <use xlink:href="#DejaVuSans-65" x="857.953125"/>
     <use xlink:href="#DejaVuSans-6e" x="919.476562"/>
     <use xlink:href="#DejaVuSans-63" x="982.855469"/>
     <use xlink:href="#DejaVuSans-65" x="1037.835938"/>
     <use xlink:href="#DejaVuSans-20" x="1099.359375"/>
     <use xlink:href="#DejaVuSans-47" x="1131.146484"/>
     <use xlink:href="#DejaVuSans-43" x="1208.636719"/>
     <use xlink:href="#DejaVuSans-20" x="1278.460938"/>
     <use xlink:href="#DejaVuSans-43" x="1310.248047"/>
     <use xlink:href="#DejaVuSans-6f" x="1380.072266"/>
     <use xlink:href="#DejaVuSans-6e" x="1441.253906"/>
     <use xlink:href="#DejaVuSans-74" x="1504.632812"/>
     <use xlink:href="#DejaVuSans-65" x="1543.841797"/>
     <use xlink:href="#DejaVuSans-6e" x="1605.365234"/>
     <use xlink:href="#DejaVuSans-74" x="1668.744141"/>
    </g>
   </g>
   <g id="legend_1">
    <g id="line2d_21">
     <path d="M 47.800625 292.192894 
L 55.800625 292.192894 
L 63.800625 292.192894 
" style="fill: none; stroke: #5cb85c; stroke-linecap: square"/>
    </g>
    <g id="text_18">
     <!-- SRR2155413 -->
     <g transform="translate(70.200625 294.992894)scale(0.08 -0.08)">
      <defs>
       <path id="DejaVuSans-52" d="M 2841 2188 
Q 3044 2119 3236 1894 
Q 3428 1669 3622 1275 
L 4263 0 
L 3584 0 
L 2988 1197 
Q 2756 1666 2539 1819 
Q 2322 1972 1947 1972 
L 1259 1972 
L 1259 0 
L 628 0 
L 628 4666 
L 2053 4666 
Q 2853 4666 3247 4331 
Q 3641 3997 3641 3322 
Q 3641 2881 3436 2590 
Q 3231 2300 2841 2188 
z
M 1259 4147 
L 1259 2491 
L 2053 2491 
Q 2509 2491 2742 2702 
Q 2975 2913 2975 3322 
Q 2975 3731 2742 3939 
Q 2509 4147 2053 4147 
L 1259 4147 
z
" transform="scale(0.015625)"/>
       <path id="DejaVuSans-35" d="M 691 4666 
L 3169 4666 
L 3169 4134 
L 1269 4134 
L 1269 2991 
Q 1406 3038 1543 3061 
Q 1681 3084 1819 3084 
Q 2600 3084 3056 2656 
Q 3513 2228 3513 1497 
Q 3513 744 3044 326 
Q 2575 -91 1722 -91 
Q 1428 -91 1123 -41 
Q 819 9 494 109 
L 494 744 
Q 775 591 1075 516 
Q 1375 441 1709 441 
Q 2250 441 2565 725 
Q 2881 1009 2881 1497 
Q 2881 1984 2565 2268 
Q 2250 2553 1709 2553 
Q 1456 2553 1204 2497 
Q 953 2441 691 2322 
L 691 4666 
z
" transform="scale(0.015625)"/>
       <path id="DejaVuSans-33" d="M 2597 2516 
Q 3050 2419 3304 2112 
Q 3559 1806 3559 1356 
Q 3559 666 3084 287 
Q 2609 -91 1734 -91 
Q 1441 -91 1130 -33 
Q 819 25 488 141 
L 488 750 
Q 750 597 1062 519 
Q 1375 441 1716 441 
Q 2309 441 2620 675 
Q 2931 909 2931 1356 
Q 2931 1769 2642 2001 
Q 2353 2234 1838 2234 
L 1294 2234 
L 1294 2753 
L 1863 2753 
Q 2328 2753 2575 2939 
Q 2822 3125 2822 3475 
Q 2822 3834 2567 4026 
Q 2313 4219 1838 4219 
Q 1578 4219 1281 4162 
Q 984 4106 628 3988 
L 628 4550 
Q 988 4650 1302 4700 
Q 1616 4750 1894 4750 
Q 2613 4750 3031 4423 
Q 3450 4097 3450 3541 
Q 3450 3153 3228 2886 
Q 3006 2619 2597 2516 
z
" transform="scale(0.015625)"/>
      </defs>
      <use xlink:href="#DejaVuSans-53"/>
      <use xlink:href="#DejaVuSans-52" x="63.476562"/>
      <use xlink:href="#DejaVuSans-52" x="132.958984"/>
      <use xlink:href="#DejaVuSans-32" x="202.441406"/>
      <use xlink:href="#DejaVuSans-31" x="266.064453"/>
      <use xlink:href="#DejaVuSans-35" x="329.6875"/>
      <use xlink:href="#DejaVuSans-35" x="393.310547"/>
      <use xlink:href="#DejaVuSans-34" x="456.933594"/>
      <use xlink:href="#DejaVuSans-31" x="520.556641"/>
      <use xlink:href="#DejaVuSans-33" x="584.179688"/>
     </g>
    </g>
    <g id="line2d_22">
     <path d="M 47.800625 303.935394 
L 55.800625 303.935394 
L 63.800625 303.935394 
" style="fill: none; stroke: #5cb85c; stroke-linecap: square"/>
    </g>
    <g id="text_19">
     <!-- SRR2155414 -->
     <g transform="translate(70.200625 306.735394)scale(0.08 -0.08)">
      <use xlink:href="#DejaVuSans-53"/>
      <use xlink:href="#DejaVuSans-52" x="63.476562"/>
      <use xlink:href="#DejaVuSans-52" x="132.958984"/>
      <use xlink:href="#DejaVuSans-32" x="202.441406"/>
      <use xlink:href="#DejaVuSans-31" x="266.064453"/>
      <use xlink:href="#DejaVuSans-35" x="329.6875"/>
      <use xlink:href="#DejaVuSans-35" x="393.310547"/>
      <use xlink:href="#DejaVuSans-34" x="456.933594"/>
      <use xlink:href="#DejaVuSans-31" x="520.556641"/>
      <use xlink:href="#DejaVuSans-34" x="584.179688"/>
     </g>
    </g>
    <g id="line2d_23">
     <path d="M 47.800625 315.677894 
L 55.800625 315.677894 
L 63.800625 315.677894 
" style="fill: none; stroke: #5cb85c; stroke-linecap: square"/>
    </g>
    <g id="text_20">
     <!-- SRR2155415 -->
     <g transform="translate(70.200625 318.477894)scale(0.08 -0.08)">
      <use xlink:href="#DejaVuSans-53"/>
      <use xlink:href="#DejaVuSans-52" x="63.476562"/>
      <use xlink:href="#DejaVuSans-52" x="132.958984"/>
      <use xlink:href="#DejaVuSans-32" x="202.441406"/>
      <use xlink:href="#DejaVuSans-31" x="266.064453"/>
      <use xlink:href="#DejaVuSans-35" x="329.6875"/>
      <use xlink:href="#DejaVuSans-35" x="393.310547"/>
      <use xlink:href="#DejaVuSans-34" x="456.933594"/>
      <use xlink:href="#DejaVuSans-31" x="520.556641"/>
      <use xlink:href="#DejaVuSans-35" x="584.179688"/>
     </g>
    </g>
    <g id="line2d_24">
     <path d="M 261.855313 292.192894 
L 269.855313 292.192894 
L 277.855313 292.192894 
" style="fill: none; stroke: #5cb85c; stroke-linecap: square"/>
    </g>
    <g id="text_21">
     <!-- SRR2155416 -->
     <g transform="translate(284.255313 294.992894)scale(0.08 -0.08)">
      <use xlink:href="#DejaVuSans-53"/>
      <use xlink:href="#DejaVuSans-52" x="63.476562"/>
      <use xlink:href="#DejaVuSans-52" x="132.958984"/>
      <use xlink:href="#DejaVuSans-32" x="202.441406"/>
      <use xlink:href="#DejaVuSans-31" x="266.064453"/>
      <use xlink:href="#DejaVuSans-35" x="329.6875"/>
      <use xlink:href="#DejaVuSans-35" x="393.310547"/>
      <use xlink:href="#DejaVuSans-34" x="456.933594"/>
      <use xlink:href="#DejaVuSans-31" x="520.556641"/>
      <use xlink:href="#DejaVuSans-36" x="584.179688"/>
     </g>
    </g>
    <g id="line2d_25">
     <path d="M 261.855313 303.935394 
L 269.855313 303.935394 
L 277.855313 303.935394 
" style="fill: none; stroke: #5cb85c; stroke-linecap: square"/>
    </g>
    <g id="text_22">
     <!-- SRR2155417 -->
     <g transform="translate(284.255313 306.735394)scale(0.08 -0.08)">
      <defs>
       <path id="DejaVuSans-37" d="M 525 4666 
L 3525 4666 
L 3525 4397 
L 1831 0 
L 1172 0 
L 2766 4134 
L 525 4134 
L 525 4666 
z
" transform="scale(0.015625)"/>
      </defs>
      <use xlink:href="#DejaVuSans-53"/>
      <use xlink:href="#DejaVuSans-52" x="63.476562"/>
      <use xlink:href="#DejaVuSans-52" x="132.958984"/>
      <use xlink:href="#DejaVuSans-32" x="202.441406"/>
      <use xlink:href="#DejaVuSans-31" x="266.064453"/>
      <use xlink:href="#DejaVuSans-35" x="329.6875"/>
      <use xlink:href="#DejaVuSans-35" x="393.310547"/>
      <use xlink:href="#DejaVuSans-34" x="456.933594"/>
      <use xlink:href="#DejaVuSans-31" x="520.556641"/>
      <use xlink:href="#DejaVuSans-37" x="584.179688"/>
     </g>
    </g>
    <g id="line2d_26">
     <path d="M 261.855313 315.677894 
L 269.855313 315.677894 
L 277.855313 315.677894 
" style="fill: none; stroke: #5cb85c; stroke-linecap: square"/>
    </g>
    <g id="text_23">
     <!-- SRR2155418 -->
     <g transform="translate(284.255313 318.477894)scale(0.08 -0.08)">
      <use xlink:href="#DejaVuSans-53"/>
      <use xlink:href="#DejaVuSans-52" x="63.476562"/>
      <use xlink:href="#DejaVuSans-52" x="132.958984"/>
      <use xlink:href="#DejaVuSans-32" x="202.441406"/>
      <use xlink:href="#DejaVuSans-31" x="266.064453"/>
      <use xlink:href="#DejaVuSans-35" x="329.6875"/>
      <use xlink:href="#DejaVuSans-35" x="393.310547"/>
      <use xlink:href="#DejaVuSans-34" x="456.933594"/>
      <use xlink:href="#DejaVuSans-31" x="520.556641"/>
      <use xlink:href="#DejaVuSans-38" x="584.179688"/>
     </g>
    </g>
    <g id="line2d_27">
     <path d="M 475.91 292.192894 
L 483.91 292.192894 
L 491.91 292.192894 
" style="fill: none; stroke: #5cb85c; stroke-linecap: square"/>
    </g>
    <g id="text_24">
     <!-- SRR2155419 -->
     <g transform="translate(498.31 294.992894)scale(0.08 -0.08)">
      <defs>
       <path id="DejaVuSans-39" d="M 703 97 
L 703 672 
Q 941 559 1184 500 
Q 1428 441 1663 441 
Q 2288 441 2617 861 
Q 2947 1281 2994 2138 
Q 2813 1869 2534 1725 
Q 2256 1581 1919 1581 
Q 1219 1581 811 2004 
Q 403 2428 403 3163 
Q 403 3881 828 4315 
Q 1253 4750 1959 4750 
Q 2769 4750 3195 4129 
Q 3622 3509 3622 2328 
Q 3622 1225 3098 567 
Q 2575 -91 1691 -91 
Q 1453 -91 1209 -44 
Q 966 3 703 97 
z
M 1959 2075 
Q 2384 2075 2632 2365 
Q 2881 2656 2881 3163 
Q 2881 3666 2632 3958 
Q 2384 4250 1959 4250 
Q 1534 4250 1286 3958 
Q 1038 3666 1038 3163 
Q 1038 2656 1286 2365 
Q 1534 2075 1959 2075 
z
" transform="scale(0.015625)"/>
      </defs>
      <use xlink:href="#DejaVuSans-53"/>
      <use xlink:href="#DejaVuSans-52" x="63.476562"/>
      <use xlink:href="#DejaVuSans-52" x="132.958984"/>
      <use xlink:href="#DejaVuSans-32" x="202.441406"/>
      <use xlink:href="#DejaVuSans-31" x="266.064453"/>
      <use xlink:href="#DejaVuSans-35" x="329.6875"/>
      <use xlink:href="#DejaVuSans-35" x="393.310547"/>
      <use xlink:href="#DejaVuSans-34" x="456.933594"/>
      <use xlink:href="#DejaVuSans-31" x="520.556641"/>
      <use xlink:href="#DejaVuSans-39" x="584.179688"/>
     </g>
    </g>
    <g id="line2d_28">
     <path d="M 475.91 303.935394 
L 483.91 303.935394 
L 491.91 303.935394 
" style="fill: none; stroke: #5cb85c; stroke-linecap: square"/>
    </g>
    <g id="text_25">
     <!-- SRR2155420 -->
     <g transform="translate(498.31 306.735394)scale(0.08 -0.08)">
      <use xlink:href="#DejaVuSans-53"/>
      <use xlink:href="#DejaVuSans-52" x="63.476562"/>
      <use xlink:href="#DejaVuSans-52" x="132.958984"/>
      <use xlink:href="#DejaVuSans-32" x="202.441406"/>
      <use xlink:href="#DejaVuSans-31" x="266.064453"/>
      <use xlink:href="#DejaVuSans-35" x="329.6875"/>
      <use xlink:href="#DejaVuSans-35" x="393.310547"/>
      <use xlink:href="#DejaVuSans-34" x="456.933594"/>
      <use xlink:href="#DejaVuSans-32" x="520.556641"/>
      <use xlink:href="#DejaVuSans-30" x="584.179688"/>
     </g>
    </g>
    <g id="line2d_29">
     <path d="M 689.964687 292.192894 
L 697.964687 292.192894 
L 705.964687 292.192894 
" style="fill: none; stroke: #5cb85c; stroke-linecap: square"/>
    </g>
    <g id="text_26">
     <!-- SRR2155421 -->
     <g transform="translate(712.364687 294.992894)scale(0.08 -0.08)">
      <use xlink:href="#DejaVuSans-53"/>
      <use xlink:href="#DejaVuSans-52" x="63.476562"/>
      <use xlink:href="#DejaVuSans-52" x="132.958984"/>
      <use xlink:href="#DejaVuSans-32" x="202.441406"/>
      <use xlink:href="#DejaVuSans-31" x="266.064453"/>
      <use xlink:href="#DejaVuSans-35" x="329.6875"/>
      <use xlink:href="#DejaVuSans-35" x="393.310547"/>
      <use xlink:href="#DejaVuSans-34" x="456.933594"/>
      <use xlink:href="#DejaVuSans-32" x="520.556641"/>
      <use xlink:href="#DejaVuSans-31" x="584.179688"/>
     </g>
    </g>
    <g id="line2d_30">
     <path d="M 689.964687 303.935394 
L 697.964687 303.935394 
L 705.964687 303.935394 
" style="fill: none; stroke: #5cb85c; stroke-linecap: square"/>
    </g>
    <g id="text_27">
     <!-- SRR2155422 -->
     <g transform="translate(712.364687 306.735394)scale(0.08 -0.08)">
      <use xlink:href="#DejaVuSans-53"/>
      <use xlink:href="#DejaVuSans-52" x="63.476562"/>
      <use xlink:href="#DejaVuSans-52" x="132.958984"/>
      <use xlink:href="#DejaVuSans-32" x="202.441406"/>
      <use xlink:href="#DejaVuSans-31" x="266.064453"/>
      <use xlink:href="#DejaVuSans-35" x="329.6875"/>
      <use xlink:href="#DejaVuSans-35" x="393.310547"/>
      <use xlink:href="#DejaVuSans-34" x="456.933594"/>
      <use xlink:href="#DejaVuSans-32" x="520.556641"/>
      <use xlink:href="#DejaVuSans-32" x="584.179688"/>
     </g>
    </g>
    <g id="line2d_31">
     <path d="M 904.019375 292.192894 
L 912.019375 292.192894 
L 920.019375 292.192894 
" style="fill: none; stroke: #5cb85c; stroke-linecap: square"/>
    </g>
    <g id="text_28">
     <!-- SRR2155423 -->
     <g transform="translate(926.419375 294.992894)scale(0.08 -0.08)">
      <use xlink:href="#DejaVuSans-53"/>
      <use xlink:href="#DejaVuSans-52" x="63.476562"/>
      <use xlink:href="#DejaVuSans-52" x="132.958984"/>
      <use xlink:href="#DejaVuSans-32" x="202.441406"/>
      <use xlink:href="#DejaVuSans-31" x="266.064453"/>
      <use xlink:href="#DejaVuSans-35" x="329.6875"/>
      <use xlink:href="#DejaVuSans-35" x="393.310547"/>
      <use xlink:href="#DejaVuSans-34" x="456.933594"/>
      <use xlink:href="#DejaVuSans-32" x="520.556641"/>
      <use xlink:href="#DejaVuSans-33" x="584.179688"/>
     </g>
    </g>
    <g id="line2d_32">
     <path d="M 904.019375 303.935394 
L 912.019375 303.935394 
L 920.019375 303.935394 
" style="fill: none; stroke: #5cb85c; stroke-linecap: square"/>
    </g>
    <g id="text_29">
     <!-- SRR2155424 -->
     <g transform="translate(926.419375 306.735394)scale(0.08 -0.08)">
      <use xlink:href="#DejaVuSans-53"/>
      <use xlink:href="#DejaVuSans-52" x="63.476562"/>
      <use xlink:href="#DejaVuSans-52" x="132.958984"/>
      <use xlink:href="#DejaVuSans-32" x="202.441406"/>
      <use xlink:href="#DejaVuSans-31" x="266.064453"/>
      <use xlink:href="#DejaVuSans-35" x="329.6875"/>
      <use xlink:href="#DejaVuSans-35" x="393.310547"/>
      <use xlink:href="#DejaVuSans-34" x="456.933594"/>
      <use xlink:href="#DejaVuSans-32" x="520.556641"/>
      <use xlink:href="#DejaVuSans-34" x="584.179688"/>
     </g>
    </g>
   </g>
  </g>
 </g>
 <defs>
  <clipPath id="pf5d1cc05e1">
   <rect x="40.600625" y="31.48286" width="944.845" height="242.5072"/>
  </clipPath>
 </defs>
</svg>
