<?xml version="1.0" encoding="utf-8" standalone="no"?>
<!DOCTYPE svg PUBLIC "-//W3C//DTD SVG 1.1//EN"
  "http://www.w3.org/Graphics/SVG/1.1/DTD/svg11.dtd">
<svg xmlns:xlink="http://www.w3.org/1999/xlink" width="1000.358125pt" height="330.541644pt" viewBox="0 0 1000.358125 330.541644" xmlns="http://www.w3.org/2000/svg" version="1.1">
 <metadata>
  <rdf:RDF xmlns:dc="http://purl.org/dc/elements/1.1/" xmlns:cc="http://creativecommons.org/ns#" xmlns:rdf="http://www.w3.org/1999/02/22-rdf-syntax-ns#">
   <cc:Work>
    <dc:type rdf:resource="http://purl.org/dc/dcmitype/StillImage"/>
    <dc:date>2024-08-12T02:15:20.155464</dc:date>
    <dc:format>image/svg+xml</dc:format>
    <dc:creator>
     <cc:Agent>
      <dc:title>Matplotlib v3.5.3, https://matplotlib.org/</dc:title>
     </cc:Agent>
    </dc:creator>
   </cc:Work>
  </rdf:RDF>
 </metadata>
 <defs>
  <style type="text/css">*{stroke-linejoin: round; stroke-linecap: butt}</style>
 </defs>
 <g id="figure_1">
  <g id="axes_1">
   <g id="patch_1">
    <path d="M 32.968125 273.99006 
L 993.158125 273.99006 
L 993.158125 31.48286 
L 32.968125 31.48286 
z
" style="fill: #ffffff"/>
   </g>
   <g id="patch_2">
    <path d="M 32.968125 -696.03874 
L 959.32099 -696.03874 
L 959.32099 -4576.15394 
L 32.968125 -4576.15394 
z
" clip-path="url(#pd81774b155)" style="fill: #e6c3c3"/>
   </g>
   <g id="patch_3">
    <path d="M 32.968125 31.48286 
L 959.32099 31.48286 
L 959.32099 -696.03874 
L 32.968125 -696.03874 
z
" clip-path="url(#pd81774b155)" style="fill: #e6dcc3"/>
   </g>
   <g id="patch_4">
    <path d="M 32.968125 273.99006 
L 959.32099 273.99006 
L 959.32099 31.48286 
L 32.968125 31.48286 
z
" clip-path="url(#pd81774b155)" style="fill: #c3e6c3"/>
   </g>
   <g id="matplotlib.axis_1">
    <g id="xtick_1">
     <g id="text_1">
      <!-- 0 -->
      <g transform="translate(64.26026 287.06881)scale(0.08 -0.08)">
       <defs>
        <path id="DejaVuSans-30" d="M 2034 4250 
Q 1547 4250 1301 3770 
Q 1056 3291 1056 2328 
Q 1056 1369 1301 889 
Q 1547 409 2034 409 
Q 2525 409 2770 889 
Q 3016 1369 3016 2328 
Q 3016 3291 2770 3770 
Q 2525 4250 2034 4250 
z
M 2034 4750 
Q 2819 4750 3233 4129 
Q 3647 3509 3647 2328 
Q 3647 1150 3233 529 
Q 2819 -91 2034 -91 
Q 1250 -91 836 529 
Q 422 1150 422 2328 
Q 422 3509 836 4129 
Q 1250 4750 2034 4750 
z
" transform="scale(0.015625)"/>
       </defs>
       <use xlink:href="#DejaVuSans-30"/>
      </g>
     </g>
    </g>
    <g id="xtick_2">
     <g id="text_2">
      <!-- 20 -->
      <g transform="translate(257.872563 287.06881)scale(0.08 -0.08)">
       <defs>
        <path id="DejaVuSans-32" d="M 1228 531 
L 3431 531 
L 3431 0 
L 469 0 
L 469 531 
Q 828 903 1448 1529 
Q 2069 2156 2228 2338 
Q 2531 2678 2651 2914 
Q 2772 3150 2772 3378 
Q 2772 3750 2511 3984 
Q 2250 4219 1831 4219 
Q 1534 4219 1204 4116 
Q 875 4013 500 3803 
L 500 4441 
Q 881 4594 1212 4672 
Q 1544 4750 1819 4750 
Q 2544 4750 2975 4387 
Q 3406 4025 3406 3419 
Q 3406 3131 3298 2873 
Q 3191 2616 2906 2266 
Q 2828 2175 2409 1742 
Q 1991 1309 1228 531 
z
" transform="scale(0.015625)"/>
       </defs>
       <use xlink:href="#DejaVuSans-32"/>
       <use xlink:href="#DejaVuSans-30" x="63.623047"/>
      </g>
     </g>
    </g>
    <g id="xtick_3">
     <g id="text_3">
      <!-- 40 -->
      <g transform="translate(454.029867 287.06881)scale(0.08 -0.08)">
       <defs>
        <path id="DejaVuSans-34" d="M 2419 4116 
L 825 1625 
L 2419 1625 
L 2419 4116 
z
M 2253 4666 
L 3047 4666 
L 3047 1625 
L 3713 1625 
L 3713 1100 
L 3047 1100 
L 3047 0 
L 2419 0 
L 2419 1100 
L 313 1100 
L 313 1709 
L 2253 4666 
z
" transform="scale(0.015625)"/>
       </defs>
       <use xlink:href="#DejaVuSans-34"/>
       <use xlink:href="#DejaVuSans-30" x="63.623047"/>
      </g>
     </g>
    </g>
    <g id="xtick_4">
     <g id="text_4">
      <!-- 60 -->
      <g transform="translate(650.18717 287.06881)scale(0.08 -0.08)">
       <defs>
        <path id="DejaVuSans-36" d="M 2113 2584 
Q 1688 2584 1439 2293 
Q 1191 2003 1191 1497 
Q 1191 994 1439 701 
Q 1688 409 2113 409 
Q 2538 409 2786 701 
Q 3034 994 3034 1497 
Q 3034 2003 2786 2293 
Q 2538 2584 2113 2584 
z
M 3366 4563 
L 3366 3988 
Q 3128 4100 2886 4159 
Q 2644 4219 2406 4219 
Q 1781 4219 1451 3797 
Q 1122 3375 1075 2522 
Q 1259 2794 1537 2939 
Q 1816 3084 2150 3084 
Q 2853 3084 3261 2657 
Q 3669 2231 3669 1497 
Q 3669 778 3244 343 
Q 2819 -91 2113 -91 
Q 1303 -91 875 529 
Q 447 1150 447 2328 
Q 447 3434 972 4092 
Q 1497 4750 2381 4750 
Q 2619 4750 2861 4703 
Q 3103 4656 3366 4563 
z
" transform="scale(0.015625)"/>
       </defs>
       <use xlink:href="#DejaVuSans-36"/>
       <use xlink:href="#DejaVuSans-30" x="63.623047"/>
      </g>
     </g>
    </g>
    <g id="xtick_5">
     <g id="text_5">
      <!-- 80 -->
      <g transform="translate(846.344473 287.06881)scale(0.08 -0.08)">
       <defs>
        <path id="DejaVuSans-38" d="M 2034 2216 
Q 1584 2216 1326 1975 
Q 1069 1734 1069 1313 
Q 1069 891 1326 650 
Q 1584 409 2034 409 
Q 2484 409 2743 651 
Q 3003 894 3003 1313 
Q 3003 1734 2745 1975 
Q 2488 2216 2034 2216 
z
M 1403 2484 
Q 997 2584 770 2862 
Q 544 3141 544 3541 
Q 544 4100 942 4425 
Q 1341 4750 2034 4750 
Q 2731 4750 3128 4425 
Q 3525 4100 3525 3541 
Q 3525 3141 3298 2862 
Q 3072 2584 2669 2484 
Q 3125 2378 3379 2068 
Q 3634 1759 3634 1313 
Q 3634 634 3220 271 
Q 2806 -91 2034 -91 
Q 1263 -91 848 271 
Q 434 634 434 1313 
Q 434 1759 690 2068 
Q 947 2378 1403 2484 
z
M 1172 3481 
Q 1172 3119 1398 2916 
Q 1625 2713 2034 2713 
Q 2441 2713 2670 2916 
Q 2900 3119 2900 3481 
Q 2900 3844 2670 4047 
Q 2441 4250 2034 4250 
Q 1625 4250 1398 4047 
Q 1172 3844 1172 3481 
z
" transform="scale(0.015625)"/>
       </defs>
       <use xlink:href="#DejaVuSans-38"/>
       <use xlink:href="#DejaVuSans-30" x="63.623047"/>
      </g>
     </g>
    </g>
    <g id="text_6">
     <!-- Position (bp) -->
     <g transform="translate(481.76 300.330997)scale(0.1 -0.1)">
      <defs>
       <path id="DejaVuSans-50" d="M 1259 4147 
L 1259 2394 
L 2053 2394 
Q 2494 2394 2734 2622 
Q 2975 2850 2975 3272 
Q 2975 3691 2734 3919 
Q 2494 4147 2053 4147 
L 1259 4147 
z
M 628 4666 
L 2053 4666 
Q 2838 4666 3239 4311 
Q 3641 3956 3641 3272 
Q 3641 2581 3239 2228 
Q 2838 1875 2053 1875 
L 1259 1875 
L 1259 0 
L 628 0 
L 628 4666 
z
" transform="scale(0.015625)"/>
       <path id="DejaVuSans-6f" d="M 1959 3097 
Q 1497 3097 1228 2736 
Q 959 2375 959 1747 
Q 959 1119 1226 758 
Q 1494 397 1959 397 
Q 2419 397 2687 759 
Q 2956 1122 2956 1747 
Q 2956 2369 2687 2733 
Q 2419 3097 1959 3097 
z
M 1959 3584 
Q 2709 3584 3137 3096 
Q 3566 2609 3566 1747 
Q 3566 888 3137 398 
Q 2709 -91 1959 -91 
Q 1206 -91 779 398 
Q 353 888 353 1747 
Q 353 2609 779 3096 
Q 1206 3584 1959 3584 
z
" transform="scale(0.015625)"/>
       <path id="DejaVuSans-73" d="M 2834 3397 
L 2834 2853 
Q 2591 2978 2328 3040 
Q 2066 3103 1784 3103 
Q 1356 3103 1142 2972 
Q 928 2841 928 2578 
Q 928 2378 1081 2264 
Q 1234 2150 1697 2047 
L 1894 2003 
Q 2506 1872 2764 1633 
Q 3022 1394 3022 966 
Q 3022 478 2636 193 
Q 2250 -91 1575 -91 
Q 1294 -91 989 -36 
Q 684 19 347 128 
L 347 722 
Q 666 556 975 473 
Q 1284 391 1588 391 
Q 1994 391 2212 530 
Q 2431 669 2431 922 
Q 2431 1156 2273 1281 
Q 2116 1406 1581 1522 
L 1381 1569 
Q 847 1681 609 1914 
Q 372 2147 372 2553 
Q 372 3047 722 3315 
Q 1072 3584 1716 3584 
Q 2034 3584 2315 3537 
Q 2597 3491 2834 3397 
z
" transform="scale(0.015625)"/>
       <path id="DejaVuSans-69" d="M 603 3500 
L 1178 3500 
L 1178 0 
L 603 0 
L 603 3500 
z
M 603 4863 
L 1178 4863 
L 1178 4134 
L 603 4134 
L 603 4863 
z
" transform="scale(0.015625)"/>
       <path id="DejaVuSans-74" d="M 1172 4494 
L 1172 3500 
L 2356 3500 
L 2356 3053 
L 1172 3053 
L 1172 1153 
Q 1172 725 1289 603 
Q 1406 481 1766 481 
L 2356 481 
L 2356 0 
L 1766 0 
Q 1100 0 847 248 
Q 594 497 594 1153 
L 594 3053 
L 172 3053 
L 172 3500 
L 594 3500 
L 594 4494 
L 1172 4494 
z
" transform="scale(0.015625)"/>
       <path id="DejaVuSans-6e" d="M 3513 2113 
L 3513 0 
L 2938 0 
L 2938 2094 
Q 2938 2591 2744 2837 
Q 2550 3084 2163 3084 
Q 1697 3084 1428 2787 
Q 1159 2491 1159 1978 
L 1159 0 
L 581 0 
L 581 3500 
L 1159 3500 
L 1159 2956 
Q 1366 3272 1645 3428 
Q 1925 3584 2291 3584 
Q 2894 3584 3203 3211 
Q 3513 2838 3513 2113 
z
" transform="scale(0.015625)"/>
       <path id="DejaVuSans-20" transform="scale(0.015625)"/>
       <path id="DejaVuSans-28" d="M 1984 4856 
Q 1566 4138 1362 3434 
Q 1159 2731 1159 2009 
Q 1159 1288 1364 580 
Q 1569 -128 1984 -844 
L 1484 -844 
Q 1016 -109 783 600 
Q 550 1309 550 2009 
Q 550 2706 781 3412 
Q 1013 4119 1484 4856 
L 1984 4856 
z
" transform="scale(0.015625)"/>
       <path id="DejaVuSans-62" d="M 3116 1747 
Q 3116 2381 2855 2742 
Q 2594 3103 2138 3103 
Q 1681 3103 1420 2742 
Q 1159 2381 1159 1747 
Q 1159 1113 1420 752 
Q 1681 391 2138 391 
Q 2594 391 2855 752 
Q 3116 1113 3116 1747 
z
M 1159 2969 
Q 1341 3281 1617 3432 
Q 1894 3584 2278 3584 
Q 2916 3584 3314 3078 
Q 3713 2572 3713 1747 
Q 3713 922 3314 415 
Q 2916 -91 2278 -91 
Q 1894 -91 1617 61 
Q 1341 213 1159 525 
L 1159 0 
L 581 0 
L 581 4863 
L 1159 4863 
L 1159 2969 
z
" transform="scale(0.015625)"/>
       <path id="DejaVuSans-70" d="M 1159 525 
L 1159 -1331 
L 581 -1331 
L 581 3500 
L 1159 3500 
L 1159 2969 
Q 1341 3281 1617 3432 
Q 1894 3584 2278 3584 
Q 2916 3584 3314 3078 
Q 3713 2572 3713 1747 
Q 3713 922 3314 415 
Q 2916 -91 2278 -91 
Q 1894 -91 1617 61 
Q 1341 213 1159 525 
z
M 3116 1747 
Q 3116 2381 2855 2742 
Q 2594 3103 2138 3103 
Q 1681 3103 1420 2742 
Q 1159 2381 1159 1747 
Q 1159 1113 1420 752 
Q 1681 391 2138 391 
Q 2594 391 2855 752 
Q 3116 1113 3116 1747 
z
" transform="scale(0.015625)"/>
       <path id="DejaVuSans-29" d="M 513 4856 
L 1013 4856 
Q 1481 4119 1714 3412 
Q 1947 2706 1947 2009 
Q 1947 1309 1714 600 
Q 1481 -109 1013 -844 
L 513 -844 
Q 928 -128 1133 580 
Q 1338 1288 1338 2009 
Q 1338 2731 1133 3434 
Q 928 4138 513 4856 
z
" transform="scale(0.015625)"/>
      </defs>
      <use xlink:href="#DejaVuSans-50"/>
      <use xlink:href="#DejaVuSans-6f" x="56.677734"/>
      <use xlink:href="#DejaVuSans-73" x="117.859375"/>
      <use xlink:href="#DejaVuSans-69" x="169.958984"/>
      <use xlink:href="#DejaVuSans-74" x="197.742188"/>
      <use xlink:href="#DejaVuSans-69" x="236.951172"/>
      <use xlink:href="#DejaVuSans-6f" x="264.734375"/>
      <use xlink:href="#DejaVuSans-6e" x="325.916016"/>
      <use xlink:href="#DejaVuSans-20" x="389.294922"/>
      <use xlink:href="#DejaVuSans-28" x="421.082031"/>
      <use xlink:href="#DejaVuSans-62" x="460.095703"/>
      <use xlink:href="#DejaVuSans-70" x="523.572266"/>
      <use xlink:href="#DejaVuSans-29" x="587.048828"/>
     </g>
    </g>
   </g>
   <g id="matplotlib.axis_2">
    <g id="ytick_1">
     <g id="line2d_1">
      <path d="M 32.968125 273.99006 
L 993.158125 273.99006 
" clip-path="url(#pd81774b155)" style="fill: none; stroke: #dedede; stroke-linecap: square"/>
     </g>
     <g id="text_7">
      <!-- 0 -->
      <g transform="translate(20.878125 277.029435)scale(0.08 -0.08)">
       <use xlink:href="#DejaVuSans-30"/>
      </g>
     </g>
    </g>
    <g id="ytick_2">
     <g id="line2d_2">
      <path d="M 32.968125 225.48862 
L 993.158125 225.48862 
" clip-path="url(#pd81774b155)" style="fill: none; stroke: #dedede; stroke-linecap: square"/>
     </g>
     <g id="text_8">
      <!-- 1 -->
      <g transform="translate(20.878125 228.527995)scale(0.08 -0.08)">
       <defs>
        <path id="DejaVuSans-31" d="M 794 531 
L 1825 531 
L 1825 4091 
L 703 3866 
L 703 4441 
L 1819 4666 
L 2450 4666 
L 2450 531 
L 3481 531 
L 3481 0 
L 794 0 
L 794 531 
z
" transform="scale(0.015625)"/>
       </defs>
       <use xlink:href="#DejaVuSans-31"/>
      </g>
     </g>
    </g>
    <g id="ytick_3">
     <g id="line2d_3">
      <path d="M 32.968125 176.98718 
L 993.158125 176.98718 
" clip-path="url(#pd81774b155)" style="fill: none; stroke: #dedede; stroke-linecap: square"/>
     </g>
     <g id="text_9">
      <!-- 2 -->
      <g transform="translate(20.878125 180.026555)scale(0.08 -0.08)">
       <use xlink:href="#DejaVuSans-32"/>
      </g>
     </g>
    </g>
    <g id="ytick_4">
     <g id="line2d_4">
      <path d="M 32.968125 128.48574 
L 993.158125 128.48574 
" clip-path="url(#pd81774b155)" style="fill: none; stroke: #dedede; stroke-linecap: square"/>
     </g>
     <g id="text_10">
      <!-- 3 -->
      <g transform="translate(20.878125 131.525115)scale(0.08 -0.08)">
       <defs>
        <path id="DejaVuSans-33" d="M 2597 2516 
Q 3050 2419 3304 2112 
Q 3559 1806 3559 1356 
Q 3559 666 3084 287 
Q 2609 -91 1734 -91 
Q 1441 -91 1130 -33 
Q 819 25 488 141 
L 488 750 
Q 750 597 1062 519 
Q 1375 441 1716 441 
Q 2309 441 2620 675 
Q 2931 909 2931 1356 
Q 2931 1769 2642 2001 
Q 2353 2234 1838 2234 
L 1294 2234 
L 1294 2753 
L 1863 2753 
Q 2328 2753 2575 2939 
Q 2822 3125 2822 3475 
Q 2822 3834 2567 4026 
Q 2313 4219 1838 4219 
Q 1578 4219 1281 4162 
Q 984 4106 628 3988 
L 628 4550 
Q 988 4650 1302 4700 
Q 1616 4750 1894 4750 
Q 2613 4750 3031 4423 
Q 3450 4097 3450 3541 
Q 3450 3153 3228 2886 
Q 3006 2619 2597 2516 
z
" transform="scale(0.015625)"/>
       </defs>
       <use xlink:href="#DejaVuSans-33"/>
      </g>
     </g>
    </g>
    <g id="ytick_5">
     <g id="line2d_5">
      <path d="M 32.968125 79.9843 
L 993.158125 79.9843 
" clip-path="url(#pd81774b155)" style="fill: none; stroke: #dedede; stroke-linecap: square"/>
     </g>
     <g id="text_11">
      <!-- 4 -->
      <g transform="translate(20.878125 83.023675)scale(0.08 -0.08)">
       <use xlink:href="#DejaVuSans-34"/>
      </g>
     </g>
    </g>
    <g id="ytick_6">
     <g id="line2d_6">
      <path d="M 32.968125 31.48286 
L 993.158125 31.48286 
" clip-path="url(#pd81774b155)" style="fill: none; stroke: #dedede; stroke-linecap: square"/>
     </g>
     <g id="text_12">
      <!-- 5 -->
      <g transform="translate(20.878125 34.522235)scale(0.08 -0.08)">
       <defs>
        <path id="DejaVuSans-35" d="M 691 4666 
L 3169 4666 
L 3169 4134 
L 1269 4134 
L 1269 2991 
Q 1406 3038 1543 3061 
Q 1681 3084 1819 3084 
Q 2600 3084 3056 2656 
Q 3513 2228 3513 1497 
Q 3513 744 3044 326 
Q 2575 -91 1722 -91 
Q 1428 -91 1123 -41 
Q 819 9 494 109 
L 494 744 
Q 775 591 1075 516 
Q 1375 441 1709 441 
Q 2250 441 2565 725 
Q 2881 1009 2881 1497 
Q 2881 1984 2565 2268 
Q 2250 2553 1709 2553 
Q 1456 2553 1204 2497 
Q 953 2441 691 2322 
L 691 4666 
z
" transform="scale(0.015625)"/>
       </defs>
       <use xlink:href="#DejaVuSans-35"/>
      </g>
     </g>
    </g>
    <g id="text_13">
     <!-- % of Sequences -->
     <g transform="translate(14.798437 192.754429)rotate(-90)scale(0.1 -0.1)">
      <defs>
       <path id="DejaVuSans-25" d="M 4653 2053 
Q 4381 2053 4226 1822 
Q 4072 1591 4072 1178 
Q 4072 772 4226 539 
Q 4381 306 4653 306 
Q 4919 306 5073 539 
Q 5228 772 5228 1178 
Q 5228 1588 5073 1820 
Q 4919 2053 4653 2053 
z
M 4653 2450 
Q 5147 2450 5437 2106 
Q 5728 1763 5728 1178 
Q 5728 594 5436 251 
Q 5144 -91 4653 -91 
Q 4153 -91 3862 251 
Q 3572 594 3572 1178 
Q 3572 1766 3864 2108 
Q 4156 2450 4653 2450 
z
M 1428 4353 
Q 1159 4353 1004 4120 
Q 850 3888 850 3481 
Q 850 3069 1003 2837 
Q 1156 2606 1428 2606 
Q 1700 2606 1854 2837 
Q 2009 3069 2009 3481 
Q 2009 3884 1853 4118 
Q 1697 4353 1428 4353 
z
M 4250 4750 
L 4750 4750 
L 1831 -91 
L 1331 -91 
L 4250 4750 
z
M 1428 4750 
Q 1922 4750 2215 4408 
Q 2509 4066 2509 3481 
Q 2509 2891 2217 2550 
Q 1925 2209 1428 2209 
Q 931 2209 642 2551 
Q 353 2894 353 3481 
Q 353 4063 643 4406 
Q 934 4750 1428 4750 
z
" transform="scale(0.015625)"/>
       <path id="DejaVuSans-66" d="M 2375 4863 
L 2375 4384 
L 1825 4384 
Q 1516 4384 1395 4259 
Q 1275 4134 1275 3809 
L 1275 3500 
L 2222 3500 
L 2222 3053 
L 1275 3053 
L 1275 0 
L 697 0 
L 697 3053 
L 147 3053 
L 147 3500 
L 697 3500 
L 697 3744 
Q 697 4328 969 4595 
Q 1241 4863 1831 4863 
L 2375 4863 
z
" transform="scale(0.015625)"/>
       <path id="DejaVuSans-53" d="M 3425 4513 
L 3425 3897 
Q 3066 4069 2747 4153 
Q 2428 4238 2131 4238 
Q 1616 4238 1336 4038 
Q 1056 3838 1056 3469 
Q 1056 3159 1242 3001 
Q 1428 2844 1947 2747 
L 2328 2669 
Q 3034 2534 3370 2195 
Q 3706 1856 3706 1288 
Q 3706 609 3251 259 
Q 2797 -91 1919 -91 
Q 1588 -91 1214 -16 
Q 841 59 441 206 
L 441 856 
Q 825 641 1194 531 
Q 1563 422 1919 422 
Q 2459 422 2753 634 
Q 3047 847 3047 1241 
Q 3047 1584 2836 1778 
Q 2625 1972 2144 2069 
L 1759 2144 
Q 1053 2284 737 2584 
Q 422 2884 422 3419 
Q 422 4038 858 4394 
Q 1294 4750 2059 4750 
Q 2388 4750 2728 4690 
Q 3069 4631 3425 4513 
z
" transform="scale(0.015625)"/>
       <path id="DejaVuSans-65" d="M 3597 1894 
L 3597 1613 
L 953 1613 
Q 991 1019 1311 708 
Q 1631 397 2203 397 
Q 2534 397 2845 478 
Q 3156 559 3463 722 
L 3463 178 
Q 3153 47 2828 -22 
Q 2503 -91 2169 -91 
Q 1331 -91 842 396 
Q 353 884 353 1716 
Q 353 2575 817 3079 
Q 1281 3584 2069 3584 
Q 2775 3584 3186 3129 
Q 3597 2675 3597 1894 
z
M 3022 2063 
Q 3016 2534 2758 2815 
Q 2500 3097 2075 3097 
Q 1594 3097 1305 2825 
Q 1016 2553 972 2059 
L 3022 2063 
z
" transform="scale(0.015625)"/>
       <path id="DejaVuSans-71" d="M 947 1747 
Q 947 1113 1208 752 
Q 1469 391 1925 391 
Q 2381 391 2643 752 
Q 2906 1113 2906 1747 
Q 2906 2381 2643 2742 
Q 2381 3103 1925 3103 
Q 1469 3103 1208 2742 
Q 947 2381 947 1747 
z
M 2906 525 
Q 2725 213 2448 61 
Q 2172 -91 1784 -91 
Q 1150 -91 751 415 
Q 353 922 353 1747 
Q 353 2572 751 3078 
Q 1150 3584 1784 3584 
Q 2172 3584 2448 3432 
Q 2725 3281 2906 2969 
L 2906 3500 
L 3481 3500 
L 3481 -1331 
L 2906 -1331 
L 2906 525 
z
" transform="scale(0.015625)"/>
       <path id="DejaVuSans-75" d="M 544 1381 
L 544 3500 
L 1119 3500 
L 1119 1403 
Q 1119 906 1312 657 
Q 1506 409 1894 409 
Q 2359 409 2629 706 
Q 2900 1003 2900 1516 
L 2900 3500 
L 3475 3500 
L 3475 0 
L 2900 0 
L 2900 538 
Q 2691 219 2414 64 
Q 2138 -91 1772 -91 
Q 1169 -91 856 284 
Q 544 659 544 1381 
z
M 1991 3584 
L 1991 3584 
z
" transform="scale(0.015625)"/>
       <path id="DejaVuSans-63" d="M 3122 3366 
L 3122 2828 
Q 2878 2963 2633 3030 
Q 2388 3097 2138 3097 
Q 1578 3097 1268 2742 
Q 959 2388 959 1747 
Q 959 1106 1268 751 
Q 1578 397 2138 397 
Q 2388 397 2633 464 
Q 2878 531 3122 666 
L 3122 134 
Q 2881 22 2623 -34 
Q 2366 -91 2075 -91 
Q 1284 -91 818 406 
Q 353 903 353 1747 
Q 353 2603 823 3093 
Q 1294 3584 2113 3584 
Q 2378 3584 2631 3529 
Q 2884 3475 3122 3366 
z
" transform="scale(0.015625)"/>
      </defs>
      <use xlink:href="#DejaVuSans-25"/>
      <use xlink:href="#DejaVuSans-20" x="95.019531"/>
      <use xlink:href="#DejaVuSans-6f" x="126.806641"/>
      <use xlink:href="#DejaVuSans-66" x="187.988281"/>
      <use xlink:href="#DejaVuSans-20" x="223.193359"/>
      <use xlink:href="#DejaVuSans-53" x="254.980469"/>
      <use xlink:href="#DejaVuSans-65" x="318.457031"/>
      <use xlink:href="#DejaVuSans-71" x="379.980469"/>
      <use xlink:href="#DejaVuSans-75" x="443.457031"/>
      <use xlink:href="#DejaVuSans-65" x="506.835938"/>
      <use xlink:href="#DejaVuSans-6e" x="568.359375"/>
      <use xlink:href="#DejaVuSans-63" x="631.738281"/>
      <use xlink:href="#DejaVuSans-65" x="686.71875"/>
      <use xlink:href="#DejaVuSans-73" x="748.242188"/>
     </g>
    </g>
   </g>
   <g id="line2d_7">
    <path d="M 76.613125 273.429151 
L 86.42099 273.424362 
L 96.228855 273.408397 
L 106.036721 273.340279 
L 115.844586 273.326975 
L 125.652451 273.28653 
L 135.460316 273.280143 
L 145.268181 273.258857 
L 155.076046 273.235441 
L 164.883912 273.163598 
L 184.499642 273.087231 
L 204.115372 272.984256 
L 223.731103 272.87862 
L 243.346833 272.762075 
L 262.962563 272.644731 
L 282.578294 272.524194 
L 302.194024 272.419356 
L 321.809754 272.319042 
L 341.425485 272.207286 
L 361.041215 272.118413 
L 380.656945 272.035661 
L 400.272676 271.964084 
L 419.888406 271.87734 
L 439.504136 271.767446 
L 459.119867 271.679904 
L 478.735597 271.599546 
L 498.351327 271.508811 
L 517.967058 271.432711 
L 537.582788 271.348362 
L 557.198518 271.255498 
L 576.814249 271.158642 
L 596.429979 271.058594 
L 616.045709 270.960409 
L 635.66144 270.853708 
L 655.27717 270.731309 
L 674.8929 270.595605 
L 694.508631 270.450589 
L 714.124361 270.281624 
L 733.740091 270.075674 
L 753.355822 269.836197 
L 772.971552 269.502791 
L 792.587282 269.095148 
L 812.203013 268.551003 
L 831.818743 267.870622 
L 851.434473 266.962472 
L 871.050204 265.63497 
L 890.665934 263.800576 
L 910.281664 261.505055 
L 929.897395 258.536337 
L 949.513125 255.673255 
" clip-path="url(#pd81774b155)" style="fill: none; stroke: #7cb5ec; stroke-linecap: square"/>
   </g>
   <g id="line2d_8">
    <path d="M 76.613125 273.689043 
L 86.42099 273.680479 
L 96.228855 273.666364 
L 106.036721 273.611806 
L 115.844586 273.60007 
L 125.652451 273.57184 
L 135.460316 273.564544 
L 145.268181 273.536473 
L 155.076046 273.513793 
L 164.883912 273.436874 
L 184.499642 273.349487 
L 204.115372 273.2395 
L 223.731103 273.145293 
L 243.346833 273.060682 
L 262.962563 272.970678 
L 282.578294 272.881943 
L 302.194024 272.801852 
L 321.809754 272.721364 
L 341.425485 272.626364 
L 361.041215 272.529541 
L 380.656945 272.429387 
L 400.272676 272.33177 
L 419.888406 272.238674 
L 439.504136 272.123374 
L 459.119867 272.030436 
L 478.735597 271.934802 
L 498.351327 271.841468 
L 517.967058 271.742028 
L 537.582788 271.647425 
L 557.198518 271.544575 
L 576.814249 271.435936 
L 596.429979 271.31897 
L 616.045709 271.196296 
L 635.66144 271.065215 
L 655.27717 270.919148 
L 674.8929 270.755555 
L 694.508631 270.567855 
L 714.124361 270.370719 
L 733.740091 270.136868 
L 753.355822 269.841402 
L 772.971552 269.462752 
L 792.587282 268.994257 
L 812.203013 268.418788 
L 831.818743 267.654826 
L 851.434473 266.664468 
L 871.050204 265.305054 
L 890.665934 263.463109 
L 910.281664 261.070278 
L 929.897395 258.027041 
L 949.513125 255.153344 
" clip-path="url(#pd81774b155)" style="fill: none; stroke: #434348; stroke-linecap: square"/>
   </g>
   <g id="line2d_9">
    <path d="M 76.613125 271.725848 
L 86.42099 271.69618 
L 96.228855 271.678513 
L 106.036721 271.607012 
L 115.844586 271.593678 
L 125.652451 271.565344 
L 135.460316 271.556011 
L 145.268181 271.52451 
L 155.076046 271.498343 
L 164.883912 271.413508 
L 184.499642 271.317923 
L 204.115372 271.192837 
L 223.731103 271.063501 
L 243.346833 270.939582 
L 262.962563 270.814496 
L 282.578294 270.680576 
L 302.194024 270.561824 
L 321.809754 270.451738 
L 341.425485 270.335153 
L 361.041215 270.22565 
L 380.656945 270.117898 
L 400.272676 270.01398 
L 419.888406 269.903394 
L 439.504136 269.775225 
L 459.119867 269.666139 
L 478.735597 269.560054 
L 498.351327 269.456468 
L 517.967058 269.342133 
L 537.582788 269.22913 
L 557.198518 269.110961 
L 576.814249 268.987209 
L 596.429979 268.86729 
L 616.045709 268.735204 
L 635.66144 268.590284 
L 655.27717 268.431364 
L 674.8929 268.264194 
L 694.508631 268.077774 
L 714.124361 267.866436 
L 733.740091 267.622598 
L 753.355822 267.343925 
L 772.971552 266.976751 
L 792.587282 266.526159 
L 812.203013 265.981981 
L 831.818743 265.303551 
L 851.434473 264.394449 
L 871.050204 263.13934 
L 890.665934 261.415555 
L 910.281664 259.174427 
L 929.897395 256.331953 
L 949.513125 253.634315 
" clip-path="url(#pd81774b155)" style="fill: none; stroke: #90ed7d; stroke-linecap: square"/>
   </g>
   <g id="line2d_10">
    <path d="M 76.613125 273.734165 
L 86.42099 273.728436 
L 96.228855 273.71125 
L 106.036721 273.652289 
L 115.844586 273.640831 
L 125.652451 273.615528 
L 135.460316 273.606218 
L 145.268181 273.580438 
L 155.076046 273.554419 
L 164.883912 273.474213 
L 184.499642 273.394485 
L 204.115372 273.296853 
L 223.731103 273.191106 
L 243.346833 273.079152 
L 262.962563 272.976746 
L 282.578294 272.868015 
L 302.194024 272.759761 
L 321.809754 272.661891 
L 341.425485 272.561992 
L 361.041215 272.468299 
L 380.656945 272.377471 
L 400.272676 272.291059 
L 419.888406 272.205482 
L 439.504136 272.103435 
L 459.119867 272.013084 
L 478.735597 271.924643 
L 498.351327 271.836918 
L 517.967058 271.753967 
L 537.582788 271.663735 
L 557.198518 271.572907 
L 576.814249 271.478618 
L 596.429979 271.381822 
L 616.045709 271.272852 
L 635.66144 271.157914 
L 655.27717 271.031638 
L 674.8929 270.886145 
L 694.508631 270.721676 
L 714.124361 270.541093 
L 733.740091 270.322079 
L 753.355822 270.045417 
L 772.971552 269.705856 
L 792.587282 269.271766 
L 812.203013 268.727274 
L 831.818743 268.02619 
L 851.434473 267.07864 
L 871.050204 265.767061 
L 890.665934 263.943574 
L 910.281664 261.609491 
L 929.897395 258.555586 
L 949.513125 255.685246 
" clip-path="url(#pd81774b155)" style="fill: none; stroke: #f7a35c; stroke-linecap: square"/>
   </g>
   <g id="line2d_11">
    <path d="M 76.613125 273.878795 
L 86.42099 273.875157 
L 96.228855 273.860606 
L 106.036721 273.796381 
L 115.844586 273.784339 
L 125.652451 273.756743 
L 135.460316 273.746833 
L 145.268181 273.721494 
L 155.076046 273.700169 
L 164.883912 273.620829 
L 184.499642 273.534777 
L 204.115372 273.430161 
L 223.731103 273.337586 
L 243.346833 273.254671 
L 262.962563 273.172884 
L 282.578294 273.089028 
L 302.194024 273.008747 
L 321.809754 272.937999 
L 341.425485 272.838149 
L 361.041215 272.743442 
L 380.656945 272.647795 
L 400.272676 272.559172 
L 419.888406 272.469545 
L 439.504136 272.354517 
L 459.119867 272.261566 
L 478.735597 272.171501 
L 498.351327 272.082439 
L 517.967058 271.985286 
L 537.582788 271.8929 
L 557.198518 271.795496 
L 576.814249 271.690942 
L 596.429979 271.587329 
L 616.045709 271.472176 
L 635.66144 271.345984 
L 655.27717 271.206558 
L 674.8929 271.051703 
L 694.508631 270.879098 
L 714.124361 270.676388 
L 733.740091 270.436924 
L 753.355822 270.143082 
L 772.971552 269.748951 
L 792.587282 269.245499 
L 812.203013 268.609709 
L 831.818743 267.810597 
L 851.434473 266.721469 
L 871.050204 265.210738 
L 890.665934 263.132833 
L 910.281664 260.421584 
L 929.897395 256.927466 
L 949.513125 253.667357 
" clip-path="url(#pd81774b155)" style="fill: none; stroke: #8085e9; stroke-linecap: square"/>
   </g>
   <g id="line2d_12">
    <path d="M 76.613125 273.83361 
L 86.42099 273.828773 
L 96.228855 273.817097 
L 106.036721 273.762223 
L 115.844586 273.750714 
L 125.652451 273.721526 
L 135.460316 273.711018 
L 145.268181 273.688835 
L 155.076046 273.670487 
L 164.883912 273.601436 
L 184.499642 273.524879 
L 204.115372 273.426722 
L 223.731103 273.32206 
L 243.346833 273.219567 
L 262.962563 273.120409 
L 282.578294 273.012912 
L 302.194024 272.920843 
L 321.809754 272.833111 
L 341.425485 272.737289 
L 361.041215 272.646638 
L 380.656945 272.55532 
L 400.272676 272.471423 
L 419.888406 272.385943 
L 439.504136 272.281198 
L 459.119867 272.191047 
L 478.735597 272.107484 
L 498.351327 272.022337 
L 517.967058 271.932186 
L 537.582788 271.843954 
L 557.198518 271.748466 
L 576.814249 271.652394 
L 596.429979 271.551318 
L 616.045709 271.444321 
L 635.66144 271.325899 
L 655.27717 271.203725 
L 674.8929 271.065121 
L 694.508631 270.919595 
L 714.124361 270.757808 
L 733.740091 270.571251 
L 753.355822 270.348918 
L 772.971552 270.081885 
L 792.587282 269.72737 
L 812.203013 269.303969 
L 831.818743 268.790919 
L 851.434473 268.117582 
L 871.050204 267.169038 
L 890.665934 265.910013 
L 910.281664 264.236093 
L 929.897395 262.03211 
L 949.513125 259.979908 
" clip-path="url(#pd81774b155)" style="fill: none; stroke: #f15c80; stroke-linecap: square"/>
   </g>
   <g id="line2d_13">
    <path d="M 76.613125 273.716481 
L 86.42099 273.711625 
L 96.228855 273.698351 
L 106.036721 273.648815 
L 115.844586 273.641045 
L 125.652451 273.611259 
L 135.460316 273.603165 
L 145.268181 273.585034 
L 155.076046 273.557838 
L 164.883912 273.483373 
L 184.499642 273.396281 
L 204.115372 273.283612 
L 223.731103 273.17159 
L 243.346833 273.055684 
L 262.962563 272.945281 
L 282.578294 272.830993 
L 302.194024 272.728199 
L 321.809754 272.632527 
L 341.425485 272.531352 
L 361.041215 272.447821 
L 380.656945 272.358949 
L 400.272676 272.271209 
L 419.888406 272.18266 
L 439.504136 272.05866 
L 459.119867 271.95797 
L 478.735597 271.873306 
L 498.351327 271.782005 
L 517.967058 271.687467 
L 537.582788 271.586453 
L 557.198518 271.482687 
L 576.814249 271.376494 
L 596.429979 271.263825 
L 616.045709 271.138529 
L 635.66144 271.002873 
L 655.27717 270.850543 
L 674.8929 270.674254 
L 694.508631 270.484368 
L 714.124361 270.257897 
L 733.740091 269.982861 
L 753.355822 269.631256 
L 772.971552 269.169086 
L 792.587282 268.606388 
L 812.203013 267.864974 
L 831.818743 266.940149 
L 851.434473 265.664042 
L 871.050204 263.906178 
L 890.665934 261.496581 
L 910.281664 258.372605 
L 929.897395 254.304215 
L 949.513125 250.502767 
" clip-path="url(#pd81774b155)" style="fill: none; stroke: #e4d354; stroke-linecap: square"/>
   </g>
   <g id="line2d_14">
    <path d="M 76.613125 273.852921 
L 86.42099 273.849388 
L 96.228855 273.836433 
L 106.036721 273.7765 
L 115.844586 273.764723 
L 125.652451 273.736981 
L 135.460316 273.727297 
L 145.268181 273.703481 
L 155.076046 273.680581 
L 164.883912 273.604814 
L 184.499642 273.518121 
L 204.115372 273.413042 
L 223.731103 273.322619 
L 243.346833 273.238019 
L 262.962563 273.151457 
L 282.578294 273.062146 
L 302.194024 272.979444 
L 321.809754 272.902695 
L 341.425485 272.803898 
L 361.041215 272.714195 
L 380.656945 272.622987 
L 400.272676 272.532498 
L 419.888406 272.445085 
L 439.504136 272.328818 
L 459.119867 272.233815 
L 478.735597 272.14457 
L 498.351327 272.049829 
L 517.967058 271.951685 
L 537.582788 271.852495 
L 557.198518 271.751407 
L 576.814249 271.644954 
L 596.429979 271.531173 
L 616.045709 271.407512 
L 635.66144 271.271878 
L 655.27717 271.125513 
L 674.8929 270.949378 
L 694.508631 270.746025 
L 714.124361 270.519313 
L 733.740091 270.254719 
L 753.355822 269.926003 
L 772.971552 269.490442 
L 792.587282 268.916499 
L 812.203013 268.194556 
L 831.818743 267.249238 
L 851.434473 265.992347 
L 871.050204 264.239831 
L 890.665934 261.830408 
L 910.281664 258.710688 
L 929.897395 254.715463 
L 949.513125 250.95094 
" clip-path="url(#pd81774b155)" style="fill: none; stroke: #2b908f; stroke-linecap: square"/>
   </g>
   <g id="line2d_15">
    <path d="M 76.613125 273.881018 
L 86.42099 273.878375 
L 96.228855 273.869123 
L 106.036721 273.835419 
L 115.844586 273.827709 
L 125.652451 273.812069 
L 135.460316 273.807883 
L 145.268181 273.791142 
L 155.076046 273.778585 
L 164.883912 273.727038 
L 184.499642 273.667892 
L 204.115372 273.599272 
L 223.731103 273.534949 
L 243.346833 273.467872 
L 262.962563 273.38978 
L 282.578294 273.314332 
L 302.194024 273.242409 
L 321.809754 273.172909 
L 341.425485 273.093826 
L 361.041215 273.025868 
L 380.656945 272.95813 
L 400.272676 272.891383 
L 419.888406 272.821222 
L 439.504136 272.731125 
L 459.119867 272.662946 
L 478.735597 272.594107 
L 498.351327 272.527801 
L 517.967058 272.446295 
L 537.582788 272.376684 
L 557.198518 272.303329 
L 576.814249 272.223475 
L 596.429979 272.141529 
L 616.045709 272.050661 
L 635.66144 271.955497 
L 655.27717 271.853064 
L 674.8929 271.730365 
L 694.508631 271.604692 
L 714.124361 271.45688 
L 733.740091 271.276465 
L 753.355822 271.064991 
L 772.971552 270.77212 
L 792.587282 270.406776 
L 812.203013 269.974134 
L 831.818743 269.415708 
L 851.434473 268.653739 
L 871.050204 267.571473 
L 890.665934 266.057666 
L 910.281664 264.093375 
L 929.897395 261.532549 
L 949.513125 259.098497 
" clip-path="url(#pd81774b155)" style="fill: none; stroke: #f45b5b; stroke-linecap: square"/>
   </g>
   <g id="line2d_16">
    <path d="M 76.613125 273.795931 
L 86.42099 273.787784 
L 96.228855 273.774517 
L 106.036721 273.702824 
L 115.844586 273.690254 
L 125.652451 273.656037 
L 135.460316 273.645563 
L 145.268181 273.6167 
L 155.076046 273.58481 
L 164.883912 273.490423 
L 184.499642 273.379509 
L 204.115372 273.256142 
L 223.731103 273.123231 
L 243.346833 272.982639 
L 262.962563 272.834016 
L 282.578294 272.67329 
L 302.194024 272.538633 
L 321.809754 272.423646 
L 341.425485 272.297485 
L 361.041215 272.181916 
L 380.656945 272.076937 
L 400.272676 271.966023 
L 419.888406 271.861277 
L 439.504136 271.722082 
L 459.119867 271.624552 
L 478.735597 271.52225 
L 498.351327 271.422393 
L 517.967058 271.310548 
L 537.582788 271.21069 
L 557.198518 271.095004 
L 576.814249 270.983741 
L 596.429979 270.878181 
L 616.045709 270.755046 
L 635.66144 270.61457 
L 655.27717 270.455706 
L 674.8929 270.288578 
L 694.508631 270.105273 
L 714.124361 269.905325 
L 733.740091 269.687454 
L 753.355822 269.406619 
L 772.971552 269.048273 
L 792.587282 268.596004 
L 812.203013 268.040269 
L 831.818743 267.316826 
L 851.434473 266.378769 
L 871.050204 265.064676 
L 890.665934 263.27364 
L 910.281664 260.902779 
L 929.897395 257.846065 
L 949.513125 255.003382 
" clip-path="url(#pd81774b155)" style="fill: none; stroke: #91e8e1; stroke-linecap: square"/>
   </g>
   <g id="line2d_17">
    <path d="M 76.613125 273.822361 
L 86.42099 273.816485 
L 96.228855 273.796793 
L 106.036721 273.720884 
L 115.844586 273.704368 
L 125.652451 273.667525 
L 135.460316 273.656727 
L 145.268181 273.623695 
L 155.076046 273.590822 
L 164.883912 273.477197 
L 184.499642 273.360395 
L 204.115372 273.212706 
L 223.731103 273.086772 
L 243.346833 272.970288 
L 262.962563 272.861348 
L 282.578294 272.738035 
L 302.194024 272.629491 
L 321.809754 272.518724 
L 341.425485 272.395411 
L 361.041215 272.280833 
L 380.656945 272.168398 
L 400.272676 272.061999 
L 419.888406 271.950993 
L 439.504136 271.786153 
L 459.119867 271.671416 
L 478.735597 271.566683 
L 498.351327 271.458775 
L 517.967058 271.344911 
L 537.582788 271.232556 
L 557.198518 271.114722 
L 576.814249 270.995459 
L 596.429979 270.879689 
L 616.045709 270.746769 
L 635.66144 270.598047 
L 655.27717 270.430983 
L 674.8929 270.245736 
L 694.508631 270.035716 
L 714.124361 269.795045 
L 733.740091 269.519359 
L 753.355822 269.18269 
L 772.971552 268.743354 
L 792.587282 268.174591 
L 812.203013 267.463141 
L 831.818743 266.523169 
L 851.434473 265.254946 
L 871.050204 263.509432 
L 890.665934 261.099633 
L 910.281664 257.960439 
L 929.897395 253.920736 
L 949.513125 250.116146 
" clip-path="url(#pd81774b155)" style="fill: none; stroke: #7cb5ec; stroke-linecap: square"/>
   </g>
   <g id="line2d_18">
    <path d="M 76.613125 273.711137 
L 86.42099 273.707857 
L 96.228855 273.695651 
L 106.036721 273.640267 
L 115.844586 273.624781 
L 125.652451 273.599458 
L 135.460316 273.592535 
L 145.268181 273.568851 
L 155.076046 273.547353 
L 164.883912 273.473296 
L 184.499642 273.391222 
L 204.115372 273.298308 
L 223.731103 273.196558 
L 243.346833 273.096539 
L 262.962563 272.990873 
L 282.578294 272.882656 
L 302.194024 272.783912 
L 321.809754 272.688448 
L 341.425485 272.595989 
L 361.041215 272.513642 
L 380.656945 272.42665 
L 400.272676 272.341205 
L 419.888406 272.251844 
L 439.504136 272.141076 
L 459.119867 272.051351 
L 478.735597 271.964085 
L 498.351327 271.874815 
L 517.967058 271.791739 
L 537.582788 271.700647 
L 557.198518 271.603634 
L 576.814249 271.510903 
L 596.429979 271.411795 
L 616.045709 271.313233 
L 635.66144 271.200553 
L 655.27717 271.075392 
L 674.8929 270.930829 
L 694.508631 270.782076 
L 714.124361 270.601623 
L 733.740091 270.396849 
L 753.355822 270.149261 
L 772.971552 269.815864 
L 792.587282 269.399483 
L 812.203013 268.876616 
L 831.818743 268.200532 
L 851.434473 267.299086 
L 871.050204 266.036734 
L 890.665934 264.27693 
L 910.281664 262.043812 
L 929.897395 259.088062 
L 949.513125 256.229506 
" clip-path="url(#pd81774b155)" style="fill: none; stroke: #434348; stroke-linecap: square"/>
   </g>
   <g id="line2d_19">
    <path d="M 32.968125 273.99006 
L 993.158125 273.99006 
" clip-path="url(#pd81774b155)" style="fill: none; stroke: #dedede; stroke-width: 2; stroke-linecap: square"/>
   </g>
   <g id="text_14">
    <!-- FastQC: Adapter Content -->
    <g transform="translate(413.765625 19.3575)scale(0.16 -0.16)">
     <defs>
      <path id="DejaVuSans-46" d="M 628 4666 
L 3309 4666 
L 3309 4134 
L 1259 4134 
L 1259 2759 
L 3109 2759 
L 3109 2228 
L 1259 2228 
L 1259 0 
L 628 0 
L 628 4666 
z
" transform="scale(0.015625)"/>
      <path id="DejaVuSans-61" d="M 2194 1759 
Q 1497 1759 1228 1600 
Q 959 1441 959 1056 
Q 959 750 1161 570 
Q 1363 391 1709 391 
Q 2188 391 2477 730 
Q 2766 1069 2766 1631 
L 2766 1759 
L 2194 1759 
z
M 3341 1997 
L 3341 0 
L 2766 0 
L 2766 531 
Q 2569 213 2275 61 
Q 1981 -91 1556 -91 
Q 1019 -91 701 211 
Q 384 513 384 1019 
Q 384 1609 779 1909 
Q 1175 2209 1959 2209 
L 2766 2209 
L 2766 2266 
Q 2766 2663 2505 2880 
Q 2244 3097 1772 3097 
Q 1472 3097 1187 3025 
Q 903 2953 641 2809 
L 641 3341 
Q 956 3463 1253 3523 
Q 1550 3584 1831 3584 
Q 2591 3584 2966 3190 
Q 3341 2797 3341 1997 
z
" transform="scale(0.015625)"/>
      <path id="DejaVuSans-51" d="M 2522 4238 
Q 1834 4238 1429 3725 
Q 1025 3213 1025 2328 
Q 1025 1447 1429 934 
Q 1834 422 2522 422 
Q 3209 422 3611 934 
Q 4013 1447 4013 2328 
Q 4013 3213 3611 3725 
Q 3209 4238 2522 4238 
z
M 3406 84 
L 4238 -825 
L 3475 -825 
L 2784 -78 
Q 2681 -84 2626 -87 
Q 2572 -91 2522 -91 
Q 1538 -91 948 567 
Q 359 1225 359 2328 
Q 359 3434 948 4092 
Q 1538 4750 2522 4750 
Q 3503 4750 4090 4092 
Q 4678 3434 4678 2328 
Q 4678 1516 4351 937 
Q 4025 359 3406 84 
z
" transform="scale(0.015625)"/>
      <path id="DejaVuSans-43" d="M 4122 4306 
L 4122 3641 
Q 3803 3938 3442 4084 
Q 3081 4231 2675 4231 
Q 1875 4231 1450 3742 
Q 1025 3253 1025 2328 
Q 1025 1406 1450 917 
Q 1875 428 2675 428 
Q 3081 428 3442 575 
Q 3803 722 4122 1019 
L 4122 359 
Q 3791 134 3420 21 
Q 3050 -91 2638 -91 
Q 1578 -91 968 557 
Q 359 1206 359 2328 
Q 359 3453 968 4101 
Q 1578 4750 2638 4750 
Q 3056 4750 3426 4639 
Q 3797 4528 4122 4306 
z
" transform="scale(0.015625)"/>
      <path id="DejaVuSans-3a" d="M 750 794 
L 1409 794 
L 1409 0 
L 750 0 
L 750 794 
z
M 750 3309 
L 1409 3309 
L 1409 2516 
L 750 2516 
L 750 3309 
z
" transform="scale(0.015625)"/>
      <path id="DejaVuSans-41" d="M 2188 4044 
L 1331 1722 
L 3047 1722 
L 2188 4044 
z
M 1831 4666 
L 2547 4666 
L 4325 0 
L 3669 0 
L 3244 1197 
L 1141 1197 
L 716 0 
L 50 0 
L 1831 4666 
z
" transform="scale(0.015625)"/>
      <path id="DejaVuSans-64" d="M 2906 2969 
L 2906 4863 
L 3481 4863 
L 3481 0 
L 2906 0 
L 2906 525 
Q 2725 213 2448 61 
Q 2172 -91 1784 -91 
Q 1150 -91 751 415 
Q 353 922 353 1747 
Q 353 2572 751 3078 
Q 1150 3584 1784 3584 
Q 2172 3584 2448 3432 
Q 2725 3281 2906 2969 
z
M 947 1747 
Q 947 1113 1208 752 
Q 1469 391 1925 391 
Q 2381 391 2643 752 
Q 2906 1113 2906 1747 
Q 2906 2381 2643 2742 
Q 2381 3103 1925 3103 
Q 1469 3103 1208 2742 
Q 947 2381 947 1747 
z
" transform="scale(0.015625)"/>
      <path id="DejaVuSans-72" d="M 2631 2963 
Q 2534 3019 2420 3045 
Q 2306 3072 2169 3072 
Q 1681 3072 1420 2755 
Q 1159 2438 1159 1844 
L 1159 0 
L 581 0 
L 581 3500 
L 1159 3500 
L 1159 2956 
Q 1341 3275 1631 3429 
Q 1922 3584 2338 3584 
Q 2397 3584 2469 3576 
Q 2541 3569 2628 3553 
L 2631 2963 
z
" transform="scale(0.015625)"/>
     </defs>
     <use xlink:href="#DejaVuSans-46"/>
     <use xlink:href="#DejaVuSans-61" x="48.394531"/>
     <use xlink:href="#DejaVuSans-73" x="109.673828"/>
     <use xlink:href="#DejaVuSans-74" x="161.773438"/>
     <use xlink:href="#DejaVuSans-51" x="200.982422"/>
     <use xlink:href="#DejaVuSans-43" x="279.693359"/>
     <use xlink:href="#DejaVuSans-3a" x="349.517578"/>
     <use xlink:href="#DejaVuSans-20" x="383.208984"/>
     <use xlink:href="#DejaVuSans-41" x="414.996094"/>
     <use xlink:href="#DejaVuSans-64" x="481.654297"/>
     <use xlink:href="#DejaVuSans-61" x="545.130859"/>
     <use xlink:href="#DejaVuSans-70" x="606.410156"/>
     <use xlink:href="#DejaVuSans-74" x="669.886719"/>
     <use xlink:href="#DejaVuSans-65" x="709.095703"/>
     <use xlink:href="#DejaVuSans-72" x="770.619141"/>
     <use xlink:href="#DejaVuSans-20" x="811.732422"/>
     <use xlink:href="#DejaVuSans-43" x="843.519531"/>
     <use xlink:href="#DejaVuSans-6f" x="913.34375"/>
     <use xlink:href="#DejaVuSans-6e" x="974.525391"/>
     <use xlink:href="#DejaVuSans-74" x="1037.904297"/>
     <use xlink:href="#DejaVuSans-65" x="1077.113281"/>
     <use xlink:href="#DejaVuSans-6e" x="1138.636719"/>
     <use xlink:href="#DejaVuSans-74" x="1202.015625"/>
    </g>
   </g>
   <g id="legend_1">
    <g id="line2d_20">
     <path d="M 40.168125 291.525394 
L 48.168125 291.525394 
L 56.168125 291.525394 
" style="fill: none; stroke: #7cb5ec; stroke-linecap: square"/>
    </g>
    <g id="text_15">
     <!-- SRR2155413 - illumina_universal_adapter -->
     <g transform="translate(62.568125 294.325394)scale(0.08 -0.08)">
      <defs>
       <path id="DejaVuSans-52" d="M 2841 2188 
Q 3044 2119 3236 1894 
Q 3428 1669 3622 1275 
L 4263 0 
L 3584 0 
L 2988 1197 
Q 2756 1666 2539 1819 
Q 2322 1972 1947 1972 
L 1259 1972 
L 1259 0 
L 628 0 
L 628 4666 
L 2053 4666 
Q 2853 4666 3247 4331 
Q 3641 3997 3641 3322 
Q 3641 2881 3436 2590 
Q 3231 2300 2841 2188 
z
M 1259 4147 
L 1259 2491 
L 2053 2491 
Q 2509 2491 2742 2702 
Q 2975 2913 2975 3322 
Q 2975 3731 2742 3939 
Q 2509 4147 2053 4147 
L 1259 4147 
z
" transform="scale(0.015625)"/>
       <path id="DejaVuSans-2d" d="M 313 2009 
L 1997 2009 
L 1997 1497 
L 313 1497 
L 313 2009 
z
" transform="scale(0.015625)"/>
       <path id="DejaVuSans-6c" d="M 603 4863 
L 1178 4863 
L 1178 0 
L 603 0 
L 603 4863 
z
" transform="scale(0.015625)"/>
       <path id="DejaVuSans-6d" d="M 3328 2828 
Q 3544 3216 3844 3400 
Q 4144 3584 4550 3584 
Q 5097 3584 5394 3201 
Q 5691 2819 5691 2113 
L 5691 0 
L 5113 0 
L 5113 2094 
Q 5113 2597 4934 2840 
Q 4756 3084 4391 3084 
Q 3944 3084 3684 2787 
Q 3425 2491 3425 1978 
L 3425 0 
L 2847 0 
L 2847 2094 
Q 2847 2600 2669 2842 
Q 2491 3084 2119 3084 
Q 1678 3084 1418 2786 
Q 1159 2488 1159 1978 
L 1159 0 
L 581 0 
L 581 3500 
L 1159 3500 
L 1159 2956 
Q 1356 3278 1631 3431 
Q 1906 3584 2284 3584 
Q 2666 3584 2933 3390 
Q 3200 3197 3328 2828 
z
" transform="scale(0.015625)"/>
       <path id="DejaVuSans-5f" d="M 3263 -1063 
L 3263 -1509 
L -63 -1509 
L -63 -1063 
L 3263 -1063 
z
" transform="scale(0.015625)"/>
       <path id="DejaVuSans-76" d="M 191 3500 
L 800 3500 
L 1894 563 
L 2988 3500 
L 3597 3500 
L 2284 0 
L 1503 0 
L 191 3500 
z
" transform="scale(0.015625)"/>
      </defs>
      <use xlink:href="#DejaVuSans-53"/>
      <use xlink:href="#DejaVuSans-52" x="63.476562"/>
      <use xlink:href="#DejaVuSans-52" x="132.958984"/>
      <use xlink:href="#DejaVuSans-32" x="202.441406"/>
      <use xlink:href="#DejaVuSans-31" x="266.064453"/>
      <use xlink:href="#DejaVuSans-35" x="329.6875"/>
      <use xlink:href="#DejaVuSans-35" x="393.310547"/>
      <use xlink:href="#DejaVuSans-34" x="456.933594"/>
      <use xlink:href="#DejaVuSans-31" x="520.556641"/>
      <use xlink:href="#DejaVuSans-33" x="584.179688"/>
      <use xlink:href="#DejaVuSans-20" x="647.802734"/>
      <use xlink:href="#DejaVuSans-2d" x="679.589844"/>
      <use xlink:href="#DejaVuSans-20" x="715.673828"/>
      <use xlink:href="#DejaVuSans-69" x="747.460938"/>
      <use xlink:href="#DejaVuSans-6c" x="775.244141"/>
      <use xlink:href="#DejaVuSans-6c" x="803.027344"/>
      <use xlink:href="#DejaVuSans-75" x="830.810547"/>
      <use xlink:href="#DejaVuSans-6d" x="894.189453"/>
      <use xlink:href="#DejaVuSans-69" x="991.601562"/>
      <use xlink:href="#DejaVuSans-6e" x="1019.384766"/>
      <use xlink:href="#DejaVuSans-61" x="1082.763672"/>
      <use xlink:href="#DejaVuSans-5f" x="1144.042969"/>
      <use xlink:href="#DejaVuSans-75" x="1194.042969"/>
      <use xlink:href="#DejaVuSans-6e" x="1257.421875"/>
      <use xlink:href="#DejaVuSans-69" x="1320.800781"/>
      <use xlink:href="#DejaVuSans-76" x="1348.583984"/>
      <use xlink:href="#DejaVuSans-65" x="1407.763672"/>
      <use xlink:href="#DejaVuSans-72" x="1469.287109"/>
      <use xlink:href="#DejaVuSans-73" x="1510.400391"/>
      <use xlink:href="#DejaVuSans-61" x="1562.5"/>
      <use xlink:href="#DejaVuSans-6c" x="1623.779297"/>
      <use xlink:href="#DejaVuSans-5f" x="1651.5625"/>
      <use xlink:href="#DejaVuSans-61" x="1701.5625"/>
      <use xlink:href="#DejaVuSans-64" x="1762.841797"/>
      <use xlink:href="#DejaVuSans-61" x="1826.318359"/>
      <use xlink:href="#DejaVuSans-70" x="1887.597656"/>
      <use xlink:href="#DejaVuSans-74" x="1951.074219"/>
      <use xlink:href="#DejaVuSans-65" x="1990.283203"/>
      <use xlink:href="#DejaVuSans-72" x="2051.806641"/>
     </g>
    </g>
    <g id="line2d_21">
     <path d="M 40.168125 303.490394 
L 48.168125 303.490394 
L 56.168125 303.490394 
" style="fill: none; stroke: #434348; stroke-linecap: square"/>
    </g>
    <g id="text_16">
     <!-- SRR2155414 - illumina_universal_adapter -->
     <g transform="translate(62.568125 306.290394)scale(0.08 -0.08)">
      <use xlink:href="#DejaVuSans-53"/>
      <use xlink:href="#DejaVuSans-52" x="63.476562"/>
      <use xlink:href="#DejaVuSans-52" x="132.958984"/>
      <use xlink:href="#DejaVuSans-32" x="202.441406"/>
      <use xlink:href="#DejaVuSans-31" x="266.064453"/>
      <use xlink:href="#DejaVuSans-35" x="329.6875"/>
      <use xlink:href="#DejaVuSans-35" x="393.310547"/>
      <use xlink:href="#DejaVuSans-34" x="456.933594"/>
      <use xlink:href="#DejaVuSans-31" x="520.556641"/>
      <use xlink:href="#DejaVuSans-34" x="584.179688"/>
      <use xlink:href="#DejaVuSans-20" x="647.802734"/>
      <use xlink:href="#DejaVuSans-2d" x="679.589844"/>
      <use xlink:href="#DejaVuSans-20" x="715.673828"/>
      <use xlink:href="#DejaVuSans-69" x="747.460938"/>
      <use xlink:href="#DejaVuSans-6c" x="775.244141"/>
      <use xlink:href="#DejaVuSans-6c" x="803.027344"/>
      <use xlink:href="#DejaVuSans-75" x="830.810547"/>
      <use xlink:href="#DejaVuSans-6d" x="894.189453"/>
      <use xlink:href="#DejaVuSans-69" x="991.601562"/>
      <use xlink:href="#DejaVuSans-6e" x="1019.384766"/>
      <use xlink:href="#DejaVuSans-61" x="1082.763672"/>
      <use xlink:href="#DejaVuSans-5f" x="1144.042969"/>
      <use xlink:href="#DejaVuSans-75" x="1194.042969"/>
      <use xlink:href="#DejaVuSans-6e" x="1257.421875"/>
      <use xlink:href="#DejaVuSans-69" x="1320.800781"/>
      <use xlink:href="#DejaVuSans-76" x="1348.583984"/>
      <use xlink:href="#DejaVuSans-65" x="1407.763672"/>
      <use xlink:href="#DejaVuSans-72" x="1469.287109"/>
      <use xlink:href="#DejaVuSans-73" x="1510.400391"/>
      <use xlink:href="#DejaVuSans-61" x="1562.5"/>
      <use xlink:href="#DejaVuSans-6c" x="1623.779297"/>
      <use xlink:href="#DejaVuSans-5f" x="1651.5625"/>
      <use xlink:href="#DejaVuSans-61" x="1701.5625"/>
      <use xlink:href="#DejaVuSans-64" x="1762.841797"/>
      <use xlink:href="#DejaVuSans-61" x="1826.318359"/>
      <use xlink:href="#DejaVuSans-70" x="1887.597656"/>
      <use xlink:href="#DejaVuSans-74" x="1951.074219"/>
      <use xlink:href="#DejaVuSans-65" x="1990.283203"/>
      <use xlink:href="#DejaVuSans-72" x="2051.806641"/>
     </g>
    </g>
    <g id="line2d_22">
     <path d="M 40.168125 315.455394 
L 48.168125 315.455394 
L 56.168125 315.455394 
" style="fill: none; stroke: #90ed7d; stroke-linecap: square"/>
    </g>
    <g id="text_17">
     <!-- SRR2155415 - illumina_universal_adapter -->
     <g transform="translate(62.568125 318.255394)scale(0.08 -0.08)">
      <use xlink:href="#DejaVuSans-53"/>
      <use xlink:href="#DejaVuSans-52" x="63.476562"/>
      <use xlink:href="#DejaVuSans-52" x="132.958984"/>
      <use xlink:href="#DejaVuSans-32" x="202.441406"/>
      <use xlink:href="#DejaVuSans-31" x="266.064453"/>
      <use xlink:href="#DejaVuSans-35" x="329.6875"/>
      <use xlink:href="#DejaVuSans-35" x="393.310547"/>
      <use xlink:href="#DejaVuSans-34" x="456.933594"/>
      <use xlink:href="#DejaVuSans-31" x="520.556641"/>
      <use xlink:href="#DejaVuSans-35" x="584.179688"/>
      <use xlink:href="#DejaVuSans-20" x="647.802734"/>
      <use xlink:href="#DejaVuSans-2d" x="679.589844"/>
      <use xlink:href="#DejaVuSans-20" x="715.673828"/>
      <use xlink:href="#DejaVuSans-69" x="747.460938"/>
      <use xlink:href="#DejaVuSans-6c" x="775.244141"/>
      <use xlink:href="#DejaVuSans-6c" x="803.027344"/>
      <use xlink:href="#DejaVuSans-75" x="830.810547"/>
      <use xlink:href="#DejaVuSans-6d" x="894.189453"/>
      <use xlink:href="#DejaVuSans-69" x="991.601562"/>
      <use xlink:href="#DejaVuSans-6e" x="1019.384766"/>
      <use xlink:href="#DejaVuSans-61" x="1082.763672"/>
      <use xlink:href="#DejaVuSans-5f" x="1144.042969"/>
      <use xlink:href="#DejaVuSans-75" x="1194.042969"/>
      <use xlink:href="#DejaVuSans-6e" x="1257.421875"/>
      <use xlink:href="#DejaVuSans-69" x="1320.800781"/>
      <use xlink:href="#DejaVuSans-76" x="1348.583984"/>
      <use xlink:href="#DejaVuSans-65" x="1407.763672"/>
      <use xlink:href="#DejaVuSans-72" x="1469.287109"/>
      <use xlink:href="#DejaVuSans-73" x="1510.400391"/>
      <use xlink:href="#DejaVuSans-61" x="1562.5"/>
      <use xlink:href="#DejaVuSans-6c" x="1623.779297"/>
      <use xlink:href="#DejaVuSans-5f" x="1651.5625"/>
      <use xlink:href="#DejaVuSans-61" x="1701.5625"/>
      <use xlink:href="#DejaVuSans-64" x="1762.841797"/>
      <use xlink:href="#DejaVuSans-61" x="1826.318359"/>
      <use xlink:href="#DejaVuSans-70" x="1887.597656"/>
      <use xlink:href="#DejaVuSans-74" x="1951.074219"/>
      <use xlink:href="#DejaVuSans-65" x="1990.283203"/>
      <use xlink:href="#DejaVuSans-72" x="2051.806641"/>
     </g>
    </g>
    <g id="line2d_23">
     <path d="M 229.157188 291.525394 
L 237.157188 291.525394 
L 245.157188 291.525394 
" style="fill: none; stroke: #f7a35c; stroke-linecap: square"/>
    </g>
    <g id="text_18">
     <!-- SRR2155416 - illumina_universal_adapter -->
     <g transform="translate(251.557188 294.325394)scale(0.08 -0.08)">
      <use xlink:href="#DejaVuSans-53"/>
      <use xlink:href="#DejaVuSans-52" x="63.476562"/>
      <use xlink:href="#DejaVuSans-52" x="132.958984"/>
      <use xlink:href="#DejaVuSans-32" x="202.441406"/>
      <use xlink:href="#DejaVuSans-31" x="266.064453"/>
      <use xlink:href="#DejaVuSans-35" x="329.6875"/>
      <use xlink:href="#DejaVuSans-35" x="393.310547"/>
      <use xlink:href="#DejaVuSans-34" x="456.933594"/>
      <use xlink:href="#DejaVuSans-31" x="520.556641"/>
      <use xlink:href="#DejaVuSans-36" x="584.179688"/>
      <use xlink:href="#DejaVuSans-20" x="647.802734"/>
      <use xlink:href="#DejaVuSans-2d" x="679.589844"/>
      <use xlink:href="#DejaVuSans-20" x="715.673828"/>
      <use xlink:href="#DejaVuSans-69" x="747.460938"/>
      <use xlink:href="#DejaVuSans-6c" x="775.244141"/>
      <use xlink:href="#DejaVuSans-6c" x="803.027344"/>
      <use xlink:href="#DejaVuSans-75" x="830.810547"/>
      <use xlink:href="#DejaVuSans-6d" x="894.189453"/>
      <use xlink:href="#DejaVuSans-69" x="991.601562"/>
      <use xlink:href="#DejaVuSans-6e" x="1019.384766"/>
      <use xlink:href="#DejaVuSans-61" x="1082.763672"/>
      <use xlink:href="#DejaVuSans-5f" x="1144.042969"/>
      <use xlink:href="#DejaVuSans-75" x="1194.042969"/>
      <use xlink:href="#DejaVuSans-6e" x="1257.421875"/>
      <use xlink:href="#DejaVuSans-69" x="1320.800781"/>
      <use xlink:href="#DejaVuSans-76" x="1348.583984"/>
      <use xlink:href="#DejaVuSans-65" x="1407.763672"/>
      <use xlink:href="#DejaVuSans-72" x="1469.287109"/>
      <use xlink:href="#DejaVuSans-73" x="1510.400391"/>
      <use xlink:href="#DejaVuSans-61" x="1562.5"/>
      <use xlink:href="#DejaVuSans-6c" x="1623.779297"/>
      <use xlink:href="#DejaVuSans-5f" x="1651.5625"/>
      <use xlink:href="#DejaVuSans-61" x="1701.5625"/>
      <use xlink:href="#DejaVuSans-64" x="1762.841797"/>
      <use xlink:href="#DejaVuSans-61" x="1826.318359"/>
      <use xlink:href="#DejaVuSans-70" x="1887.597656"/>
      <use xlink:href="#DejaVuSans-74" x="1951.074219"/>
      <use xlink:href="#DejaVuSans-65" x="1990.283203"/>
      <use xlink:href="#DejaVuSans-72" x="2051.806641"/>
     </g>
    </g>
    <g id="line2d_24">
     <path d="M 229.157188 303.490394 
L 237.157188 303.490394 
L 245.157188 303.490394 
" style="fill: none; stroke: #8085e9; stroke-linecap: square"/>
    </g>
    <g id="text_19">
     <!-- SRR2155417 - illumina_universal_adapter -->
     <g transform="translate(251.557188 306.290394)scale(0.08 -0.08)">
      <defs>
       <path id="DejaVuSans-37" d="M 525 4666 
L 3525 4666 
L 3525 4397 
L 1831 0 
L 1172 0 
L 2766 4134 
L 525 4134 
L 525 4666 
z
" transform="scale(0.015625)"/>
      </defs>
      <use xlink:href="#DejaVuSans-53"/>
      <use xlink:href="#DejaVuSans-52" x="63.476562"/>
      <use xlink:href="#DejaVuSans-52" x="132.958984"/>
      <use xlink:href="#DejaVuSans-32" x="202.441406"/>
      <use xlink:href="#DejaVuSans-31" x="266.064453"/>
      <use xlink:href="#DejaVuSans-35" x="329.6875"/>
      <use xlink:href="#DejaVuSans-35" x="393.310547"/>
      <use xlink:href="#DejaVuSans-34" x="456.933594"/>
      <use xlink:href="#DejaVuSans-31" x="520.556641"/>
      <use xlink:href="#DejaVuSans-37" x="584.179688"/>
      <use xlink:href="#DejaVuSans-20" x="647.802734"/>
      <use xlink:href="#DejaVuSans-2d" x="679.589844"/>
      <use xlink:href="#DejaVuSans-20" x="715.673828"/>
      <use xlink:href="#DejaVuSans-69" x="747.460938"/>
      <use xlink:href="#DejaVuSans-6c" x="775.244141"/>
      <use xlink:href="#DejaVuSans-6c" x="803.027344"/>
      <use xlink:href="#DejaVuSans-75" x="830.810547"/>
      <use xlink:href="#DejaVuSans-6d" x="894.189453"/>
      <use xlink:href="#DejaVuSans-69" x="991.601562"/>
      <use xlink:href="#DejaVuSans-6e" x="1019.384766"/>
      <use xlink:href="#DejaVuSans-61" x="1082.763672"/>
      <use xlink:href="#DejaVuSans-5f" x="1144.042969"/>
      <use xlink:href="#DejaVuSans-75" x="1194.042969"/>
      <use xlink:href="#DejaVuSans-6e" x="1257.421875"/>
      <use xlink:href="#DejaVuSans-69" x="1320.800781"/>
      <use xlink:href="#DejaVuSans-76" x="1348.583984"/>
      <use xlink:href="#DejaVuSans-65" x="1407.763672"/>
      <use xlink:href="#DejaVuSans-72" x="1469.287109"/>
      <use xlink:href="#DejaVuSans-73" x="1510.400391"/>
      <use xlink:href="#DejaVuSans-61" x="1562.5"/>
      <use xlink:href="#DejaVuSans-6c" x="1623.779297"/>
      <use xlink:href="#DejaVuSans-5f" x="1651.5625"/>
      <use xlink:href="#DejaVuSans-61" x="1701.5625"/>
      <use xlink:href="#DejaVuSans-64" x="1762.841797"/>
      <use xlink:href="#DejaVuSans-61" x="1826.318359"/>
      <use xlink:href="#DejaVuSans-70" x="1887.597656"/>
      <use xlink:href="#DejaVuSans-74" x="1951.074219"/>
      <use xlink:href="#DejaVuSans-65" x="1990.283203"/>
      <use xlink:href="#DejaVuSans-72" x="2051.806641"/>
     </g>
    </g>
    <g id="line2d_25">
     <path d="M 229.157188 315.455394 
L 237.157188 315.455394 
L 245.157188 315.455394 
" style="fill: none; stroke: #f15c80; stroke-linecap: square"/>
    </g>
    <g id="text_20">
     <!-- SRR2155418 - illumina_universal_adapter -->
     <g transform="translate(251.557188 318.255394)scale(0.08 -0.08)">
      <use xlink:href="#DejaVuSans-53"/>
      <use xlink:href="#DejaVuSans-52" x="63.476562"/>
      <use xlink:href="#DejaVuSans-52" x="132.958984"/>
      <use xlink:href="#DejaVuSans-32" x="202.441406"/>
      <use xlink:href="#DejaVuSans-31" x="266.064453"/>
      <use xlink:href="#DejaVuSans-35" x="329.6875"/>
      <use xlink:href="#DejaVuSans-35" x="393.310547"/>
      <use xlink:href="#DejaVuSans-34" x="456.933594"/>
      <use xlink:href="#DejaVuSans-31" x="520.556641"/>
      <use xlink:href="#DejaVuSans-38" x="584.179688"/>
      <use xlink:href="#DejaVuSans-20" x="647.802734"/>
      <use xlink:href="#DejaVuSans-2d" x="679.589844"/>
      <use xlink:href="#DejaVuSans-20" x="715.673828"/>
      <use xlink:href="#DejaVuSans-69" x="747.460938"/>
      <use xlink:href="#DejaVuSans-6c" x="775.244141"/>
      <use xlink:href="#DejaVuSans-6c" x="803.027344"/>
      <use xlink:href="#DejaVuSans-75" x="830.810547"/>
      <use xlink:href="#DejaVuSans-6d" x="894.189453"/>
      <use xlink:href="#DejaVuSans-69" x="991.601562"/>
      <use xlink:href="#DejaVuSans-6e" x="1019.384766"/>
      <use xlink:href="#DejaVuSans-61" x="1082.763672"/>
      <use xlink:href="#DejaVuSans-5f" x="1144.042969"/>
      <use xlink:href="#DejaVuSans-75" x="1194.042969"/>
      <use xlink:href="#DejaVuSans-6e" x="1257.421875"/>
      <use xlink:href="#DejaVuSans-69" x="1320.800781"/>
      <use xlink:href="#DejaVuSans-76" x="1348.583984"/>
      <use xlink:href="#DejaVuSans-65" x="1407.763672"/>
      <use xlink:href="#DejaVuSans-72" x="1469.287109"/>
      <use xlink:href="#DejaVuSans-73" x="1510.400391"/>
      <use xlink:href="#DejaVuSans-61" x="1562.5"/>
      <use xlink:href="#DejaVuSans-6c" x="1623.779297"/>
      <use xlink:href="#DejaVuSans-5f" x="1651.5625"/>
      <use xlink:href="#DejaVuSans-61" x="1701.5625"/>
      <use xlink:href="#DejaVuSans-64" x="1762.841797"/>
      <use xlink:href="#DejaVuSans-61" x="1826.318359"/>
      <use xlink:href="#DejaVuSans-70" x="1887.597656"/>
      <use xlink:href="#DejaVuSans-74" x="1951.074219"/>
      <use xlink:href="#DejaVuSans-65" x="1990.283203"/>
      <use xlink:href="#DejaVuSans-72" x="2051.806641"/>
     </g>
    </g>
    <g id="line2d_26">
     <path d="M 418.14625 291.525394 
L 426.14625 291.525394 
L 434.14625 291.525394 
" style="fill: none; stroke: #e4d354; stroke-linecap: square"/>
    </g>
    <g id="text_21">
     <!-- SRR2155419 - illumina_universal_adapter -->
     <g transform="translate(440.54625 294.325394)scale(0.08 -0.08)">
      <defs>
       <path id="DejaVuSans-39" d="M 703 97 
L 703 672 
Q 941 559 1184 500 
Q 1428 441 1663 441 
Q 2288 441 2617 861 
Q 2947 1281 2994 2138 
Q 2813 1869 2534 1725 
Q 2256 1581 1919 1581 
Q 1219 1581 811 2004 
Q 403 2428 403 3163 
Q 403 3881 828 4315 
Q 1253 4750 1959 4750 
Q 2769 4750 3195 4129 
Q 3622 3509 3622 2328 
Q 3622 1225 3098 567 
Q 2575 -91 1691 -91 
Q 1453 -91 1209 -44 
Q 966 3 703 97 
z
M 1959 2075 
Q 2384 2075 2632 2365 
Q 2881 2656 2881 3163 
Q 2881 3666 2632 3958 
Q 2384 4250 1959 4250 
Q 1534 4250 1286 3958 
Q 1038 3666 1038 3163 
Q 1038 2656 1286 2365 
Q 1534 2075 1959 2075 
z
" transform="scale(0.015625)"/>
      </defs>
      <use xlink:href="#DejaVuSans-53"/>
      <use xlink:href="#DejaVuSans-52" x="63.476562"/>
      <use xlink:href="#DejaVuSans-52" x="132.958984"/>
      <use xlink:href="#DejaVuSans-32" x="202.441406"/>
      <use xlink:href="#DejaVuSans-31" x="266.064453"/>
      <use xlink:href="#DejaVuSans-35" x="329.6875"/>
      <use xlink:href="#DejaVuSans-35" x="393.310547"/>
      <use xlink:href="#DejaVuSans-34" x="456.933594"/>
      <use xlink:href="#DejaVuSans-31" x="520.556641"/>
      <use xlink:href="#DejaVuSans-39" x="584.179688"/>
      <use xlink:href="#DejaVuSans-20" x="647.802734"/>
      <use xlink:href="#DejaVuSans-2d" x="679.589844"/>
      <use xlink:href="#DejaVuSans-20" x="715.673828"/>
      <use xlink:href="#DejaVuSans-69" x="747.460938"/>
      <use xlink:href="#DejaVuSans-6c" x="775.244141"/>
      <use xlink:href="#DejaVuSans-6c" x="803.027344"/>
      <use xlink:href="#DejaVuSans-75" x="830.810547"/>
      <use xlink:href="#DejaVuSans-6d" x="894.189453"/>
      <use xlink:href="#DejaVuSans-69" x="991.601562"/>
      <use xlink:href="#DejaVuSans-6e" x="1019.384766"/>
      <use xlink:href="#DejaVuSans-61" x="1082.763672"/>
      <use xlink:href="#DejaVuSans-5f" x="1144.042969"/>
      <use xlink:href="#DejaVuSans-75" x="1194.042969"/>
      <use xlink:href="#DejaVuSans-6e" x="1257.421875"/>
      <use xlink:href="#DejaVuSans-69" x="1320.800781"/>
      <use xlink:href="#DejaVuSans-76" x="1348.583984"/>
      <use xlink:href="#DejaVuSans-65" x="1407.763672"/>
      <use xlink:href="#DejaVuSans-72" x="1469.287109"/>
      <use xlink:href="#DejaVuSans-73" x="1510.400391"/>
      <use xlink:href="#DejaVuSans-61" x="1562.5"/>
      <use xlink:href="#DejaVuSans-6c" x="1623.779297"/>
      <use xlink:href="#DejaVuSans-5f" x="1651.5625"/>
      <use xlink:href="#DejaVuSans-61" x="1701.5625"/>
      <use xlink:href="#DejaVuSans-64" x="1762.841797"/>
      <use xlink:href="#DejaVuSans-61" x="1826.318359"/>
      <use xlink:href="#DejaVuSans-70" x="1887.597656"/>
      <use xlink:href="#DejaVuSans-74" x="1951.074219"/>
      <use xlink:href="#DejaVuSans-65" x="1990.283203"/>
      <use xlink:href="#DejaVuSans-72" x="2051.806641"/>
     </g>
    </g>
    <g id="line2d_27">
     <path d="M 418.14625 303.490394 
L 426.14625 303.490394 
L 434.14625 303.490394 
" style="fill: none; stroke: #2b908f; stroke-linecap: square"/>
    </g>
    <g id="text_22">
     <!-- SRR2155420 - illumina_universal_adapter -->
     <g transform="translate(440.54625 306.290394)scale(0.08 -0.08)">
      <use xlink:href="#DejaVuSans-53"/>
      <use xlink:href="#DejaVuSans-52" x="63.476562"/>
      <use xlink:href="#DejaVuSans-52" x="132.958984"/>
      <use xlink:href="#DejaVuSans-32" x="202.441406"/>
      <use xlink:href="#DejaVuSans-31" x="266.064453"/>
      <use xlink:href="#DejaVuSans-35" x="329.6875"/>
      <use xlink:href="#DejaVuSans-35" x="393.310547"/>
      <use xlink:href="#DejaVuSans-34" x="456.933594"/>
      <use xlink:href="#DejaVuSans-32" x="520.556641"/>
      <use xlink:href="#DejaVuSans-30" x="584.179688"/>
      <use xlink:href="#DejaVuSans-20" x="647.802734"/>
      <use xlink:href="#DejaVuSans-2d" x="679.589844"/>
      <use xlink:href="#DejaVuSans-20" x="715.673828"/>
      <use xlink:href="#DejaVuSans-69" x="747.460938"/>
      <use xlink:href="#DejaVuSans-6c" x="775.244141"/>
      <use xlink:href="#DejaVuSans-6c" x="803.027344"/>
      <use xlink:href="#DejaVuSans-75" x="830.810547"/>
      <use xlink:href="#DejaVuSans-6d" x="894.189453"/>
      <use xlink:href="#DejaVuSans-69" x="991.601562"/>
      <use xlink:href="#DejaVuSans-6e" x="1019.384766"/>
      <use xlink:href="#DejaVuSans-61" x="1082.763672"/>
      <use xlink:href="#DejaVuSans-5f" x="1144.042969"/>
      <use xlink:href="#DejaVuSans-75" x="1194.042969"/>
      <use xlink:href="#DejaVuSans-6e" x="1257.421875"/>
      <use xlink:href="#DejaVuSans-69" x="1320.800781"/>
      <use xlink:href="#DejaVuSans-76" x="1348.583984"/>
      <use xlink:href="#DejaVuSans-65" x="1407.763672"/>
      <use xlink:href="#DejaVuSans-72" x="1469.287109"/>
      <use xlink:href="#DejaVuSans-73" x="1510.400391"/>
      <use xlink:href="#DejaVuSans-61" x="1562.5"/>
      <use xlink:href="#DejaVuSans-6c" x="1623.779297"/>
      <use xlink:href="#DejaVuSans-5f" x="1651.5625"/>
      <use xlink:href="#DejaVuSans-61" x="1701.5625"/>
      <use xlink:href="#DejaVuSans-64" x="1762.841797"/>
      <use xlink:href="#DejaVuSans-61" x="1826.318359"/>
      <use xlink:href="#DejaVuSans-70" x="1887.597656"/>
      <use xlink:href="#DejaVuSans-74" x="1951.074219"/>
      <use xlink:href="#DejaVuSans-65" x="1990.283203"/>
      <use xlink:href="#DejaVuSans-72" x="2051.806641"/>
     </g>
    </g>
    <g id="line2d_28">
     <path d="M 607.135313 291.525394 
L 615.135313 291.525394 
L 623.135313 291.525394 
" style="fill: none; stroke: #f45b5b; stroke-linecap: square"/>
    </g>
    <g id="text_23">
     <!-- SRR2155421 - illumina_universal_adapter -->
     <g transform="translate(629.535313 294.325394)scale(0.08 -0.08)">
      <use xlink:href="#DejaVuSans-53"/>
      <use xlink:href="#DejaVuSans-52" x="63.476562"/>
      <use xlink:href="#DejaVuSans-52" x="132.958984"/>
      <use xlink:href="#DejaVuSans-32" x="202.441406"/>
      <use xlink:href="#DejaVuSans-31" x="266.064453"/>
      <use xlink:href="#DejaVuSans-35" x="329.6875"/>
      <use xlink:href="#DejaVuSans-35" x="393.310547"/>
      <use xlink:href="#DejaVuSans-34" x="456.933594"/>
      <use xlink:href="#DejaVuSans-32" x="520.556641"/>
      <use xlink:href="#DejaVuSans-31" x="584.179688"/>
      <use xlink:href="#DejaVuSans-20" x="647.802734"/>
      <use xlink:href="#DejaVuSans-2d" x="679.589844"/>
      <use xlink:href="#DejaVuSans-20" x="715.673828"/>
      <use xlink:href="#DejaVuSans-69" x="747.460938"/>
      <use xlink:href="#DejaVuSans-6c" x="775.244141"/>
      <use xlink:href="#DejaVuSans-6c" x="803.027344"/>
      <use xlink:href="#DejaVuSans-75" x="830.810547"/>
      <use xlink:href="#DejaVuSans-6d" x="894.189453"/>
      <use xlink:href="#DejaVuSans-69" x="991.601562"/>
      <use xlink:href="#DejaVuSans-6e" x="1019.384766"/>
      <use xlink:href="#DejaVuSans-61" x="1082.763672"/>
      <use xlink:href="#DejaVuSans-5f" x="1144.042969"/>
      <use xlink:href="#DejaVuSans-75" x="1194.042969"/>
      <use xlink:href="#DejaVuSans-6e" x="1257.421875"/>
      <use xlink:href="#DejaVuSans-69" x="1320.800781"/>
      <use xlink:href="#DejaVuSans-76" x="1348.583984"/>
      <use xlink:href="#DejaVuSans-65" x="1407.763672"/>
      <use xlink:href="#DejaVuSans-72" x="1469.287109"/>
      <use xlink:href="#DejaVuSans-73" x="1510.400391"/>
      <use xlink:href="#DejaVuSans-61" x="1562.5"/>
      <use xlink:href="#DejaVuSans-6c" x="1623.779297"/>
      <use xlink:href="#DejaVuSans-5f" x="1651.5625"/>
      <use xlink:href="#DejaVuSans-61" x="1701.5625"/>
      <use xlink:href="#DejaVuSans-64" x="1762.841797"/>
      <use xlink:href="#DejaVuSans-61" x="1826.318359"/>
      <use xlink:href="#DejaVuSans-70" x="1887.597656"/>
      <use xlink:href="#DejaVuSans-74" x="1951.074219"/>
      <use xlink:href="#DejaVuSans-65" x="1990.283203"/>
      <use xlink:href="#DejaVuSans-72" x="2051.806641"/>
     </g>
    </g>
    <g id="line2d_29">
     <path d="M 607.135313 303.490394 
L 615.135313 303.490394 
L 623.135313 303.490394 
" style="fill: none; stroke: #91e8e1; stroke-linecap: square"/>
    </g>
    <g id="text_24">
     <!-- SRR2155422 - illumina_universal_adapter -->
     <g transform="translate(629.535313 306.290394)scale(0.08 -0.08)">
      <use xlink:href="#DejaVuSans-53"/>
      <use xlink:href="#DejaVuSans-52" x="63.476562"/>
      <use xlink:href="#DejaVuSans-52" x="132.958984"/>
      <use xlink:href="#DejaVuSans-32" x="202.441406"/>
      <use xlink:href="#DejaVuSans-31" x="266.064453"/>
      <use xlink:href="#DejaVuSans-35" x="329.6875"/>
      <use xlink:href="#DejaVuSans-35" x="393.310547"/>
      <use xlink:href="#DejaVuSans-34" x="456.933594"/>
      <use xlink:href="#DejaVuSans-32" x="520.556641"/>
      <use xlink:href="#DejaVuSans-32" x="584.179688"/>
      <use xlink:href="#DejaVuSans-20" x="647.802734"/>
      <use xlink:href="#DejaVuSans-2d" x="679.589844"/>
      <use xlink:href="#DejaVuSans-20" x="715.673828"/>
      <use xlink:href="#DejaVuSans-69" x="747.460938"/>
      <use xlink:href="#DejaVuSans-6c" x="775.244141"/>
      <use xlink:href="#DejaVuSans-6c" x="803.027344"/>
      <use xlink:href="#DejaVuSans-75" x="830.810547"/>
      <use xlink:href="#DejaVuSans-6d" x="894.189453"/>
      <use xlink:href="#DejaVuSans-69" x="991.601562"/>
      <use xlink:href="#DejaVuSans-6e" x="1019.384766"/>
      <use xlink:href="#DejaVuSans-61" x="1082.763672"/>
      <use xlink:href="#DejaVuSans-5f" x="1144.042969"/>
      <use xlink:href="#DejaVuSans-75" x="1194.042969"/>
      <use xlink:href="#DejaVuSans-6e" x="1257.421875"/>
      <use xlink:href="#DejaVuSans-69" x="1320.800781"/>
      <use xlink:href="#DejaVuSans-76" x="1348.583984"/>
      <use xlink:href="#DejaVuSans-65" x="1407.763672"/>
      <use xlink:href="#DejaVuSans-72" x="1469.287109"/>
      <use xlink:href="#DejaVuSans-73" x="1510.400391"/>
      <use xlink:href="#DejaVuSans-61" x="1562.5"/>
      <use xlink:href="#DejaVuSans-6c" x="1623.779297"/>
      <use xlink:href="#DejaVuSans-5f" x="1651.5625"/>
      <use xlink:href="#DejaVuSans-61" x="1701.5625"/>
      <use xlink:href="#DejaVuSans-64" x="1762.841797"/>
      <use xlink:href="#DejaVuSans-61" x="1826.318359"/>
      <use xlink:href="#DejaVuSans-70" x="1887.597656"/>
      <use xlink:href="#DejaVuSans-74" x="1951.074219"/>
      <use xlink:href="#DejaVuSans-65" x="1990.283203"/>
      <use xlink:href="#DejaVuSans-72" x="2051.806641"/>
     </g>
    </g>
    <g id="line2d_30">
     <path d="M 796.124375 291.525394 
L 804.124375 291.525394 
L 812.124375 291.525394 
" style="fill: none; stroke: #7cb5ec; stroke-linecap: square"/>
    </g>
    <g id="text_25">
     <!-- SRR2155423 - illumina_universal_adapter -->
     <g transform="translate(818.524375 294.325394)scale(0.08 -0.08)">
      <use xlink:href="#DejaVuSans-53"/>
      <use xlink:href="#DejaVuSans-52" x="63.476562"/>
      <use xlink:href="#DejaVuSans-52" x="132.958984"/>
      <use xlink:href="#DejaVuSans-32" x="202.441406"/>
      <use xlink:href="#DejaVuSans-31" x="266.064453"/>
      <use xlink:href="#DejaVuSans-35" x="329.6875"/>
      <use xlink:href="#DejaVuSans-35" x="393.310547"/>
      <use xlink:href="#DejaVuSans-34" x="456.933594"/>
      <use xlink:href="#DejaVuSans-32" x="520.556641"/>
      <use xlink:href="#DejaVuSans-33" x="584.179688"/>
      <use xlink:href="#DejaVuSans-20" x="647.802734"/>
      <use xlink:href="#DejaVuSans-2d" x="679.589844"/>
      <use xlink:href="#DejaVuSans-20" x="715.673828"/>
      <use xlink:href="#DejaVuSans-69" x="747.460938"/>
      <use xlink:href="#DejaVuSans-6c" x="775.244141"/>
      <use xlink:href="#DejaVuSans-6c" x="803.027344"/>
      <use xlink:href="#DejaVuSans-75" x="830.810547"/>
      <use xlink:href="#DejaVuSans-6d" x="894.189453"/>
      <use xlink:href="#DejaVuSans-69" x="991.601562"/>
      <use xlink:href="#DejaVuSans-6e" x="1019.384766"/>
      <use xlink:href="#DejaVuSans-61" x="1082.763672"/>
      <use xlink:href="#DejaVuSans-5f" x="1144.042969"/>
      <use xlink:href="#DejaVuSans-75" x="1194.042969"/>
      <use xlink:href="#DejaVuSans-6e" x="1257.421875"/>
      <use xlink:href="#DejaVuSans-69" x="1320.800781"/>
      <use xlink:href="#DejaVuSans-76" x="1348.583984"/>
      <use xlink:href="#DejaVuSans-65" x="1407.763672"/>
      <use xlink:href="#DejaVuSans-72" x="1469.287109"/>
      <use xlink:href="#DejaVuSans-73" x="1510.400391"/>
      <use xlink:href="#DejaVuSans-61" x="1562.5"/>
      <use xlink:href="#DejaVuSans-6c" x="1623.779297"/>
      <use xlink:href="#DejaVuSans-5f" x="1651.5625"/>
      <use xlink:href="#DejaVuSans-61" x="1701.5625"/>
      <use xlink:href="#DejaVuSans-64" x="1762.841797"/>
      <use xlink:href="#DejaVuSans-61" x="1826.318359"/>
      <use xlink:href="#DejaVuSans-70" x="1887.597656"/>
      <use xlink:href="#DejaVuSans-74" x="1951.074219"/>
      <use xlink:href="#DejaVuSans-65" x="1990.283203"/>
      <use xlink:href="#DejaVuSans-72" x="2051.806641"/>
     </g>
    </g>
    <g id="line2d_31">
     <path d="M 796.124375 303.490394 
L 804.124375 303.490394 
L 812.124375 303.490394 
" style="fill: none; stroke: #434348; stroke-linecap: square"/>
    </g>
    <g id="text_26">
     <!-- SRR2155424 - illumina_universal_adapter -->
     <g transform="translate(818.524375 306.290394)scale(0.08 -0.08)">
      <use xlink:href="#DejaVuSans-53"/>
      <use xlink:href="#DejaVuSans-52" x="63.476562"/>
      <use xlink:href="#DejaVuSans-52" x="132.958984"/>
      <use xlink:href="#DejaVuSans-32" x="202.441406"/>
      <use xlink:href="#DejaVuSans-31" x="266.064453"/>
      <use xlink:href="#DejaVuSans-35" x="329.6875"/>
      <use xlink:href="#DejaVuSans-35" x="393.310547"/>
      <use xlink:href="#DejaVuSans-34" x="456.933594"/>
      <use xlink:href="#DejaVuSans-32" x="520.556641"/>
      <use xlink:href="#DejaVuSans-34" x="584.179688"/>
      <use xlink:href="#DejaVuSans-20" x="647.802734"/>
      <use xlink:href="#DejaVuSans-2d" x="679.589844"/>
      <use xlink:href="#DejaVuSans-20" x="715.673828"/>
      <use xlink:href="#DejaVuSans-69" x="747.460938"/>
      <use xlink:href="#DejaVuSans-6c" x="775.244141"/>
      <use xlink:href="#DejaVuSans-6c" x="803.027344"/>
      <use xlink:href="#DejaVuSans-75" x="830.810547"/>
      <use xlink:href="#DejaVuSans-6d" x="894.189453"/>
      <use xlink:href="#DejaVuSans-69" x="991.601562"/>
      <use xlink:href="#DejaVuSans-6e" x="1019.384766"/>
      <use xlink:href="#DejaVuSans-61" x="1082.763672"/>
      <use xlink:href="#DejaVuSans-5f" x="1144.042969"/>
      <use xlink:href="#DejaVuSans-75" x="1194.042969"/>
      <use xlink:href="#DejaVuSans-6e" x="1257.421875"/>
      <use xlink:href="#DejaVuSans-69" x="1320.800781"/>
      <use xlink:href="#DejaVuSans-76" x="1348.583984"/>
      <use xlink:href="#DejaVuSans-65" x="1407.763672"/>
      <use xlink:href="#DejaVuSans-72" x="1469.287109"/>
      <use xlink:href="#DejaVuSans-73" x="1510.400391"/>
      <use xlink:href="#DejaVuSans-61" x="1562.5"/>
      <use xlink:href="#DejaVuSans-6c" x="1623.779297"/>
      <use xlink:href="#DejaVuSans-5f" x="1651.5625"/>
      <use xlink:href="#DejaVuSans-61" x="1701.5625"/>
      <use xlink:href="#DejaVuSans-64" x="1762.841797"/>
      <use xlink:href="#DejaVuSans-61" x="1826.318359"/>
      <use xlink:href="#DejaVuSans-70" x="1887.597656"/>
      <use xlink:href="#DejaVuSans-74" x="1951.074219"/>
      <use xlink:href="#DejaVuSans-65" x="1990.283203"/>
      <use xlink:href="#DejaVuSans-72" x="2051.806641"/>
     </g>
    </g>
   </g>
  </g>
 </g>
 <defs>
  <clipPath id="pd81774b155">
   <rect x="32.968125" y="31.48286" width="960.19" height="242.5072"/>
  </clipPath>
 </defs>
</svg>
