<?xml version="1.0" encoding="utf-8" standalone="no"?>
<!DOCTYPE svg PUBLIC "-//W3C//DTD SVG 1.1//EN"
  "http://www.w3.org/Graphics/SVG/1.1/DTD/svg11.dtd">
<svg xmlns:xlink="http://www.w3.org/1999/xlink" width="1000.278125pt" height="330.541644pt" viewBox="0 0 1000.278125 330.541644" xmlns="http://www.w3.org/2000/svg" version="1.1">
 <metadata>
  <rdf:RDF xmlns:dc="http://purl.org/dc/elements/1.1/" xmlns:cc="http://creativecommons.org/ns#" xmlns:rdf="http://www.w3.org/1999/02/22-rdf-syntax-ns#">
   <cc:Work>
    <dc:type rdf:resource="http://purl.org/dc/dcmitype/StillImage"/>
    <dc:date>2024-08-12T02:14:58.045509</dc:date>
    <dc:format>image/svg+xml</dc:format>
    <dc:creator>
     <cc:Agent>
      <dc:title>Matplotlib v3.5.3, https://matplotlib.org/</dc:title>
     </cc:Agent>
    </dc:creator>
   </cc:Work>
  </rdf:RDF>
 </metadata>
 <defs>
  <style type="text/css">*{stroke-linejoin: round; stroke-linecap: butt}</style>
 </defs>
 <g id="figure_1">
  <g id="axes_1">
   <g id="patch_1">
    <path d="M 43.148125 273.99006 
L 993.078125 273.99006 
L 993.078125 31.48286 
L 43.148125 31.48286 
z
" style="fill: #ffffff"/>
   </g>
   <g id="matplotlib.axis_1">
    <g id="xtick_1">
     <g id="text_1">
      <!-- 0 -->
      <g transform="translate(83.781741 287.06881)scale(0.08 -0.08)">
       <defs>
        <path id="DejaVuSans-30" d="M 2034 4250 
Q 1547 4250 1301 3770 
Q 1056 3291 1056 2328 
Q 1056 1369 1301 889 
Q 1547 409 2034 409 
Q 2525 409 2770 889 
Q 3016 1369 3016 2328 
Q 3016 3291 2770 3770 
Q 2525 4250 2034 4250 
z
M 2034 4750 
Q 2819 4750 3233 4129 
Q 3647 3509 3647 2328 
Q 3647 1150 3233 529 
Q 2819 -91 2034 -91 
Q 1250 -91 836 529 
Q 422 1150 422 2328 
Q 422 3509 836 4129 
Q 1250 4750 2034 4750 
z
" transform="scale(0.015625)"/>
       </defs>
       <use xlink:href="#DejaVuSans-30"/>
      </g>
     </g>
    </g>
    <g id="xtick_2">
     <g id="text_2">
      <!-- 20000 -->
      <g transform="translate(218.361206 287.06881)scale(0.08 -0.08)">
       <defs>
        <path id="DejaVuSans-32" d="M 1228 531 
L 3431 531 
L 3431 0 
L 469 0 
L 469 531 
Q 828 903 1448 1529 
Q 2069 2156 2228 2338 
Q 2531 2678 2651 2914 
Q 2772 3150 2772 3378 
Q 2772 3750 2511 3984 
Q 2250 4219 1831 4219 
Q 1534 4219 1204 4116 
Q 875 4013 500 3803 
L 500 4441 
Q 881 4594 1212 4672 
Q 1544 4750 1819 4750 
Q 2544 4750 2975 4387 
Q 3406 4025 3406 3419 
Q 3406 3131 3298 2873 
Q 3191 2616 2906 2266 
Q 2828 2175 2409 1742 
Q 1991 1309 1228 531 
z
" transform="scale(0.015625)"/>
       </defs>
       <use xlink:href="#DejaVuSans-32"/>
       <use xlink:href="#DejaVuSans-30" x="63.623047"/>
       <use xlink:href="#DejaVuSans-30" x="127.246094"/>
       <use xlink:href="#DejaVuSans-30" x="190.869141"/>
       <use xlink:href="#DejaVuSans-30" x="254.492188"/>
      </g>
     </g>
    </g>
    <g id="xtick_3">
     <g id="text_3">
      <!-- 40000 -->
      <g transform="translate(363.120671 287.06881)scale(0.08 -0.08)">
       <defs>
        <path id="DejaVuSans-34" d="M 2419 4116 
L 825 1625 
L 2419 1625 
L 2419 4116 
z
M 2253 4666 
L 3047 4666 
L 3047 1625 
L 3713 1625 
L 3713 1100 
L 3047 1100 
L 3047 0 
L 2419 0 
L 2419 1100 
L 313 1100 
L 313 1709 
L 2253 4666 
z
" transform="scale(0.015625)"/>
       </defs>
       <use xlink:href="#DejaVuSans-34"/>
       <use xlink:href="#DejaVuSans-30" x="63.623047"/>
       <use xlink:href="#DejaVuSans-30" x="127.246094"/>
       <use xlink:href="#DejaVuSans-30" x="190.869141"/>
       <use xlink:href="#DejaVuSans-30" x="254.492188"/>
      </g>
     </g>
    </g>
    <g id="xtick_4">
     <g id="text_4">
      <!-- 60000 -->
      <g transform="translate(507.880136 287.06881)scale(0.08 -0.08)">
       <defs>
        <path id="DejaVuSans-36" d="M 2113 2584 
Q 1688 2584 1439 2293 
Q 1191 2003 1191 1497 
Q 1191 994 1439 701 
Q 1688 409 2113 409 
Q 2538 409 2786 701 
Q 3034 994 3034 1497 
Q 3034 2003 2786 2293 
Q 2538 2584 2113 2584 
z
M 3366 4563 
L 3366 3988 
Q 3128 4100 2886 4159 
Q 2644 4219 2406 4219 
Q 1781 4219 1451 3797 
Q 1122 3375 1075 2522 
Q 1259 2794 1537 2939 
Q 1816 3084 2150 3084 
Q 2853 3084 3261 2657 
Q 3669 2231 3669 1497 
Q 3669 778 3244 343 
Q 2819 -91 2113 -91 
Q 1303 -91 875 529 
Q 447 1150 447 2328 
Q 447 3434 972 4092 
Q 1497 4750 2381 4750 
Q 2619 4750 2861 4703 
Q 3103 4656 3366 4563 
z
" transform="scale(0.015625)"/>
       </defs>
       <use xlink:href="#DejaVuSans-36"/>
       <use xlink:href="#DejaVuSans-30" x="63.623047"/>
       <use xlink:href="#DejaVuSans-30" x="127.246094"/>
       <use xlink:href="#DejaVuSans-30" x="190.869141"/>
       <use xlink:href="#DejaVuSans-30" x="254.492188"/>
      </g>
     </g>
    </g>
    <g id="xtick_5">
     <g id="text_5">
      <!-- 80000 -->
      <g transform="translate(652.639601 287.06881)scale(0.08 -0.08)">
       <defs>
        <path id="DejaVuSans-38" d="M 2034 2216 
Q 1584 2216 1326 1975 
Q 1069 1734 1069 1313 
Q 1069 891 1326 650 
Q 1584 409 2034 409 
Q 2484 409 2743 651 
Q 3003 894 3003 1313 
Q 3003 1734 2745 1975 
Q 2488 2216 2034 2216 
z
M 1403 2484 
Q 997 2584 770 2862 
Q 544 3141 544 3541 
Q 544 4100 942 4425 
Q 1341 4750 2034 4750 
Q 2731 4750 3128 4425 
Q 3525 4100 3525 3541 
Q 3525 3141 3298 2862 
Q 3072 2584 2669 2484 
Q 3125 2378 3379 2068 
Q 3634 1759 3634 1313 
Q 3634 634 3220 271 
Q 2806 -91 2034 -91 
Q 1263 -91 848 271 
Q 434 634 434 1313 
Q 434 1759 690 2068 
Q 947 2378 1403 2484 
z
M 1172 3481 
Q 1172 3119 1398 2916 
Q 1625 2713 2034 2713 
Q 2441 2713 2670 2916 
Q 2900 3119 2900 3481 
Q 2900 3844 2670 4047 
Q 2441 4250 2034 4250 
Q 1625 4250 1398 4047 
Q 1172 3844 1172 3481 
z
" transform="scale(0.015625)"/>
       </defs>
       <use xlink:href="#DejaVuSans-38"/>
       <use xlink:href="#DejaVuSans-30" x="63.623047"/>
       <use xlink:href="#DejaVuSans-30" x="127.246094"/>
       <use xlink:href="#DejaVuSans-30" x="190.869141"/>
       <use xlink:href="#DejaVuSans-30" x="254.492188"/>
      </g>
     </g>
    </g>
    <g id="xtick_6">
     <g id="text_6">
      <!-- 100000 -->
      <g transform="translate(794.854066 287.06881)scale(0.08 -0.08)">
       <defs>
        <path id="DejaVuSans-31" d="M 794 531 
L 1825 531 
L 1825 4091 
L 703 3866 
L 703 4441 
L 1819 4666 
L 2450 4666 
L 2450 531 
L 3481 531 
L 3481 0 
L 794 0 
L 794 531 
z
" transform="scale(0.015625)"/>
       </defs>
       <use xlink:href="#DejaVuSans-31"/>
       <use xlink:href="#DejaVuSans-30" x="63.623047"/>
       <use xlink:href="#DejaVuSans-30" x="127.246094"/>
       <use xlink:href="#DejaVuSans-30" x="190.869141"/>
       <use xlink:href="#DejaVuSans-30" x="254.492188"/>
       <use xlink:href="#DejaVuSans-30" x="318.115234"/>
      </g>
     </g>
    </g>
    <g id="xtick_7">
     <g id="text_7">
      <!-- 120000 -->
      <g transform="translate(939.613532 287.06881)scale(0.08 -0.08)">
       <use xlink:href="#DejaVuSans-31"/>
       <use xlink:href="#DejaVuSans-32" x="63.623047"/>
       <use xlink:href="#DejaVuSans-30" x="127.246094"/>
       <use xlink:href="#DejaVuSans-30" x="190.869141"/>
       <use xlink:href="#DejaVuSans-30" x="254.492188"/>
       <use xlink:href="#DejaVuSans-30" x="318.115234"/>
      </g>
     </g>
    </g>
    <g id="text_8">
     <!-- expression (reads/kbp) -->
     <g transform="translate(460.863125 300.330997)scale(0.1 -0.1)">
      <defs>
       <path id="DejaVuSans-65" d="M 3597 1894 
L 3597 1613 
L 953 1613 
Q 991 1019 1311 708 
Q 1631 397 2203 397 
Q 2534 397 2845 478 
Q 3156 559 3463 722 
L 3463 178 
Q 3153 47 2828 -22 
Q 2503 -91 2169 -91 
Q 1331 -91 842 396 
Q 353 884 353 1716 
Q 353 2575 817 3079 
Q 1281 3584 2069 3584 
Q 2775 3584 3186 3129 
Q 3597 2675 3597 1894 
z
M 3022 2063 
Q 3016 2534 2758 2815 
Q 2500 3097 2075 3097 
Q 1594 3097 1305 2825 
Q 1016 2553 972 2059 
L 3022 2063 
z
" transform="scale(0.015625)"/>
       <path id="DejaVuSans-78" d="M 3513 3500 
L 2247 1797 
L 3578 0 
L 2900 0 
L 1881 1375 
L 863 0 
L 184 0 
L 1544 1831 
L 300 3500 
L 978 3500 
L 1906 2253 
L 2834 3500 
L 3513 3500 
z
" transform="scale(0.015625)"/>
       <path id="DejaVuSans-70" d="M 1159 525 
L 1159 -1331 
L 581 -1331 
L 581 3500 
L 1159 3500 
L 1159 2969 
Q 1341 3281 1617 3432 
Q 1894 3584 2278 3584 
Q 2916 3584 3314 3078 
Q 3713 2572 3713 1747 
Q 3713 922 3314 415 
Q 2916 -91 2278 -91 
Q 1894 -91 1617 61 
Q 1341 213 1159 525 
z
M 3116 1747 
Q 3116 2381 2855 2742 
Q 2594 3103 2138 3103 
Q 1681 3103 1420 2742 
Q 1159 2381 1159 1747 
Q 1159 1113 1420 752 
Q 1681 391 2138 391 
Q 2594 391 2855 752 
Q 3116 1113 3116 1747 
z
" transform="scale(0.015625)"/>
       <path id="DejaVuSans-72" d="M 2631 2963 
Q 2534 3019 2420 3045 
Q 2306 3072 2169 3072 
Q 1681 3072 1420 2755 
Q 1159 2438 1159 1844 
L 1159 0 
L 581 0 
L 581 3500 
L 1159 3500 
L 1159 2956 
Q 1341 3275 1631 3429 
Q 1922 3584 2338 3584 
Q 2397 3584 2469 3576 
Q 2541 3569 2628 3553 
L 2631 2963 
z
" transform="scale(0.015625)"/>
       <path id="DejaVuSans-73" d="M 2834 3397 
L 2834 2853 
Q 2591 2978 2328 3040 
Q 2066 3103 1784 3103 
Q 1356 3103 1142 2972 
Q 928 2841 928 2578 
Q 928 2378 1081 2264 
Q 1234 2150 1697 2047 
L 1894 2003 
Q 2506 1872 2764 1633 
Q 3022 1394 3022 966 
Q 3022 478 2636 193 
Q 2250 -91 1575 -91 
Q 1294 -91 989 -36 
Q 684 19 347 128 
L 347 722 
Q 666 556 975 473 
Q 1284 391 1588 391 
Q 1994 391 2212 530 
Q 2431 669 2431 922 
Q 2431 1156 2273 1281 
Q 2116 1406 1581 1522 
L 1381 1569 
Q 847 1681 609 1914 
Q 372 2147 372 2553 
Q 372 3047 722 3315 
Q 1072 3584 1716 3584 
Q 2034 3584 2315 3537 
Q 2597 3491 2834 3397 
z
" transform="scale(0.015625)"/>
       <path id="DejaVuSans-69" d="M 603 3500 
L 1178 3500 
L 1178 0 
L 603 0 
L 603 3500 
z
M 603 4863 
L 1178 4863 
L 1178 4134 
L 603 4134 
L 603 4863 
z
" transform="scale(0.015625)"/>
       <path id="DejaVuSans-6f" d="M 1959 3097 
Q 1497 3097 1228 2736 
Q 959 2375 959 1747 
Q 959 1119 1226 758 
Q 1494 397 1959 397 
Q 2419 397 2687 759 
Q 2956 1122 2956 1747 
Q 2956 2369 2687 2733 
Q 2419 3097 1959 3097 
z
M 1959 3584 
Q 2709 3584 3137 3096 
Q 3566 2609 3566 1747 
Q 3566 888 3137 398 
Q 2709 -91 1959 -91 
Q 1206 -91 779 398 
Q 353 888 353 1747 
Q 353 2609 779 3096 
Q 1206 3584 1959 3584 
z
" transform="scale(0.015625)"/>
       <path id="DejaVuSans-6e" d="M 3513 2113 
L 3513 0 
L 2938 0 
L 2938 2094 
Q 2938 2591 2744 2837 
Q 2550 3084 2163 3084 
Q 1697 3084 1428 2787 
Q 1159 2491 1159 1978 
L 1159 0 
L 581 0 
L 581 3500 
L 1159 3500 
L 1159 2956 
Q 1366 3272 1645 3428 
Q 1925 3584 2291 3584 
Q 2894 3584 3203 3211 
Q 3513 2838 3513 2113 
z
" transform="scale(0.015625)"/>
       <path id="DejaVuSans-20" transform="scale(0.015625)"/>
       <path id="DejaVuSans-28" d="M 1984 4856 
Q 1566 4138 1362 3434 
Q 1159 2731 1159 2009 
Q 1159 1288 1364 580 
Q 1569 -128 1984 -844 
L 1484 -844 
Q 1016 -109 783 600 
Q 550 1309 550 2009 
Q 550 2706 781 3412 
Q 1013 4119 1484 4856 
L 1984 4856 
z
" transform="scale(0.015625)"/>
       <path id="DejaVuSans-61" d="M 2194 1759 
Q 1497 1759 1228 1600 
Q 959 1441 959 1056 
Q 959 750 1161 570 
Q 1363 391 1709 391 
Q 2188 391 2477 730 
Q 2766 1069 2766 1631 
L 2766 1759 
L 2194 1759 
z
M 3341 1997 
L 3341 0 
L 2766 0 
L 2766 531 
Q 2569 213 2275 61 
Q 1981 -91 1556 -91 
Q 1019 -91 701 211 
Q 384 513 384 1019 
Q 384 1609 779 1909 
Q 1175 2209 1959 2209 
L 2766 2209 
L 2766 2266 
Q 2766 2663 2505 2880 
Q 2244 3097 1772 3097 
Q 1472 3097 1187 3025 
Q 903 2953 641 2809 
L 641 3341 
Q 956 3463 1253 3523 
Q 1550 3584 1831 3584 
Q 2591 3584 2966 3190 
Q 3341 2797 3341 1997 
z
" transform="scale(0.015625)"/>
       <path id="DejaVuSans-64" d="M 2906 2969 
L 2906 4863 
L 3481 4863 
L 3481 0 
L 2906 0 
L 2906 525 
Q 2725 213 2448 61 
Q 2172 -91 1784 -91 
Q 1150 -91 751 415 
Q 353 922 353 1747 
Q 353 2572 751 3078 
Q 1150 3584 1784 3584 
Q 2172 3584 2448 3432 
Q 2725 3281 2906 2969 
z
M 947 1747 
Q 947 1113 1208 752 
Q 1469 391 1925 391 
Q 2381 391 2643 752 
Q 2906 1113 2906 1747 
Q 2906 2381 2643 2742 
Q 2381 3103 1925 3103 
Q 1469 3103 1208 2742 
Q 947 2381 947 1747 
z
" transform="scale(0.015625)"/>
       <path id="DejaVuSans-2f" d="M 1625 4666 
L 2156 4666 
L 531 -594 
L 0 -594 
L 1625 4666 
z
" transform="scale(0.015625)"/>
       <path id="DejaVuSans-6b" d="M 581 4863 
L 1159 4863 
L 1159 1991 
L 2875 3500 
L 3609 3500 
L 1753 1863 
L 3688 0 
L 2938 0 
L 1159 1709 
L 1159 0 
L 581 0 
L 581 4863 
z
" transform="scale(0.015625)"/>
       <path id="DejaVuSans-62" d="M 3116 1747 
Q 3116 2381 2855 2742 
Q 2594 3103 2138 3103 
Q 1681 3103 1420 2742 
Q 1159 2381 1159 1747 
Q 1159 1113 1420 752 
Q 1681 391 2138 391 
Q 2594 391 2855 752 
Q 3116 1113 3116 1747 
z
M 1159 2969 
Q 1341 3281 1617 3432 
Q 1894 3584 2278 3584 
Q 2916 3584 3314 3078 
Q 3713 2572 3713 1747 
Q 3713 922 3314 415 
Q 2916 -91 2278 -91 
Q 1894 -91 1617 61 
Q 1341 213 1159 525 
L 1159 0 
L 581 0 
L 581 4863 
L 1159 4863 
L 1159 2969 
z
" transform="scale(0.015625)"/>
       <path id="DejaVuSans-29" d="M 513 4856 
L 1013 4856 
Q 1481 4119 1714 3412 
Q 1947 2706 1947 2009 
Q 1947 1309 1714 600 
Q 1481 -109 1013 -844 
L 513 -844 
Q 928 -128 1133 580 
Q 1338 1288 1338 2009 
Q 1338 2731 1133 3434 
Q 928 4138 513 4856 
z
" transform="scale(0.015625)"/>
      </defs>
      <use xlink:href="#DejaVuSans-65"/>
      <use xlink:href="#DejaVuSans-78" x="59.773438"/>
      <use xlink:href="#DejaVuSans-70" x="118.953125"/>
      <use xlink:href="#DejaVuSans-72" x="182.429688"/>
      <use xlink:href="#DejaVuSans-65" x="221.292969"/>
      <use xlink:href="#DejaVuSans-73" x="282.816406"/>
      <use xlink:href="#DejaVuSans-73" x="334.916016"/>
      <use xlink:href="#DejaVuSans-69" x="387.015625"/>
      <use xlink:href="#DejaVuSans-6f" x="414.798828"/>
      <use xlink:href="#DejaVuSans-6e" x="475.980469"/>
      <use xlink:href="#DejaVuSans-20" x="539.359375"/>
      <use xlink:href="#DejaVuSans-28" x="571.146484"/>
      <use xlink:href="#DejaVuSans-72" x="610.160156"/>
      <use xlink:href="#DejaVuSans-65" x="649.023438"/>
      <use xlink:href="#DejaVuSans-61" x="710.546875"/>
      <use xlink:href="#DejaVuSans-64" x="771.826172"/>
      <use xlink:href="#DejaVuSans-73" x="835.302734"/>
      <use xlink:href="#DejaVuSans-2f" x="887.402344"/>
      <use xlink:href="#DejaVuSans-6b" x="921.09375"/>
      <use xlink:href="#DejaVuSans-62" x="979.003906"/>
      <use xlink:href="#DejaVuSans-70" x="1042.480469"/>
      <use xlink:href="#DejaVuSans-29" x="1105.957031"/>
     </g>
    </g>
   </g>
   <g id="matplotlib.axis_2">
    <g id="ytick_1">
     <g id="line2d_1">
      <path d="M 43.148125 273.99006 
L 993.078125 273.99006 
" clip-path="url(#p89e8b0ed07)" style="fill: none; stroke: #dedede; stroke-linecap: square"/>
     </g>
     <g id="text_9">
      <!-- 0 -->
      <g transform="translate(31.058125 277.029435)scale(0.08 -0.08)">
       <use xlink:href="#DejaVuSans-30"/>
      </g>
     </g>
    </g>
    <g id="ytick_2">
     <g id="line2d_2">
      <path d="M 43.148125 225.48862 
L 993.078125 225.48862 
" clip-path="url(#p89e8b0ed07)" style="fill: none; stroke: #dedede; stroke-linecap: square"/>
     </g>
     <g id="text_10">
      <!-- 20 -->
      <g transform="translate(25.968125 228.527995)scale(0.08 -0.08)">
       <use xlink:href="#DejaVuSans-32"/>
       <use xlink:href="#DejaVuSans-30" x="63.623047"/>
      </g>
     </g>
    </g>
    <g id="ytick_3">
     <g id="line2d_3">
      <path d="M 43.148125 176.98718 
L 993.078125 176.98718 
" clip-path="url(#p89e8b0ed07)" style="fill: none; stroke: #dedede; stroke-linecap: square"/>
     </g>
     <g id="text_11">
      <!-- 40 -->
      <g transform="translate(25.968125 180.026555)scale(0.08 -0.08)">
       <use xlink:href="#DejaVuSans-34"/>
       <use xlink:href="#DejaVuSans-30" x="63.623047"/>
      </g>
     </g>
    </g>
    <g id="ytick_4">
     <g id="line2d_4">
      <path d="M 43.148125 128.48574 
L 993.078125 128.48574 
" clip-path="url(#p89e8b0ed07)" style="fill: none; stroke: #dedede; stroke-linecap: square"/>
     </g>
     <g id="text_12">
      <!-- 60 -->
      <g transform="translate(25.968125 131.525115)scale(0.08 -0.08)">
       <use xlink:href="#DejaVuSans-36"/>
       <use xlink:href="#DejaVuSans-30" x="63.623047"/>
      </g>
     </g>
    </g>
    <g id="ytick_5">
     <g id="line2d_5">
      <path d="M 43.148125 79.9843 
L 993.078125 79.9843 
" clip-path="url(#p89e8b0ed07)" style="fill: none; stroke: #dedede; stroke-linecap: square"/>
     </g>
     <g id="text_13">
      <!-- 80 -->
      <g transform="translate(25.968125 83.023675)scale(0.08 -0.08)">
       <use xlink:href="#DejaVuSans-38"/>
       <use xlink:href="#DejaVuSans-30" x="63.623047"/>
      </g>
     </g>
    </g>
    <g id="ytick_6">
     <g id="line2d_6">
      <path d="M 43.148125 31.48286 
L 993.078125 31.48286 
" clip-path="url(#p89e8b0ed07)" style="fill: none; stroke: #dedede; stroke-linecap: square"/>
     </g>
     <g id="text_14">
      <!-- 100 -->
      <g transform="translate(20.878125 34.522235)scale(0.08 -0.08)">
       <use xlink:href="#DejaVuSans-31"/>
       <use xlink:href="#DejaVuSans-30" x="63.623047"/>
       <use xlink:href="#DejaVuSans-30" x="127.246094"/>
      </g>
     </g>
    </g>
    <g id="text_15">
     <!-- % duplicate reads -->
     <g transform="translate(14.798438 197.673179)rotate(-90)scale(0.1 -0.1)">
      <defs>
       <path id="DejaVuSans-25" d="M 4653 2053 
Q 4381 2053 4226 1822 
Q 4072 1591 4072 1178 
Q 4072 772 4226 539 
Q 4381 306 4653 306 
Q 4919 306 5073 539 
Q 5228 772 5228 1178 
Q 5228 1588 5073 1820 
Q 4919 2053 4653 2053 
z
M 4653 2450 
Q 5147 2450 5437 2106 
Q 5728 1763 5728 1178 
Q 5728 594 5436 251 
Q 5144 -91 4653 -91 
Q 4153 -91 3862 251 
Q 3572 594 3572 1178 
Q 3572 1766 3864 2108 
Q 4156 2450 4653 2450 
z
M 1428 4353 
Q 1159 4353 1004 4120 
Q 850 3888 850 3481 
Q 850 3069 1003 2837 
Q 1156 2606 1428 2606 
Q 1700 2606 1854 2837 
Q 2009 3069 2009 3481 
Q 2009 3884 1853 4118 
Q 1697 4353 1428 4353 
z
M 4250 4750 
L 4750 4750 
L 1831 -91 
L 1331 -91 
L 4250 4750 
z
M 1428 4750 
Q 1922 4750 2215 4408 
Q 2509 4066 2509 3481 
Q 2509 2891 2217 2550 
Q 1925 2209 1428 2209 
Q 931 2209 642 2551 
Q 353 2894 353 3481 
Q 353 4063 643 4406 
Q 934 4750 1428 4750 
z
" transform="scale(0.015625)"/>
       <path id="DejaVuSans-75" d="M 544 1381 
L 544 3500 
L 1119 3500 
L 1119 1403 
Q 1119 906 1312 657 
Q 1506 409 1894 409 
Q 2359 409 2629 706 
Q 2900 1003 2900 1516 
L 2900 3500 
L 3475 3500 
L 3475 0 
L 2900 0 
L 2900 538 
Q 2691 219 2414 64 
Q 2138 -91 1772 -91 
Q 1169 -91 856 284 
Q 544 659 544 1381 
z
M 1991 3584 
L 1991 3584 
z
" transform="scale(0.015625)"/>
       <path id="DejaVuSans-6c" d="M 603 4863 
L 1178 4863 
L 1178 0 
L 603 0 
L 603 4863 
z
" transform="scale(0.015625)"/>
       <path id="DejaVuSans-63" d="M 3122 3366 
L 3122 2828 
Q 2878 2963 2633 3030 
Q 2388 3097 2138 3097 
Q 1578 3097 1268 2742 
Q 959 2388 959 1747 
Q 959 1106 1268 751 
Q 1578 397 2138 397 
Q 2388 397 2633 464 
Q 2878 531 3122 666 
L 3122 134 
Q 2881 22 2623 -34 
Q 2366 -91 2075 -91 
Q 1284 -91 818 406 
Q 353 903 353 1747 
Q 353 2603 823 3093 
Q 1294 3584 2113 3584 
Q 2378 3584 2631 3529 
Q 2884 3475 3122 3366 
z
" transform="scale(0.015625)"/>
       <path id="DejaVuSans-74" d="M 1172 4494 
L 1172 3500 
L 2356 3500 
L 2356 3053 
L 1172 3053 
L 1172 1153 
Q 1172 725 1289 603 
Q 1406 481 1766 481 
L 2356 481 
L 2356 0 
L 1766 0 
Q 1100 0 847 248 
Q 594 497 594 1153 
L 594 3053 
L 172 3053 
L 172 3500 
L 594 3500 
L 594 4494 
L 1172 4494 
z
" transform="scale(0.015625)"/>
      </defs>
      <use xlink:href="#DejaVuSans-25"/>
      <use xlink:href="#DejaVuSans-20" x="95.019531"/>
      <use xlink:href="#DejaVuSans-64" x="126.806641"/>
      <use xlink:href="#DejaVuSans-75" x="190.283203"/>
      <use xlink:href="#DejaVuSans-70" x="253.662109"/>
      <use xlink:href="#DejaVuSans-6c" x="317.138672"/>
      <use xlink:href="#DejaVuSans-69" x="344.921875"/>
      <use xlink:href="#DejaVuSans-63" x="372.705078"/>
      <use xlink:href="#DejaVuSans-61" x="427.685547"/>
      <use xlink:href="#DejaVuSans-74" x="488.964844"/>
      <use xlink:href="#DejaVuSans-65" x="528.173828"/>
      <use xlink:href="#DejaVuSans-20" x="589.697266"/>
      <use xlink:href="#DejaVuSans-72" x="621.484375"/>
      <use xlink:href="#DejaVuSans-65" x="660.347656"/>
      <use xlink:href="#DejaVuSans-61" x="721.871094"/>
      <use xlink:href="#DejaVuSans-64" x="783.150391"/>
      <use xlink:href="#DejaVuSans-73" x="846.626953"/>
     </g>
    </g>
   </g>
   <g id="line2d_7">
    <path d="M 86.326811 273.921193 
L 86.466117 258.034084 
L 86.866795 235.53797 
L 87.443591 215.271876 
L 88.153287 197.954257 
L 88.975011 183.213499 
L 89.857338 171.071837 
L 90.875925 160.038652 
L 92.011527 150.231333 
L 93.103835 142.51316 
L 94.529777 134.222985 
L 95.910282 127.59517 
L 97.442885 121.416157 
L 99.125389 115.702395 
L 100.842416 110.746854 
L 101.993289 107.817761 
L 103.693019 103.958402 
L 106.144899 99.178103 
L 110.481372 92.389348 
L 118.902649 83.020919 
L 124.860633 78.241458 
L 139.891029 69.865304 
L 257.456132 49.624077 
L 257.456132 49.624077 
" clip-path="url(#p89e8b0ed07)" style="fill: none; stroke: #7cb5ec; stroke-linecap: square"/>
   </g>
   <g id="line2d_8">
    <path d="M 86.326882 273.90901 
L 86.477532 258.518362 
L 86.906332 235.215031 
L 87.50857 214.129418 
L 88.241707 196.049838 
L 89.06825 180.928637 
L 89.993001 167.931314 
L 91.008056 156.707219 
L 92.102148 146.999782 
L 93.297644 138.362763 
L 94.585637 130.701429 
L 95.985754 123.781704 
L 97.478369 117.602351 
L 98.962906 112.383871 
L 100.664178 107.275233 
L 102.417888 102.766096 
L 104.087975 99.034599 
L 106.051791 95.205854 
L 108.158606 91.636541 
L 109.982404 88.911116 
L 112.454515 85.654565 
L 114.792121 82.954407 
L 117.063519 80.619923 
L 118.272327 79.477126 
L 122.1451 76.205355 
L 125.562696 73.725146 
L 130.129119 70.875203 
L 132.722941 69.448681 
L 138.280239 66.766421 
L 141.266107 65.500554 
L 154.955934 60.833228 
L 166.323398 57.948204 
L 186.591497 54.151721 
L 218.423226 50.183575 
L 274.400479 46.030756 
L 497.442693 39.716455 
L 497.442693 39.716455 
" clip-path="url(#p89e8b0ed07)" style="fill: none; stroke: #434348; stroke-linecap: square"/>
   </g>
   <g id="line2d_9">
    <path d="M 86.326872 273.913167 
L 86.47668 258.566905 
L 86.905002 235.266681 
L 87.509182 214.123254 
L 88.238188 196.152695 
L 89.07479 180.867843 
L 90.006844 167.815294 
L 91.019568 156.658849 
L 92.128923 146.858992 
L 93.242026 138.806194 
L 94.496085 131.271743 
L 95.86032 124.438085 
L 97.25136 118.563507 
L 98.674423 113.425789 
L 100.267923 108.483981 
L 101.997731 103.876915 
L 103.524902 100.329616 
L 105.197839 96.895208 
L 107.031588 93.574138 
L 109.192905 90.143172 
L 111.255606 87.265543 
L 113.576551 84.404698 
L 116.939456 80.826778 
L 120.739235 77.414094 
L 123.191287 75.492531 
L 127.719069 72.400716 
L 130.503336 70.740585 
L 134.257273 68.737956 
L 138.247031 66.85657 
L 151.57846 61.910953 
L 160.207709 59.479803 
L 185.754737 54.343079 
L 210.001093 51.12386 
L 259.824492 46.941852 
L 508.148765 39.591155 
L 508.148765 39.591155 
" clip-path="url(#p89e8b0ed07)" style="fill: none; stroke: #90ed7d; stroke-linecap: square"/>
   </g>
   <g id="line2d_10">
    <path d="M 86.326761 273.975629 
L 86.477615 259.227863 
L 86.922352 235.11293 
L 87.538694 213.290872 
L 88.277033 194.741573 
L 89.11515 179.077078 
L 90.044318 165.736123 
L 91.053133 154.334946 
L 92.127789 144.575687 
L 93.197115 136.590645 
L 94.527016 128.389844 
L 95.913233 121.336615 
L 97.168777 115.932078 
L 98.657972 110.447967 
L 100.258293 105.423955 
L 101.288362 102.571696 
L 102.87119 98.662295 
L 104.788551 94.55401 
L 106.589271 91.197551 
L 108.890556 87.47059 
L 111.399409 83.978848 
L 114.169366 80.667242 
L 117.460925 77.310415 
L 120.285561 74.824942 
L 122.207878 73.304383 
L 127.455516 69.717557 
L 135.54233 65.386084 
L 147.431133 60.71921 
L 164.847378 56.014064 
L 182.387761 52.731157 
L 288.039551 43.81437 
L 288.039551 43.81437 
" clip-path="url(#p89e8b0ed07)" style="fill: none; stroke: #f7a35c; stroke-linecap: square"/>
   </g>
   <g id="line2d_11">
    <path d="M 86.326782 273.951952 
L 86.470678 258.023301 
L 86.884893 234.490715 
L 87.469481 213.429446 
L 88.18362 195.464015 
L 89.007272 180.21516 
L 89.923249 167.277432 
L 90.938751 156.049486 
L 92.029357 146.413894 
L 93.171504 138.185713 
L 94.418336 130.759121 
L 95.712591 124.311972 
L 97.11993 118.392231 
L 98.580999 113.162126 
L 100.084615 108.533078 
L 101.633527 104.393403 
L 103.17863 100.772917 
L 105.043493 96.947256 
L 107.102581 93.277647 
L 109.284222 89.896048 
L 111.140343 87.351991 
L 113.68787 84.265682 
L 116.650039 81.154394 
L 118.875226 79.091477 
L 121.481045 76.922137 
L 125.212919 74.196481 
L 128.299723 72.219556 
L 131.765128 70.244458 
L 137.365571 67.491655 
L 142.85514 65.207277 
L 146.139028 63.997487 
L 153.639892 61.584855 
L 161.636937 59.436366 
L 178.256763 55.948168 
L 193.671063 53.509067 
L 226.595142 49.810779 
L 259.462461 47.310855 
L 341.169707 43.528257 
L 917.857701 36.598012 
L 917.857701 36.598012 
" clip-path="url(#p89e8b0ed07)" style="fill: none; stroke: #8085e9; stroke-linecap: square"/>
   </g>
   <g id="line2d_12">
    <path d="M 86.32682 273.943987 
L 86.479008 258.770311 
L 86.916489 235.045013 
L 87.529278 213.490896 
L 88.263036 195.240323 
L 89.106801 179.664569 
L 90.035036 166.519143 
L 91.041926 155.287454 
L 92.137134 145.479233 
L 93.267911 137.19808 
L 94.452379 129.979482 
L 95.778063 123.208157 
L 97.218728 117.024087 
L 98.535525 112.191065 
L 100.1964 106.956938 
L 101.958236 102.223468 
L 103.894944 97.773051 
L 105.183184 95.163405 
L 107.258549 91.43563 
L 109.303976 88.233248 
L 111.061149 85.787508 
L 113.08461 83.261499 
L 115.886456 80.186893 
L 118.805515 77.406976 
L 120.731714 75.767109 
L 122.870455 74.099671 
L 127.954561 70.667433 
L 130.783102 69.021722 
L 135.119693 66.788712 
L 139.845059 64.681236 
L 150.375365 60.888856 
L 161.14907 57.913524 
L 183.836129 53.45197 
L 217.166971 49.302758 
L 257.350358 46.163719 
L 469.237846 39.569261 
L 469.237846 39.569261 
" clip-path="url(#p89e8b0ed07)" style="fill: none; stroke: #f15c80; stroke-linecap: square"/>
   </g>
   <g id="line2d_13">
    <path d="M 86.326893 273.910014 
L 86.478105 258.892746 
L 86.913444 235.606529 
L 87.520474 214.565919 
L 88.258885 196.462486 
L 89.100017 181.145995 
L 90.026514 168.1704 
L 91.056857 156.806977 
L 92.159184 147.052791 
L 93.349572 138.462002 
L 94.602256 130.986416 
L 96.035266 123.872537 
L 97.278399 118.63862 
L 98.562773 113.939812 
L 99.813083 109.920989 
L 101.526484 105.124784 
L 103.013865 101.498491 
L 104.927348 97.418263 
L 106.644587 94.211312 
L 107.983688 91.957549 
L 109.928334 89.007894 
L 112.236995 85.920504 
L 115.096007 82.60013 
L 119.187935 78.5991 
L 123.398768 75.181016 
L 136.657849 67.385201 
L 150.510888 62.037526 
L 182.759863 54.612434 
L 286.65007 45.234513 
L 286.65007 45.234513 
" clip-path="url(#p89e8b0ed07)" style="fill: none; stroke: #e4d354; stroke-linecap: square"/>
   </g>
   <g id="line2d_14">
    <path d="M 86.326761 273.968169 
L 86.468662 258.388915 
L 86.883453 234.915956 
L 87.471513 213.789806 
L 88.191148 195.734298 
L 89.014816 180.511526 
L 89.932221 167.558287 
L 90.939542 156.404332 
L 92.039265 146.666687 
L 93.187207 138.384844 
L 94.436182 130.935254 
L 95.689668 124.664385 
L 97.09448 118.71329 
L 98.664533 113.08481 
L 100.111155 108.635977 
L 101.702448 104.382009 
L 103.271655 100.712972 
L 105.257042 96.668095 
L 107.025317 93.51889 
L 109.066649 90.311803 
L 111.081885 87.514907 
L 113.474876 84.582492 
L 116.419136 81.442712 
L 119.713634 78.416186 
L 122.821168 75.936065 
L 126.002818 73.700334 
L 128.826101 71.92901 
L 131.242492 70.547586 
L 134.493343 68.856822 
L 138.60401 66.951958 
L 142.887959 65.196572 
L 146.314912 63.933548 
L 150.71873 62.465826 
L 161.341113 59.494493 
L 175.222754 56.484408 
L 195.008382 53.294669 
L 222.530968 50.15288 
L 265.543388 46.894065 
L 368.097593 42.655566 
L 949.899489 36.427109 
L 949.899489 36.427109 
" clip-path="url(#p89e8b0ed07)" style="fill: none; stroke: #2b908f; stroke-linecap: square"/>
   </g>
   <g id="line2d_15">
    <path d="M 86.326761 273.970914 
L 86.470683 259.035194 
L 86.894304 235.861582 
L 87.495627 214.76141 
L 88.222201 196.820182 
L 89.055244 181.574026 
L 89.981119 168.575202 
L 90.989616 157.427697 
L 92.098814 147.59428 
L 93.208225 139.538223 
L 94.51539 131.682808 
L 95.88744 124.833829 
L 97.396582 118.521772 
L 98.865073 113.309449 
L 100.402528 108.610703 
L 102.273652 103.70677 
L 104.060847 99.678001 
L 106.172796 95.563276 
L 107.341038 93.533592 
L 109.599519 90.017497 
L 112.049674 86.704023 
L 114.096593 84.260206 
L 115.843711 82.369396 
L 118.349856 79.922309 
L 121.057597 77.573745 
L 123.474084 75.694378 
L 127.063539 73.214773 
L 134.5993 68.941882 
L 147.692166 63.518553 
L 162.29303 59.268603 
L 181.282635 55.359155 
L 213.640631 50.970052 
L 323.624553 43.998968 
L 323.624553 43.998968 
" clip-path="url(#p89e8b0ed07)" style="fill: none; stroke: #f45b5b; stroke-linecap: square"/>
   </g>
   <g id="line2d_16">
    <path d="M 86.32682 273.938377 
L 86.475338 258.688913 
L 86.902963 235.358196 
L 87.506945 214.157908 
L 88.237852 196.095827 
L 89.064298 180.942777 
L 89.973408 168.115371 
L 90.992117 156.796329 
L 92.054317 147.308752 
L 93.169275 139.131392 
L 94.469128 131.254056 
L 95.863623 124.25127 
L 97.310411 118.158625 
L 98.468318 113.945572 
L 99.911045 109.347163 
L 101.539135 104.851779 
L 103.089789 101.116659 
L 105.184252 96.742241 
L 107.514552 92.588099 
L 110.529457 88.064163 
L 113.541738 84.272967 
L 116.71044 80.883399 
L 118.628999 79.070251 
L 120.880478 77.133705 
L 124.909543 74.095468 
L 129.369022 71.241823 
L 136.787076 67.370021 
L 146.7711 63.357364 
L 163.699466 58.49185 
L 200.254411 52.174134 
L 248.428833 47.615717 
L 556.488129 38.914513 
L 556.488129 38.914513 
" clip-path="url(#p89e8b0ed07)" style="fill: none; stroke: #91e8e1; stroke-linecap: square"/>
   </g>
   <g id="line2d_17">
    <path d="M 86.3268 273.903766 
L 86.461629 256.176284 
L 86.840564 233.251256 
L 87.390733 213.023641 
L 88.071871 195.940366 
L 88.85955 181.573912 
L 89.748126 169.289602 
L 90.721567 158.778322 
L 91.804931 149.446665 
L 92.98584 141.208528 
L 94.209008 134.174707 
L 95.45153 128.169332 
L 96.925744 122.152665 
L 98.456198 116.867459 
L 100.147685 111.890055 
L 101.941897 107.372352 
L 103.398092 104.16141 
L 105.424706 100.234242 
L 107.102253 97.372639 
L 108.814341 94.75031 
L 111.475742 91.163246 
L 113.136882 89.174618 
L 115.514868 86.60377 
L 118.157698 84.066039 
L 122.11388 80.772159 
L 124.787094 78.824238 
L 127.541116 77.009588 
L 131.297223 74.797954 
L 134.132009 73.298589 
L 138.27566 71.326047 
L 143.134768 69.288411 
L 154.213902 65.482292 
L 168.057808 61.864171 
L 186.33079 58.309862 
L 214.831158 54.40459 
L 269.134683 49.776866 
L 422.166162 43.762392 
L 422.166162 43.762392 
" clip-path="url(#p89e8b0ed07)" style="fill: none; stroke: #7cb5ec; stroke-linecap: square"/>
   </g>
   <g id="line2d_18">
    <path d="M 86.326882 273.917841 
L 86.479971 258.800445 
L 86.919284 235.190649 
L 87.531531 213.820363 
L 88.270295 195.570643 
L 89.109266 180.167348 
L 90.037803 167.062306 
L 91.064831 155.657466 
L 92.162677 145.880216 
L 93.276217 137.750335 
L 94.578772 129.883541 
L 95.967862 122.925513 
L 97.409737 116.863269 
L 98.93427 111.426267 
L 100.30621 107.198996 
L 101.857485 103.021129 
L 103.67175 98.782567 
L 105.339562 95.380583 
L 106.994806 92.384924 
L 108.612079 89.762652 
L 111.426693 85.782476 
L 113.666149 83.044233 
L 116.495572 80.015648 
L 118.791179 77.84831 
L 121.18757 75.815049 
L 126.36769 72.05943 
L 130.208186 69.719019 
L 133.758933 67.817956 
L 141.436242 64.372881 
L 154.234347 60.039824 
L 170.319976 56.145651 
L 195.904312 51.942944 
L 234.288782 47.985968 
L 316.508277 43.438726 
L 316.508277 43.438726 
" clip-path="url(#p89e8b0ed07)" style="fill: none; stroke: #434348; stroke-linecap: square"/>
   </g>
   <g id="line2d_19">
    <path d="M 43.148125 273.99006 
L 993.078125 273.99006 
" clip-path="url(#p89e8b0ed07)" style="fill: none; stroke: #dedede; stroke-width: 2; stroke-linecap: square"/>
   </g>
   <g id="text_16">
    <!-- DupRadar General Linear Model -->
    <g transform="translate(390.213125 19.3575)scale(0.16 -0.16)">
     <defs>
      <path id="DejaVuSans-44" d="M 1259 4147 
L 1259 519 
L 2022 519 
Q 2988 519 3436 956 
Q 3884 1394 3884 2338 
Q 3884 3275 3436 3711 
Q 2988 4147 2022 4147 
L 1259 4147 
z
M 628 4666 
L 1925 4666 
Q 3281 4666 3915 4102 
Q 4550 3538 4550 2338 
Q 4550 1131 3912 565 
Q 3275 0 1925 0 
L 628 0 
L 628 4666 
z
" transform="scale(0.015625)"/>
      <path id="DejaVuSans-52" d="M 2841 2188 
Q 3044 2119 3236 1894 
Q 3428 1669 3622 1275 
L 4263 0 
L 3584 0 
L 2988 1197 
Q 2756 1666 2539 1819 
Q 2322 1972 1947 1972 
L 1259 1972 
L 1259 0 
L 628 0 
L 628 4666 
L 2053 4666 
Q 2853 4666 3247 4331 
Q 3641 3997 3641 3322 
Q 3641 2881 3436 2590 
Q 3231 2300 2841 2188 
z
M 1259 4147 
L 1259 2491 
L 2053 2491 
Q 2509 2491 2742 2702 
Q 2975 2913 2975 3322 
Q 2975 3731 2742 3939 
Q 2509 4147 2053 4147 
L 1259 4147 
z
" transform="scale(0.015625)"/>
      <path id="DejaVuSans-47" d="M 3809 666 
L 3809 1919 
L 2778 1919 
L 2778 2438 
L 4434 2438 
L 4434 434 
Q 4069 175 3628 42 
Q 3188 -91 2688 -91 
Q 1594 -91 976 548 
Q 359 1188 359 2328 
Q 359 3472 976 4111 
Q 1594 4750 2688 4750 
Q 3144 4750 3555 4637 
Q 3966 4525 4313 4306 
L 4313 3634 
Q 3963 3931 3569 4081 
Q 3175 4231 2741 4231 
Q 1884 4231 1454 3753 
Q 1025 3275 1025 2328 
Q 1025 1384 1454 906 
Q 1884 428 2741 428 
Q 3075 428 3337 486 
Q 3600 544 3809 666 
z
" transform="scale(0.015625)"/>
      <path id="DejaVuSans-4c" d="M 628 4666 
L 1259 4666 
L 1259 531 
L 3531 531 
L 3531 0 
L 628 0 
L 628 4666 
z
" transform="scale(0.015625)"/>
      <path id="DejaVuSans-4d" d="M 628 4666 
L 1569 4666 
L 2759 1491 
L 3956 4666 
L 4897 4666 
L 4897 0 
L 4281 0 
L 4281 4097 
L 3078 897 
L 2444 897 
L 1241 4097 
L 1241 0 
L 628 0 
L 628 4666 
z
" transform="scale(0.015625)"/>
     </defs>
     <use xlink:href="#DejaVuSans-44"/>
     <use xlink:href="#DejaVuSans-75" x="77.001953"/>
     <use xlink:href="#DejaVuSans-70" x="140.380859"/>
     <use xlink:href="#DejaVuSans-52" x="203.857422"/>
     <use xlink:href="#DejaVuSans-61" x="271.089844"/>
     <use xlink:href="#DejaVuSans-64" x="332.369141"/>
     <use xlink:href="#DejaVuSans-61" x="395.845703"/>
     <use xlink:href="#DejaVuSans-72" x="457.125"/>
     <use xlink:href="#DejaVuSans-20" x="498.238281"/>
     <use xlink:href="#DejaVuSans-47" x="530.025391"/>
     <use xlink:href="#DejaVuSans-65" x="607.515625"/>
     <use xlink:href="#DejaVuSans-6e" x="669.039062"/>
     <use xlink:href="#DejaVuSans-65" x="732.417969"/>
     <use xlink:href="#DejaVuSans-72" x="793.941406"/>
     <use xlink:href="#DejaVuSans-61" x="835.054688"/>
     <use xlink:href="#DejaVuSans-6c" x="896.333984"/>
     <use xlink:href="#DejaVuSans-20" x="924.117188"/>
     <use xlink:href="#DejaVuSans-4c" x="955.904297"/>
     <use xlink:href="#DejaVuSans-69" x="1011.617188"/>
     <use xlink:href="#DejaVuSans-6e" x="1039.400391"/>
     <use xlink:href="#DejaVuSans-65" x="1102.779297"/>
     <use xlink:href="#DejaVuSans-61" x="1164.302734"/>
     <use xlink:href="#DejaVuSans-72" x="1225.582031"/>
     <use xlink:href="#DejaVuSans-20" x="1266.695312"/>
     <use xlink:href="#DejaVuSans-4d" x="1298.482422"/>
     <use xlink:href="#DejaVuSans-6f" x="1384.761719"/>
     <use xlink:href="#DejaVuSans-64" x="1445.943359"/>
     <use xlink:href="#DejaVuSans-65" x="1509.419922"/>
     <use xlink:href="#DejaVuSans-6c" x="1570.943359"/>
    </g>
   </g>
   <g id="legend_1">
    <g id="line2d_20">
     <path d="M 50.348125 292.192894 
L 58.348125 292.192894 
L 66.348125 292.192894 
" style="fill: none; stroke: #7cb5ec; stroke-linecap: square"/>
    </g>
    <g id="text_17">
     <!-- SRR2155413 -->
     <g transform="translate(72.748125 294.992894)scale(0.08 -0.08)">
      <defs>
       <path id="DejaVuSans-53" d="M 3425 4513 
L 3425 3897 
Q 3066 4069 2747 4153 
Q 2428 4238 2131 4238 
Q 1616 4238 1336 4038 
Q 1056 3838 1056 3469 
Q 1056 3159 1242 3001 
Q 1428 2844 1947 2747 
L 2328 2669 
Q 3034 2534 3370 2195 
Q 3706 1856 3706 1288 
Q 3706 609 3251 259 
Q 2797 -91 1919 -91 
Q 1588 -91 1214 -16 
Q 841 59 441 206 
L 441 856 
Q 825 641 1194 531 
Q 1563 422 1919 422 
Q 2459 422 2753 634 
Q 3047 847 3047 1241 
Q 3047 1584 2836 1778 
Q 2625 1972 2144 2069 
L 1759 2144 
Q 1053 2284 737 2584 
Q 422 2884 422 3419 
Q 422 4038 858 4394 
Q 1294 4750 2059 4750 
Q 2388 4750 2728 4690 
Q 3069 4631 3425 4513 
z
" transform="scale(0.015625)"/>
       <path id="DejaVuSans-35" d="M 691 4666 
L 3169 4666 
L 3169 4134 
L 1269 4134 
L 1269 2991 
Q 1406 3038 1543 3061 
Q 1681 3084 1819 3084 
Q 2600 3084 3056 2656 
Q 3513 2228 3513 1497 
Q 3513 744 3044 326 
Q 2575 -91 1722 -91 
Q 1428 -91 1123 -41 
Q 819 9 494 109 
L 494 744 
Q 775 591 1075 516 
Q 1375 441 1709 441 
Q 2250 441 2565 725 
Q 2881 1009 2881 1497 
Q 2881 1984 2565 2268 
Q 2250 2553 1709 2553 
Q 1456 2553 1204 2497 
Q 953 2441 691 2322 
L 691 4666 
z
" transform="scale(0.015625)"/>
       <path id="DejaVuSans-33" d="M 2597 2516 
Q 3050 2419 3304 2112 
Q 3559 1806 3559 1356 
Q 3559 666 3084 287 
Q 2609 -91 1734 -91 
Q 1441 -91 1130 -33 
Q 819 25 488 141 
L 488 750 
Q 750 597 1062 519 
Q 1375 441 1716 441 
Q 2309 441 2620 675 
Q 2931 909 2931 1356 
Q 2931 1769 2642 2001 
Q 2353 2234 1838 2234 
L 1294 2234 
L 1294 2753 
L 1863 2753 
Q 2328 2753 2575 2939 
Q 2822 3125 2822 3475 
Q 2822 3834 2567 4026 
Q 2313 4219 1838 4219 
Q 1578 4219 1281 4162 
Q 984 4106 628 3988 
L 628 4550 
Q 988 4650 1302 4700 
Q 1616 4750 1894 4750 
Q 2613 4750 3031 4423 
Q 3450 4097 3450 3541 
Q 3450 3153 3228 2886 
Q 3006 2619 2597 2516 
z
" transform="scale(0.015625)"/>
      </defs>
      <use xlink:href="#DejaVuSans-53"/>
      <use xlink:href="#DejaVuSans-52" x="63.476562"/>
      <use xlink:href="#DejaVuSans-52" x="132.958984"/>
      <use xlink:href="#DejaVuSans-32" x="202.441406"/>
      <use xlink:href="#DejaVuSans-31" x="266.064453"/>
      <use xlink:href="#DejaVuSans-35" x="329.6875"/>
      <use xlink:href="#DejaVuSans-35" x="393.310547"/>
      <use xlink:href="#DejaVuSans-34" x="456.933594"/>
      <use xlink:href="#DejaVuSans-31" x="520.556641"/>
      <use xlink:href="#DejaVuSans-33" x="584.179688"/>
     </g>
    </g>
    <g id="line2d_21">
     <path d="M 50.348125 303.935394 
L 58.348125 303.935394 
L 66.348125 303.935394 
" style="fill: none; stroke: #434348; stroke-linecap: square"/>
    </g>
    <g id="text_18">
     <!-- SRR2155414 -->
     <g transform="translate(72.748125 306.735394)scale(0.08 -0.08)">
      <use xlink:href="#DejaVuSans-53"/>
      <use xlink:href="#DejaVuSans-52" x="63.476562"/>
      <use xlink:href="#DejaVuSans-52" x="132.958984"/>
      <use xlink:href="#DejaVuSans-32" x="202.441406"/>
      <use xlink:href="#DejaVuSans-31" x="266.064453"/>
      <use xlink:href="#DejaVuSans-35" x="329.6875"/>
      <use xlink:href="#DejaVuSans-35" x="393.310547"/>
      <use xlink:href="#DejaVuSans-34" x="456.933594"/>
      <use xlink:href="#DejaVuSans-31" x="520.556641"/>
      <use xlink:href="#DejaVuSans-34" x="584.179688"/>
     </g>
    </g>
    <g id="line2d_22">
     <path d="M 50.348125 315.677894 
L 58.348125 315.677894 
L 66.348125 315.677894 
" style="fill: none; stroke: #90ed7d; stroke-linecap: square"/>
    </g>
    <g id="text_19">
     <!-- SRR2155415 -->
     <g transform="translate(72.748125 318.477894)scale(0.08 -0.08)">
      <use xlink:href="#DejaVuSans-53"/>
      <use xlink:href="#DejaVuSans-52" x="63.476562"/>
      <use xlink:href="#DejaVuSans-52" x="132.958984"/>
      <use xlink:href="#DejaVuSans-32" x="202.441406"/>
      <use xlink:href="#DejaVuSans-31" x="266.064453"/>
      <use xlink:href="#DejaVuSans-35" x="329.6875"/>
      <use xlink:href="#DejaVuSans-35" x="393.310547"/>
      <use xlink:href="#DejaVuSans-34" x="456.933594"/>
      <use xlink:href="#DejaVuSans-31" x="520.556641"/>
      <use xlink:href="#DejaVuSans-35" x="584.179688"/>
     </g>
    </g>
    <g id="line2d_23">
     <path d="M 265.674062 292.192894 
L 273.674062 292.192894 
L 281.674062 292.192894 
" style="fill: none; stroke: #f7a35c; stroke-linecap: square"/>
    </g>
    <g id="text_20">
     <!-- SRR2155416 -->
     <g transform="translate(288.074062 294.992894)scale(0.08 -0.08)">
      <use xlink:href="#DejaVuSans-53"/>
      <use xlink:href="#DejaVuSans-52" x="63.476562"/>
      <use xlink:href="#DejaVuSans-52" x="132.958984"/>
      <use xlink:href="#DejaVuSans-32" x="202.441406"/>
      <use xlink:href="#DejaVuSans-31" x="266.064453"/>
      <use xlink:href="#DejaVuSans-35" x="329.6875"/>
      <use xlink:href="#DejaVuSans-35" x="393.310547"/>
      <use xlink:href="#DejaVuSans-34" x="456.933594"/>
      <use xlink:href="#DejaVuSans-31" x="520.556641"/>
      <use xlink:href="#DejaVuSans-36" x="584.179688"/>
     </g>
    </g>
    <g id="line2d_24">
     <path d="M 265.674062 303.935394 
L 273.674062 303.935394 
L 281.674062 303.935394 
" style="fill: none; stroke: #8085e9; stroke-linecap: square"/>
    </g>
    <g id="text_21">
     <!-- SRR2155417 -->
     <g transform="translate(288.074062 306.735394)scale(0.08 -0.08)">
      <defs>
       <path id="DejaVuSans-37" d="M 525 4666 
L 3525 4666 
L 3525 4397 
L 1831 0 
L 1172 0 
L 2766 4134 
L 525 4134 
L 525 4666 
z
" transform="scale(0.015625)"/>
      </defs>
      <use xlink:href="#DejaVuSans-53"/>
      <use xlink:href="#DejaVuSans-52" x="63.476562"/>
      <use xlink:href="#DejaVuSans-52" x="132.958984"/>
      <use xlink:href="#DejaVuSans-32" x="202.441406"/>
      <use xlink:href="#DejaVuSans-31" x="266.064453"/>
      <use xlink:href="#DejaVuSans-35" x="329.6875"/>
      <use xlink:href="#DejaVuSans-35" x="393.310547"/>
      <use xlink:href="#DejaVuSans-34" x="456.933594"/>
      <use xlink:href="#DejaVuSans-31" x="520.556641"/>
      <use xlink:href="#DejaVuSans-37" x="584.179688"/>
     </g>
    </g>
    <g id="line2d_25">
     <path d="M 265.674062 315.677894 
L 273.674062 315.677894 
L 281.674062 315.677894 
" style="fill: none; stroke: #f15c80; stroke-linecap: square"/>
    </g>
    <g id="text_22">
     <!-- SRR2155418 -->
     <g transform="translate(288.074062 318.477894)scale(0.08 -0.08)">
      <use xlink:href="#DejaVuSans-53"/>
      <use xlink:href="#DejaVuSans-52" x="63.476562"/>
      <use xlink:href="#DejaVuSans-52" x="132.958984"/>
      <use xlink:href="#DejaVuSans-32" x="202.441406"/>
      <use xlink:href="#DejaVuSans-31" x="266.064453"/>
      <use xlink:href="#DejaVuSans-35" x="329.6875"/>
      <use xlink:href="#DejaVuSans-35" x="393.310547"/>
      <use xlink:href="#DejaVuSans-34" x="456.933594"/>
      <use xlink:href="#DejaVuSans-31" x="520.556641"/>
      <use xlink:href="#DejaVuSans-38" x="584.179688"/>
     </g>
    </g>
    <g id="line2d_26">
     <path d="M 481 292.192894 
L 489 292.192894 
L 497 292.192894 
" style="fill: none; stroke: #e4d354; stroke-linecap: square"/>
    </g>
    <g id="text_23">
     <!-- SRR2155419 -->
     <g transform="translate(503.4 294.992894)scale(0.08 -0.08)">
      <defs>
       <path id="DejaVuSans-39" d="M 703 97 
L 703 672 
Q 941 559 1184 500 
Q 1428 441 1663 441 
Q 2288 441 2617 861 
Q 2947 1281 2994 2138 
Q 2813 1869 2534 1725 
Q 2256 1581 1919 1581 
Q 1219 1581 811 2004 
Q 403 2428 403 3163 
Q 403 3881 828 4315 
Q 1253 4750 1959 4750 
Q 2769 4750 3195 4129 
Q 3622 3509 3622 2328 
Q 3622 1225 3098 567 
Q 2575 -91 1691 -91 
Q 1453 -91 1209 -44 
Q 966 3 703 97 
z
M 1959 2075 
Q 2384 2075 2632 2365 
Q 2881 2656 2881 3163 
Q 2881 3666 2632 3958 
Q 2384 4250 1959 4250 
Q 1534 4250 1286 3958 
Q 1038 3666 1038 3163 
Q 1038 2656 1286 2365 
Q 1534 2075 1959 2075 
z
" transform="scale(0.015625)"/>
      </defs>
      <use xlink:href="#DejaVuSans-53"/>
      <use xlink:href="#DejaVuSans-52" x="63.476562"/>
      <use xlink:href="#DejaVuSans-52" x="132.958984"/>
      <use xlink:href="#DejaVuSans-32" x="202.441406"/>
      <use xlink:href="#DejaVuSans-31" x="266.064453"/>
      <use xlink:href="#DejaVuSans-35" x="329.6875"/>
      <use xlink:href="#DejaVuSans-35" x="393.310547"/>
      <use xlink:href="#DejaVuSans-34" x="456.933594"/>
      <use xlink:href="#DejaVuSans-31" x="520.556641"/>
      <use xlink:href="#DejaVuSans-39" x="584.179688"/>
     </g>
    </g>
    <g id="line2d_27">
     <path d="M 481 303.935394 
L 489 303.935394 
L 497 303.935394 
" style="fill: none; stroke: #2b908f; stroke-linecap: square"/>
    </g>
    <g id="text_24">
     <!-- SRR2155420 -->
     <g transform="translate(503.4 306.735394)scale(0.08 -0.08)">
      <use xlink:href="#DejaVuSans-53"/>
      <use xlink:href="#DejaVuSans-52" x="63.476562"/>
      <use xlink:href="#DejaVuSans-52" x="132.958984"/>
      <use xlink:href="#DejaVuSans-32" x="202.441406"/>
      <use xlink:href="#DejaVuSans-31" x="266.064453"/>
      <use xlink:href="#DejaVuSans-35" x="329.6875"/>
      <use xlink:href="#DejaVuSans-35" x="393.310547"/>
      <use xlink:href="#DejaVuSans-34" x="456.933594"/>
      <use xlink:href="#DejaVuSans-32" x="520.556641"/>
      <use xlink:href="#DejaVuSans-30" x="584.179688"/>
     </g>
    </g>
    <g id="line2d_28">
     <path d="M 696.325938 292.192894 
L 704.325938 292.192894 
L 712.325938 292.192894 
" style="fill: none; stroke: #f45b5b; stroke-linecap: square"/>
    </g>
    <g id="text_25">
     <!-- SRR2155421 -->
     <g transform="translate(718.725937 294.992894)scale(0.08 -0.08)">
      <use xlink:href="#DejaVuSans-53"/>
      <use xlink:href="#DejaVuSans-52" x="63.476562"/>
      <use xlink:href="#DejaVuSans-52" x="132.958984"/>
      <use xlink:href="#DejaVuSans-32" x="202.441406"/>
      <use xlink:href="#DejaVuSans-31" x="266.064453"/>
      <use xlink:href="#DejaVuSans-35" x="329.6875"/>
      <use xlink:href="#DejaVuSans-35" x="393.310547"/>
      <use xlink:href="#DejaVuSans-34" x="456.933594"/>
      <use xlink:href="#DejaVuSans-32" x="520.556641"/>
      <use xlink:href="#DejaVuSans-31" x="584.179688"/>
     </g>
    </g>
    <g id="line2d_29">
     <path d="M 696.325938 303.935394 
L 704.325938 303.935394 
L 712.325938 303.935394 
" style="fill: none; stroke: #91e8e1; stroke-linecap: square"/>
    </g>
    <g id="text_26">
     <!-- SRR2155422 -->
     <g transform="translate(718.725937 306.735394)scale(0.08 -0.08)">
      <use xlink:href="#DejaVuSans-53"/>
      <use xlink:href="#DejaVuSans-52" x="63.476562"/>
      <use xlink:href="#DejaVuSans-52" x="132.958984"/>
      <use xlink:href="#DejaVuSans-32" x="202.441406"/>
      <use xlink:href="#DejaVuSans-31" x="266.064453"/>
      <use xlink:href="#DejaVuSans-35" x="329.6875"/>
      <use xlink:href="#DejaVuSans-35" x="393.310547"/>
      <use xlink:href="#DejaVuSans-34" x="456.933594"/>
      <use xlink:href="#DejaVuSans-32" x="520.556641"/>
      <use xlink:href="#DejaVuSans-32" x="584.179688"/>
     </g>
    </g>
    <g id="line2d_30">
     <path d="M 911.651875 292.192894 
L 919.651875 292.192894 
L 927.651875 292.192894 
" style="fill: none; stroke: #7cb5ec; stroke-linecap: square"/>
    </g>
    <g id="text_27">
     <!-- SRR2155423 -->
     <g transform="translate(934.051875 294.992894)scale(0.08 -0.08)">
      <use xlink:href="#DejaVuSans-53"/>
      <use xlink:href="#DejaVuSans-52" x="63.476562"/>
      <use xlink:href="#DejaVuSans-52" x="132.958984"/>
      <use xlink:href="#DejaVuSans-32" x="202.441406"/>
      <use xlink:href="#DejaVuSans-31" x="266.064453"/>
      <use xlink:href="#DejaVuSans-35" x="329.6875"/>
      <use xlink:href="#DejaVuSans-35" x="393.310547"/>
      <use xlink:href="#DejaVuSans-34" x="456.933594"/>
      <use xlink:href="#DejaVuSans-32" x="520.556641"/>
      <use xlink:href="#DejaVuSans-33" x="584.179688"/>
     </g>
    </g>
    <g id="line2d_31">
     <path d="M 911.651875 303.935394 
L 919.651875 303.935394 
L 927.651875 303.935394 
" style="fill: none; stroke: #434348; stroke-linecap: square"/>
    </g>
    <g id="text_28">
     <!-- SRR2155424 -->
     <g transform="translate(934.051875 306.735394)scale(0.08 -0.08)">
      <use xlink:href="#DejaVuSans-53"/>
      <use xlink:href="#DejaVuSans-52" x="63.476562"/>
      <use xlink:href="#DejaVuSans-52" x="132.958984"/>
      <use xlink:href="#DejaVuSans-32" x="202.441406"/>
      <use xlink:href="#DejaVuSans-31" x="266.064453"/>
      <use xlink:href="#DejaVuSans-35" x="329.6875"/>
      <use xlink:href="#DejaVuSans-35" x="393.310547"/>
      <use xlink:href="#DejaVuSans-34" x="456.933594"/>
      <use xlink:href="#DejaVuSans-32" x="520.556641"/>
      <use xlink:href="#DejaVuSans-34" x="584.179688"/>
     </g>
    </g>
   </g>
  </g>
 </g>
 <defs>
  <clipPath id="p89e8b0ed07">
   <rect x="43.148125" y="31.48286" width="949.93" height="242.5072"/>
  </clipPath>
 </defs>
</svg>
